M48
; DRILL file {KiCad 8.0.8-8.0.8-0~ubuntu24.04.1} date 2025-02-10T03:02:03+0000
; FORMAT={2:4/ absolute / inch / suppress leading zeros}
; #@! TF.CreationDate,2025-02-10T03:02:03+00:00
; #@! TF.GenerationSoftware,Kicad,Pcbnew,8.0.8-8.0.8-0~ubuntu24.04.1
; #@! TF.FileFunction,MixedPlating,1,4
FMAT,2
INCH,TZ
; #@! TA.AperFunction,Plated,PTH,ViaDrill
T1C0.0079
; #@! TA.AperFunction,Plated,PTH,ComponentDrill
T2C0.0118
; #@! TA.AperFunction,Plated,PTH,ComponentDrill
T3C0.0276
; #@! TA.AperFunction,Plated,PTH,ComponentDrill
T4C0.0320
; #@! TA.AperFunction,Plated,PTH,ComponentDrill
T5C0.0394
; #@! TA.AperFunction,Plated,PTH,ComponentDrill
T6C0.0433
; #@! TA.AperFunction,Plated,PTH,ComponentDrill
T7C0.0689
; #@! TA.AperFunction,Plated,PTH,ComponentDrill
T8C0.1260
; #@! TA.AperFunction,NonPlated,NPTH,ComponentDrill
T9C0.1122
%
G90
G05
T1
X313Y14718
X313Y13537
X313Y12355
X313Y11174
X313Y9993
X313Y8812
X313Y7631
X313Y6450
X313Y5269
X313Y4088
X1053Y28889
X1053Y27708
X1053Y26527
X1053Y22984
X1053Y18260
X1053Y17078
X1053Y15897
X1053Y543
X2234Y28889
X2234Y27708
X2234Y24165
X2234Y543
X2877Y15210
X3415Y28889
X3415Y27708
X3415Y22984
X3415Y1724
X3415Y543
X3625Y16312
X3664Y15643
X4019Y18793
X4215Y15210
X4596Y28889
X4596Y27708
X4596Y543
X4767Y3911
X4998Y20407
X5001Y17156
X5778Y28889
X5778Y27708
X5778Y22984
X5778Y21803
X5778Y543
X6263Y14580
X6263Y13399
X6263Y12218
X6263Y11037
X6263Y9856
X6263Y8674
X6263Y7493
X6263Y6312
X6263Y5131
X6263Y3950
X6302Y18793
X6959Y28889
X6959Y27708
X6959Y24165
X6959Y22984
X6959Y21803
X6959Y543
X7522Y9777
X7759Y20840
X8140Y28889
X8140Y27708
X8140Y22984
X8140Y21803
X8140Y14716
X8140Y13535
X8140Y12354
X8140Y543
X8192Y9462
X8192Y8281
X8192Y5919
X8192Y4737
X9176Y3517
X9321Y28889
X9321Y25346
X9321Y22984
X9321Y21803
X9321Y20622
X9321Y18260
X9321Y12354
X9321Y543
X9373Y2296
X10003Y18320
X10081Y12021
X10357Y3517
X10502Y28889
X10502Y27708
X10502Y12354
X10502Y543
X10554Y2296
X11263Y12021
X11341Y13123
X11459Y16470
X11538Y3517
X11683Y28889
X11683Y27708
X11683Y543
X11735Y2296
X12129Y21115
X12444Y12021
X12719Y3517
X12864Y28889
X12864Y27708
X12864Y22984
X12864Y12354
X12864Y543
X12916Y2296
X13231Y14669
X13507Y13320
X13625Y12021
X13782Y16352
X13882Y14336
X13900Y3517
X14045Y28889
X14045Y27708
X14045Y20622
X14045Y12354
X14045Y543
X14097Y2296
X14696Y21824
X14727Y22651
X14885Y14383
X14924Y20249
X15226Y28889
X15226Y543
X15278Y2296
X15318Y11981
X15318Y10800
X15318Y9619
X15318Y8438
X15318Y7257
X15318Y6076
X16184Y20249
X16341Y18596
X16407Y28889
X16407Y543
X16459Y2296
X17207Y26785
X17326Y26037
X17389Y11895
X17404Y18674
X17444Y8163
X17444Y5092
X17589Y28889
X17589Y543
X17641Y2296
X17916Y5092
X17995Y26548
X17995Y21942
X17995Y20761
X17995Y19580
X17995Y18202
X17995Y12375
X18034Y10210
X18034Y9029
X18034Y7848
X18152Y22769
X18770Y543
X18959Y2277
X19176Y21942
X19176Y5485
X19215Y4856
X19767Y28281
X20003Y24304
X20003Y23596
X20003Y4856
X20219Y5466
X20278Y7296
X20357Y21942
X20436Y800
X20515Y28320
X21046Y4600
X21302Y5446
X21932Y3163
X21932Y2375
X22313Y28889
X22313Y25346
X22444Y7415
X22522Y3163
X22562Y2375
X23494Y28889
X24412Y4422
X24412Y2178
X24412Y800
X24675Y28889
X24675Y25346
X24688Y5722
X24963Y4422
X25396Y7139
X25856Y28889
X25856Y4086
X26302Y7375
X27037Y28889
X27037Y25346
X27680Y7415
X28219Y28889
X28219Y22984
X28349Y27139
X29097Y4462
X29400Y28889
X29530Y27139
X30081Y7375
X30581Y28889
X30581Y25346
X30711Y27139
X30908Y22178
X31026Y3163
X31656Y23517
X31762Y28889
X31762Y25346
X31814Y19462
X31814Y18281
X31814Y17100
X31853Y21233
X31893Y27139
X31893Y12533
X31932Y15052
X31932Y13871
X31932Y11391
X31932Y10210
X31932Y9029
X31932Y7848
X32168Y24068
X32188Y23537
X32188Y23025
X32247Y7415
X32601Y9186
X32943Y28889
X32943Y25346
X32995Y9777
X33074Y27139
X33270Y8832
X33320Y12365
X33507Y8202
X33520Y7379
X33546Y9344
X33822Y24895
X33822Y23714
X33822Y22533
X33822Y21352
X33822Y20170
X33822Y18989
X33822Y17808
X33868Y11924
X34124Y28889
X34124Y14716
X34235Y7474
X34255Y27139
X34488Y11446
X34806Y9580
X34806Y8832
X35305Y28889
X35305Y15897
X35305Y14716
X35305Y13535
X35305Y11173
X35436Y27139
X35672Y20761
X36026Y15367
X36054Y21286
X36305Y15948
X36345Y20661
X36486Y28889
X36486Y11173
X36678Y21577
X36679Y15370
X36883Y16322
X36969Y20953
X37257Y15744
X37404Y21509
X37522Y16273
X37667Y28889
X37667Y11173
X38820Y17046
X38822Y12257
X38848Y28889
X38853Y6146
X39176Y27178
X39530Y16942
X39688Y6981
X39727Y16601
X39871Y17139
X40030Y28889
X40030Y15897
X40030Y14716
X40030Y13535
X40035Y11839
X40068Y16798
X40232Y11498
X40357Y27178
X40376Y12036
X40523Y7817
X40573Y11695
X40593Y16981
X40926Y17575
X41211Y28889
X41211Y20622
X41211Y14716
X41211Y13535
X41211Y12354
X41319Y17009
X41420Y9698
X41492Y17968
X41538Y27178
X41735Y20604
X41816Y21255
X41885Y17402
X42168Y17966
X42241Y21798
X42247Y26115
X42359Y20831
X42392Y28889
X42392Y24165
X42392Y12354
X42719Y27178
X42783Y21374
X42837Y22021
X43467Y13753
X43573Y28889
X43573Y26527
X43573Y21803
X43573Y17078
X43573Y4086
X43573Y2905
X43625Y5643
X43900Y27178
X44097Y9895
X44620Y13415
X44754Y28889
X44754Y26527
X44754Y21803
X44817Y13074
X44961Y13612
X44963Y25446
X45158Y13271
X45278Y9895
X45711Y16391
X45776Y28434
X46040Y17430
X46237Y17089
X46381Y17626
X46381Y14147
X46383Y14857
X46459Y9895
X46578Y17285
X47116Y28889
X47116Y22984
X47116Y11173
X47168Y18478
X47641Y9895
X47680Y15761
X47877Y19029
X47916Y14934
X48034Y15761
X48297Y28889
X48297Y12354
X48297Y2905
X48576Y19715
X48625Y27139
X48822Y9895
X49137Y14186
X49237Y21706
X49478Y28889
X49478Y25346
X49478Y11173
X49491Y14186
X49806Y21863
X49982Y18950
X50003Y9895
X50160Y21863
X50659Y15897
X50659Y14716
X50659Y13535
X50659Y12354
X50659Y11173
X50659Y2905
X50659Y1724
X50711Y19186
X50790Y22021
X50908Y26430
X51184Y9895
X51499Y11824
X51735Y27926
X51841Y17078
X51841Y15897
X51841Y13535
X51841Y12354
X51841Y11173
X52365Y9895
X53022Y12354
X53022Y11173
X53546Y9895
X53782Y15840
X53782Y15485
X53861Y20604
X54058Y26863
X54203Y25346
X54203Y11173
X54215Y20604
X54530Y16745
X54727Y9895
X55357Y13478
X55384Y27708
X55384Y11173
X55384Y543
X55908Y958
X56193Y7856
X56565Y27708
X56565Y25346
X56565Y20622
X56565Y15897
X56565Y14716
X56565Y543
X57050Y19816
X57089Y15761
X57247Y19107
X57404Y19816
X57444Y15761
X57746Y12354
X57746Y7630
X57746Y6449
X57746Y5267
X57746Y4086
X57746Y2905
X57746Y1724
X57746Y543
X58192Y22218
X58782Y12651
X58927Y28889
X58927Y7630
X58927Y6449
X58927Y5267
X58927Y4086
X58927Y2905
X58927Y1724
X58927Y543
X58940Y20793
X59137Y12651
X60108Y28889
X60108Y27708
X60108Y15897
X60108Y14716
X60108Y7630
X60108Y6449
X60108Y5267
X60108Y4086
X60108Y2905
X60108Y1724
X60108Y543
X60554Y22493
X60987Y12257
X61289Y28889
X61289Y27708
X61289Y26527
X61289Y17078
X61289Y15897
X61289Y543
X62470Y28889
X62470Y27708
X62470Y26527
X62470Y25346
X62470Y24165
X62470Y22984
X62470Y21803
X62470Y20622
X62470Y17078
X62470Y15897
X62470Y14716
X62470Y13535
X62470Y12354
X62470Y11173
X62470Y9992
X62470Y8811
X62470Y7630
X62470Y6449
X62470Y5267
X62470Y4086
X62470Y2905
X62470Y1724
X62470Y543
T2
X1169Y4378
X1563Y4378
X1956Y4378
X2350Y4378
X3277Y14847
X3677Y14847
X4574Y14847
X4968Y14847
X5362Y14847
X8519Y10456
X8519Y10062
X18373Y17391
X18373Y17076
X18373Y16761
X18373Y16446
X18373Y16131
X18373Y15816
X18373Y15501
X18373Y15186
X18373Y14871
X18373Y14556
X18373Y14241
X18373Y13926
X18373Y13611
X18373Y13296
X18373Y12667
X18373Y12115
X18373Y11800
X18373Y11485
X18373Y11170
X18373Y10856
X18373Y10541
X18373Y19084
X18373Y12981
X18530Y7706
X18845Y7706
X19160Y7706
X19475Y7706
X19790Y7706
X20105Y7706
X20420Y7706
X20735Y7706
X20971Y21643
X21050Y7706
X21365Y7706
X21444Y21643
X21680Y7706
X21916Y21643
X21995Y7706
X22389Y21643
X22861Y21643
X22940Y7706
X23255Y7706
X23333Y21643
X23570Y7706
X23806Y21643
X23885Y7706
X24200Y7706
X24278Y21643
X24515Y7706
X24751Y21643
X24830Y7706
X25144Y7706
X25223Y21643
X25459Y7706
X25696Y21643
X26168Y21643
X26641Y21643
X27113Y21643
X27152Y7706
X27585Y21643
X28058Y21643
X28215Y7706
X28530Y21643
X28609Y7706
X29003Y21643
X29475Y21643
X29948Y21643
X30420Y21643
X31365Y21643
X31522Y20659
X31522Y20265
X31522Y16052
X31522Y15659
X31522Y15265
X31522Y14871
X31522Y14478
X31522Y14084
X31522Y13690
X31522Y13296
X31522Y12273
X31522Y11958
X31522Y10107
X31522Y9556
X31522Y7706
X44067Y9040
X44067Y8646
X44067Y8253
X44067Y7859
X54536Y6932
X54536Y6532
X54536Y5635
X54536Y5241
X54536Y4847
T3
X46753Y2215
X47068Y2904
X47383Y2215
X47698Y2904
X48013Y2215
T4
X10046Y22277
X10127Y20692
X11410Y20913
X11492Y19328
T5
X8476Y17233
X8476Y16233
X8696Y11578
X8696Y9117
X8696Y7424
X8696Y6676
X8696Y4156
X14799Y11400
X14799Y6656
X14799Y4707
X14799Y3979
X54919Y3006
X54919Y2006
X55500Y6296
X55500Y5296
T6
X3317Y25307
X3317Y23693
X5561Y25307
X5561Y23693
X7805Y25307
X7805Y23693
X10049Y25307
X10049Y23693
X12293Y25307
X12293Y23693
X14537Y25307
X14537Y23693
X16781Y25307
X16781Y23693
X19026Y25307
X19026Y23693
X21270Y25307
X21270Y23693
X23514Y25307
X23514Y23693
X25758Y25307
X25758Y23693
X37175Y25288
X37175Y23674
X39419Y25288
X39419Y23674
X41663Y25288
X41663Y23674
X43907Y25288
X43907Y23674
X46152Y25288
X46152Y23674
X48396Y25288
X48396Y23674
X50640Y25288
X50640Y23674
X52884Y25288
X52884Y23674
X55128Y25288
X55128Y23674
X57372Y25288
X57372Y23674
X59616Y25288
X59616Y23674
T7
X25987Y5402
X25987Y2252
X26774Y3827
X27562Y5402
X27562Y2252
X28349Y3827
X29137Y5402
X29137Y2252
X29924Y3827
X30711Y5402
X30711Y2252
X31499Y3827
X32286Y5402
X32286Y2252
X33074Y3827
X33861Y5402
X33861Y2252
X34648Y3827
X35436Y5402
X35436Y2252
X36223Y3827
X37011Y5402
X37011Y2252
T8
X1742Y20741
X1969Y1969
X52346Y1831
X61372Y19267
T9
X23428Y3630
X39570Y3630
T3
X45946Y2816G85X45946Y2304
G05
X48820Y2816G85X48820Y2304
G05
M30
