G04 #@! TF.GenerationSoftware,KiCad,Pcbnew,8.0.8-8.0.8-0~ubuntu24.04.1*
G04 #@! TF.CreationDate,2025-02-06T21:48:32+00:00*
G04 #@! TF.ProjectId,VFRECU-VR,56465245-4355-42d5-9652-2e6b69636164,rev?*
G04 #@! TF.SameCoordinates,Original*
G04 #@! TF.FileFunction,Copper,L4,Bot*
G04 #@! TF.FilePolarity,Positive*
%FSLAX46Y46*%
G04 Gerber Fmt 4.6, Leading zero omitted, Abs format (unit mm)*
G04 Created by KiCad (PCBNEW 8.0.8-8.0.8-0~ubuntu24.04.1) date 2025-02-06 21:48:32*
%MOMM*%
%LPD*%
G01*
G04 APERTURE LIST*
G04 #@! TA.AperFunction,Conductor*
%ADD10C,0.000000*%
G04 #@! TD*
G04 #@! TA.AperFunction,Conductor*
%ADD11C,0.200000*%
G04 #@! TD*
G04 #@! TA.AperFunction,ComponentPad*
%ADD12C,5.600000*%
G04 #@! TD*
G04 #@! TA.AperFunction,ComponentPad*
%ADD13R,1.700000X1.700000*%
G04 #@! TD*
G04 #@! TA.AperFunction,ComponentPad*
%ADD14O,1.700000X1.700000*%
G04 #@! TD*
G04 #@! TA.AperFunction,ComponentPad*
%ADD15C,0.700000*%
G04 #@! TD*
G04 #@! TA.AperFunction,SMDPad,CuDef*
%ADD16R,1.100000X0.250000*%
G04 #@! TD*
G04 #@! TA.AperFunction,SMDPad,CuDef*
%ADD17R,0.980000X0.250000*%
G04 #@! TD*
G04 #@! TA.AperFunction,SMDPad,CuDef*
%ADD18R,6.300000X0.250000*%
G04 #@! TD*
G04 #@! TA.AperFunction,SMDPad,CuDef*
%ADD19R,0.250000X27.600000*%
G04 #@! TD*
G04 #@! TA.AperFunction,SMDPad,CuDef*
%ADD20R,8.750000X0.250000*%
G04 #@! TD*
G04 #@! TA.AperFunction,SMDPad,CuDef*
%ADD21R,0.950000X0.250000*%
G04 #@! TD*
G04 #@! TA.AperFunction,ComponentPad*
%ADD22C,1.500000*%
G04 #@! TD*
G04 #@! TA.AperFunction,ComponentPad*
%ADD23C,0.600000*%
G04 #@! TD*
G04 #@! TA.AperFunction,SMDPad,CuDef*
%ADD24O,0.200000X3.300000*%
G04 #@! TD*
G04 #@! TA.AperFunction,SMDPad,CuDef*
%ADD25O,0.200000X10.200000*%
G04 #@! TD*
G04 #@! TA.AperFunction,SMDPad,CuDef*
%ADD26O,0.200000X0.300000*%
G04 #@! TD*
G04 #@! TA.AperFunction,SMDPad,CuDef*
%ADD27O,17.000000X0.200000*%
G04 #@! TD*
G04 #@! TA.AperFunction,SMDPad,CuDef*
%ADD28O,15.400000X0.200000*%
G04 #@! TD*
G04 #@! TA.AperFunction,SMDPad,CuDef*
%ADD29O,0.200000X4.800000*%
G04 #@! TD*
G04 #@! TA.AperFunction,SMDPad,CuDef*
%ADD30O,0.200000X2.600000*%
G04 #@! TD*
G04 #@! TA.AperFunction,SMDPad,CuDef*
%ADD31O,0.200000X1.000000*%
G04 #@! TD*
G04 #@! TA.AperFunction,SMDPad,CuDef*
%ADD32O,0.200000X1.500000*%
G04 #@! TD*
G04 #@! TA.AperFunction,ComponentPad*
%ADD33R,2.625000X2.625000*%
G04 #@! TD*
G04 #@! TA.AperFunction,ComponentPad*
%ADD34C,2.625000*%
G04 #@! TD*
G04 #@! TA.AperFunction,ComponentPad*
%ADD35R,1.100000X1.100000*%
G04 #@! TD*
G04 #@! TA.AperFunction,ComponentPad*
%ADD36C,1.100000*%
G04 #@! TD*
G04 #@! TA.AperFunction,ComponentPad*
%ADD37O,1.100000X2.400000*%
G04 #@! TD*
G04 #@! TA.AperFunction,ComponentPad*
%ADD38C,1.524000*%
G04 #@! TD*
G04 #@! TA.AperFunction,SMDPad,CuDef*
%ADD39R,0.200000X3.700000*%
G04 #@! TD*
G04 #@! TA.AperFunction,SMDPad,CuDef*
%ADD40R,0.200000X0.400000*%
G04 #@! TD*
G04 #@! TA.AperFunction,SMDPad,CuDef*
%ADD41R,0.200000X1.600000*%
G04 #@! TD*
G04 #@! TA.AperFunction,SMDPad,CuDef*
%ADD42R,0.200000X9.700000*%
G04 #@! TD*
G04 #@! TA.AperFunction,SMDPad,CuDef*
%ADD43R,0.200000X2.300000*%
G04 #@! TD*
G04 #@! TA.AperFunction,SMDPad,CuDef*
%ADD44R,1.400000X0.200000*%
G04 #@! TD*
G04 #@! TA.AperFunction,SMDPad,CuDef*
%ADD45R,6.400000X0.200000*%
G04 #@! TD*
G04 #@! TA.AperFunction,SMDPad,CuDef*
%ADD46R,1.700000X0.200000*%
G04 #@! TD*
G04 #@! TA.AperFunction,SMDPad,CuDef*
%ADD47R,3.300000X0.200000*%
G04 #@! TD*
G04 #@! TA.AperFunction,SMDPad,CuDef*
%ADD48R,0.200000X7.000000*%
G04 #@! TD*
G04 #@! TA.AperFunction,SMDPad,CuDef*
%ADD49R,0.200000X3.300000*%
G04 #@! TD*
G04 #@! TA.AperFunction,SMDPad,CuDef*
%ADD50R,0.200000X6.300000*%
G04 #@! TD*
G04 #@! TA.AperFunction,SMDPad,CuDef*
%ADD51R,0.250000X1.100000*%
G04 #@! TD*
G04 #@! TA.AperFunction,SMDPad,CuDef*
%ADD52R,0.250000X0.980000*%
G04 #@! TD*
G04 #@! TA.AperFunction,SMDPad,CuDef*
%ADD53R,0.250000X6.300000*%
G04 #@! TD*
G04 #@! TA.AperFunction,SMDPad,CuDef*
%ADD54R,27.600000X0.250000*%
G04 #@! TD*
G04 #@! TA.AperFunction,SMDPad,CuDef*
%ADD55R,0.250000X8.750000*%
G04 #@! TD*
G04 #@! TA.AperFunction,SMDPad,CuDef*
%ADD56R,0.250000X0.950000*%
G04 #@! TD*
G04 #@! TA.AperFunction,ViaPad*
%ADD57C,0.500000*%
G04 #@! TD*
G04 #@! TA.AperFunction,ViaPad*
%ADD58C,1.000000*%
G04 #@! TD*
G04 #@! TA.AperFunction,Conductor*
%ADD59C,0.500000*%
G04 #@! TD*
G04 #@! TA.AperFunction,Conductor*
%ADD60C,0.300000*%
G04 #@! TD*
G04 #@! TA.AperFunction,Conductor*
%ADD61C,2.000000*%
G04 #@! TD*
G04 #@! TA.AperFunction,Conductor*
%ADD62C,1.500000*%
G04 #@! TD*
G04 #@! TA.AperFunction,Conductor*
%ADD63C,0.800000*%
G04 #@! TD*
G04 #@! TA.AperFunction,Conductor*
%ADD64C,1.000000*%
G04 #@! TD*
G04 #@! TA.AperFunction,Conductor*
%ADD65C,0.250000*%
G04 #@! TD*
G04 APERTURE END LIST*
G04 #@! TA.AperFunction,Conductor*
G04 #@! TO.N,GND*
G36*
X45901757Y31672208D02*
G01*
X46369895Y31672208D01*
X46369895Y31272207D01*
X45901757Y31272207D01*
X45901757Y31672208D01*
G37*
G04 #@! TD.AperFunction*
G04 #@! TA.AperFunction,Conductor*
G04 #@! TO.N,+12V_RAW*
G36*
X42207000Y17250824D02*
G01*
X42444875Y17250824D01*
X42444875Y16633000D01*
X42207000Y16633000D01*
X42207000Y17250824D01*
G37*
G04 #@! TD.AperFunction*
D10*
G04 #@! TA.AperFunction,Conductor*
G36*
X120454529Y39432990D02*
G01*
X118992737Y39665644D01*
X119514441Y40698426D01*
X120710023Y40709706D01*
X120454529Y39432990D01*
G37*
G04 #@! TD.AperFunction*
G04 #@! TA.AperFunction,Conductor*
G04 #@! TO.N,GND*
G36*
X80168269Y25177002D02*
G01*
X80766477Y25177002D01*
X80766477Y24776526D01*
X80168269Y24776526D01*
X80168269Y25177002D01*
G37*
G04 #@! TD.AperFunction*
G04 #@! TA.AperFunction,Conductor*
G04 #@! TO.N,+12V_RAW*
G36*
X42007000Y15333000D02*
G01*
X42807000Y15333000D01*
X42807000Y14933000D01*
X42007000Y14933000D01*
X42007000Y15333000D01*
G37*
G04 #@! TD.AperFunction*
D11*
G04 #@! TO.N,/IGN4*
X98603860Y43296520D02*
X97026520Y45994000D01*
G04 #@! TA.AperFunction,Conductor*
G04 #@! TO.N,+12V_RAW*
G36*
X42107000Y16933000D02*
G01*
X42807000Y16933000D01*
X42807000Y16733000D01*
X42107000Y16733000D01*
X42107000Y16933000D01*
G37*
G04 #@! TD.AperFunction*
G04 #@! TO.N,/CAM+*
X8024920Y60144340D02*
X7703120Y56712800D01*
G04 #@! TD*
D12*
G04 #@! TO.P,H3,1,1*
G04 #@! TO.N,GND*
X5000000Y5000000D03*
G04 #@! TD*
G04 #@! TO.P,H1,1,1*
G04 #@! TO.N,GND*
X155885000Y48938000D03*
G04 #@! TD*
D13*
G04 #@! TO.P,JP3,1,A*
G04 #@! TO.N,+3.3VA*
X139494000Y7635000D03*
D14*
G04 #@! TO.P,JP3,2,B*
G04 #@! TO.N,Net-(JP3-B)*
X139494000Y5095000D03*
G04 #@! TD*
D13*
G04 #@! TO.P,JP2,1,A*
G04 #@! TO.N,+5VA*
X21530100Y43771500D03*
D14*
G04 #@! TO.P,JP2,2,B*
G04 #@! TO.N,Net-(JP2-B)*
X21530100Y41231500D03*
G04 #@! TD*
D15*
G04 #@! TO.P,M7,E1,LSU_Un*
G04 #@! TO.N,/WBO2_Un*
X2969000Y11120000D03*
G04 #@! TO.P,M7,E2,LSU_Vm*
G04 #@! TO.N,/WBO2_Vm*
X5969000Y11120000D03*
G04 #@! TO.P,M7,E3,LSU_Ip*
G04 #@! TO.N,/WBO2_Ip*
X4969000Y11120000D03*
G04 #@! TO.P,M7,E4,LSU_Rtrim*
G04 #@! TO.N,/WBO2_Rtrim*
X3969000Y11120000D03*
D16*
G04 #@! TO.P,M7,G,GND*
G04 #@! TO.N,GND*
X14819000Y38095000D03*
D17*
X10479000Y38095000D03*
D18*
X4519000Y38095000D03*
D19*
X15244000Y24420000D03*
X1494000Y24420000D03*
D20*
X10994000Y10745000D03*
D21*
X1844000Y10745000D03*
D15*
G04 #@! TO.P,M7,W1,V5_IN*
G04 #@! TO.N,Net-(JP2-B)*
X12619000Y37711200D03*
G04 #@! TO.P,M7,W2,CAN_VIO*
G04 #@! TO.N,unconnected-(M7-CAN_VIO-PadW2)*
X11619000Y37711200D03*
G04 #@! TO.P,M7,W3,CANL*
G04 #@! TO.N,/CAN-*
X8323000Y37711200D03*
G04 #@! TO.P,M7,W4,CANH*
G04 #@! TO.N,/CAN+*
X9339000Y37711200D03*
G04 #@! TO.P,M7,W9,VDDA*
G04 #@! TO.N,unconnected-(M7-VDDA-PadW9)*
X13619000Y37711200D03*
G04 #@! TD*
D22*
G04 #@! TO.P,M1,E1,VBAT*
G04 #@! TO.N,/VBAT*
X22089005Y10557001D03*
G04 #@! TO.P,M1,E2,V12*
G04 #@! TO.N,unconnected-(M1-V12-PadE2)*
X22089005Y16956998D03*
G04 #@! TO.P,M1,E3,VIGN*
G04 #@! TO.N,/VIGN*
X22089005Y18857001D03*
G04 #@! TO.P,M1,E4,V5*
G04 #@! TO.N,+5V*
X22089005Y23157001D03*
D23*
G04 #@! TO.P,M1,E5,EN_5VP*
G04 #@! TO.N,/PWR_EN*
X21639006Y25556998D03*
G04 #@! TO.P,M1,E6,PG_5VP*
G04 #@! TO.N,Net-(M1-PG_5VP)*
X21639006Y26556999D03*
D24*
G04 #@! TO.P,M1,S1,GND*
G04 #@! TO.N,GND*
X38239001Y14407001D03*
D25*
X38239001Y22906999D03*
D26*
X38239001Y30007001D03*
D27*
X29839003Y30057001D03*
D28*
X29039002Y9457001D03*
D22*
X22089005Y29407001D03*
D26*
X21439004Y9507001D03*
D29*
X21439004Y13706999D03*
D30*
X21439004Y21057001D03*
D31*
X21439004Y24556998D03*
D32*
X21439004Y27856999D03*
D22*
G04 #@! TO.P,M1,V1,V12_PERM*
G04 #@! TO.N,+12V_RAW*
X37589002Y10106999D03*
G04 #@! TO.P,M1,V2,IN_VIGN*
G04 #@! TO.N,/IN_VIGN*
X37589002Y11956998D03*
G04 #@! TO.P,M1,V3,V12_RAW*
G04 #@! TO.N,+12V_RAW*
X37589002Y16907001D03*
G04 #@! TO.P,M1,V4,5VP*
G04 #@! TO.N,+5VP*
X37589002Y28956999D03*
G04 #@! TD*
D33*
G04 #@! TO.P,J4,1,1*
G04 #@! TO.N,/WBO2_Heater*
X66007000Y13720000D03*
D34*
G04 #@! TO.P,J4,2,2*
G04 #@! TO.N,+12V_RAW*
X70007000Y13720000D03*
G04 #@! TO.P,J4,3,3*
X74007000Y13720000D03*
G04 #@! TO.P,J4,4,4*
G04 #@! TO.N,/INTAKEFLAP*
X78007000Y13720000D03*
G04 #@! TO.P,J4,5,5*
G04 #@! TO.N,/OUT_LS2*
X82007000Y13720000D03*
G04 #@! TO.P,J4,6,6*
G04 #@! TO.N,/OUT_LS3*
X86007000Y13720000D03*
G04 #@! TO.P,J4,7,7*
G04 #@! TO.N,+12V_RAW*
X90007000Y13720000D03*
G04 #@! TO.P,J4,8,8*
G04 #@! TO.N,/CAN+*
X94007000Y13720000D03*
G04 #@! TO.P,J4,9,9*
G04 #@! TO.N,GND*
X68007000Y9720000D03*
G04 #@! TO.P,J4,10,10*
G04 #@! TO.N,/IN_BUTTON3*
X72007000Y9720000D03*
G04 #@! TO.P,J4,11,11*
G04 #@! TO.N,/IN_FLEX*
X76007000Y9720000D03*
G04 #@! TO.P,J4,12,12*
G04 #@! TO.N,/IN_AUX1*
X80007000Y9720000D03*
G04 #@! TO.P,J4,13,13*
G04 #@! TO.N,/IN_AUX2*
X84007000Y9720000D03*
G04 #@! TO.P,J4,14,14*
G04 #@! TO.N,/CAN-*
X88007000Y9720000D03*
G04 #@! TO.P,J4,15,15*
G04 #@! TO.N,/WBO_Heater*
X92007000Y9720000D03*
G04 #@! TO.P,J4,16,16*
G04 #@! TO.N,/WBO2_Vm*
X66007000Y5720000D03*
G04 #@! TO.P,J4,17,17*
G04 #@! TO.N,/WBO2_Ip*
X70007000Y5720000D03*
G04 #@! TO.P,J4,18,18*
G04 #@! TO.N,/WBO2_Un*
X74007000Y5720000D03*
G04 #@! TO.P,J4,19,19*
G04 #@! TO.N,/WBO2_Rtrim*
X78007000Y5720000D03*
G04 #@! TO.P,J4,20,20*
G04 #@! TO.N,/WBO_Un*
X82007000Y5720000D03*
G04 #@! TO.P,J4,21,21*
G04 #@! TO.N,/WBO_Rtrim*
X86007000Y5720000D03*
G04 #@! TO.P,J4,22,22*
G04 #@! TO.N,/WBO_Ip*
X90007000Y5720000D03*
G04 #@! TO.P,J4,23,23*
G04 #@! TO.N,/WBO_Vm*
X94007000Y5720000D03*
G04 #@! TD*
D12*
G04 #@! TO.P,H2,1,1*
G04 #@! TO.N,GND*
X4425000Y52681000D03*
G04 #@! TD*
G04 #@! TO.P,U1,A1,A1*
G04 #@! TO.N,unconnected-(U1-PadA1)*
G04 #@! TA.AperFunction,ComponentPad*
G36*
G01*
X150375000Y59331001D02*
X150375000Y60930999D01*
G75*
G02*
X150625001Y61181000I250001J0D01*
G01*
X152224999Y61181000D01*
G75*
G02*
X152475000Y60930999I0J-250001D01*
G01*
X152475000Y59331001D01*
G75*
G02*
X152224999Y59081000I-250001J0D01*
G01*
X150625001Y59081000D01*
G75*
G02*
X150375000Y59331001I0J250001D01*
G01*
G37*
G04 #@! TD.AperFunction*
G04 #@! TO.P,U1,A2,A2*
G04 #@! TO.N,unconnected-(U1-PadA2)*
G04 #@! TA.AperFunction,ComponentPad*
G36*
G01*
X144675000Y59331001D02*
X144675000Y60930999D01*
G75*
G02*
X144925001Y61181000I250001J0D01*
G01*
X146524999Y61181000D01*
G75*
G02*
X146775000Y60930999I0J-250001D01*
G01*
X146775000Y59331001D01*
G75*
G02*
X146524999Y59081000I-250001J0D01*
G01*
X144925001Y59081000D01*
G75*
G02*
X144675000Y59331001I0J250001D01*
G01*
G37*
G04 #@! TD.AperFunction*
G04 #@! TO.P,U1,A3,A3*
G04 #@! TO.N,/INJOUT3*
G04 #@! TA.AperFunction,ComponentPad*
G36*
G01*
X138975000Y59331001D02*
X138975000Y60930999D01*
G75*
G02*
X139225001Y61181000I250001J0D01*
G01*
X140824999Y61181000D01*
G75*
G02*
X141075000Y60930999I0J-250001D01*
G01*
X141075000Y59331001D01*
G75*
G02*
X140824999Y59081000I-250001J0D01*
G01*
X139225001Y59081000D01*
G75*
G02*
X138975000Y59331001I0J250001D01*
G01*
G37*
G04 #@! TD.AperFunction*
G04 #@! TO.P,U1,A4,A4*
G04 #@! TO.N,/INJOUT1*
G04 #@! TA.AperFunction,ComponentPad*
G36*
G01*
X133275000Y59331001D02*
X133275000Y60930999D01*
G75*
G02*
X133525001Y61181000I250001J0D01*
G01*
X135124999Y61181000D01*
G75*
G02*
X135375000Y60930999I0J-250001D01*
G01*
X135375000Y59331001D01*
G75*
G02*
X135124999Y59081000I-250001J0D01*
G01*
X133525001Y59081000D01*
G75*
G02*
X133275000Y59331001I0J250001D01*
G01*
G37*
G04 #@! TD.AperFunction*
G04 #@! TO.P,U1,A5,A5*
G04 #@! TO.N,/FUELPUMP_LS*
G04 #@! TA.AperFunction,ComponentPad*
G36*
G01*
X127575000Y59331001D02*
X127575000Y60930999D01*
G75*
G02*
X127825001Y61181000I250001J0D01*
G01*
X129424999Y61181000D01*
G75*
G02*
X129675000Y60930999I0J-250001D01*
G01*
X129675000Y59331001D01*
G75*
G02*
X129424999Y59081000I-250001J0D01*
G01*
X127825001Y59081000D01*
G75*
G02*
X127575000Y59331001I0J250001D01*
G01*
G37*
G04 #@! TD.AperFunction*
G04 #@! TO.P,U1,A6,A6*
G04 #@! TO.N,unconnected-(U1-PadA6)*
G04 #@! TA.AperFunction,ComponentPad*
G36*
G01*
X121875000Y59331001D02*
X121875000Y60930999D01*
G75*
G02*
X122125001Y61181000I250001J0D01*
G01*
X123724999Y61181000D01*
G75*
G02*
X123975000Y60930999I0J-250001D01*
G01*
X123975000Y59331001D01*
G75*
G02*
X123724999Y59081000I-250001J0D01*
G01*
X122125001Y59081000D01*
G75*
G02*
X121875000Y59331001I0J250001D01*
G01*
G37*
G04 #@! TD.AperFunction*
G04 #@! TO.P,U1,A7,A7*
G04 #@! TO.N,/FILIGHT*
G04 #@! TA.AperFunction,ComponentPad*
G36*
G01*
X116175000Y59331001D02*
X116175000Y60930999D01*
G75*
G02*
X116425001Y61181000I250001J0D01*
G01*
X118024999Y61181000D01*
G75*
G02*
X118275000Y60930999I0J-250001D01*
G01*
X118275000Y59331001D01*
G75*
G02*
X118024999Y59081000I-250001J0D01*
G01*
X116425001Y59081000D01*
G75*
G02*
X116175000Y59331001I0J250001D01*
G01*
G37*
G04 #@! TD.AperFunction*
G04 #@! TO.P,U1,A8,A8*
G04 #@! TO.N,/OUT_LS2*
G04 #@! TA.AperFunction,ComponentPad*
G36*
G01*
X110475000Y59331001D02*
X110475000Y60930999D01*
G75*
G02*
X110725001Y61181000I250001J0D01*
G01*
X112324999Y61181000D01*
G75*
G02*
X112575000Y60930999I0J-250001D01*
G01*
X112575000Y59331001D01*
G75*
G02*
X112324999Y59081000I-250001J0D01*
G01*
X110725001Y59081000D01*
G75*
G02*
X110475000Y59331001I0J250001D01*
G01*
G37*
G04 #@! TD.AperFunction*
G04 #@! TO.P,U1,A9,A9*
G04 #@! TO.N,GND*
G04 #@! TA.AperFunction,ComponentPad*
G36*
G01*
X104775000Y59331001D02*
X104775000Y60930999D01*
G75*
G02*
X105025001Y61181000I250001J0D01*
G01*
X106624999Y61181000D01*
G75*
G02*
X106875000Y60930999I0J-250001D01*
G01*
X106875000Y59331001D01*
G75*
G02*
X106624999Y59081000I-250001J0D01*
G01*
X105025001Y59081000D01*
G75*
G02*
X104775000Y59331001I0J250001D01*
G01*
G37*
G04 #@! TD.AperFunction*
G04 #@! TO.P,U1,A10,A10*
G04 #@! TO.N,/IGNOUT1*
G04 #@! TA.AperFunction,ComponentPad*
G36*
G01*
X99075000Y59331001D02*
X99075000Y60930999D01*
G75*
G02*
X99325001Y61181000I250001J0D01*
G01*
X100924999Y61181000D01*
G75*
G02*
X101175000Y60930999I0J-250001D01*
G01*
X101175000Y59331001D01*
G75*
G02*
X100924999Y59081000I-250001J0D01*
G01*
X99325001Y59081000D01*
G75*
G02*
X99075000Y59331001I0J250001D01*
G01*
G37*
G04 #@! TD.AperFunction*
G04 #@! TO.P,U1,A11,A11*
G04 #@! TO.N,/IGNOUT3*
G04 #@! TA.AperFunction,ComponentPad*
G36*
G01*
X93375000Y59331001D02*
X93375000Y60930999D01*
G75*
G02*
X93625001Y61181000I250001J0D01*
G01*
X95224999Y61181000D01*
G75*
G02*
X95475000Y60930999I0J-250001D01*
G01*
X95475000Y59331001D01*
G75*
G02*
X95224999Y59081000I-250001J0D01*
G01*
X93625001Y59081000D01*
G75*
G02*
X93375000Y59331001I0J250001D01*
G01*
G37*
G04 #@! TD.AperFunction*
G04 #@! TO.P,U1,A12,A12*
G04 #@! TO.N,unconnected-(U1-PadA12)*
G04 #@! TA.AperFunction,ComponentPad*
G36*
G01*
X150375000Y63431001D02*
X150375000Y65030999D01*
G75*
G02*
X150625001Y65281000I250001J0D01*
G01*
X152224999Y65281000D01*
G75*
G02*
X152475000Y65030999I0J-250001D01*
G01*
X152475000Y63431001D01*
G75*
G02*
X152224999Y63181000I-250001J0D01*
G01*
X150625001Y63181000D01*
G75*
G02*
X150375000Y63431001I0J250001D01*
G01*
G37*
G04 #@! TD.AperFunction*
G04 #@! TO.P,U1,A13,A13*
G04 #@! TO.N,unconnected-(U1-PadA13)*
G04 #@! TA.AperFunction,ComponentPad*
G36*
G01*
X144675000Y63431001D02*
X144675000Y65030999D01*
G75*
G02*
X144925001Y65281000I250001J0D01*
G01*
X146524999Y65281000D01*
G75*
G02*
X146775000Y65030999I0J-250001D01*
G01*
X146775000Y63431001D01*
G75*
G02*
X146524999Y63181000I-250001J0D01*
G01*
X144925001Y63181000D01*
G75*
G02*
X144675000Y63431001I0J250001D01*
G01*
G37*
G04 #@! TD.AperFunction*
G04 #@! TO.P,U1,A14,A14*
G04 #@! TO.N,/INJOUT4*
G04 #@! TA.AperFunction,ComponentPad*
G36*
G01*
X138975000Y63431001D02*
X138975000Y65030999D01*
G75*
G02*
X139225001Y65281000I250001J0D01*
G01*
X140824999Y65281000D01*
G75*
G02*
X141075000Y65030999I0J-250001D01*
G01*
X141075000Y63431001D01*
G75*
G02*
X140824999Y63181000I-250001J0D01*
G01*
X139225001Y63181000D01*
G75*
G02*
X138975000Y63431001I0J250001D01*
G01*
G37*
G04 #@! TD.AperFunction*
G04 #@! TO.P,U1,A15,A15*
G04 #@! TO.N,/INJOUT2*
G04 #@! TA.AperFunction,ComponentPad*
G36*
G01*
X133275000Y63431001D02*
X133275000Y65030999D01*
G75*
G02*
X133525001Y65281000I250001J0D01*
G01*
X135124999Y65281000D01*
G75*
G02*
X135375000Y65030999I0J-250001D01*
G01*
X135375000Y63431001D01*
G75*
G02*
X135124999Y63181000I-250001J0D01*
G01*
X133525001Y63181000D01*
G75*
G02*
X133275000Y63431001I0J250001D01*
G01*
G37*
G04 #@! TD.AperFunction*
G04 #@! TO.P,U1,A16,A16*
G04 #@! TO.N,/INTAKEFLAP*
G04 #@! TA.AperFunction,ComponentPad*
G36*
G01*
X127575000Y63431001D02*
X127575000Y65030999D01*
G75*
G02*
X127825001Y65281000I250001J0D01*
G01*
X129424999Y65281000D01*
G75*
G02*
X129675000Y65030999I0J-250001D01*
G01*
X129675000Y63431001D01*
G75*
G02*
X129424999Y63181000I-250001J0D01*
G01*
X127825001Y63181000D01*
G75*
G02*
X127575000Y63431001I0J250001D01*
G01*
G37*
G04 #@! TD.AperFunction*
G04 #@! TO.P,U1,A17,A17*
G04 #@! TO.N,unconnected-(U1-PadA17)*
G04 #@! TA.AperFunction,ComponentPad*
G36*
G01*
X121875000Y63431001D02*
X121875000Y65030999D01*
G75*
G02*
X122125001Y65281000I250001J0D01*
G01*
X123724999Y65281000D01*
G75*
G02*
X123975000Y65030999I0J-250001D01*
G01*
X123975000Y63431001D01*
G75*
G02*
X123724999Y63181000I-250001J0D01*
G01*
X122125001Y63181000D01*
G75*
G02*
X121875000Y63431001I0J250001D01*
G01*
G37*
G04 #@! TD.AperFunction*
G04 #@! TO.P,U1,A18,A18*
G04 #@! TO.N,/OUT_LS_WEAK2*
G04 #@! TA.AperFunction,ComponentPad*
G36*
G01*
X116175000Y63431001D02*
X116175000Y65030999D01*
G75*
G02*
X116425001Y65281000I250001J0D01*
G01*
X118024999Y65281000D01*
G75*
G02*
X118275000Y65030999I0J-250001D01*
G01*
X118275000Y63431001D01*
G75*
G02*
X118024999Y63181000I-250001J0D01*
G01*
X116425001Y63181000D01*
G75*
G02*
X116175000Y63431001I0J250001D01*
G01*
G37*
G04 #@! TD.AperFunction*
G04 #@! TO.P,U1,A19,A19*
G04 #@! TO.N,/OUT_LS3*
G04 #@! TA.AperFunction,ComponentPad*
G36*
G01*
X110475000Y63431001D02*
X110475000Y65030999D01*
G75*
G02*
X110725001Y65281000I250001J0D01*
G01*
X112324999Y65281000D01*
G75*
G02*
X112575000Y65030999I0J-250001D01*
G01*
X112575000Y63431001D01*
G75*
G02*
X112324999Y63181000I-250001J0D01*
G01*
X110725001Y63181000D01*
G75*
G02*
X110475000Y63431001I0J250001D01*
G01*
G37*
G04 #@! TD.AperFunction*
G04 #@! TO.P,U1,A20,A20*
G04 #@! TO.N,GND*
G04 #@! TA.AperFunction,ComponentPad*
G36*
G01*
X104775000Y63431001D02*
X104775000Y65030999D01*
G75*
G02*
X105025001Y65281000I250001J0D01*
G01*
X106624999Y65281000D01*
G75*
G02*
X106875000Y65030999I0J-250001D01*
G01*
X106875000Y63431001D01*
G75*
G02*
X106624999Y63181000I-250001J0D01*
G01*
X105025001Y63181000D01*
G75*
G02*
X104775000Y63431001I0J250001D01*
G01*
G37*
G04 #@! TD.AperFunction*
G04 #@! TO.P,U1,A21,A21*
G04 #@! TO.N,/IGNOUT2*
G04 #@! TA.AperFunction,ComponentPad*
G36*
G01*
X99075000Y63431001D02*
X99075000Y65030999D01*
G75*
G02*
X99325001Y65281000I250001J0D01*
G01*
X100924999Y65281000D01*
G75*
G02*
X101175000Y65030999I0J-250001D01*
G01*
X101175000Y63431001D01*
G75*
G02*
X100924999Y63181000I-250001J0D01*
G01*
X99325001Y63181000D01*
G75*
G02*
X99075000Y63431001I0J250001D01*
G01*
G37*
G04 #@! TD.AperFunction*
G04 #@! TO.P,U1,A22,A22*
G04 #@! TO.N,/IGNOUT4*
G04 #@! TA.AperFunction,ComponentPad*
G36*
G01*
X93375000Y63431001D02*
X93375000Y65030999D01*
G75*
G02*
X93625001Y65281000I250001J0D01*
G01*
X95224999Y65281000D01*
G75*
G02*
X95475000Y65030999I0J-250001D01*
G01*
X95475000Y63431001D01*
G75*
G02*
X95224999Y63181000I-250001J0D01*
G01*
X93625001Y63181000D01*
G75*
G02*
X93375000Y63431001I0J250001D01*
G01*
G37*
G04 #@! TD.AperFunction*
G04 #@! TO.P,U1,B1,B1*
G04 #@! TO.N,GND*
G04 #@! TA.AperFunction,ComponentPad*
G36*
G01*
X64375000Y59381001D02*
X64375000Y60980999D01*
G75*
G02*
X64625001Y61231000I250001J0D01*
G01*
X66224999Y61231000D01*
G75*
G02*
X66475000Y60980999I0J-250001D01*
G01*
X66475000Y59381001D01*
G75*
G02*
X66224999Y59131000I-250001J0D01*
G01*
X64625001Y59131000D01*
G75*
G02*
X64375000Y59381001I0J250001D01*
G01*
G37*
G04 #@! TD.AperFunction*
G04 #@! TO.P,U1,B2,B2*
G04 #@! TO.N,GNDA*
G04 #@! TA.AperFunction,ComponentPad*
G36*
G01*
X58675000Y59381001D02*
X58675000Y60980999D01*
G75*
G02*
X58925001Y61231000I250001J0D01*
G01*
X60524999Y61231000D01*
G75*
G02*
X60775000Y60980999I0J-250001D01*
G01*
X60775000Y59381001D01*
G75*
G02*
X60524999Y59131000I-250001J0D01*
G01*
X58925001Y59131000D01*
G75*
G02*
X58675000Y59381001I0J250001D01*
G01*
G37*
G04 #@! TD.AperFunction*
G04 #@! TO.P,U1,B3,B3*
G04 #@! TO.N,/IN_MAP*
G04 #@! TA.AperFunction,ComponentPad*
G36*
G01*
X52975000Y59381001D02*
X52975000Y60980999D01*
G75*
G02*
X53225001Y61231000I250001J0D01*
G01*
X54824999Y61231000D01*
G75*
G02*
X55075000Y60980999I0J-250001D01*
G01*
X55075000Y59381001D01*
G75*
G02*
X54824999Y59131000I-250001J0D01*
G01*
X53225001Y59131000D01*
G75*
G02*
X52975000Y59381001I0J250001D01*
G01*
G37*
G04 #@! TD.AperFunction*
G04 #@! TO.P,U1,B4,B4*
G04 #@! TO.N,/BARO*
G04 #@! TA.AperFunction,ComponentPad*
G36*
G01*
X47275000Y59381001D02*
X47275000Y60980999D01*
G75*
G02*
X47525001Y61231000I250001J0D01*
G01*
X49124999Y61231000D01*
G75*
G02*
X49375000Y60980999I0J-250001D01*
G01*
X49375000Y59381001D01*
G75*
G02*
X49124999Y59131000I-250001J0D01*
G01*
X47525001Y59131000D01*
G75*
G02*
X47275000Y59381001I0J250001D01*
G01*
G37*
G04 #@! TD.AperFunction*
G04 #@! TO.P,U1,B5,B5*
G04 #@! TO.N,/IAT_SENSOR*
G04 #@! TA.AperFunction,ComponentPad*
G36*
G01*
X41575000Y59381001D02*
X41575000Y60980999D01*
G75*
G02*
X41825001Y61231000I250001J0D01*
G01*
X43424999Y61231000D01*
G75*
G02*
X43675000Y60980999I0J-250001D01*
G01*
X43675000Y59381001D01*
G75*
G02*
X43424999Y59131000I-250001J0D01*
G01*
X41825001Y59131000D01*
G75*
G02*
X41575000Y59381001I0J250001D01*
G01*
G37*
G04 #@! TD.AperFunction*
G04 #@! TO.P,U1,B6,B6*
G04 #@! TO.N,unconnected-(U1-PadB6)*
G04 #@! TA.AperFunction,ComponentPad*
G36*
G01*
X35875000Y59381001D02*
X35875000Y60980999D01*
G75*
G02*
X36125001Y61231000I250001J0D01*
G01*
X37724999Y61231000D01*
G75*
G02*
X37975000Y60980999I0J-250001D01*
G01*
X37975000Y59381001D01*
G75*
G02*
X37724999Y59131000I-250001J0D01*
G01*
X36125001Y59131000D01*
G75*
G02*
X35875000Y59381001I0J250001D01*
G01*
G37*
G04 #@! TD.AperFunction*
G04 #@! TO.P,U1,B7,B7*
G04 #@! TO.N,+5VP*
G04 #@! TA.AperFunction,ComponentPad*
G36*
G01*
X30175000Y59381001D02*
X30175000Y60980999D01*
G75*
G02*
X30425001Y61231000I250001J0D01*
G01*
X32024999Y61231000D01*
G75*
G02*
X32275000Y60980999I0J-250001D01*
G01*
X32275000Y59381001D01*
G75*
G02*
X32024999Y59131000I-250001J0D01*
G01*
X30425001Y59131000D01*
G75*
G02*
X30175000Y59381001I0J250001D01*
G01*
G37*
G04 #@! TD.AperFunction*
G04 #@! TO.P,U1,B8,B8*
G04 #@! TO.N,+12V*
G04 #@! TA.AperFunction,ComponentPad*
G36*
G01*
X24475000Y59381001D02*
X24475000Y60980999D01*
G75*
G02*
X24725001Y61231000I250001J0D01*
G01*
X26324999Y61231000D01*
G75*
G02*
X26575000Y60980999I0J-250001D01*
G01*
X26575000Y59381001D01*
G75*
G02*
X26324999Y59131000I-250001J0D01*
G01*
X24725001Y59131000D01*
G75*
G02*
X24475000Y59381001I0J250001D01*
G01*
G37*
G04 #@! TD.AperFunction*
G04 #@! TO.P,U1,B9,B9*
G04 #@! TO.N,unconnected-(U1-PadB9)*
G04 #@! TA.AperFunction,ComponentPad*
G36*
G01*
X18775000Y59381001D02*
X18775000Y60980999D01*
G75*
G02*
X19025001Y61231000I250001J0D01*
G01*
X20624999Y61231000D01*
G75*
G02*
X20875000Y60980999I0J-250001D01*
G01*
X20875000Y59381001D01*
G75*
G02*
X20624999Y59131000I-250001J0D01*
G01*
X19025001Y59131000D01*
G75*
G02*
X18775000Y59381001I0J250001D01*
G01*
G37*
G04 #@! TD.AperFunction*
G04 #@! TO.P,U1,B10,B10*
G04 #@! TO.N,/IN_BUTTON1*
G04 #@! TA.AperFunction,ComponentPad*
G36*
G01*
X13075000Y59381001D02*
X13075000Y60980999D01*
G75*
G02*
X13325001Y61231000I250001J0D01*
G01*
X14924999Y61231000D01*
G75*
G02*
X15175000Y60980999I0J-250001D01*
G01*
X15175000Y59381001D01*
G75*
G02*
X14924999Y59131000I-250001J0D01*
G01*
X13325001Y59131000D01*
G75*
G02*
X13075000Y59381001I0J250001D01*
G01*
G37*
G04 #@! TD.AperFunction*
G04 #@! TO.P,U1,B11,B11*
G04 #@! TO.N,/CAM+*
G04 #@! TA.AperFunction,ComponentPad*
G36*
G01*
X7375000Y59381001D02*
X7375000Y60980999D01*
G75*
G02*
X7625001Y61231000I250001J0D01*
G01*
X9224999Y61231000D01*
G75*
G02*
X9475000Y60980999I0J-250001D01*
G01*
X9475000Y59381001D01*
G75*
G02*
X9224999Y59131000I-250001J0D01*
G01*
X7625001Y59131000D01*
G75*
G02*
X7375000Y59381001I0J250001D01*
G01*
G37*
G04 #@! TD.AperFunction*
G04 #@! TO.P,U1,B12,B12*
G04 #@! TO.N,GND*
G04 #@! TA.AperFunction,ComponentPad*
G36*
G01*
X64375000Y63481001D02*
X64375000Y65080999D01*
G75*
G02*
X64625001Y65331000I250001J0D01*
G01*
X66224999Y65331000D01*
G75*
G02*
X66475000Y65080999I0J-250001D01*
G01*
X66475000Y63481001D01*
G75*
G02*
X66224999Y63231000I-250001J0D01*
G01*
X64625001Y63231000D01*
G75*
G02*
X64375000Y63481001I0J250001D01*
G01*
G37*
G04 #@! TD.AperFunction*
G04 #@! TO.P,U1,B13,B13*
G04 #@! TO.N,unconnected-(U1-PadB13)*
G04 #@! TA.AperFunction,ComponentPad*
G36*
G01*
X58675000Y63481001D02*
X58675000Y65080999D01*
G75*
G02*
X58925001Y65331000I250001J0D01*
G01*
X60524999Y65331000D01*
G75*
G02*
X60775000Y65080999I0J-250001D01*
G01*
X60775000Y63481001D01*
G75*
G02*
X60524999Y63231000I-250001J0D01*
G01*
X58925001Y63231000D01*
G75*
G02*
X58675000Y63481001I0J250001D01*
G01*
G37*
G04 #@! TD.AperFunction*
G04 #@! TO.P,U1,B14,B14*
G04 #@! TO.N,/IN_TPS1*
G04 #@! TA.AperFunction,ComponentPad*
G36*
G01*
X52975000Y63481001D02*
X52975000Y65080999D01*
G75*
G02*
X53225001Y65331000I250001J0D01*
G01*
X54824999Y65331000D01*
G75*
G02*
X55075000Y65080999I0J-250001D01*
G01*
X55075000Y63481001D01*
G75*
G02*
X54824999Y63231000I-250001J0D01*
G01*
X53225001Y63231000D01*
G75*
G02*
X52975000Y63481001I0J250001D01*
G01*
G37*
G04 #@! TD.AperFunction*
G04 #@! TO.P,U1,B15,B15*
G04 #@! TO.N,/CLT*
G04 #@! TA.AperFunction,ComponentPad*
G36*
G01*
X47275000Y63481001D02*
X47275000Y65080999D01*
G75*
G02*
X47525001Y65331000I250001J0D01*
G01*
X49124999Y65331000D01*
G75*
G02*
X49375000Y65080999I0J-250001D01*
G01*
X49375000Y63481001D01*
G75*
G02*
X49124999Y63231000I-250001J0D01*
G01*
X47525001Y63231000D01*
G75*
G02*
X47275000Y63481001I0J250001D01*
G01*
G37*
G04 #@! TD.AperFunction*
G04 #@! TO.P,U1,B16,B16*
G04 #@! TO.N,unconnected-(U1-PadB16)*
G04 #@! TA.AperFunction,ComponentPad*
G36*
G01*
X41575000Y63481001D02*
X41575000Y65080999D01*
G75*
G02*
X41825001Y65331000I250001J0D01*
G01*
X43424999Y65331000D01*
G75*
G02*
X43675000Y65080999I0J-250001D01*
G01*
X43675000Y63481001D01*
G75*
G02*
X43424999Y63231000I-250001J0D01*
G01*
X41825001Y63231000D01*
G75*
G02*
X41575000Y63481001I0J250001D01*
G01*
G37*
G04 #@! TD.AperFunction*
G04 #@! TO.P,U1,B17,B17*
G04 #@! TO.N,/IN_HALL1*
G04 #@! TA.AperFunction,ComponentPad*
G36*
G01*
X35875000Y63481001D02*
X35875000Y65080999D01*
G75*
G02*
X36125001Y65331000I250001J0D01*
G01*
X37724999Y65331000D01*
G75*
G02*
X37975000Y65080999I0J-250001D01*
G01*
X37975000Y63481001D01*
G75*
G02*
X37724999Y63231000I-250001J0D01*
G01*
X36125001Y63231000D01*
G75*
G02*
X35875000Y63481001I0J250001D01*
G01*
G37*
G04 #@! TD.AperFunction*
G04 #@! TO.P,U1,B18,B18*
G04 #@! TO.N,unconnected-(U1-PadB18)*
G04 #@! TA.AperFunction,ComponentPad*
G36*
G01*
X30175000Y63481001D02*
X30175000Y65080999D01*
G75*
G02*
X30425001Y65331000I250001J0D01*
G01*
X32024999Y65331000D01*
G75*
G02*
X32275000Y65080999I0J-250001D01*
G01*
X32275000Y63481001D01*
G75*
G02*
X32024999Y63231000I-250001J0D01*
G01*
X30425001Y63231000D01*
G75*
G02*
X30175000Y63481001I0J250001D01*
G01*
G37*
G04 #@! TD.AperFunction*
G04 #@! TO.P,U1,B19,B19*
G04 #@! TO.N,unconnected-(U1-PadB19)*
G04 #@! TA.AperFunction,ComponentPad*
G36*
G01*
X24475000Y63481001D02*
X24475000Y65080999D01*
G75*
G02*
X24725001Y65331000I250001J0D01*
G01*
X26324999Y65331000D01*
G75*
G02*
X26575000Y65080999I0J-250001D01*
G01*
X26575000Y63481001D01*
G75*
G02*
X26324999Y63231000I-250001J0D01*
G01*
X24725001Y63231000D01*
G75*
G02*
X24475000Y63481001I0J250001D01*
G01*
G37*
G04 #@! TD.AperFunction*
G04 #@! TO.P,U1,B20,B20*
G04 #@! TO.N,unconnected-(U1-PadB20)*
G04 #@! TA.AperFunction,ComponentPad*
G36*
G01*
X18775000Y63481001D02*
X18775000Y65080999D01*
G75*
G02*
X19025001Y65331000I250001J0D01*
G01*
X20624999Y65331000D01*
G75*
G02*
X20875000Y65080999I0J-250001D01*
G01*
X20875000Y63481001D01*
G75*
G02*
X20624999Y63231000I-250001J0D01*
G01*
X19025001Y63231000D01*
G75*
G02*
X18775000Y63481001I0J250001D01*
G01*
G37*
G04 #@! TD.AperFunction*
G04 #@! TO.P,U1,B21,B21*
G04 #@! TO.N,/Clutch{slash}kickstandswitch*
G04 #@! TA.AperFunction,ComponentPad*
G36*
G01*
X13075000Y63481001D02*
X13075000Y65080999D01*
G75*
G02*
X13325001Y65331000I250001J0D01*
G01*
X14924999Y65331000D01*
G75*
G02*
X15175000Y65080999I0J-250001D01*
G01*
X15175000Y63481001D01*
G75*
G02*
X14924999Y63231000I-250001J0D01*
G01*
X13325001Y63231000D01*
G75*
G02*
X13075000Y63481001I0J250001D01*
G01*
G37*
G04 #@! TD.AperFunction*
G04 #@! TO.P,U1,B22,B22*
G04 #@! TO.N,/CRANK+*
G04 #@! TA.AperFunction,ComponentPad*
G36*
G01*
X7375000Y63481001D02*
X7375000Y65080999D01*
G75*
G02*
X7625001Y65331000I250001J0D01*
G01*
X9224999Y65331000D01*
G75*
G02*
X9475000Y65080999I0J-250001D01*
G01*
X9475000Y63481001D01*
G75*
G02*
X9224999Y63231000I-250001J0D01*
G01*
X7625001Y63231000D01*
G75*
G02*
X7375000Y63481001I0J250001D01*
G01*
G37*
G04 #@! TD.AperFunction*
G04 #@! TD*
D13*
G04 #@! TO.P,JP1,1,A*
G04 #@! TO.N,Net-(JP1-A)*
X140970000Y13451000D03*
D14*
G04 #@! TO.P,JP1,2,B*
G04 #@! TO.N,+5VA*
X140970000Y15991000D03*
G04 #@! TD*
D12*
G04 #@! TO.P,H4,1,1*
G04 #@! TO.N,GND*
X132960000Y4651000D03*
G04 #@! TD*
D35*
G04 #@! TO.P,J8,1,VBUS*
G04 #@! TO.N,/VBUS*
X118752000Y5627000D03*
D36*
G04 #@! TO.P,J8,2,D-*
G04 #@! TO.N,/USB-*
X119552000Y7377000D03*
G04 #@! TO.P,J8,3,D+*
G04 #@! TO.N,/USB+*
X120352000Y5627000D03*
G04 #@! TO.P,J8,4,ID*
G04 #@! TO.N,unconnected-(J8-ID-Pad4)*
X121152000Y7377000D03*
G04 #@! TO.P,J8,5,GND*
G04 #@! TO.N,GND*
X121952000Y5627000D03*
D37*
G04 #@! TO.P,J8,6,Shield*
X116702000Y6502000D03*
X124002000Y6502000D03*
G04 #@! TD*
D38*
G04 #@! TO.P,F2,1,1*
G04 #@! TO.N,+12V*
X25517588Y56584412D03*
G04 #@! TO.P,F2,2,2*
G04 #@! TO.N,+12V_RAW*
X28982412Y53119588D03*
G04 #@! TD*
D23*
G04 #@! TO.P,M6,E1,V5A_SWITCHABLE*
G04 #@! TO.N,+5VA*
X46667010Y48472990D03*
G04 #@! TO.P,M6,E2,GNDA*
G04 #@! TO.N,unconnected-(M6-GNDA-PadE2)*
X46667000Y44172990D03*
G04 #@! TO.P,M6,E3,I2C_SCL_(PB10)*
G04 #@! TO.N,unconnected-(M6-I2C_SCL_(PB10)-PadE3)*
X46667000Y43373000D03*
G04 #@! TO.P,M6,E4,I2C_SDA_(PB11)*
G04 #@! TO.N,unconnected-(M6-I2C_SDA_(PB11)-PadE4)*
X46667000Y42572990D03*
G04 #@! TO.P,M6,E5,IN_VIGN_(PA5)*
G04 #@! TO.N,/VIGN*
X46667000Y41772990D03*
G04 #@! TO.P,M6,E6,SPI2_CS_/_CAN2_RX_(PB12)*
G04 #@! TO.N,unconnected-(M6-SPI2_CS_{slash}_CAN2_RX_(PB12)-PadE6)*
X46667000Y40972990D03*
G04 #@! TO.P,M6,E7,SPI2_SCK_/_CAN2_TX_(PB13)*
G04 #@! TO.N,unconnected-(M6-SPI2_SCK_{slash}_CAN2_TX_(PB13)-PadE7)*
X46667000Y40172990D03*
G04 #@! TO.P,M6,E8,SPI2_MISO_(PB14)*
G04 #@! TO.N,/DC1_DIS*
X46667000Y39372990D03*
G04 #@! TO.P,M6,E9,SPI2_MOSI_(PB15)*
G04 #@! TO.N,/DC2_DIR*
X46667000Y38572990D03*
G04 #@! TO.P,M6,E10,OUT_INJ8_(PD12)*
G04 #@! TO.N,/LS2*
X46667000Y37772990D03*
G04 #@! TO.P,M6,E11,OUT_INJ7_(PD15)*
G04 #@! TO.N,/LS1*
X46667000Y36972990D03*
G04 #@! TO.P,M6,E12,OUT_INJ6_(PA8)*
G04 #@! TO.N,/INJ6*
X46667000Y36172990D03*
G04 #@! TO.P,M6,E13,OUT_INJ5_(PD2)*
G04 #@! TO.N,/INJ5*
X46667000Y35372990D03*
G04 #@! TO.P,M6,E14,OUT_INJ4_(PD10)*
G04 #@! TO.N,/INJ4*
X46667000Y34572990D03*
G04 #@! TO.P,M6,E15,OUT_INJ3_(PD11)*
G04 #@! TO.N,/INJ3*
X46667000Y33772990D03*
G04 #@! TO.P,M6,E16,OUT_INJ2_(PA9)*
G04 #@! TO.N,/INJ2*
X46667010Y32973000D03*
G04 #@! TO.P,M6,E17,OUT_INJ1_(PD3)*
G04 #@! TO.N,/INJ1*
X46667000Y32172990D03*
G04 #@! TO.P,M6,E18,OUT_PWM1_(PD13)*
G04 #@! TO.N,/LS3*
X46667000Y30772990D03*
G04 #@! TO.P,M6,E19,OUT_PWM2_(PC6)*
G04 #@! TO.N,/LS4*
X46667000Y29973000D03*
G04 #@! TO.P,M6,E20,OUT_PWM3_(PC7)*
G04 #@! TO.N,unconnected-(M6-OUT_PWM3_(PC7)-PadE20)*
X46667000Y29173000D03*
G04 #@! TO.P,M6,E21,OUT_PWM4_(PC8)*
G04 #@! TO.N,unconnected-(M6-OUT_PWM4_(PC8)-PadE21)*
X46667000Y28373000D03*
G04 #@! TO.P,M6,E22,OUT_PWM5_(PC9)*
G04 #@! TO.N,unconnected-(M6-OUT_PWM5_(PC9)-PadE22)*
X46667000Y27573000D03*
G04 #@! TO.P,M6,E23,OUT_PWM6_(PD14)*
G04 #@! TO.N,unconnected-(M6-OUT_PWM6_(PD14)-PadE23)*
X46667000Y26772990D03*
D39*
G04 #@! TO.P,M6,G,GND*
G04 #@! TO.N,GND*
X80267010Y21923000D03*
D40*
X80267010Y24972990D03*
D39*
X80267010Y28023000D03*
D41*
X80267010Y32472990D03*
D42*
X80267010Y46122990D03*
D43*
X80267010Y54122990D03*
D44*
X78467000Y55173000D03*
D45*
X76367010Y19373000D03*
D46*
X70317010Y19373000D03*
D47*
X66817010Y19373000D03*
D44*
X57067010Y19373000D03*
D45*
X49567010Y55173000D03*
D48*
X46467000Y22772980D03*
D40*
X46467000Y31473000D03*
D49*
X46467000Y46323000D03*
D50*
X46467000Y52123000D03*
D23*
G04 #@! TO.P,M6,N1,VBUS*
G04 #@! TO.N,/VBUS*
X47067000Y19572990D03*
G04 #@! TO.P,M6,N2,USBM_(PA11)*
G04 #@! TO.N,/USB-*
X47867000Y19572990D03*
G04 #@! TO.P,M6,N3,USBP_(PA12)*
G04 #@! TO.N,/USB+*
X48667000Y19572990D03*
G04 #@! TO.P,M6,N4,USBID_(PA10)*
G04 #@! TO.N,/DC2_DIS*
X49467010Y19572990D03*
G04 #@! TO.P,M6,N5,SWDIO_(PA13)*
G04 #@! TO.N,unconnected-(M6-SWDIO_(PA13)-PadN5)*
X50267000Y19572990D03*
G04 #@! TO.P,M6,N6,SWCLK_(PA14)*
G04 #@! TO.N,unconnected-(M6-SWCLK_(PA14)-PadN6)*
X51067000Y19572990D03*
G04 #@! TO.P,M6,N7,nReset*
G04 #@! TO.N,unconnected-(M6-nReset-PadN7)*
X51867000Y19572990D03*
G04 #@! TO.P,M6,N8,SWO_(PB3)*
G04 #@! TO.N,unconnected-(M6-SWO_(PB3)-PadN8)*
X52667010Y19572990D03*
G04 #@! TO.P,M6,N9,SPI3_CS_(PA15)*
G04 #@! TO.N,unconnected-(M6-SPI3_CS_(PA15)-PadN9)*
X53467000Y19573000D03*
G04 #@! TO.P,M6,N10,SPI3_SCK_(PC10)*
G04 #@! TO.N,unconnected-(M6-SPI3_SCK_(PC10)-PadN10)*
X54267000Y19573000D03*
G04 #@! TO.P,M6,N11,SPI3_MISO_(PC11)*
G04 #@! TO.N,unconnected-(M6-SPI3_MISO_(PC11)-PadN11)*
X55067000Y19573000D03*
G04 #@! TO.P,M6,N12,SPI3_MOSI_(PC12)*
G04 #@! TO.N,/PG_5VP*
X55867000Y19573000D03*
G04 #@! TO.P,M6,N13,UART2_TX_(PD5)*
G04 #@! TO.N,Net-(M6-UART2_TX_(PD5))*
X58267010Y19573000D03*
G04 #@! TO.P,M6,N14,UART2_RX_(PD6)*
G04 #@! TO.N,Net-(M6-UART2_RX_(PD6))*
X59067010Y19573000D03*
G04 #@! TO.P,M6,N14a,LED_GREEN*
G04 #@! TO.N,unconnected-(M6-LED_GREEN-PadN14a)*
X59867000Y19572990D03*
G04 #@! TO.P,M6,N14b,LED_YELLOW*
G04 #@! TO.N,unconnected-(M6-LED_YELLOW-PadN14b)*
X60667010Y19572990D03*
G04 #@! TO.P,M6,N15,V33_SWITCHABLE*
G04 #@! TO.N,+3.3VA*
X61467010Y19572990D03*
G04 #@! TO.P,M6,N16,BOOT0*
G04 #@! TO.N,unconnected-(M6-BOOT0-PadN16)*
X62267010Y19572990D03*
G04 #@! TO.P,M6,N17,VBAT*
G04 #@! TO.N,/VBAT*
X63067010Y19572990D03*
G04 #@! TO.P,M6,N18,UART8_RX_(PE0)*
G04 #@! TO.N,/VR1*
X63867010Y19573000D03*
G04 #@! TO.P,M6,N19,UART8_TX_(PE1)*
G04 #@! TO.N,/VR2*
X64667010Y19573000D03*
G04 #@! TO.P,M6,N20,OUT_PWR_EN_(PE10)*
G04 #@! TO.N,/PWR_EN*
X68967010Y19573000D03*
G04 #@! TO.P,M6,N21,V33*
G04 #@! TO.N,+3.3V*
X71667010Y19573000D03*
G04 #@! TO.P,M6,N22,VCC*
G04 #@! TO.N,+5V*
X72667000Y19573000D03*
G04 #@! TO.P,M6,N23,V33*
G04 #@! TO.N,unconnected-(M6-V33-PadN23)*
X80067010Y19573000D03*
G04 #@! TO.P,M6,S1,IN_D4_(PE15)*
G04 #@! TO.N,/IN_BUTTON3*
X53266990Y54973000D03*
G04 #@! TO.P,M6,S2,IN_D3_(PE14)*
G04 #@! TO.N,/IN_HALL3*
X54467000Y54973000D03*
G04 #@! TO.P,M6,S3,IN_D2_(PE13)*
G04 #@! TO.N,/IN_HALL2*
X55667000Y54973000D03*
G04 #@! TO.P,M6,S4,IN_D1_(PE12)*
G04 #@! TO.N,/IN_HALL1*
X56867000Y54973000D03*
G04 #@! TO.P,M6,S5,VREF2*
G04 #@! TO.N,unconnected-(M6-VREF2-PadS5)*
X58067000Y54973000D03*
G04 #@! TO.P,M6,S6,IN_AUX4_(PA7)*
G04 #@! TO.N,/IN_VMAIN*
X59267000Y54973000D03*
G04 #@! TO.P,M6,S7,IN_AUX3_(PC5)*
G04 #@! TO.N,/BARO*
X60467000Y54973000D03*
G04 #@! TO.P,M6,S8,IN_AUX2_(PC4/PE9)*
G04 #@! TO.N,/IN_PPS2*
X61667000Y54973000D03*
G04 #@! TO.P,M6,S9,IN_AUX1_(PB0)*
G04 #@! TO.N,/IN_TPS2*
X62867000Y54973000D03*
G04 #@! TO.P,M6,S10,IN_O2S2_(PA1)*
G04 #@! TO.N,/IN_AUX2*
X64067000Y54973000D03*
G04 #@! TO.P,M6,S11,IN_O2S_/_CAN_WAKEUP_(PA0)*
G04 #@! TO.N,/IN_AUX1*
X65267000Y54973000D03*
G04 #@! TO.P,M6,S12,IN_MAP2_(PC1)*
G04 #@! TO.N,/INTERNAL_MAP*
X66467000Y54973000D03*
G04 #@! TO.P,M6,S13,IN_MAP1_(PC0)*
G04 #@! TO.N,/IN_MAP*
X67667000Y54973000D03*
G04 #@! TO.P,M6,S14,IN_CRANK_(PB1)*
G04 #@! TO.N,/IN_BUTTON1*
X68867000Y54973000D03*
G04 #@! TO.P,M6,S15,IN_KNOCK_(PA2)*
G04 #@! TO.N,/ADC3*
X70067000Y54973000D03*
G04 #@! TO.P,M6,S16,IN_CAM_(PA6)*
G04 #@! TO.N,/Clutch{slash}kickstandswitch*
X71267000Y54973000D03*
G04 #@! TO.P,M6,S17,IN_VSS_(PE11)*
G04 #@! TO.N,/IN_FLEX*
X72467000Y54973000D03*
G04 #@! TO.P,M6,S18,IN_TPS_(PA4)*
G04 #@! TO.N,/IN_TPS1*
X73667010Y54973000D03*
G04 #@! TO.P,M6,S19,IN_PPS_(PA3)*
G04 #@! TO.N,/IN_PPS1*
X74867010Y54973000D03*
G04 #@! TO.P,M6,S20,IN_IAT_(PC3)*
G04 #@! TO.N,/IAT_SENSOR*
X76067010Y54973000D03*
G04 #@! TO.P,M6,S21,IN_CLT_(PC2)*
G04 #@! TO.N,/CLT*
X77267010Y54973000D03*
G04 #@! TO.P,M6,S22,VREF1*
G04 #@! TO.N,/VREF1*
X79667010Y54973000D03*
G04 #@! TO.P,M6,W1,GNDA*
G04 #@! TO.N,GNDA*
X80067010Y52472990D03*
G04 #@! TO.P,M6,W2,V5A_SWITCHABLE*
G04 #@! TO.N,+5VA*
X80067010Y51472990D03*
G04 #@! TO.P,M6,W3,IGN8_(PE6)*
G04 #@! TO.N,/LS_WEAK2*
X80067010Y40773000D03*
G04 #@! TO.P,M6,W4,IGN7_(PB9)*
G04 #@! TO.N,/LS_WEAK1*
X80067010Y39772990D03*
G04 #@! TO.P,M6,W5,IGN6_(PB8)*
G04 #@! TO.N,unconnected-(M6-IGN6_(PB8)-PadW5)*
X80067010Y38773000D03*
G04 #@! TO.P,M6,W6,IGN5_(PE2)*
G04 #@! TO.N,unconnected-(M6-IGN5_(PE2)-PadW6)*
X80067010Y37773000D03*
G04 #@! TO.P,M6,W7,IGN4_(PE3)*
G04 #@! TO.N,/IGN4*
X80067010Y36773000D03*
G04 #@! TO.P,M6,W8,IGN3_(PE4)*
G04 #@! TO.N,/IGN3*
X80067010Y35773000D03*
G04 #@! TO.P,M6,W9,IGN2_(PE5)*
G04 #@! TO.N,/IGN2*
X80067010Y34773000D03*
G04 #@! TO.P,M6,W10,IGN1_(PC13)*
G04 #@! TO.N,/IGN1*
X80067010Y33773000D03*
G04 #@! TO.P,M6,W11,CANH*
G04 #@! TO.N,/CAN+*
X80067010Y31173000D03*
G04 #@! TO.P,M6,W12,CANL*
G04 #@! TO.N,/CAN-*
X80067010Y30373000D03*
G04 #@! TO.P,M6,W13,V33_REF*
G04 #@! TO.N,unconnected-(M6-V33_REF-PadW13)*
X80067010Y25672990D03*
G04 #@! TO.P,M6,W14,V5A_SWITCHABLE*
G04 #@! TO.N,unconnected-(M6-V5A_SWITCHABLE-PadW14)*
X80067010Y24273000D03*
G04 #@! TD*
D38*
G04 #@! TO.P,F1,1,1*
G04 #@! TO.N,+12V*
X25723588Y52557412D03*
G04 #@! TO.P,F1,2,2*
G04 #@! TO.N,/IN_VIGN*
X29188412Y49092588D03*
G04 #@! TD*
D15*
G04 #@! TO.P,M5,E1,LSU_Un*
G04 #@! TO.N,/WBO_Un*
X111930000Y22962000D03*
G04 #@! TO.P,M5,E2,LSU_Vm*
G04 #@! TO.N,/WBO_Vm*
X111930000Y19962000D03*
G04 #@! TO.P,M5,E3,LSU_Ip*
G04 #@! TO.N,/WBO_Ip*
X111930000Y20962000D03*
G04 #@! TO.P,M5,E4,LSU_Rtrim*
G04 #@! TO.N,/WBO_Rtrim*
X111930000Y21962000D03*
D51*
G04 #@! TO.P,M5,G,GND*
G04 #@! TO.N,GND*
X138905000Y11112000D03*
D52*
X138905000Y15452000D03*
D53*
X138905000Y21412000D03*
D54*
X125230000Y10687000D03*
X125230000Y24437000D03*
D55*
X111555000Y14937000D03*
D56*
X111555000Y24087000D03*
D15*
G04 #@! TO.P,M5,W1,V5_IN*
G04 #@! TO.N,Net-(JP1-A)*
X138521200Y13312000D03*
G04 #@! TO.P,M5,W2,CAN_VIO*
G04 #@! TO.N,unconnected-(M5-CAN_VIO-PadW2)*
X138521200Y14312000D03*
G04 #@! TO.P,M5,W3,CANL*
G04 #@! TO.N,/CAN-*
X138521200Y17608000D03*
G04 #@! TO.P,M5,W4,CANH*
G04 #@! TO.N,/CAN+*
X138521200Y16592000D03*
G04 #@! TO.P,M5,W9,VDDA*
G04 #@! TO.N,unconnected-(M5-VDDA-PadW9)*
X138521200Y12312000D03*
G04 #@! TD*
G04 #@! TO.P,C7,1*
G04 #@! TO.N,/LM1815-Crank/Signal+*
G04 #@! TA.AperFunction,SMDPad,CuDef*
G36*
G01*
X35036740Y35867740D02*
X35536740Y35867740D01*
G75*
G02*
X35761740Y35642740I0J-225000D01*
G01*
X35761740Y35192740D01*
G75*
G02*
X35536740Y34967740I-225000J0D01*
G01*
X35036740Y34967740D01*
G75*
G02*
X34811740Y35192740I0J225000D01*
G01*
X34811740Y35642740D01*
G75*
G02*
X35036740Y35867740I225000J0D01*
G01*
G37*
G04 #@! TD.AperFunction*
G04 #@! TO.P,C7,2*
G04 #@! TO.N,GND*
G04 #@! TA.AperFunction,SMDPad,CuDef*
G36*
G01*
X35036740Y34317740D02*
X35536740Y34317740D01*
G75*
G02*
X35761740Y34092740I0J-225000D01*
G01*
X35761740Y33642740D01*
G75*
G02*
X35536740Y33417740I-225000J0D01*
G01*
X35036740Y33417740D01*
G75*
G02*
X34811740Y33642740I0J225000D01*
G01*
X34811740Y34092740D01*
G75*
G02*
X35036740Y34317740I225000J0D01*
G01*
G37*
G04 #@! TD.AperFunction*
G04 #@! TD*
G04 #@! TO.P,C9,1*
G04 #@! TO.N,Net-(IC2A1-VIN)*
G04 #@! TA.AperFunction,SMDPad,CuDef*
G36*
G01*
X12382000Y47483000D02*
X12382000Y47983000D01*
G75*
G02*
X12607000Y48208000I225000J0D01*
G01*
X13057000Y48208000D01*
G75*
G02*
X13282000Y47983000I0J-225000D01*
G01*
X13282000Y47483000D01*
G75*
G02*
X13057000Y47258000I-225000J0D01*
G01*
X12607000Y47258000D01*
G75*
G02*
X12382000Y47483000I0J225000D01*
G01*
G37*
G04 #@! TD.AperFunction*
G04 #@! TO.P,C9,2*
G04 #@! TO.N,GND*
G04 #@! TA.AperFunction,SMDPad,CuDef*
G36*
G01*
X13932000Y47483000D02*
X13932000Y47983000D01*
G75*
G02*
X14157000Y48208000I225000J0D01*
G01*
X14607000Y48208000D01*
G75*
G02*
X14832000Y47983000I0J-225000D01*
G01*
X14832000Y47483000D01*
G75*
G02*
X14607000Y47258000I-225000J0D01*
G01*
X14157000Y47258000D01*
G75*
G02*
X13932000Y47483000I0J225000D01*
G01*
G37*
G04 #@! TD.AperFunction*
G04 #@! TD*
G04 #@! TO.P,R42,1*
G04 #@! TO.N,/CAM+*
G04 #@! TA.AperFunction,SMDPad,CuDef*
G36*
G01*
X7448120Y56527800D02*
X7448120Y56897800D01*
G75*
G02*
X7583120Y57032800I135000J0D01*
G01*
X7853120Y57032800D01*
G75*
G02*
X7988120Y56897800I0J-135000D01*
G01*
X7988120Y56527800D01*
G75*
G02*
X7853120Y56392800I-135000J0D01*
G01*
X7583120Y56392800D01*
G75*
G02*
X7448120Y56527800I0J135000D01*
G01*
G37*
G04 #@! TD.AperFunction*
G04 #@! TO.P,R42,2*
G04 #@! TO.N,/LM1815-Cam/Signal+*
G04 #@! TA.AperFunction,SMDPad,CuDef*
G36*
G01*
X8468120Y56527800D02*
X8468120Y56897800D01*
G75*
G02*
X8603120Y57032800I135000J0D01*
G01*
X8873120Y57032800D01*
G75*
G02*
X9008120Y56897800I0J-135000D01*
G01*
X9008120Y56527800D01*
G75*
G02*
X8873120Y56392800I-135000J0D01*
G01*
X8603120Y56392800D01*
G75*
G02*
X8468120Y56527800I0J135000D01*
G01*
G37*
G04 #@! TD.AperFunction*
G04 #@! TD*
G04 #@! TO.P,R16,1*
G04 #@! TO.N,/OUT_LS_WEAK2*
G04 #@! TA.AperFunction,SMDPad,CuDef*
G36*
G01*
X117593000Y67354000D02*
X117593000Y66574000D01*
G75*
G02*
X117523000Y66504000I-70000J0D01*
G01*
X116963000Y66504000D01*
G75*
G02*
X116893000Y66574000I0J70000D01*
G01*
X116893000Y67354000D01*
G75*
G02*
X116963000Y67424000I70000J0D01*
G01*
X117523000Y67424000D01*
G75*
G02*
X117593000Y67354000I0J-70000D01*
G01*
G37*
G04 #@! TD.AperFunction*
G04 #@! TO.P,R16,2*
G04 #@! TO.N,/Low Side/+12V_RAW*
G04 #@! TA.AperFunction,SMDPad,CuDef*
G36*
G01*
X115993000Y67354000D02*
X115993000Y66574000D01*
G75*
G02*
X115923000Y66504000I-70000J0D01*
G01*
X115363000Y66504000D01*
G75*
G02*
X115293000Y66574000I0J70000D01*
G01*
X115293000Y67354000D01*
G75*
G02*
X115363000Y67424000I70000J0D01*
G01*
X115923000Y67424000D01*
G75*
G02*
X115993000Y67354000I0J-70000D01*
G01*
G37*
G04 #@! TD.AperFunction*
G04 #@! TD*
G04 #@! TO.P,D2,1,K*
G04 #@! TO.N,+12V_RAW*
G04 #@! TA.AperFunction,SMDPad,CuDef*
G36*
G01*
X129517000Y50373000D02*
X128497000Y50373000D01*
G75*
G02*
X128407000Y50463000I0J90000D01*
G01*
X128407000Y51183000D01*
G75*
G02*
X128497000Y51273000I90000J0D01*
G01*
X129517000Y51273000D01*
G75*
G02*
X129607000Y51183000I0J-90000D01*
G01*
X129607000Y50463000D01*
G75*
G02*
X129517000Y50373000I-90000J0D01*
G01*
G37*
G04 #@! TD.AperFunction*
G04 #@! TO.P,D2,2,A*
G04 #@! TO.N,/FUELPUMP_LS*
G04 #@! TA.AperFunction,SMDPad,CuDef*
G36*
G01*
X129517000Y53673000D02*
X128497000Y53673000D01*
G75*
G02*
X128407000Y53763000I0J90000D01*
G01*
X128407000Y54483000D01*
G75*
G02*
X128497000Y54573000I90000J0D01*
G01*
X129517000Y54573000D01*
G75*
G02*
X129607000Y54483000I0J-90000D01*
G01*
X129607000Y53763000D01*
G75*
G02*
X129517000Y53673000I-90000J0D01*
G01*
G37*
G04 #@! TD.AperFunction*
G04 #@! TD*
G04 #@! TO.P,D5,1,K*
G04 #@! TO.N,+12V_RAW*
G04 #@! TA.AperFunction,SMDPad,CuDef*
G36*
G01*
X125572000Y50400000D02*
X124552000Y50400000D01*
G75*
G02*
X124462000Y50490000I0J90000D01*
G01*
X124462000Y51210000D01*
G75*
G02*
X124552000Y51300000I90000J0D01*
G01*
X125572000Y51300000D01*
G75*
G02*
X125662000Y51210000I0J-90000D01*
G01*
X125662000Y50490000D01*
G75*
G02*
X125572000Y50400000I-90000J0D01*
G01*
G37*
G04 #@! TD.AperFunction*
G04 #@! TO.P,D5,2,A*
G04 #@! TO.N,/INTAKEFLAP*
G04 #@! TA.AperFunction,SMDPad,CuDef*
G36*
G01*
X125572000Y53700000D02*
X124552000Y53700000D01*
G75*
G02*
X124462000Y53790000I0J90000D01*
G01*
X124462000Y54510000D01*
G75*
G02*
X124552000Y54600000I90000J0D01*
G01*
X125572000Y54600000D01*
G75*
G02*
X125662000Y54510000I0J-90000D01*
G01*
X125662000Y53790000D01*
G75*
G02*
X125572000Y53700000I-90000J0D01*
G01*
G37*
G04 #@! TD.AperFunction*
G04 #@! TD*
G04 #@! TO.P,R26,1*
G04 #@! TO.N,/LS_WEAK2*
G04 #@! TA.AperFunction,SMDPad,CuDef*
G36*
G01*
X124352072Y70957000D02*
X125132072Y70957000D01*
G75*
G02*
X125202072Y70887000I0J-70000D01*
G01*
X125202072Y70327000D01*
G75*
G02*
X125132072Y70257000I-70000J0D01*
G01*
X124352072Y70257000D01*
G75*
G02*
X124282072Y70327000I0J70000D01*
G01*
X124282072Y70887000D01*
G75*
G02*
X124352072Y70957000I70000J0D01*
G01*
G37*
G04 #@! TD.AperFunction*
G04 #@! TO.P,R26,2*
G04 #@! TO.N,GND*
G04 #@! TA.AperFunction,SMDPad,CuDef*
G36*
G01*
X124352072Y69357000D02*
X125132072Y69357000D01*
G75*
G02*
X125202072Y69287000I0J-70000D01*
G01*
X125202072Y68727000D01*
G75*
G02*
X125132072Y68657000I-70000J0D01*
G01*
X124352072Y68657000D01*
G75*
G02*
X124282072Y68727000I0J70000D01*
G01*
X124282072Y69287000D01*
G75*
G02*
X124352072Y69357000I70000J0D01*
G01*
G37*
G04 #@! TD.AperFunction*
G04 #@! TD*
G04 #@! TO.P,R41,1*
G04 #@! TO.N,/CRANK+*
G04 #@! TA.AperFunction,SMDPad,CuDef*
G36*
G01*
X10888403Y56287708D02*
X11150032Y56549337D01*
G75*
G02*
X11340950Y56549337I95459J-95459D01*
G01*
X11531869Y56358418D01*
G75*
G02*
X11531869Y56167500I-95459J-95459D01*
G01*
X11270240Y55905871D01*
G75*
G02*
X11079322Y55905871I-95459J95459D01*
G01*
X10888403Y56096790D01*
G75*
G02*
X10888403Y56287708I95459J95459D01*
G01*
G37*
G04 #@! TD.AperFunction*
G04 #@! TO.P,R41,2*
G04 #@! TO.N,/LM1815-Crank/Signal+*
G04 #@! TA.AperFunction,SMDPad,CuDef*
G36*
G01*
X11609651Y55566460D02*
X11871280Y55828089D01*
G75*
G02*
X12062198Y55828089I95459J-95459D01*
G01*
X12253117Y55637170D01*
G75*
G02*
X12253117Y55446252I-95459J-95459D01*
G01*
X11991488Y55184623D01*
G75*
G02*
X11800570Y55184623I-95459J95459D01*
G01*
X11609651Y55375542D01*
G75*
G02*
X11609651Y55566460I95459J95459D01*
G01*
G37*
G04 #@! TD.AperFunction*
G04 #@! TD*
G04 #@! TO.P,D3,1,K*
G04 #@! TO.N,+12V_RAW*
G04 #@! TA.AperFunction,SMDPad,CuDef*
G36*
G01*
X120617000Y40633000D02*
X119597000Y40633000D01*
G75*
G02*
X119507000Y40723000I0J90000D01*
G01*
X119507000Y41443000D01*
G75*
G02*
X119597000Y41533000I90000J0D01*
G01*
X120617000Y41533000D01*
G75*
G02*
X120707000Y41443000I0J-90000D01*
G01*
X120707000Y40723000D01*
G75*
G02*
X120617000Y40633000I-90000J0D01*
G01*
G37*
G04 #@! TD.AperFunction*
G04 #@! TO.P,D3,2,A*
G04 #@! TO.N,/OUT_LS2*
G04 #@! TA.AperFunction,SMDPad,CuDef*
G36*
G01*
X120617000Y43933000D02*
X119597000Y43933000D01*
G75*
G02*
X119507000Y44023000I0J90000D01*
G01*
X119507000Y44743000D01*
G75*
G02*
X119597000Y44833000I90000J0D01*
G01*
X120617000Y44833000D01*
G75*
G02*
X120707000Y44743000I0J-90000D01*
G01*
X120707000Y44023000D01*
G75*
G02*
X120617000Y43933000I-90000J0D01*
G01*
G37*
G04 #@! TD.AperFunction*
G04 #@! TD*
G04 #@! TO.P,R12,1*
G04 #@! TO.N,/IGN1*
G04 #@! TA.AperFunction,SMDPad,CuDef*
G36*
G01*
X115147336Y46715060D02*
X112679164Y45290060D01*
G75*
G02*
X112337658Y45381566I-125000J216506D01*
G01*
X111975158Y46009434D01*
G75*
G02*
X112066664Y46350940I216506J125000D01*
G01*
X114534836Y47775940D01*
G75*
G02*
X114876342Y47684434I125000J-216506D01*
G01*
X115238842Y47056566D01*
G75*
G02*
X115147336Y46715060I-216506J-125000D01*
G01*
G37*
G04 #@! TD.AperFunction*
G04 #@! TO.P,R12,2*
G04 #@! TO.N,/IGNOUT1*
G04 #@! TA.AperFunction,SMDPad,CuDef*
G36*
G01*
X112184836Y51846260D02*
X109716664Y50421260D01*
G75*
G02*
X109375158Y50512766I-125000J216506D01*
G01*
X109012658Y51140634D01*
G75*
G02*
X109104164Y51482140I216506J125000D01*
G01*
X111572336Y52907140D01*
G75*
G02*
X111913842Y52815634I125000J-216506D01*
G01*
X112276342Y52187766D01*
G75*
G02*
X112184836Y51846260I-216506J-125000D01*
G01*
G37*
G04 #@! TD.AperFunction*
G04 #@! TD*
G04 #@! TO.P,C6,1*
G04 #@! TO.N,Net-(IC2-VIN)*
G04 #@! TA.AperFunction,SMDPad,CuDef*
G36*
G01*
X33157000Y35858000D02*
X33657000Y35858000D01*
G75*
G02*
X33882000Y35633000I0J-225000D01*
G01*
X33882000Y35183000D01*
G75*
G02*
X33657000Y34958000I-225000J0D01*
G01*
X33157000Y34958000D01*
G75*
G02*
X32932000Y35183000I0J225000D01*
G01*
X32932000Y35633000D01*
G75*
G02*
X33157000Y35858000I225000J0D01*
G01*
G37*
G04 #@! TD.AperFunction*
G04 #@! TO.P,C6,2*
G04 #@! TO.N,GND*
G04 #@! TA.AperFunction,SMDPad,CuDef*
G36*
G01*
X33157000Y34308000D02*
X33657000Y34308000D01*
G75*
G02*
X33882000Y34083000I0J-225000D01*
G01*
X33882000Y33633000D01*
G75*
G02*
X33657000Y33408000I-225000J0D01*
G01*
X33157000Y33408000D01*
G75*
G02*
X32932000Y33633000I0J225000D01*
G01*
X32932000Y34083000D01*
G75*
G02*
X33157000Y34308000I225000J0D01*
G01*
G37*
G04 #@! TD.AperFunction*
G04 #@! TD*
G04 #@! TO.P,D4,1,K*
G04 #@! TO.N,+12V_RAW*
G04 #@! TA.AperFunction,SMDPad,CuDef*
G36*
G01*
X123868000Y45394000D02*
X122848000Y45394000D01*
G75*
G02*
X122758000Y45484000I0J90000D01*
G01*
X122758000Y46204000D01*
G75*
G02*
X122848000Y46294000I90000J0D01*
G01*
X123868000Y46294000D01*
G75*
G02*
X123958000Y46204000I0J-90000D01*
G01*
X123958000Y45484000D01*
G75*
G02*
X123868000Y45394000I-90000J0D01*
G01*
G37*
G04 #@! TD.AperFunction*
G04 #@! TO.P,D4,2,A*
G04 #@! TO.N,/OUT_LS3*
G04 #@! TA.AperFunction,SMDPad,CuDef*
G36*
G01*
X123868000Y48694000D02*
X122848000Y48694000D01*
G75*
G02*
X122758000Y48784000I0J90000D01*
G01*
X122758000Y49504000D01*
G75*
G02*
X122848000Y49594000I90000J0D01*
G01*
X123868000Y49594000D01*
G75*
G02*
X123958000Y49504000I0J-90000D01*
G01*
X123958000Y48784000D01*
G75*
G02*
X123868000Y48694000I-90000J0D01*
G01*
G37*
G04 #@! TD.AperFunction*
G04 #@! TD*
G04 #@! TO.P,D7,1*
G04 #@! TO.N,/OUT_LS_WEAK2*
G04 #@! TA.AperFunction,SMDPad,CuDef*
G36*
G01*
X117371000Y68426000D02*
X117071000Y68426000D01*
G75*
G02*
X116921000Y68576000I0J150000D01*
G01*
X116921000Y69751000D01*
G75*
G02*
X117071000Y69901000I150000J0D01*
G01*
X117371000Y69901000D01*
G75*
G02*
X117521000Y69751000I0J-150000D01*
G01*
X117521000Y68576000D01*
G75*
G02*
X117371000Y68426000I-150000J0D01*
G01*
G37*
G04 #@! TD.AperFunction*
G04 #@! TO.P,D7,2*
G04 #@! TO.N,GND*
G04 #@! TA.AperFunction,SMDPad,CuDef*
G36*
G01*
X116421000Y70301000D02*
X116121000Y70301000D01*
G75*
G02*
X115971000Y70451000I0J150000D01*
G01*
X115971000Y71626000D01*
G75*
G02*
X116121000Y71776000I150000J0D01*
G01*
X116421000Y71776000D01*
G75*
G02*
X116571000Y71626000I0J-150000D01*
G01*
X116571000Y70451000D01*
G75*
G02*
X116421000Y70301000I-150000J0D01*
G01*
G37*
G04 #@! TD.AperFunction*
G04 #@! TO.P,D7,3*
G04 #@! TO.N,unconnected-(D7-Pad3)*
G04 #@! TA.AperFunction,SMDPad,CuDef*
G36*
G01*
X115471000Y68426000D02*
X115171000Y68426000D01*
G75*
G02*
X115021000Y68576000I0J150000D01*
G01*
X115021000Y69751000D01*
G75*
G02*
X115171000Y69901000I150000J0D01*
G01*
X115471000Y69901000D01*
G75*
G02*
X115621000Y69751000I0J-150000D01*
G01*
X115621000Y68576000D01*
G75*
G02*
X115471000Y68426000I-150000J0D01*
G01*
G37*
G04 #@! TD.AperFunction*
G04 #@! TD*
G04 #@! TO.P,R25,1*
G04 #@! TO.N,/LS_WEAK1*
G04 #@! TA.AperFunction,SMDPad,CuDef*
G36*
G01*
X138885000Y70283000D02*
X139665000Y70283000D01*
G75*
G02*
X139735000Y70213000I0J-70000D01*
G01*
X139735000Y69653000D01*
G75*
G02*
X139665000Y69583000I-70000J0D01*
G01*
X138885000Y69583000D01*
G75*
G02*
X138815000Y69653000I0J70000D01*
G01*
X138815000Y70213000D01*
G75*
G02*
X138885000Y70283000I70000J0D01*
G01*
G37*
G04 #@! TD.AperFunction*
G04 #@! TO.P,R25,2*
G04 #@! TO.N,GND*
G04 #@! TA.AperFunction,SMDPad,CuDef*
G36*
G01*
X138885000Y68683000D02*
X139665000Y68683000D01*
G75*
G02*
X139735000Y68613000I0J-70000D01*
G01*
X139735000Y68053000D01*
G75*
G02*
X139665000Y67983000I-70000J0D01*
G01*
X138885000Y67983000D01*
G75*
G02*
X138815000Y68053000I0J70000D01*
G01*
X138815000Y68613000D01*
G75*
G02*
X138885000Y68683000I70000J0D01*
G01*
G37*
G04 #@! TD.AperFunction*
G04 #@! TD*
G04 #@! TO.P,R18,1*
G04 #@! TO.N,/IGN4*
G04 #@! TA.AperFunction,SMDPad,CuDef*
G36*
G01*
X98465586Y46196460D02*
X95997414Y44771460D01*
G75*
G02*
X95655908Y44862966I-125000J216506D01*
G01*
X95293408Y45490834D01*
G75*
G02*
X95384914Y45832340I216506J125000D01*
G01*
X97853086Y47257340D01*
G75*
G02*
X98194592Y47165834I125000J-216506D01*
G01*
X98557092Y46537966D01*
G75*
G02*
X98465586Y46196460I-216506J-125000D01*
G01*
G37*
G04 #@! TD.AperFunction*
G04 #@! TO.P,R18,2*
G04 #@! TO.N,/IGNOUT4*
G04 #@! TA.AperFunction,SMDPad,CuDef*
G36*
G01*
X95503086Y51327660D02*
X93034914Y49902660D01*
G75*
G02*
X92693408Y49994166I-125000J216506D01*
G01*
X92330908Y50622034D01*
G75*
G02*
X92422414Y50963540I216506J125000D01*
G01*
X94890586Y52388540D01*
G75*
G02*
X95232092Y52297034I125000J-216506D01*
G01*
X95594592Y51669166D01*
G75*
G02*
X95503086Y51327660I-216506J-125000D01*
G01*
G37*
G04 #@! TD.AperFunction*
G04 #@! TD*
G04 #@! TO.P,R13,1*
G04 #@! TO.N,/IGN2*
G04 #@! TA.AperFunction,SMDPad,CuDef*
G36*
G01*
X99118586Y33268460D02*
X96650414Y31843460D01*
G75*
G02*
X96308908Y31934966I-125000J216506D01*
G01*
X95946408Y32562834D01*
G75*
G02*
X96037914Y32904340I216506J125000D01*
G01*
X98506086Y34329340D01*
G75*
G02*
X98847592Y34237834I125000J-216506D01*
G01*
X99210092Y33609966D01*
G75*
G02*
X99118586Y33268460I-216506J-125000D01*
G01*
G37*
G04 #@! TD.AperFunction*
G04 #@! TO.P,R13,2*
G04 #@! TO.N,/IGNOUT2*
G04 #@! TA.AperFunction,SMDPad,CuDef*
G36*
G01*
X96156086Y38399660D02*
X93687914Y36974660D01*
G75*
G02*
X93346408Y37066166I-125000J216506D01*
G01*
X92983908Y37694034D01*
G75*
G02*
X93075414Y38035540I216506J125000D01*
G01*
X95543586Y39460540D01*
G75*
G02*
X95885092Y39369034I125000J-216506D01*
G01*
X96247592Y38741166D01*
G75*
G02*
X96156086Y38399660I-216506J-125000D01*
G01*
G37*
G04 #@! TD.AperFunction*
G04 #@! TD*
G04 #@! TO.P,Q12,1,G*
G04 #@! TO.N,/LS_WEAK2*
G04 #@! TA.AperFunction,SMDPad,CuDef*
G36*
G01*
X122832000Y70907000D02*
X122832000Y70607000D01*
G75*
G02*
X122682000Y70457000I-150000J0D01*
G01*
X121507000Y70457000D01*
G75*
G02*
X121357000Y70607000I0J150000D01*
G01*
X121357000Y70907000D01*
G75*
G02*
X121507000Y71057000I150000J0D01*
G01*
X122682000Y71057000D01*
G75*
G02*
X122832000Y70907000I0J-150000D01*
G01*
G37*
G04 #@! TD.AperFunction*
G04 #@! TO.P,Q12,2,D*
G04 #@! TO.N,/OUT_LS_WEAK2*
G04 #@! TA.AperFunction,SMDPad,CuDef*
G36*
G01*
X120957000Y69957000D02*
X120957000Y69657000D01*
G75*
G02*
X120807000Y69507000I-150000J0D01*
G01*
X119632000Y69507000D01*
G75*
G02*
X119482000Y69657000I0J150000D01*
G01*
X119482000Y69957000D01*
G75*
G02*
X119632000Y70107000I150000J0D01*
G01*
X120807000Y70107000D01*
G75*
G02*
X120957000Y69957000I0J-150000D01*
G01*
G37*
G04 #@! TD.AperFunction*
G04 #@! TO.P,Q12,3,S*
G04 #@! TO.N,GND*
G04 #@! TA.AperFunction,SMDPad,CuDef*
G36*
G01*
X122832000Y69007000D02*
X122832000Y68707000D01*
G75*
G02*
X122682000Y68557000I-150000J0D01*
G01*
X121507000Y68557000D01*
G75*
G02*
X121357000Y68707000I0J150000D01*
G01*
X121357000Y69007000D01*
G75*
G02*
X121507000Y69157000I150000J0D01*
G01*
X122682000Y69157000D01*
G75*
G02*
X122832000Y69007000I0J-150000D01*
G01*
G37*
G04 #@! TD.AperFunction*
G04 #@! TD*
G04 #@! TO.P,C8,1*
G04 #@! TO.N,/LM1815-Cam/Signal+*
G04 #@! TA.AperFunction,SMDPad,CuDef*
G36*
G01*
X7857000Y43458000D02*
X8357000Y43458000D01*
G75*
G02*
X8582000Y43233000I0J-225000D01*
G01*
X8582000Y42783000D01*
G75*
G02*
X8357000Y42558000I-225000J0D01*
G01*
X7857000Y42558000D01*
G75*
G02*
X7632000Y42783000I0J225000D01*
G01*
X7632000Y43233000D01*
G75*
G02*
X7857000Y43458000I225000J0D01*
G01*
G37*
G04 #@! TD.AperFunction*
G04 #@! TO.P,C8,2*
G04 #@! TO.N,GND*
G04 #@! TA.AperFunction,SMDPad,CuDef*
G36*
G01*
X7857000Y41908000D02*
X8357000Y41908000D01*
G75*
G02*
X8582000Y41683000I0J-225000D01*
G01*
X8582000Y41233000D01*
G75*
G02*
X8357000Y41008000I-225000J0D01*
G01*
X7857000Y41008000D01*
G75*
G02*
X7632000Y41233000I0J225000D01*
G01*
X7632000Y41683000D01*
G75*
G02*
X7857000Y41908000I225000J0D01*
G01*
G37*
G04 #@! TD.AperFunction*
G04 #@! TD*
G04 #@! TO.P,D6,1*
G04 #@! TO.N,/FILIGHT*
G04 #@! TA.AperFunction,SMDPad,CuDef*
G36*
G01*
X128802000Y68930000D02*
X128802000Y69230000D01*
G75*
G02*
X128952000Y69380000I150000J0D01*
G01*
X130127000Y69380000D01*
G75*
G02*
X130277000Y69230000I0J-150000D01*
G01*
X130277000Y68930000D01*
G75*
G02*
X130127000Y68780000I-150000J0D01*
G01*
X128952000Y68780000D01*
G75*
G02*
X128802000Y68930000I0J150000D01*
G01*
G37*
G04 #@! TD.AperFunction*
G04 #@! TO.P,D6,2*
G04 #@! TO.N,GND*
G04 #@! TA.AperFunction,SMDPad,CuDef*
G36*
G01*
X130677000Y69880000D02*
X130677000Y70180000D01*
G75*
G02*
X130827000Y70330000I150000J0D01*
G01*
X132002000Y70330000D01*
G75*
G02*
X132152000Y70180000I0J-150000D01*
G01*
X132152000Y69880000D01*
G75*
G02*
X132002000Y69730000I-150000J0D01*
G01*
X130827000Y69730000D01*
G75*
G02*
X130677000Y69880000I0J150000D01*
G01*
G37*
G04 #@! TD.AperFunction*
G04 #@! TO.P,D6,3*
G04 #@! TO.N,unconnected-(D6-Pad3)*
G04 #@! TA.AperFunction,SMDPad,CuDef*
G36*
G01*
X128802000Y70830000D02*
X128802000Y71130000D01*
G75*
G02*
X128952000Y71280000I150000J0D01*
G01*
X130127000Y71280000D01*
G75*
G02*
X130277000Y71130000I0J-150000D01*
G01*
X130277000Y70830000D01*
G75*
G02*
X130127000Y70680000I-150000J0D01*
G01*
X128952000Y70680000D01*
G75*
G02*
X128802000Y70830000I0J150000D01*
G01*
G37*
G04 #@! TD.AperFunction*
G04 #@! TD*
G04 #@! TO.P,R14,1*
G04 #@! TO.N,/IGN3*
G04 #@! TA.AperFunction,SMDPad,CuDef*
G36*
G01*
X111119586Y37056460D02*
X108651414Y35631460D01*
G75*
G02*
X108309908Y35722966I-125000J216506D01*
G01*
X107947408Y36350834D01*
G75*
G02*
X108038914Y36692340I216506J125000D01*
G01*
X110507086Y38117340D01*
G75*
G02*
X110848592Y38025834I125000J-216506D01*
G01*
X111211092Y37397966D01*
G75*
G02*
X111119586Y37056460I-216506J-125000D01*
G01*
G37*
G04 #@! TD.AperFunction*
G04 #@! TO.P,R14,2*
G04 #@! TO.N,/IGNOUT3*
G04 #@! TA.AperFunction,SMDPad,CuDef*
G36*
G01*
X108157086Y42187660D02*
X105688914Y40762660D01*
G75*
G02*
X105347408Y40854166I-125000J216506D01*
G01*
X104984908Y41482034D01*
G75*
G02*
X105076414Y41823540I216506J125000D01*
G01*
X107544586Y43248540D01*
G75*
G02*
X107886092Y43157034I125000J-216506D01*
G01*
X108248592Y42529166D01*
G75*
G02*
X108157086Y42187660I-216506J-125000D01*
G01*
G37*
G04 #@! TD.AperFunction*
G04 #@! TD*
G04 #@! TO.P,Q11,1,G*
G04 #@! TO.N,/LS_WEAK1*
G04 #@! TA.AperFunction,SMDPad,CuDef*
G36*
G01*
X136144000Y70164000D02*
X136144000Y69864000D01*
G75*
G02*
X135994000Y69714000I-150000J0D01*
G01*
X134819000Y69714000D01*
G75*
G02*
X134669000Y69864000I0J150000D01*
G01*
X134669000Y70164000D01*
G75*
G02*
X134819000Y70314000I150000J0D01*
G01*
X135994000Y70314000D01*
G75*
G02*
X136144000Y70164000I0J-150000D01*
G01*
G37*
G04 #@! TD.AperFunction*
G04 #@! TO.P,Q11,2,D*
G04 #@! TO.N,/FILIGHT*
G04 #@! TA.AperFunction,SMDPad,CuDef*
G36*
G01*
X134269000Y69214000D02*
X134269000Y68914000D01*
G75*
G02*
X134119000Y68764000I-150000J0D01*
G01*
X132944000Y68764000D01*
G75*
G02*
X132794000Y68914000I0J150000D01*
G01*
X132794000Y69214000D01*
G75*
G02*
X132944000Y69364000I150000J0D01*
G01*
X134119000Y69364000D01*
G75*
G02*
X134269000Y69214000I0J-150000D01*
G01*
G37*
G04 #@! TD.AperFunction*
G04 #@! TO.P,Q11,3,S*
G04 #@! TO.N,GND*
G04 #@! TA.AperFunction,SMDPad,CuDef*
G36*
G01*
X136144000Y68264000D02*
X136144000Y67964000D01*
G75*
G02*
X135994000Y67814000I-150000J0D01*
G01*
X134819000Y67814000D01*
G75*
G02*
X134669000Y67964000I0J150000D01*
G01*
X134669000Y68264000D01*
G75*
G02*
X134819000Y68414000I150000J0D01*
G01*
X135994000Y68414000D01*
G75*
G02*
X136144000Y68264000I0J-150000D01*
G01*
G37*
G04 #@! TD.AperFunction*
G04 #@! TD*
G04 #@! TO.P,R1A1,1*
G04 #@! TO.N,/LM1815-Cam/Signal+*
G04 #@! TA.AperFunction,SMDPad,CuDef*
G36*
G01*
X11397820Y42085360D02*
X11397820Y42455360D01*
G75*
G02*
X11532820Y42590360I135000J0D01*
G01*
X11802820Y42590360D01*
G75*
G02*
X11937820Y42455360I0J-135000D01*
G01*
X11937820Y42085360D01*
G75*
G02*
X11802820Y41950360I-135000J0D01*
G01*
X11532820Y41950360D01*
G75*
G02*
X11397820Y42085360I0J135000D01*
G01*
G37*
G04 #@! TD.AperFunction*
G04 #@! TO.P,R1A1,2*
G04 #@! TO.N,Net-(IC2A1-VIN)*
G04 #@! TA.AperFunction,SMDPad,CuDef*
G36*
G01*
X12417820Y42085360D02*
X12417820Y42455360D01*
G75*
G02*
X12552820Y42590360I135000J0D01*
G01*
X12822820Y42590360D01*
G75*
G02*
X12957820Y42455360I0J-135000D01*
G01*
X12957820Y42085360D01*
G75*
G02*
X12822820Y41950360I-135000J0D01*
G01*
X12552820Y41950360D01*
G75*
G02*
X12417820Y42085360I0J135000D01*
G01*
G37*
G04 #@! TD.AperFunction*
G04 #@! TD*
D57*
G04 #@! TO.N,GND*
X116940974Y44271045D03*
X113835423Y33209155D03*
X76407000Y18733000D03*
X128807000Y48733000D03*
X142007000Y2433000D03*
X150207000Y32133000D03*
X9207000Y41433000D03*
X125707000Y36033000D03*
X145907000Y40033000D03*
X25407000Y46533000D03*
X154907000Y31133000D03*
X130807000Y30033000D03*
X136607000Y39333000D03*
X29107000Y41833000D03*
X66807000Y18733000D03*
X121707000Y37933000D03*
X30807000Y53633000D03*
X153807000Y57133000D03*
X117440974Y43405019D03*
X110807000Y14333000D03*
X100407000Y43033000D03*
X145807000Y50333000D03*
X145407000Y48533000D03*
X20807000Y13733000D03*
X81007000Y31833000D03*
X121107000Y40033000D03*
X81007000Y46133000D03*
X122007000Y40033000D03*
X102555206Y30571045D03*
X102189180Y29205019D03*
X70307000Y18833000D03*
X81107000Y28033000D03*
X149307000Y32133000D03*
X145007000Y40033000D03*
X46107000Y55633000D03*
X38907000Y22933000D03*
X136607000Y40233000D03*
X101773026Y42666974D03*
X28807000Y33333000D03*
X45707000Y46233000D03*
X10207000Y47733000D03*
X103055206Y29705019D03*
X125307000Y25033000D03*
X29107000Y8733000D03*
X144907000Y50333000D03*
X15907000Y24433000D03*
X124807000Y36033000D03*
X140607000Y34233000D03*
X45707000Y22833000D03*
X45707000Y31433000D03*
X39007000Y14433000D03*
X127407000Y55533000D03*
X35007000Y41533000D03*
X1807000Y10033000D03*
X101689180Y30071045D03*
X131407000Y70933000D03*
X137707000Y52333000D03*
X34307000Y33833000D03*
X57007000Y18833000D03*
X19707000Y52933000D03*
X118307000Y43905019D03*
X78507000Y56333000D03*
X10707000Y38633000D03*
X136807000Y52333000D03*
X126507000Y55533000D03*
X101273026Y43533000D03*
X114201449Y34575181D03*
X16007000Y47733000D03*
X100907000Y42166974D03*
X137307000Y68233000D03*
X113335423Y34075181D03*
X117807000Y44771045D03*
X7307000Y38633000D03*
X114701449Y33709155D03*
X123507000Y68933000D03*
X116271000Y72223358D03*
X138507000Y42533000D03*
X29907000Y30733000D03*
G04 #@! TO.N,/IGN1*
X116107000Y41633000D03*
G04 #@! TO.N,/IGN2*
X98607000Y31133000D03*
G04 #@! TO.N,/IGN3*
X110407000Y34933000D03*
G04 #@! TO.N,/IGN4*
X98603860Y43296520D03*
G04 #@! TO.N,/INTAKEFLAP*
X85107000Y20833000D03*
X125062000Y55133000D03*
G04 #@! TO.N,/INJ4*
X147807000Y56433000D03*
X129307000Y67133000D03*
G04 #@! TO.N,/FUELPUMP_LS*
X129007000Y55933000D03*
G04 #@! TO.N,+3.3VA*
X64507000Y18133000D03*
X73907000Y11332500D03*
X78665276Y8091276D03*
G04 #@! TO.N,+5VA*
X37907000Y51433000D03*
X105207000Y24633000D03*
X41107000Y51433000D03*
G04 #@! TO.N,/VBAT*
X54107000Y13833000D03*
G04 #@! TO.N,/OUT_LS2*
X119807000Y46933000D03*
X85139829Y18743837D03*
X117811676Y37737676D03*
G04 #@! TO.N,/OUT_LS3*
X86957000Y18983000D03*
X117807000Y35933000D03*
X123382000Y50075000D03*
G04 #@! TO.N,/CAN+*
X55707000Y8033000D03*
X9307000Y39733000D03*
X55707000Y6033000D03*
G04 #@! TO.N,/VIGN*
X44307000Y12933000D03*
X44307000Y20733000D03*
G04 #@! TO.N,+5V*
X53457000Y11683000D03*
G04 #@! TO.N,/PWR_EN*
X62707000Y14533000D03*
G04 #@! TO.N,/LS2*
X107307000Y66333000D03*
X44207000Y47433000D03*
G04 #@! TO.N,/LS1*
X126954000Y48133000D03*
X41507000Y47233000D03*
G04 #@! TO.N,/LS3*
X81907000Y18833000D03*
X88407000Y24333000D03*
X51507000Y18533000D03*
G04 #@! TO.N,/LS4*
X149707000Y52814063D03*
X44167000Y30213000D03*
G04 #@! TO.N,/VR1*
X12695020Y51833000D03*
G04 #@! TO.N,/VR2*
X37807000Y36533000D03*
G04 #@! TO.N,Net-(M6-UART2_TX_(PD5))*
X43307000Y5833000D03*
X51357000Y13883000D03*
X40107000Y1633000D03*
X142729000Y19955000D03*
G04 #@! TO.N,Net-(M6-UART2_RX_(PD6))*
X62007000Y2033000D03*
X62007000Y11233000D03*
X62007000Y5533000D03*
G04 #@! TO.N,/IN_BUTTON3*
X43707000Y68033000D03*
G04 #@! TO.N,/IN_HALL1*
X37407000Y57533000D03*
X46107000Y57833000D03*
G04 #@! TO.N,/IN_VMAIN*
X37327000Y55433000D03*
G04 #@! TO.N,/IN_AUX2*
X85207000Y23733000D03*
X87598683Y29073397D03*
X81707000Y61133000D03*
G04 #@! TO.N,/IN_AUX1*
X81757000Y59783000D03*
X86025052Y30286597D03*
X83807000Y24833000D03*
G04 #@! TO.N,/IN_BUTTON1*
X50807000Y61733000D03*
X50207000Y71833000D03*
G04 #@! TO.N,/IN_FLEX*
X84631652Y31408347D03*
X82807000Y23333000D03*
X81757000Y58483000D03*
D58*
G04 #@! TO.N,/IGNOUT1*
X106374425Y54988185D03*
X107307000Y54233000D03*
X108239575Y53477815D03*
G04 #@! TO.N,/IGNOUT2*
X92834502Y41229362D03*
X93470405Y40211704D03*
X94106308Y39194046D03*
G04 #@! TO.N,/IGNOUT3*
X105628032Y43738155D03*
X104957000Y44733000D03*
X104285968Y45727845D03*
G04 #@! TO.N,/IGNOUT4*
X92807000Y53533000D03*
X93329277Y52452617D03*
X92284723Y54613383D03*
D57*
G04 #@! TO.N,/Low Side/+12V_RAW*
X114207000Y64633000D03*
G04 #@! TO.N,Net-(IC2-VIN)*
X33607000Y37258940D03*
G04 #@! TO.N,Net-(IC2A1-VIN)*
X12703600Y43575920D03*
G04 #@! TO.N,/LM1815-Crank/Signal+*
X35261340Y36413120D03*
G04 #@! TO.N,/Clutch{slash}kickstandswitch*
X45707000Y67433000D03*
G04 #@! TO.N,/PG_5VP*
X48707000Y13933000D03*
X19107000Y24833000D03*
G04 #@! TD*
D59*
G04 #@! TO.N,GND*
X123507000Y68933000D02*
X123431000Y68857000D01*
D60*
X14382000Y47733000D02*
X16007000Y47733000D01*
D59*
X135425500Y68133000D02*
X135406500Y68114000D01*
X137307000Y68233000D02*
X139175000Y68233000D01*
X131407000Y70037500D02*
X131414500Y70030000D01*
X116271000Y72223358D02*
X116271000Y71038500D01*
X137307000Y68233000D02*
X137207000Y68133000D01*
X123431000Y68857000D02*
X122094500Y68857000D01*
X139175000Y68233000D02*
X139275000Y68333000D01*
X137207000Y68133000D02*
X135425500Y68133000D01*
X131407000Y70933000D02*
X131407000Y70037500D01*
X8107000Y41458000D02*
X9207000Y41433000D01*
X33407000Y33858000D02*
X35286740Y33867740D01*
X123507000Y68933000D02*
X124668072Y68933000D01*
X124668072Y68933000D02*
X124742072Y69007000D01*
D11*
G04 #@! TO.N,/IGN1*
X116107000Y41633000D02*
X113607000Y46533000D01*
G04 #@! TO.N,/IGN2*
X80067010Y34773000D02*
X87367000Y34773000D01*
X87367000Y34773000D02*
X91007000Y31133000D01*
X91007000Y31133000D02*
X98607000Y31133000D01*
X98607000Y31133000D02*
X97578250Y33086400D01*
G04 #@! TO.N,/IGN3*
X110407000Y34933000D02*
X109579250Y36874400D01*
X80067010Y35773000D02*
X108507000Y35933000D01*
G04 #@! TO.N,/IGN4*
X80067010Y36773000D02*
X96925250Y46014400D01*
G04 #@! TO.N,/CRANK+*
X11210136Y61495864D02*
X11210136Y56227604D01*
X8425000Y64281000D02*
X11210136Y61495864D01*
D59*
G04 #@! TO.N,GNDA*
X59725000Y60181000D02*
X61977000Y62433000D01*
X82907000Y54812980D02*
X80567010Y52472990D01*
X80567010Y52472990D02*
X80067010Y52472990D01*
X61977000Y62433000D02*
X81707000Y62433000D01*
X81707000Y62433000D02*
X82907000Y61233000D01*
X82907000Y61233000D02*
X82907000Y54812980D01*
G04 #@! TO.N,/INTAKEFLAP*
X110527099Y31133000D02*
X114127100Y31133000D01*
X96830044Y23133000D02*
X102130044Y28433000D01*
X102130044Y28433000D02*
X107827099Y28433000D01*
X125062000Y59618001D02*
X125062000Y54150000D01*
X125062000Y53977949D02*
X125062000Y60668000D01*
X116407000Y33412900D02*
X116407000Y38233000D01*
X116407000Y38233000D02*
X119057000Y40883000D01*
X87407000Y23133000D02*
X96830044Y23133000D01*
X114127100Y31133000D02*
X116407000Y33412900D01*
X125062000Y54150000D02*
X125062000Y55133000D01*
X119057000Y40883000D02*
X119057000Y47972949D01*
X119057000Y47972949D02*
X125062000Y53977949D01*
X107827099Y28433000D02*
X110527099Y31133000D01*
X125062000Y60668000D02*
X128625000Y64231000D01*
X85107000Y20833000D02*
X87407000Y23133000D01*
D11*
G04 #@! TO.N,/INJ4*
X146407000Y67133000D02*
X129307000Y67133000D01*
X147807000Y56433000D02*
X147807000Y65733000D01*
X147807000Y65733000D02*
X146407000Y67133000D01*
D59*
G04 #@! TO.N,/FILIGHT*
X120807000Y65514000D02*
X120807000Y63713000D01*
X132969000Y69080000D02*
X128544000Y69080000D01*
X120807000Y63713000D02*
X117225000Y60131000D01*
X125897000Y66433000D02*
X121726000Y66433000D01*
X128544000Y69080000D02*
X125897000Y66433000D01*
X121726000Y66433000D02*
X120807000Y65514000D01*
G04 #@! TO.N,/FUELPUMP_LS*
X129007000Y54123000D02*
X129007000Y55933000D01*
D11*
G04 #@! TO.N,+3.3VA*
X76574420Y11433000D02*
X77707000Y10300420D01*
X77707000Y9049552D02*
X78665276Y8091276D01*
X77707000Y10300420D02*
X77707000Y9049552D01*
X73907000Y11332500D02*
X74007500Y11433000D01*
X74007500Y11433000D02*
X76574420Y11433000D01*
D60*
G04 #@! TO.N,+5VA*
X37907000Y51433000D02*
X41107000Y51433000D01*
X140970000Y15991000D02*
X140970000Y25870000D01*
X140970000Y25870000D02*
X139407000Y27433000D01*
X139407000Y27433000D02*
X112059690Y27433000D01*
X109259690Y24633000D02*
X105207000Y24633000D01*
X112059690Y27433000D02*
X109259690Y24633000D01*
D61*
G04 #@! TO.N,+12V_RAW*
X74007000Y16508000D02*
X74091000Y16592000D01*
D59*
X125062000Y47548000D02*
X123358000Y45844000D01*
D62*
X119707000Y31733000D02*
X119707000Y39433000D01*
D63*
X123358000Y45844000D02*
X123358000Y43684000D01*
D62*
X108904055Y25833000D02*
X111604055Y28533000D01*
D61*
X70079000Y16592000D02*
X64554732Y16592000D01*
X89839000Y16592000D02*
X74091000Y16592000D01*
D63*
X123358000Y43684000D02*
X120757000Y41083000D01*
D61*
X70007000Y13720000D02*
X70007000Y16520000D01*
X70007000Y16520000D02*
X70079000Y16592000D01*
D59*
X125062000Y50850000D02*
X125062000Y47560000D01*
D61*
X74007000Y13720000D02*
X74007000Y16508000D01*
D59*
X129007000Y50823000D02*
X128325000Y50823000D01*
D62*
X111604055Y28533000D02*
X116507000Y28533000D01*
D61*
X60756390Y15933000D02*
X42785000Y15933000D01*
D59*
X128325000Y50823000D02*
X125062000Y47560000D01*
D64*
X37589002Y16907001D02*
X41810999Y16907001D01*
D59*
X120757000Y41083000D02*
X120107000Y41083000D01*
D61*
X90007000Y16424000D02*
X89839000Y16592000D01*
D62*
X38908999Y10106999D02*
X41444000Y12642000D01*
D61*
X41444000Y40658000D02*
X28982412Y53119588D01*
D62*
X90007000Y16760000D02*
X94134000Y16760000D01*
X116507000Y28533000D02*
X119707000Y31733000D01*
D64*
X38908999Y10106999D02*
X37589002Y10106999D01*
D61*
X41444000Y17274000D02*
X41444000Y40658000D01*
D62*
X103207000Y25833000D02*
X108904055Y25833000D01*
D61*
X90007000Y13720000D02*
X90007000Y16424000D01*
X74091000Y16592000D02*
X70079000Y16592000D01*
X60756390Y15933000D02*
X64554732Y16592000D01*
D62*
X94134000Y16760000D02*
X103207000Y25833000D01*
X41444000Y12642000D02*
X41444000Y17274000D01*
D59*
X125062000Y47560000D02*
X125062000Y47548000D01*
G04 #@! TO.N,/OUT_LS2*
X85139829Y18743837D02*
X85139829Y18865829D01*
X102419994Y27733000D02*
X108117049Y27733000D01*
X96319994Y21633000D02*
X102419994Y27733000D01*
X114417050Y30433000D02*
X117107000Y33122950D01*
X85139829Y18865829D02*
X87907000Y21633000D01*
X87907000Y21633000D02*
X96319994Y21633000D01*
X119807000Y46933000D02*
X119807000Y45133000D01*
X117107000Y37033000D02*
X117811676Y37737676D01*
X117107000Y33122950D02*
X117107000Y37033000D01*
X110817049Y30433000D02*
X114417050Y30433000D01*
X108117049Y27733000D02*
X110817049Y30433000D01*
X119807000Y45133000D02*
X120307000Y44633000D01*
G04 #@! TO.N,/OUT_LS3*
X123358000Y50051000D02*
X123382000Y50075000D01*
X114707000Y29733000D02*
X117807000Y32833000D01*
X108406999Y27033000D02*
X111106999Y29733000D01*
X123358000Y49144000D02*
X123358000Y50051000D01*
X87207000Y19233000D02*
X94909944Y19233000D01*
X111106999Y29733000D02*
X114707000Y29733000D01*
X117807000Y32833000D02*
X117807000Y35933000D01*
X94909944Y19233000D02*
X102709944Y27033000D01*
X86957000Y18983000D02*
X87207000Y19233000D01*
X102709944Y27033000D02*
X108406999Y27033000D01*
G04 #@! TO.N,/OUT_LS_WEAK2*
X117225000Y69038500D02*
X117225000Y64231000D01*
X117864500Y69807000D02*
X117221000Y69163500D01*
X120219500Y69807000D02*
X117864500Y69807000D01*
D61*
G04 #@! TO.N,+12V*
X25525000Y60181000D02*
X25525000Y56591824D01*
X25525000Y56591824D02*
X25517588Y56584412D01*
X25517588Y52763412D02*
X25723588Y52557412D01*
X25517588Y56584412D02*
X25517588Y52763412D01*
D11*
G04 #@! TO.N,/CAN+*
X53907000Y4233000D02*
X22307000Y4233000D01*
X17507000Y38233000D02*
X16007000Y39733000D01*
X59707000Y12033000D02*
X55707000Y8033000D01*
X140520000Y25420000D02*
X140520000Y18586314D01*
X22307000Y4233000D02*
X17507000Y9033000D01*
X140520000Y18586314D02*
X138525686Y16592000D01*
X90307000Y12033000D02*
X59707000Y12033000D01*
X55707000Y6033000D02*
X53907000Y4233000D01*
X94007000Y13720000D02*
X92420000Y12133000D01*
X108096086Y22833000D02*
X112096086Y26833000D01*
X138525686Y16592000D02*
X138521200Y16592000D01*
X94007000Y13720000D02*
X103120000Y22833000D01*
X139107000Y26833000D02*
X140520000Y25420000D01*
X16007000Y39733000D02*
X9307000Y39733000D01*
X112096086Y26833000D02*
X139107000Y26833000D01*
X17507000Y9033000D02*
X17507000Y38233000D01*
X90407000Y12133000D02*
X90307000Y12033000D01*
X92420000Y12133000D02*
X90407000Y12133000D01*
X103120000Y22833000D02*
X108096086Y22833000D01*
G04 #@! TO.N,/CAN-*
X76394500Y4673186D02*
X76394500Y6387920D01*
X27497000Y3473000D02*
X27497000Y3487469D01*
X28097000Y3487469D02*
X28097000Y3473000D01*
X81818580Y7812000D02*
X86099000Y7812000D01*
X102307000Y11733000D02*
X90741314Y11733000D01*
X20196495Y5203378D02*
X20016557Y5023443D01*
X27137000Y3233000D02*
X27257000Y3233000D01*
X15289000Y39183000D02*
X16807000Y37665000D01*
X19263117Y6476168D02*
X19347969Y6391316D01*
X23537000Y3233000D02*
X23657000Y3233000D01*
X19168031Y5871969D02*
X18988094Y5692033D01*
X20260884Y4419243D02*
X20440820Y4599180D01*
X30737000Y3233000D02*
X30857000Y3233000D01*
X77339080Y7332500D02*
X81339080Y7332500D01*
X26897000Y3487451D02*
X26897000Y3473000D01*
X29537000Y3233000D02*
X29657000Y3233000D01*
X26537000Y3727451D02*
X26657000Y3727451D01*
X19412358Y5267769D02*
X19592294Y5447706D01*
X106607000Y20778228D02*
X106607000Y16033000D01*
X30497000Y3487451D02*
X30497000Y3473000D01*
X29297000Y3487451D02*
X29297000Y3473000D01*
X140120000Y25117918D02*
X139104918Y26133000D01*
X20440820Y4599180D02*
X20620755Y4779118D01*
X28697000Y3473000D02*
X28697000Y3487451D01*
X140120000Y18752000D02*
X140120000Y25117918D01*
X25097000Y3473000D02*
X25097000Y3487451D01*
X18913475Y6465936D02*
X18923705Y6476169D01*
X16807000Y8233000D02*
X18574063Y6465937D01*
X22937000Y3727451D02*
X23057000Y3727451D01*
X20865083Y4174917D02*
X20695377Y4005212D01*
X106607000Y16033000D02*
X102307000Y11733000D01*
X24137000Y3727469D02*
X24257000Y3727469D01*
X8323000Y37711200D02*
X8323000Y38649000D01*
X8323000Y38649000D02*
X8857000Y39183000D01*
X139104918Y26133000D02*
X111961772Y26133000D01*
X8857000Y39183000D02*
X15289000Y39183000D01*
X21459052Y3580949D02*
X21543904Y3496096D01*
X76394500Y6387920D02*
X77339080Y7332500D01*
X21543904Y3496096D02*
X21807000Y3233000D01*
X21109410Y3570717D02*
X21119641Y3580949D01*
X20960169Y4779116D02*
X21045021Y4694264D01*
X29897000Y3473000D02*
X29897000Y3487451D01*
X20111643Y5627642D02*
X20196495Y5542790D01*
X86099000Y7812000D02*
X88007000Y9720000D01*
X28337000Y3233000D02*
X28457000Y3233000D01*
X30857000Y3233000D02*
X31815990Y3233000D01*
X21045021Y4354852D02*
X20865083Y4174917D01*
X88728314Y9720000D02*
X88007000Y9720000D01*
X138521200Y17608000D02*
X138976000Y17608000D01*
X22697000Y3473000D02*
X22697000Y3487451D01*
X81339080Y7332500D02*
X81818580Y7812000D01*
X21807000Y3233000D02*
X22457000Y3233000D01*
X74954314Y3233000D02*
X76394500Y4673186D01*
X31815990Y3233000D02*
X74954314Y3233000D01*
X27737000Y3727469D02*
X27857000Y3727469D01*
X20685146Y3655569D02*
X20769998Y3570717D01*
X25337000Y3727451D02*
X25457000Y3727451D01*
X19592294Y5447706D02*
X19772229Y5627644D01*
X18988094Y5352621D02*
X19072946Y5267769D01*
X26297000Y3473000D02*
X26297000Y3487451D01*
X25937000Y3233000D02*
X26057000Y3233000D01*
X19836620Y4504095D02*
X19921472Y4419243D01*
X24737000Y3233000D02*
X24857000Y3233000D01*
X19337736Y6041674D02*
X19168031Y5871969D01*
X30137000Y3727451D02*
X30257000Y3727451D01*
X20016557Y5023443D02*
X19836620Y4843507D01*
X25697000Y3487451D02*
X25697000Y3473000D01*
X16807000Y37665000D02*
X16807000Y8233000D01*
X138976000Y17608000D02*
X140120000Y18752000D01*
X111961772Y26133000D02*
X106607000Y20778228D01*
X90741314Y11733000D02*
X88728314Y9720000D01*
X19347969Y6051904D02*
X19337736Y6041674D01*
X20695377Y4005212D02*
X20685146Y3994981D01*
X23897000Y3473000D02*
X23897000Y3487469D01*
X23297000Y3487451D02*
X23297000Y3473000D01*
X28937000Y3727451D02*
X29057000Y3727451D01*
X24497000Y3487469D02*
X24497000Y3473000D01*
X24857000Y3233000D02*
G75*
G03*
X25097000Y3473000I0J240000D01*
G01*
X19836620Y4843507D02*
G75*
G03*
X19836619Y4504094I169680J-169707D01*
G01*
X29297000Y3473000D02*
G75*
G03*
X29537000Y3233000I240000J0D01*
G01*
X21045021Y4694264D02*
G75*
G02*
X21044979Y4354894I-169721J-169664D01*
G01*
X18988094Y5692033D02*
G75*
G03*
X18988067Y5352594I169706J-169733D01*
G01*
X26057000Y3233000D02*
G75*
G03*
X26297000Y3473000I0J240000D01*
G01*
X26657000Y3727451D02*
G75*
G02*
X26896951Y3487451I0J-239951D01*
G01*
X21119641Y3580949D02*
G75*
G02*
X21459052Y3580950I169706J-169707D01*
G01*
X23297000Y3473000D02*
G75*
G03*
X23537000Y3233000I240000J0D01*
G01*
X24497000Y3473000D02*
G75*
G03*
X24737000Y3233000I240000J0D01*
G01*
X27497000Y3487469D02*
G75*
G02*
X27737000Y3727500I240000J31D01*
G01*
X18923705Y6476169D02*
G75*
G02*
X19263106Y6476158I169695J-169669D01*
G01*
X26297000Y3487451D02*
G75*
G02*
X26537000Y3727500I240000J49D01*
G01*
X19921472Y4419243D02*
G75*
G03*
X20260884Y4419243I169706J169704D01*
G01*
X29057000Y3727451D02*
G75*
G02*
X29296951Y3487451I0J-239951D01*
G01*
X20196495Y5542790D02*
G75*
G02*
X20196479Y5203394I-169695J-169690D01*
G01*
X24257000Y3727469D02*
G75*
G02*
X24496969Y3487469I0J-239969D01*
G01*
X23057000Y3727451D02*
G75*
G02*
X23296951Y3487451I0J-239951D01*
G01*
X30257000Y3727451D02*
G75*
G02*
X30496951Y3487451I0J-239951D01*
G01*
X25697000Y3473000D02*
G75*
G03*
X25937000Y3233000I240000J0D01*
G01*
X22457000Y3233000D02*
G75*
G03*
X22697000Y3473000I0J240000D01*
G01*
X27857000Y3727469D02*
G75*
G02*
X28096969Y3487469I0J-239969D01*
G01*
X25457000Y3727451D02*
G75*
G02*
X25696951Y3487451I0J-239951D01*
G01*
X30497000Y3473000D02*
G75*
G03*
X30737000Y3233000I240000J0D01*
G01*
X28457000Y3233000D02*
G75*
G03*
X28697000Y3473000I0J240000D01*
G01*
X25097000Y3487451D02*
G75*
G02*
X25337000Y3727500I240000J49D01*
G01*
X27257000Y3233000D02*
G75*
G03*
X27497000Y3473000I0J240000D01*
G01*
X28697000Y3487451D02*
G75*
G02*
X28937000Y3727500I240000J49D01*
G01*
X29897000Y3487451D02*
G75*
G02*
X30137000Y3727500I240000J49D01*
G01*
X23657000Y3233000D02*
G75*
G03*
X23897000Y3473000I0J240000D01*
G01*
X20769998Y3570717D02*
G75*
G03*
X21109410Y3570717I169706J169704D01*
G01*
X19347969Y6391316D02*
G75*
G02*
X19347979Y6051894I-169669J-169716D01*
G01*
X22697000Y3487451D02*
G75*
G02*
X22937000Y3727500I240000J49D01*
G01*
X18574063Y6465937D02*
G75*
G03*
X18913506Y6465905I169737J169663D01*
G01*
X20620755Y4779118D02*
G75*
G02*
X20960208Y4779155I169745J-169718D01*
G01*
X19072946Y5267769D02*
G75*
G03*
X19412358Y5267769I169706J169704D01*
G01*
X23897000Y3487469D02*
G75*
G02*
X24137000Y3727500I240000J31D01*
G01*
X29657000Y3233000D02*
G75*
G03*
X29897000Y3473000I0J240000D01*
G01*
X20685146Y3994981D02*
G75*
G03*
X20685171Y3655594I169754J-169681D01*
G01*
X28097000Y3473000D02*
G75*
G03*
X28337000Y3233000I240000J0D01*
G01*
X19772229Y5627644D02*
G75*
G02*
X20111608Y5627607I169671J-169744D01*
G01*
X26897000Y3473000D02*
G75*
G03*
X27137000Y3233000I240000J0D01*
G01*
G04 #@! TO.N,/WBO_Rtrim*
X89819000Y7933000D02*
X87606000Y5720000D01*
X108407000Y19533000D02*
X108407000Y12533000D01*
X97909771Y6933000D02*
X96909771Y7933000D01*
X110836000Y21962000D02*
X108407000Y19533000D01*
X87606000Y5720000D02*
X86007000Y5720000D01*
X96909771Y7933000D02*
X89819000Y7933000D01*
X111930000Y21962000D02*
X110836000Y21962000D01*
X108407000Y12533000D02*
X102807000Y6933000D01*
X102807000Y6933000D02*
X97909771Y6933000D01*
G04 #@! TO.N,/WBO_Vm*
X109807000Y11033000D02*
X104494000Y5720000D01*
X111930000Y19962000D02*
X111036000Y19962000D01*
X104494000Y5720000D02*
X94007000Y5720000D01*
X111036000Y19962000D02*
X109807000Y18733000D01*
X109807000Y18733000D02*
X109807000Y11033000D01*
G04 #@! TO.N,/WBO_Ip*
X96320000Y6120000D02*
X94907000Y7533000D01*
X103328314Y6120000D02*
X96320000Y6120000D01*
X109007000Y19133000D02*
X109007000Y11798686D01*
X91820000Y7533000D02*
X90007000Y5720000D01*
X111914314Y20962000D02*
X110836000Y20962000D01*
X94907000Y7533000D02*
X91820000Y7533000D01*
X109007000Y11798686D02*
X103328314Y6120000D01*
X110836000Y20962000D02*
X109007000Y19133000D01*
G04 #@! TO.N,/WBO_Un*
X111930000Y22962000D02*
X110436000Y22962000D01*
X107607000Y20133000D02*
X107607000Y14633000D01*
X83699000Y7412000D02*
X82007000Y5720000D01*
X104306500Y11332500D02*
X90906500Y11332500D01*
X107607000Y14633000D02*
X104306500Y11332500D01*
X88345000Y7412000D02*
X83699000Y7412000D01*
X90906500Y11332500D02*
X90007000Y10433000D01*
X110436000Y22962000D02*
X107607000Y20133000D01*
X90007000Y10433000D02*
X90007000Y9074000D01*
X90007000Y9074000D02*
X88345000Y7412000D01*
G04 #@! TO.N,/VIGN*
X20007000Y8630058D02*
X20007000Y16774996D01*
X20007000Y16774996D02*
X22089005Y18857001D01*
X44207000Y20833000D02*
X44207000Y27898686D01*
X40807000Y8033000D02*
X20604058Y8033000D01*
X46242736Y41772990D02*
X46667000Y41772990D01*
X45057000Y28748686D02*
X45057000Y40587254D01*
X45057000Y40587254D02*
X46242736Y41772990D01*
X44207000Y27898686D02*
X45057000Y28748686D01*
X20604058Y8033000D02*
X20007000Y8630058D01*
X44307000Y12933000D02*
X44307000Y11533000D01*
X44307000Y11533000D02*
X40807000Y8033000D01*
X44307000Y20733000D02*
X44207000Y20833000D01*
D59*
G04 #@! TO.N,+5VP*
X36907000Y36633000D02*
X36907000Y35433000D01*
X39607000Y29933000D02*
X38630999Y28956999D01*
X31225000Y60181000D02*
X29273000Y62133000D01*
X39607000Y32733000D02*
X39607000Y29933000D01*
X23207000Y62133000D02*
X22407000Y61333000D01*
X22407000Y61333000D02*
X22407000Y51133000D01*
X29273000Y62133000D02*
X23207000Y62133000D01*
X38630999Y28956999D02*
X37589002Y28956999D01*
X36907000Y35433000D02*
X39607000Y32733000D01*
X22407000Y51133000D02*
X36907000Y36633000D01*
D11*
G04 #@! TO.N,/LS2*
X46507000Y57033000D02*
X49507000Y57033000D01*
X49507000Y57033000D02*
X51607000Y59133000D01*
X51607000Y65933000D02*
X52707000Y67033000D01*
X44207000Y54733000D02*
X46507000Y57033000D01*
X44207000Y47433000D02*
X44207000Y54733000D01*
X106607000Y67033000D02*
X107307000Y66333000D01*
X51607000Y59133000D02*
X51607000Y65933000D01*
X52707000Y67033000D02*
X106607000Y67033000D01*
G04 #@! TO.N,/LS1*
X42107000Y49983000D02*
X42107000Y56533000D01*
X41507000Y47233000D02*
X41507000Y49383000D01*
X41507000Y49383000D02*
X42107000Y49983000D01*
X143807000Y47533000D02*
X143207000Y48133000D01*
X143207000Y48133000D02*
X126954000Y48133000D01*
X147707000Y47533000D02*
X143807000Y47533000D01*
X49007000Y73633000D02*
X145407000Y73633000D01*
X154907000Y64133000D02*
X154907000Y54733000D01*
X40307000Y58333000D02*
X40307000Y65433000D01*
X154907000Y54733000D02*
X147707000Y47533000D01*
X145407000Y73633000D02*
X154907000Y64133000D01*
X40307000Y65433000D02*
X41707000Y66833000D01*
X45884818Y66833000D02*
X47107000Y68055182D01*
X42107000Y56533000D02*
X40307000Y58333000D01*
X41707000Y66833000D02*
X45884818Y66833000D01*
X47107000Y68055182D02*
X47107000Y71733000D01*
X47107000Y71733000D02*
X49007000Y73633000D01*
G04 #@! TO.N,/LS3*
X44907000Y28033000D02*
X45457000Y28583000D01*
X45457000Y30183000D02*
X46046990Y30772990D01*
X51507000Y18533000D02*
X46007000Y18533000D01*
X46007000Y18533000D02*
X44907000Y19633000D01*
X44907000Y19633000D02*
X44907000Y28033000D01*
X87407000Y24333000D02*
X88407000Y24333000D01*
X45457000Y28583000D02*
X45457000Y30183000D01*
X81907000Y18833000D02*
X87407000Y24333000D01*
X46046990Y30772990D02*
X46667000Y30772990D01*
G04 #@! TO.N,/LS4*
X43707000Y30673000D02*
X43707000Y43164372D01*
X43207000Y55733000D02*
X44607000Y57133000D01*
X48107000Y67733000D02*
X48107000Y71733000D01*
X48107000Y71733000D02*
X49207000Y72833000D01*
X43707000Y43164372D02*
X43207000Y43664372D01*
X44607000Y57133000D02*
X44607000Y64233000D01*
X44607000Y64233000D02*
X48107000Y67733000D01*
X149707000Y67433000D02*
X149707000Y52814063D01*
X44167000Y30213000D02*
X43707000Y30673000D01*
X49207000Y72833000D02*
X144307000Y72833000D01*
X144307000Y72833000D02*
X149707000Y67433000D01*
X43207000Y43664372D02*
X43207000Y55733000D01*
G04 #@! TO.N,/VR1*
X18507000Y66533000D02*
X17707000Y65733000D01*
X33807000Y52498686D02*
X33807000Y65533000D01*
X63867010Y19573000D02*
X63867010Y19148736D01*
X6407000Y62833000D02*
X6707000Y62533000D01*
X17707000Y65733000D02*
X17707000Y63133000D01*
X6407000Y65233000D02*
X6407000Y62833000D01*
X32807000Y66533000D02*
X18507000Y66533000D01*
X33807000Y65533000D02*
X32807000Y66533000D01*
X10507000Y53933000D02*
X12707000Y51733000D01*
X9407000Y66133000D02*
X7307000Y66133000D01*
X45507000Y17833000D02*
X43307000Y20033000D01*
X7307000Y66133000D02*
X6407000Y65233000D01*
X62716793Y17998519D02*
X61762776Y17833000D01*
X61762776Y17833000D02*
X45507000Y17833000D01*
X17007000Y62433000D02*
X13107000Y62433000D01*
X43307000Y20033000D02*
X43307000Y42998686D01*
X43307000Y42998686D02*
X33807000Y52498686D01*
X13107000Y62433000D02*
X9407000Y66133000D01*
X6707000Y62533000D02*
X8907000Y62533000D01*
X63867010Y19148736D02*
X62716793Y17998519D01*
X10507000Y60933000D02*
X10507000Y53933000D01*
X8907000Y62533000D02*
X10507000Y60933000D01*
X17707000Y63133000D02*
X17007000Y62433000D01*
G04 #@! TO.N,/VR2*
X28007000Y54933000D02*
X31807000Y54933000D01*
X37807000Y36533000D02*
X37807000Y37501466D01*
X61797214Y17433000D02*
X62910030Y17626070D01*
X32807000Y52033000D02*
X42907000Y41933000D01*
X45307000Y17433000D02*
X61797214Y17433000D01*
X42907000Y41933000D02*
X42907000Y19833000D01*
X62910030Y17626070D02*
X64667010Y19383050D01*
X27023588Y53949588D02*
X28007000Y54933000D01*
X64667010Y19383050D02*
X64667010Y19573000D01*
X27023588Y48284878D02*
X27023588Y53949588D01*
X31807000Y54933000D02*
X32807000Y53933000D01*
X42907000Y19833000D02*
X45307000Y17433000D01*
X37807000Y37501466D02*
X27023588Y48284878D01*
X32807000Y53933000D02*
X32807000Y52033000D01*
G04 #@! TO.N,Net-(M6-UART2_TX_(PD5))*
X140907000Y11533000D02*
X137307000Y7933000D01*
X142007000Y11533000D02*
X140907000Y11533000D01*
X134330063Y1633000D02*
X134248063Y1551000D01*
X43307000Y5833000D02*
X51357000Y13883000D01*
X135507000Y1633000D02*
X134330063Y1633000D01*
X137307000Y7933000D02*
X137307000Y3433000D01*
X131261937Y1133000D02*
X40607000Y1133000D01*
X142729000Y19955000D02*
X142729000Y12255000D01*
X134248063Y1551000D02*
X131679937Y1551000D01*
X137307000Y3433000D02*
X135507000Y1633000D01*
X131679937Y1551000D02*
X131261937Y1133000D01*
X40607000Y1133000D02*
X40107000Y1633000D01*
X142729000Y12255000D02*
X142007000Y11533000D01*
G04 #@! TO.N,/IN_BUTTON3*
X5507000Y40633000D02*
X16607000Y40633000D01*
X8007000Y55233000D02*
X8007000Y50133000D01*
X16607000Y40633000D02*
X18207000Y39033000D01*
X5107000Y41033000D02*
X5507000Y40633000D01*
X18207000Y9298686D02*
X22672686Y4833000D01*
X51982000Y4833000D02*
X54082000Y6933000D01*
X3007000Y60233000D02*
X8007000Y55233000D01*
X8007000Y50133000D02*
X5107000Y47233000D01*
X43707000Y68033000D02*
X5207000Y68033000D01*
X18207000Y39033000D02*
X18207000Y9298686D01*
X5207000Y68033000D02*
X3007000Y65833000D01*
X64607000Y7833000D02*
X70120000Y7833000D01*
X3007000Y65833000D02*
X3007000Y60233000D01*
X22672686Y4833000D02*
X51982000Y4833000D01*
X5107000Y47233000D02*
X5107000Y41033000D01*
X54082000Y6933000D02*
X63707000Y6933000D01*
X63707000Y6933000D02*
X64607000Y7833000D01*
X70120000Y7833000D02*
X72007000Y9720000D01*
G04 #@! TO.N,/IN_AUX2*
X64067000Y55693000D02*
X64067000Y54973000D01*
X87598683Y29073397D02*
X85207000Y26681714D01*
X85207000Y26681714D02*
X85207000Y23733000D01*
X81107000Y61733000D02*
X70107000Y61733000D01*
X70107000Y61733000D02*
X64067000Y55693000D01*
X81707000Y61133000D02*
X81107000Y61733000D01*
G04 #@! TO.N,/IN_AUX1*
X83807000Y27333000D02*
X86025052Y29551052D01*
X80707000Y60833000D02*
X71127000Y60833000D01*
X86025052Y29551052D02*
X86025052Y30286597D01*
X71127000Y60833000D02*
X65267000Y54973000D01*
X83807000Y24833000D02*
X83807000Y27333000D01*
X81757000Y59783000D02*
X80707000Y60833000D01*
G04 #@! TO.N,/IN_BUTTON1*
X50507000Y71533000D02*
X50207000Y71833000D01*
X50807000Y61733000D02*
X50507000Y62033000D01*
X50507000Y62033000D02*
X50507000Y71533000D01*
G04 #@! TO.N,/IN_FLEX*
X81757000Y58483000D02*
X74357000Y58483000D01*
X74357000Y58483000D02*
X72467000Y56593000D01*
X82807000Y23333000D02*
X82807000Y27933000D01*
X84631652Y29757652D02*
X84631652Y31408347D01*
X82807000Y27933000D02*
X84631652Y29757652D01*
X72467000Y56593000D02*
X72467000Y54973000D01*
G04 #@! TO.N,/LS_WEAK2*
X114107000Y60331058D02*
X116208942Y62433000D01*
X93207000Y46633000D02*
X101307000Y56533000D01*
X80067010Y40773000D02*
X80907000Y40933000D01*
X124742072Y70607000D02*
X122094500Y70757000D01*
X101907000Y56833000D02*
X108607000Y57933000D01*
X116208942Y62433000D02*
X118141314Y62433000D01*
X108607000Y57933000D02*
X113041314Y57933000D01*
X127207000Y69498686D02*
X127207000Y69933000D01*
X125091314Y67383000D02*
X127207000Y69498686D01*
X127207000Y69933000D02*
X126533000Y70607000D01*
X118141314Y62433000D02*
X119857000Y64148686D01*
X121332496Y67383000D02*
X125091314Y67383000D01*
X119857000Y65907504D02*
X121332496Y67383000D01*
X80907000Y40933000D02*
X93207000Y46633000D01*
X113041314Y57933000D02*
X114107000Y58998686D01*
X119857000Y64148686D02*
X119857000Y65907504D01*
X114107000Y58998686D02*
X114107000Y60331058D01*
X101307000Y56533000D02*
X101907000Y56833000D01*
X126533000Y70607000D02*
X124742072Y70607000D01*
G04 #@! TO.N,/LS_WEAK1*
X120257000Y65741818D02*
X121498182Y66983000D01*
X116374628Y62033000D02*
X118307000Y62033000D01*
X121498182Y66983000D02*
X125257000Y66983000D01*
X125257000Y66983000D02*
X127607000Y69333000D01*
X118307000Y62033000D02*
X120257000Y63983000D01*
X108907000Y57433000D02*
X113107000Y57433000D01*
X135188000Y72133000D02*
X137307000Y70014000D01*
X101907000Y56333000D02*
X93807000Y46233000D01*
X135406500Y70014000D02*
X137307000Y70014000D01*
X113107000Y57433000D02*
X114507000Y58833000D01*
X127607000Y69333000D02*
X127607000Y71179276D01*
X93807000Y46233000D02*
X80067010Y39772990D01*
X114507000Y58833000D02*
X114507000Y60165372D01*
X120257000Y63983000D02*
X120257000Y65741818D01*
X127607000Y71179276D02*
X128560724Y72133000D01*
X137307000Y70014000D02*
X139194000Y70014000D01*
X114507000Y60165372D02*
X116374628Y62033000D01*
X108907000Y57433000D02*
X101907000Y56333000D01*
X128560724Y72133000D02*
X135188000Y72133000D01*
D61*
G04 #@! TO.N,/IGNOUT1*
X108962072Y52888072D02*
X109913642Y52105479D01*
X106448637Y54955178D02*
X108962072Y52888072D01*
G04 #@! TO.N,/IGNOUT2*
X93020000Y41026000D02*
X94500000Y38656000D01*
G04 #@! TO.N,/IGNOUT3*
X104249000Y45742000D02*
X106570000Y42428000D01*
G04 #@! TO.N,/IGNOUT4*
X92301000Y54572000D02*
X93900000Y51536000D01*
D11*
G04 #@! TO.N,/WBO2_Rtrim*
X3969000Y11120000D02*
X5256000Y9833000D01*
X5256000Y9833000D02*
X7246000Y9833000D01*
X7246000Y9833000D02*
X14246000Y2833000D01*
X75120000Y2833000D02*
X78007000Y5720000D01*
X14246000Y2833000D02*
X75120000Y2833000D01*
D59*
G04 #@! TO.N,Net-(JP1-A)*
X140831000Y13312000D02*
X138521200Y13312000D01*
D65*
G04 #@! TO.N,/Low Side/+12V_RAW*
X114207000Y65528000D02*
X115643000Y66964000D01*
X114207000Y64633000D02*
X114207000Y65528000D01*
D11*
G04 #@! TO.N,Net-(IC2-VIN)*
X33607000Y37258940D02*
X33607000Y35608000D01*
G04 #@! TO.N,Net-(IC2A1-VIN)*
X12687820Y42270360D02*
X12687820Y43560140D01*
X12703600Y43575920D02*
X12703600Y47807260D01*
X12687820Y43560140D02*
X12703600Y43575920D01*
G04 #@! TO.N,/LM1815-Crank/Signal+*
X35286740Y36387720D02*
X35261340Y36413120D01*
X35261340Y36413120D02*
X33865520Y37808940D01*
X29861860Y37808940D02*
X12207680Y55463120D01*
X33865520Y37808940D02*
X29861860Y37808940D01*
X35286740Y35417740D02*
X35286740Y36387720D01*
X12207680Y55463120D02*
X11801900Y55463120D01*
G04 #@! TO.N,/LM1815-Cam/Signal+*
X11667820Y42270360D02*
X10930180Y43008000D01*
X8107000Y43008000D02*
X8107000Y44978800D01*
X8738120Y45609920D02*
X8738120Y56712800D01*
X8107000Y44978800D02*
X8738120Y45609920D01*
X10930180Y43008000D02*
X8107000Y43008000D01*
G04 #@! TO.N,/Clutch{slash}kickstandswitch*
X45707000Y67433000D02*
X45657000Y67483000D01*
X45657000Y67483000D02*
X17327000Y67483000D01*
X17327000Y67483000D02*
X14125000Y64281000D01*
G04 #@! TO.N,/PG_5VP*
X19107000Y8964372D02*
X19107000Y24833000D01*
X48707000Y13933000D02*
X48707000Y13133000D01*
X48707000Y13133000D02*
X43207000Y7633000D01*
X43207000Y7633000D02*
X20438372Y7633000D01*
X20438372Y7633000D02*
X19107000Y8964372D01*
G04 #@! TD*
G04 #@! TA.AperFunction,Conductor*
G04 #@! TO.N,GND*
G36*
X111351308Y19325561D02*
G01*
X111380861Y19309697D01*
X111398254Y19297060D01*
X111502407Y19221388D01*
X111506430Y19219597D01*
X111559668Y19174351D01*
X111579994Y19107503D01*
X111580000Y19106315D01*
X111580000Y10712000D01*
X138905000Y10712000D01*
X138905000Y11476390D01*
X138924685Y11543429D01*
X138956111Y11576706D01*
X139093430Y11676474D01*
X139213059Y11809335D01*
X139302450Y11964165D01*
X139357697Y12134197D01*
X139376385Y12312000D01*
X139364556Y12424541D01*
X139377125Y12493268D01*
X139424857Y12544292D01*
X139487877Y12561500D01*
X139514458Y12561500D01*
X139581497Y12541815D01*
X139627252Y12489011D01*
X139630640Y12480833D01*
X139676202Y12358672D01*
X139676203Y12358670D01*
X139682267Y12350570D01*
X139706684Y12285106D01*
X139707000Y12276259D01*
X139707000Y11233597D01*
X139687315Y11166558D01*
X139670681Y11145916D01*
X139116681Y10591916D01*
X139055358Y10558431D01*
X139054717Y10558477D01*
X139031116Y10506797D01*
X139025084Y10500319D01*
X137994084Y9469319D01*
X137932761Y9435834D01*
X137906403Y9433000D01*
X110631000Y9433000D01*
X110563961Y9452685D01*
X110518206Y9505489D01*
X110507000Y9557000D01*
X110507000Y18532403D01*
X110526685Y18599442D01*
X110543319Y18620084D01*
X110878265Y18955030D01*
X111220296Y19297062D01*
X111281617Y19330545D01*
X111351308Y19325561D01*
G37*
G04 #@! TD.AperFunction*
G04 #@! TA.AperFunction,Conductor*
G36*
X139626334Y16740900D02*
G01*
X139682268Y16699028D01*
X139706684Y16633563D01*
X139707000Y16624718D01*
X139707000Y16505534D01*
X139696931Y16460110D01*
X139697945Y16459740D01*
X139696096Y16454664D01*
X139634938Y16226414D01*
X139634936Y16226404D01*
X139614341Y15991001D01*
X139614341Y15991000D01*
X139634936Y15755597D01*
X139634938Y15755587D01*
X139696096Y15527338D01*
X139697948Y15522251D01*
X139696930Y15521881D01*
X139707000Y15476465D01*
X139707000Y14625741D01*
X139687315Y14558702D01*
X139682269Y14551433D01*
X139676203Y14543330D01*
X139676202Y14543329D01*
X139625908Y14408484D01*
X139619291Y14346936D01*
X139592552Y14282385D01*
X139535159Y14242538D01*
X139465334Y14240045D01*
X139405246Y14275698D01*
X139373972Y14338178D01*
X139372684Y14347207D01*
X139357697Y14489803D01*
X139302450Y14659835D01*
X139213059Y14814665D01*
X139166203Y14866704D01*
X139093435Y14947522D01*
X139093432Y14947524D01*
X139093431Y14947525D01*
X139093430Y14947526D01*
X138956114Y15047293D01*
X138913449Y15102624D01*
X138905000Y15147611D01*
X138905000Y15756390D01*
X138924685Y15823429D01*
X138956111Y15856706D01*
X139093430Y15956474D01*
X139213059Y16089335D01*
X139302450Y16244165D01*
X139357697Y16414197D01*
X139371967Y16549971D01*
X139398550Y16614582D01*
X139407588Y16624669D01*
X139495321Y16712402D01*
X139556643Y16745884D01*
X139626334Y16740900D01*
G37*
G04 #@! TD.AperFunction*
G04 #@! TA.AperFunction,Conductor*
G36*
X138871860Y25512815D02*
G01*
X138892502Y25496181D01*
X139483181Y24905502D01*
X139516666Y24844179D01*
X139519500Y24817821D01*
X139519500Y19052097D01*
X139499815Y18985058D01*
X139483181Y18964416D01*
X139116681Y18597916D01*
X139055358Y18564431D01*
X138985666Y18569415D01*
X138929733Y18611287D01*
X138905316Y18676751D01*
X138905000Y18685597D01*
X138905000Y24412000D01*
X111580000Y24437000D01*
X111580000Y23817685D01*
X111560315Y23750646D01*
X111507511Y23704891D01*
X111506438Y23704407D01*
X111502410Y23702614D01*
X111357772Y23597528D01*
X111354245Y23594351D01*
X111291253Y23564121D01*
X111271271Y23562500D01*
X110631000Y23562500D01*
X110563961Y23582185D01*
X110518206Y23634989D01*
X110507000Y23686500D01*
X110507000Y23777632D01*
X110526685Y23844671D01*
X110543319Y23865313D01*
X111246938Y24568931D01*
X112174188Y25496181D01*
X112235511Y25529666D01*
X112261869Y25532500D01*
X138804821Y25532500D01*
X138871860Y25512815D01*
G37*
G04 #@! TD.AperFunction*
G04 #@! TD*
G04 #@! TA.AperFunction,Conductor*
G04 #@! TO.N,GND*
G36*
X20812703Y10406566D02*
G01*
X20850477Y10347788D01*
X20851309Y10344230D01*
X20851397Y10344253D01*
X20909427Y10127679D01*
X20909429Y10127675D01*
X20909430Y10127671D01*
X20955666Y10028517D01*
X21001902Y9929363D01*
X21001903Y9929362D01*
X21127407Y9750124D01*
X21282128Y9595403D01*
X21384175Y9523949D01*
X21386121Y9522587D01*
X21402035Y9502677D01*
X21402679Y9503320D01*
X21438998Y9467001D01*
X21440091Y9467001D01*
X21492495Y9455384D01*
X21659675Y9377426D01*
X21871028Y9320794D01*
X22053931Y9304793D01*
X22089003Y9301724D01*
X22089005Y9301724D01*
X22089007Y9301724D01*
X22117259Y9304196D01*
X22306982Y9320794D01*
X22518335Y9377426D01*
X22685514Y9455384D01*
X22737919Y9467001D01*
X36446003Y9467001D01*
X36513042Y9447316D01*
X36547578Y9414125D01*
X36627404Y9300122D01*
X36782125Y9145401D01*
X36961363Y9019897D01*
X37159672Y8927424D01*
X37159678Y8927423D01*
X37159679Y8927422D01*
X37346830Y8877275D01*
X37406491Y8840910D01*
X37437020Y8778063D01*
X37428725Y8708687D01*
X37384240Y8654810D01*
X37317688Y8633535D01*
X37314737Y8633500D01*
X20904156Y8633500D01*
X20837117Y8653185D01*
X20816475Y8669819D01*
X20643819Y8842475D01*
X20610334Y8903798D01*
X20607500Y8930156D01*
X20607500Y10312853D01*
X20627185Y10379892D01*
X20679989Y10425647D01*
X20749147Y10435591D01*
X20812703Y10406566D01*
G37*
G04 #@! TD.AperFunction*
G04 #@! TA.AperFunction,Conductor*
G36*
X20825068Y16641316D02*
G01*
X20881001Y16599444D01*
X20901509Y16557229D01*
X20909430Y16527668D01*
X20934036Y16474900D01*
X21001902Y16329360D01*
X21001903Y16329359D01*
X21127407Y16150121D01*
X21282128Y15995400D01*
X21354178Y15944950D01*
X21386121Y15922584D01*
X21429746Y15868008D01*
X21438998Y15821009D01*
X21438998Y11692992D01*
X21419313Y11625953D01*
X21386123Y11591418D01*
X21282128Y11518599D01*
X21127405Y11363877D01*
X21001905Y11184644D01*
X21001903Y11184640D01*
X20909431Y10986333D01*
X20909427Y10986324D01*
X20851397Y10769749D01*
X20849037Y10770382D01*
X20822592Y10717017D01*
X20762645Y10681125D01*
X20692811Y10683340D01*
X20635260Y10722959D01*
X20608264Y10787403D01*
X20607500Y10801150D01*
X20607500Y16474900D01*
X20627185Y16541939D01*
X20643815Y16562577D01*
X20694054Y16612816D01*
X20755376Y16646300D01*
X20825068Y16641316D01*
G37*
G04 #@! TD.AperFunction*
G04 #@! TA.AperFunction,Conductor*
G36*
X39450039Y15886816D02*
G01*
X39495794Y15834012D01*
X39507000Y15782501D01*
X39507000Y12524838D01*
X39487315Y12457799D01*
X39470681Y12437157D01*
X39044077Y12010554D01*
X38982754Y11977069D01*
X38913062Y11982053D01*
X38857129Y12023925D01*
X38832868Y12087428D01*
X38825209Y12174975D01*
X38768577Y12386328D01*
X38676104Y12584636D01*
X38676102Y12584639D01*
X38676101Y12584641D01*
X38550601Y12763874D01*
X38550600Y12763875D01*
X38395879Y12918596D01*
X38395874Y12918599D01*
X38395871Y12918602D01*
X38291877Y12991421D01*
X38248252Y13045998D01*
X38239001Y13092995D01*
X38239001Y15771006D01*
X38258686Y15838045D01*
X38291877Y15872581D01*
X38308296Y15884078D01*
X38374502Y15906404D01*
X38379418Y15906501D01*
X39383000Y15906501D01*
X39450039Y15886816D01*
G37*
G04 #@! TD.AperFunction*
G04 #@! TA.AperFunction,Conductor*
G36*
X39426333Y28588452D02*
G01*
X39482267Y28546581D01*
X39506684Y28481116D01*
X39507000Y28472270D01*
X39507000Y18031501D01*
X39487315Y17964462D01*
X39434511Y17918707D01*
X39383000Y17907501D01*
X38379418Y17907501D01*
X38312379Y17927186D01*
X38308292Y17929928D01*
X38291875Y17941424D01*
X38248251Y17996002D01*
X38239001Y18042997D01*
X38239001Y27821004D01*
X38258686Y27888043D01*
X38291878Y27922579D01*
X38395879Y27995401D01*
X38550600Y28150122D01*
X38553052Y28153625D01*
X38607630Y28197248D01*
X38654626Y28206499D01*
X38704919Y28206499D01*
X38802461Y28225903D01*
X38849912Y28235341D01*
X38986494Y28291915D01*
X39042535Y28329360D01*
X39109415Y28374047D01*
X39295319Y28559951D01*
X39356642Y28593436D01*
X39426333Y28588452D01*
G37*
G04 #@! TD.AperFunction*
G04 #@! TA.AperFunction,Conductor*
G36*
X38799539Y31013315D02*
G01*
X38845294Y30960511D01*
X38856500Y30909000D01*
X38856500Y30295230D01*
X38836815Y30228191D01*
X38820181Y30207549D01*
X38549060Y29936429D01*
X38487737Y29902944D01*
X38418045Y29907928D01*
X38390255Y29922536D01*
X38291877Y29991422D01*
X38248252Y30045999D01*
X38247822Y30048180D01*
X38239001Y30057001D01*
X38216467Y30057001D01*
X38164062Y30068619D01*
X38018332Y30136574D01*
X38018328Y30136575D01*
X38018324Y30136577D01*
X37806979Y30193206D01*
X37589004Y30212276D01*
X37589000Y30212276D01*
X37443684Y30199563D01*
X37371025Y30193206D01*
X37371022Y30193206D01*
X37159679Y30136577D01*
X37159670Y30136573D01*
X37013943Y30068619D01*
X36961538Y30057001D01*
X21438998Y30057001D01*
X21438998Y27423088D01*
X21419313Y27356049D01*
X21366509Y27310294D01*
X21355953Y27306047D01*
X21289485Y27282789D01*
X21289481Y27282787D01*
X21136743Y27186815D01*
X21009190Y27059262D01*
X20913217Y26906523D01*
X20853637Y26736254D01*
X20853636Y26736249D01*
X20833441Y26557003D01*
X20833441Y26556996D01*
X20853636Y26377750D01*
X20853637Y26377745D01*
X20913217Y26207476D01*
X20966315Y26122971D01*
X20985315Y26055734D01*
X20966315Y25991028D01*
X20913219Y25906526D01*
X20913215Y25906517D01*
X20853639Y25736261D01*
X20853636Y25736248D01*
X20833441Y25557002D01*
X20833441Y25556995D01*
X20853636Y25377749D01*
X20853637Y25377744D01*
X20913217Y25207475D01*
X21009190Y25054736D01*
X21136744Y24927182D01*
X21289484Y24831209D01*
X21355952Y24807951D01*
X21412728Y24767229D01*
X21438476Y24702276D01*
X21438998Y24690909D01*
X21438998Y24292992D01*
X21419313Y24225953D01*
X21386123Y24191418D01*
X21282128Y24118599D01*
X21127405Y23963877D01*
X21001905Y23784644D01*
X21001903Y23784640D01*
X20909431Y23586333D01*
X20909427Y23586324D01*
X20852798Y23374981D01*
X20852798Y23374977D01*
X20833728Y23157004D01*
X20833728Y23156999D01*
X20852798Y22939026D01*
X20852798Y22939022D01*
X20909427Y22727679D01*
X20909429Y22727675D01*
X20909430Y22727671D01*
X20955666Y22628517D01*
X21001902Y22529363D01*
X21001903Y22529362D01*
X21127407Y22350124D01*
X21282128Y22195403D01*
X21282129Y22195402D01*
X21386121Y22122587D01*
X21429746Y22068011D01*
X21438998Y22021012D01*
X21438998Y19992992D01*
X21419313Y19925953D01*
X21386123Y19891418D01*
X21282128Y19818599D01*
X21127405Y19663877D01*
X21001905Y19484644D01*
X21001903Y19484640D01*
X20909431Y19286333D01*
X20909427Y19286324D01*
X20852798Y19074981D01*
X20852798Y19074977D01*
X20833728Y18857004D01*
X20833728Y18856999D01*
X20852798Y18639026D01*
X20852798Y18639022D01*
X20869981Y18574895D01*
X20868318Y18505045D01*
X20837887Y18455121D01*
X20718680Y18335913D01*
X20657359Y18302429D01*
X20587667Y18307413D01*
X20531733Y18349284D01*
X20507316Y18414748D01*
X20507000Y18423595D01*
X20507000Y30909000D01*
X20526685Y30976039D01*
X20579489Y31021794D01*
X20631000Y31033000D01*
X38732500Y31033000D01*
X38799539Y31013315D01*
G37*
G04 #@! TD.AperFunction*
G04 #@! TD*
G04 #@! TA.AperFunction,Conductor*
G04 #@! TO.N,GND*
G36*
X81350039Y34152815D02*
G01*
X81395794Y34100011D01*
X81407000Y34048500D01*
X81407000Y19445729D01*
X81387315Y19378690D01*
X81370681Y19358048D01*
X81316523Y19303891D01*
X81316518Y19303885D01*
X81226547Y19160698D01*
X81226545Y19160695D01*
X81170685Y19001057D01*
X81151751Y18833003D01*
X81151751Y18832998D01*
X81170685Y18664944D01*
X81226545Y18505306D01*
X81226547Y18505303D01*
X81316518Y18362116D01*
X81316523Y18362110D01*
X81370681Y18307952D01*
X81404166Y18246629D01*
X81407000Y18220271D01*
X81407000Y18216500D01*
X81387315Y18149461D01*
X81334511Y18103706D01*
X81283000Y18092500D01*
X65377626Y18092500D01*
X65310587Y18112185D01*
X65264832Y18164989D01*
X65254406Y18202616D01*
X65243314Y18301056D01*
X65196970Y18433500D01*
X65187456Y18460690D01*
X65187455Y18460691D01*
X65187454Y18460695D01*
X65187452Y18460698D01*
X65097481Y18603885D01*
X65097476Y18603891D01*
X65026762Y18674605D01*
X64993277Y18735928D01*
X64998261Y18805620D01*
X65040133Y18861553D01*
X65048464Y18867276D01*
X65169272Y18943184D01*
X65296826Y19070738D01*
X65392799Y19223478D01*
X65416057Y19289946D01*
X65456778Y19346721D01*
X65521731Y19372468D01*
X65533098Y19372990D01*
X68100922Y19372990D01*
X68167961Y19353305D01*
X68213716Y19300501D01*
X68217963Y19289945D01*
X68241220Y19223479D01*
X68241222Y19223476D01*
X68337194Y19070738D01*
X68464748Y18943184D01*
X68502748Y18919307D01*
X68617266Y18847350D01*
X68617488Y18847211D01*
X68740075Y18804316D01*
X68787755Y18787632D01*
X68787760Y18787631D01*
X68967006Y18767435D01*
X68967010Y18767435D01*
X68967014Y18767435D01*
X69146259Y18787631D01*
X69146262Y18787632D01*
X69146265Y18787632D01*
X69316532Y18847211D01*
X69469272Y18943184D01*
X69596826Y19070738D01*
X69692799Y19223478D01*
X69716057Y19289946D01*
X69756778Y19346721D01*
X69821731Y19372468D01*
X69833098Y19372990D01*
X70800922Y19372990D01*
X70867961Y19353305D01*
X70913716Y19300501D01*
X70917963Y19289945D01*
X70941220Y19223479D01*
X70941222Y19223476D01*
X71037194Y19070738D01*
X71164748Y18943184D01*
X71202748Y18919307D01*
X71317266Y18847350D01*
X71317488Y18847211D01*
X71440075Y18804316D01*
X71487755Y18787632D01*
X71487760Y18787631D01*
X71667006Y18767435D01*
X71667010Y18767435D01*
X71667014Y18767435D01*
X71846259Y18787631D01*
X71846262Y18787632D01*
X71846265Y18787632D01*
X72016532Y18847211D01*
X72016754Y18847350D01*
X72101032Y18900306D01*
X72168269Y18919307D01*
X72232978Y18900306D01*
X72317475Y18847212D01*
X72487745Y18787632D01*
X72487750Y18787631D01*
X72666996Y18767435D01*
X72667000Y18767435D01*
X72667004Y18767435D01*
X72846249Y18787631D01*
X72846252Y18787632D01*
X72846255Y18787632D01*
X73016522Y18847211D01*
X73169262Y18943184D01*
X73296816Y19070738D01*
X73392789Y19223478D01*
X73416047Y19289946D01*
X73456768Y19346721D01*
X73521721Y19372468D01*
X73533088Y19372990D01*
X79200922Y19372990D01*
X79267961Y19353305D01*
X79313716Y19300501D01*
X79317963Y19289945D01*
X79341220Y19223479D01*
X79341222Y19223476D01*
X79437194Y19070738D01*
X79564748Y18943184D01*
X79602748Y18919307D01*
X79717266Y18847350D01*
X79717488Y18847211D01*
X79840075Y18804316D01*
X79887755Y18787632D01*
X79887760Y18787631D01*
X80067006Y18767435D01*
X80067010Y18767435D01*
X80067014Y18767435D01*
X80246259Y18787631D01*
X80246262Y18787632D01*
X80246265Y18787632D01*
X80416532Y18847211D01*
X80569272Y18943184D01*
X80696826Y19070738D01*
X80792799Y19223478D01*
X80852378Y19393745D01*
X80872160Y19569313D01*
X80872575Y19572997D01*
X80872575Y19573004D01*
X80852379Y19752250D01*
X80852378Y19752255D01*
X80851787Y19753943D01*
X80792799Y19922522D01*
X80696826Y20075262D01*
X80569272Y20202816D01*
X80416534Y20298788D01*
X80416533Y20298789D01*
X80350054Y20322051D01*
X80293279Y20362773D01*
X80267532Y20427726D01*
X80267010Y20439092D01*
X80267010Y23406908D01*
X80286695Y23473947D01*
X80339499Y23519702D01*
X80350056Y23523950D01*
X80357823Y23526668D01*
X80416532Y23547211D01*
X80569272Y23643184D01*
X80696826Y23770738D01*
X80792799Y23923478D01*
X80852378Y24093745D01*
X80872575Y24273000D01*
X80856907Y24412058D01*
X80852379Y24452250D01*
X80852378Y24452255D01*
X80792798Y24622524D01*
X80696825Y24775263D01*
X80586774Y24885314D01*
X80553289Y24946637D01*
X80558273Y25016329D01*
X80586774Y25060676D01*
X80696826Y25170728D01*
X80792799Y25323468D01*
X80852378Y25493735D01*
X80872575Y25672990D01*
X80852378Y25852245D01*
X80792799Y26022512D01*
X80696826Y26175252D01*
X80569272Y26302806D01*
X80416534Y26398778D01*
X80416533Y26398779D01*
X80350054Y26422041D01*
X80293279Y26462763D01*
X80267532Y26527716D01*
X80267010Y26539082D01*
X80267010Y29506908D01*
X80286695Y29573947D01*
X80339499Y29619702D01*
X80350056Y29623950D01*
X80357823Y29626668D01*
X80416532Y29647211D01*
X80569272Y29743184D01*
X80696826Y29870738D01*
X80792799Y30023478D01*
X80852378Y30193745D01*
X80872575Y30373000D01*
X80852378Y30552255D01*
X80852377Y30552257D01*
X80852376Y30552263D01*
X80790499Y30729095D01*
X80792647Y30729847D01*
X80783045Y30788128D01*
X80791402Y30816589D01*
X80790499Y30816905D01*
X80852376Y30993738D01*
X80852379Y30993751D01*
X80872575Y31172997D01*
X80872575Y31173004D01*
X80852379Y31352250D01*
X80852378Y31352255D01*
X80792798Y31522524D01*
X80696825Y31675263D01*
X80569272Y31802816D01*
X80416534Y31898788D01*
X80416533Y31898789D01*
X80350054Y31922051D01*
X80293279Y31962773D01*
X80267532Y32027726D01*
X80267010Y32039092D01*
X80267010Y32906908D01*
X80286695Y32973947D01*
X80339499Y33019702D01*
X80350056Y33023950D01*
X80357823Y33026668D01*
X80416532Y33047211D01*
X80569272Y33143184D01*
X80696826Y33270738D01*
X80792799Y33423478D01*
X80852378Y33593745D01*
X80852379Y33593751D01*
X80872575Y33772997D01*
X80872575Y33773004D01*
X80852379Y33952250D01*
X80852376Y33952263D01*
X80833032Y34007545D01*
X80829470Y34077324D01*
X80864198Y34137951D01*
X80926192Y34170179D01*
X80950073Y34172500D01*
X81283000Y34172500D01*
X81350039Y34152815D01*
G37*
G04 #@! TD.AperFunction*
G04 #@! TA.AperFunction,Conductor*
G36*
X57467961Y19353305D02*
G01*
X57513716Y19300501D01*
X57517963Y19289945D01*
X57541220Y19223479D01*
X57541222Y19223476D01*
X57637194Y19070738D01*
X57764748Y18943184D01*
X57802748Y18919307D01*
X57917266Y18847350D01*
X57917488Y18847211D01*
X58040075Y18804316D01*
X58087755Y18787632D01*
X58087760Y18787631D01*
X58267006Y18767435D01*
X58267010Y18767435D01*
X58267014Y18767435D01*
X58446259Y18787631D01*
X58446261Y18787632D01*
X58446265Y18787632D01*
X58446268Y18787634D01*
X58446272Y18787634D01*
X58623105Y18849511D01*
X58623856Y18847363D01*
X58682138Y18856965D01*
X58710598Y18848608D01*
X58710915Y18849511D01*
X58887747Y18787634D01*
X58887753Y18787633D01*
X58887755Y18787632D01*
X58887756Y18787632D01*
X58887760Y18787631D01*
X59067006Y18767435D01*
X59067010Y18767435D01*
X59067014Y18767435D01*
X59246259Y18787631D01*
X59246261Y18787632D01*
X59246265Y18787632D01*
X59246268Y18787634D01*
X59246272Y18787634D01*
X59423105Y18849511D01*
X59423860Y18847354D01*
X59482098Y18856961D01*
X59510588Y18848598D01*
X59510905Y18849501D01*
X59687737Y18787624D01*
X59687743Y18787623D01*
X59687745Y18787622D01*
X59687746Y18787622D01*
X59687750Y18787621D01*
X59866996Y18767425D01*
X59867000Y18767425D01*
X59867004Y18767425D01*
X60046249Y18787621D01*
X60046252Y18787622D01*
X60046255Y18787622D01*
X60216522Y18847201D01*
X60216522Y18847202D01*
X60223095Y18849501D01*
X60223847Y18847350D01*
X60282113Y18856959D01*
X60310598Y18848596D01*
X60310915Y18849501D01*
X60487755Y18787622D01*
X60487760Y18787621D01*
X60667006Y18767425D01*
X60667010Y18767425D01*
X60667014Y18767425D01*
X60846259Y18787621D01*
X60846261Y18787622D01*
X60846265Y18787622D01*
X60846268Y18787624D01*
X60846272Y18787624D01*
X61023105Y18849501D01*
X61023856Y18847353D01*
X61082138Y18856955D01*
X61110598Y18848598D01*
X61110915Y18849501D01*
X61287747Y18787624D01*
X61287753Y18787623D01*
X61287755Y18787622D01*
X61287756Y18787622D01*
X61287760Y18787621D01*
X61467006Y18767425D01*
X61467010Y18767425D01*
X61467014Y18767425D01*
X61646259Y18787621D01*
X61646261Y18787622D01*
X61646265Y18787622D01*
X61646268Y18787624D01*
X61646272Y18787624D01*
X61823105Y18849501D01*
X61823856Y18847353D01*
X61882138Y18856955D01*
X61910598Y18848598D01*
X61910915Y18849501D01*
X62087747Y18787624D01*
X62087759Y18787621D01*
X62182603Y18776936D01*
X62234884Y18771045D01*
X62299298Y18743979D01*
X62338853Y18686384D01*
X62340991Y18616548D01*
X62305034Y18556641D01*
X62242396Y18525685D01*
X62242198Y18525650D01*
X61721588Y18435325D01*
X61700391Y18433500D01*
X52384273Y18433500D01*
X52317234Y18453185D01*
X52271479Y18505989D01*
X52261053Y18543616D01*
X52252835Y18616548D01*
X52245222Y18684116D01*
X52257276Y18752937D01*
X52304625Y18804316D01*
X52372235Y18821941D01*
X52409397Y18815040D01*
X52487747Y18787624D01*
X52487753Y18787623D01*
X52487755Y18787622D01*
X52487756Y18787622D01*
X52487760Y18787621D01*
X52667006Y18767425D01*
X52667010Y18767425D01*
X52667014Y18767425D01*
X52846259Y18787621D01*
X52846261Y18787622D01*
X52846265Y18787622D01*
X52846268Y18787624D01*
X52846272Y18787624D01*
X53023105Y18849501D01*
X53023856Y18847354D01*
X53082139Y18856957D01*
X53110588Y18848606D01*
X53110905Y18849511D01*
X53287745Y18787632D01*
X53287750Y18787631D01*
X53466996Y18767435D01*
X53467000Y18767435D01*
X53467004Y18767435D01*
X53646249Y18787631D01*
X53646251Y18787632D01*
X53646255Y18787632D01*
X53646258Y18787634D01*
X53646262Y18787634D01*
X53823095Y18849511D01*
X53823846Y18847363D01*
X53882128Y18856965D01*
X53910588Y18848608D01*
X53910905Y18849511D01*
X54087737Y18787634D01*
X54087743Y18787633D01*
X54087745Y18787632D01*
X54087746Y18787632D01*
X54087750Y18787631D01*
X54266996Y18767435D01*
X54267000Y18767435D01*
X54267004Y18767435D01*
X54446249Y18787631D01*
X54446251Y18787632D01*
X54446255Y18787632D01*
X54446258Y18787634D01*
X54446262Y18787634D01*
X54623095Y18849511D01*
X54623846Y18847363D01*
X54682128Y18856965D01*
X54710588Y18848608D01*
X54710905Y18849511D01*
X54887737Y18787634D01*
X54887743Y18787633D01*
X54887745Y18787632D01*
X54887746Y18787632D01*
X54887750Y18787631D01*
X55066996Y18767435D01*
X55067000Y18767435D01*
X55067004Y18767435D01*
X55246249Y18787631D01*
X55246251Y18787632D01*
X55246255Y18787632D01*
X55246258Y18787634D01*
X55246262Y18787634D01*
X55423095Y18849511D01*
X55423846Y18847363D01*
X55482128Y18856965D01*
X55510588Y18848608D01*
X55510905Y18849511D01*
X55687737Y18787634D01*
X55687743Y18787633D01*
X55687745Y18787632D01*
X55687746Y18787632D01*
X55687750Y18787631D01*
X55866996Y18767435D01*
X55867000Y18767435D01*
X55867004Y18767435D01*
X56046249Y18787631D01*
X56046252Y18787632D01*
X56046255Y18787632D01*
X56216522Y18847211D01*
X56369262Y18943184D01*
X56496816Y19070738D01*
X56592789Y19223478D01*
X56616047Y19289946D01*
X56656768Y19346721D01*
X56721721Y19372468D01*
X56733088Y19372990D01*
X57400922Y19372990D01*
X57467961Y19353305D01*
G37*
G04 #@! TD.AperFunction*
G04 #@! TA.AperFunction,Conductor*
G36*
X45847099Y28021353D02*
G01*
X45903033Y27979482D01*
X45927450Y27914017D01*
X45920808Y27864217D01*
X45881632Y27752258D01*
X45881630Y27752250D01*
X45861435Y27573004D01*
X45861435Y27572997D01*
X45881630Y27393751D01*
X45881633Y27393738D01*
X45943510Y27216906D01*
X45941367Y27216157D01*
X45950962Y27157837D01*
X45942611Y27129399D01*
X45943510Y27129084D01*
X45881633Y26952253D01*
X45881630Y26952240D01*
X45861435Y26772994D01*
X45861435Y26772987D01*
X45881630Y26593741D01*
X45881631Y26593736D01*
X45941211Y26423467D01*
X46017028Y26302806D01*
X46037184Y26270728D01*
X46164738Y26143174D01*
X46317478Y26047201D01*
X46383964Y26023937D01*
X46440740Y25983215D01*
X46466488Y25918263D01*
X46467010Y25906895D01*
X46467010Y20156042D01*
X46447325Y20089003D01*
X46439957Y20078730D01*
X46437187Y20075258D01*
X46341211Y19922514D01*
X46281631Y19752245D01*
X46281630Y19752240D01*
X46261435Y19572994D01*
X46261435Y19572986D01*
X46278287Y19423413D01*
X46266232Y19354591D01*
X46218883Y19303212D01*
X46151273Y19285588D01*
X46084867Y19307315D01*
X46067386Y19321849D01*
X45543819Y19845416D01*
X45510334Y19906739D01*
X45507500Y19933097D01*
X45507500Y27732904D01*
X45527185Y27799943D01*
X45543815Y27820581D01*
X45716087Y27992854D01*
X45777408Y28026337D01*
X45847099Y28021353D01*
G37*
G04 #@! TD.AperFunction*
G04 #@! TA.AperFunction,Conductor*
G36*
X45862703Y31998167D02*
G01*
X45898542Y31945409D01*
X45941211Y31823467D01*
X46037184Y31670728D01*
X46122740Y31585172D01*
X46156225Y31523849D01*
X46151241Y31454157D01*
X46109369Y31398224D01*
X46043905Y31373807D01*
X46035059Y31373491D01*
X45967933Y31373491D01*
X45815205Y31332567D01*
X45815203Y31332567D01*
X45813594Y31332135D01*
X45743744Y31333798D01*
X45685881Y31372960D01*
X45658377Y31437189D01*
X45657500Y31451910D01*
X45657500Y31904454D01*
X45677185Y31971493D01*
X45729989Y32017248D01*
X45799147Y32027192D01*
X45862703Y31998167D01*
G37*
G04 #@! TD.AperFunction*
G04 #@! TA.AperFunction,Conductor*
G36*
X81326333Y52068432D02*
G01*
X81382267Y52026561D01*
X81406684Y51961096D01*
X81407000Y51952250D01*
X81407000Y41905759D01*
X81387315Y41838720D01*
X81335136Y41793252D01*
X80837788Y41562773D01*
X80735687Y41515458D01*
X80706752Y41506155D01*
X80522942Y41471143D01*
X80453404Y41477936D01*
X80433767Y41487960D01*
X80416536Y41498787D01*
X80416533Y41498789D01*
X80350054Y41522051D01*
X80293279Y41562773D01*
X80267532Y41627726D01*
X80267010Y41639092D01*
X80267010Y50606898D01*
X80286695Y50673937D01*
X80339499Y50719692D01*
X80350056Y50723940D01*
X80357823Y50726658D01*
X80416532Y50747201D01*
X80569272Y50843174D01*
X80696826Y50970728D01*
X80792799Y51123468D01*
X80852378Y51293735D01*
X80872575Y51472990D01*
X80852378Y51652245D01*
X80852375Y51652252D01*
X80850829Y51659029D01*
X80852039Y51659306D01*
X80848836Y51721943D01*
X80883558Y51782574D01*
X80917343Y51804655D01*
X80917139Y51805038D01*
X80921478Y51807358D01*
X80921995Y51807695D01*
X80922505Y51807906D01*
X80981745Y51847489D01*
X81045426Y51890038D01*
X81195320Y52039933D01*
X81256642Y52073416D01*
X81326333Y52068432D01*
G37*
G04 #@! TD.AperFunction*
G04 #@! TA.AperFunction,Conductor*
G36*
X63925441Y56613315D02*
G01*
X63971196Y56560511D01*
X63981140Y56491353D01*
X63952115Y56427797D01*
X63946083Y56421319D01*
X63586481Y56061718D01*
X63586480Y56061716D01*
X63546518Y55992499D01*
X63507423Y55924785D01*
X63466499Y55772057D01*
X63466499Y55772055D01*
X63466499Y55766080D01*
X63446814Y55699041D01*
X63394010Y55653286D01*
X63324852Y55643342D01*
X63276527Y55661086D01*
X63216523Y55698789D01*
X63046254Y55758369D01*
X63046249Y55758370D01*
X62867004Y55778565D01*
X62866996Y55778565D01*
X62687750Y55758370D01*
X62687745Y55758369D01*
X62517476Y55698789D01*
X62364737Y55602816D01*
X62354681Y55592759D01*
X62293358Y55559274D01*
X62223666Y55564258D01*
X62179319Y55592759D01*
X62169262Y55602816D01*
X62016523Y55698789D01*
X61846254Y55758369D01*
X61846249Y55758370D01*
X61667004Y55778565D01*
X61666996Y55778565D01*
X61487750Y55758370D01*
X61487745Y55758369D01*
X61317476Y55698789D01*
X61164737Y55602816D01*
X61154681Y55592759D01*
X61093358Y55559274D01*
X61023666Y55564258D01*
X60979319Y55592759D01*
X60969262Y55602816D01*
X60816523Y55698789D01*
X60646254Y55758369D01*
X60646249Y55758370D01*
X60467004Y55778565D01*
X60466996Y55778565D01*
X60287750Y55758370D01*
X60287745Y55758369D01*
X60117476Y55698789D01*
X59964737Y55602816D01*
X59954681Y55592759D01*
X59893358Y55559274D01*
X59823666Y55564258D01*
X59779319Y55592759D01*
X59769262Y55602816D01*
X59616523Y55698789D01*
X59446254Y55758369D01*
X59446249Y55758370D01*
X59267004Y55778565D01*
X59266996Y55778565D01*
X59087750Y55758370D01*
X59087745Y55758369D01*
X58917476Y55698789D01*
X58764737Y55602816D01*
X58754681Y55592759D01*
X58693358Y55559274D01*
X58623666Y55564258D01*
X58579319Y55592759D01*
X58569262Y55602816D01*
X58416523Y55698789D01*
X58246254Y55758369D01*
X58246249Y55758370D01*
X58067004Y55778565D01*
X58066996Y55778565D01*
X57887750Y55758370D01*
X57887745Y55758369D01*
X57717476Y55698789D01*
X57564737Y55602816D01*
X57554681Y55592759D01*
X57493358Y55559274D01*
X57423666Y55564258D01*
X57379319Y55592759D01*
X57369262Y55602816D01*
X57216523Y55698789D01*
X57046254Y55758369D01*
X57046249Y55758370D01*
X56867004Y55778565D01*
X56866996Y55778565D01*
X56687750Y55758370D01*
X56687745Y55758369D01*
X56517476Y55698789D01*
X56364737Y55602816D01*
X56354681Y55592759D01*
X56293358Y55559274D01*
X56223666Y55564258D01*
X56179319Y55592759D01*
X56169262Y55602816D01*
X56016523Y55698789D01*
X55846254Y55758369D01*
X55846249Y55758370D01*
X55667004Y55778565D01*
X55666996Y55778565D01*
X55487750Y55758370D01*
X55487745Y55758369D01*
X55317476Y55698789D01*
X55164737Y55602816D01*
X55154681Y55592759D01*
X55093358Y55559274D01*
X55023666Y55564258D01*
X54979319Y55592759D01*
X54969262Y55602816D01*
X54816523Y55698789D01*
X54646254Y55758369D01*
X54646249Y55758370D01*
X54467004Y55778565D01*
X54466996Y55778565D01*
X54287750Y55758370D01*
X54287745Y55758369D01*
X54117476Y55698789D01*
X53964737Y55602816D01*
X53954676Y55592754D01*
X53893353Y55559269D01*
X53823661Y55564253D01*
X53779314Y55592754D01*
X53769252Y55602816D01*
X53616513Y55698789D01*
X53446244Y55758369D01*
X53446239Y55758370D01*
X53266994Y55778565D01*
X53266986Y55778565D01*
X53087740Y55758370D01*
X53087735Y55758369D01*
X52917466Y55698789D01*
X52764727Y55602816D01*
X52637174Y55475263D01*
X52541202Y55322525D01*
X52541200Y55322522D01*
X52517936Y55256035D01*
X52477215Y55199259D01*
X52412262Y55173512D01*
X52400895Y55172990D01*
X46467010Y55172990D01*
X46467010Y49339082D01*
X46447325Y49272043D01*
X46394521Y49226288D01*
X46383966Y49222041D01*
X46317486Y49198779D01*
X46317485Y49198778D01*
X46164747Y49102806D01*
X46037194Y48975253D01*
X45941221Y48822514D01*
X45881641Y48652245D01*
X45881640Y48652240D01*
X45861445Y48472994D01*
X45861445Y48472987D01*
X45881640Y48293741D01*
X45881641Y48293736D01*
X45941221Y48123467D01*
X46037194Y47970728D01*
X46164748Y47843174D01*
X46317488Y47747201D01*
X46383964Y47723940D01*
X46440740Y47683218D01*
X46466488Y47618266D01*
X46467010Y47606898D01*
X46467010Y45039086D01*
X46447325Y44972047D01*
X46394521Y44926292D01*
X46383966Y44922045D01*
X46317476Y44898779D01*
X46317475Y44898778D01*
X46164737Y44802806D01*
X46037184Y44675253D01*
X45941211Y44522514D01*
X45881631Y44352245D01*
X45881630Y44352240D01*
X45861435Y44172994D01*
X45861435Y44172987D01*
X45881630Y43993741D01*
X45881633Y43993728D01*
X45943510Y43816896D01*
X45941365Y43816146D01*
X45950956Y43757831D01*
X45942610Y43729409D01*
X45943510Y43729094D01*
X45881633Y43552263D01*
X45881630Y43552250D01*
X45861435Y43373004D01*
X45861435Y43372997D01*
X45881630Y43193751D01*
X45881633Y43193738D01*
X45943510Y43016906D01*
X45941367Y43016157D01*
X45950962Y42957837D01*
X45942611Y42929399D01*
X45943510Y42929084D01*
X45881633Y42752253D01*
X45881630Y42752240D01*
X45861435Y42572994D01*
X45861435Y42572987D01*
X45881631Y42393737D01*
X45881631Y42393736D01*
X45890273Y42369038D01*
X45893834Y42299259D01*
X45860913Y42240405D01*
X45762217Y42141707D01*
X45418681Y41798171D01*
X45357358Y41764686D01*
X45287666Y41769670D01*
X45231733Y41811542D01*
X45207316Y41877006D01*
X45207000Y41885852D01*
X45207000Y54832403D01*
X45226685Y54899442D01*
X45243319Y54920084D01*
X46719416Y56396181D01*
X46780739Y56429666D01*
X46807097Y56432500D01*
X49420331Y56432500D01*
X49420347Y56432499D01*
X49427943Y56432499D01*
X49586054Y56432499D01*
X49586057Y56432499D01*
X49738785Y56473423D01*
X49808967Y56513943D01*
X49875716Y56552480D01*
X49919917Y56596681D01*
X49981240Y56630166D01*
X50007598Y56633000D01*
X63858402Y56633000D01*
X63925441Y56613315D01*
G37*
G04 #@! TD.AperFunction*
G04 #@! TA.AperFunction,Conductor*
G36*
X81350039Y56613315D02*
G01*
X81395794Y56560511D01*
X81407000Y56509000D01*
X81407000Y54425711D01*
X81387315Y54358672D01*
X81370681Y54338030D01*
X80478691Y53446040D01*
X80417368Y53412555D01*
X80347676Y53417539D01*
X80291743Y53459411D01*
X80267326Y53524875D01*
X80267010Y53533721D01*
X80267010Y54389961D01*
X80286695Y54457000D01*
X80294065Y54467276D01*
X80296820Y54470733D01*
X80296826Y54470738D01*
X80392799Y54623478D01*
X80452378Y54793745D01*
X80452379Y54793751D01*
X80472575Y54972997D01*
X80472575Y54973004D01*
X80452379Y55152250D01*
X80452378Y55152255D01*
X80446702Y55168475D01*
X80392799Y55322522D01*
X80296826Y55475262D01*
X80169272Y55602816D01*
X80151568Y55613940D01*
X80016533Y55698789D01*
X79846264Y55758369D01*
X79846259Y55758370D01*
X79667014Y55778565D01*
X79667006Y55778565D01*
X79487760Y55758370D01*
X79487755Y55758369D01*
X79317486Y55698789D01*
X79164747Y55602816D01*
X79037194Y55475263D01*
X78941222Y55322525D01*
X78941220Y55322522D01*
X78917956Y55256035D01*
X78877235Y55199259D01*
X78812282Y55173512D01*
X78800915Y55172990D01*
X78133105Y55172990D01*
X78066066Y55192675D01*
X78020311Y55245479D01*
X78016064Y55256035D01*
X77992799Y55322522D01*
X77992797Y55322525D01*
X77896825Y55475263D01*
X77769272Y55602816D01*
X77616533Y55698789D01*
X77446264Y55758369D01*
X77446259Y55758370D01*
X77267014Y55778565D01*
X77267006Y55778565D01*
X77087760Y55758370D01*
X77087755Y55758369D01*
X76917486Y55698789D01*
X76764747Y55602816D01*
X76754691Y55592759D01*
X76693368Y55559274D01*
X76623676Y55564258D01*
X76579329Y55592759D01*
X76569272Y55602816D01*
X76416533Y55698789D01*
X76246264Y55758369D01*
X76246259Y55758370D01*
X76067014Y55778565D01*
X76067006Y55778565D01*
X75887760Y55758370D01*
X75887755Y55758369D01*
X75717486Y55698789D01*
X75564747Y55602816D01*
X75554691Y55592759D01*
X75493368Y55559274D01*
X75423676Y55564258D01*
X75379329Y55592759D01*
X75369272Y55602816D01*
X75216533Y55698789D01*
X75046264Y55758369D01*
X75046259Y55758370D01*
X74867014Y55778565D01*
X74867006Y55778565D01*
X74687760Y55758370D01*
X74687755Y55758369D01*
X74517486Y55698789D01*
X74364747Y55602816D01*
X74354691Y55592759D01*
X74293368Y55559274D01*
X74223676Y55564258D01*
X74179329Y55592759D01*
X74169272Y55602816D01*
X74016533Y55698789D01*
X73846264Y55758369D01*
X73846259Y55758370D01*
X73667014Y55778565D01*
X73667006Y55778565D01*
X73487760Y55758370D01*
X73487755Y55758369D01*
X73317486Y55698789D01*
X73257472Y55661079D01*
X73190235Y55642079D01*
X73123400Y55662447D01*
X73078186Y55715715D01*
X73067500Y55766073D01*
X73067500Y56292903D01*
X73087185Y56359942D01*
X73103819Y56380584D01*
X73319916Y56596681D01*
X73381239Y56630166D01*
X73407597Y56633000D01*
X81283000Y56633000D01*
X81350039Y56613315D01*
G37*
G04 #@! TD.AperFunction*
G04 #@! TD*
G04 #@! TA.AperFunction,Conductor*
G04 #@! TO.N,GND*
G36*
X7682853Y38913315D02*
G01*
X7728608Y38860511D01*
X7738552Y38791353D01*
X7735591Y38776918D01*
X7722499Y38728057D01*
X7722499Y38728055D01*
X7722499Y38559954D01*
X7722500Y38559941D01*
X7722500Y38362929D01*
X7702815Y38295890D01*
X7690650Y38279957D01*
X7631140Y38213865D01*
X7598310Y38157000D01*
X7547744Y38108785D01*
X7490923Y38095000D01*
X1519000Y38095000D01*
X1494000Y10770000D01*
X2117409Y10770000D01*
X2184448Y10750315D01*
X2224795Y10708002D01*
X2275891Y10619500D01*
X2277141Y10617335D01*
X2396764Y10484479D01*
X2396767Y10484477D01*
X2396770Y10484474D01*
X2541407Y10379388D01*
X2704733Y10306671D01*
X2879609Y10269500D01*
X2879610Y10269500D01*
X3058389Y10269500D01*
X3058391Y10269500D01*
X3233267Y10306671D01*
X3396593Y10379388D01*
X3396597Y10379392D01*
X3402224Y10382639D01*
X3402904Y10381461D01*
X3461911Y10402520D01*
X3529966Y10386700D01*
X3540783Y10379748D01*
X3541402Y10379391D01*
X3541404Y10379390D01*
X3541407Y10379388D01*
X3704733Y10306671D01*
X3879609Y10269500D01*
X3918903Y10269500D01*
X3985942Y10249815D01*
X4006584Y10233181D01*
X4495084Y9744681D01*
X4528569Y9683358D01*
X4523585Y9613666D01*
X4481713Y9557733D01*
X4416249Y9533316D01*
X4407403Y9533000D01*
X431000Y9533000D01*
X363961Y9552685D01*
X318206Y9605489D01*
X307000Y9657000D01*
X307000Y38809000D01*
X326685Y38876039D01*
X379489Y38921794D01*
X431000Y38933000D01*
X7615814Y38933000D01*
X7682853Y38913315D01*
G37*
G04 #@! TD.AperFunction*
G04 #@! TA.AperFunction,Conductor*
G36*
X15055942Y38562815D02*
G01*
X15076584Y38546181D01*
X15316084Y38306681D01*
X15349569Y38245358D01*
X15348137Y38225343D01*
X15360647Y38227141D01*
X15424203Y38198116D01*
X15430681Y38192084D01*
X16170181Y37452584D01*
X16203666Y37391261D01*
X16206500Y37364903D01*
X16206500Y9657000D01*
X16186815Y9589961D01*
X16134011Y9544206D01*
X16082500Y9533000D01*
X8446597Y9533000D01*
X8379558Y9552685D01*
X8358916Y9569319D01*
X7733590Y10194645D01*
X7733588Y10194648D01*
X7614717Y10313519D01*
X7614716Y10313520D01*
X7527904Y10363640D01*
X7527904Y10363641D01*
X7527900Y10363642D01*
X7477785Y10392577D01*
X7325057Y10433501D01*
X7166943Y10433501D01*
X7159347Y10433501D01*
X7159331Y10433500D01*
X6769496Y10433500D01*
X6702457Y10453185D01*
X6656702Y10505989D01*
X6646758Y10575147D01*
X6662109Y10619500D01*
X6667178Y10628281D01*
X6713204Y10708001D01*
X6763770Y10756215D01*
X6820591Y10770000D01*
X15219000Y10770000D01*
X15219000Y38095000D01*
X14451077Y38095000D01*
X14384038Y38114685D01*
X14343690Y38157000D01*
X14323434Y38192084D01*
X14310859Y38213865D01*
X14264003Y38265904D01*
X14191235Y38346722D01*
X14191230Y38346726D01*
X14175461Y38358183D01*
X14132796Y38413513D01*
X14126818Y38483127D01*
X14159425Y38544921D01*
X14220264Y38579278D01*
X14248348Y38582500D01*
X14988903Y38582500D01*
X15055942Y38562815D01*
G37*
G04 #@! TD.AperFunction*
G04 #@! TA.AperFunction,Conductor*
G36*
X11056691Y38562815D02*
G01*
X11102446Y38510011D01*
X11112390Y38440853D01*
X11083365Y38377297D01*
X11062539Y38358183D01*
X11046769Y38346726D01*
X10927140Y38213864D01*
X10894310Y38157000D01*
X10843744Y38108785D01*
X10786923Y38095000D01*
X10171077Y38095000D01*
X10104038Y38114685D01*
X10063690Y38157000D01*
X10043434Y38192084D01*
X10030859Y38213865D01*
X9984003Y38265904D01*
X9911235Y38346722D01*
X9911230Y38346726D01*
X9895461Y38358183D01*
X9852796Y38413513D01*
X9846818Y38483127D01*
X9879425Y38544921D01*
X9940264Y38579278D01*
X9968348Y38582500D01*
X10989652Y38582500D01*
X11056691Y38562815D01*
G37*
G04 #@! TD.AperFunction*
G04 #@! TD*
M02*
