G04 #@! TF.GenerationSoftware,KiCad,Pcbnew,8.0.8-8.0.8-0~ubuntu24.04.1*
G04 #@! TF.CreationDate,2025-02-10T05:16:00+00:00*
G04 #@! TF.ProjectId,VFRECU-VR,56465245-4355-42d5-9652-2e6b69636164,rev?*
G04 #@! TF.SameCoordinates,Original*
G04 #@! TF.FileFunction,Soldermask,Top*
G04 #@! TF.FilePolarity,Negative*
%FSLAX46Y46*%
G04 Gerber Fmt 4.6, Leading zero omitted, Abs format (unit mm)*
G04 Created by KiCad (PCBNEW 8.0.8-8.0.8-0~ubuntu24.04.1) date 2025-02-10 05:16:00*
%MOMM*%
%LPD*%
G01*
G04 APERTURE LIST*
%ADD10C,0.120000*%
%ADD11R,2.000000X1.500000*%
%ADD12R,2.000000X3.800000*%
%ADD13C,5.600000*%
%ADD14C,1.000000*%
%ADD15R,1.700000X1.700000*%
%ADD16O,1.700000X1.700000*%
%ADD17C,1.500000*%
%ADD18C,0.600000*%
%ADD19C,2.850000*%
%ADD20R,2.625000X2.625000*%
%ADD21C,2.625000*%
%ADD22R,1.100000X1.100000*%
%ADD23C,1.100000*%
%ADD24O,1.100000X2.400000*%
%ADD25C,1.524000*%
%ADD26R,1.300000X1.000000*%
G04 APERTURE END LIST*
D10*
G04 #@! TO.C,U2*
X156759000Y22030000D02*
X143759000Y22030000D01*
X143759000Y29030000D01*
X156759000Y29030000D01*
X156759000Y22030000D01*
G36*
X156759000Y22030000D02*
G01*
X143759000Y22030000D01*
X143759000Y29030000D01*
X156759000Y29030000D01*
X156759000Y22030000D01*
G37*
G04 #@! TD*
D11*
G04 #@! TO.C,Q7*
X126954000Y49442000D03*
X126954000Y51742000D03*
X126954000Y54042000D03*
D12*
X120654000Y51742000D03*
G04 #@! TD*
G04 #@! TO.C,R32*
G36*
G01*
X153257000Y57523000D02*
X153257000Y56743000D01*
G75*
G02*
X153187000Y56673000I-70000J0D01*
G01*
X152627000Y56673000D01*
G75*
G02*
X152557000Y56743000I0J70000D01*
G01*
X152557000Y57523000D01*
G75*
G02*
X152627000Y57593000I70000J0D01*
G01*
X153187000Y57593000D01*
G75*
G02*
X153257000Y57523000I0J-70000D01*
G01*
G37*
G36*
G01*
X151657000Y57523000D02*
X151657000Y56743000D01*
G75*
G02*
X151587000Y56673000I-70000J0D01*
G01*
X151027000Y56673000D01*
G75*
G02*
X150957000Y56743000I0J70000D01*
G01*
X150957000Y57523000D01*
G75*
G02*
X151027000Y57593000I70000J0D01*
G01*
X151587000Y57593000D01*
G75*
G02*
X151657000Y57523000I0J-70000D01*
G01*
G37*
G04 #@! TD*
G04 #@! TO.C,R31*
G36*
G01*
X146057000Y48143000D02*
X146057000Y48923000D01*
G75*
G02*
X146127000Y48993000I70000J0D01*
G01*
X146687000Y48993000D01*
G75*
G02*
X146757000Y48923000I0J-70000D01*
G01*
X146757000Y48143000D01*
G75*
G02*
X146687000Y48073000I-70000J0D01*
G01*
X146127000Y48073000D01*
G75*
G02*
X146057000Y48143000I0J70000D01*
G01*
G37*
G36*
G01*
X147657000Y48143000D02*
X147657000Y48923000D01*
G75*
G02*
X147727000Y48993000I70000J0D01*
G01*
X148287000Y48993000D01*
G75*
G02*
X148357000Y48923000I0J-70000D01*
G01*
X148357000Y48143000D01*
G75*
G02*
X148287000Y48073000I-70000J0D01*
G01*
X147727000Y48073000D01*
G75*
G02*
X147657000Y48143000I0J70000D01*
G01*
G37*
G04 #@! TD*
D13*
G04 #@! TO.C,H3*
X5000000Y5000000D03*
G04 #@! TD*
G04 #@! TO.C,R29*
G36*
G01*
X137754928Y42142000D02*
X136974928Y42142000D01*
G75*
G02*
X136904928Y42212000I0J70000D01*
G01*
X136904928Y42772000D01*
G75*
G02*
X136974928Y42842000I70000J0D01*
G01*
X137754928Y42842000D01*
G75*
G02*
X137824928Y42772000I0J-70000D01*
G01*
X137824928Y42212000D01*
G75*
G02*
X137754928Y42142000I-70000J0D01*
G01*
G37*
G36*
G01*
X137754928Y43742000D02*
X136974928Y43742000D01*
G75*
G02*
X136904928Y43812000I0J70000D01*
G01*
X136904928Y44372000D01*
G75*
G02*
X136974928Y44442000I70000J0D01*
G01*
X137754928Y44442000D01*
G75*
G02*
X137824928Y44372000I0J-70000D01*
G01*
X137824928Y43812000D01*
G75*
G02*
X137754928Y43742000I-70000J0D01*
G01*
G37*
G04 #@! TD*
D11*
G04 #@! TO.C,Q9*
X125229000Y30059000D03*
X125229000Y32359000D03*
X125229000Y34659000D03*
D12*
X118929000Y32359000D03*
G04 #@! TD*
G04 #@! TO.C,R34*
G36*
G01*
X33551700Y42189500D02*
X33551700Y42559500D01*
G75*
G02*
X33686700Y42694500I135000J0D01*
G01*
X33956700Y42694500D01*
G75*
G02*
X34091700Y42559500I0J-135000D01*
G01*
X34091700Y42189500D01*
G75*
G02*
X33956700Y42054500I-135000J0D01*
G01*
X33686700Y42054500D01*
G75*
G02*
X33551700Y42189500I0J135000D01*
G01*
G37*
G36*
G01*
X34571700Y42189500D02*
X34571700Y42559500D01*
G75*
G02*
X34706700Y42694500I135000J0D01*
G01*
X34976700Y42694500D01*
G75*
G02*
X35111700Y42559500I0J-135000D01*
G01*
X35111700Y42189500D01*
G75*
G02*
X34976700Y42054500I-135000J0D01*
G01*
X34706700Y42054500D01*
G75*
G02*
X34571700Y42189500I0J135000D01*
G01*
G37*
G04 #@! TD*
G04 #@! TO.C,C4*
G36*
G01*
X25403780Y33675540D02*
X25743780Y33675540D01*
G75*
G02*
X25883780Y33535540I0J-140000D01*
G01*
X25883780Y33255540D01*
G75*
G02*
X25743780Y33115540I-140000J0D01*
G01*
X25403780Y33115540D01*
G75*
G02*
X25263780Y33255540I0J140000D01*
G01*
X25263780Y33535540D01*
G75*
G02*
X25403780Y33675540I140000J0D01*
G01*
G37*
G36*
G01*
X25403780Y32715540D02*
X25743780Y32715540D01*
G75*
G02*
X25883780Y32575540I0J-140000D01*
G01*
X25883780Y32295540D01*
G75*
G02*
X25743780Y32155540I-140000J0D01*
G01*
X25403780Y32155540D01*
G75*
G02*
X25263780Y32295540I0J140000D01*
G01*
X25263780Y32575540D01*
G75*
G02*
X25403780Y32715540I140000J0D01*
G01*
G37*
G04 #@! TD*
D14*
G04 #@! TO.C,HALL3*
X53677000Y56673000D03*
G04 #@! TD*
G04 #@! TO.C,Q1*
G36*
G01*
X113360109Y43055372D02*
X112753891Y42705372D01*
G75*
G02*
X112412385Y42796878I-125000J216506D01*
G01*
X111562385Y44269122D01*
G75*
G02*
X111653891Y44610628I216506J125000D01*
G01*
X112260109Y44960628D01*
G75*
G02*
X112601615Y44869122I125000J-216506D01*
G01*
X113451615Y43396878D01*
G75*
G02*
X113360109Y43055372I-216506J-125000D01*
G01*
G37*
G36*
G01*
X115226508Y48982680D02*
X110636569Y46332677D01*
G75*
G02*
X110295066Y46424182I-124999J216504D01*
G01*
X107345063Y51533737D01*
G75*
G02*
X107436569Y51875240I216504J124999D01*
G01*
X112026508Y54525243D01*
G75*
G02*
X112368010Y54433737I124998J-216504D01*
G01*
X115318013Y49324182D01*
G75*
G02*
X115226508Y48982680I-216504J-124998D01*
G01*
G37*
G36*
G01*
X117309185Y45335372D02*
X116702967Y44985372D01*
G75*
G02*
X116361461Y45076878I-125000J216506D01*
G01*
X115511461Y46549122D01*
G75*
G02*
X115602967Y46890628I216506J125000D01*
G01*
X116209185Y47240628D01*
G75*
G02*
X116550691Y47149122I125000J-216506D01*
G01*
X117400691Y45676878D01*
G75*
G02*
X117309185Y45335372I-216506J-125000D01*
G01*
G37*
G04 #@! TD*
G04 #@! TO.C,R39*
G36*
G01*
X11413500Y52836340D02*
X11413500Y52466340D01*
G75*
G02*
X11278500Y52331340I-135000J0D01*
G01*
X11008500Y52331340D01*
G75*
G02*
X10873500Y52466340I0J135000D01*
G01*
X10873500Y52836340D01*
G75*
G02*
X11008500Y52971340I135000J0D01*
G01*
X11278500Y52971340D01*
G75*
G02*
X11413500Y52836340I0J-135000D01*
G01*
G37*
G36*
G01*
X10393500Y52836340D02*
X10393500Y52466340D01*
G75*
G02*
X10258500Y52331340I-135000J0D01*
G01*
X9988500Y52331340D01*
G75*
G02*
X9853500Y52466340I0J135000D01*
G01*
X9853500Y52836340D01*
G75*
G02*
X9988500Y52971340I135000J0D01*
G01*
X10258500Y52971340D01*
G75*
G02*
X10393500Y52836340I0J-135000D01*
G01*
G37*
G04 #@! TD*
G04 #@! TO.C,R40*
G36*
G01*
X12522000Y53934260D02*
X12892000Y53934260D01*
G75*
G02*
X13027000Y53799260I0J-135000D01*
G01*
X13027000Y53529260D01*
G75*
G02*
X12892000Y53394260I-135000J0D01*
G01*
X12522000Y53394260D01*
G75*
G02*
X12387000Y53529260I0J135000D01*
G01*
X12387000Y53799260D01*
G75*
G02*
X12522000Y53934260I135000J0D01*
G01*
G37*
G36*
G01*
X12522000Y52914260D02*
X12892000Y52914260D01*
G75*
G02*
X13027000Y52779260I0J-135000D01*
G01*
X13027000Y52509260D01*
G75*
G02*
X12892000Y52374260I-135000J0D01*
G01*
X12522000Y52374260D01*
G75*
G02*
X12387000Y52509260I0J135000D01*
G01*
X12387000Y52779260D01*
G75*
G02*
X12522000Y52914260I135000J0D01*
G01*
G37*
G04 #@! TD*
G04 #@! TO.C,Q4*
G36*
G01*
X96852033Y41810372D02*
X96245815Y41460372D01*
G75*
G02*
X95904309Y41551878I-125000J216506D01*
G01*
X95054309Y43024122D01*
G75*
G02*
X95145815Y43365628I216506J125000D01*
G01*
X95752033Y43715628D01*
G75*
G02*
X96093539Y43624122I125000J-216506D01*
G01*
X96943539Y42151878D01*
G75*
G02*
X96852033Y41810372I-216506J-125000D01*
G01*
G37*
G36*
G01*
X98718432Y47737680D02*
X94128493Y45087677D01*
G75*
G02*
X93786990Y45179182I-124999J216504D01*
G01*
X90836987Y50288737D01*
G75*
G02*
X90928493Y50630240I216504J124999D01*
G01*
X95518432Y53280243D01*
G75*
G02*
X95859934Y53188737I124998J-216504D01*
G01*
X98809937Y48079182D01*
G75*
G02*
X98718432Y47737680I-216504J-124998D01*
G01*
G37*
G36*
G01*
X100801109Y44090372D02*
X100194891Y43740372D01*
G75*
G02*
X99853385Y43831878I-125000J216506D01*
G01*
X99003385Y45304122D01*
G75*
G02*
X99094891Y45645628I216506J125000D01*
G01*
X99701109Y45995628D01*
G75*
G02*
X100042615Y45904122I125000J-216506D01*
G01*
X100892615Y44431878D01*
G75*
G02*
X100801109Y44090372I-216506J-125000D01*
G01*
G37*
G04 #@! TD*
G04 #@! TO.C,HALL2*
X55694000Y56721000D03*
G04 #@! TD*
D13*
G04 #@! TO.C,H1*
X155885000Y48938000D03*
G04 #@! TD*
G04 #@! TO.C,R27*
G36*
G01*
X27792000Y43253000D02*
X27422000Y43253000D01*
G75*
G02*
X27287000Y43388000I0J135000D01*
G01*
X27287000Y43658000D01*
G75*
G02*
X27422000Y43793000I135000J0D01*
G01*
X27792000Y43793000D01*
G75*
G02*
X27927000Y43658000I0J-135000D01*
G01*
X27927000Y43388000D01*
G75*
G02*
X27792000Y43253000I-135000J0D01*
G01*
G37*
G36*
G01*
X27792000Y44273000D02*
X27422000Y44273000D01*
G75*
G02*
X27287000Y44408000I0J135000D01*
G01*
X27287000Y44678000D01*
G75*
G02*
X27422000Y44813000I135000J0D01*
G01*
X27792000Y44813000D01*
G75*
G02*
X27927000Y44678000I0J-135000D01*
G01*
X27927000Y44408000D01*
G75*
G02*
X27792000Y44273000I-135000J0D01*
G01*
G37*
G04 #@! TD*
G04 #@! TO.C,R28*
G36*
G01*
X23439960Y34462820D02*
X23439960Y34832820D01*
G75*
G02*
X23574960Y34967820I135000J0D01*
G01*
X23844960Y34967820D01*
G75*
G02*
X23979960Y34832820I0J-135000D01*
G01*
X23979960Y34462820D01*
G75*
G02*
X23844960Y34327820I-135000J0D01*
G01*
X23574960Y34327820D01*
G75*
G02*
X23439960Y34462820I0J135000D01*
G01*
G37*
G36*
G01*
X24459960Y34462820D02*
X24459960Y34832820D01*
G75*
G02*
X24594960Y34967820I135000J0D01*
G01*
X24864960Y34967820D01*
G75*
G02*
X24999960Y34832820I0J-135000D01*
G01*
X24999960Y34462820D01*
G75*
G02*
X24864960Y34327820I-135000J0D01*
G01*
X24594960Y34327820D01*
G75*
G02*
X24459960Y34462820I0J135000D01*
G01*
G37*
G04 #@! TD*
G04 #@! TO.C,C11*
G36*
G01*
X8637000Y50593000D02*
X8977000Y50593000D01*
G75*
G02*
X9117000Y50453000I0J-140000D01*
G01*
X9117000Y50173000D01*
G75*
G02*
X8977000Y50033000I-140000J0D01*
G01*
X8637000Y50033000D01*
G75*
G02*
X8497000Y50173000I0J140000D01*
G01*
X8497000Y50453000D01*
G75*
G02*
X8637000Y50593000I140000J0D01*
G01*
G37*
G36*
G01*
X8637000Y49633000D02*
X8977000Y49633000D01*
G75*
G02*
X9117000Y49493000I0J-140000D01*
G01*
X9117000Y49213000D01*
G75*
G02*
X8977000Y49073000I-140000J0D01*
G01*
X8637000Y49073000D01*
G75*
G02*
X8497000Y49213000I0J140000D01*
G01*
X8497000Y49493000D01*
G75*
G02*
X8637000Y49633000I140000J0D01*
G01*
G37*
G04 #@! TD*
G04 #@! TO.C,C10*
G36*
G01*
X16347000Y42663000D02*
X16347000Y43003000D01*
G75*
G02*
X16487000Y43143000I140000J0D01*
G01*
X16767000Y43143000D01*
G75*
G02*
X16907000Y43003000I0J-140000D01*
G01*
X16907000Y42663000D01*
G75*
G02*
X16767000Y42523000I-140000J0D01*
G01*
X16487000Y42523000D01*
G75*
G02*
X16347000Y42663000I0J140000D01*
G01*
G37*
G36*
G01*
X17307000Y42663000D02*
X17307000Y43003000D01*
G75*
G02*
X17447000Y43143000I140000J0D01*
G01*
X17727000Y43143000D01*
G75*
G02*
X17867000Y43003000I0J-140000D01*
G01*
X17867000Y42663000D01*
G75*
G02*
X17727000Y42523000I-140000J0D01*
G01*
X17447000Y42523000D01*
G75*
G02*
X17307000Y42663000I0J140000D01*
G01*
G37*
G04 #@! TD*
D15*
G04 #@! TO.C,JP3*
X139494000Y7635000D03*
D16*
X139494000Y5095000D03*
G04 #@! TD*
G04 #@! TO.C,R30*
G36*
G01*
X140178000Y33631072D02*
X140178000Y32851072D01*
G75*
G02*
X140108000Y32781072I-70000J0D01*
G01*
X139548000Y32781072D01*
G75*
G02*
X139478000Y32851072I0J70000D01*
G01*
X139478000Y33631072D01*
G75*
G02*
X139548000Y33701072I70000J0D01*
G01*
X140108000Y33701072D01*
G75*
G02*
X140178000Y33631072I0J-70000D01*
G01*
G37*
G36*
G01*
X138578000Y33631072D02*
X138578000Y32851072D01*
G75*
G02*
X138508000Y32781072I-70000J0D01*
G01*
X137948000Y32781072D01*
G75*
G02*
X137878000Y32851072I0J70000D01*
G01*
X137878000Y33631072D01*
G75*
G02*
X137948000Y33701072I70000J0D01*
G01*
X138508000Y33701072D01*
G75*
G02*
X138578000Y33631072I0J-70000D01*
G01*
G37*
G04 #@! TD*
G04 #@! TO.C,R2*
G36*
G01*
X29314000Y57922000D02*
X29314000Y57142000D01*
G75*
G02*
X29244000Y57072000I-70000J0D01*
G01*
X28684000Y57072000D01*
G75*
G02*
X28614000Y57142000I0J70000D01*
G01*
X28614000Y57922000D01*
G75*
G02*
X28684000Y57992000I70000J0D01*
G01*
X29244000Y57992000D01*
G75*
G02*
X29314000Y57922000I0J-70000D01*
G01*
G37*
G36*
G01*
X27714000Y57922000D02*
X27714000Y57142000D01*
G75*
G02*
X27644000Y57072000I-70000J0D01*
G01*
X27084000Y57072000D01*
G75*
G02*
X27014000Y57142000I0J70000D01*
G01*
X27014000Y57922000D01*
G75*
G02*
X27084000Y57992000I70000J0D01*
G01*
X27644000Y57992000D01*
G75*
G02*
X27714000Y57922000I0J-70000D01*
G01*
G37*
G04 #@! TD*
D11*
G04 #@! TO.C,Q14*
X138324000Y35162000D03*
X138324000Y37462000D03*
X138324000Y39762000D03*
D12*
X132024000Y37462000D03*
G04 #@! TD*
D15*
G04 #@! TO.C,JP2*
X21530100Y43771500D03*
D16*
X21530100Y41231500D03*
G04 #@! TD*
G04 #@! TO.C,IC2*
G36*
G01*
X33163740Y35003460D02*
X33163740Y34439160D01*
G75*
G02*
X33069690Y34345110I-94050J0D01*
G01*
X31205390Y34345110D01*
G75*
G02*
X31111340Y34439160I0J94050D01*
G01*
X31111340Y35003460D01*
G75*
G02*
X31205390Y35097510I94050J0D01*
G01*
X33069690Y35097510D01*
G75*
G02*
X33163740Y35003460I0J-94050D01*
G01*
G37*
G36*
G01*
X33163740Y36273460D02*
X33163740Y35709160D01*
G75*
G02*
X33069690Y35615110I-94050J0D01*
G01*
X31205390Y35615110D01*
G75*
G02*
X31111340Y35709160I0J94050D01*
G01*
X31111340Y36273460D01*
G75*
G02*
X31205390Y36367510I94050J0D01*
G01*
X33069690Y36367510D01*
G75*
G02*
X33163740Y36273460I0J-94050D01*
G01*
G37*
G36*
G01*
X33163740Y37543460D02*
X33163740Y36979160D01*
G75*
G02*
X33069690Y36885110I-94050J0D01*
G01*
X31205390Y36885110D01*
G75*
G02*
X31111340Y36979160I0J94050D01*
G01*
X31111340Y37543460D01*
G75*
G02*
X31205390Y37637510I94050J0D01*
G01*
X33069690Y37637510D01*
G75*
G02*
X33163740Y37543460I0J-94050D01*
G01*
G37*
G36*
G01*
X33163740Y38813460D02*
X33163740Y38249160D01*
G75*
G02*
X33069690Y38155110I-94050J0D01*
G01*
X31205390Y38155110D01*
G75*
G02*
X31111340Y38249160I0J94050D01*
G01*
X31111340Y38813460D01*
G75*
G02*
X31205390Y38907510I94050J0D01*
G01*
X33069690Y38907510D01*
G75*
G02*
X33163740Y38813460I0J-94050D01*
G01*
G37*
G36*
G01*
X33163740Y40083460D02*
X33163740Y39519160D01*
G75*
G02*
X33069690Y39425110I-94050J0D01*
G01*
X31205390Y39425110D01*
G75*
G02*
X31111340Y39519160I0J94050D01*
G01*
X31111340Y40083460D01*
G75*
G02*
X31205390Y40177510I94050J0D01*
G01*
X33069690Y40177510D01*
G75*
G02*
X33163740Y40083460I0J-94050D01*
G01*
G37*
G36*
G01*
X33163740Y41353460D02*
X33163740Y40789160D01*
G75*
G02*
X33069690Y40695110I-94050J0D01*
G01*
X31205390Y40695110D01*
G75*
G02*
X31111340Y40789160I0J94050D01*
G01*
X31111340Y41353460D01*
G75*
G02*
X31205390Y41447510I94050J0D01*
G01*
X33069690Y41447510D01*
G75*
G02*
X33163740Y41353460I0J-94050D01*
G01*
G37*
G36*
G01*
X33163740Y42623460D02*
X33163740Y42059160D01*
G75*
G02*
X33069690Y41965110I-94050J0D01*
G01*
X31205390Y41965110D01*
G75*
G02*
X31111340Y42059160I0J94050D01*
G01*
X31111340Y42623460D01*
G75*
G02*
X31205390Y42717510I94050J0D01*
G01*
X33069690Y42717510D01*
G75*
G02*
X33163740Y42623460I0J-94050D01*
G01*
G37*
G36*
G01*
X28253740Y42623460D02*
X28253740Y42059160D01*
G75*
G02*
X28159690Y41965110I-94050J0D01*
G01*
X26295390Y41965110D01*
G75*
G02*
X26201340Y42059160I0J94050D01*
G01*
X26201340Y42623460D01*
G75*
G02*
X26295390Y42717510I94050J0D01*
G01*
X28159690Y42717510D01*
G75*
G02*
X28253740Y42623460I0J-94050D01*
G01*
G37*
G36*
G01*
X28253740Y41353460D02*
X28253740Y40789160D01*
G75*
G02*
X28159690Y40695110I-94050J0D01*
G01*
X26295390Y40695110D01*
G75*
G02*
X26201340Y40789160I0J94050D01*
G01*
X26201340Y41353460D01*
G75*
G02*
X26295390Y41447510I94050J0D01*
G01*
X28159690Y41447510D01*
G75*
G02*
X28253740Y41353460I0J-94050D01*
G01*
G37*
G36*
G01*
X28253740Y40083460D02*
X28253740Y39519160D01*
G75*
G02*
X28159690Y39425110I-94050J0D01*
G01*
X26295390Y39425110D01*
G75*
G02*
X26201340Y39519160I0J94050D01*
G01*
X26201340Y40083460D01*
G75*
G02*
X26295390Y40177510I94050J0D01*
G01*
X28159690Y40177510D01*
G75*
G02*
X28253740Y40083460I0J-94050D01*
G01*
G37*
G36*
G01*
X28253740Y38813460D02*
X28253740Y38249160D01*
G75*
G02*
X28159690Y38155110I-94050J0D01*
G01*
X26295390Y38155110D01*
G75*
G02*
X26201340Y38249160I0J94050D01*
G01*
X26201340Y38813460D01*
G75*
G02*
X26295390Y38907510I94050J0D01*
G01*
X28159690Y38907510D01*
G75*
G02*
X28253740Y38813460I0J-94050D01*
G01*
G37*
G36*
G01*
X28253740Y37543460D02*
X28253740Y36979160D01*
G75*
G02*
X28159690Y36885110I-94050J0D01*
G01*
X26295390Y36885110D01*
G75*
G02*
X26201340Y36979160I0J94050D01*
G01*
X26201340Y37543460D01*
G75*
G02*
X26295390Y37637510I94050J0D01*
G01*
X28159690Y37637510D01*
G75*
G02*
X28253740Y37543460I0J-94050D01*
G01*
G37*
G36*
G01*
X28253740Y36273460D02*
X28253740Y35709160D01*
G75*
G02*
X28159690Y35615110I-94050J0D01*
G01*
X26295390Y35615110D01*
G75*
G02*
X26201340Y35709160I0J94050D01*
G01*
X26201340Y36273460D01*
G75*
G02*
X26295390Y36367510I94050J0D01*
G01*
X28159690Y36367510D01*
G75*
G02*
X28253740Y36273460I0J-94050D01*
G01*
G37*
G36*
G01*
X28253740Y35003460D02*
X28253740Y34439160D01*
G75*
G02*
X28159690Y34345110I-94050J0D01*
G01*
X26295390Y34345110D01*
G75*
G02*
X26201340Y34439160I0J94050D01*
G01*
X26201340Y35003460D01*
G75*
G02*
X26295390Y35097510I94050J0D01*
G01*
X28159690Y35097510D01*
G75*
G02*
X28253740Y35003460I0J-94050D01*
G01*
G37*
G04 #@! TD*
G04 #@! TO.C,Q3*
G36*
G01*
X109796109Y32814372D02*
X109189891Y32464372D01*
G75*
G02*
X108848385Y32555878I-125000J216506D01*
G01*
X107998385Y34028122D01*
G75*
G02*
X108089891Y34369628I216506J125000D01*
G01*
X108696109Y34719628D01*
G75*
G02*
X109037615Y34628122I125000J-216506D01*
G01*
X109887615Y33155878D01*
G75*
G02*
X109796109Y32814372I-216506J-125000D01*
G01*
G37*
G36*
G01*
X111662508Y38741680D02*
X107072569Y36091677D01*
G75*
G02*
X106731066Y36183182I-124999J216504D01*
G01*
X103781063Y41292737D01*
G75*
G02*
X103872569Y41634240I216504J124999D01*
G01*
X108462508Y44284243D01*
G75*
G02*
X108804010Y44192737I124998J-216504D01*
G01*
X111754013Y39083182D01*
G75*
G02*
X111662508Y38741680I-216504J-124998D01*
G01*
G37*
G36*
G01*
X113745185Y35094372D02*
X113138967Y34744372D01*
G75*
G02*
X112797461Y34835878I-125000J216506D01*
G01*
X111947461Y36308122D01*
G75*
G02*
X112038967Y36649628I216506J125000D01*
G01*
X112645185Y36999628D01*
G75*
G02*
X112986691Y36908122I125000J-216506D01*
G01*
X113836691Y35435878D01*
G75*
G02*
X113745185Y35094372I-216506J-125000D01*
G01*
G37*
G04 #@! TD*
D17*
G04 #@! TO.C,M1*
X22089005Y10557001D03*
X22089005Y16956998D03*
X22089005Y18857001D03*
X22089005Y23157001D03*
D18*
X21639006Y25556998D03*
X21639006Y26556999D03*
D17*
X22089005Y29407001D03*
X37589002Y10106999D03*
X37589002Y11956998D03*
X37589002Y16907001D03*
X37589002Y28956999D03*
G04 #@! TD*
D11*
G04 #@! TO.C,Q13*
X137258000Y46252000D03*
X137258000Y48552000D03*
X137258000Y50852000D03*
D12*
X130958000Y48552000D03*
G04 #@! TD*
D11*
G04 #@! TO.C,Q8*
X121556000Y46011000D03*
X121556000Y43711000D03*
X121556000Y41411000D03*
D12*
X127856000Y43711000D03*
G04 #@! TD*
D14*
G04 #@! TO.C,INT_MAP*
X66495000Y56857000D03*
G04 #@! TD*
G04 #@! TO.C,C1*
G36*
G01*
X142344994Y3064999D02*
X141664994Y3064999D01*
G75*
G02*
X141579994Y3149999I0J85000D01*
G01*
X141579994Y3829999D01*
G75*
G02*
X141664994Y3914999I85000J0D01*
G01*
X142344994Y3914999D01*
G75*
G02*
X142429994Y3829999I0J-85000D01*
G01*
X142429994Y3149999D01*
G75*
G02*
X142344994Y3064999I-85000J0D01*
G01*
G37*
G36*
G01*
X142344994Y4645001D02*
X141664994Y4645001D01*
G75*
G02*
X141579994Y4730001I0J85000D01*
G01*
X141579994Y5410001D01*
G75*
G02*
X141664994Y5495001I85000J0D01*
G01*
X142344994Y5495001D01*
G75*
G02*
X142429994Y5410001I0J-85000D01*
G01*
X142429994Y4730001D01*
G75*
G02*
X142344994Y4645001I-85000J0D01*
G01*
G37*
G04 #@! TD*
G04 #@! TO.C,R10*
G36*
G01*
X98353071Y27066250D02*
X97963071Y27741750D01*
G75*
G02*
X97988693Y27837372I60622J35000D01*
G01*
X98473667Y28117372D01*
G75*
G02*
X98569289Y28091750I35000J-60622D01*
G01*
X98959289Y27416250D01*
G75*
G02*
X98933667Y27320628I-60622J-35000D01*
G01*
X98448693Y27040628D01*
G75*
G02*
X98353071Y27066250I-35000J60622D01*
G01*
G37*
G36*
G01*
X99738711Y27866250D02*
X99348711Y28541750D01*
G75*
G02*
X99374333Y28637372I60622J35000D01*
G01*
X99859307Y28917372D01*
G75*
G02*
X99954929Y28891750I35000J-60622D01*
G01*
X100344929Y28216250D01*
G75*
G02*
X100319307Y28120628I-60622J-35000D01*
G01*
X99834333Y27840628D01*
G75*
G02*
X99738711Y27866250I-35000J60622D01*
G01*
G37*
G04 #@! TD*
G04 #@! TO.C,R22*
G36*
G01*
X121357000Y38585928D02*
X121357000Y39365928D01*
G75*
G02*
X121427000Y39435928I70000J0D01*
G01*
X121987000Y39435928D01*
G75*
G02*
X122057000Y39365928I0J-70000D01*
G01*
X122057000Y38585928D01*
G75*
G02*
X121987000Y38515928I-70000J0D01*
G01*
X121427000Y38515928D01*
G75*
G02*
X121357000Y38585928I0J70000D01*
G01*
G37*
G36*
G01*
X122957000Y38585928D02*
X122957000Y39365928D01*
G75*
G02*
X123027000Y39435928I70000J0D01*
G01*
X123587000Y39435928D01*
G75*
G02*
X123657000Y39365928I0J-70000D01*
G01*
X123657000Y38585928D01*
G75*
G02*
X123587000Y38515928I-70000J0D01*
G01*
X123027000Y38515928D01*
G75*
G02*
X122957000Y38585928I0J70000D01*
G01*
G37*
G04 #@! TD*
G04 #@! TO.C,C5*
G36*
G01*
X32081440Y44859160D02*
X32421440Y44859160D01*
G75*
G02*
X32561440Y44719160I0J-140000D01*
G01*
X32561440Y44439160D01*
G75*
G02*
X32421440Y44299160I-140000J0D01*
G01*
X32081440Y44299160D01*
G75*
G02*
X31941440Y44439160I0J140000D01*
G01*
X31941440Y44719160D01*
G75*
G02*
X32081440Y44859160I140000J0D01*
G01*
G37*
G36*
G01*
X32081440Y43899160D02*
X32421440Y43899160D01*
G75*
G02*
X32561440Y43759160I0J-140000D01*
G01*
X32561440Y43479160D01*
G75*
G02*
X32421440Y43339160I-140000J0D01*
G01*
X32081440Y43339160D01*
G75*
G02*
X31941440Y43479160I0J140000D01*
G01*
X31941440Y43759160D01*
G75*
G02*
X32081440Y43899160I140000J0D01*
G01*
G37*
G04 #@! TD*
G04 #@! TO.C,R37*
G36*
G01*
X16536680Y41576520D02*
X16536680Y41206520D01*
G75*
G02*
X16401680Y41071520I-135000J0D01*
G01*
X16131680Y41071520D01*
G75*
G02*
X15996680Y41206520I0J135000D01*
G01*
X15996680Y41576520D01*
G75*
G02*
X16131680Y41711520I135000J0D01*
G01*
X16401680Y41711520D01*
G75*
G02*
X16536680Y41576520I0J-135000D01*
G01*
G37*
G36*
G01*
X15516680Y41576520D02*
X15516680Y41206520D01*
G75*
G02*
X15381680Y41071520I-135000J0D01*
G01*
X15111680Y41071520D01*
G75*
G02*
X14976680Y41206520I0J135000D01*
G01*
X14976680Y41576520D01*
G75*
G02*
X15111680Y41711520I135000J0D01*
G01*
X15381680Y41711520D01*
G75*
G02*
X15516680Y41576520I0J-135000D01*
G01*
G37*
G04 #@! TD*
G04 #@! TO.C,IC2A1*
G36*
G01*
X10437170Y44356670D02*
X9872870Y44356670D01*
G75*
G02*
X9778820Y44450720I0J94050D01*
G01*
X9778820Y46315020D01*
G75*
G02*
X9872870Y46409070I94050J0D01*
G01*
X10437170Y46409070D01*
G75*
G02*
X10531220Y46315020I0J-94050D01*
G01*
X10531220Y44450720D01*
G75*
G02*
X10437170Y44356670I-94050J0D01*
G01*
G37*
G36*
G01*
X11707170Y44356670D02*
X11142870Y44356670D01*
G75*
G02*
X11048820Y44450720I0J94050D01*
G01*
X11048820Y46315020D01*
G75*
G02*
X11142870Y46409070I94050J0D01*
G01*
X11707170Y46409070D01*
G75*
G02*
X11801220Y46315020I0J-94050D01*
G01*
X11801220Y44450720D01*
G75*
G02*
X11707170Y44356670I-94050J0D01*
G01*
G37*
G36*
G01*
X12977170Y44356670D02*
X12412870Y44356670D01*
G75*
G02*
X12318820Y44450720I0J94050D01*
G01*
X12318820Y46315020D01*
G75*
G02*
X12412870Y46409070I94050J0D01*
G01*
X12977170Y46409070D01*
G75*
G02*
X13071220Y46315020I0J-94050D01*
G01*
X13071220Y44450720D01*
G75*
G02*
X12977170Y44356670I-94050J0D01*
G01*
G37*
G36*
G01*
X14247170Y44356670D02*
X13682870Y44356670D01*
G75*
G02*
X13588820Y44450720I0J94050D01*
G01*
X13588820Y46315020D01*
G75*
G02*
X13682870Y46409070I94050J0D01*
G01*
X14247170Y46409070D01*
G75*
G02*
X14341220Y46315020I0J-94050D01*
G01*
X14341220Y44450720D01*
G75*
G02*
X14247170Y44356670I-94050J0D01*
G01*
G37*
G36*
G01*
X15517170Y44356670D02*
X14952870Y44356670D01*
G75*
G02*
X14858820Y44450720I0J94050D01*
G01*
X14858820Y46315020D01*
G75*
G02*
X14952870Y46409070I94050J0D01*
G01*
X15517170Y46409070D01*
G75*
G02*
X15611220Y46315020I0J-94050D01*
G01*
X15611220Y44450720D01*
G75*
G02*
X15517170Y44356670I-94050J0D01*
G01*
G37*
G36*
G01*
X16787170Y44356670D02*
X16222870Y44356670D01*
G75*
G02*
X16128820Y44450720I0J94050D01*
G01*
X16128820Y46315020D01*
G75*
G02*
X16222870Y46409070I94050J0D01*
G01*
X16787170Y46409070D01*
G75*
G02*
X16881220Y46315020I0J-94050D01*
G01*
X16881220Y44450720D01*
G75*
G02*
X16787170Y44356670I-94050J0D01*
G01*
G37*
G36*
G01*
X18057170Y44356670D02*
X17492870Y44356670D01*
G75*
G02*
X17398820Y44450720I0J94050D01*
G01*
X17398820Y46315020D01*
G75*
G02*
X17492870Y46409070I94050J0D01*
G01*
X18057170Y46409070D01*
G75*
G02*
X18151220Y46315020I0J-94050D01*
G01*
X18151220Y44450720D01*
G75*
G02*
X18057170Y44356670I-94050J0D01*
G01*
G37*
G36*
G01*
X18057170Y49266670D02*
X17492870Y49266670D01*
G75*
G02*
X17398820Y49360720I0J94050D01*
G01*
X17398820Y51225020D01*
G75*
G02*
X17492870Y51319070I94050J0D01*
G01*
X18057170Y51319070D01*
G75*
G02*
X18151220Y51225020I0J-94050D01*
G01*
X18151220Y49360720D01*
G75*
G02*
X18057170Y49266670I-94050J0D01*
G01*
G37*
G36*
G01*
X16787170Y49266670D02*
X16222870Y49266670D01*
G75*
G02*
X16128820Y49360720I0J94050D01*
G01*
X16128820Y51225020D01*
G75*
G02*
X16222870Y51319070I94050J0D01*
G01*
X16787170Y51319070D01*
G75*
G02*
X16881220Y51225020I0J-94050D01*
G01*
X16881220Y49360720D01*
G75*
G02*
X16787170Y49266670I-94050J0D01*
G01*
G37*
G36*
G01*
X15517170Y49266670D02*
X14952870Y49266670D01*
G75*
G02*
X14858820Y49360720I0J94050D01*
G01*
X14858820Y51225020D01*
G75*
G02*
X14952870Y51319070I94050J0D01*
G01*
X15517170Y51319070D01*
G75*
G02*
X15611220Y51225020I0J-94050D01*
G01*
X15611220Y49360720D01*
G75*
G02*
X15517170Y49266670I-94050J0D01*
G01*
G37*
G36*
G01*
X14247170Y49266670D02*
X13682870Y49266670D01*
G75*
G02*
X13588820Y49360720I0J94050D01*
G01*
X13588820Y51225020D01*
G75*
G02*
X13682870Y51319070I94050J0D01*
G01*
X14247170Y51319070D01*
G75*
G02*
X14341220Y51225020I0J-94050D01*
G01*
X14341220Y49360720D01*
G75*
G02*
X14247170Y49266670I-94050J0D01*
G01*
G37*
G36*
G01*
X12977170Y49266670D02*
X12412870Y49266670D01*
G75*
G02*
X12318820Y49360720I0J94050D01*
G01*
X12318820Y51225020D01*
G75*
G02*
X12412870Y51319070I94050J0D01*
G01*
X12977170Y51319070D01*
G75*
G02*
X13071220Y51225020I0J-94050D01*
G01*
X13071220Y49360720D01*
G75*
G02*
X12977170Y49266670I-94050J0D01*
G01*
G37*
G36*
G01*
X11707170Y49266670D02*
X11142870Y49266670D01*
G75*
G02*
X11048820Y49360720I0J94050D01*
G01*
X11048820Y51225020D01*
G75*
G02*
X11142870Y51319070I94050J0D01*
G01*
X11707170Y51319070D01*
G75*
G02*
X11801220Y51225020I0J-94050D01*
G01*
X11801220Y49360720D01*
G75*
G02*
X11707170Y49266670I-94050J0D01*
G01*
G37*
G36*
G01*
X10437170Y49266670D02*
X9872870Y49266670D01*
G75*
G02*
X9778820Y49360720I0J94050D01*
G01*
X9778820Y51225020D01*
G75*
G02*
X9872870Y51319070I94050J0D01*
G01*
X10437170Y51319070D01*
G75*
G02*
X10531220Y51225020I0J-94050D01*
G01*
X10531220Y49360720D01*
G75*
G02*
X10437170Y49266670I-94050J0D01*
G01*
G37*
G04 #@! TD*
G04 #@! TO.C,R11*
G36*
G01*
X109890071Y31201250D02*
X109500071Y31876750D01*
G75*
G02*
X109525693Y31972372I60622J35000D01*
G01*
X110010667Y32252372D01*
G75*
G02*
X110106289Y32226750I35000J-60622D01*
G01*
X110496289Y31551250D01*
G75*
G02*
X110470667Y31455628I-60622J-35000D01*
G01*
X109985693Y31175628D01*
G75*
G02*
X109890071Y31201250I-35000J60622D01*
G01*
G37*
G36*
G01*
X111275711Y32001250D02*
X110885711Y32676750D01*
G75*
G02*
X110911333Y32772372I60622J35000D01*
G01*
X111396307Y33052372D01*
G75*
G02*
X111491929Y33026750I35000J-60622D01*
G01*
X111881929Y32351250D01*
G75*
G02*
X111856307Y32255628I-60622J-35000D01*
G01*
X111371333Y31975628D01*
G75*
G02*
X111275711Y32001250I-35000J60622D01*
G01*
G37*
G04 #@! TD*
D19*
G04 #@! TO.C,J4*
X59507000Y9220000D03*
X100507000Y9220000D03*
D20*
X66007000Y13720000D03*
D21*
X70007000Y13720000D03*
X74007000Y13720000D03*
X78007000Y13720000D03*
X82007000Y13720000D03*
X86007000Y13720000D03*
X90007000Y13720000D03*
X94007000Y13720000D03*
X68007000Y9720000D03*
X72007000Y9720000D03*
X76007000Y9720000D03*
X80007000Y9720000D03*
X84007000Y9720000D03*
X88007000Y9720000D03*
X92007000Y9720000D03*
X66007000Y5720000D03*
X70007000Y5720000D03*
X74007000Y5720000D03*
X78007000Y5720000D03*
X82007000Y5720000D03*
X86007000Y5720000D03*
X90007000Y5720000D03*
X94007000Y5720000D03*
G04 #@! TD*
G04 #@! TO.C,Q2*
G36*
G01*
X98171571Y28713065D02*
X97565353Y28363065D01*
G75*
G02*
X97223847Y28454571I-125000J216506D01*
G01*
X96373847Y29926815D01*
G75*
G02*
X96465353Y30268321I216506J125000D01*
G01*
X97071571Y30618321D01*
G75*
G02*
X97413077Y30526815I125000J-216506D01*
G01*
X98263077Y29054571D01*
G75*
G02*
X98171571Y28713065I-216506J-125000D01*
G01*
G37*
G36*
G01*
X100037970Y34640373D02*
X95448031Y31990370D01*
G75*
G02*
X95106528Y32081875I-124999J216504D01*
G01*
X92156525Y37191430D01*
G75*
G02*
X92248031Y37532933I216504J124999D01*
G01*
X96837970Y40182936D01*
G75*
G02*
X97179472Y40091430I124998J-216504D01*
G01*
X100129475Y34981875D01*
G75*
G02*
X100037970Y34640373I-216504J-124998D01*
G01*
G37*
G36*
G01*
X102120647Y30993065D02*
X101514429Y30643065D01*
G75*
G02*
X101172923Y30734571I-125000J216506D01*
G01*
X100322923Y32206815D01*
G75*
G02*
X100414429Y32548321I216506J125000D01*
G01*
X101020647Y32898321D01*
G75*
G02*
X101362153Y32806815I125000J-216506D01*
G01*
X102212153Y31334571D01*
G75*
G02*
X102120647Y30993065I-216506J-125000D01*
G01*
G37*
G04 #@! TD*
D13*
G04 #@! TO.C,H2*
X4425000Y52681000D03*
G04 #@! TD*
G04 #@! TO.C,U1*
G36*
G01*
X150375000Y59331001D02*
X150375000Y60930999D01*
G75*
G02*
X150625001Y61181000I250001J0D01*
G01*
X152224999Y61181000D01*
G75*
G02*
X152475000Y60930999I0J-250001D01*
G01*
X152475000Y59331001D01*
G75*
G02*
X152224999Y59081000I-250001J0D01*
G01*
X150625001Y59081000D01*
G75*
G02*
X150375000Y59331001I0J250001D01*
G01*
G37*
G36*
G01*
X144675000Y59331001D02*
X144675000Y60930999D01*
G75*
G02*
X144925001Y61181000I250001J0D01*
G01*
X146524999Y61181000D01*
G75*
G02*
X146775000Y60930999I0J-250001D01*
G01*
X146775000Y59331001D01*
G75*
G02*
X146524999Y59081000I-250001J0D01*
G01*
X144925001Y59081000D01*
G75*
G02*
X144675000Y59331001I0J250001D01*
G01*
G37*
G36*
G01*
X138975000Y59331001D02*
X138975000Y60930999D01*
G75*
G02*
X139225001Y61181000I250001J0D01*
G01*
X140824999Y61181000D01*
G75*
G02*
X141075000Y60930999I0J-250001D01*
G01*
X141075000Y59331001D01*
G75*
G02*
X140824999Y59081000I-250001J0D01*
G01*
X139225001Y59081000D01*
G75*
G02*
X138975000Y59331001I0J250001D01*
G01*
G37*
G36*
G01*
X133275000Y59331001D02*
X133275000Y60930999D01*
G75*
G02*
X133525001Y61181000I250001J0D01*
G01*
X135124999Y61181000D01*
G75*
G02*
X135375000Y60930999I0J-250001D01*
G01*
X135375000Y59331001D01*
G75*
G02*
X135124999Y59081000I-250001J0D01*
G01*
X133525001Y59081000D01*
G75*
G02*
X133275000Y59331001I0J250001D01*
G01*
G37*
G36*
G01*
X127575000Y59331001D02*
X127575000Y60930999D01*
G75*
G02*
X127825001Y61181000I250001J0D01*
G01*
X129424999Y61181000D01*
G75*
G02*
X129675000Y60930999I0J-250001D01*
G01*
X129675000Y59331001D01*
G75*
G02*
X129424999Y59081000I-250001J0D01*
G01*
X127825001Y59081000D01*
G75*
G02*
X127575000Y59331001I0J250001D01*
G01*
G37*
G36*
G01*
X121875000Y59331001D02*
X121875000Y60930999D01*
G75*
G02*
X122125001Y61181000I250001J0D01*
G01*
X123724999Y61181000D01*
G75*
G02*
X123975000Y60930999I0J-250001D01*
G01*
X123975000Y59331001D01*
G75*
G02*
X123724999Y59081000I-250001J0D01*
G01*
X122125001Y59081000D01*
G75*
G02*
X121875000Y59331001I0J250001D01*
G01*
G37*
G36*
G01*
X116175000Y59331001D02*
X116175000Y60930999D01*
G75*
G02*
X116425001Y61181000I250001J0D01*
G01*
X118024999Y61181000D01*
G75*
G02*
X118275000Y60930999I0J-250001D01*
G01*
X118275000Y59331001D01*
G75*
G02*
X118024999Y59081000I-250001J0D01*
G01*
X116425001Y59081000D01*
G75*
G02*
X116175000Y59331001I0J250001D01*
G01*
G37*
G36*
G01*
X110475000Y59331001D02*
X110475000Y60930999D01*
G75*
G02*
X110725001Y61181000I250001J0D01*
G01*
X112324999Y61181000D01*
G75*
G02*
X112575000Y60930999I0J-250001D01*
G01*
X112575000Y59331001D01*
G75*
G02*
X112324999Y59081000I-250001J0D01*
G01*
X110725001Y59081000D01*
G75*
G02*
X110475000Y59331001I0J250001D01*
G01*
G37*
G36*
G01*
X104775000Y59331001D02*
X104775000Y60930999D01*
G75*
G02*
X105025001Y61181000I250001J0D01*
G01*
X106624999Y61181000D01*
G75*
G02*
X106875000Y60930999I0J-250001D01*
G01*
X106875000Y59331001D01*
G75*
G02*
X106624999Y59081000I-250001J0D01*
G01*
X105025001Y59081000D01*
G75*
G02*
X104775000Y59331001I0J250001D01*
G01*
G37*
G36*
G01*
X99075000Y59331001D02*
X99075000Y60930999D01*
G75*
G02*
X99325001Y61181000I250001J0D01*
G01*
X100924999Y61181000D01*
G75*
G02*
X101175000Y60930999I0J-250001D01*
G01*
X101175000Y59331001D01*
G75*
G02*
X100924999Y59081000I-250001J0D01*
G01*
X99325001Y59081000D01*
G75*
G02*
X99075000Y59331001I0J250001D01*
G01*
G37*
G36*
G01*
X93375000Y59331001D02*
X93375000Y60930999D01*
G75*
G02*
X93625001Y61181000I250001J0D01*
G01*
X95224999Y61181000D01*
G75*
G02*
X95475000Y60930999I0J-250001D01*
G01*
X95475000Y59331001D01*
G75*
G02*
X95224999Y59081000I-250001J0D01*
G01*
X93625001Y59081000D01*
G75*
G02*
X93375000Y59331001I0J250001D01*
G01*
G37*
G36*
G01*
X150375000Y63431001D02*
X150375000Y65030999D01*
G75*
G02*
X150625001Y65281000I250001J0D01*
G01*
X152224999Y65281000D01*
G75*
G02*
X152475000Y65030999I0J-250001D01*
G01*
X152475000Y63431001D01*
G75*
G02*
X152224999Y63181000I-250001J0D01*
G01*
X150625001Y63181000D01*
G75*
G02*
X150375000Y63431001I0J250001D01*
G01*
G37*
G36*
G01*
X144675000Y63431001D02*
X144675000Y65030999D01*
G75*
G02*
X144925001Y65281000I250001J0D01*
G01*
X146524999Y65281000D01*
G75*
G02*
X146775000Y65030999I0J-250001D01*
G01*
X146775000Y63431001D01*
G75*
G02*
X146524999Y63181000I-250001J0D01*
G01*
X144925001Y63181000D01*
G75*
G02*
X144675000Y63431001I0J250001D01*
G01*
G37*
G36*
G01*
X138975000Y63431001D02*
X138975000Y65030999D01*
G75*
G02*
X139225001Y65281000I250001J0D01*
G01*
X140824999Y65281000D01*
G75*
G02*
X141075000Y65030999I0J-250001D01*
G01*
X141075000Y63431001D01*
G75*
G02*
X140824999Y63181000I-250001J0D01*
G01*
X139225001Y63181000D01*
G75*
G02*
X138975000Y63431001I0J250001D01*
G01*
G37*
G36*
G01*
X133275000Y63431001D02*
X133275000Y65030999D01*
G75*
G02*
X133525001Y65281000I250001J0D01*
G01*
X135124999Y65281000D01*
G75*
G02*
X135375000Y65030999I0J-250001D01*
G01*
X135375000Y63431001D01*
G75*
G02*
X135124999Y63181000I-250001J0D01*
G01*
X133525001Y63181000D01*
G75*
G02*
X133275000Y63431001I0J250001D01*
G01*
G37*
G36*
G01*
X127575000Y63431001D02*
X127575000Y65030999D01*
G75*
G02*
X127825001Y65281000I250001J0D01*
G01*
X129424999Y65281000D01*
G75*
G02*
X129675000Y65030999I0J-250001D01*
G01*
X129675000Y63431001D01*
G75*
G02*
X129424999Y63181000I-250001J0D01*
G01*
X127825001Y63181000D01*
G75*
G02*
X127575000Y63431001I0J250001D01*
G01*
G37*
G36*
G01*
X121875000Y63431001D02*
X121875000Y65030999D01*
G75*
G02*
X122125001Y65281000I250001J0D01*
G01*
X123724999Y65281000D01*
G75*
G02*
X123975000Y65030999I0J-250001D01*
G01*
X123975000Y63431001D01*
G75*
G02*
X123724999Y63181000I-250001J0D01*
G01*
X122125001Y63181000D01*
G75*
G02*
X121875000Y63431001I0J250001D01*
G01*
G37*
G36*
G01*
X116175000Y63431001D02*
X116175000Y65030999D01*
G75*
G02*
X116425001Y65281000I250001J0D01*
G01*
X118024999Y65281000D01*
G75*
G02*
X118275000Y65030999I0J-250001D01*
G01*
X118275000Y63431001D01*
G75*
G02*
X118024999Y63181000I-250001J0D01*
G01*
X116425001Y63181000D01*
G75*
G02*
X116175000Y63431001I0J250001D01*
G01*
G37*
G36*
G01*
X110475000Y63431001D02*
X110475000Y65030999D01*
G75*
G02*
X110725001Y65281000I250001J0D01*
G01*
X112324999Y65281000D01*
G75*
G02*
X112575000Y65030999I0J-250001D01*
G01*
X112575000Y63431001D01*
G75*
G02*
X112324999Y63181000I-250001J0D01*
G01*
X110725001Y63181000D01*
G75*
G02*
X110475000Y63431001I0J250001D01*
G01*
G37*
G36*
G01*
X104775000Y63431001D02*
X104775000Y65030999D01*
G75*
G02*
X105025001Y65281000I250001J0D01*
G01*
X106624999Y65281000D01*
G75*
G02*
X106875000Y65030999I0J-250001D01*
G01*
X106875000Y63431001D01*
G75*
G02*
X106624999Y63181000I-250001J0D01*
G01*
X105025001Y63181000D01*
G75*
G02*
X104775000Y63431001I0J250001D01*
G01*
G37*
G36*
G01*
X99075000Y63431001D02*
X99075000Y65030999D01*
G75*
G02*
X99325001Y65281000I250001J0D01*
G01*
X100924999Y65281000D01*
G75*
G02*
X101175000Y65030999I0J-250001D01*
G01*
X101175000Y63431001D01*
G75*
G02*
X100924999Y63181000I-250001J0D01*
G01*
X99325001Y63181000D01*
G75*
G02*
X99075000Y63431001I0J250001D01*
G01*
G37*
G36*
G01*
X93375000Y63431001D02*
X93375000Y65030999D01*
G75*
G02*
X93625001Y65281000I250001J0D01*
G01*
X95224999Y65281000D01*
G75*
G02*
X95475000Y65030999I0J-250001D01*
G01*
X95475000Y63431001D01*
G75*
G02*
X95224999Y63181000I-250001J0D01*
G01*
X93625001Y63181000D01*
G75*
G02*
X93375000Y63431001I0J250001D01*
G01*
G37*
G36*
G01*
X64375000Y59381001D02*
X64375000Y60980999D01*
G75*
G02*
X64625001Y61231000I250001J0D01*
G01*
X66224999Y61231000D01*
G75*
G02*
X66475000Y60980999I0J-250001D01*
G01*
X66475000Y59381001D01*
G75*
G02*
X66224999Y59131000I-250001J0D01*
G01*
X64625001Y59131000D01*
G75*
G02*
X64375000Y59381001I0J250001D01*
G01*
G37*
G36*
G01*
X58675000Y59381001D02*
X58675000Y60980999D01*
G75*
G02*
X58925001Y61231000I250001J0D01*
G01*
X60524999Y61231000D01*
G75*
G02*
X60775000Y60980999I0J-250001D01*
G01*
X60775000Y59381001D01*
G75*
G02*
X60524999Y59131000I-250001J0D01*
G01*
X58925001Y59131000D01*
G75*
G02*
X58675000Y59381001I0J250001D01*
G01*
G37*
G36*
G01*
X52975000Y59381001D02*
X52975000Y60980999D01*
G75*
G02*
X53225001Y61231000I250001J0D01*
G01*
X54824999Y61231000D01*
G75*
G02*
X55075000Y60980999I0J-250001D01*
G01*
X55075000Y59381001D01*
G75*
G02*
X54824999Y59131000I-250001J0D01*
G01*
X53225001Y59131000D01*
G75*
G02*
X52975000Y59381001I0J250001D01*
G01*
G37*
G36*
G01*
X47275000Y59381001D02*
X47275000Y60980999D01*
G75*
G02*
X47525001Y61231000I250001J0D01*
G01*
X49124999Y61231000D01*
G75*
G02*
X49375000Y60980999I0J-250001D01*
G01*
X49375000Y59381001D01*
G75*
G02*
X49124999Y59131000I-250001J0D01*
G01*
X47525001Y59131000D01*
G75*
G02*
X47275000Y59381001I0J250001D01*
G01*
G37*
G36*
G01*
X41575000Y59381001D02*
X41575000Y60980999D01*
G75*
G02*
X41825001Y61231000I250001J0D01*
G01*
X43424999Y61231000D01*
G75*
G02*
X43675000Y60980999I0J-250001D01*
G01*
X43675000Y59381001D01*
G75*
G02*
X43424999Y59131000I-250001J0D01*
G01*
X41825001Y59131000D01*
G75*
G02*
X41575000Y59381001I0J250001D01*
G01*
G37*
G36*
G01*
X35875000Y59381001D02*
X35875000Y60980999D01*
G75*
G02*
X36125001Y61231000I250001J0D01*
G01*
X37724999Y61231000D01*
G75*
G02*
X37975000Y60980999I0J-250001D01*
G01*
X37975000Y59381001D01*
G75*
G02*
X37724999Y59131000I-250001J0D01*
G01*
X36125001Y59131000D01*
G75*
G02*
X35875000Y59381001I0J250001D01*
G01*
G37*
G36*
G01*
X30175000Y59381001D02*
X30175000Y60980999D01*
G75*
G02*
X30425001Y61231000I250001J0D01*
G01*
X32024999Y61231000D01*
G75*
G02*
X32275000Y60980999I0J-250001D01*
G01*
X32275000Y59381001D01*
G75*
G02*
X32024999Y59131000I-250001J0D01*
G01*
X30425001Y59131000D01*
G75*
G02*
X30175000Y59381001I0J250001D01*
G01*
G37*
G36*
G01*
X24475000Y59381001D02*
X24475000Y60980999D01*
G75*
G02*
X24725001Y61231000I250001J0D01*
G01*
X26324999Y61231000D01*
G75*
G02*
X26575000Y60980999I0J-250001D01*
G01*
X26575000Y59381001D01*
G75*
G02*
X26324999Y59131000I-250001J0D01*
G01*
X24725001Y59131000D01*
G75*
G02*
X24475000Y59381001I0J250001D01*
G01*
G37*
G36*
G01*
X18775000Y59381001D02*
X18775000Y60980999D01*
G75*
G02*
X19025001Y61231000I250001J0D01*
G01*
X20624999Y61231000D01*
G75*
G02*
X20875000Y60980999I0J-250001D01*
G01*
X20875000Y59381001D01*
G75*
G02*
X20624999Y59131000I-250001J0D01*
G01*
X19025001Y59131000D01*
G75*
G02*
X18775000Y59381001I0J250001D01*
G01*
G37*
G36*
G01*
X13075000Y59381001D02*
X13075000Y60980999D01*
G75*
G02*
X13325001Y61231000I250001J0D01*
G01*
X14924999Y61231000D01*
G75*
G02*
X15175000Y60980999I0J-250001D01*
G01*
X15175000Y59381001D01*
G75*
G02*
X14924999Y59131000I-250001J0D01*
G01*
X13325001Y59131000D01*
G75*
G02*
X13075000Y59381001I0J250001D01*
G01*
G37*
G36*
G01*
X7375000Y59381001D02*
X7375000Y60980999D01*
G75*
G02*
X7625001Y61231000I250001J0D01*
G01*
X9224999Y61231000D01*
G75*
G02*
X9475000Y60980999I0J-250001D01*
G01*
X9475000Y59381001D01*
G75*
G02*
X9224999Y59131000I-250001J0D01*
G01*
X7625001Y59131000D01*
G75*
G02*
X7375000Y59381001I0J250001D01*
G01*
G37*
G36*
G01*
X64375000Y63481001D02*
X64375000Y65080999D01*
G75*
G02*
X64625001Y65331000I250001J0D01*
G01*
X66224999Y65331000D01*
G75*
G02*
X66475000Y65080999I0J-250001D01*
G01*
X66475000Y63481001D01*
G75*
G02*
X66224999Y63231000I-250001J0D01*
G01*
X64625001Y63231000D01*
G75*
G02*
X64375000Y63481001I0J250001D01*
G01*
G37*
G36*
G01*
X58675000Y63481001D02*
X58675000Y65080999D01*
G75*
G02*
X58925001Y65331000I250001J0D01*
G01*
X60524999Y65331000D01*
G75*
G02*
X60775000Y65080999I0J-250001D01*
G01*
X60775000Y63481001D01*
G75*
G02*
X60524999Y63231000I-250001J0D01*
G01*
X58925001Y63231000D01*
G75*
G02*
X58675000Y63481001I0J250001D01*
G01*
G37*
G36*
G01*
X52975000Y63481001D02*
X52975000Y65080999D01*
G75*
G02*
X53225001Y65331000I250001J0D01*
G01*
X54824999Y65331000D01*
G75*
G02*
X55075000Y65080999I0J-250001D01*
G01*
X55075000Y63481001D01*
G75*
G02*
X54824999Y63231000I-250001J0D01*
G01*
X53225001Y63231000D01*
G75*
G02*
X52975000Y63481001I0J250001D01*
G01*
G37*
G36*
G01*
X47275000Y63481001D02*
X47275000Y65080999D01*
G75*
G02*
X47525001Y65331000I250001J0D01*
G01*
X49124999Y65331000D01*
G75*
G02*
X49375000Y65080999I0J-250001D01*
G01*
X49375000Y63481001D01*
G75*
G02*
X49124999Y63231000I-250001J0D01*
G01*
X47525001Y63231000D01*
G75*
G02*
X47275000Y63481001I0J250001D01*
G01*
G37*
G36*
G01*
X41575000Y63481001D02*
X41575000Y65080999D01*
G75*
G02*
X41825001Y65331000I250001J0D01*
G01*
X43424999Y65331000D01*
G75*
G02*
X43675000Y65080999I0J-250001D01*
G01*
X43675000Y63481001D01*
G75*
G02*
X43424999Y63231000I-250001J0D01*
G01*
X41825001Y63231000D01*
G75*
G02*
X41575000Y63481001I0J250001D01*
G01*
G37*
G36*
G01*
X35875000Y63481001D02*
X35875000Y65080999D01*
G75*
G02*
X36125001Y65331000I250001J0D01*
G01*
X37724999Y65331000D01*
G75*
G02*
X37975000Y65080999I0J-250001D01*
G01*
X37975000Y63481001D01*
G75*
G02*
X37724999Y63231000I-250001J0D01*
G01*
X36125001Y63231000D01*
G75*
G02*
X35875000Y63481001I0J250001D01*
G01*
G37*
G36*
G01*
X30175000Y63481001D02*
X30175000Y65080999D01*
G75*
G02*
X30425001Y65331000I250001J0D01*
G01*
X32024999Y65331000D01*
G75*
G02*
X32275000Y65080999I0J-250001D01*
G01*
X32275000Y63481001D01*
G75*
G02*
X32024999Y63231000I-250001J0D01*
G01*
X30425001Y63231000D01*
G75*
G02*
X30175000Y63481001I0J250001D01*
G01*
G37*
G36*
G01*
X24475000Y63481001D02*
X24475000Y65080999D01*
G75*
G02*
X24725001Y65331000I250001J0D01*
G01*
X26324999Y65331000D01*
G75*
G02*
X26575000Y65080999I0J-250001D01*
G01*
X26575000Y63481001D01*
G75*
G02*
X26324999Y63231000I-250001J0D01*
G01*
X24725001Y63231000D01*
G75*
G02*
X24475000Y63481001I0J250001D01*
G01*
G37*
G36*
G01*
X18775000Y63481001D02*
X18775000Y65080999D01*
G75*
G02*
X19025001Y65331000I250001J0D01*
G01*
X20624999Y65331000D01*
G75*
G02*
X20875000Y65080999I0J-250001D01*
G01*
X20875000Y63481001D01*
G75*
G02*
X20624999Y63231000I-250001J0D01*
G01*
X19025001Y63231000D01*
G75*
G02*
X18775000Y63481001I0J250001D01*
G01*
G37*
G36*
G01*
X13075000Y63481001D02*
X13075000Y65080999D01*
G75*
G02*
X13325001Y65331000I250001J0D01*
G01*
X14924999Y65331000D01*
G75*
G02*
X15175000Y65080999I0J-250001D01*
G01*
X15175000Y63481001D01*
G75*
G02*
X14924999Y63231000I-250001J0D01*
G01*
X13325001Y63231000D01*
G75*
G02*
X13075000Y63481001I0J250001D01*
G01*
G37*
G36*
G01*
X7375000Y63481001D02*
X7375000Y65080999D01*
G75*
G02*
X7625001Y65331000I250001J0D01*
G01*
X9224999Y65331000D01*
G75*
G02*
X9475000Y65080999I0J-250001D01*
G01*
X9475000Y63481001D01*
G75*
G02*
X9224999Y63231000I-250001J0D01*
G01*
X7625001Y63231000D01*
G75*
G02*
X7375000Y63481001I0J250001D01*
G01*
G37*
G04 #@! TD*
D14*
G04 #@! TO.C,PPS1*
X74867000Y56403000D03*
G04 #@! TD*
G04 #@! TO.C,PPS2*
X61517000Y56713000D03*
G04 #@! TD*
G04 #@! TO.C,R21*
G36*
G01*
X129157000Y47623000D02*
X129157000Y46843000D01*
G75*
G02*
X129087000Y46773000I-70000J0D01*
G01*
X128527000Y46773000D01*
G75*
G02*
X128457000Y46843000I0J70000D01*
G01*
X128457000Y47623000D01*
G75*
G02*
X128527000Y47693000I70000J0D01*
G01*
X129087000Y47693000D01*
G75*
G02*
X129157000Y47623000I0J-70000D01*
G01*
G37*
G36*
G01*
X127557000Y47623000D02*
X127557000Y46843000D01*
G75*
G02*
X127487000Y46773000I-70000J0D01*
G01*
X126927000Y46773000D01*
G75*
G02*
X126857000Y46843000I0J70000D01*
G01*
X126857000Y47623000D01*
G75*
G02*
X126927000Y47693000I70000J0D01*
G01*
X127487000Y47693000D01*
G75*
G02*
X127557000Y47623000I0J-70000D01*
G01*
G37*
G04 #@! TD*
G04 #@! TO.C,R24*
G36*
G01*
X154292000Y31558000D02*
X154292000Y30778000D01*
G75*
G02*
X154222000Y30708000I-70000J0D01*
G01*
X153662000Y30708000D01*
G75*
G02*
X153592000Y30778000I0J70000D01*
G01*
X153592000Y31558000D01*
G75*
G02*
X153662000Y31628000I70000J0D01*
G01*
X154222000Y31628000D01*
G75*
G02*
X154292000Y31558000I0J-70000D01*
G01*
G37*
G36*
G01*
X152692000Y31558000D02*
X152692000Y30778000D01*
G75*
G02*
X152622000Y30708000I-70000J0D01*
G01*
X152062000Y30708000D01*
G75*
G02*
X151992000Y30778000I0J70000D01*
G01*
X151992000Y31558000D01*
G75*
G02*
X152062000Y31628000I70000J0D01*
G01*
X152622000Y31628000D01*
G75*
G02*
X152692000Y31558000I0J-70000D01*
G01*
G37*
G04 #@! TD*
D15*
G04 #@! TO.C,JP1*
X140970000Y13451000D03*
D16*
X140970000Y15991000D03*
G04 #@! TD*
D13*
G04 #@! TO.C,H4*
X132960000Y4651000D03*
G04 #@! TD*
G04 #@! TO.C,R33*
G36*
G01*
X34432000Y38413000D02*
X34062000Y38413000D01*
G75*
G02*
X33927000Y38548000I0J135000D01*
G01*
X33927000Y38818000D01*
G75*
G02*
X34062000Y38953000I135000J0D01*
G01*
X34432000Y38953000D01*
G75*
G02*
X34567000Y38818000I0J-135000D01*
G01*
X34567000Y38548000D01*
G75*
G02*
X34432000Y38413000I-135000J0D01*
G01*
G37*
G36*
G01*
X34432000Y39433000D02*
X34062000Y39433000D01*
G75*
G02*
X33927000Y39568000I0J135000D01*
G01*
X33927000Y39838000D01*
G75*
G02*
X34062000Y39973000I135000J0D01*
G01*
X34432000Y39973000D01*
G75*
G02*
X34567000Y39838000I0J-135000D01*
G01*
X34567000Y39568000D01*
G75*
G02*
X34432000Y39433000I-135000J0D01*
G01*
G37*
G04 #@! TD*
D11*
G04 #@! TO.C,Q15*
X145484000Y46095000D03*
X145484000Y43795000D03*
X145484000Y41495000D03*
D12*
X151784000Y43795000D03*
G04 #@! TD*
D22*
G04 #@! TO.C,J8*
X118752000Y5627000D03*
D23*
X119552000Y7377000D03*
X120352000Y5627000D03*
X121152000Y7377000D03*
X121952000Y5627000D03*
D24*
X116702000Y6502000D03*
X124002000Y6502000D03*
G04 #@! TD*
G04 #@! TO.C,C13A1*
G36*
G01*
X19484320Y52319320D02*
X19984320Y52319320D01*
G75*
G02*
X20209320Y52094320I0J-225000D01*
G01*
X20209320Y51644320D01*
G75*
G02*
X19984320Y51419320I-225000J0D01*
G01*
X19484320Y51419320D01*
G75*
G02*
X19259320Y51644320I0J225000D01*
G01*
X19259320Y52094320D01*
G75*
G02*
X19484320Y52319320I225000J0D01*
G01*
G37*
G36*
G01*
X19484320Y50769320D02*
X19984320Y50769320D01*
G75*
G02*
X20209320Y50544320I0J-225000D01*
G01*
X20209320Y50094320D01*
G75*
G02*
X19984320Y49869320I-225000J0D01*
G01*
X19484320Y49869320D01*
G75*
G02*
X19259320Y50094320I0J225000D01*
G01*
X19259320Y50544320D01*
G75*
G02*
X19484320Y50769320I225000J0D01*
G01*
G37*
G04 #@! TD*
G04 #@! TO.C,R4*
G36*
G01*
X18922000Y26813000D02*
X19292000Y26813000D01*
G75*
G02*
X19427000Y26678000I0J-135000D01*
G01*
X19427000Y26408000D01*
G75*
G02*
X19292000Y26273000I-135000J0D01*
G01*
X18922000Y26273000D01*
G75*
G02*
X18787000Y26408000I0J135000D01*
G01*
X18787000Y26678000D01*
G75*
G02*
X18922000Y26813000I135000J0D01*
G01*
G37*
G36*
G01*
X18922000Y25793000D02*
X19292000Y25793000D01*
G75*
G02*
X19427000Y25658000I0J-135000D01*
G01*
X19427000Y25388000D01*
G75*
G02*
X19292000Y25253000I-135000J0D01*
G01*
X18922000Y25253000D01*
G75*
G02*
X18787000Y25388000I0J135000D01*
G01*
X18787000Y25658000D01*
G75*
G02*
X18922000Y25793000I135000J0D01*
G01*
G37*
G04 #@! TD*
G04 #@! TO.C,R9*
G36*
G01*
X112994250Y42233929D02*
X113669750Y42623929D01*
G75*
G02*
X113765372Y42598307I35000J-60622D01*
G01*
X114045372Y42113333D01*
G75*
G02*
X114019750Y42017711I-60622J-35000D01*
G01*
X113344250Y41627711D01*
G75*
G02*
X113248628Y41653333I-35000J60622D01*
G01*
X112968628Y42138307D01*
G75*
G02*
X112994250Y42233929I60622J35000D01*
G01*
G37*
G36*
G01*
X113794250Y40848289D02*
X114469750Y41238289D01*
G75*
G02*
X114565372Y41212667I35000J-60622D01*
G01*
X114845372Y40727693D01*
G75*
G02*
X114819750Y40632071I-60622J-35000D01*
G01*
X114144250Y40242071D01*
G75*
G02*
X114048628Y40267693I-35000J60622D01*
G01*
X113768628Y40752667D01*
G75*
G02*
X113794250Y40848289I60622J35000D01*
G01*
G37*
G04 #@! TD*
G04 #@! TO.C,R15*
G36*
G01*
X98306071Y40154430D02*
X97916071Y40829930D01*
G75*
G02*
X97941693Y40925552I60622J35000D01*
G01*
X98426667Y41205552D01*
G75*
G02*
X98522289Y41179930I35000J-60622D01*
G01*
X98912289Y40504430D01*
G75*
G02*
X98886667Y40408808I-60622J-35000D01*
G01*
X98401693Y40128808D01*
G75*
G02*
X98306071Y40154430I-35000J60622D01*
G01*
G37*
G36*
G01*
X99691711Y40954430D02*
X99301711Y41629930D01*
G75*
G02*
X99327333Y41725552I60622J35000D01*
G01*
X99812307Y42005552D01*
G75*
G02*
X99907929Y41979930I35000J-60622D01*
G01*
X100297929Y41304430D01*
G75*
G02*
X100272307Y41208808I-60622J-35000D01*
G01*
X99787333Y40928808D01*
G75*
G02*
X99691711Y40954430I-35000J60622D01*
G01*
G37*
G04 #@! TD*
D11*
G04 #@! TO.C,Q10*
X149737000Y38082000D03*
X149737000Y35782000D03*
X149737000Y33482000D03*
D12*
X156037000Y35782000D03*
G04 #@! TD*
G04 #@! TO.C,R35*
G36*
G01*
X23417100Y37089180D02*
X23417100Y37459180D01*
G75*
G02*
X23552100Y37594180I135000J0D01*
G01*
X23822100Y37594180D01*
G75*
G02*
X23957100Y37459180I0J-135000D01*
G01*
X23957100Y37089180D01*
G75*
G02*
X23822100Y36954180I-135000J0D01*
G01*
X23552100Y36954180D01*
G75*
G02*
X23417100Y37089180I0J135000D01*
G01*
G37*
G36*
G01*
X24437100Y37089180D02*
X24437100Y37459180D01*
G75*
G02*
X24572100Y37594180I135000J0D01*
G01*
X24842100Y37594180D01*
G75*
G02*
X24977100Y37459180I0J-135000D01*
G01*
X24977100Y37089180D01*
G75*
G02*
X24842100Y36954180I-135000J0D01*
G01*
X24572100Y36954180D01*
G75*
G02*
X24437100Y37089180I0J135000D01*
G01*
G37*
G04 #@! TD*
D25*
G04 #@! TO.C,F2*
X25517588Y56584412D03*
G36*
G01*
X25832243Y54996964D02*
X25344340Y55484867D01*
G75*
G02*
X25344340Y55810137I162635J162635D01*
G01*
X26291863Y56757660D01*
G75*
G02*
X26617133Y56757660I162635J-162635D01*
G01*
X27105036Y56269757D01*
G75*
G02*
X27105036Y55944487I-162635J-162635D01*
G01*
X26157513Y54996964D01*
G75*
G02*
X25832243Y54996964I-162635J162635D01*
G01*
G37*
G36*
G01*
X27882867Y52946340D02*
X27394964Y53434243D01*
G75*
G02*
X27394964Y53759513I162635J162635D01*
G01*
X28342487Y54707036D01*
G75*
G02*
X28667757Y54707036I162635J-162635D01*
G01*
X29155660Y54219133D01*
G75*
G02*
X29155660Y53893863I-162635J-162635D01*
G01*
X28208137Y52946340D01*
G75*
G02*
X27882867Y52946340I-162635J162635D01*
G01*
G37*
X28982412Y53119588D03*
G04 #@! TD*
D26*
G04 #@! TO.C,U2*
X143909000Y21455000D03*
X143909000Y19955000D03*
X143909000Y18455000D03*
X143909000Y16955000D03*
X143909000Y15455000D03*
X143909000Y13955000D03*
X143909000Y12455000D03*
X143909000Y10955000D03*
X143909000Y9455000D03*
X143909000Y7955000D03*
X143909000Y6455000D03*
X143909000Y4955000D03*
X143909000Y3455000D03*
X156609000Y3455000D03*
X156609000Y4955000D03*
X156609000Y6455000D03*
X156609000Y7955000D03*
X156609000Y9455000D03*
X156609000Y10955000D03*
X156609000Y12455000D03*
X156609000Y13955000D03*
X156609000Y15455000D03*
X156609000Y16955000D03*
X156609000Y18455000D03*
X156609000Y19955000D03*
X156609000Y21455000D03*
G04 #@! TD*
G04 #@! TO.C,R36*
G36*
G01*
X13968300Y42573040D02*
X13968300Y42943040D01*
G75*
G02*
X14103300Y43078040I135000J0D01*
G01*
X14373300Y43078040D01*
G75*
G02*
X14508300Y42943040I0J-135000D01*
G01*
X14508300Y42573040D01*
G75*
G02*
X14373300Y42438040I-135000J0D01*
G01*
X14103300Y42438040D01*
G75*
G02*
X13968300Y42573040I0J135000D01*
G01*
G37*
G36*
G01*
X14988300Y42573040D02*
X14988300Y42943040D01*
G75*
G02*
X15123300Y43078040I135000J0D01*
G01*
X15393300Y43078040D01*
G75*
G02*
X15528300Y42943040I0J-135000D01*
G01*
X15528300Y42573040D01*
G75*
G02*
X15393300Y42438040I-135000J0D01*
G01*
X15123300Y42438040D01*
G75*
G02*
X14988300Y42573040I0J135000D01*
G01*
G37*
G04 #@! TD*
G04 #@! TO.C,R38*
G36*
G01*
X18936540Y46210320D02*
X18936540Y46580320D01*
G75*
G02*
X19071540Y46715320I135000J0D01*
G01*
X19341540Y46715320D01*
G75*
G02*
X19476540Y46580320I0J-135000D01*
G01*
X19476540Y46210320D01*
G75*
G02*
X19341540Y46075320I-135000J0D01*
G01*
X19071540Y46075320D01*
G75*
G02*
X18936540Y46210320I0J135000D01*
G01*
G37*
G36*
G01*
X19956540Y46210320D02*
X19956540Y46580320D01*
G75*
G02*
X20091540Y46715320I135000J0D01*
G01*
X20361540Y46715320D01*
G75*
G02*
X20496540Y46580320I0J-135000D01*
G01*
X20496540Y46210320D01*
G75*
G02*
X20361540Y46075320I-135000J0D01*
G01*
X20091540Y46075320D01*
G75*
G02*
X19956540Y46210320I0J135000D01*
G01*
G37*
G04 #@! TD*
G04 #@! TO.C,R23*
G36*
G01*
X130257000Y30423000D02*
X130257000Y29643000D01*
G75*
G02*
X130187000Y29573000I-70000J0D01*
G01*
X129627000Y29573000D01*
G75*
G02*
X129557000Y29643000I0J70000D01*
G01*
X129557000Y30423000D01*
G75*
G02*
X129627000Y30493000I70000J0D01*
G01*
X130187000Y30493000D01*
G75*
G02*
X130257000Y30423000I0J-70000D01*
G01*
G37*
G36*
G01*
X128657000Y30423000D02*
X128657000Y29643000D01*
G75*
G02*
X128587000Y29573000I-70000J0D01*
G01*
X128027000Y29573000D01*
G75*
G02*
X127957000Y29643000I0J70000D01*
G01*
X127957000Y30423000D01*
G75*
G02*
X128027000Y30493000I70000J0D01*
G01*
X128587000Y30493000D01*
G75*
G02*
X128657000Y30423000I0J-70000D01*
G01*
G37*
G04 #@! TD*
D25*
G04 #@! TO.C,F1*
X25723588Y52557412D03*
G36*
G01*
X26038243Y50969964D02*
X25550340Y51457867D01*
G75*
G02*
X25550340Y51783137I162635J162635D01*
G01*
X26497863Y52730660D01*
G75*
G02*
X26823133Y52730660I162635J-162635D01*
G01*
X27311036Y52242757D01*
G75*
G02*
X27311036Y51917487I-162635J-162635D01*
G01*
X26363513Y50969964D01*
G75*
G02*
X26038243Y50969964I-162635J162635D01*
G01*
G37*
G36*
G01*
X28088867Y48919340D02*
X27600964Y49407243D01*
G75*
G02*
X27600964Y49732513I162635J162635D01*
G01*
X28548487Y50680036D01*
G75*
G02*
X28873757Y50680036I162635J-162635D01*
G01*
X29361660Y50192133D01*
G75*
G02*
X29361660Y49866863I-162635J-162635D01*
G01*
X28414137Y48919340D01*
G75*
G02*
X28088867Y48919340I-162635J162635D01*
G01*
G37*
X29188412Y49092588D03*
G04 #@! TD*
G04 #@! TO.C,C13*
G36*
G01*
X25115500Y46015040D02*
X25615500Y46015040D01*
G75*
G02*
X25840500Y45790040I0J-225000D01*
G01*
X25840500Y45340040D01*
G75*
G02*
X25615500Y45115040I-225000J0D01*
G01*
X25115500Y45115040D01*
G75*
G02*
X24890500Y45340040I0J225000D01*
G01*
X24890500Y45790040D01*
G75*
G02*
X25115500Y46015040I225000J0D01*
G01*
G37*
G36*
G01*
X25115500Y44465040D02*
X25615500Y44465040D01*
G75*
G02*
X25840500Y44240040I0J-225000D01*
G01*
X25840500Y43790040D01*
G75*
G02*
X25615500Y43565040I-225000J0D01*
G01*
X25115500Y43565040D01*
G75*
G02*
X24890500Y43790040I0J225000D01*
G01*
X24890500Y44240040D01*
G75*
G02*
X25115500Y44465040I225000J0D01*
G01*
G37*
G04 #@! TD*
D14*
G04 #@! TO.C,TPS2*
X63547000Y56713000D03*
G04 #@! TD*
G04 #@! TO.C,R3*
G36*
G01*
X31132000Y54405000D02*
X30352000Y54405000D01*
G75*
G02*
X30282000Y54475000I0J70000D01*
G01*
X30282000Y55035000D01*
G75*
G02*
X30352000Y55105000I70000J0D01*
G01*
X31132000Y55105000D01*
G75*
G02*
X31202000Y55035000I0J-70000D01*
G01*
X31202000Y54475000D01*
G75*
G02*
X31132000Y54405000I-70000J0D01*
G01*
G37*
G36*
G01*
X31132000Y56005000D02*
X30352000Y56005000D01*
G75*
G02*
X30282000Y56075000I0J70000D01*
G01*
X30282000Y56635000D01*
G75*
G02*
X30352000Y56705000I70000J0D01*
G01*
X31132000Y56705000D01*
G75*
G02*
X31202000Y56635000I0J-70000D01*
G01*
X31202000Y56075000D01*
G75*
G02*
X31132000Y56005000I-70000J0D01*
G01*
G37*
G04 #@! TD*
D11*
G04 #@! TO.C,Q16*
X145443600Y56411840D03*
X145443600Y54111840D03*
X145443600Y51811840D03*
D12*
X151743600Y54111840D03*
G04 #@! TD*
G04 #@! TO.C,R1*
G36*
G01*
X35533340Y37456640D02*
X35533340Y37086640D01*
G75*
G02*
X35398340Y36951640I-135000J0D01*
G01*
X35128340Y36951640D01*
G75*
G02*
X34993340Y37086640I0J135000D01*
G01*
X34993340Y37456640D01*
G75*
G02*
X35128340Y37591640I135000J0D01*
G01*
X35398340Y37591640D01*
G75*
G02*
X35533340Y37456640I0J-135000D01*
G01*
G37*
G36*
G01*
X34513340Y37456640D02*
X34513340Y37086640D01*
G75*
G02*
X34378340Y36951640I-135000J0D01*
G01*
X34108340Y36951640D01*
G75*
G02*
X33973340Y37086640I0J135000D01*
G01*
X33973340Y37456640D01*
G75*
G02*
X34108340Y37591640I135000J0D01*
G01*
X34378340Y37591640D01*
G75*
G02*
X34513340Y37456640I0J-135000D01*
G01*
G37*
G04 #@! TD*
M02*
