M48
; DRILL file {KiCad 8.0.8-8.0.8-0~ubuntu24.04.1} date 2025-01-30T06:35:07+0000
; FORMAT={2:4/ absolute / inch / suppress leading zeros}
; #@! TF.CreationDate,2025-01-30T06:35:07+00:00
; #@! TF.GenerationSoftware,Kicad,Pcbnew,8.0.8-8.0.8-0~ubuntu24.04.1
; #@! TF.FileFunction,MixedPlating,1,4
FMAT,2
INCH,TZ
; #@! TA.AperFunction,Plated,PTH,ViaDrill
T1C0.0079
; #@! TA.AperFunction,Plated,PTH,ComponentDrill
T2C0.0118
; #@! TA.AperFunction,Plated,PTH,ViaDrill
T3C0.0157
; #@! TA.AperFunction,Plated,PTH,ComponentDrill
T4C0.0276
; #@! TA.AperFunction,Plated,PTH,ViaDrill
T5C0.0320
; #@! TA.AperFunction,Plated,PTH,ComponentDrill
T6C0.0320
; #@! TA.AperFunction,Plated,PTH,ComponentDrill
T7C0.0394
; #@! TA.AperFunction,Plated,PTH,ComponentDrill
T8C0.0433
; #@! TA.AperFunction,Plated,PTH,ComponentDrill
T9C0.0689
; #@! TA.AperFunction,Plated,PTH,ComponentDrill
T10C0.1260
; #@! TA.AperFunction,NonPlated,NPTH,ComponentDrill
T11C0.1122
%
G90
G05
T1
X4992Y20434
X5001Y17156
X10074Y14675
X11748Y14669
X11785Y3232
X12660Y22123
X13122Y26275
X13137Y26962
X13882Y14336
X14188Y22399
X15451Y9006
X15461Y5801
X17035Y7503
X17054Y17871
X17134Y16529
X17697Y25123
X17750Y11700
X17767Y7064
X17942Y8247
X18920Y4536
X19137Y3497
X22211Y5458
X22735Y7163
X28027Y24916
X30627Y22330
X31656Y190
X32290Y21699
X32378Y8182
X32809Y21909
X33093Y7670
X33546Y16765
X38585Y7178
X38813Y17046
X38937Y2269
X38950Y12356
X39097Y7159
X41164Y1411
X43038Y7593
X43515Y13977
X45133Y25381
X45948Y16588
X46900Y18797
X46911Y16336
X48576Y19715
X48641Y27858
X48969Y17690
X49239Y21778
X50032Y11306
X50128Y18324
X50817Y20682
X51770Y21767
X52227Y21202
X53011Y18281
X53847Y13061
X54184Y27565
X55032Y10318
X55997Y10338
X56465Y21720
X58008Y17417
X59176Y12320
T2
X1169Y4378
X1563Y4378
X1956Y4378
X2350Y4378
X3277Y14847
X3677Y14847
X4574Y14847
X4968Y14847
X5362Y14847
X8519Y10456
X8519Y10062
X18373Y17391
X18373Y17076
X18373Y16761
X18373Y16446
X18373Y16131
X18373Y15816
X18373Y15501
X18373Y15186
X18373Y14871
X18373Y14556
X18373Y14241
X18373Y13926
X18373Y13611
X18373Y13296
X18373Y12667
X18373Y12115
X18373Y11800
X18373Y11485
X18373Y11170
X18373Y10856
X18373Y10541
X18373Y19084
X18373Y12981
X18530Y7706
X18845Y7706
X19160Y7706
X19475Y7706
X19790Y7706
X20105Y7706
X20420Y7706
X20735Y7706
X20971Y21643
X21050Y7706
X21365Y7706
X21444Y21643
X21680Y7706
X21916Y21643
X21995Y7706
X22389Y21643
X22861Y21643
X22940Y7706
X23255Y7706
X23333Y21643
X23570Y7706
X23806Y21643
X23885Y7706
X24200Y7706
X24278Y21643
X24515Y7706
X24751Y21643
X24830Y7706
X25144Y7706
X25223Y21643
X25459Y7706
X25696Y21643
X26168Y21643
X26641Y21643
X27113Y21643
X27152Y7706
X27585Y21643
X28058Y21643
X28215Y7706
X28530Y21643
X28609Y7706
X29003Y21643
X29475Y21643
X29948Y21643
X30420Y21643
X31365Y21643
X31522Y20659
X31522Y20265
X31522Y16052
X31522Y15659
X31522Y15265
X31522Y14871
X31522Y14478
X31522Y14084
X31522Y13690
X31522Y13296
X31522Y12273
X31522Y11958
X31522Y10107
X31522Y9556
X31522Y7706
X44067Y9040
X44067Y8646
X44067Y8253
X44067Y7859
X54536Y6932
X54536Y6532
X54536Y5635
X54536Y5241
X54536Y4847
T3
X6971Y20800
X7581Y17493
X11204Y28512
X14987Y21237
X16810Y21588
X19353Y5308
X33657Y27517
X36338Y21494
X36558Y21076
X36563Y16240
X36778Y20658
X36814Y15840
X37064Y15439
X38125Y8123
X41051Y17998
X41322Y17611
X41593Y17224
X42657Y20967
X43034Y20682
X43412Y20398
X48371Y12672
X48606Y17009
X50947Y14082
X54068Y21344
X57365Y13005
T4
X46753Y2215
X47068Y2904
X47383Y2215
X47698Y2904
X48013Y2215
T5
X1152Y28414
X61796Y28417
X62294Y667
T6
X10046Y22277
X10127Y20692
X11410Y20913
X11492Y19328
T7
X8476Y17233
X8476Y16233
X8696Y11578
X8696Y9117
X8696Y7424
X8696Y6676
X8696Y4156
X14799Y11400
X14799Y6656
X14799Y4707
X14799Y3979
X54919Y3006
X54919Y2006
X55500Y6296
X55500Y5296
T8
X3317Y25307
X3317Y23693
X5561Y25307
X5561Y23693
X7805Y25307
X7805Y23693
X10049Y25307
X10049Y23693
X12293Y25307
X12293Y23693
X14537Y25307
X14537Y23693
X16781Y25307
X16781Y23693
X19026Y25307
X19026Y23693
X21270Y25307
X21270Y23693
X23514Y25307
X23514Y23693
X25758Y25307
X25758Y23693
X37175Y25288
X37175Y23674
X39419Y25288
X39419Y23674
X41663Y25288
X41663Y23674
X43907Y25288
X43907Y23674
X46152Y25288
X46152Y23674
X48396Y25288
X48396Y23674
X50640Y25288
X50640Y23674
X52884Y25288
X52884Y23674
X55128Y25288
X55128Y23674
X57372Y25288
X57372Y23674
X59616Y25288
X59616Y23674
T9
X25987Y5402
X25987Y2252
X26774Y3827
X27562Y5402
X27562Y2252
X28349Y3827
X29137Y5402
X29137Y2252
X29924Y3827
X30711Y5402
X30711Y2252
X31499Y3827
X32286Y5402
X32286Y2252
X33074Y3827
X33861Y5402
X33861Y2252
X34648Y3827
X35436Y5402
X35436Y2252
X36223Y3827
X37011Y5402
X37011Y2252
T10
X1742Y20760
X1969Y1969
X52348Y1831
X61372Y19267
T11
X23428Y3630
X39570Y3630
T4
X45946Y2816G85X45946Y2304
G05
X48820Y2816G85X48820Y2304
G05
M30
