G04 #@! TF.GenerationSoftware,KiCad,Pcbnew,8.0.8-8.0.8-0~ubuntu24.04.1*
G04 #@! TF.CreationDate,2025-02-06T02:49:01+00:00*
G04 #@! TF.ProjectId,VFRECU-VR,56465245-4355-42d5-9652-2e6b69636164,rev?*
G04 #@! TF.SameCoordinates,Original*
G04 #@! TF.FileFunction,Copper,L1,Top*
G04 #@! TF.FilePolarity,Positive*
%FSLAX46Y46*%
G04 Gerber Fmt 4.6, Leading zero omitted, Abs format (unit mm)*
G04 Created by KiCad (PCBNEW 8.0.8-8.0.8-0~ubuntu24.04.1) date 2025-02-06 02:49:01*
%MOMM*%
%LPD*%
G01*
G04 APERTURE LIST*
G04 #@! TA.AperFunction,Conductor*
%ADD10C,0.200000*%
G04 #@! TD*
G04 #@! TA.AperFunction,Conductor*
%ADD11C,2.000000*%
G04 #@! TD*
G04 #@! TA.AperFunction,SMDPad,CuDef*
%ADD12R,2.000000X1.500000*%
G04 #@! TD*
G04 #@! TA.AperFunction,SMDPad,CuDef*
%ADD13R,2.000000X3.800000*%
G04 #@! TD*
G04 #@! TA.AperFunction,SMDPad,CuDef*
%ADD14C,1.000000*%
G04 #@! TD*
G04 #@! TA.AperFunction,ComponentPad*
%ADD15C,5.600000*%
G04 #@! TD*
G04 #@! TA.AperFunction,ComponentPad*
%ADD16R,1.700000X1.700000*%
G04 #@! TD*
G04 #@! TA.AperFunction,ComponentPad*
%ADD17O,1.700000X1.700000*%
G04 #@! TD*
G04 #@! TA.AperFunction,ComponentPad*
%ADD18C,0.700000*%
G04 #@! TD*
G04 #@! TA.AperFunction,SMDPad,CuDef*
%ADD19C,3.000000*%
G04 #@! TD*
G04 #@! TA.AperFunction,SMDPad,CuDef*
%ADD20R,3.000000X0.250000*%
G04 #@! TD*
G04 #@! TA.AperFunction,SMDPad,CuDef*
%ADD21R,1.100000X0.250000*%
G04 #@! TD*
G04 #@! TA.AperFunction,SMDPad,CuDef*
%ADD22R,0.980000X0.250000*%
G04 #@! TD*
G04 #@! TA.AperFunction,SMDPad,CuDef*
%ADD23R,1.450000X0.250000*%
G04 #@! TD*
G04 #@! TA.AperFunction,SMDPad,CuDef*
%ADD24R,0.250000X27.600000*%
G04 #@! TD*
G04 #@! TA.AperFunction,SMDPad,CuDef*
%ADD25R,1.950000X0.250000*%
G04 #@! TD*
G04 #@! TA.AperFunction,SMDPad,CuDef*
%ADD26R,0.950000X0.250000*%
G04 #@! TD*
G04 #@! TA.AperFunction,ComponentPad*
%ADD27C,1.500000*%
G04 #@! TD*
G04 #@! TA.AperFunction,ComponentPad*
%ADD28C,0.600000*%
G04 #@! TD*
G04 #@! TA.AperFunction,SMDPad,CuDef*
%ADD29O,0.200000X3.300000*%
G04 #@! TD*
G04 #@! TA.AperFunction,SMDPad,CuDef*
%ADD30O,0.200000X10.200000*%
G04 #@! TD*
G04 #@! TA.AperFunction,SMDPad,CuDef*
%ADD31O,0.200000X0.300000*%
G04 #@! TD*
G04 #@! TA.AperFunction,SMDPad,CuDef*
%ADD32O,17.000000X0.200000*%
G04 #@! TD*
G04 #@! TA.AperFunction,SMDPad,CuDef*
%ADD33O,15.400000X0.200000*%
G04 #@! TD*
G04 #@! TA.AperFunction,SMDPad,CuDef*
%ADD34O,0.200000X4.800000*%
G04 #@! TD*
G04 #@! TA.AperFunction,SMDPad,CuDef*
%ADD35O,0.200000X2.600000*%
G04 #@! TD*
G04 #@! TA.AperFunction,SMDPad,CuDef*
%ADD36O,0.200000X1.000000*%
G04 #@! TD*
G04 #@! TA.AperFunction,SMDPad,CuDef*
%ADD37O,0.200000X1.500000*%
G04 #@! TD*
G04 #@! TA.AperFunction,ComponentPad*
%ADD38R,2.625000X2.625000*%
G04 #@! TD*
G04 #@! TA.AperFunction,ComponentPad*
%ADD39C,2.625000*%
G04 #@! TD*
G04 #@! TA.AperFunction,ComponentPad*
%ADD40R,1.100000X1.100000*%
G04 #@! TD*
G04 #@! TA.AperFunction,ComponentPad*
%ADD41C,1.100000*%
G04 #@! TD*
G04 #@! TA.AperFunction,ComponentPad*
%ADD42O,1.100000X2.400000*%
G04 #@! TD*
G04 #@! TA.AperFunction,ComponentPad*
%ADD43C,1.524000*%
G04 #@! TD*
G04 #@! TA.AperFunction,SMDPad,CuDef*
%ADD44R,0.200000X3.700000*%
G04 #@! TD*
G04 #@! TA.AperFunction,SMDPad,CuDef*
%ADD45R,0.200000X0.400000*%
G04 #@! TD*
G04 #@! TA.AperFunction,SMDPad,CuDef*
%ADD46R,0.200000X1.600000*%
G04 #@! TD*
G04 #@! TA.AperFunction,SMDPad,CuDef*
%ADD47R,0.200000X9.700000*%
G04 #@! TD*
G04 #@! TA.AperFunction,SMDPad,CuDef*
%ADD48R,0.200000X2.300000*%
G04 #@! TD*
G04 #@! TA.AperFunction,SMDPad,CuDef*
%ADD49R,1.400000X0.200000*%
G04 #@! TD*
G04 #@! TA.AperFunction,SMDPad,CuDef*
%ADD50R,6.400000X0.200000*%
G04 #@! TD*
G04 #@! TA.AperFunction,SMDPad,CuDef*
%ADD51R,1.700000X0.200000*%
G04 #@! TD*
G04 #@! TA.AperFunction,SMDPad,CuDef*
%ADD52R,3.300000X0.200000*%
G04 #@! TD*
G04 #@! TA.AperFunction,SMDPad,CuDef*
%ADD53R,0.200000X7.000000*%
G04 #@! TD*
G04 #@! TA.AperFunction,SMDPad,CuDef*
%ADD54R,0.200000X3.300000*%
G04 #@! TD*
G04 #@! TA.AperFunction,SMDPad,CuDef*
%ADD55R,0.200000X6.300000*%
G04 #@! TD*
G04 #@! TA.AperFunction,SMDPad,CuDef*
%ADD56R,1.300000X1.000000*%
G04 #@! TD*
G04 #@! TA.AperFunction,SMDPad,CuDef*
%ADD57R,0.250000X3.000000*%
G04 #@! TD*
G04 #@! TA.AperFunction,SMDPad,CuDef*
%ADD58R,0.250000X1.100000*%
G04 #@! TD*
G04 #@! TA.AperFunction,SMDPad,CuDef*
%ADD59R,0.250000X0.980000*%
G04 #@! TD*
G04 #@! TA.AperFunction,SMDPad,CuDef*
%ADD60R,0.250000X1.450000*%
G04 #@! TD*
G04 #@! TA.AperFunction,SMDPad,CuDef*
%ADD61R,27.600000X0.250000*%
G04 #@! TD*
G04 #@! TA.AperFunction,SMDPad,CuDef*
%ADD62R,0.250000X1.950000*%
G04 #@! TD*
G04 #@! TA.AperFunction,SMDPad,CuDef*
%ADD63R,0.250000X0.950000*%
G04 #@! TD*
G04 #@! TA.AperFunction,ViaPad*
%ADD64C,0.500000*%
G04 #@! TD*
G04 #@! TA.AperFunction,ViaPad*
%ADD65C,1.000000*%
G04 #@! TD*
G04 #@! TA.AperFunction,Conductor*
%ADD66C,0.500000*%
G04 #@! TD*
G04 #@! TA.AperFunction,Conductor*
%ADD67C,0.300000*%
G04 #@! TD*
G04 #@! TA.AperFunction,Conductor*
%ADD68C,0.800000*%
G04 #@! TD*
G04 #@! TA.AperFunction,Conductor*
%ADD69C,1.500000*%
G04 #@! TD*
G04 #@! TA.AperFunction,Conductor*
%ADD70C,0.250000*%
G04 #@! TD*
G04 APERTURE END LIST*
G04 #@! TA.AperFunction,Conductor*
G04 #@! TO.N,GND*
G36*
X80169383Y25176445D02*
G01*
X80766477Y25176445D01*
X80766477Y24776526D01*
X80169383Y24776526D01*
X80169383Y25176445D01*
G37*
G04 #@! TD.AperFunction*
G04 #@! TA.AperFunction,Conductor*
G36*
X136707000Y52533000D02*
G01*
X137807000Y52533000D01*
X137807000Y51233000D01*
X136707000Y51233000D01*
X136707000Y52533000D01*
G37*
G04 #@! TD.AperFunction*
G04 #@! TA.AperFunction,Conductor*
G36*
X144907000Y41133000D02*
G01*
X146007000Y41133000D01*
X146007000Y39833000D01*
X144907000Y39833000D01*
X144907000Y41133000D01*
G37*
G04 #@! TD.AperFunction*
G04 #@! TA.AperFunction,Conductor*
G36*
X121007000Y41133000D02*
G01*
X122107000Y41133000D01*
X122107000Y39833000D01*
X121007000Y39833000D01*
X121007000Y41133000D01*
G37*
G04 #@! TD.AperFunction*
D10*
X103357000Y29587552D02*
X102117770Y28887552D01*
X101067770Y30733000D01*
X102307000Y31433000D01*
X103357000Y29587552D01*
G04 #@! TA.AperFunction,Conductor*
G36*
X103357000Y29587552D02*
G01*
X102117770Y28887552D01*
X101067770Y30733000D01*
X102307000Y31433000D01*
X103357000Y29587552D01*
G37*
G04 #@! TD.AperFunction*
D11*
G04 #@! TO.N,/IGNOUT1*
X100125000Y60131000D02*
X110607000Y51533000D01*
D10*
G04 #@! TO.N,/IGNOUT3*
X106644000Y42301000D02*
X106673000Y42301000D01*
G04 #@! TO.N,/IGN4*
X98603860Y43296520D02*
X99597000Y41747120D01*
G04 #@! TA.AperFunction,Conductor*
G04 #@! TO.N,GND*
G36*
X149207000Y33233000D02*
G01*
X150307000Y33233000D01*
X150307000Y31933000D01*
X149207000Y31933000D01*
X149207000Y33233000D01*
G37*
G04 #@! TD.AperFunction*
X118608794Y43787552D02*
X117369564Y43087552D01*
X116319564Y44933000D01*
X117558794Y45633000D01*
X118608794Y43787552D01*
G04 #@! TA.AperFunction,Conductor*
G36*
X118608794Y43787552D02*
G01*
X117369564Y43087552D01*
X116319564Y44933000D01*
X117558794Y45633000D01*
X118608794Y43787552D01*
G37*
G04 #@! TD.AperFunction*
G04 #@! TA.AperFunction,Conductor*
G36*
X126407000Y55733000D02*
G01*
X127507000Y55733000D01*
X127507000Y54433000D01*
X126407000Y54433000D01*
X126407000Y55733000D01*
G37*
G04 #@! TD.AperFunction*
X115003243Y33591688D02*
X113764013Y32891688D01*
X112714013Y34737136D01*
X113953243Y35437136D01*
X115003243Y33591688D01*
G04 #@! TA.AperFunction,Conductor*
G36*
X115003243Y33591688D02*
G01*
X113764013Y32891688D01*
X112714013Y34737136D01*
X113953243Y35437136D01*
X115003243Y33591688D01*
G37*
G04 #@! TD.AperFunction*
G04 #@! TA.AperFunction,Conductor*
G36*
X144807000Y51433000D02*
G01*
X145907000Y51433000D01*
X145907000Y50133000D01*
X144807000Y50133000D01*
X144807000Y51433000D01*
G37*
G04 #@! TD.AperFunction*
G04 #@! TA.AperFunction,Conductor*
G36*
X45901757Y31672208D02*
G01*
X46369895Y31672208D01*
X46369895Y31272207D01*
X45901757Y31272207D01*
X45901757Y31672208D01*
G37*
G04 #@! TD.AperFunction*
G04 #@! TA.AperFunction,Conductor*
G36*
X124707000Y36233000D02*
G01*
X125807000Y36233000D01*
X125807000Y34933000D01*
X124707000Y34933000D01*
X124707000Y36233000D01*
G37*
G04 #@! TD.AperFunction*
D11*
G04 #@! TO.N,/IGNOUT2*
X94903080Y37995540D02*
X88407000Y48033000D01*
G04 #@! TA.AperFunction,Conductor*
G04 #@! TO.N,GND*
G36*
X136407000Y40333000D02*
G01*
X137707000Y40333000D01*
X137707000Y39233000D01*
X136407000Y39233000D01*
X136407000Y40333000D01*
G37*
G04 #@! TD.AperFunction*
D10*
X102074820Y42549507D02*
X100835590Y41849507D01*
X99785590Y43694955D01*
X101024820Y44394955D01*
X102074820Y42549507D01*
G04 #@! TA.AperFunction,Conductor*
G36*
X102074820Y42549507D02*
G01*
X100835590Y41849507D01*
X99785590Y43694955D01*
X101024820Y44394955D01*
X102074820Y42549507D01*
G37*
G04 #@! TD.AperFunction*
G04 #@! TD*
D12*
G04 #@! TO.P,Q7,1,G*
G04 #@! TO.N,/LS1*
X126954000Y49442000D03*
G04 #@! TO.P,Q7,2,D*
G04 #@! TO.N,/FUELPUMP_LS*
X126954000Y51742000D03*
G04 #@! TO.P,Q7,3,S*
G04 #@! TO.N,GND*
X126954000Y54042000D03*
D13*
G04 #@! TO.P,Q7,4*
G04 #@! TO.N,N/C*
X120654000Y51742000D03*
G04 #@! TD*
G04 #@! TO.P,R32,1*
G04 #@! TO.N,GND*
G04 #@! TA.AperFunction,SMDPad,CuDef*
G36*
G01*
X153257000Y57523000D02*
X153257000Y56743000D01*
G75*
G02*
X153187000Y56673000I-70000J0D01*
G01*
X152627000Y56673000D01*
G75*
G02*
X152557000Y56743000I0J70000D01*
G01*
X152557000Y57523000D01*
G75*
G02*
X152627000Y57593000I70000J0D01*
G01*
X153187000Y57593000D01*
G75*
G02*
X153257000Y57523000I0J-70000D01*
G01*
G37*
G04 #@! TD.AperFunction*
G04 #@! TO.P,R32,2*
G04 #@! TO.N,/INJ4*
G04 #@! TA.AperFunction,SMDPad,CuDef*
G36*
G01*
X151657000Y57523000D02*
X151657000Y56743000D01*
G75*
G02*
X151587000Y56673000I-70000J0D01*
G01*
X151027000Y56673000D01*
G75*
G02*
X150957000Y56743000I0J70000D01*
G01*
X150957000Y57523000D01*
G75*
G02*
X151027000Y57593000I70000J0D01*
G01*
X151587000Y57593000D01*
G75*
G02*
X151657000Y57523000I0J-70000D01*
G01*
G37*
G04 #@! TD.AperFunction*
G04 #@! TD*
G04 #@! TO.P,R31,1*
G04 #@! TO.N,GND*
G04 #@! TA.AperFunction,SMDPad,CuDef*
G36*
G01*
X146057000Y48143000D02*
X146057000Y48923000D01*
G75*
G02*
X146127000Y48993000I70000J0D01*
G01*
X146687000Y48993000D01*
G75*
G02*
X146757000Y48923000I0J-70000D01*
G01*
X146757000Y48143000D01*
G75*
G02*
X146687000Y48073000I-70000J0D01*
G01*
X146127000Y48073000D01*
G75*
G02*
X146057000Y48143000I0J70000D01*
G01*
G37*
G04 #@! TD.AperFunction*
G04 #@! TO.P,R31,2*
G04 #@! TO.N,/INJ3*
G04 #@! TA.AperFunction,SMDPad,CuDef*
G36*
G01*
X147657000Y48143000D02*
X147657000Y48923000D01*
G75*
G02*
X147727000Y48993000I70000J0D01*
G01*
X148287000Y48993000D01*
G75*
G02*
X148357000Y48923000I0J-70000D01*
G01*
X148357000Y48143000D01*
G75*
G02*
X148287000Y48073000I-70000J0D01*
G01*
X147727000Y48073000D01*
G75*
G02*
X147657000Y48143000I0J70000D01*
G01*
G37*
G04 #@! TD.AperFunction*
G04 #@! TD*
G04 #@! TO.P,R29,1*
G04 #@! TO.N,GND*
G04 #@! TA.AperFunction,SMDPad,CuDef*
G36*
G01*
X137754928Y42142000D02*
X136974928Y42142000D01*
G75*
G02*
X136904928Y42212000I0J70000D01*
G01*
X136904928Y42772000D01*
G75*
G02*
X136974928Y42842000I70000J0D01*
G01*
X137754928Y42842000D01*
G75*
G02*
X137824928Y42772000I0J-70000D01*
G01*
X137824928Y42212000D01*
G75*
G02*
X137754928Y42142000I-70000J0D01*
G01*
G37*
G04 #@! TD.AperFunction*
G04 #@! TO.P,R29,2*
G04 #@! TO.N,/INJ1*
G04 #@! TA.AperFunction,SMDPad,CuDef*
G36*
G01*
X137754928Y43742000D02*
X136974928Y43742000D01*
G75*
G02*
X136904928Y43812000I0J70000D01*
G01*
X136904928Y44372000D01*
G75*
G02*
X136974928Y44442000I70000J0D01*
G01*
X137754928Y44442000D01*
G75*
G02*
X137824928Y44372000I0J-70000D01*
G01*
X137824928Y43812000D01*
G75*
G02*
X137754928Y43742000I-70000J0D01*
G01*
G37*
G04 #@! TD.AperFunction*
G04 #@! TD*
D12*
G04 #@! TO.P,Q9,1,G*
G04 #@! TO.N,/LS3*
X125229000Y30059000D03*
G04 #@! TO.P,Q9,2,D*
G04 #@! TO.N,/OUT_LS3*
X125229000Y32359000D03*
G04 #@! TO.P,Q9,3,S*
G04 #@! TO.N,GND*
X125229000Y34659000D03*
D13*
G04 #@! TO.P,Q9,4*
G04 #@! TO.N,N/C*
X118929000Y32359000D03*
G04 #@! TD*
G04 #@! TO.P,R34,1*
G04 #@! TO.N,Net-(IC2-PEAK_DETECTOR_CAPACITOR)*
G04 #@! TA.AperFunction,SMDPad,CuDef*
G36*
G01*
X33551700Y42189500D02*
X33551700Y42559500D01*
G75*
G02*
X33686700Y42694500I135000J0D01*
G01*
X33956700Y42694500D01*
G75*
G02*
X34091700Y42559500I0J-135000D01*
G01*
X34091700Y42189500D01*
G75*
G02*
X33956700Y42054500I-135000J0D01*
G01*
X33686700Y42054500D01*
G75*
G02*
X33551700Y42189500I0J135000D01*
G01*
G37*
G04 #@! TD.AperFunction*
G04 #@! TO.P,R34,2*
G04 #@! TO.N,GND*
G04 #@! TA.AperFunction,SMDPad,CuDef*
G36*
G01*
X34571700Y42189500D02*
X34571700Y42559500D01*
G75*
G02*
X34706700Y42694500I135000J0D01*
G01*
X34976700Y42694500D01*
G75*
G02*
X35111700Y42559500I0J-135000D01*
G01*
X35111700Y42189500D01*
G75*
G02*
X34976700Y42054500I-135000J0D01*
G01*
X34706700Y42054500D01*
G75*
G02*
X34571700Y42189500I0J135000D01*
G01*
G37*
G04 #@! TD.AperFunction*
G04 #@! TD*
G04 #@! TO.P,C4,1*
G04 #@! TO.N,Net-(IC2-RC_TIMING)*
G04 #@! TA.AperFunction,SMDPad,CuDef*
G36*
G01*
X25403780Y33675540D02*
X25743780Y33675540D01*
G75*
G02*
X25883780Y33535540I0J-140000D01*
G01*
X25883780Y33255540D01*
G75*
G02*
X25743780Y33115540I-140000J0D01*
G01*
X25403780Y33115540D01*
G75*
G02*
X25263780Y33255540I0J140000D01*
G01*
X25263780Y33535540D01*
G75*
G02*
X25403780Y33675540I140000J0D01*
G01*
G37*
G04 #@! TD.AperFunction*
G04 #@! TO.P,C4,2*
G04 #@! TO.N,GND*
G04 #@! TA.AperFunction,SMDPad,CuDef*
G36*
G01*
X25403780Y32715540D02*
X25743780Y32715540D01*
G75*
G02*
X25883780Y32575540I0J-140000D01*
G01*
X25883780Y32295540D01*
G75*
G02*
X25743780Y32155540I-140000J0D01*
G01*
X25403780Y32155540D01*
G75*
G02*
X25263780Y32295540I0J140000D01*
G01*
X25263780Y32575540D01*
G75*
G02*
X25403780Y32715540I140000J0D01*
G01*
G37*
G04 #@! TD.AperFunction*
G04 #@! TD*
D14*
G04 #@! TO.P,HALL3,1*
G04 #@! TO.N,/IN_HALL3*
X53677000Y56673000D03*
G04 #@! TD*
G04 #@! TO.P,Q1,1,G*
G04 #@! TO.N,Net-(Q1-G)*
G04 #@! TA.AperFunction,SMDPad,CuDef*
G36*
G01*
X113360109Y43055372D02*
X112753891Y42705372D01*
G75*
G02*
X112412385Y42796878I-125000J216506D01*
G01*
X111562385Y44269122D01*
G75*
G02*
X111653891Y44610628I216506J125000D01*
G01*
X112260109Y44960628D01*
G75*
G02*
X112601615Y44869122I125000J-216506D01*
G01*
X113451615Y43396878D01*
G75*
G02*
X113360109Y43055372I-216506J-125000D01*
G01*
G37*
G04 #@! TD.AperFunction*
G04 #@! TO.P,Q1,2,C*
G04 #@! TO.N,/IGNOUT1*
G04 #@! TA.AperFunction,SMDPad,CuDef*
G36*
G01*
X115226506Y48982679D02*
X113277948Y47857679D01*
G75*
G02*
X112936442Y47949185I-125000J216506D01*
G01*
X111661442Y50157549D01*
G75*
G02*
X111752948Y50499055I216506J125000D01*
G01*
X113701506Y51624055D01*
G75*
G02*
X114043012Y51532549I125000J-216506D01*
G01*
X115318012Y49324185D01*
G75*
G02*
X115226506Y48982679I-216506J-125000D01*
G01*
G37*
G04 #@! TD.AperFunction*
G04 #@! TA.AperFunction,SMDPad,CuDef*
G36*
G01*
X112585128Y47457679D02*
X110636570Y46332679D01*
G75*
G02*
X110295064Y46424185I-125000J216506D01*
G01*
X109020064Y48632549D01*
G75*
G02*
X109111570Y48974055I216506J125000D01*
G01*
X111060128Y50099055D01*
G75*
G02*
X111401634Y50007549I125000J-216506D01*
G01*
X112676634Y47799185D01*
G75*
G02*
X112585128Y47457679I-216506J-125000D01*
G01*
G37*
G04 #@! TD.AperFunction*
G04 #@! TA.AperFunction,SMDPad,CuDef*
G36*
G01*
X115226508Y48982680D02*
X110636569Y46332677D01*
G75*
G02*
X110295066Y46424182I-124999J216504D01*
G01*
X107345063Y51533737D01*
G75*
G02*
X107436569Y51875240I216504J124999D01*
G01*
X112026508Y54525243D01*
G75*
G02*
X112368010Y54433737I124998J-216504D01*
G01*
X115318013Y49324182D01*
G75*
G02*
X115226508Y48982680I-216504J-124998D01*
G01*
G37*
G04 #@! TD.AperFunction*
G04 #@! TA.AperFunction,SMDPad,CuDef*
G36*
G01*
X113551506Y51883865D02*
X111602948Y50758865D01*
G75*
G02*
X111261442Y50850371I-125000J216506D01*
G01*
X109986442Y53058735D01*
G75*
G02*
X110077948Y53400241I216506J125000D01*
G01*
X112026506Y54525241D01*
G75*
G02*
X112368012Y54433735I125000J-216506D01*
G01*
X113643012Y52225371D01*
G75*
G02*
X113551506Y51883865I-216506J-125000D01*
G01*
G37*
G04 #@! TD.AperFunction*
G04 #@! TA.AperFunction,SMDPad,CuDef*
G36*
G01*
X110910128Y50358865D02*
X108961570Y49233865D01*
G75*
G02*
X108620064Y49325371I-125000J216506D01*
G01*
X107345064Y51533735D01*
G75*
G02*
X107436570Y51875241I216506J125000D01*
G01*
X109385128Y53000241D01*
G75*
G02*
X109726634Y52908735I125000J-216506D01*
G01*
X111001634Y50700371D01*
G75*
G02*
X110910128Y50358865I-216506J-125000D01*
G01*
G37*
G04 #@! TD.AperFunction*
G04 #@! TO.P,Q1,3,E*
G04 #@! TO.N,GND*
G04 #@! TA.AperFunction,SMDPad,CuDef*
G36*
G01*
X117309185Y45335372D02*
X116702967Y44985372D01*
G75*
G02*
X116361461Y45076878I-125000J216506D01*
G01*
X115511461Y46549122D01*
G75*
G02*
X115602967Y46890628I216506J125000D01*
G01*
X116209185Y47240628D01*
G75*
G02*
X116550691Y47149122I125000J-216506D01*
G01*
X117400691Y45676878D01*
G75*
G02*
X117309185Y45335372I-216506J-125000D01*
G01*
G37*
G04 #@! TD.AperFunction*
G04 #@! TD*
G04 #@! TO.P,R39,1*
G04 #@! TO.N,+5VA*
G04 #@! TA.AperFunction,SMDPad,CuDef*
G36*
G01*
X11413500Y52836340D02*
X11413500Y52466340D01*
G75*
G02*
X11278500Y52331340I-135000J0D01*
G01*
X11008500Y52331340D01*
G75*
G02*
X10873500Y52466340I0J135000D01*
G01*
X10873500Y52836340D01*
G75*
G02*
X11008500Y52971340I135000J0D01*
G01*
X11278500Y52971340D01*
G75*
G02*
X11413500Y52836340I0J-135000D01*
G01*
G37*
G04 #@! TD.AperFunction*
G04 #@! TO.P,R39,2*
G04 #@! TO.N,Net-(IC2A1-RC_TIMING)*
G04 #@! TA.AperFunction,SMDPad,CuDef*
G36*
G01*
X10393500Y52836340D02*
X10393500Y52466340D01*
G75*
G02*
X10258500Y52331340I-135000J0D01*
G01*
X9988500Y52331340D01*
G75*
G02*
X9853500Y52466340I0J135000D01*
G01*
X9853500Y52836340D01*
G75*
G02*
X9988500Y52971340I135000J0D01*
G01*
X10258500Y52971340D01*
G75*
G02*
X10393500Y52836340I0J-135000D01*
G01*
G37*
G04 #@! TD.AperFunction*
G04 #@! TD*
G04 #@! TO.P,R40,1*
G04 #@! TO.N,+5VA*
G04 #@! TA.AperFunction,SMDPad,CuDef*
G36*
G01*
X12522000Y53934260D02*
X12892000Y53934260D01*
G75*
G02*
X13027000Y53799260I0J-135000D01*
G01*
X13027000Y53529260D01*
G75*
G02*
X12892000Y53394260I-135000J0D01*
G01*
X12522000Y53394260D01*
G75*
G02*
X12387000Y53529260I0J135000D01*
G01*
X12387000Y53799260D01*
G75*
G02*
X12522000Y53934260I135000J0D01*
G01*
G37*
G04 #@! TD.AperFunction*
G04 #@! TO.P,R40,2*
G04 #@! TO.N,/VR1*
G04 #@! TA.AperFunction,SMDPad,CuDef*
G36*
G01*
X12522000Y52914260D02*
X12892000Y52914260D01*
G75*
G02*
X13027000Y52779260I0J-135000D01*
G01*
X13027000Y52509260D01*
G75*
G02*
X12892000Y52374260I-135000J0D01*
G01*
X12522000Y52374260D01*
G75*
G02*
X12387000Y52509260I0J135000D01*
G01*
X12387000Y52779260D01*
G75*
G02*
X12522000Y52914260I135000J0D01*
G01*
G37*
G04 #@! TD.AperFunction*
G04 #@! TD*
G04 #@! TO.P,Q4,1,G*
G04 #@! TO.N,Net-(Q4-G)*
G04 #@! TA.AperFunction,SMDPad,CuDef*
G36*
G01*
X96852033Y41810372D02*
X96245815Y41460372D01*
G75*
G02*
X95904309Y41551878I-125000J216506D01*
G01*
X95054309Y43024122D01*
G75*
G02*
X95145815Y43365628I216506J125000D01*
G01*
X95752033Y43715628D01*
G75*
G02*
X96093539Y43624122I125000J-216506D01*
G01*
X96943539Y42151878D01*
G75*
G02*
X96852033Y41810372I-216506J-125000D01*
G01*
G37*
G04 #@! TD.AperFunction*
G04 #@! TO.P,Q4,2,C*
G04 #@! TO.N,/IGNOUT4*
G04 #@! TA.AperFunction,SMDPad,CuDef*
G36*
G01*
X98718430Y47737679D02*
X96769872Y46612679D01*
G75*
G02*
X96428366Y46704185I-125000J216506D01*
G01*
X95153366Y48912549D01*
G75*
G02*
X95244872Y49254055I216506J125000D01*
G01*
X97193430Y50379055D01*
G75*
G02*
X97534936Y50287549I125000J-216506D01*
G01*
X98809936Y48079185D01*
G75*
G02*
X98718430Y47737679I-216506J-125000D01*
G01*
G37*
G04 #@! TD.AperFunction*
G04 #@! TA.AperFunction,SMDPad,CuDef*
G36*
G01*
X96077052Y46212679D02*
X94128494Y45087679D01*
G75*
G02*
X93786988Y45179185I-125000J216506D01*
G01*
X92511988Y47387549D01*
G75*
G02*
X92603494Y47729055I216506J125000D01*
G01*
X94552052Y48854055D01*
G75*
G02*
X94893558Y48762549I125000J-216506D01*
G01*
X96168558Y46554185D01*
G75*
G02*
X96077052Y46212679I-216506J-125000D01*
G01*
G37*
G04 #@! TD.AperFunction*
G04 #@! TA.AperFunction,SMDPad,CuDef*
G36*
G01*
X98718432Y47737680D02*
X94128493Y45087677D01*
G75*
G02*
X93786990Y45179182I-124999J216504D01*
G01*
X90836987Y50288737D01*
G75*
G02*
X90928493Y50630240I216504J124999D01*
G01*
X95518432Y53280243D01*
G75*
G02*
X95859934Y53188737I124998J-216504D01*
G01*
X98809937Y48079182D01*
G75*
G02*
X98718432Y47737680I-216504J-124998D01*
G01*
G37*
G04 #@! TD.AperFunction*
G04 #@! TA.AperFunction,SMDPad,CuDef*
G36*
G01*
X97043430Y50638865D02*
X95094872Y49513865D01*
G75*
G02*
X94753366Y49605371I-125000J216506D01*
G01*
X93478366Y51813735D01*
G75*
G02*
X93569872Y52155241I216506J125000D01*
G01*
X95518430Y53280241D01*
G75*
G02*
X95859936Y53188735I125000J-216506D01*
G01*
X97134936Y50980371D01*
G75*
G02*
X97043430Y50638865I-216506J-125000D01*
G01*
G37*
G04 #@! TD.AperFunction*
G04 #@! TA.AperFunction,SMDPad,CuDef*
G36*
G01*
X94402052Y49113865D02*
X92453494Y47988865D01*
G75*
G02*
X92111988Y48080371I-125000J216506D01*
G01*
X90836988Y50288735D01*
G75*
G02*
X90928494Y50630241I216506J125000D01*
G01*
X92877052Y51755241D01*
G75*
G02*
X93218558Y51663735I125000J-216506D01*
G01*
X94493558Y49455371D01*
G75*
G02*
X94402052Y49113865I-216506J-125000D01*
G01*
G37*
G04 #@! TD.AperFunction*
G04 #@! TO.P,Q4,3,E*
G04 #@! TO.N,GND*
G04 #@! TA.AperFunction,SMDPad,CuDef*
G36*
G01*
X100801109Y44090372D02*
X100194891Y43740372D01*
G75*
G02*
X99853385Y43831878I-125000J216506D01*
G01*
X99003385Y45304122D01*
G75*
G02*
X99094891Y45645628I216506J125000D01*
G01*
X99701109Y45995628D01*
G75*
G02*
X100042615Y45904122I125000J-216506D01*
G01*
X100892615Y44431878D01*
G75*
G02*
X100801109Y44090372I-216506J-125000D01*
G01*
G37*
G04 #@! TD.AperFunction*
G04 #@! TD*
G04 #@! TO.P,HALL2,1*
G04 #@! TO.N,/IN_HALL2*
X55694000Y56721000D03*
G04 #@! TD*
D15*
G04 #@! TO.P,H2,1,1*
G04 #@! TO.N,GND*
X4425000Y52731000D03*
G04 #@! TD*
G04 #@! TO.P,H1,1,1*
G04 #@! TO.N,GND*
X155885000Y48938000D03*
G04 #@! TD*
G04 #@! TO.P,R27,1*
G04 #@! TO.N,+5VA*
G04 #@! TA.AperFunction,SMDPad,CuDef*
G36*
G01*
X27792000Y43253000D02*
X27422000Y43253000D01*
G75*
G02*
X27287000Y43388000I0J135000D01*
G01*
X27287000Y43658000D01*
G75*
G02*
X27422000Y43793000I135000J0D01*
G01*
X27792000Y43793000D01*
G75*
G02*
X27927000Y43658000I0J-135000D01*
G01*
X27927000Y43388000D01*
G75*
G02*
X27792000Y43253000I-135000J0D01*
G01*
G37*
G04 #@! TD.AperFunction*
G04 #@! TO.P,R27,2*
G04 #@! TO.N,Net-(IC2-MODE)*
G04 #@! TA.AperFunction,SMDPad,CuDef*
G36*
G01*
X27792000Y44273000D02*
X27422000Y44273000D01*
G75*
G02*
X27287000Y44408000I0J135000D01*
G01*
X27287000Y44678000D01*
G75*
G02*
X27422000Y44813000I135000J0D01*
G01*
X27792000Y44813000D01*
G75*
G02*
X27927000Y44678000I0J-135000D01*
G01*
X27927000Y44408000D01*
G75*
G02*
X27792000Y44273000I-135000J0D01*
G01*
G37*
G04 #@! TD.AperFunction*
G04 #@! TD*
G04 #@! TO.P,R28,1*
G04 #@! TO.N,+5VA*
G04 #@! TA.AperFunction,SMDPad,CuDef*
G36*
G01*
X23439960Y34462820D02*
X23439960Y34832820D01*
G75*
G02*
X23574960Y34967820I135000J0D01*
G01*
X23844960Y34967820D01*
G75*
G02*
X23979960Y34832820I0J-135000D01*
G01*
X23979960Y34462820D01*
G75*
G02*
X23844960Y34327820I-135000J0D01*
G01*
X23574960Y34327820D01*
G75*
G02*
X23439960Y34462820I0J135000D01*
G01*
G37*
G04 #@! TD.AperFunction*
G04 #@! TO.P,R28,2*
G04 #@! TO.N,Net-(IC2-RC_TIMING)*
G04 #@! TA.AperFunction,SMDPad,CuDef*
G36*
G01*
X24459960Y34462820D02*
X24459960Y34832820D01*
G75*
G02*
X24594960Y34967820I135000J0D01*
G01*
X24864960Y34967820D01*
G75*
G02*
X24999960Y34832820I0J-135000D01*
G01*
X24999960Y34462820D01*
G75*
G02*
X24864960Y34327820I-135000J0D01*
G01*
X24594960Y34327820D01*
G75*
G02*
X24459960Y34462820I0J135000D01*
G01*
G37*
G04 #@! TD.AperFunction*
G04 #@! TD*
G04 #@! TO.P,C11,1*
G04 #@! TO.N,Net-(IC2A1-RC_TIMING)*
G04 #@! TA.AperFunction,SMDPad,CuDef*
G36*
G01*
X8637000Y50593000D02*
X8977000Y50593000D01*
G75*
G02*
X9117000Y50453000I0J-140000D01*
G01*
X9117000Y50173000D01*
G75*
G02*
X8977000Y50033000I-140000J0D01*
G01*
X8637000Y50033000D01*
G75*
G02*
X8497000Y50173000I0J140000D01*
G01*
X8497000Y50453000D01*
G75*
G02*
X8637000Y50593000I140000J0D01*
G01*
G37*
G04 #@! TD.AperFunction*
G04 #@! TO.P,C11,2*
G04 #@! TO.N,GND*
G04 #@! TA.AperFunction,SMDPad,CuDef*
G36*
G01*
X8637000Y49633000D02*
X8977000Y49633000D01*
G75*
G02*
X9117000Y49493000I0J-140000D01*
G01*
X9117000Y49213000D01*
G75*
G02*
X8977000Y49073000I-140000J0D01*
G01*
X8637000Y49073000D01*
G75*
G02*
X8497000Y49213000I0J140000D01*
G01*
X8497000Y49493000D01*
G75*
G02*
X8637000Y49633000I140000J0D01*
G01*
G37*
G04 #@! TD.AperFunction*
G04 #@! TD*
G04 #@! TO.P,C10,1*
G04 #@! TO.N,GND*
G04 #@! TA.AperFunction,SMDPad,CuDef*
G36*
G01*
X16347000Y42663000D02*
X16347000Y43003000D01*
G75*
G02*
X16487000Y43143000I140000J0D01*
G01*
X16767000Y43143000D01*
G75*
G02*
X16907000Y43003000I0J-140000D01*
G01*
X16907000Y42663000D01*
G75*
G02*
X16767000Y42523000I-140000J0D01*
G01*
X16487000Y42523000D01*
G75*
G02*
X16347000Y42663000I0J140000D01*
G01*
G37*
G04 #@! TD.AperFunction*
G04 #@! TO.P,C10,2*
G04 #@! TO.N,Net-(IC2A1-PEAK_DETECTOR_CAPACITOR)*
G04 #@! TA.AperFunction,SMDPad,CuDef*
G36*
G01*
X17307000Y42663000D02*
X17307000Y43003000D01*
G75*
G02*
X17447000Y43143000I140000J0D01*
G01*
X17727000Y43143000D01*
G75*
G02*
X17867000Y43003000I0J-140000D01*
G01*
X17867000Y42663000D01*
G75*
G02*
X17727000Y42523000I-140000J0D01*
G01*
X17447000Y42523000D01*
G75*
G02*
X17307000Y42663000I0J140000D01*
G01*
G37*
G04 #@! TD.AperFunction*
G04 #@! TD*
D16*
G04 #@! TO.P,JP3,1,A*
G04 #@! TO.N,+3.3VA*
X139494000Y7635000D03*
D17*
G04 #@! TO.P,JP3,2,B*
G04 #@! TO.N,Net-(JP3-B)*
X139494000Y5095000D03*
G04 #@! TD*
G04 #@! TO.P,C12A1,1*
G04 #@! TO.N,GND*
G04 #@! TA.AperFunction,SMDPad,CuDef*
G36*
G01*
X19917020Y47715580D02*
X19577020Y47715580D01*
G75*
G02*
X19437020Y47855580I0J140000D01*
G01*
X19437020Y48135580D01*
G75*
G02*
X19577020Y48275580I140000J0D01*
G01*
X19917020Y48275580D01*
G75*
G02*
X20057020Y48135580I0J-140000D01*
G01*
X20057020Y47855580D01*
G75*
G02*
X19917020Y47715580I-140000J0D01*
G01*
G37*
G04 #@! TD.AperFunction*
G04 #@! TO.P,C12A1,2*
G04 #@! TO.N,+5VA*
G04 #@! TA.AperFunction,SMDPad,CuDef*
G36*
G01*
X19917020Y48675580D02*
X19577020Y48675580D01*
G75*
G02*
X19437020Y48815580I0J140000D01*
G01*
X19437020Y49095580D01*
G75*
G02*
X19577020Y49235580I140000J0D01*
G01*
X19917020Y49235580D01*
G75*
G02*
X20057020Y49095580I0J-140000D01*
G01*
X20057020Y48815580D01*
G75*
G02*
X19917020Y48675580I-140000J0D01*
G01*
G37*
G04 #@! TD.AperFunction*
G04 #@! TD*
D15*
G04 #@! TO.P,H2,1,1*
G04 #@! TO.N,GND*
X5000000Y5000000D03*
G04 #@! TD*
G04 #@! TO.P,R30,1*
G04 #@! TO.N,GND*
G04 #@! TA.AperFunction,SMDPad,CuDef*
G36*
G01*
X140178000Y33631072D02*
X140178000Y32851072D01*
G75*
G02*
X140108000Y32781072I-70000J0D01*
G01*
X139548000Y32781072D01*
G75*
G02*
X139478000Y32851072I0J70000D01*
G01*
X139478000Y33631072D01*
G75*
G02*
X139548000Y33701072I70000J0D01*
G01*
X140108000Y33701072D01*
G75*
G02*
X140178000Y33631072I0J-70000D01*
G01*
G37*
G04 #@! TD.AperFunction*
G04 #@! TO.P,R30,2*
G04 #@! TO.N,/INJ2*
G04 #@! TA.AperFunction,SMDPad,CuDef*
G36*
G01*
X138578000Y33631072D02*
X138578000Y32851072D01*
G75*
G02*
X138508000Y32781072I-70000J0D01*
G01*
X137948000Y32781072D01*
G75*
G02*
X137878000Y32851072I0J70000D01*
G01*
X137878000Y33631072D01*
G75*
G02*
X137948000Y33701072I70000J0D01*
G01*
X138508000Y33701072D01*
G75*
G02*
X138578000Y33631072I0J-70000D01*
G01*
G37*
G04 #@! TD.AperFunction*
G04 #@! TD*
G04 #@! TO.P,R2,1*
G04 #@! TO.N,/IN_VMAIN*
G04 #@! TA.AperFunction,SMDPad,CuDef*
G36*
G01*
X29314000Y57922000D02*
X29314000Y57142000D01*
G75*
G02*
X29244000Y57072000I-70000J0D01*
G01*
X28684000Y57072000D01*
G75*
G02*
X28614000Y57142000I0J70000D01*
G01*
X28614000Y57922000D01*
G75*
G02*
X28684000Y57992000I70000J0D01*
G01*
X29244000Y57992000D01*
G75*
G02*
X29314000Y57922000I0J-70000D01*
G01*
G37*
G04 #@! TD.AperFunction*
G04 #@! TO.P,R2,2*
G04 #@! TO.N,+12V*
G04 #@! TA.AperFunction,SMDPad,CuDef*
G36*
G01*
X27714000Y57922000D02*
X27714000Y57142000D01*
G75*
G02*
X27644000Y57072000I-70000J0D01*
G01*
X27084000Y57072000D01*
G75*
G02*
X27014000Y57142000I0J70000D01*
G01*
X27014000Y57922000D01*
G75*
G02*
X27084000Y57992000I70000J0D01*
G01*
X27644000Y57992000D01*
G75*
G02*
X27714000Y57922000I0J-70000D01*
G01*
G37*
G04 #@! TD.AperFunction*
G04 #@! TD*
D12*
G04 #@! TO.P,Q14,1,G*
G04 #@! TO.N,/INJ2*
X138324000Y35162000D03*
G04 #@! TO.P,Q14,2,D*
G04 #@! TO.N,/INJOUT2*
X138324000Y37462000D03*
G04 #@! TO.P,Q14,3,S*
G04 #@! TO.N,GND*
X138324000Y39762000D03*
D13*
G04 #@! TO.P,Q14,4*
G04 #@! TO.N,N/C*
X132024000Y37462000D03*
G04 #@! TD*
D16*
G04 #@! TO.P,JP2,1,A*
G04 #@! TO.N,+5VA*
X21530100Y43771500D03*
D17*
G04 #@! TO.P,JP2,2,B*
G04 #@! TO.N,Net-(JP2-B)*
X21530100Y41231500D03*
G04 #@! TD*
G04 #@! TO.P,IC2,1,NC_1*
G04 #@! TO.N,GND*
G04 #@! TA.AperFunction,SMDPad,CuDef*
G36*
G01*
X33087540Y34946310D02*
X33087540Y34496310D01*
G75*
G02*
X33012540Y34421310I-75000J0D01*
G01*
X31262540Y34421310D01*
G75*
G02*
X31187540Y34496310I0J75000D01*
G01*
X31187540Y34946310D01*
G75*
G02*
X31262540Y35021310I75000J0D01*
G01*
X33012540Y35021310D01*
G75*
G02*
X33087540Y34946310I0J-75000D01*
G01*
G37*
G04 #@! TD.AperFunction*
G04 #@! TO.P,IC2,2,GND*
G04 #@! TA.AperFunction,SMDPad,CuDef*
G36*
G01*
X33087540Y36216310D02*
X33087540Y35766310D01*
G75*
G02*
X33012540Y35691310I-75000J0D01*
G01*
X31262540Y35691310D01*
G75*
G02*
X31187540Y35766310I0J75000D01*
G01*
X31187540Y36216310D01*
G75*
G02*
X31262540Y36291310I75000J0D01*
G01*
X33012540Y36291310D01*
G75*
G02*
X33087540Y36216310I0J-75000D01*
G01*
G37*
G04 #@! TD.AperFunction*
G04 #@! TO.P,IC2,3,VIN*
G04 #@! TO.N,Net-(IC2-VIN)*
G04 #@! TA.AperFunction,SMDPad,CuDef*
G36*
G01*
X33087540Y37486310D02*
X33087540Y37036310D01*
G75*
G02*
X33012540Y36961310I-75000J0D01*
G01*
X31262540Y36961310D01*
G75*
G02*
X31187540Y37036310I0J75000D01*
G01*
X31187540Y37486310D01*
G75*
G02*
X31262540Y37561310I75000J0D01*
G01*
X33012540Y37561310D01*
G75*
G02*
X33087540Y37486310I0J-75000D01*
G01*
G37*
G04 #@! TD.AperFunction*
G04 #@! TO.P,IC2,4,NC_2*
G04 #@! TO.N,GND*
G04 #@! TA.AperFunction,SMDPad,CuDef*
G36*
G01*
X33087540Y38756310D02*
X33087540Y38306310D01*
G75*
G02*
X33012540Y38231310I-75000J0D01*
G01*
X31262540Y38231310D01*
G75*
G02*
X31187540Y38306310I0J75000D01*
G01*
X31187540Y38756310D01*
G75*
G02*
X31262540Y38831310I75000J0D01*
G01*
X33012540Y38831310D01*
G75*
G02*
X33087540Y38756310I0J-75000D01*
G01*
G37*
G04 #@! TD.AperFunction*
G04 #@! TO.P,IC2,5,MODE*
G04 #@! TO.N,Net-(IC2-MODE)*
G04 #@! TA.AperFunction,SMDPad,CuDef*
G36*
G01*
X33087540Y40026310D02*
X33087540Y39576310D01*
G75*
G02*
X33012540Y39501310I-75000J0D01*
G01*
X31262540Y39501310D01*
G75*
G02*
X31187540Y39576310I0J75000D01*
G01*
X31187540Y40026310D01*
G75*
G02*
X31262540Y40101310I75000J0D01*
G01*
X33012540Y40101310D01*
G75*
G02*
X33087540Y40026310I0J-75000D01*
G01*
G37*
G04 #@! TD.AperFunction*
G04 #@! TO.P,IC2,6,NC_3*
G04 #@! TO.N,GND*
G04 #@! TA.AperFunction,SMDPad,CuDef*
G36*
G01*
X33087540Y41296310D02*
X33087540Y40846310D01*
G75*
G02*
X33012540Y40771310I-75000J0D01*
G01*
X31262540Y40771310D01*
G75*
G02*
X31187540Y40846310I0J75000D01*
G01*
X31187540Y41296310D01*
G75*
G02*
X31262540Y41371310I75000J0D01*
G01*
X33012540Y41371310D01*
G75*
G02*
X33087540Y41296310I0J-75000D01*
G01*
G37*
G04 #@! TD.AperFunction*
G04 #@! TO.P,IC2,7,PEAK_DETECTOR_CAPACITOR*
G04 #@! TO.N,Net-(IC2-PEAK_DETECTOR_CAPACITOR)*
G04 #@! TA.AperFunction,SMDPad,CuDef*
G36*
G01*
X33087540Y42566310D02*
X33087540Y42116310D01*
G75*
G02*
X33012540Y42041310I-75000J0D01*
G01*
X31262540Y42041310D01*
G75*
G02*
X31187540Y42116310I0J75000D01*
G01*
X31187540Y42566310D01*
G75*
G02*
X31262540Y42641310I75000J0D01*
G01*
X33012540Y42641310D01*
G75*
G02*
X33087540Y42566310I0J-75000D01*
G01*
G37*
G04 #@! TD.AperFunction*
G04 #@! TO.P,IC2,8,VCC*
G04 #@! TO.N,+5VA*
G04 #@! TA.AperFunction,SMDPad,CuDef*
G36*
G01*
X28177540Y42566310D02*
X28177540Y42116310D01*
G75*
G02*
X28102540Y42041310I-75000J0D01*
G01*
X26352540Y42041310D01*
G75*
G02*
X26277540Y42116310I0J75000D01*
G01*
X26277540Y42566310D01*
G75*
G02*
X26352540Y42641310I75000J0D01*
G01*
X28102540Y42641310D01*
G75*
G02*
X28177540Y42566310I0J-75000D01*
G01*
G37*
G04 #@! TD.AperFunction*
G04 #@! TO.P,IC2,9,TIMING_PULSE_INPUT*
G04 #@! TO.N,GND*
G04 #@! TA.AperFunction,SMDPad,CuDef*
G36*
G01*
X28177540Y41296310D02*
X28177540Y40846310D01*
G75*
G02*
X28102540Y40771310I-75000J0D01*
G01*
X26352540Y40771310D01*
G75*
G02*
X26277540Y40846310I0J75000D01*
G01*
X26277540Y41296310D01*
G75*
G02*
X26352540Y41371310I75000J0D01*
G01*
X28102540Y41371310D01*
G75*
G02*
X28177540Y41296310I0J-75000D01*
G01*
G37*
G04 #@! TD.AperFunction*
G04 #@! TO.P,IC2,10,GATED_OUTPUT*
G04 #@! TO.N,unconnected-(IC2-GATED_OUTPUT-Pad10)*
G04 #@! TA.AperFunction,SMDPad,CuDef*
G36*
G01*
X28177540Y40026310D02*
X28177540Y39576310D01*
G75*
G02*
X28102540Y39501310I-75000J0D01*
G01*
X26352540Y39501310D01*
G75*
G02*
X26277540Y39576310I0J75000D01*
G01*
X26277540Y40026310D01*
G75*
G02*
X26352540Y40101310I75000J0D01*
G01*
X28102540Y40101310D01*
G75*
G02*
X28177540Y40026310I0J-75000D01*
G01*
G37*
G04 #@! TD.AperFunction*
G04 #@! TO.P,IC2,11,INPUT_SELECT*
G04 #@! TO.N,GND*
G04 #@! TA.AperFunction,SMDPad,CuDef*
G36*
G01*
X28177540Y38756310D02*
X28177540Y38306310D01*
G75*
G02*
X28102540Y38231310I-75000J0D01*
G01*
X26352540Y38231310D01*
G75*
G02*
X26277540Y38306310I0J75000D01*
G01*
X26277540Y38756310D01*
G75*
G02*
X26352540Y38831310I75000J0D01*
G01*
X28102540Y38831310D01*
G75*
G02*
X28177540Y38756310I0J-75000D01*
G01*
G37*
G04 #@! TD.AperFunction*
G04 #@! TO.P,IC2,12,REFERENCE_PULSE_OUT*
G04 #@! TO.N,/VR2*
G04 #@! TA.AperFunction,SMDPad,CuDef*
G36*
G01*
X28177540Y37486310D02*
X28177540Y37036310D01*
G75*
G02*
X28102540Y36961310I-75000J0D01*
G01*
X26352540Y36961310D01*
G75*
G02*
X26277540Y37036310I0J75000D01*
G01*
X26277540Y37486310D01*
G75*
G02*
X26352540Y37561310I75000J0D01*
G01*
X28102540Y37561310D01*
G75*
G02*
X28177540Y37486310I0J-75000D01*
G01*
G37*
G04 #@! TD.AperFunction*
G04 #@! TO.P,IC2,13,NC_4*
G04 #@! TO.N,GND*
G04 #@! TA.AperFunction,SMDPad,CuDef*
G36*
G01*
X28177540Y36216310D02*
X28177540Y35766310D01*
G75*
G02*
X28102540Y35691310I-75000J0D01*
G01*
X26352540Y35691310D01*
G75*
G02*
X26277540Y35766310I0J75000D01*
G01*
X26277540Y36216310D01*
G75*
G02*
X26352540Y36291310I75000J0D01*
G01*
X28102540Y36291310D01*
G75*
G02*
X28177540Y36216310I0J-75000D01*
G01*
G37*
G04 #@! TD.AperFunction*
G04 #@! TO.P,IC2,14,RC_TIMING*
G04 #@! TO.N,Net-(IC2-RC_TIMING)*
G04 #@! TA.AperFunction,SMDPad,CuDef*
G36*
G01*
X28177540Y34946310D02*
X28177540Y34496310D01*
G75*
G02*
X28102540Y34421310I-75000J0D01*
G01*
X26352540Y34421310D01*
G75*
G02*
X26277540Y34496310I0J75000D01*
G01*
X26277540Y34946310D01*
G75*
G02*
X26352540Y35021310I75000J0D01*
G01*
X28102540Y35021310D01*
G75*
G02*
X28177540Y34946310I0J-75000D01*
G01*
G37*
G04 #@! TD.AperFunction*
G04 #@! TD*
G04 #@! TO.P,Q3,1,G*
G04 #@! TO.N,Net-(Q3-G)*
G04 #@! TA.AperFunction,SMDPad,CuDef*
G36*
G01*
X109796109Y32814372D02*
X109189891Y32464372D01*
G75*
G02*
X108848385Y32555878I-125000J216506D01*
G01*
X107998385Y34028122D01*
G75*
G02*
X108089891Y34369628I216506J125000D01*
G01*
X108696109Y34719628D01*
G75*
G02*
X109037615Y34628122I125000J-216506D01*
G01*
X109887615Y33155878D01*
G75*
G02*
X109796109Y32814372I-216506J-125000D01*
G01*
G37*
G04 #@! TD.AperFunction*
G04 #@! TO.P,Q3,2,C*
G04 #@! TO.N,/IGNOUT3*
G04 #@! TA.AperFunction,SMDPad,CuDef*
G36*
G01*
X111662506Y38741679D02*
X109713948Y37616679D01*
G75*
G02*
X109372442Y37708185I-125000J216506D01*
G01*
X108097442Y39916549D01*
G75*
G02*
X108188948Y40258055I216506J125000D01*
G01*
X110137506Y41383055D01*
G75*
G02*
X110479012Y41291549I125000J-216506D01*
G01*
X111754012Y39083185D01*
G75*
G02*
X111662506Y38741679I-216506J-125000D01*
G01*
G37*
G04 #@! TD.AperFunction*
G04 #@! TA.AperFunction,SMDPad,CuDef*
G36*
G01*
X109021128Y37216679D02*
X107072570Y36091679D01*
G75*
G02*
X106731064Y36183185I-125000J216506D01*
G01*
X105456064Y38391549D01*
G75*
G02*
X105547570Y38733055I216506J125000D01*
G01*
X107496128Y39858055D01*
G75*
G02*
X107837634Y39766549I125000J-216506D01*
G01*
X109112634Y37558185D01*
G75*
G02*
X109021128Y37216679I-216506J-125000D01*
G01*
G37*
G04 #@! TD.AperFunction*
G04 #@! TA.AperFunction,SMDPad,CuDef*
G36*
G01*
X111662508Y38741680D02*
X107072569Y36091677D01*
G75*
G02*
X106731066Y36183182I-124999J216504D01*
G01*
X103781063Y41292737D01*
G75*
G02*
X103872569Y41634240I216504J124999D01*
G01*
X108462508Y44284243D01*
G75*
G02*
X108804010Y44192737I124998J-216504D01*
G01*
X111754013Y39083182D01*
G75*
G02*
X111662508Y38741680I-216504J-124998D01*
G01*
G37*
G04 #@! TD.AperFunction*
G04 #@! TA.AperFunction,SMDPad,CuDef*
G36*
G01*
X109987506Y41642865D02*
X108038948Y40517865D01*
G75*
G02*
X107697442Y40609371I-125000J216506D01*
G01*
X106422442Y42817735D01*
G75*
G02*
X106513948Y43159241I216506J125000D01*
G01*
X108462506Y44284241D01*
G75*
G02*
X108804012Y44192735I125000J-216506D01*
G01*
X110079012Y41984371D01*
G75*
G02*
X109987506Y41642865I-216506J-125000D01*
G01*
G37*
G04 #@! TD.AperFunction*
G04 #@! TA.AperFunction,SMDPad,CuDef*
G36*
G01*
X107346128Y40117865D02*
X105397570Y38992865D01*
G75*
G02*
X105056064Y39084371I-125000J216506D01*
G01*
X103781064Y41292735D01*
G75*
G02*
X103872570Y41634241I216506J125000D01*
G01*
X105821128Y42759241D01*
G75*
G02*
X106162634Y42667735I125000J-216506D01*
G01*
X107437634Y40459371D01*
G75*
G02*
X107346128Y40117865I-216506J-125000D01*
G01*
G37*
G04 #@! TD.AperFunction*
G04 #@! TO.P,Q3,3,E*
G04 #@! TO.N,GND*
G04 #@! TA.AperFunction,SMDPad,CuDef*
G36*
G01*
X113745185Y35094372D02*
X113138967Y34744372D01*
G75*
G02*
X112797461Y34835878I-125000J216506D01*
G01*
X111947461Y36308122D01*
G75*
G02*
X112038967Y36649628I216506J125000D01*
G01*
X112645185Y36999628D01*
G75*
G02*
X112986691Y36908122I125000J-216506D01*
G01*
X113836691Y35435878D01*
G75*
G02*
X113745185Y35094372I-216506J-125000D01*
G01*
G37*
G04 #@! TD.AperFunction*
G04 #@! TD*
D18*
G04 #@! TO.P,M7,E1,LSU_Un*
G04 #@! TO.N,/WBO2_Un*
X2969000Y11120000D03*
G04 #@! TO.P,M7,E2,LSU_Vm*
G04 #@! TO.N,/WBO2_Vm*
X5969000Y11120000D03*
G04 #@! TO.P,M7,E3,LSU_Ip*
G04 #@! TO.N,/WBO2_Ip*
X4969000Y11120000D03*
G04 #@! TO.P,M7,E4,LSU_Rtrim*
G04 #@! TO.N,/WBO2_Rtrim*
X3969000Y11120000D03*
D19*
G04 #@! TO.P,M7,E5,LSU_H+*
G04 #@! TO.N,/WBO2_Heater*
X8119000Y12370000D03*
D20*
G04 #@! TO.P,M7,E6,LSU_H-*
G04 #@! TO.N,GND*
X11619000Y10745000D03*
D21*
G04 #@! TO.P,M7,G,GND*
X14819000Y38095000D03*
D22*
X10479000Y38095000D03*
X7179000Y38095000D03*
D23*
X2094000Y38095000D03*
D24*
X15244000Y24420000D03*
X1494000Y24420000D03*
D25*
X14394000Y10745000D03*
D26*
X1844000Y10745000D03*
G04 #@! TO.P,M7,J1,SEL1*
G04 #@! TO.N,Net-(M7-PULL_DOWN1)*
G04 #@! TA.AperFunction,SMDPad,CuDef*
G36*
G01*
X14219000Y28670000D02*
X12969000Y28670000D01*
G75*
G02*
X12844000Y28795000I0J125000D01*
G01*
X12844000Y29045000D01*
G75*
G02*
X12969000Y29170000I125000J0D01*
G01*
X14219000Y29170000D01*
G75*
G02*
X14344000Y29045000I0J-125000D01*
G01*
X14344000Y28795000D01*
G75*
G02*
X14219000Y28670000I-125000J0D01*
G01*
G37*
G04 #@! TD.AperFunction*
G04 #@! TO.P,M7,J2,SEL2*
G04 #@! TO.N,unconnected-(M7-SEL2-PadJ2)*
G04 #@! TA.AperFunction,SMDPad,CuDef*
G36*
G01*
X11544000Y30345000D02*
X11294000Y30345000D01*
G75*
G02*
X11169000Y30470000I0J125000D01*
G01*
X11169000Y31720000D01*
G75*
G02*
X11294000Y31845000I125000J0D01*
G01*
X11544000Y31845000D01*
G75*
G02*
X11669000Y31720000I0J-125000D01*
G01*
X11669000Y30470000D01*
G75*
G02*
X11544000Y30345000I-125000J0D01*
G01*
G37*
G04 #@! TD.AperFunction*
G04 #@! TO.P,M7,J_GND1,PULL_DOWN1*
G04 #@! TO.N,Net-(M7-PULL_DOWN1)*
G04 #@! TA.AperFunction,SMDPad,CuDef*
G36*
G01*
X14219000Y29470000D02*
X12969000Y29470000D01*
G75*
G02*
X12844000Y29595000I0J125000D01*
G01*
X12844000Y29845000D01*
G75*
G02*
X12969000Y29970000I125000J0D01*
G01*
X14219000Y29970000D01*
G75*
G02*
X14344000Y29845000I0J-125000D01*
G01*
X14344000Y29595000D01*
G75*
G02*
X14219000Y29470000I-125000J0D01*
G01*
G37*
G04 #@! TD.AperFunction*
G04 #@! TO.P,M7,J_GND2,PULL_DOWN2*
G04 #@! TO.N,unconnected-(M7-PULL_DOWN2-PadJ_GND2)*
G04 #@! TA.AperFunction,SMDPad,CuDef*
G36*
G01*
X11669000Y29795000D02*
X11669000Y29545000D01*
G75*
G02*
X11544000Y29420000I-125000J0D01*
G01*
X11294000Y29420000D01*
G75*
G02*
X11169000Y29545000I0J125000D01*
G01*
X11169000Y29795000D01*
G75*
G02*
X11294000Y29920000I125000J0D01*
G01*
X11544000Y29920000D01*
G75*
G02*
X11669000Y29795000I0J-125000D01*
G01*
G37*
G04 #@! TD.AperFunction*
G04 #@! TO.P,M7,J_VCC1,PULL_UP1*
G04 #@! TO.N,unconnected-(M7-PULL_UP1-PadJ_VCC1)*
G04 #@! TA.AperFunction,SMDPad,CuDef*
G36*
G01*
X12344000Y28670000D02*
X12094000Y28670000D01*
G75*
G02*
X11969000Y28795000I0J125000D01*
G01*
X11969000Y29045000D01*
G75*
G02*
X12094000Y29170000I125000J0D01*
G01*
X12344000Y29170000D01*
G75*
G02*
X12469000Y29045000I0J-125000D01*
G01*
X12469000Y28795000D01*
G75*
G02*
X12344000Y28670000I-125000J0D01*
G01*
G37*
G04 #@! TD.AperFunction*
G04 #@! TO.P,M7,J_VCC2,PULL_UP2*
G04 #@! TO.N,unconnected-(M7-PULL_UP2-PadJ_VCC2)*
G04 #@! TA.AperFunction,SMDPad,CuDef*
G36*
G01*
X12344000Y30345000D02*
X12094000Y30345000D01*
G75*
G02*
X11969000Y30470000I0J125000D01*
G01*
X11969000Y31720000D01*
G75*
G02*
X12094000Y31845000I125000J0D01*
G01*
X12344000Y31845000D01*
G75*
G02*
X12469000Y31720000I0J-125000D01*
G01*
X12469000Y30470000D01*
G75*
G02*
X12344000Y30345000I-125000J0D01*
G01*
G37*
G04 #@! TD.AperFunction*
D18*
G04 #@! TO.P,M7,W1,V5_IN*
G04 #@! TO.N,Net-(JP2-B)*
X12619000Y37711200D03*
G04 #@! TO.P,M7,W2,CAN_VIO*
G04 #@! TO.N,unconnected-(M7-CAN_VIO-PadW2)*
X11619000Y37711200D03*
G04 #@! TO.P,M7,W3,CANL*
G04 #@! TO.N,/CAN-*
X8323000Y37711200D03*
G04 #@! TO.P,M7,W4,CANH*
G04 #@! TO.N,/CAN+*
X9339000Y37711200D03*
G04 #@! TO.P,M7,W5,nReset*
G04 #@! TO.N,unconnected-(M7-nReset-PadW5)*
G04 #@! TA.AperFunction,SMDPad,CuDef*
G36*
G01*
X6319000Y38220000D02*
X6319000Y38220000D01*
G75*
G02*
X6444000Y38095000I0J-125000D01*
G01*
X6444000Y37845000D01*
G75*
G02*
X6319000Y37720000I-125000J0D01*
G01*
X6319000Y37720000D01*
G75*
G02*
X6194000Y37845000I0J125000D01*
G01*
X6194000Y38095000D01*
G75*
G02*
X6319000Y38220000I125000J0D01*
G01*
G37*
G04 #@! TD.AperFunction*
G04 #@! TO.P,M7,W6,SWDIO*
G04 #@! TO.N,unconnected-(M7-SWDIO-PadW6)*
G04 #@! TA.AperFunction,SMDPad,CuDef*
G36*
G01*
X5819000Y38220000D02*
X5819000Y38220000D01*
G75*
G02*
X5944000Y38095000I0J-125000D01*
G01*
X5944000Y37845000D01*
G75*
G02*
X5819000Y37720000I-125000J0D01*
G01*
X5819000Y37720000D01*
G75*
G02*
X5694000Y37845000I0J125000D01*
G01*
X5694000Y38095000D01*
G75*
G02*
X5819000Y38220000I125000J0D01*
G01*
G37*
G04 #@! TD.AperFunction*
G04 #@! TO.P,M7,W7,SWCLK*
G04 #@! TO.N,unconnected-(M7-SWCLK-PadW7)*
G04 #@! TA.AperFunction,SMDPad,CuDef*
G36*
G01*
X5319000Y38220000D02*
X5319000Y38220000D01*
G75*
G02*
X5444000Y38095000I0J-125000D01*
G01*
X5444000Y37845000D01*
G75*
G02*
X5319000Y37720000I-125000J0D01*
G01*
X5319000Y37720000D01*
G75*
G02*
X5194000Y37845000I0J125000D01*
G01*
X5194000Y38095000D01*
G75*
G02*
X5319000Y38220000I125000J0D01*
G01*
G37*
G04 #@! TD.AperFunction*
G04 #@! TO.P,M7,W8,V33_OUT*
G04 #@! TO.N,unconnected-(M7-V33_OUT-PadW8)*
G04 #@! TA.AperFunction,SMDPad,CuDef*
G36*
G01*
X3219000Y38220000D02*
X3219000Y38220000D01*
G75*
G02*
X3344000Y38095000I0J-125000D01*
G01*
X3344000Y37845000D01*
G75*
G02*
X3219000Y37720000I-125000J0D01*
G01*
X3219000Y37720000D01*
G75*
G02*
X3094000Y37845000I0J125000D01*
G01*
X3094000Y38095000D01*
G75*
G02*
X3219000Y38220000I125000J0D01*
G01*
G37*
G04 #@! TD.AperFunction*
G04 #@! TO.P,M7,W9,VDDA*
G04 #@! TO.N,unconnected-(M7-VDDA-PadW9)*
X13619000Y37711200D03*
G04 #@! TD*
D27*
G04 #@! TO.P,M1,E1,VBAT*
G04 #@! TO.N,/VBAT*
X22089005Y10557001D03*
G04 #@! TO.P,M1,E2,V12*
G04 #@! TO.N,unconnected-(M1-V12-PadE2)*
X22089005Y16956998D03*
G04 #@! TO.P,M1,E3,VIGN*
G04 #@! TO.N,/VIGN*
X22089005Y18857001D03*
G04 #@! TO.P,M1,E4,V5*
G04 #@! TO.N,+5V*
X22089005Y23157001D03*
D28*
G04 #@! TO.P,M1,E5,EN_5VP*
G04 #@! TO.N,/PWR_EN*
X21639006Y25556998D03*
G04 #@! TO.P,M1,E6,PG_5VP*
G04 #@! TO.N,Net-(M1-PG_5VP)*
X21639006Y26556999D03*
D29*
G04 #@! TO.P,M1,S1,GND*
G04 #@! TO.N,GND*
X38239001Y14407001D03*
D30*
X38239001Y22906999D03*
D31*
X38239001Y30007001D03*
D32*
X29839003Y30057001D03*
D33*
X29039002Y9457001D03*
D27*
X22089005Y29407001D03*
D31*
X21439004Y9507001D03*
D34*
X21439004Y13706999D03*
D35*
X21439004Y21057001D03*
D36*
X21439004Y24556998D03*
D37*
X21439004Y27856999D03*
D27*
G04 #@! TO.P,M1,V1,V12_PERM*
G04 #@! TO.N,+12V_RAW*
X37589002Y10106999D03*
G04 #@! TO.P,M1,V2,IN_VIGN*
G04 #@! TO.N,/IN_VIGN*
X37589002Y11956998D03*
G04 #@! TO.P,M1,V3,V12_RAW*
G04 #@! TO.N,+12V_RAW*
X37589002Y16907001D03*
G04 #@! TO.P,M1,V4,5VP*
G04 #@! TO.N,+5VP*
X37589002Y28956999D03*
G04 #@! TD*
D12*
G04 #@! TO.P,Q13,1,G*
G04 #@! TO.N,/INJ1*
X137258000Y46252000D03*
G04 #@! TO.P,Q13,2,D*
G04 #@! TO.N,/INJOUT1*
X137258000Y48552000D03*
G04 #@! TO.P,Q13,3,S*
G04 #@! TO.N,GND*
X137258000Y50852000D03*
D13*
G04 #@! TO.P,Q13,4*
G04 #@! TO.N,N/C*
X130958000Y48552000D03*
G04 #@! TD*
D12*
G04 #@! TO.P,Q8,1,G*
G04 #@! TO.N,/LS2*
X121556000Y46011000D03*
G04 #@! TO.P,Q8,2,D*
G04 #@! TO.N,/OUT_LS2*
X121556000Y43711000D03*
G04 #@! TO.P,Q8,3,S*
G04 #@! TO.N,GND*
X121556000Y41411000D03*
D13*
G04 #@! TO.P,Q8,4*
G04 #@! TO.N,N/C*
X127856000Y43711000D03*
G04 #@! TD*
D14*
G04 #@! TO.P,INT_MAP,1*
G04 #@! TO.N,/INTERNAL_MAP*
X66495000Y56857000D03*
G04 #@! TD*
G04 #@! TO.P,C1,1*
G04 #@! TO.N,GND*
G04 #@! TA.AperFunction,SMDPad,CuDef*
G36*
G01*
X142344994Y3064999D02*
X141664994Y3064999D01*
G75*
G02*
X141579994Y3149999I0J85000D01*
G01*
X141579994Y3829999D01*
G75*
G02*
X141664994Y3914999I85000J0D01*
G01*
X142344994Y3914999D01*
G75*
G02*
X142429994Y3829999I0J-85000D01*
G01*
X142429994Y3149999D01*
G75*
G02*
X142344994Y3064999I-85000J0D01*
G01*
G37*
G04 #@! TD.AperFunction*
G04 #@! TO.P,C1,2*
G04 #@! TO.N,Net-(JP3-B)*
G04 #@! TA.AperFunction,SMDPad,CuDef*
G36*
G01*
X142344994Y4645001D02*
X141664994Y4645001D01*
G75*
G02*
X141579994Y4730001I0J85000D01*
G01*
X141579994Y5410001D01*
G75*
G02*
X141664994Y5495001I85000J0D01*
G01*
X142344994Y5495001D01*
G75*
G02*
X142429994Y5410001I0J-85000D01*
G01*
X142429994Y4730001D01*
G75*
G02*
X142344994Y4645001I-85000J0D01*
G01*
G37*
G04 #@! TD.AperFunction*
G04 #@! TD*
G04 #@! TO.P,R10,1*
G04 #@! TO.N,Net-(Q2-G)*
G04 #@! TA.AperFunction,SMDPad,CuDef*
G36*
G01*
X98353071Y27066250D02*
X97963071Y27741750D01*
G75*
G02*
X97988693Y27837372I60622J35000D01*
G01*
X98473667Y28117372D01*
G75*
G02*
X98569289Y28091750I35000J-60622D01*
G01*
X98959289Y27416250D01*
G75*
G02*
X98933667Y27320628I-60622J-35000D01*
G01*
X98448693Y27040628D01*
G75*
G02*
X98353071Y27066250I-35000J60622D01*
G01*
G37*
G04 #@! TD.AperFunction*
G04 #@! TO.P,R10,2*
G04 #@! TO.N,/IGN2*
G04 #@! TA.AperFunction,SMDPad,CuDef*
G36*
G01*
X99738711Y27866250D02*
X99348711Y28541750D01*
G75*
G02*
X99374333Y28637372I60622J35000D01*
G01*
X99859307Y28917372D01*
G75*
G02*
X99954929Y28891750I35000J-60622D01*
G01*
X100344929Y28216250D01*
G75*
G02*
X100319307Y28120628I-60622J-35000D01*
G01*
X99834333Y27840628D01*
G75*
G02*
X99738711Y27866250I-35000J60622D01*
G01*
G37*
G04 #@! TD.AperFunction*
G04 #@! TD*
G04 #@! TO.P,C3,1*
G04 #@! TO.N,GND*
G04 #@! TA.AperFunction,SMDPad,CuDef*
G36*
G01*
X25477000Y40873000D02*
X25137000Y40873000D01*
G75*
G02*
X24997000Y41013000I0J140000D01*
G01*
X24997000Y41293000D01*
G75*
G02*
X25137000Y41433000I140000J0D01*
G01*
X25477000Y41433000D01*
G75*
G02*
X25617000Y41293000I0J-140000D01*
G01*
X25617000Y41013000D01*
G75*
G02*
X25477000Y40873000I-140000J0D01*
G01*
G37*
G04 #@! TD.AperFunction*
G04 #@! TO.P,C3,2*
G04 #@! TO.N,+5VA*
G04 #@! TA.AperFunction,SMDPad,CuDef*
G36*
G01*
X25477000Y41833000D02*
X25137000Y41833000D01*
G75*
G02*
X24997000Y41973000I0J140000D01*
G01*
X24997000Y42253000D01*
G75*
G02*
X25137000Y42393000I140000J0D01*
G01*
X25477000Y42393000D01*
G75*
G02*
X25617000Y42253000I0J-140000D01*
G01*
X25617000Y41973000D01*
G75*
G02*
X25477000Y41833000I-140000J0D01*
G01*
G37*
G04 #@! TD.AperFunction*
G04 #@! TD*
G04 #@! TO.P,R22,1*
G04 #@! TO.N,GND*
G04 #@! TA.AperFunction,SMDPad,CuDef*
G36*
G01*
X121357000Y38585928D02*
X121357000Y39365928D01*
G75*
G02*
X121427000Y39435928I70000J0D01*
G01*
X121987000Y39435928D01*
G75*
G02*
X122057000Y39365928I0J-70000D01*
G01*
X122057000Y38585928D01*
G75*
G02*
X121987000Y38515928I-70000J0D01*
G01*
X121427000Y38515928D01*
G75*
G02*
X121357000Y38585928I0J70000D01*
G01*
G37*
G04 #@! TD.AperFunction*
G04 #@! TO.P,R22,2*
G04 #@! TO.N,/LS2*
G04 #@! TA.AperFunction,SMDPad,CuDef*
G36*
G01*
X122957000Y38585928D02*
X122957000Y39365928D01*
G75*
G02*
X123027000Y39435928I70000J0D01*
G01*
X123587000Y39435928D01*
G75*
G02*
X123657000Y39365928I0J-70000D01*
G01*
X123657000Y38585928D01*
G75*
G02*
X123587000Y38515928I-70000J0D01*
G01*
X123027000Y38515928D01*
G75*
G02*
X122957000Y38585928I0J70000D01*
G01*
G37*
G04 #@! TD.AperFunction*
G04 #@! TD*
G04 #@! TO.P,C5,1*
G04 #@! TO.N,GND*
G04 #@! TA.AperFunction,SMDPad,CuDef*
G36*
G01*
X32081440Y44859160D02*
X32421440Y44859160D01*
G75*
G02*
X32561440Y44719160I0J-140000D01*
G01*
X32561440Y44439160D01*
G75*
G02*
X32421440Y44299160I-140000J0D01*
G01*
X32081440Y44299160D01*
G75*
G02*
X31941440Y44439160I0J140000D01*
G01*
X31941440Y44719160D01*
G75*
G02*
X32081440Y44859160I140000J0D01*
G01*
G37*
G04 #@! TD.AperFunction*
G04 #@! TO.P,C5,2*
G04 #@! TO.N,Net-(IC2-PEAK_DETECTOR_CAPACITOR)*
G04 #@! TA.AperFunction,SMDPad,CuDef*
G36*
G01*
X32081440Y43899160D02*
X32421440Y43899160D01*
G75*
G02*
X32561440Y43759160I0J-140000D01*
G01*
X32561440Y43479160D01*
G75*
G02*
X32421440Y43339160I-140000J0D01*
G01*
X32081440Y43339160D01*
G75*
G02*
X31941440Y43479160I0J140000D01*
G01*
X31941440Y43759160D01*
G75*
G02*
X32081440Y43899160I140000J0D01*
G01*
G37*
G04 #@! TD.AperFunction*
G04 #@! TD*
G04 #@! TO.P,R37,1*
G04 #@! TO.N,+5VA*
G04 #@! TA.AperFunction,SMDPad,CuDef*
G36*
G01*
X16536680Y41576520D02*
X16536680Y41206520D01*
G75*
G02*
X16401680Y41071520I-135000J0D01*
G01*
X16131680Y41071520D01*
G75*
G02*
X15996680Y41206520I0J135000D01*
G01*
X15996680Y41576520D01*
G75*
G02*
X16131680Y41711520I135000J0D01*
G01*
X16401680Y41711520D01*
G75*
G02*
X16536680Y41576520I0J-135000D01*
G01*
G37*
G04 #@! TD.AperFunction*
G04 #@! TO.P,R37,2*
G04 #@! TO.N,Net-(IC2A1-MODE)*
G04 #@! TA.AperFunction,SMDPad,CuDef*
G36*
G01*
X15516680Y41576520D02*
X15516680Y41206520D01*
G75*
G02*
X15381680Y41071520I-135000J0D01*
G01*
X15111680Y41071520D01*
G75*
G02*
X14976680Y41206520I0J135000D01*
G01*
X14976680Y41576520D01*
G75*
G02*
X15111680Y41711520I135000J0D01*
G01*
X15381680Y41711520D01*
G75*
G02*
X15516680Y41576520I0J-135000D01*
G01*
G37*
G04 #@! TD.AperFunction*
G04 #@! TD*
G04 #@! TO.P,IC2A1,1,NC_1*
G04 #@! TO.N,GND*
G04 #@! TA.AperFunction,SMDPad,CuDef*
G36*
G01*
X10380020Y44432870D02*
X9930020Y44432870D01*
G75*
G02*
X9855020Y44507870I0J75000D01*
G01*
X9855020Y46257870D01*
G75*
G02*
X9930020Y46332870I75000J0D01*
G01*
X10380020Y46332870D01*
G75*
G02*
X10455020Y46257870I0J-75000D01*
G01*
X10455020Y44507870D01*
G75*
G02*
X10380020Y44432870I-75000J0D01*
G01*
G37*
G04 #@! TD.AperFunction*
G04 #@! TO.P,IC2A1,2,GND*
G04 #@! TA.AperFunction,SMDPad,CuDef*
G36*
G01*
X11650020Y44432870D02*
X11200020Y44432870D01*
G75*
G02*
X11125020Y44507870I0J75000D01*
G01*
X11125020Y46257870D01*
G75*
G02*
X11200020Y46332870I75000J0D01*
G01*
X11650020Y46332870D01*
G75*
G02*
X11725020Y46257870I0J-75000D01*
G01*
X11725020Y44507870D01*
G75*
G02*
X11650020Y44432870I-75000J0D01*
G01*
G37*
G04 #@! TD.AperFunction*
G04 #@! TO.P,IC2A1,3,VIN*
G04 #@! TO.N,Net-(IC2A1-VIN)*
G04 #@! TA.AperFunction,SMDPad,CuDef*
G36*
G01*
X12920020Y44432870D02*
X12470020Y44432870D01*
G75*
G02*
X12395020Y44507870I0J75000D01*
G01*
X12395020Y46257870D01*
G75*
G02*
X12470020Y46332870I75000J0D01*
G01*
X12920020Y46332870D01*
G75*
G02*
X12995020Y46257870I0J-75000D01*
G01*
X12995020Y44507870D01*
G75*
G02*
X12920020Y44432870I-75000J0D01*
G01*
G37*
G04 #@! TD.AperFunction*
G04 #@! TO.P,IC2A1,4,NC_2*
G04 #@! TO.N,GND*
G04 #@! TA.AperFunction,SMDPad,CuDef*
G36*
G01*
X14190020Y44432870D02*
X13740020Y44432870D01*
G75*
G02*
X13665020Y44507870I0J75000D01*
G01*
X13665020Y46257870D01*
G75*
G02*
X13740020Y46332870I75000J0D01*
G01*
X14190020Y46332870D01*
G75*
G02*
X14265020Y46257870I0J-75000D01*
G01*
X14265020Y44507870D01*
G75*
G02*
X14190020Y44432870I-75000J0D01*
G01*
G37*
G04 #@! TD.AperFunction*
G04 #@! TO.P,IC2A1,5,MODE*
G04 #@! TO.N,Net-(IC2A1-MODE)*
G04 #@! TA.AperFunction,SMDPad,CuDef*
G36*
G01*
X15460020Y44432870D02*
X15010020Y44432870D01*
G75*
G02*
X14935020Y44507870I0J75000D01*
G01*
X14935020Y46257870D01*
G75*
G02*
X15010020Y46332870I75000J0D01*
G01*
X15460020Y46332870D01*
G75*
G02*
X15535020Y46257870I0J-75000D01*
G01*
X15535020Y44507870D01*
G75*
G02*
X15460020Y44432870I-75000J0D01*
G01*
G37*
G04 #@! TD.AperFunction*
G04 #@! TO.P,IC2A1,6,NC_3*
G04 #@! TO.N,GND*
G04 #@! TA.AperFunction,SMDPad,CuDef*
G36*
G01*
X16730020Y44432870D02*
X16280020Y44432870D01*
G75*
G02*
X16205020Y44507870I0J75000D01*
G01*
X16205020Y46257870D01*
G75*
G02*
X16280020Y46332870I75000J0D01*
G01*
X16730020Y46332870D01*
G75*
G02*
X16805020Y46257870I0J-75000D01*
G01*
X16805020Y44507870D01*
G75*
G02*
X16730020Y44432870I-75000J0D01*
G01*
G37*
G04 #@! TD.AperFunction*
G04 #@! TO.P,IC2A1,7,PEAK_DETECTOR_CAPACITOR*
G04 #@! TO.N,Net-(IC2A1-PEAK_DETECTOR_CAPACITOR)*
G04 #@! TA.AperFunction,SMDPad,CuDef*
G36*
G01*
X18000020Y44432870D02*
X17550020Y44432870D01*
G75*
G02*
X17475020Y44507870I0J75000D01*
G01*
X17475020Y46257870D01*
G75*
G02*
X17550020Y46332870I75000J0D01*
G01*
X18000020Y46332870D01*
G75*
G02*
X18075020Y46257870I0J-75000D01*
G01*
X18075020Y44507870D01*
G75*
G02*
X18000020Y44432870I-75000J0D01*
G01*
G37*
G04 #@! TD.AperFunction*
G04 #@! TO.P,IC2A1,8,VCC*
G04 #@! TO.N,+5VA*
G04 #@! TA.AperFunction,SMDPad,CuDef*
G36*
G01*
X18000020Y49342870D02*
X17550020Y49342870D01*
G75*
G02*
X17475020Y49417870I0J75000D01*
G01*
X17475020Y51167870D01*
G75*
G02*
X17550020Y51242870I75000J0D01*
G01*
X18000020Y51242870D01*
G75*
G02*
X18075020Y51167870I0J-75000D01*
G01*
X18075020Y49417870D01*
G75*
G02*
X18000020Y49342870I-75000J0D01*
G01*
G37*
G04 #@! TD.AperFunction*
G04 #@! TO.P,IC2A1,9,TIMING_PULSE_INPUT*
G04 #@! TO.N,GND*
G04 #@! TA.AperFunction,SMDPad,CuDef*
G36*
G01*
X16730020Y49342870D02*
X16280020Y49342870D01*
G75*
G02*
X16205020Y49417870I0J75000D01*
G01*
X16205020Y51167870D01*
G75*
G02*
X16280020Y51242870I75000J0D01*
G01*
X16730020Y51242870D01*
G75*
G02*
X16805020Y51167870I0J-75000D01*
G01*
X16805020Y49417870D01*
G75*
G02*
X16730020Y49342870I-75000J0D01*
G01*
G37*
G04 #@! TD.AperFunction*
G04 #@! TO.P,IC2A1,10,GATED_OUTPUT*
G04 #@! TO.N,unconnected-(IC2A1-GATED_OUTPUT-Pad10)*
G04 #@! TA.AperFunction,SMDPad,CuDef*
G36*
G01*
X15460020Y49342870D02*
X15010020Y49342870D01*
G75*
G02*
X14935020Y49417870I0J75000D01*
G01*
X14935020Y51167870D01*
G75*
G02*
X15010020Y51242870I75000J0D01*
G01*
X15460020Y51242870D01*
G75*
G02*
X15535020Y51167870I0J-75000D01*
G01*
X15535020Y49417870D01*
G75*
G02*
X15460020Y49342870I-75000J0D01*
G01*
G37*
G04 #@! TD.AperFunction*
G04 #@! TO.P,IC2A1,11,INPUT_SELECT*
G04 #@! TO.N,GND*
G04 #@! TA.AperFunction,SMDPad,CuDef*
G36*
G01*
X14190020Y49342870D02*
X13740020Y49342870D01*
G75*
G02*
X13665020Y49417870I0J75000D01*
G01*
X13665020Y51167870D01*
G75*
G02*
X13740020Y51242870I75000J0D01*
G01*
X14190020Y51242870D01*
G75*
G02*
X14265020Y51167870I0J-75000D01*
G01*
X14265020Y49417870D01*
G75*
G02*
X14190020Y49342870I-75000J0D01*
G01*
G37*
G04 #@! TD.AperFunction*
G04 #@! TO.P,IC2A1,12,REFERENCE_PULSE_OUT*
G04 #@! TO.N,/VR1*
G04 #@! TA.AperFunction,SMDPad,CuDef*
G36*
G01*
X12920020Y49342870D02*
X12470020Y49342870D01*
G75*
G02*
X12395020Y49417870I0J75000D01*
G01*
X12395020Y51167870D01*
G75*
G02*
X12470020Y51242870I75000J0D01*
G01*
X12920020Y51242870D01*
G75*
G02*
X12995020Y51167870I0J-75000D01*
G01*
X12995020Y49417870D01*
G75*
G02*
X12920020Y49342870I-75000J0D01*
G01*
G37*
G04 #@! TD.AperFunction*
G04 #@! TO.P,IC2A1,13,NC_4*
G04 #@! TO.N,GND*
G04 #@! TA.AperFunction,SMDPad,CuDef*
G36*
G01*
X11650020Y49342870D02*
X11200020Y49342870D01*
G75*
G02*
X11125020Y49417870I0J75000D01*
G01*
X11125020Y51167870D01*
G75*
G02*
X11200020Y51242870I75000J0D01*
G01*
X11650020Y51242870D01*
G75*
G02*
X11725020Y51167870I0J-75000D01*
G01*
X11725020Y49417870D01*
G75*
G02*
X11650020Y49342870I-75000J0D01*
G01*
G37*
G04 #@! TD.AperFunction*
G04 #@! TO.P,IC2A1,14,RC_TIMING*
G04 #@! TO.N,Net-(IC2A1-RC_TIMING)*
G04 #@! TA.AperFunction,SMDPad,CuDef*
G36*
G01*
X10380020Y49342870D02*
X9930020Y49342870D01*
G75*
G02*
X9855020Y49417870I0J75000D01*
G01*
X9855020Y51167870D01*
G75*
G02*
X9930020Y51242870I75000J0D01*
G01*
X10380020Y51242870D01*
G75*
G02*
X10455020Y51167870I0J-75000D01*
G01*
X10455020Y49417870D01*
G75*
G02*
X10380020Y49342870I-75000J0D01*
G01*
G37*
G04 #@! TD.AperFunction*
G04 #@! TD*
G04 #@! TO.P,R11,1*
G04 #@! TO.N,Net-(Q3-G)*
G04 #@! TA.AperFunction,SMDPad,CuDef*
G36*
G01*
X109890071Y31201250D02*
X109500071Y31876750D01*
G75*
G02*
X109525693Y31972372I60622J35000D01*
G01*
X110010667Y32252372D01*
G75*
G02*
X110106289Y32226750I35000J-60622D01*
G01*
X110496289Y31551250D01*
G75*
G02*
X110470667Y31455628I-60622J-35000D01*
G01*
X109985693Y31175628D01*
G75*
G02*
X109890071Y31201250I-35000J60622D01*
G01*
G37*
G04 #@! TD.AperFunction*
G04 #@! TO.P,R11,2*
G04 #@! TO.N,/IGN3*
G04 #@! TA.AperFunction,SMDPad,CuDef*
G36*
G01*
X111275711Y32001250D02*
X110885711Y32676750D01*
G75*
G02*
X110911333Y32772372I60622J35000D01*
G01*
X111396307Y33052372D01*
G75*
G02*
X111491929Y33026750I35000J-60622D01*
G01*
X111881929Y32351250D01*
G75*
G02*
X111856307Y32255628I-60622J-35000D01*
G01*
X111371333Y31975628D01*
G75*
G02*
X111275711Y32001250I-35000J60622D01*
G01*
G37*
G04 #@! TD.AperFunction*
G04 #@! TD*
D38*
G04 #@! TO.P,J4,1,1*
G04 #@! TO.N,/WBO2_Heater*
X66007000Y13720000D03*
D39*
G04 #@! TO.P,J4,2,2*
G04 #@! TO.N,+12V_RAW*
X70007000Y13720000D03*
G04 #@! TO.P,J4,3,3*
X74007000Y13720000D03*
G04 #@! TO.P,J4,4,4*
G04 #@! TO.N,/INTAKEFLAP*
X78007000Y13720000D03*
G04 #@! TO.P,J4,5,5*
G04 #@! TO.N,/OUT_LS2*
X82007000Y13720000D03*
G04 #@! TO.P,J4,6,6*
G04 #@! TO.N,/OUT_LS3*
X86007000Y13720000D03*
G04 #@! TO.P,J4,7,7*
G04 #@! TO.N,+12V_RAW*
X90007000Y13720000D03*
G04 #@! TO.P,J4,8,8*
G04 #@! TO.N,/CAN+*
X94007000Y13720000D03*
G04 #@! TO.P,J4,9,9*
G04 #@! TO.N,GND*
X68007000Y9720000D03*
G04 #@! TO.P,J4,10,10*
G04 #@! TO.N,/IN_BUTTON3*
X72007000Y9720000D03*
G04 #@! TO.P,J4,11,11*
G04 #@! TO.N,/IN_FLEX*
X76007000Y9720000D03*
G04 #@! TO.P,J4,12,12*
G04 #@! TO.N,/IN_AUX1*
X80007000Y9720000D03*
G04 #@! TO.P,J4,13,13*
G04 #@! TO.N,/IN_AUX2*
X84007000Y9720000D03*
G04 #@! TO.P,J4,14,14*
G04 #@! TO.N,/CAN-*
X88007000Y9720000D03*
G04 #@! TO.P,J4,15,15*
G04 #@! TO.N,/WBO_Heater*
X92007000Y9720000D03*
G04 #@! TO.P,J4,16,16*
G04 #@! TO.N,/WBO2_Vm*
X66007000Y5720000D03*
G04 #@! TO.P,J4,17,17*
G04 #@! TO.N,/WBO2_Ip*
X70007000Y5720000D03*
G04 #@! TO.P,J4,18,18*
G04 #@! TO.N,/WBO2_Un*
X74007000Y5720000D03*
G04 #@! TO.P,J4,19,19*
G04 #@! TO.N,/WBO2_Rtrim*
X78007000Y5720000D03*
G04 #@! TO.P,J4,20,20*
G04 #@! TO.N,/WBO_Un*
X82007000Y5720000D03*
G04 #@! TO.P,J4,21,21*
G04 #@! TO.N,/WBO_Rtrim*
X86007000Y5720000D03*
G04 #@! TO.P,J4,22,22*
G04 #@! TO.N,/WBO_Ip*
X90007000Y5720000D03*
G04 #@! TO.P,J4,23,23*
G04 #@! TO.N,/WBO_Vm*
X94007000Y5720000D03*
G04 #@! TD*
G04 #@! TO.P,Q2,1,G*
G04 #@! TO.N,Net-(Q2-G)*
G04 #@! TA.AperFunction,SMDPad,CuDef*
G36*
G01*
X98171571Y28713065D02*
X97565353Y28363065D01*
G75*
G02*
X97223847Y28454571I-125000J216506D01*
G01*
X96373847Y29926815D01*
G75*
G02*
X96465353Y30268321I216506J125000D01*
G01*
X97071571Y30618321D01*
G75*
G02*
X97413077Y30526815I125000J-216506D01*
G01*
X98263077Y29054571D01*
G75*
G02*
X98171571Y28713065I-216506J-125000D01*
G01*
G37*
G04 #@! TD.AperFunction*
G04 #@! TO.P,Q2,2,C*
G04 #@! TO.N,/IGNOUT2*
G04 #@! TA.AperFunction,SMDPad,CuDef*
G36*
G01*
X100037968Y34640372D02*
X98089410Y33515372D01*
G75*
G02*
X97747904Y33606878I-125000J216506D01*
G01*
X96472904Y35815242D01*
G75*
G02*
X96564410Y36156748I216506J125000D01*
G01*
X98512968Y37281748D01*
G75*
G02*
X98854474Y37190242I125000J-216506D01*
G01*
X100129474Y34981878D01*
G75*
G02*
X100037968Y34640372I-216506J-125000D01*
G01*
G37*
G04 #@! TD.AperFunction*
G04 #@! TA.AperFunction,SMDPad,CuDef*
G36*
G01*
X97396590Y33115372D02*
X95448032Y31990372D01*
G75*
G02*
X95106526Y32081878I-125000J216506D01*
G01*
X93831526Y34290242D01*
G75*
G02*
X93923032Y34631748I216506J125000D01*
G01*
X95871590Y35756748D01*
G75*
G02*
X96213096Y35665242I125000J-216506D01*
G01*
X97488096Y33456878D01*
G75*
G02*
X97396590Y33115372I-216506J-125000D01*
G01*
G37*
G04 #@! TD.AperFunction*
G04 #@! TA.AperFunction,SMDPad,CuDef*
G36*
G01*
X100037970Y34640373D02*
X95448031Y31990370D01*
G75*
G02*
X95106528Y32081875I-124999J216504D01*
G01*
X92156525Y37191430D01*
G75*
G02*
X92248031Y37532933I216504J124999D01*
G01*
X96837970Y40182936D01*
G75*
G02*
X97179472Y40091430I124998J-216504D01*
G01*
X100129475Y34981875D01*
G75*
G02*
X100037970Y34640373I-216504J-124998D01*
G01*
G37*
G04 #@! TD.AperFunction*
G04 #@! TA.AperFunction,SMDPad,CuDef*
G36*
G01*
X98362968Y37541558D02*
X96414410Y36416558D01*
G75*
G02*
X96072904Y36508064I-125000J216506D01*
G01*
X94797904Y38716428D01*
G75*
G02*
X94889410Y39057934I216506J125000D01*
G01*
X96837968Y40182934D01*
G75*
G02*
X97179474Y40091428I125000J-216506D01*
G01*
X98454474Y37883064D01*
G75*
G02*
X98362968Y37541558I-216506J-125000D01*
G01*
G37*
G04 #@! TD.AperFunction*
G04 #@! TA.AperFunction,SMDPad,CuDef*
G36*
G01*
X95721590Y36016558D02*
X93773032Y34891558D01*
G75*
G02*
X93431526Y34983064I-125000J216506D01*
G01*
X92156526Y37191428D01*
G75*
G02*
X92248032Y37532934I216506J125000D01*
G01*
X94196590Y38657934D01*
G75*
G02*
X94538096Y38566428I125000J-216506D01*
G01*
X95813096Y36358064D01*
G75*
G02*
X95721590Y36016558I-216506J-125000D01*
G01*
G37*
G04 #@! TD.AperFunction*
G04 #@! TO.P,Q2,3,E*
G04 #@! TO.N,GND*
G04 #@! TA.AperFunction,SMDPad,CuDef*
G36*
G01*
X102120647Y30993065D02*
X101514429Y30643065D01*
G75*
G02*
X101172923Y30734571I-125000J216506D01*
G01*
X100322923Y32206815D01*
G75*
G02*
X100414429Y32548321I216506J125000D01*
G01*
X101020647Y32898321D01*
G75*
G02*
X101362153Y32806815I125000J-216506D01*
G01*
X102212153Y31334571D01*
G75*
G02*
X102120647Y30993065I-216506J-125000D01*
G01*
G37*
G04 #@! TD.AperFunction*
G04 #@! TD*
G04 #@! TO.P,U1,A1,A1*
G04 #@! TO.N,unconnected-(U1-PadA1)*
G04 #@! TA.AperFunction,ComponentPad*
G36*
G01*
X150375000Y59331001D02*
X150375000Y60930999D01*
G75*
G02*
X150625001Y61181000I250001J0D01*
G01*
X152224999Y61181000D01*
G75*
G02*
X152475000Y60930999I0J-250001D01*
G01*
X152475000Y59331001D01*
G75*
G02*
X152224999Y59081000I-250001J0D01*
G01*
X150625001Y59081000D01*
G75*
G02*
X150375000Y59331001I0J250001D01*
G01*
G37*
G04 #@! TD.AperFunction*
G04 #@! TO.P,U1,A2,A2*
G04 #@! TO.N,unconnected-(U1-PadA2)*
G04 #@! TA.AperFunction,ComponentPad*
G36*
G01*
X144675000Y59331001D02*
X144675000Y60930999D01*
G75*
G02*
X144925001Y61181000I250001J0D01*
G01*
X146524999Y61181000D01*
G75*
G02*
X146775000Y60930999I0J-250001D01*
G01*
X146775000Y59331001D01*
G75*
G02*
X146524999Y59081000I-250001J0D01*
G01*
X144925001Y59081000D01*
G75*
G02*
X144675000Y59331001I0J250001D01*
G01*
G37*
G04 #@! TD.AperFunction*
G04 #@! TO.P,U1,A3,A3*
G04 #@! TO.N,/INJOUT3*
G04 #@! TA.AperFunction,ComponentPad*
G36*
G01*
X138975000Y59331001D02*
X138975000Y60930999D01*
G75*
G02*
X139225001Y61181000I250001J0D01*
G01*
X140824999Y61181000D01*
G75*
G02*
X141075000Y60930999I0J-250001D01*
G01*
X141075000Y59331001D01*
G75*
G02*
X140824999Y59081000I-250001J0D01*
G01*
X139225001Y59081000D01*
G75*
G02*
X138975000Y59331001I0J250001D01*
G01*
G37*
G04 #@! TD.AperFunction*
G04 #@! TO.P,U1,A4,A4*
G04 #@! TO.N,/INJOUT1*
G04 #@! TA.AperFunction,ComponentPad*
G36*
G01*
X133275000Y59331001D02*
X133275000Y60930999D01*
G75*
G02*
X133525001Y61181000I250001J0D01*
G01*
X135124999Y61181000D01*
G75*
G02*
X135375000Y60930999I0J-250001D01*
G01*
X135375000Y59331001D01*
G75*
G02*
X135124999Y59081000I-250001J0D01*
G01*
X133525001Y59081000D01*
G75*
G02*
X133275000Y59331001I0J250001D01*
G01*
G37*
G04 #@! TD.AperFunction*
G04 #@! TO.P,U1,A5,A5*
G04 #@! TO.N,/FUELPUMP_LS*
G04 #@! TA.AperFunction,ComponentPad*
G36*
G01*
X127575000Y59331001D02*
X127575000Y60930999D01*
G75*
G02*
X127825001Y61181000I250001J0D01*
G01*
X129424999Y61181000D01*
G75*
G02*
X129675000Y60930999I0J-250001D01*
G01*
X129675000Y59331001D01*
G75*
G02*
X129424999Y59081000I-250001J0D01*
G01*
X127825001Y59081000D01*
G75*
G02*
X127575000Y59331001I0J250001D01*
G01*
G37*
G04 #@! TD.AperFunction*
G04 #@! TO.P,U1,A6,A6*
G04 #@! TO.N,unconnected-(U1-PadA6)*
G04 #@! TA.AperFunction,ComponentPad*
G36*
G01*
X121875000Y59331001D02*
X121875000Y60930999D01*
G75*
G02*
X122125001Y61181000I250001J0D01*
G01*
X123724999Y61181000D01*
G75*
G02*
X123975000Y60930999I0J-250001D01*
G01*
X123975000Y59331001D01*
G75*
G02*
X123724999Y59081000I-250001J0D01*
G01*
X122125001Y59081000D01*
G75*
G02*
X121875000Y59331001I0J250001D01*
G01*
G37*
G04 #@! TD.AperFunction*
G04 #@! TO.P,U1,A7,A7*
G04 #@! TO.N,/FILIGHT*
G04 #@! TA.AperFunction,ComponentPad*
G36*
G01*
X116175000Y59331001D02*
X116175000Y60930999D01*
G75*
G02*
X116425001Y61181000I250001J0D01*
G01*
X118024999Y61181000D01*
G75*
G02*
X118275000Y60930999I0J-250001D01*
G01*
X118275000Y59331001D01*
G75*
G02*
X118024999Y59081000I-250001J0D01*
G01*
X116425001Y59081000D01*
G75*
G02*
X116175000Y59331001I0J250001D01*
G01*
G37*
G04 #@! TD.AperFunction*
G04 #@! TO.P,U1,A8,A8*
G04 #@! TO.N,/OUT_LS2*
G04 #@! TA.AperFunction,ComponentPad*
G36*
G01*
X110475000Y59331001D02*
X110475000Y60930999D01*
G75*
G02*
X110725001Y61181000I250001J0D01*
G01*
X112324999Y61181000D01*
G75*
G02*
X112575000Y60930999I0J-250001D01*
G01*
X112575000Y59331001D01*
G75*
G02*
X112324999Y59081000I-250001J0D01*
G01*
X110725001Y59081000D01*
G75*
G02*
X110475000Y59331001I0J250001D01*
G01*
G37*
G04 #@! TD.AperFunction*
G04 #@! TO.P,U1,A9,A9*
G04 #@! TO.N,GND*
G04 #@! TA.AperFunction,ComponentPad*
G36*
G01*
X104775000Y59331001D02*
X104775000Y60930999D01*
G75*
G02*
X105025001Y61181000I250001J0D01*
G01*
X106624999Y61181000D01*
G75*
G02*
X106875000Y60930999I0J-250001D01*
G01*
X106875000Y59331001D01*
G75*
G02*
X106624999Y59081000I-250001J0D01*
G01*
X105025001Y59081000D01*
G75*
G02*
X104775000Y59331001I0J250001D01*
G01*
G37*
G04 #@! TD.AperFunction*
G04 #@! TO.P,U1,A10,A10*
G04 #@! TO.N,/IGNOUT1*
G04 #@! TA.AperFunction,ComponentPad*
G36*
G01*
X99075000Y59331001D02*
X99075000Y60930999D01*
G75*
G02*
X99325001Y61181000I250001J0D01*
G01*
X100924999Y61181000D01*
G75*
G02*
X101175000Y60930999I0J-250001D01*
G01*
X101175000Y59331001D01*
G75*
G02*
X100924999Y59081000I-250001J0D01*
G01*
X99325001Y59081000D01*
G75*
G02*
X99075000Y59331001I0J250001D01*
G01*
G37*
G04 #@! TD.AperFunction*
G04 #@! TO.P,U1,A11,A11*
G04 #@! TO.N,/IGNOUT3*
G04 #@! TA.AperFunction,ComponentPad*
G36*
G01*
X93375000Y59331001D02*
X93375000Y60930999D01*
G75*
G02*
X93625001Y61181000I250001J0D01*
G01*
X95224999Y61181000D01*
G75*
G02*
X95475000Y60930999I0J-250001D01*
G01*
X95475000Y59331001D01*
G75*
G02*
X95224999Y59081000I-250001J0D01*
G01*
X93625001Y59081000D01*
G75*
G02*
X93375000Y59331001I0J250001D01*
G01*
G37*
G04 #@! TD.AperFunction*
G04 #@! TO.P,U1,A12,A12*
G04 #@! TO.N,unconnected-(U1-PadA12)*
G04 #@! TA.AperFunction,ComponentPad*
G36*
G01*
X150375000Y63431001D02*
X150375000Y65030999D01*
G75*
G02*
X150625001Y65281000I250001J0D01*
G01*
X152224999Y65281000D01*
G75*
G02*
X152475000Y65030999I0J-250001D01*
G01*
X152475000Y63431001D01*
G75*
G02*
X152224999Y63181000I-250001J0D01*
G01*
X150625001Y63181000D01*
G75*
G02*
X150375000Y63431001I0J250001D01*
G01*
G37*
G04 #@! TD.AperFunction*
G04 #@! TO.P,U1,A13,A13*
G04 #@! TO.N,unconnected-(U1-PadA13)*
G04 #@! TA.AperFunction,ComponentPad*
G36*
G01*
X144675000Y63431001D02*
X144675000Y65030999D01*
G75*
G02*
X144925001Y65281000I250001J0D01*
G01*
X146524999Y65281000D01*
G75*
G02*
X146775000Y65030999I0J-250001D01*
G01*
X146775000Y63431001D01*
G75*
G02*
X146524999Y63181000I-250001J0D01*
G01*
X144925001Y63181000D01*
G75*
G02*
X144675000Y63431001I0J250001D01*
G01*
G37*
G04 #@! TD.AperFunction*
G04 #@! TO.P,U1,A14,A14*
G04 #@! TO.N,/INJOUT4*
G04 #@! TA.AperFunction,ComponentPad*
G36*
G01*
X138975000Y63431001D02*
X138975000Y65030999D01*
G75*
G02*
X139225001Y65281000I250001J0D01*
G01*
X140824999Y65281000D01*
G75*
G02*
X141075000Y65030999I0J-250001D01*
G01*
X141075000Y63431001D01*
G75*
G02*
X140824999Y63181000I-250001J0D01*
G01*
X139225001Y63181000D01*
G75*
G02*
X138975000Y63431001I0J250001D01*
G01*
G37*
G04 #@! TD.AperFunction*
G04 #@! TO.P,U1,A15,A15*
G04 #@! TO.N,/INJOUT2*
G04 #@! TA.AperFunction,ComponentPad*
G36*
G01*
X133275000Y63431001D02*
X133275000Y65030999D01*
G75*
G02*
X133525001Y65281000I250001J0D01*
G01*
X135124999Y65281000D01*
G75*
G02*
X135375000Y65030999I0J-250001D01*
G01*
X135375000Y63431001D01*
G75*
G02*
X135124999Y63181000I-250001J0D01*
G01*
X133525001Y63181000D01*
G75*
G02*
X133275000Y63431001I0J250001D01*
G01*
G37*
G04 #@! TD.AperFunction*
G04 #@! TO.P,U1,A16,A16*
G04 #@! TO.N,/INTAKEFLAP*
G04 #@! TA.AperFunction,ComponentPad*
G36*
G01*
X127575000Y63431001D02*
X127575000Y65030999D01*
G75*
G02*
X127825001Y65281000I250001J0D01*
G01*
X129424999Y65281000D01*
G75*
G02*
X129675000Y65030999I0J-250001D01*
G01*
X129675000Y63431001D01*
G75*
G02*
X129424999Y63181000I-250001J0D01*
G01*
X127825001Y63181000D01*
G75*
G02*
X127575000Y63431001I0J250001D01*
G01*
G37*
G04 #@! TD.AperFunction*
G04 #@! TO.P,U1,A17,A17*
G04 #@! TO.N,unconnected-(U1-PadA17)*
G04 #@! TA.AperFunction,ComponentPad*
G36*
G01*
X121875000Y63431001D02*
X121875000Y65030999D01*
G75*
G02*
X122125001Y65281000I250001J0D01*
G01*
X123724999Y65281000D01*
G75*
G02*
X123975000Y65030999I0J-250001D01*
G01*
X123975000Y63431001D01*
G75*
G02*
X123724999Y63181000I-250001J0D01*
G01*
X122125001Y63181000D01*
G75*
G02*
X121875000Y63431001I0J250001D01*
G01*
G37*
G04 #@! TD.AperFunction*
G04 #@! TO.P,U1,A18,A18*
G04 #@! TO.N,/OUT_LS_WEAK2*
G04 #@! TA.AperFunction,ComponentPad*
G36*
G01*
X116175000Y63431001D02*
X116175000Y65030999D01*
G75*
G02*
X116425001Y65281000I250001J0D01*
G01*
X118024999Y65281000D01*
G75*
G02*
X118275000Y65030999I0J-250001D01*
G01*
X118275000Y63431001D01*
G75*
G02*
X118024999Y63181000I-250001J0D01*
G01*
X116425001Y63181000D01*
G75*
G02*
X116175000Y63431001I0J250001D01*
G01*
G37*
G04 #@! TD.AperFunction*
G04 #@! TO.P,U1,A19,A19*
G04 #@! TO.N,/OUT_LS3*
G04 #@! TA.AperFunction,ComponentPad*
G36*
G01*
X110475000Y63431001D02*
X110475000Y65030999D01*
G75*
G02*
X110725001Y65281000I250001J0D01*
G01*
X112324999Y65281000D01*
G75*
G02*
X112575000Y65030999I0J-250001D01*
G01*
X112575000Y63431001D01*
G75*
G02*
X112324999Y63181000I-250001J0D01*
G01*
X110725001Y63181000D01*
G75*
G02*
X110475000Y63431001I0J250001D01*
G01*
G37*
G04 #@! TD.AperFunction*
G04 #@! TO.P,U1,A20,A20*
G04 #@! TO.N,GND*
G04 #@! TA.AperFunction,ComponentPad*
G36*
G01*
X104775000Y63431001D02*
X104775000Y65030999D01*
G75*
G02*
X105025001Y65281000I250001J0D01*
G01*
X106624999Y65281000D01*
G75*
G02*
X106875000Y65030999I0J-250001D01*
G01*
X106875000Y63431001D01*
G75*
G02*
X106624999Y63181000I-250001J0D01*
G01*
X105025001Y63181000D01*
G75*
G02*
X104775000Y63431001I0J250001D01*
G01*
G37*
G04 #@! TD.AperFunction*
G04 #@! TO.P,U1,A21,A21*
G04 #@! TO.N,/IGNOUT2*
G04 #@! TA.AperFunction,ComponentPad*
G36*
G01*
X99075000Y63431001D02*
X99075000Y65030999D01*
G75*
G02*
X99325001Y65281000I250001J0D01*
G01*
X100924999Y65281000D01*
G75*
G02*
X101175000Y65030999I0J-250001D01*
G01*
X101175000Y63431001D01*
G75*
G02*
X100924999Y63181000I-250001J0D01*
G01*
X99325001Y63181000D01*
G75*
G02*
X99075000Y63431001I0J250001D01*
G01*
G37*
G04 #@! TD.AperFunction*
G04 #@! TO.P,U1,A22,A22*
G04 #@! TO.N,/IGNOUT4*
G04 #@! TA.AperFunction,ComponentPad*
G36*
G01*
X93375000Y63431001D02*
X93375000Y65030999D01*
G75*
G02*
X93625001Y65281000I250001J0D01*
G01*
X95224999Y65281000D01*
G75*
G02*
X95475000Y65030999I0J-250001D01*
G01*
X95475000Y63431001D01*
G75*
G02*
X95224999Y63181000I-250001J0D01*
G01*
X93625001Y63181000D01*
G75*
G02*
X93375000Y63431001I0J250001D01*
G01*
G37*
G04 #@! TD.AperFunction*
G04 #@! TO.P,U1,B1,B1*
G04 #@! TO.N,GND*
G04 #@! TA.AperFunction,ComponentPad*
G36*
G01*
X64375000Y59381001D02*
X64375000Y60980999D01*
G75*
G02*
X64625001Y61231000I250001J0D01*
G01*
X66224999Y61231000D01*
G75*
G02*
X66475000Y60980999I0J-250001D01*
G01*
X66475000Y59381001D01*
G75*
G02*
X66224999Y59131000I-250001J0D01*
G01*
X64625001Y59131000D01*
G75*
G02*
X64375000Y59381001I0J250001D01*
G01*
G37*
G04 #@! TD.AperFunction*
G04 #@! TO.P,U1,B2,B2*
G04 #@! TO.N,GNDA*
G04 #@! TA.AperFunction,ComponentPad*
G36*
G01*
X58675000Y59381001D02*
X58675000Y60980999D01*
G75*
G02*
X58925001Y61231000I250001J0D01*
G01*
X60524999Y61231000D01*
G75*
G02*
X60775000Y60980999I0J-250001D01*
G01*
X60775000Y59381001D01*
G75*
G02*
X60524999Y59131000I-250001J0D01*
G01*
X58925001Y59131000D01*
G75*
G02*
X58675000Y59381001I0J250001D01*
G01*
G37*
G04 #@! TD.AperFunction*
G04 #@! TO.P,U1,B3,B3*
G04 #@! TO.N,/IN_MAP*
G04 #@! TA.AperFunction,ComponentPad*
G36*
G01*
X52975000Y59381001D02*
X52975000Y60980999D01*
G75*
G02*
X53225001Y61231000I250001J0D01*
G01*
X54824999Y61231000D01*
G75*
G02*
X55075000Y60980999I0J-250001D01*
G01*
X55075000Y59381001D01*
G75*
G02*
X54824999Y59131000I-250001J0D01*
G01*
X53225001Y59131000D01*
G75*
G02*
X52975000Y59381001I0J250001D01*
G01*
G37*
G04 #@! TD.AperFunction*
G04 #@! TO.P,U1,B4,B4*
G04 #@! TO.N,/BARO*
G04 #@! TA.AperFunction,ComponentPad*
G36*
G01*
X47275000Y59381001D02*
X47275000Y60980999D01*
G75*
G02*
X47525001Y61231000I250001J0D01*
G01*
X49124999Y61231000D01*
G75*
G02*
X49375000Y60980999I0J-250001D01*
G01*
X49375000Y59381001D01*
G75*
G02*
X49124999Y59131000I-250001J0D01*
G01*
X47525001Y59131000D01*
G75*
G02*
X47275000Y59381001I0J250001D01*
G01*
G37*
G04 #@! TD.AperFunction*
G04 #@! TO.P,U1,B5,B5*
G04 #@! TO.N,/IAT_SENSOR*
G04 #@! TA.AperFunction,ComponentPad*
G36*
G01*
X41575000Y59381001D02*
X41575000Y60980999D01*
G75*
G02*
X41825001Y61231000I250001J0D01*
G01*
X43424999Y61231000D01*
G75*
G02*
X43675000Y60980999I0J-250001D01*
G01*
X43675000Y59381001D01*
G75*
G02*
X43424999Y59131000I-250001J0D01*
G01*
X41825001Y59131000D01*
G75*
G02*
X41575000Y59381001I0J250001D01*
G01*
G37*
G04 #@! TD.AperFunction*
G04 #@! TO.P,U1,B6,B6*
G04 #@! TO.N,unconnected-(U1-PadB6)*
G04 #@! TA.AperFunction,ComponentPad*
G36*
G01*
X35875000Y59381001D02*
X35875000Y60980999D01*
G75*
G02*
X36125001Y61231000I250001J0D01*
G01*
X37724999Y61231000D01*
G75*
G02*
X37975000Y60980999I0J-250001D01*
G01*
X37975000Y59381001D01*
G75*
G02*
X37724999Y59131000I-250001J0D01*
G01*
X36125001Y59131000D01*
G75*
G02*
X35875000Y59381001I0J250001D01*
G01*
G37*
G04 #@! TD.AperFunction*
G04 #@! TO.P,U1,B7,B7*
G04 #@! TO.N,+5VP*
G04 #@! TA.AperFunction,ComponentPad*
G36*
G01*
X30175000Y59381001D02*
X30175000Y60980999D01*
G75*
G02*
X30425001Y61231000I250001J0D01*
G01*
X32024999Y61231000D01*
G75*
G02*
X32275000Y60980999I0J-250001D01*
G01*
X32275000Y59381001D01*
G75*
G02*
X32024999Y59131000I-250001J0D01*
G01*
X30425001Y59131000D01*
G75*
G02*
X30175000Y59381001I0J250001D01*
G01*
G37*
G04 #@! TD.AperFunction*
G04 #@! TO.P,U1,B8,B8*
G04 #@! TO.N,+12V*
G04 #@! TA.AperFunction,ComponentPad*
G36*
G01*
X24475000Y59381001D02*
X24475000Y60980999D01*
G75*
G02*
X24725001Y61231000I250001J0D01*
G01*
X26324999Y61231000D01*
G75*
G02*
X26575000Y60980999I0J-250001D01*
G01*
X26575000Y59381001D01*
G75*
G02*
X26324999Y59131000I-250001J0D01*
G01*
X24725001Y59131000D01*
G75*
G02*
X24475000Y59381001I0J250001D01*
G01*
G37*
G04 #@! TD.AperFunction*
G04 #@! TO.P,U1,B9,B9*
G04 #@! TO.N,unconnected-(U1-PadB9)*
G04 #@! TA.AperFunction,ComponentPad*
G36*
G01*
X18775000Y59381001D02*
X18775000Y60980999D01*
G75*
G02*
X19025001Y61231000I250001J0D01*
G01*
X20624999Y61231000D01*
G75*
G02*
X20875000Y60980999I0J-250001D01*
G01*
X20875000Y59381001D01*
G75*
G02*
X20624999Y59131000I-250001J0D01*
G01*
X19025001Y59131000D01*
G75*
G02*
X18775000Y59381001I0J250001D01*
G01*
G37*
G04 #@! TD.AperFunction*
G04 #@! TO.P,U1,B10,B10*
G04 #@! TO.N,/IN_BUTTON1*
G04 #@! TA.AperFunction,ComponentPad*
G36*
G01*
X13075000Y59381001D02*
X13075000Y60980999D01*
G75*
G02*
X13325001Y61231000I250001J0D01*
G01*
X14924999Y61231000D01*
G75*
G02*
X15175000Y60980999I0J-250001D01*
G01*
X15175000Y59381001D01*
G75*
G02*
X14924999Y59131000I-250001J0D01*
G01*
X13325001Y59131000D01*
G75*
G02*
X13075000Y59381001I0J250001D01*
G01*
G37*
G04 #@! TD.AperFunction*
G04 #@! TO.P,U1,B11,B11*
G04 #@! TO.N,/CAM+*
G04 #@! TA.AperFunction,ComponentPad*
G36*
G01*
X7375000Y59381001D02*
X7375000Y60980999D01*
G75*
G02*
X7625001Y61231000I250001J0D01*
G01*
X9224999Y61231000D01*
G75*
G02*
X9475000Y60980999I0J-250001D01*
G01*
X9475000Y59381001D01*
G75*
G02*
X9224999Y59131000I-250001J0D01*
G01*
X7625001Y59131000D01*
G75*
G02*
X7375000Y59381001I0J250001D01*
G01*
G37*
G04 #@! TD.AperFunction*
G04 #@! TO.P,U1,B12,B12*
G04 #@! TO.N,GND*
G04 #@! TA.AperFunction,ComponentPad*
G36*
G01*
X64375000Y63481001D02*
X64375000Y65080999D01*
G75*
G02*
X64625001Y65331000I250001J0D01*
G01*
X66224999Y65331000D01*
G75*
G02*
X66475000Y65080999I0J-250001D01*
G01*
X66475000Y63481001D01*
G75*
G02*
X66224999Y63231000I-250001J0D01*
G01*
X64625001Y63231000D01*
G75*
G02*
X64375000Y63481001I0J250001D01*
G01*
G37*
G04 #@! TD.AperFunction*
G04 #@! TO.P,U1,B13,B13*
G04 #@! TO.N,unconnected-(U1-PadB13)*
G04 #@! TA.AperFunction,ComponentPad*
G36*
G01*
X58675000Y63481001D02*
X58675000Y65080999D01*
G75*
G02*
X58925001Y65331000I250001J0D01*
G01*
X60524999Y65331000D01*
G75*
G02*
X60775000Y65080999I0J-250001D01*
G01*
X60775000Y63481001D01*
G75*
G02*
X60524999Y63231000I-250001J0D01*
G01*
X58925001Y63231000D01*
G75*
G02*
X58675000Y63481001I0J250001D01*
G01*
G37*
G04 #@! TD.AperFunction*
G04 #@! TO.P,U1,B14,B14*
G04 #@! TO.N,/IN_TPS1*
G04 #@! TA.AperFunction,ComponentPad*
G36*
G01*
X52975000Y63481001D02*
X52975000Y65080999D01*
G75*
G02*
X53225001Y65331000I250001J0D01*
G01*
X54824999Y65331000D01*
G75*
G02*
X55075000Y65080999I0J-250001D01*
G01*
X55075000Y63481001D01*
G75*
G02*
X54824999Y63231000I-250001J0D01*
G01*
X53225001Y63231000D01*
G75*
G02*
X52975000Y63481001I0J250001D01*
G01*
G37*
G04 #@! TD.AperFunction*
G04 #@! TO.P,U1,B15,B15*
G04 #@! TO.N,/CLT*
G04 #@! TA.AperFunction,ComponentPad*
G36*
G01*
X47275000Y63481001D02*
X47275000Y65080999D01*
G75*
G02*
X47525001Y65331000I250001J0D01*
G01*
X49124999Y65331000D01*
G75*
G02*
X49375000Y65080999I0J-250001D01*
G01*
X49375000Y63481001D01*
G75*
G02*
X49124999Y63231000I-250001J0D01*
G01*
X47525001Y63231000D01*
G75*
G02*
X47275000Y63481001I0J250001D01*
G01*
G37*
G04 #@! TD.AperFunction*
G04 #@! TO.P,U1,B16,B16*
G04 #@! TO.N,unconnected-(U1-PadB16)*
G04 #@! TA.AperFunction,ComponentPad*
G36*
G01*
X41575000Y63481001D02*
X41575000Y65080999D01*
G75*
G02*
X41825001Y65331000I250001J0D01*
G01*
X43424999Y65331000D01*
G75*
G02*
X43675000Y65080999I0J-250001D01*
G01*
X43675000Y63481001D01*
G75*
G02*
X43424999Y63231000I-250001J0D01*
G01*
X41825001Y63231000D01*
G75*
G02*
X41575000Y63481001I0J250001D01*
G01*
G37*
G04 #@! TD.AperFunction*
G04 #@! TO.P,U1,B17,B17*
G04 #@! TO.N,/IN_HALL1*
G04 #@! TA.AperFunction,ComponentPad*
G36*
G01*
X35875000Y63481001D02*
X35875000Y65080999D01*
G75*
G02*
X36125001Y65331000I250001J0D01*
G01*
X37724999Y65331000D01*
G75*
G02*
X37975000Y65080999I0J-250001D01*
G01*
X37975000Y63481001D01*
G75*
G02*
X37724999Y63231000I-250001J0D01*
G01*
X36125001Y63231000D01*
G75*
G02*
X35875000Y63481001I0J250001D01*
G01*
G37*
G04 #@! TD.AperFunction*
G04 #@! TO.P,U1,B18,B18*
G04 #@! TO.N,unconnected-(U1-PadB18)*
G04 #@! TA.AperFunction,ComponentPad*
G36*
G01*
X30175000Y63481001D02*
X30175000Y65080999D01*
G75*
G02*
X30425001Y65331000I250001J0D01*
G01*
X32024999Y65331000D01*
G75*
G02*
X32275000Y65080999I0J-250001D01*
G01*
X32275000Y63481001D01*
G75*
G02*
X32024999Y63231000I-250001J0D01*
G01*
X30425001Y63231000D01*
G75*
G02*
X30175000Y63481001I0J250001D01*
G01*
G37*
G04 #@! TD.AperFunction*
G04 #@! TO.P,U1,B19,B19*
G04 #@! TO.N,unconnected-(U1-PadB19)*
G04 #@! TA.AperFunction,ComponentPad*
G36*
G01*
X24475000Y63481001D02*
X24475000Y65080999D01*
G75*
G02*
X24725001Y65331000I250001J0D01*
G01*
X26324999Y65331000D01*
G75*
G02*
X26575000Y65080999I0J-250001D01*
G01*
X26575000Y63481001D01*
G75*
G02*
X26324999Y63231000I-250001J0D01*
G01*
X24725001Y63231000D01*
G75*
G02*
X24475000Y63481001I0J250001D01*
G01*
G37*
G04 #@! TD.AperFunction*
G04 #@! TO.P,U1,B20,B20*
G04 #@! TO.N,unconnected-(U1-PadB20)*
G04 #@! TA.AperFunction,ComponentPad*
G36*
G01*
X18775000Y63481001D02*
X18775000Y65080999D01*
G75*
G02*
X19025001Y65331000I250001J0D01*
G01*
X20624999Y65331000D01*
G75*
G02*
X20875000Y65080999I0J-250001D01*
G01*
X20875000Y63481001D01*
G75*
G02*
X20624999Y63231000I-250001J0D01*
G01*
X19025001Y63231000D01*
G75*
G02*
X18775000Y63481001I0J250001D01*
G01*
G37*
G04 #@! TD.AperFunction*
G04 #@! TO.P,U1,B21,B21*
G04 #@! TO.N,/Clutch{slash}kickstandswitch*
G04 #@! TA.AperFunction,ComponentPad*
G36*
G01*
X13075000Y63481001D02*
X13075000Y65080999D01*
G75*
G02*
X13325001Y65331000I250001J0D01*
G01*
X14924999Y65331000D01*
G75*
G02*
X15175000Y65080999I0J-250001D01*
G01*
X15175000Y63481001D01*
G75*
G02*
X14924999Y63231000I-250001J0D01*
G01*
X13325001Y63231000D01*
G75*
G02*
X13075000Y63481001I0J250001D01*
G01*
G37*
G04 #@! TD.AperFunction*
G04 #@! TO.P,U1,B22,B22*
G04 #@! TO.N,/CRANK+*
G04 #@! TA.AperFunction,ComponentPad*
G36*
G01*
X7375000Y63481001D02*
X7375000Y65080999D01*
G75*
G02*
X7625001Y65331000I250001J0D01*
G01*
X9224999Y65331000D01*
G75*
G02*
X9475000Y65080999I0J-250001D01*
G01*
X9475000Y63481001D01*
G75*
G02*
X9224999Y63231000I-250001J0D01*
G01*
X7625001Y63231000D01*
G75*
G02*
X7375000Y63481001I0J250001D01*
G01*
G37*
G04 #@! TD.AperFunction*
G04 #@! TD*
D14*
G04 #@! TO.P,PPS1,1*
G04 #@! TO.N,/IN_PPS1*
X74867000Y56403000D03*
G04 #@! TD*
G04 #@! TO.P,PPS2,1*
G04 #@! TO.N,/IN_PPS2*
X61517000Y56713000D03*
G04 #@! TD*
G04 #@! TO.P,R21,1*
G04 #@! TO.N,GND*
G04 #@! TA.AperFunction,SMDPad,CuDef*
G36*
G01*
X129157000Y47623000D02*
X129157000Y46843000D01*
G75*
G02*
X129087000Y46773000I-70000J0D01*
G01*
X128527000Y46773000D01*
G75*
G02*
X128457000Y46843000I0J70000D01*
G01*
X128457000Y47623000D01*
G75*
G02*
X128527000Y47693000I70000J0D01*
G01*
X129087000Y47693000D01*
G75*
G02*
X129157000Y47623000I0J-70000D01*
G01*
G37*
G04 #@! TD.AperFunction*
G04 #@! TO.P,R21,2*
G04 #@! TO.N,/LS1*
G04 #@! TA.AperFunction,SMDPad,CuDef*
G36*
G01*
X127557000Y47623000D02*
X127557000Y46843000D01*
G75*
G02*
X127487000Y46773000I-70000J0D01*
G01*
X126927000Y46773000D01*
G75*
G02*
X126857000Y46843000I0J70000D01*
G01*
X126857000Y47623000D01*
G75*
G02*
X126927000Y47693000I70000J0D01*
G01*
X127487000Y47693000D01*
G75*
G02*
X127557000Y47623000I0J-70000D01*
G01*
G37*
G04 #@! TD.AperFunction*
G04 #@! TD*
G04 #@! TO.P,R24,1*
G04 #@! TO.N,GND*
G04 #@! TA.AperFunction,SMDPad,CuDef*
G36*
G01*
X154292000Y31558000D02*
X154292000Y30778000D01*
G75*
G02*
X154222000Y30708000I-70000J0D01*
G01*
X153662000Y30708000D01*
G75*
G02*
X153592000Y30778000I0J70000D01*
G01*
X153592000Y31558000D01*
G75*
G02*
X153662000Y31628000I70000J0D01*
G01*
X154222000Y31628000D01*
G75*
G02*
X154292000Y31558000I0J-70000D01*
G01*
G37*
G04 #@! TD.AperFunction*
G04 #@! TO.P,R24,2*
G04 #@! TO.N,/LS4*
G04 #@! TA.AperFunction,SMDPad,CuDef*
G36*
G01*
X152692000Y31558000D02*
X152692000Y30778000D01*
G75*
G02*
X152622000Y30708000I-70000J0D01*
G01*
X152062000Y30708000D01*
G75*
G02*
X151992000Y30778000I0J70000D01*
G01*
X151992000Y31558000D01*
G75*
G02*
X152062000Y31628000I70000J0D01*
G01*
X152622000Y31628000D01*
G75*
G02*
X152692000Y31558000I0J-70000D01*
G01*
G37*
G04 #@! TD.AperFunction*
G04 #@! TD*
D15*
G04 #@! TO.P,H3,1,1*
G04 #@! TO.N,GND*
X132964000Y4651000D03*
G04 #@! TD*
D16*
G04 #@! TO.P,JP1,1,A*
G04 #@! TO.N,Net-(JP1-A)*
X140970000Y13451000D03*
D17*
G04 #@! TO.P,JP1,2,B*
G04 #@! TO.N,+5VA*
X140970000Y15991000D03*
G04 #@! TD*
G04 #@! TO.P,R33,1*
G04 #@! TO.N,GND*
G04 #@! TA.AperFunction,SMDPad,CuDef*
G36*
G01*
X34432000Y38413000D02*
X34062000Y38413000D01*
G75*
G02*
X33927000Y38548000I0J135000D01*
G01*
X33927000Y38818000D01*
G75*
G02*
X34062000Y38953000I135000J0D01*
G01*
X34432000Y38953000D01*
G75*
G02*
X34567000Y38818000I0J-135000D01*
G01*
X34567000Y38548000D01*
G75*
G02*
X34432000Y38413000I-135000J0D01*
G01*
G37*
G04 #@! TD.AperFunction*
G04 #@! TO.P,R33,2*
G04 #@! TO.N,Net-(IC2-MODE)*
G04 #@! TA.AperFunction,SMDPad,CuDef*
G36*
G01*
X34432000Y39433000D02*
X34062000Y39433000D01*
G75*
G02*
X33927000Y39568000I0J135000D01*
G01*
X33927000Y39838000D01*
G75*
G02*
X34062000Y39973000I135000J0D01*
G01*
X34432000Y39973000D01*
G75*
G02*
X34567000Y39838000I0J-135000D01*
G01*
X34567000Y39568000D01*
G75*
G02*
X34432000Y39433000I-135000J0D01*
G01*
G37*
G04 #@! TD.AperFunction*
G04 #@! TD*
D12*
G04 #@! TO.P,Q15,1,G*
G04 #@! TO.N,/INJ3*
X145484000Y46095000D03*
G04 #@! TO.P,Q15,2,D*
G04 #@! TO.N,/INJOUT3*
X145484000Y43795000D03*
G04 #@! TO.P,Q15,3,S*
G04 #@! TO.N,GND*
X145484000Y41495000D03*
D13*
G04 #@! TO.P,Q15,4*
G04 #@! TO.N,N/C*
X151784000Y43795000D03*
G04 #@! TD*
D40*
G04 #@! TO.P,J8,1,VBUS*
G04 #@! TO.N,/VBUS*
X118752000Y5627000D03*
D41*
G04 #@! TO.P,J8,2,D-*
G04 #@! TO.N,/USB-*
X119552000Y7377000D03*
G04 #@! TO.P,J8,3,D+*
G04 #@! TO.N,/USB+*
X120352000Y5627000D03*
G04 #@! TO.P,J8,4,ID*
G04 #@! TO.N,unconnected-(J8-ID-Pad4)*
X121152000Y7377000D03*
G04 #@! TO.P,J8,5,GND*
G04 #@! TO.N,GND*
X121952000Y5627000D03*
D42*
G04 #@! TO.P,J8,6,Shield*
X116702000Y6502000D03*
X124002000Y6502000D03*
G04 #@! TD*
G04 #@! TO.P,C13A1,1*
G04 #@! TO.N,GND*
G04 #@! TA.AperFunction,SMDPad,CuDef*
G36*
G01*
X19484320Y52319320D02*
X19984320Y52319320D01*
G75*
G02*
X20209320Y52094320I0J-225000D01*
G01*
X20209320Y51644320D01*
G75*
G02*
X19984320Y51419320I-225000J0D01*
G01*
X19484320Y51419320D01*
G75*
G02*
X19259320Y51644320I0J225000D01*
G01*
X19259320Y52094320D01*
G75*
G02*
X19484320Y52319320I225000J0D01*
G01*
G37*
G04 #@! TD.AperFunction*
G04 #@! TO.P,C13A1,2*
G04 #@! TO.N,+5VA*
G04 #@! TA.AperFunction,SMDPad,CuDef*
G36*
G01*
X19484320Y50769320D02*
X19984320Y50769320D01*
G75*
G02*
X20209320Y50544320I0J-225000D01*
G01*
X20209320Y50094320D01*
G75*
G02*
X19984320Y49869320I-225000J0D01*
G01*
X19484320Y49869320D01*
G75*
G02*
X19259320Y50094320I0J225000D01*
G01*
X19259320Y50544320D01*
G75*
G02*
X19484320Y50769320I225000J0D01*
G01*
G37*
G04 #@! TD.AperFunction*
G04 #@! TD*
G04 #@! TO.P,R4,1*
G04 #@! TO.N,Net-(M1-PG_5VP)*
G04 #@! TA.AperFunction,SMDPad,CuDef*
G36*
G01*
X18922000Y26813000D02*
X19292000Y26813000D01*
G75*
G02*
X19427000Y26678000I0J-135000D01*
G01*
X19427000Y26408000D01*
G75*
G02*
X19292000Y26273000I-135000J0D01*
G01*
X18922000Y26273000D01*
G75*
G02*
X18787000Y26408000I0J135000D01*
G01*
X18787000Y26678000D01*
G75*
G02*
X18922000Y26813000I135000J0D01*
G01*
G37*
G04 #@! TD.AperFunction*
G04 #@! TO.P,R4,2*
G04 #@! TO.N,/PG_5VP*
G04 #@! TA.AperFunction,SMDPad,CuDef*
G36*
G01*
X18922000Y25793000D02*
X19292000Y25793000D01*
G75*
G02*
X19427000Y25658000I0J-135000D01*
G01*
X19427000Y25388000D01*
G75*
G02*
X19292000Y25253000I-135000J0D01*
G01*
X18922000Y25253000D01*
G75*
G02*
X18787000Y25388000I0J135000D01*
G01*
X18787000Y25658000D01*
G75*
G02*
X18922000Y25793000I135000J0D01*
G01*
G37*
G04 #@! TD.AperFunction*
G04 #@! TD*
G04 #@! TO.P,R9,1*
G04 #@! TO.N,Net-(Q1-G)*
G04 #@! TA.AperFunction,SMDPad,CuDef*
G36*
G01*
X112994250Y42233929D02*
X113669750Y42623929D01*
G75*
G02*
X113765372Y42598307I35000J-60622D01*
G01*
X114045372Y42113333D01*
G75*
G02*
X114019750Y42017711I-60622J-35000D01*
G01*
X113344250Y41627711D01*
G75*
G02*
X113248628Y41653333I-35000J60622D01*
G01*
X112968628Y42138307D01*
G75*
G02*
X112994250Y42233929I60622J35000D01*
G01*
G37*
G04 #@! TD.AperFunction*
G04 #@! TO.P,R9,2*
G04 #@! TO.N,/IGN1*
G04 #@! TA.AperFunction,SMDPad,CuDef*
G36*
G01*
X113794250Y40848289D02*
X114469750Y41238289D01*
G75*
G02*
X114565372Y41212667I35000J-60622D01*
G01*
X114845372Y40727693D01*
G75*
G02*
X114819750Y40632071I-60622J-35000D01*
G01*
X114144250Y40242071D01*
G75*
G02*
X114048628Y40267693I-35000J60622D01*
G01*
X113768628Y40752667D01*
G75*
G02*
X113794250Y40848289I60622J35000D01*
G01*
G37*
G04 #@! TD.AperFunction*
G04 #@! TD*
G04 #@! TO.P,R15,1*
G04 #@! TO.N,Net-(Q4-G)*
G04 #@! TA.AperFunction,SMDPad,CuDef*
G36*
G01*
X100900750Y40266251D02*
X100225250Y39876251D01*
G75*
G02*
X100129628Y39901873I-35000J60622D01*
G01*
X99849628Y40386847D01*
G75*
G02*
X99875250Y40482469I60622J35000D01*
G01*
X100550750Y40872469D01*
G75*
G02*
X100646372Y40846847I35000J-60622D01*
G01*
X100926372Y40361873D01*
G75*
G02*
X100900750Y40266251I-60622J-35000D01*
G01*
G37*
G04 #@! TD.AperFunction*
G04 #@! TO.P,R15,2*
G04 #@! TO.N,/IGN4*
G04 #@! TA.AperFunction,SMDPad,CuDef*
G36*
G01*
X100100750Y41651891D02*
X99425250Y41261891D01*
G75*
G02*
X99329628Y41287513I-35000J60622D01*
G01*
X99049628Y41772487D01*
G75*
G02*
X99075250Y41868109I60622J35000D01*
G01*
X99750750Y42258109D01*
G75*
G02*
X99846372Y42232487I35000J-60622D01*
G01*
X100126372Y41747513D01*
G75*
G02*
X100100750Y41651891I-60622J-35000D01*
G01*
G37*
G04 #@! TD.AperFunction*
G04 #@! TD*
D12*
G04 #@! TO.P,Q10,1,G*
G04 #@! TO.N,/LS4*
X149737000Y38082000D03*
G04 #@! TO.P,Q10,2,D*
G04 #@! TO.N,/INTAKEFLAP*
X149737000Y35782000D03*
G04 #@! TO.P,Q10,3,S*
G04 #@! TO.N,GND*
X149737000Y33482000D03*
D13*
G04 #@! TO.P,Q10,4*
G04 #@! TO.N,N/C*
X156037000Y35782000D03*
G04 #@! TD*
G04 #@! TO.P,R35,1*
G04 #@! TO.N,+5VA*
G04 #@! TA.AperFunction,SMDPad,CuDef*
G36*
G01*
X23417100Y37089180D02*
X23417100Y37459180D01*
G75*
G02*
X23552100Y37594180I135000J0D01*
G01*
X23822100Y37594180D01*
G75*
G02*
X23957100Y37459180I0J-135000D01*
G01*
X23957100Y37089180D01*
G75*
G02*
X23822100Y36954180I-135000J0D01*
G01*
X23552100Y36954180D01*
G75*
G02*
X23417100Y37089180I0J135000D01*
G01*
G37*
G04 #@! TD.AperFunction*
G04 #@! TO.P,R35,2*
G04 #@! TO.N,/VR2*
G04 #@! TA.AperFunction,SMDPad,CuDef*
G36*
G01*
X24437100Y37089180D02*
X24437100Y37459180D01*
G75*
G02*
X24572100Y37594180I135000J0D01*
G01*
X24842100Y37594180D01*
G75*
G02*
X24977100Y37459180I0J-135000D01*
G01*
X24977100Y37089180D01*
G75*
G02*
X24842100Y36954180I-135000J0D01*
G01*
X24572100Y36954180D01*
G75*
G02*
X24437100Y37089180I0J135000D01*
G01*
G37*
G04 #@! TD.AperFunction*
G04 #@! TD*
D43*
G04 #@! TO.P,F2,1,1*
G04 #@! TO.N,+12V*
X25517588Y56584412D03*
G04 #@! TA.AperFunction,SMDPad,CuDef*
G36*
G01*
X25832243Y54996964D02*
X25344340Y55484867D01*
G75*
G02*
X25344340Y55810137I162635J162635D01*
G01*
X26291863Y56757660D01*
G75*
G02*
X26617133Y56757660I162635J-162635D01*
G01*
X27105036Y56269757D01*
G75*
G02*
X27105036Y55944487I-162635J-162635D01*
G01*
X26157513Y54996964D01*
G75*
G02*
X25832243Y54996964I-162635J162635D01*
G01*
G37*
G04 #@! TD.AperFunction*
G04 #@! TO.P,F2,2,2*
G04 #@! TO.N,+12V_RAW*
G04 #@! TA.AperFunction,SMDPad,CuDef*
G36*
G01*
X27882867Y52946340D02*
X27394964Y53434243D01*
G75*
G02*
X27394964Y53759513I162635J162635D01*
G01*
X28342487Y54707036D01*
G75*
G02*
X28667757Y54707036I162635J-162635D01*
G01*
X29155660Y54219133D01*
G75*
G02*
X29155660Y53893863I-162635J-162635D01*
G01*
X28208137Y52946340D01*
G75*
G02*
X27882867Y52946340I-162635J162635D01*
G01*
G37*
G04 #@! TD.AperFunction*
X28982412Y53119588D03*
G04 #@! TD*
D28*
G04 #@! TO.P,M6,E1,V5A_SWITCHABLE*
G04 #@! TO.N,+5VA*
X46667010Y48472990D03*
G04 #@! TO.P,M6,E2,GNDA*
G04 #@! TO.N,unconnected-(M6-GNDA-PadE2)*
X46667000Y44172990D03*
G04 #@! TO.P,M6,E3,I2C_SCL_(PB10)*
G04 #@! TO.N,unconnected-(M6-I2C_SCL_(PB10)-PadE3)*
X46667000Y43373000D03*
G04 #@! TO.P,M6,E4,I2C_SDA_(PB11)*
G04 #@! TO.N,unconnected-(M6-I2C_SDA_(PB11)-PadE4)*
X46667000Y42572990D03*
G04 #@! TO.P,M6,E5,IN_VIGN_(PA5)*
G04 #@! TO.N,/VIGN*
X46667000Y41772990D03*
G04 #@! TO.P,M6,E6,SPI2_CS_/_CAN2_RX_(PB12)*
G04 #@! TO.N,unconnected-(M6-SPI2_CS_{slash}_CAN2_RX_(PB12)-PadE6)*
X46667000Y40972990D03*
G04 #@! TO.P,M6,E7,SPI2_SCK_/_CAN2_TX_(PB13)*
G04 #@! TO.N,unconnected-(M6-SPI2_SCK_{slash}_CAN2_TX_(PB13)-PadE7)*
X46667000Y40172990D03*
G04 #@! TO.P,M6,E8,SPI2_MISO_(PB14)*
G04 #@! TO.N,/DC1_DIS*
X46667000Y39372990D03*
G04 #@! TO.P,M6,E9,SPI2_MOSI_(PB15)*
G04 #@! TO.N,/DC2_DIR*
X46667000Y38572990D03*
G04 #@! TO.P,M6,E10,OUT_INJ8_(PD12)*
G04 #@! TO.N,/LS2*
X46667000Y37772990D03*
G04 #@! TO.P,M6,E11,OUT_INJ7_(PD15)*
G04 #@! TO.N,/LS1*
X46667000Y36972990D03*
G04 #@! TO.P,M6,E12,OUT_INJ6_(PA8)*
G04 #@! TO.N,/INJ6*
X46667000Y36172990D03*
G04 #@! TO.P,M6,E13,OUT_INJ5_(PD2)*
G04 #@! TO.N,/INJ5*
X46667000Y35372990D03*
G04 #@! TO.P,M6,E14,OUT_INJ4_(PD10)*
G04 #@! TO.N,/INJ4*
X46667000Y34572990D03*
G04 #@! TO.P,M6,E15,OUT_INJ3_(PD11)*
G04 #@! TO.N,/INJ3*
X46667000Y33772990D03*
G04 #@! TO.P,M6,E16,OUT_INJ2_(PA9)*
G04 #@! TO.N,/INJ2*
X46667010Y32973000D03*
G04 #@! TO.P,M6,E17,OUT_INJ1_(PD3)*
G04 #@! TO.N,/INJ1*
X46667000Y32172990D03*
G04 #@! TO.P,M6,E18,OUT_PWM1_(PD13)*
G04 #@! TO.N,/LS3*
X46667000Y30772990D03*
G04 #@! TO.P,M6,E19,OUT_PWM2_(PC6)*
G04 #@! TO.N,/LS4*
X46667000Y29973000D03*
G04 #@! TO.P,M6,E20,OUT_PWM3_(PC7)*
G04 #@! TO.N,unconnected-(M6-OUT_PWM3_(PC7)-PadE20)*
X46667000Y29173000D03*
G04 #@! TO.P,M6,E21,OUT_PWM4_(PC8)*
G04 #@! TO.N,unconnected-(M6-OUT_PWM4_(PC8)-PadE21)*
X46667000Y28373000D03*
G04 #@! TO.P,M6,E22,OUT_PWM5_(PC9)*
G04 #@! TO.N,unconnected-(M6-OUT_PWM5_(PC9)-PadE22)*
X46667000Y27573000D03*
G04 #@! TO.P,M6,E23,OUT_PWM6_(PD14)*
G04 #@! TO.N,unconnected-(M6-OUT_PWM6_(PD14)-PadE23)*
X46667000Y26772990D03*
D44*
G04 #@! TO.P,M6,G,GND*
G04 #@! TO.N,GND*
X80267010Y21923000D03*
D45*
X80267010Y24972990D03*
D44*
X80267010Y28023000D03*
D46*
X80267010Y32472990D03*
D47*
X80267010Y46122990D03*
D48*
X80267010Y54122990D03*
D49*
X78467000Y55173000D03*
D50*
X76367010Y19373000D03*
D51*
X70317010Y19373000D03*
D52*
X66817010Y19373000D03*
D49*
X57067010Y19373000D03*
D50*
X49567010Y55173000D03*
D53*
X46467000Y22772980D03*
D45*
X46467000Y31473000D03*
D54*
X46467000Y46323000D03*
D55*
X46467000Y52123000D03*
D28*
G04 #@! TO.P,M6,N1,VBUS*
G04 #@! TO.N,/VBUS*
X47067000Y19572990D03*
G04 #@! TO.P,M6,N2,USBM_(PA11)*
G04 #@! TO.N,/USB-*
X47867000Y19572990D03*
G04 #@! TO.P,M6,N3,USBP_(PA12)*
G04 #@! TO.N,/USB+*
X48667000Y19572990D03*
G04 #@! TO.P,M6,N4,USBID_(PA10)*
G04 #@! TO.N,/DC2_DIS*
X49467010Y19572990D03*
G04 #@! TO.P,M6,N5,SWDIO_(PA13)*
G04 #@! TO.N,unconnected-(M6-SWDIO_(PA13)-PadN5)*
X50267000Y19572990D03*
G04 #@! TO.P,M6,N6,SWCLK_(PA14)*
G04 #@! TO.N,unconnected-(M6-SWCLK_(PA14)-PadN6)*
X51067000Y19572990D03*
G04 #@! TO.P,M6,N7,nReset*
G04 #@! TO.N,unconnected-(M6-nReset-PadN7)*
X51867000Y19572990D03*
G04 #@! TO.P,M6,N8,SWO_(PB3)*
G04 #@! TO.N,unconnected-(M6-SWO_(PB3)-PadN8)*
X52667010Y19572990D03*
G04 #@! TO.P,M6,N9,SPI3_CS_(PA15)*
G04 #@! TO.N,unconnected-(M6-SPI3_CS_(PA15)-PadN9)*
X53467000Y19573000D03*
G04 #@! TO.P,M6,N10,SPI3_SCK_(PC10)*
G04 #@! TO.N,unconnected-(M6-SPI3_SCK_(PC10)-PadN10)*
X54267000Y19573000D03*
G04 #@! TO.P,M6,N11,SPI3_MISO_(PC11)*
G04 #@! TO.N,unconnected-(M6-SPI3_MISO_(PC11)-PadN11)*
X55067000Y19573000D03*
G04 #@! TO.P,M6,N12,SPI3_MOSI_(PC12)*
G04 #@! TO.N,/PG_5VP*
X55867000Y19573000D03*
G04 #@! TO.P,M6,N13,UART2_TX_(PD5)*
G04 #@! TO.N,Net-(M6-UART2_TX_(PD5))*
X58267010Y19573000D03*
G04 #@! TO.P,M6,N14,UART2_RX_(PD6)*
G04 #@! TO.N,Net-(M6-UART2_RX_(PD6))*
X59067010Y19573000D03*
G04 #@! TO.P,M6,N14a,LED_GREEN*
G04 #@! TO.N,unconnected-(M6-LED_GREEN-PadN14a)*
X59867000Y19572990D03*
G04 #@! TO.P,M6,N14b,LED_YELLOW*
G04 #@! TO.N,unconnected-(M6-LED_YELLOW-PadN14b)*
X60667010Y19572990D03*
G04 #@! TO.P,M6,N15,V33_SWITCHABLE*
G04 #@! TO.N,+3.3VA*
X61467010Y19572990D03*
G04 #@! TO.P,M6,N16,BOOT0*
G04 #@! TO.N,unconnected-(M6-BOOT0-PadN16)*
X62267010Y19572990D03*
G04 #@! TO.P,M6,N17,VBAT*
G04 #@! TO.N,/VBAT*
X63067010Y19572990D03*
G04 #@! TO.P,M6,N18,UART8_RX_(PE0)*
G04 #@! TO.N,/VR1*
X63867010Y19573000D03*
G04 #@! TO.P,M6,N19,UART8_TX_(PE1)*
G04 #@! TO.N,/VR2*
X64667010Y19573000D03*
G04 #@! TO.P,M6,N20,OUT_PWR_EN_(PE10)*
G04 #@! TO.N,/PWR_EN*
X68967010Y19573000D03*
G04 #@! TO.P,M6,N21,V33*
G04 #@! TO.N,+3.3V*
X71667010Y19573000D03*
G04 #@! TO.P,M6,N22,VCC*
G04 #@! TO.N,+5V*
X72667000Y19573000D03*
G04 #@! TO.P,M6,N23,V33*
G04 #@! TO.N,unconnected-(M6-V33-PadN23)*
X80067010Y19573000D03*
G04 #@! TO.P,M6,S1,IN_D4_(PE15)*
G04 #@! TO.N,/IN_BUTTON3*
X53266990Y54973000D03*
G04 #@! TO.P,M6,S2,IN_D3_(PE14)*
G04 #@! TO.N,/IN_HALL3*
X54467000Y54973000D03*
G04 #@! TO.P,M6,S3,IN_D2_(PE13)*
G04 #@! TO.N,/IN_HALL2*
X55667000Y54973000D03*
G04 #@! TO.P,M6,S4,IN_D1_(PE12)*
G04 #@! TO.N,/IN_HALL1*
X56867000Y54973000D03*
G04 #@! TO.P,M6,S5,VREF2*
G04 #@! TO.N,unconnected-(M6-VREF2-PadS5)*
X58067000Y54973000D03*
G04 #@! TO.P,M6,S6,IN_AUX4_(PA7)*
G04 #@! TO.N,/IN_VMAIN*
X59267000Y54973000D03*
G04 #@! TO.P,M6,S7,IN_AUX3_(PC5)*
G04 #@! TO.N,/BARO*
X60467000Y54973000D03*
G04 #@! TO.P,M6,S8,IN_AUX2_(PC4/PE9)*
G04 #@! TO.N,/IN_PPS2*
X61667000Y54973000D03*
G04 #@! TO.P,M6,S9,IN_AUX1_(PB0)*
G04 #@! TO.N,/IN_TPS2*
X62867000Y54973000D03*
G04 #@! TO.P,M6,S10,IN_O2S2_(PA1)*
G04 #@! TO.N,/IN_AUX2*
X64067000Y54973000D03*
G04 #@! TO.P,M6,S11,IN_O2S_/_CAN_WAKEUP_(PA0)*
G04 #@! TO.N,/IN_AUX1*
X65267000Y54973000D03*
G04 #@! TO.P,M6,S12,IN_MAP2_(PC1)*
G04 #@! TO.N,/INTERNAL_MAP*
X66467000Y54973000D03*
G04 #@! TO.P,M6,S13,IN_MAP1_(PC0)*
G04 #@! TO.N,/IN_MAP*
X67667000Y54973000D03*
G04 #@! TO.P,M6,S14,IN_CRANK_(PB1)*
G04 #@! TO.N,/IN_BUTTON1*
X68867000Y54973000D03*
G04 #@! TO.P,M6,S15,IN_KNOCK_(PA2)*
G04 #@! TO.N,/ADC3*
X70067000Y54973000D03*
G04 #@! TO.P,M6,S16,IN_CAM_(PA6)*
G04 #@! TO.N,/Clutch{slash}kickstandswitch*
X71267000Y54973000D03*
G04 #@! TO.P,M6,S17,IN_VSS_(PE11)*
G04 #@! TO.N,/IN_FLEX*
X72467000Y54973000D03*
G04 #@! TO.P,M6,S18,IN_TPS_(PA4)*
G04 #@! TO.N,/IN_TPS1*
X73667010Y54973000D03*
G04 #@! TO.P,M6,S19,IN_PPS_(PA3)*
G04 #@! TO.N,/IN_PPS1*
X74867010Y54973000D03*
G04 #@! TO.P,M6,S20,IN_IAT_(PC3)*
G04 #@! TO.N,/IAT_SENSOR*
X76067010Y54973000D03*
G04 #@! TO.P,M6,S21,IN_CLT_(PC2)*
G04 #@! TO.N,/CLT*
X77267010Y54973000D03*
G04 #@! TO.P,M6,S22,VREF1*
G04 #@! TO.N,/VREF1*
X79667010Y54973000D03*
G04 #@! TO.P,M6,W1,GNDA*
G04 #@! TO.N,GNDA*
X80067010Y52472990D03*
G04 #@! TO.P,M6,W2,V5A_SWITCHABLE*
G04 #@! TO.N,+5VA*
X80067010Y51472990D03*
G04 #@! TO.P,M6,W3,IGN8_(PE6)*
G04 #@! TO.N,/LS_WEAK2*
X80067010Y40773000D03*
G04 #@! TO.P,M6,W4,IGN7_(PB9)*
G04 #@! TO.N,/LS_WEAK1*
X80067010Y39772990D03*
G04 #@! TO.P,M6,W5,IGN6_(PB8)*
G04 #@! TO.N,unconnected-(M6-IGN6_(PB8)-PadW5)*
X80067010Y38773000D03*
G04 #@! TO.P,M6,W6,IGN5_(PE2)*
G04 #@! TO.N,unconnected-(M6-IGN5_(PE2)-PadW6)*
X80067010Y37773000D03*
G04 #@! TO.P,M6,W7,IGN4_(PE3)*
G04 #@! TO.N,/IGN4*
X80067010Y36773000D03*
G04 #@! TO.P,M6,W8,IGN3_(PE4)*
G04 #@! TO.N,/IGN3*
X80067010Y35773000D03*
G04 #@! TO.P,M6,W9,IGN2_(PE5)*
G04 #@! TO.N,/IGN2*
X80067010Y34773000D03*
G04 #@! TO.P,M6,W10,IGN1_(PC13)*
G04 #@! TO.N,/IGN1*
X80067010Y33773000D03*
G04 #@! TO.P,M6,W11,CANH*
G04 #@! TO.N,/CAN+*
X80067010Y31173000D03*
G04 #@! TO.P,M6,W12,CANL*
G04 #@! TO.N,/CAN-*
X80067010Y30373000D03*
G04 #@! TO.P,M6,W13,V33_REF*
G04 #@! TO.N,unconnected-(M6-V33_REF-PadW13)*
X80067010Y25672990D03*
G04 #@! TO.P,M6,W14,V5A_SWITCHABLE*
G04 #@! TO.N,unconnected-(M6-V5A_SWITCHABLE-PadW14)*
X80067010Y24273000D03*
G04 #@! TD*
D56*
G04 #@! TO.P,U2,1,TXD*
G04 #@! TO.N,Net-(M6-UART2_RX_(PD6))*
X143909000Y21455000D03*
G04 #@! TO.P,U2,2,RXD*
G04 #@! TO.N,Net-(M6-UART2_TX_(PD5))*
X143909000Y19955000D03*
G04 #@! TO.P,U2,3*
G04 #@! TO.N,N/C*
X143909000Y18455000D03*
G04 #@! TO.P,U2,4*
X143909000Y16955000D03*
G04 #@! TO.P,U2,5,IO1*
G04 #@! TO.N,unconnected-(U2-IO1-Pad5)*
X143909000Y15455000D03*
G04 #@! TO.P,U2,6,IO2*
G04 #@! TO.N,unconnected-(U2-IO2-Pad6)*
X143909000Y13955000D03*
G04 #@! TO.P,U2,7*
G04 #@! TO.N,N/C*
X143909000Y12455000D03*
G04 #@! TO.P,U2,8*
X143909000Y10955000D03*
G04 #@! TO.P,U2,9*
X143909000Y9455000D03*
G04 #@! TO.P,U2,10*
X143909000Y7955000D03*
G04 #@! TO.P,U2,11*
X143909000Y6455000D03*
G04 #@! TO.P,U2,12,3V3*
G04 #@! TO.N,Net-(JP3-B)*
X143909000Y4955000D03*
G04 #@! TO.P,U2,13,GND*
G04 #@! TO.N,GND*
X143909000Y3455000D03*
G04 #@! TO.P,U2,14*
G04 #@! TO.N,N/C*
X156609000Y3455000D03*
G04 #@! TO.P,U2,15,EN*
G04 #@! TO.N,unconnected-(U2-EN-Pad15)*
X156609000Y4955000D03*
G04 #@! TO.P,U2,16,ALED*
G04 #@! TO.N,unconnected-(U2-ALED-Pad16)*
X156609000Y6455000D03*
G04 #@! TO.P,U2,17,STAT*
G04 #@! TO.N,unconnected-(U2-STAT-Pad17)*
X156609000Y7955000D03*
G04 #@! TO.P,U2,18*
G04 #@! TO.N,N/C*
X156609000Y9455000D03*
G04 #@! TO.P,U2,19*
X156609000Y10955000D03*
G04 #@! TO.P,U2,20*
X156609000Y12455000D03*
G04 #@! TO.P,U2,21*
X156609000Y13955000D03*
G04 #@! TO.P,U2,22*
X156609000Y15455000D03*
G04 #@! TO.P,U2,23*
X156609000Y16955000D03*
G04 #@! TO.P,U2,24*
X156609000Y18455000D03*
G04 #@! TO.P,U2,25*
X156609000Y19955000D03*
G04 #@! TO.P,U2,26*
X156609000Y21455000D03*
G04 #@! TD*
G04 #@! TO.P,R36,1*
G04 #@! TO.N,GND*
G04 #@! TA.AperFunction,SMDPad,CuDef*
G36*
G01*
X13968300Y42573040D02*
X13968300Y42943040D01*
G75*
G02*
X14103300Y43078040I135000J0D01*
G01*
X14373300Y43078040D01*
G75*
G02*
X14508300Y42943040I0J-135000D01*
G01*
X14508300Y42573040D01*
G75*
G02*
X14373300Y42438040I-135000J0D01*
G01*
X14103300Y42438040D01*
G75*
G02*
X13968300Y42573040I0J135000D01*
G01*
G37*
G04 #@! TD.AperFunction*
G04 #@! TO.P,R36,2*
G04 #@! TO.N,Net-(IC2A1-MODE)*
G04 #@! TA.AperFunction,SMDPad,CuDef*
G36*
G01*
X14988300Y42573040D02*
X14988300Y42943040D01*
G75*
G02*
X15123300Y43078040I135000J0D01*
G01*
X15393300Y43078040D01*
G75*
G02*
X15528300Y42943040I0J-135000D01*
G01*
X15528300Y42573040D01*
G75*
G02*
X15393300Y42438040I-135000J0D01*
G01*
X15123300Y42438040D01*
G75*
G02*
X14988300Y42573040I0J135000D01*
G01*
G37*
G04 #@! TD.AperFunction*
G04 #@! TD*
G04 #@! TO.P,R38,1*
G04 #@! TO.N,Net-(IC2A1-PEAK_DETECTOR_CAPACITOR)*
G04 #@! TA.AperFunction,SMDPad,CuDef*
G36*
G01*
X18936540Y46210320D02*
X18936540Y46580320D01*
G75*
G02*
X19071540Y46715320I135000J0D01*
G01*
X19341540Y46715320D01*
G75*
G02*
X19476540Y46580320I0J-135000D01*
G01*
X19476540Y46210320D01*
G75*
G02*
X19341540Y46075320I-135000J0D01*
G01*
X19071540Y46075320D01*
G75*
G02*
X18936540Y46210320I0J135000D01*
G01*
G37*
G04 #@! TD.AperFunction*
G04 #@! TO.P,R38,2*
G04 #@! TO.N,GND*
G04 #@! TA.AperFunction,SMDPad,CuDef*
G36*
G01*
X19956540Y46210320D02*
X19956540Y46580320D01*
G75*
G02*
X20091540Y46715320I135000J0D01*
G01*
X20361540Y46715320D01*
G75*
G02*
X20496540Y46580320I0J-135000D01*
G01*
X20496540Y46210320D01*
G75*
G02*
X20361540Y46075320I-135000J0D01*
G01*
X20091540Y46075320D01*
G75*
G02*
X19956540Y46210320I0J135000D01*
G01*
G37*
G04 #@! TD.AperFunction*
G04 #@! TD*
G04 #@! TO.P,R23,1*
G04 #@! TO.N,GND*
G04 #@! TA.AperFunction,SMDPad,CuDef*
G36*
G01*
X130257000Y30423000D02*
X130257000Y29643000D01*
G75*
G02*
X130187000Y29573000I-70000J0D01*
G01*
X129627000Y29573000D01*
G75*
G02*
X129557000Y29643000I0J70000D01*
G01*
X129557000Y30423000D01*
G75*
G02*
X129627000Y30493000I70000J0D01*
G01*
X130187000Y30493000D01*
G75*
G02*
X130257000Y30423000I0J-70000D01*
G01*
G37*
G04 #@! TD.AperFunction*
G04 #@! TO.P,R23,2*
G04 #@! TO.N,/LS3*
G04 #@! TA.AperFunction,SMDPad,CuDef*
G36*
G01*
X128657000Y30423000D02*
X128657000Y29643000D01*
G75*
G02*
X128587000Y29573000I-70000J0D01*
G01*
X128027000Y29573000D01*
G75*
G02*
X127957000Y29643000I0J70000D01*
G01*
X127957000Y30423000D01*
G75*
G02*
X128027000Y30493000I70000J0D01*
G01*
X128587000Y30493000D01*
G75*
G02*
X128657000Y30423000I0J-70000D01*
G01*
G37*
G04 #@! TD.AperFunction*
G04 #@! TD*
D43*
G04 #@! TO.P,F1,1,1*
G04 #@! TO.N,+12V*
X25723588Y52557412D03*
G04 #@! TA.AperFunction,SMDPad,CuDef*
G36*
G01*
X26038243Y50969964D02*
X25550340Y51457867D01*
G75*
G02*
X25550340Y51783137I162635J162635D01*
G01*
X26497863Y52730660D01*
G75*
G02*
X26823133Y52730660I162635J-162635D01*
G01*
X27311036Y52242757D01*
G75*
G02*
X27311036Y51917487I-162635J-162635D01*
G01*
X26363513Y50969964D01*
G75*
G02*
X26038243Y50969964I-162635J162635D01*
G01*
G37*
G04 #@! TD.AperFunction*
G04 #@! TO.P,F1,2,2*
G04 #@! TO.N,/IN_VIGN*
G04 #@! TA.AperFunction,SMDPad,CuDef*
G36*
G01*
X28088867Y48919340D02*
X27600964Y49407243D01*
G75*
G02*
X27600964Y49732513I162635J162635D01*
G01*
X28548487Y50680036D01*
G75*
G02*
X28873757Y50680036I162635J-162635D01*
G01*
X29361660Y50192133D01*
G75*
G02*
X29361660Y49866863I-162635J-162635D01*
G01*
X28414137Y48919340D01*
G75*
G02*
X28088867Y48919340I-162635J162635D01*
G01*
G37*
G04 #@! TD.AperFunction*
X29188412Y49092588D03*
G04 #@! TD*
G04 #@! TO.P,C13,1*
G04 #@! TO.N,GND*
G04 #@! TA.AperFunction,SMDPad,CuDef*
G36*
G01*
X25115500Y46015040D02*
X25615500Y46015040D01*
G75*
G02*
X25840500Y45790040I0J-225000D01*
G01*
X25840500Y45340040D01*
G75*
G02*
X25615500Y45115040I-225000J0D01*
G01*
X25115500Y45115040D01*
G75*
G02*
X24890500Y45340040I0J225000D01*
G01*
X24890500Y45790040D01*
G75*
G02*
X25115500Y46015040I225000J0D01*
G01*
G37*
G04 #@! TD.AperFunction*
G04 #@! TO.P,C13,2*
G04 #@! TO.N,+5VA*
G04 #@! TA.AperFunction,SMDPad,CuDef*
G36*
G01*
X25115500Y44465040D02*
X25615500Y44465040D01*
G75*
G02*
X25840500Y44240040I0J-225000D01*
G01*
X25840500Y43790040D01*
G75*
G02*
X25615500Y43565040I-225000J0D01*
G01*
X25115500Y43565040D01*
G75*
G02*
X24890500Y43790040I0J225000D01*
G01*
X24890500Y44240040D01*
G75*
G02*
X25115500Y44465040I225000J0D01*
G01*
G37*
G04 #@! TD.AperFunction*
G04 #@! TD*
D14*
G04 #@! TO.P,TPS2,*
G04 #@! TO.N,/IN_TPS2*
X63547000Y56713000D03*
G04 #@! TD*
D18*
G04 #@! TO.P,M5,E1,LSU_Un*
G04 #@! TO.N,/WBO_Un*
X111930000Y22962000D03*
G04 #@! TO.P,M5,E2,LSU_Vm*
G04 #@! TO.N,/WBO_Vm*
X111930000Y19962000D03*
G04 #@! TO.P,M5,E3,LSU_Ip*
G04 #@! TO.N,/WBO_Ip*
X111930000Y20962000D03*
G04 #@! TO.P,M5,E4,LSU_Rtrim*
G04 #@! TO.N,/WBO_Rtrim*
X111930000Y21962000D03*
D19*
G04 #@! TO.P,M5,E5,LSU_H+*
G04 #@! TO.N,/WBO_Heater*
X113180000Y17812000D03*
D57*
G04 #@! TO.P,M5,E6,LSU_H-*
G04 #@! TO.N,GND*
X111555000Y14312000D03*
D58*
G04 #@! TO.P,M5,G,GND*
X138905000Y11112000D03*
D59*
X138905000Y15452000D03*
X138905000Y18752000D03*
D60*
X138905000Y23837000D03*
D61*
X125230000Y10687000D03*
X125230000Y24437000D03*
D62*
X111555000Y11537000D03*
D63*
X111555000Y24087000D03*
G04 #@! TO.P,M5,J1,SEL1*
G04 #@! TO.N,Net-(M5-PULL_DOWN1)*
G04 #@! TA.AperFunction,SMDPad,CuDef*
G36*
G01*
X129480000Y11712000D02*
X129480000Y12962000D01*
G75*
G02*
X129605000Y13087000I125000J0D01*
G01*
X129855000Y13087000D01*
G75*
G02*
X129980000Y12962000I0J-125000D01*
G01*
X129980000Y11712000D01*
G75*
G02*
X129855000Y11587000I-125000J0D01*
G01*
X129605000Y11587000D01*
G75*
G02*
X129480000Y11712000I0J125000D01*
G01*
G37*
G04 #@! TD.AperFunction*
G04 #@! TO.P,M5,J2,SEL2*
G04 #@! TO.N,unconnected-(M5-SEL2-PadJ2)*
G04 #@! TA.AperFunction,SMDPad,CuDef*
G36*
G01*
X131155000Y14387000D02*
X131155000Y14637000D01*
G75*
G02*
X131280000Y14762000I125000J0D01*
G01*
X132530000Y14762000D01*
G75*
G02*
X132655000Y14637000I0J-125000D01*
G01*
X132655000Y14387000D01*
G75*
G02*
X132530000Y14262000I-125000J0D01*
G01*
X131280000Y14262000D01*
G75*
G02*
X131155000Y14387000I0J125000D01*
G01*
G37*
G04 #@! TD.AperFunction*
G04 #@! TO.P,M5,J_GND1,PULL_DOWN1*
G04 #@! TO.N,Net-(M5-PULL_DOWN1)*
G04 #@! TA.AperFunction,SMDPad,CuDef*
G36*
G01*
X130280000Y11712000D02*
X130280000Y12962000D01*
G75*
G02*
X130405000Y13087000I125000J0D01*
G01*
X130655000Y13087000D01*
G75*
G02*
X130780000Y12962000I0J-125000D01*
G01*
X130780000Y11712000D01*
G75*
G02*
X130655000Y11587000I-125000J0D01*
G01*
X130405000Y11587000D01*
G75*
G02*
X130280000Y11712000I0J125000D01*
G01*
G37*
G04 #@! TD.AperFunction*
G04 #@! TO.P,M5,J_GND2,PULL_DOWN2*
G04 #@! TO.N,unconnected-(M5-PULL_DOWN2-PadJ_GND2)*
G04 #@! TA.AperFunction,SMDPad,CuDef*
G36*
G01*
X130605000Y14262000D02*
X130355000Y14262000D01*
G75*
G02*
X130230000Y14387000I0J125000D01*
G01*
X130230000Y14637000D01*
G75*
G02*
X130355000Y14762000I125000J0D01*
G01*
X130605000Y14762000D01*
G75*
G02*
X130730000Y14637000I0J-125000D01*
G01*
X130730000Y14387000D01*
G75*
G02*
X130605000Y14262000I-125000J0D01*
G01*
G37*
G04 #@! TD.AperFunction*
G04 #@! TO.P,M5,J_VCC1,PULL_UP1*
G04 #@! TO.N,unconnected-(M5-PULL_UP1-PadJ_VCC1)*
G04 #@! TA.AperFunction,SMDPad,CuDef*
G36*
G01*
X129480000Y13587000D02*
X129480000Y13837000D01*
G75*
G02*
X129605000Y13962000I125000J0D01*
G01*
X129855000Y13962000D01*
G75*
G02*
X129980000Y13837000I0J-125000D01*
G01*
X129980000Y13587000D01*
G75*
G02*
X129855000Y13462000I-125000J0D01*
G01*
X129605000Y13462000D01*
G75*
G02*
X129480000Y13587000I0J125000D01*
G01*
G37*
G04 #@! TD.AperFunction*
G04 #@! TO.P,M5,J_VCC2,PULL_UP2*
G04 #@! TO.N,unconnected-(M5-PULL_UP2-PadJ_VCC2)*
G04 #@! TA.AperFunction,SMDPad,CuDef*
G36*
G01*
X131155000Y13587000D02*
X131155000Y13837000D01*
G75*
G02*
X131280000Y13962000I125000J0D01*
G01*
X132530000Y13962000D01*
G75*
G02*
X132655000Y13837000I0J-125000D01*
G01*
X132655000Y13587000D01*
G75*
G02*
X132530000Y13462000I-125000J0D01*
G01*
X131280000Y13462000D01*
G75*
G02*
X131155000Y13587000I0J125000D01*
G01*
G37*
G04 #@! TD.AperFunction*
D18*
G04 #@! TO.P,M5,W1,V5_IN*
G04 #@! TO.N,Net-(JP1-A)*
X138521200Y13312000D03*
G04 #@! TO.P,M5,W2,CAN_VIO*
G04 #@! TO.N,unconnected-(M5-CAN_VIO-PadW2)*
X138521200Y14312000D03*
G04 #@! TO.P,M5,W3,CANL*
G04 #@! TO.N,/CAN-*
X138521200Y17608000D03*
G04 #@! TO.P,M5,W4,CANH*
G04 #@! TO.N,/CAN+*
X138521200Y16592000D03*
G04 #@! TO.P,M5,W5,nReset*
G04 #@! TO.N,unconnected-(M5-nReset-PadW5)*
G04 #@! TA.AperFunction,SMDPad,CuDef*
G36*
G01*
X139030000Y19612000D02*
X139030000Y19612000D01*
G75*
G02*
X138905000Y19487000I-125000J0D01*
G01*
X138655000Y19487000D01*
G75*
G02*
X138530000Y19612000I0J125000D01*
G01*
X138530000Y19612000D01*
G75*
G02*
X138655000Y19737000I125000J0D01*
G01*
X138905000Y19737000D01*
G75*
G02*
X139030000Y19612000I0J-125000D01*
G01*
G37*
G04 #@! TD.AperFunction*
G04 #@! TO.P,M5,W6,SWDIO*
G04 #@! TO.N,unconnected-(M5-SWDIO-PadW6)*
G04 #@! TA.AperFunction,SMDPad,CuDef*
G36*
G01*
X139030000Y20112000D02*
X139030000Y20112000D01*
G75*
G02*
X138905000Y19987000I-125000J0D01*
G01*
X138655000Y19987000D01*
G75*
G02*
X138530000Y20112000I0J125000D01*
G01*
X138530000Y20112000D01*
G75*
G02*
X138655000Y20237000I125000J0D01*
G01*
X138905000Y20237000D01*
G75*
G02*
X139030000Y20112000I0J-125000D01*
G01*
G37*
G04 #@! TD.AperFunction*
G04 #@! TO.P,M5,W7,SWCLK*
G04 #@! TO.N,unconnected-(M5-SWCLK-PadW7)*
G04 #@! TA.AperFunction,SMDPad,CuDef*
G36*
G01*
X139030000Y20612000D02*
X139030000Y20612000D01*
G75*
G02*
X138905000Y20487000I-125000J0D01*
G01*
X138655000Y20487000D01*
G75*
G02*
X138530000Y20612000I0J125000D01*
G01*
X138530000Y20612000D01*
G75*
G02*
X138655000Y20737000I125000J0D01*
G01*
X138905000Y20737000D01*
G75*
G02*
X139030000Y20612000I0J-125000D01*
G01*
G37*
G04 #@! TD.AperFunction*
G04 #@! TO.P,M5,W8,V33_OUT*
G04 #@! TO.N,unconnected-(M5-V33_OUT-PadW8)*
G04 #@! TA.AperFunction,SMDPad,CuDef*
G36*
G01*
X139030000Y22712000D02*
X139030000Y22712000D01*
G75*
G02*
X138905000Y22587000I-125000J0D01*
G01*
X138655000Y22587000D01*
G75*
G02*
X138530000Y22712000I0J125000D01*
G01*
X138530000Y22712000D01*
G75*
G02*
X138655000Y22837000I125000J0D01*
G01*
X138905000Y22837000D01*
G75*
G02*
X139030000Y22712000I0J-125000D01*
G01*
G37*
G04 #@! TD.AperFunction*
G04 #@! TO.P,M5,W9,VDDA*
G04 #@! TO.N,unconnected-(M5-VDDA-PadW9)*
X138521200Y12312000D03*
G04 #@! TD*
G04 #@! TO.P,R3,1*
G04 #@! TO.N,GND*
G04 #@! TA.AperFunction,SMDPad,CuDef*
G36*
G01*
X31132000Y54405000D02*
X30352000Y54405000D01*
G75*
G02*
X30282000Y54475000I0J70000D01*
G01*
X30282000Y55035000D01*
G75*
G02*
X30352000Y55105000I70000J0D01*
G01*
X31132000Y55105000D01*
G75*
G02*
X31202000Y55035000I0J-70000D01*
G01*
X31202000Y54475000D01*
G75*
G02*
X31132000Y54405000I-70000J0D01*
G01*
G37*
G04 #@! TD.AperFunction*
G04 #@! TO.P,R3,2*
G04 #@! TO.N,/IN_VMAIN*
G04 #@! TA.AperFunction,SMDPad,CuDef*
G36*
G01*
X31132000Y56005000D02*
X30352000Y56005000D01*
G75*
G02*
X30282000Y56075000I0J70000D01*
G01*
X30282000Y56635000D01*
G75*
G02*
X30352000Y56705000I70000J0D01*
G01*
X31132000Y56705000D01*
G75*
G02*
X31202000Y56635000I0J-70000D01*
G01*
X31202000Y56075000D01*
G75*
G02*
X31132000Y56005000I-70000J0D01*
G01*
G37*
G04 #@! TD.AperFunction*
G04 #@! TD*
D12*
G04 #@! TO.P,Q16,1,G*
G04 #@! TO.N,/INJ4*
X145443600Y56411840D03*
G04 #@! TO.P,Q16,2,D*
G04 #@! TO.N,/INJOUT4*
X145443600Y54111840D03*
G04 #@! TO.P,Q16,3,S*
G04 #@! TO.N,GND*
X145443600Y51811840D03*
D13*
G04 #@! TO.P,Q16,4*
G04 #@! TO.N,N/C*
X151743600Y54111840D03*
G04 #@! TD*
G04 #@! TO.P,R1,1*
G04 #@! TO.N,/LM1815-Crank/Signal+*
G04 #@! TA.AperFunction,SMDPad,CuDef*
G36*
G01*
X35533340Y37456640D02*
X35533340Y37086640D01*
G75*
G02*
X35398340Y36951640I-135000J0D01*
G01*
X35128340Y36951640D01*
G75*
G02*
X34993340Y37086640I0J135000D01*
G01*
X34993340Y37456640D01*
G75*
G02*
X35128340Y37591640I135000J0D01*
G01*
X35398340Y37591640D01*
G75*
G02*
X35533340Y37456640I0J-135000D01*
G01*
G37*
G04 #@! TD.AperFunction*
G04 #@! TO.P,R1,2*
G04 #@! TO.N,Net-(IC2-VIN)*
G04 #@! TA.AperFunction,SMDPad,CuDef*
G36*
G01*
X34513340Y37456640D02*
X34513340Y37086640D01*
G75*
G02*
X34378340Y36951640I-135000J0D01*
G01*
X34108340Y36951640D01*
G75*
G02*
X33973340Y37086640I0J135000D01*
G01*
X33973340Y37456640D01*
G75*
G02*
X34108340Y37591640I135000J0D01*
G01*
X34378340Y37591640D01*
G75*
G02*
X34513340Y37456640I0J-135000D01*
G01*
G37*
G04 #@! TD.AperFunction*
G04 #@! TD*
D64*
G04 #@! TO.N,GND*
X116940974Y44271045D03*
X113835423Y33209155D03*
X76407000Y18733000D03*
X128807000Y48733000D03*
X142007000Y2433000D03*
X150207000Y32133000D03*
X9207000Y41433000D03*
X125707000Y36033000D03*
X145907000Y40033000D03*
X25407000Y46533000D03*
X154907000Y31133000D03*
X130807000Y30033000D03*
X136607000Y39333000D03*
X29107000Y41833000D03*
X66807000Y18733000D03*
X121707000Y37933000D03*
X30807000Y53633000D03*
X153807000Y57133000D03*
X117440974Y43405019D03*
X110807000Y14333000D03*
X100407000Y43033000D03*
X145807000Y50333000D03*
X145407000Y48533000D03*
X20807000Y13733000D03*
X81007000Y31833000D03*
X121107000Y40033000D03*
X81007000Y46133000D03*
X122007000Y40033000D03*
X102555206Y30571045D03*
X102189180Y29205019D03*
X70307000Y18833000D03*
X81107000Y28033000D03*
X149307000Y32133000D03*
X145007000Y40033000D03*
X46107000Y55633000D03*
X38907000Y22933000D03*
X136607000Y40233000D03*
X101773026Y42666974D03*
X28807000Y33333000D03*
X45707000Y46233000D03*
X10207000Y47733000D03*
X103055206Y29705019D03*
X125307000Y25033000D03*
X29107000Y8733000D03*
X144907000Y50333000D03*
X15907000Y24433000D03*
X124807000Y36033000D03*
X140607000Y34233000D03*
X45707000Y22833000D03*
X45707000Y31433000D03*
X39007000Y14433000D03*
X127407000Y55533000D03*
X35007000Y41533000D03*
X1807000Y10033000D03*
X101689180Y30071045D03*
X131407000Y70933000D03*
X137707000Y52333000D03*
X34307000Y33833000D03*
X19707000Y52933000D03*
X118307000Y43905019D03*
X78507000Y56333000D03*
X10707000Y38633000D03*
X136807000Y52333000D03*
X126507000Y55533000D03*
X101273026Y43533000D03*
X114201449Y34575181D03*
X16007000Y47733000D03*
X100907000Y42166974D03*
X137307000Y68233000D03*
X113335423Y34075181D03*
X117807000Y44771045D03*
X7307000Y38633000D03*
X114701449Y33709155D03*
X123507000Y68933000D03*
X116271000Y72223358D03*
X138507000Y42533000D03*
X29907000Y30733000D03*
G04 #@! TO.N,/IGN1*
X116107000Y41633000D03*
G04 #@! TO.N,/IGN2*
X98607000Y31133000D03*
G04 #@! TO.N,/IGN3*
X110407000Y34933000D03*
G04 #@! TO.N,/IGN4*
X98603860Y43296520D03*
G04 #@! TO.N,/INTAKEFLAP*
X85107000Y20833000D03*
X125062000Y55133000D03*
G04 #@! TO.N,/INJ4*
X147807000Y56433000D03*
X129307000Y67133000D03*
G04 #@! TO.N,/FUELPUMP_LS*
X129007000Y55933000D03*
G04 #@! TO.N,+3.3VA*
X64507000Y18133000D03*
X73907000Y11332500D03*
X78665276Y8091276D03*
G04 #@! TO.N,+5VA*
X37907000Y51433000D03*
X105207000Y24633000D03*
X41107000Y51433000D03*
G04 #@! TO.N,/VBAT*
X53607000Y13833000D03*
G04 #@! TO.N,/OUT_LS2*
X119807000Y46933000D03*
X85307000Y19733000D03*
X117307000Y36833000D03*
G04 #@! TO.N,/OUT_LS3*
X86707000Y18733000D03*
X117807000Y35933000D03*
X123382000Y50075000D03*
G04 #@! TO.N,/CAN+*
X55707000Y8033000D03*
X9307000Y39733000D03*
X55707000Y6633000D03*
G04 #@! TO.N,/VIGN*
X45107000Y14333000D03*
X44307000Y20733000D03*
G04 #@! TO.N,+5V*
X53457000Y11683000D03*
G04 #@! TO.N,/PWR_EN*
X62707000Y14533000D03*
G04 #@! TO.N,/LS2*
X107307000Y66333000D03*
X44707000Y47333000D03*
G04 #@! TO.N,/LS1*
X126954000Y48133000D03*
X43307000Y47233000D03*
G04 #@! TO.N,/LS3*
X81907000Y18833000D03*
X88407000Y24333000D03*
X51507000Y18533000D03*
G04 #@! TO.N,/LS4*
X149707000Y52814063D03*
X44107000Y30033000D03*
G04 #@! TO.N,/VR1*
X12695020Y51833000D03*
G04 #@! TO.N,/VR2*
X37807000Y36533000D03*
G04 #@! TO.N,Net-(M6-UART2_TX_(PD5))*
X40107000Y1633000D03*
X142729000Y19955000D03*
G04 #@! TO.N,Net-(M6-UART2_RX_(PD6))*
X57507000Y2033000D03*
G04 #@! TO.N,/IN_BUTTON3*
X43707000Y68033000D03*
G04 #@! TO.N,/IN_VMAIN*
X32507000Y56193000D03*
G04 #@! TO.N,/IN_AUX2*
X85207000Y23733000D03*
X87107000Y29433000D03*
X81707000Y61133000D03*
G04 #@! TO.N,/IN_AUX1*
X81757000Y59783000D03*
X86407000Y29933000D03*
X83807000Y23333000D03*
G04 #@! TO.N,/IN_BUTTON1*
X50807000Y61733000D03*
X50207000Y71833000D03*
G04 #@! TO.N,/IN_FLEX*
X85607000Y30433000D03*
X82307000Y23133000D03*
X81757000Y58483000D03*
D65*
G04 #@! TO.N,/IGNOUT1*
X106374425Y54988185D03*
X107307000Y54233000D03*
X108239575Y53477815D03*
G04 #@! TO.N,/IGNOUT2*
X92834502Y41229362D03*
X93470405Y40211704D03*
X94106308Y39194046D03*
G04 #@! TO.N,/IGNOUT3*
X105628032Y43738155D03*
X104957000Y44733000D03*
X104285968Y45727845D03*
G04 #@! TO.N,/IGNOUT4*
X92807000Y53533000D03*
X93329277Y52452617D03*
X92284723Y54613383D03*
D64*
G04 #@! TO.N,/Low Side/+12V_RAW*
X114207000Y64633000D03*
G04 #@! TO.N,Net-(IC2-VIN)*
X33607000Y37258940D03*
G04 #@! TO.N,Net-(IC2A1-VIN)*
X12703600Y43575920D03*
G04 #@! TO.N,/LM1815-Crank/Signal+*
X35261340Y36413120D03*
G04 #@! TO.N,/Clutch{slash}kickstandswitch*
X45707000Y67433000D03*
G04 #@! TO.N,/PG_5VP*
X48707000Y13933000D03*
X19107000Y24833000D03*
G04 #@! TD*
D66*
G04 #@! TO.N,GND*
X121707000Y37933000D02*
X121707000Y38975928D01*
D10*
X32137540Y34721310D02*
X33418690Y34721310D01*
D66*
X139828000Y33241072D02*
X140607000Y34233000D01*
X144907000Y50333000D02*
X145807000Y50333000D01*
X125707000Y36033000D02*
X124807000Y36033000D01*
D10*
X35007000Y42209200D02*
X35007000Y41533000D01*
D66*
X153942000Y31168000D02*
X154907000Y31133000D01*
X145007000Y40033000D02*
X145907000Y40033000D01*
X137364928Y42492000D02*
X138507000Y42533000D01*
D10*
X30807000Y53633000D02*
X30807000Y54690000D01*
X19747020Y47995580D02*
X20207000Y47535600D01*
X16627000Y45260890D02*
X16505020Y45382870D01*
D66*
X142004994Y3489999D02*
X143909000Y3455000D01*
D10*
X16627000Y42833000D02*
X16627000Y45260890D01*
X27909540Y32435540D02*
X25573780Y32435540D01*
D66*
X13965020Y45382870D02*
X14238300Y42758040D01*
D67*
X153807000Y57133000D02*
X152907000Y57133000D01*
D10*
X32251440Y44579160D02*
X33260840Y44579160D01*
D66*
X149307000Y32133000D02*
X150207000Y32133000D01*
D10*
X25388690Y41071310D02*
X25307000Y41153000D01*
X27227540Y41071310D02*
X25388690Y41071310D01*
X34841700Y42998300D02*
X34841700Y42374500D01*
D67*
X10155020Y46284980D02*
X10155020Y45382870D01*
D10*
X34841700Y42374500D02*
X35007000Y42209200D01*
D66*
X142004994Y3489999D02*
X142007000Y2433000D01*
D10*
X33418690Y34721310D02*
X34307000Y33833000D01*
X25407000Y45606540D02*
X25365500Y45565040D01*
X20207000Y47535600D02*
X20207000Y46414860D01*
X33538510Y41071310D02*
X32137540Y41071310D01*
X25407000Y46533000D02*
X25407000Y45606540D01*
X20207000Y46414860D02*
X20226540Y46395320D01*
X33260840Y44579160D02*
X34841700Y42998300D01*
D66*
X128807000Y47233000D02*
X128807000Y48733000D01*
D67*
X19707000Y52933000D02*
X19707000Y51896640D01*
X8807000Y47633000D02*
X10155020Y46284980D01*
D66*
X137707000Y52333000D02*
X136807000Y52333000D01*
D10*
X28807000Y33333000D02*
X28807000Y35133000D01*
X32137540Y38531310D02*
X34095310Y38531310D01*
X16269580Y47995580D02*
X19747020Y47995580D01*
X28807000Y35133000D02*
X27948690Y35991310D01*
D66*
X130807000Y30033000D02*
X129907000Y30033000D01*
X136607000Y40233000D02*
X136607000Y39333000D01*
D10*
X28807000Y33333000D02*
X27909540Y32435540D01*
D66*
X127407000Y55533000D02*
X126507000Y55533000D01*
D10*
X34841700Y42374500D02*
X33538510Y41071310D01*
X16007000Y47733000D02*
X16269580Y47995580D01*
D67*
X8807000Y49353000D02*
X8807000Y47633000D01*
D66*
X145407000Y48533000D02*
X146407000Y48533000D01*
X121107000Y40033000D02*
X122007000Y40033000D01*
D10*
X27948690Y35991310D02*
X27227540Y35991310D01*
D67*
X19707000Y51896640D02*
X19734320Y51869320D01*
D10*
X30807000Y54690000D02*
X30742000Y54755000D01*
G04 #@! TO.N,/IGN1*
X114307000Y40740180D02*
X116107000Y41633000D01*
X80467000Y33773000D02*
X80067010Y33773000D01*
X116107000Y41633000D02*
X116107000Y30998686D01*
X108941314Y23833000D02*
X90407000Y23833000D01*
X116107000Y30998686D02*
X108941314Y23833000D01*
X90407000Y23833000D02*
X80467000Y33773000D01*
G04 #@! TO.N,/IGN2*
X98607000Y31133000D02*
X99846820Y28379000D01*
G04 #@! TO.N,/IGN3*
X111383820Y32514000D02*
X110407000Y34933000D01*
G04 #@! TO.N,/CLT*
X77267010Y60372990D02*
X77267010Y54973000D01*
X69307000Y68333000D02*
X77267010Y60372990D01*
X52377000Y68333000D02*
X69307000Y68333000D01*
X48325000Y64281000D02*
X52377000Y68333000D01*
G04 #@! TO.N,/IAT_SENSOR*
X46707000Y67633000D02*
X45207000Y69133000D01*
X76067010Y60572990D02*
X69407000Y67233000D01*
X54307000Y67233000D02*
X49207000Y62133000D01*
X69407000Y67233000D02*
X54307000Y67233000D01*
X41007000Y61799000D02*
X42625000Y60181000D01*
X76067010Y54973000D02*
X76067010Y60572990D01*
X46707000Y62833000D02*
X46707000Y67633000D01*
X42507000Y69133000D02*
X41007000Y67633000D01*
X49207000Y62133000D02*
X47407000Y62133000D01*
X41007000Y67633000D02*
X41007000Y61799000D01*
X47407000Y62133000D02*
X46707000Y62833000D01*
X45207000Y69133000D02*
X42507000Y69133000D01*
G04 #@! TO.N,/BARO*
X50073000Y58433000D02*
X48325000Y60181000D01*
X60467000Y54973000D02*
X57007000Y58433000D01*
X57007000Y58433000D02*
X50073000Y58433000D01*
D66*
G04 #@! TO.N,/INTAKEFLAP*
X137407000Y30833000D02*
X142307000Y30833000D01*
X131257000Y61599000D02*
X131257000Y59470752D01*
X84507000Y20233000D02*
X84507000Y19043050D01*
X85107000Y20833000D02*
X84507000Y20233000D01*
X128625000Y64231000D02*
X131257000Y61599000D01*
X132557000Y50739496D02*
X134157000Y49139496D01*
X132557000Y58170752D02*
X132557000Y50739496D01*
X147256000Y35782000D02*
X149737000Y35782000D01*
X134157000Y49139496D02*
X134157000Y34083000D01*
X134157000Y34083000D02*
X137407000Y30833000D01*
X142307000Y30833000D02*
X147256000Y35782000D01*
X131257000Y59470752D02*
X132557000Y58170752D01*
X79183950Y13720000D02*
X78007000Y13720000D01*
X84507000Y19043050D02*
X79183950Y13720000D01*
D10*
G04 #@! TO.N,/INJ2*
X138228000Y35066000D02*
X138324000Y35162000D01*
X41707000Y39207266D02*
X39207000Y41707266D01*
X39207000Y41707266D02*
X39207000Y70467314D01*
X135107000Y49533000D02*
X135107000Y38379000D01*
X46618461Y32973000D02*
X41707000Y37884461D01*
X41707000Y37884461D02*
X41707000Y39207266D01*
X46667010Y32973000D02*
X46618461Y32973000D01*
X133507000Y58564256D02*
X133507000Y51133000D01*
X132207000Y68033000D02*
X132207000Y59864256D01*
X132207000Y59864256D02*
X133507000Y58564256D01*
X39207000Y70467314D02*
X39572686Y70833000D01*
X138228000Y33241072D02*
X138228000Y35066000D01*
X133507000Y51133000D02*
X135107000Y49533000D01*
X39572686Y70833000D02*
X129407000Y70833000D01*
X135107000Y38379000D02*
X138324000Y35162000D01*
X129407000Y70833000D02*
X132207000Y68033000D01*
G04 #@! TO.N,/INJ4*
X40007000Y69633000D02*
X40407000Y70033000D01*
X42507000Y38684461D02*
X42507000Y39538638D01*
X126407000Y70033000D02*
X129307000Y67133000D01*
X145464760Y56433000D02*
X145443600Y56411840D01*
X46618471Y34572990D02*
X42507000Y38684461D01*
X46667000Y34572990D02*
X46618471Y34572990D01*
X42507000Y39538638D02*
X40007000Y42038638D01*
X147807000Y56433000D02*
X145464760Y56433000D01*
X40007000Y42038638D02*
X40007000Y69633000D01*
X147807000Y56433000D02*
X148107000Y56433000D01*
X148107000Y56433000D02*
X148807000Y57133000D01*
X40407000Y70033000D02*
X126407000Y70033000D01*
X148807000Y57133000D02*
X151307000Y57133000D01*
D66*
G04 #@! TO.N,/FUELPUMP_LS*
X129007000Y55933000D02*
X129007000Y52295000D01*
X128454000Y51742000D02*
X126954000Y51742000D01*
X129007000Y52295000D02*
X128454000Y51742000D01*
X128625000Y60131000D02*
X129007000Y59749000D01*
X129007000Y59749000D02*
X129007000Y55933000D01*
D10*
G04 #@! TO.N,/INJ1*
X137364928Y44092000D02*
X137364928Y46145072D01*
X41307000Y39041580D02*
X41307000Y37484481D01*
X136307000Y61033000D02*
X135507000Y61833000D01*
X137258000Y46252000D02*
X139157000Y48151000D01*
X132607000Y62933000D02*
X132607000Y68333744D01*
X132607000Y68333744D02*
X129707744Y71233000D01*
X38807000Y41541580D02*
X41307000Y39041580D01*
X136307000Y55055182D02*
X136307000Y61033000D01*
X46618491Y32172990D02*
X46667000Y32172990D01*
X135507000Y61833000D02*
X133707000Y61833000D01*
X139157000Y52205182D02*
X136307000Y55055182D01*
X39407000Y71233000D02*
X38807000Y70633000D01*
X41307000Y37484481D02*
X46618491Y32172990D01*
X129707744Y71233000D02*
X39407000Y71233000D01*
X139157000Y48151000D02*
X139157000Y52205182D01*
X38807000Y70633000D02*
X38807000Y41541580D01*
X137364928Y46145072D02*
X137258000Y46252000D01*
X133707000Y61833000D02*
X132607000Y62933000D01*
G04 #@! TO.N,/INJ3*
X140707000Y31733000D02*
X149007000Y40033000D01*
X46618471Y33772990D02*
X42107000Y38284461D01*
X39738372Y70433000D02*
X129207000Y70433000D01*
X149007000Y40033000D02*
X149007000Y46133000D01*
X149007000Y47533000D02*
X148007000Y48533000D01*
X133107000Y58398570D02*
X133107000Y50967314D01*
X137307000Y31733000D02*
X140707000Y31733000D01*
X39607000Y41872952D02*
X39607000Y70301628D01*
X148969000Y46095000D02*
X149007000Y46133000D01*
X131807000Y67833000D02*
X131807000Y59698570D01*
X42107000Y38284461D02*
X42107000Y39372952D01*
X133107000Y50967314D02*
X134707000Y49367314D01*
X46667000Y33772990D02*
X46618471Y33772990D01*
X131807000Y59698570D02*
X133107000Y58398570D01*
X149007000Y46133000D02*
X149007000Y47533000D01*
X145484000Y46095000D02*
X148969000Y46095000D01*
X129207000Y70433000D02*
X131807000Y67833000D01*
X42107000Y39372952D02*
X39607000Y41872952D01*
X39607000Y70301628D02*
X39738372Y70433000D01*
X134707000Y49367314D02*
X134707000Y34333000D01*
X134707000Y34333000D02*
X137307000Y31733000D01*
G04 #@! TO.N,+3.3VA*
X78665276Y8091276D02*
X78665277Y8091276D01*
X115407000Y9533000D02*
X137596000Y9533000D01*
X80907000Y3033000D02*
X93407000Y3033000D01*
X72107000Y15298686D02*
X72107000Y12833000D01*
X80107000Y6649553D02*
X80107000Y3833000D01*
X78665277Y8091276D02*
X80107000Y6649553D01*
X93407000Y3033000D02*
X94307000Y3933000D01*
X137596000Y9533000D02*
X139494000Y7635000D01*
X65007000Y17633000D02*
X69772686Y17633000D01*
X109807000Y3933000D02*
X115407000Y9533000D01*
X72107000Y12833000D02*
X73607500Y11332500D01*
X73607500Y11332500D02*
X73907000Y11332500D01*
X94307000Y3933000D02*
X109807000Y3933000D01*
X64507000Y18133000D02*
X65007000Y17633000D01*
X69772686Y17633000D02*
X72107000Y15298686D01*
X80107000Y3833000D02*
X80907000Y3033000D01*
D67*
G04 #@! TO.N,+5VA*
X40857000Y69583000D02*
X74857000Y69583000D01*
X74857000Y64534471D02*
X82007000Y57384471D01*
D10*
X27607000Y42720770D02*
X27227540Y42341310D01*
D67*
X40457000Y52083000D02*
X40457000Y69183000D01*
X81467010Y51472990D02*
X81546990Y51472990D01*
D10*
X17775020Y51984280D02*
X17775020Y50292870D01*
D67*
X44067010Y48472990D02*
X40457000Y52083000D01*
D10*
X17775020Y50292870D02*
X20947130Y50292870D01*
X19734320Y50319320D02*
X19734320Y48968280D01*
X21659560Y43900960D02*
X25441640Y43900960D01*
D67*
X44067010Y48472990D02*
X41107000Y51433000D01*
X83007000Y31869396D02*
X90243396Y24633000D01*
X40457000Y69183000D02*
X40857000Y69583000D01*
D10*
X20947130Y50292870D02*
X21530100Y49709900D01*
D67*
X90243396Y24633000D02*
X105207000Y24633000D01*
D10*
X25441640Y42321160D02*
X27207390Y42321160D01*
D67*
X82007000Y51933000D02*
X83007000Y50933000D01*
X21530100Y49709900D02*
X21530100Y43771500D01*
X74857000Y69583000D02*
X74857000Y64534471D01*
D10*
X25441640Y43900960D02*
X25441640Y42321160D01*
D67*
X82007000Y57384471D02*
X82007000Y51933000D01*
D10*
X23607000Y37354280D02*
X23607000Y43900960D01*
D67*
X37907000Y51433000D02*
X28207000Y51433000D01*
D10*
X23709960Y34647820D02*
X23709960Y37251320D01*
D67*
X81546990Y51472990D02*
X82007000Y51933000D01*
X83007000Y50933000D02*
X83007000Y31869396D01*
D10*
X23687100Y37274180D02*
X23607000Y37354280D01*
D67*
X26483900Y49709900D02*
X21530100Y49709900D01*
D10*
X12210300Y53718140D02*
X11143500Y52651340D01*
X21169420Y43771500D02*
X18789440Y41391520D01*
X16041160Y53718140D02*
X12210300Y53718140D01*
X27607000Y43523000D02*
X27607000Y42720770D01*
D67*
X46667010Y48472990D02*
X44067010Y48472990D01*
D10*
X16041160Y53718140D02*
X17775020Y51984280D01*
X18789440Y41391520D02*
X16266680Y41391520D01*
D67*
X80067010Y51472990D02*
X81467010Y51472990D01*
X28207000Y51433000D02*
X26483900Y49709900D01*
D10*
G04 #@! TO.N,/VBAT*
X53607000Y13833000D02*
X53407000Y13833000D01*
X47507000Y7933000D02*
X20907000Y7933000D01*
X20507000Y8333000D02*
X20507000Y10133000D01*
X53407000Y13833000D02*
X47507000Y7933000D01*
X20931001Y10557001D02*
X22089005Y10557001D01*
X20907000Y7933000D02*
X20507000Y8333000D01*
X20507000Y10133000D02*
X20931001Y10557001D01*
D66*
G04 #@! TO.N,/OUT_LS2*
X117307000Y36833000D02*
X117307000Y38383000D01*
X119807000Y40883000D02*
X119807000Y43712325D01*
X121206000Y43711000D02*
X121556000Y43711000D01*
X121556000Y43711000D02*
X119807000Y43712325D01*
X85307000Y17020000D02*
X82007000Y13720000D01*
X119807000Y47733000D02*
X117407000Y50133000D01*
X117307000Y38383000D02*
X119807000Y40883000D01*
X117407000Y54249000D02*
X111525000Y60131000D01*
X117407000Y50133000D02*
X117407000Y54249000D01*
X119807000Y46933000D02*
X119807000Y47733000D01*
X85307000Y19733000D02*
X85307000Y17020000D01*
X119807000Y46933000D02*
X119807000Y43712325D01*
G04 #@! TO.N,/OUT_LS3*
X123382000Y50075000D02*
X123382000Y49374051D01*
X127516000Y34296000D02*
X125698000Y32478000D01*
X113623000Y62133000D02*
X118007000Y62133000D01*
X118007000Y62133000D02*
X123382000Y56758000D01*
X125447000Y47309051D02*
X125447000Y37971497D01*
X125447000Y37971497D02*
X127516000Y35902497D01*
X127516000Y35902497D02*
X127516000Y34296000D01*
X123382000Y56758000D02*
X123382000Y50075000D01*
X111525000Y64231000D02*
X113623000Y62133000D01*
X124879000Y32359000D02*
X125229000Y32359000D01*
X86707000Y14420000D02*
X86707000Y18733000D01*
X86007000Y13720000D02*
X86707000Y14420000D01*
X117807000Y35933000D02*
X121305000Y35933000D01*
X121305000Y35933000D02*
X124879000Y32359000D01*
X123382000Y49374051D02*
X125447000Y47309051D01*
D68*
G04 #@! TO.N,/IN_VIGN*
X38649662Y11956998D02*
X37589002Y11956998D01*
X40607000Y13914336D02*
X38649662Y11956998D01*
X40607000Y38751630D02*
X40607000Y13914336D01*
X29188412Y49092588D02*
X30266042Y49092588D01*
X30266042Y49092588D02*
X40607000Y38751630D01*
D11*
G04 #@! TO.N,+12V*
X25525000Y56577000D02*
X25517588Y56584412D01*
X25517588Y57711000D02*
X25517588Y60173588D01*
X25517588Y56584412D02*
X25517588Y57711000D01*
X25723588Y52557412D02*
X25525000Y52756000D01*
X25525000Y52756000D02*
X25525000Y56577000D01*
D10*
X25696588Y57532000D02*
X25517588Y57711000D01*
X27364000Y57532000D02*
X25696588Y57532000D01*
G04 #@! TO.N,/CAN+*
X94007000Y13720000D02*
X94007000Y14333000D01*
X90359977Y17980023D02*
X86707000Y21633000D01*
X94007000Y14333000D02*
X92444139Y15895861D01*
X91308595Y17031404D02*
X91171343Y17168657D01*
X91967470Y16841749D02*
X91777815Y17031404D01*
X9307000Y39733000D02*
X9307000Y37743200D01*
X80256960Y31173000D02*
X80067010Y31173000D01*
X91974953Y15895861D02*
X91732869Y16137945D01*
X55707000Y8033000D02*
X55707000Y6633000D01*
X86707000Y21633000D02*
X86707000Y24722960D01*
X9307000Y37743200D02*
X9339000Y37711200D01*
X91171343Y17168657D02*
X90359977Y17980023D01*
X91850166Y16489834D02*
X91967470Y16607139D01*
X91850165Y16489835D02*
X91850166Y16489834D01*
X86707000Y24722960D02*
X80256960Y31173000D01*
X91732868Y16372539D02*
X91850165Y16489835D01*
X91732869Y16137945D02*
G75*
G02*
X91732910Y16372497I117331J117255D01*
G01*
X92209545Y15895862D02*
G75*
G02*
X91974905Y15895812I-117345J117338D01*
G01*
X91543205Y17031404D02*
G75*
G02*
X91308595Y17031404I-117305J117306D01*
G01*
X91777815Y17031404D02*
G75*
G03*
X91543205Y17031404I-117305J-117306D01*
G01*
X91967470Y16607139D02*
G75*
G03*
X91967426Y16841705I-117270J117261D01*
G01*
X92444139Y15895861D02*
G75*
G03*
X92209503Y15895904I-117339J-117261D01*
G01*
G04 #@! TO.N,/CAN-*
X86307000Y21233000D02*
X88007000Y19533000D01*
X88007000Y19533000D02*
X88007000Y9720000D01*
X80067010Y30373000D02*
X80491274Y30373000D01*
X80491274Y30373000D02*
X86307000Y24557274D01*
X86307000Y24557274D02*
X86307000Y21233000D01*
D69*
G04 #@! TO.N,/WBO_Heater*
X94099500Y9720000D02*
X92007000Y9720000D01*
X97671620Y11199622D02*
X102690207Y16218208D01*
X106537963Y17812000D02*
X113180000Y17812000D01*
X97671620Y11199622D02*
G75*
G02*
X94099500Y9719989I-3572120J3572078D01*
G01*
X106537963Y17812000D02*
G75*
G03*
X102690236Y16218179I37J-5441500D01*
G01*
D10*
G04 #@! TO.N,/VBUS*
X71107500Y7332500D02*
X74807500Y7332500D01*
X49858461Y16733000D02*
X49951355Y16733000D01*
X67807000Y12200420D02*
X69707000Y10300420D01*
X77541314Y1833000D02*
X93904058Y1833000D01*
X94804058Y2733000D02*
X124472686Y2733000D01*
X75619500Y6520500D02*
X75619500Y3754814D01*
X119507000Y9133000D02*
X118407000Y8033000D01*
X49951355Y16733000D02*
X50251355Y16433000D01*
X75619500Y3754814D02*
X77541314Y1833000D01*
X124472686Y2733000D02*
X126407000Y4667314D01*
X50251355Y16433000D02*
X66607000Y16433000D01*
X125172686Y9133000D02*
X119507000Y9133000D01*
X69707000Y8733000D02*
X71107500Y7332500D01*
X118407000Y5972000D02*
X118752000Y5627000D01*
X74807500Y7332500D02*
X75619500Y6520500D01*
X69707000Y10300420D02*
X69707000Y8733000D01*
X47067000Y19524461D02*
X49858461Y16733000D01*
X47067000Y19572990D02*
X47067000Y19524461D01*
X118407000Y8033000D02*
X118407000Y5972000D01*
X67807000Y15233000D02*
X67807000Y12200420D01*
X93904058Y1833000D02*
X94804058Y2733000D01*
X126407000Y7898686D02*
X125172686Y9133000D01*
X66607000Y16433000D02*
X67807000Y15233000D01*
X126407000Y4667314D02*
X126407000Y7898686D01*
G04 #@! TO.N,/USB-*
X126007000Y4833000D02*
X124307000Y3133000D01*
X68207000Y15398686D02*
X66772686Y16833000D01*
X119552000Y7377000D02*
X120908000Y8733000D01*
X68207000Y12366106D02*
X68207000Y15398686D01*
X66772686Y16833000D02*
X50417041Y16833000D01*
X74973186Y7732500D02*
X71273186Y7732500D01*
X125007000Y8733000D02*
X126007000Y7733000D01*
X76019500Y6686186D02*
X74973186Y7732500D01*
X77707000Y2233000D02*
X76019500Y3920500D01*
X47867000Y19383041D02*
X47867000Y19572990D01*
X71273186Y7732500D02*
X70107000Y8898686D01*
X76019500Y3920500D02*
X76019500Y6686186D01*
X93738372Y2233000D02*
X77707000Y2233000D01*
X94638372Y3133000D02*
X93738372Y2233000D01*
X124307000Y3133000D02*
X94638372Y3133000D01*
X70107000Y10466106D02*
X68207000Y12366106D01*
X120908000Y8733000D02*
X125007000Y8733000D01*
X70107000Y8898686D02*
X70107000Y10466106D01*
X50417041Y16833000D02*
X47867000Y19383041D01*
X126007000Y7733000D02*
X126007000Y4833000D01*
G04 #@! TO.N,/USB+*
X75938872Y7332500D02*
X78674920Y7332500D01*
X71707000Y15133000D02*
X71707000Y12333000D01*
X79707000Y6300420D02*
X79707000Y3667314D01*
X118258000Y3533000D02*
X120352000Y5627000D01*
X50582726Y17233000D02*
X69607000Y17233000D01*
X48667000Y19572990D02*
X48667000Y19148726D01*
X93572686Y2633000D02*
X94472686Y3533000D01*
X73807000Y10233000D02*
X73807000Y8633000D01*
X80741314Y2633000D02*
X93572686Y2633000D01*
X73807000Y8633000D02*
X74307500Y8132500D01*
X71707000Y12333000D02*
X73807000Y10233000D01*
X69607000Y17233000D02*
X71707000Y15133000D01*
X75138872Y8132500D02*
X75938872Y7332500D01*
X94472686Y3533000D02*
X118258000Y3533000D01*
X79707000Y3667314D02*
X80741314Y2633000D01*
X48667000Y19148726D02*
X50582726Y17233000D01*
X74307500Y8132500D02*
X75138872Y8132500D01*
X78674920Y7332500D02*
X79707000Y6300420D01*
G04 #@! TO.N,/VIGN*
X45107000Y19933000D02*
X45107000Y14333000D01*
X44307000Y20733000D02*
X45107000Y19933000D01*
G04 #@! TO.N,+5V*
X49307000Y7533000D02*
X20607000Y7533000D01*
X20607000Y7533000D02*
X19107000Y9033000D01*
X19107000Y9033000D02*
X19107000Y20833000D01*
X53457000Y11683000D02*
X49307000Y7533000D01*
X19107000Y20833000D02*
X21431001Y23157001D01*
X21431001Y23157001D02*
X22089005Y23157001D01*
G04 #@! TO.N,/PWR_EN*
X18707000Y8833000D02*
X18707000Y23049256D01*
X20407000Y7133000D02*
X18707000Y8833000D01*
X18707000Y23049256D02*
X21214742Y25556998D01*
X62607000Y14633000D02*
X57707000Y14633000D01*
X21214742Y25556998D02*
X21639006Y25556998D01*
X57707000Y14633000D02*
X50207000Y7133000D01*
X62707000Y14533000D02*
X62607000Y14633000D01*
X50207000Y7133000D02*
X20407000Y7133000D01*
X68907000Y19512990D02*
X68967010Y19573000D01*
D70*
G04 #@! TO.N,Net-(M1-PG_5VP)*
X19120999Y26556999D02*
X21639006Y26556999D01*
D10*
G04 #@! TO.N,/LS2*
X46242736Y37772990D02*
X46667000Y37772990D01*
X107307000Y66333000D02*
X109007000Y64633000D01*
X121556000Y46011000D02*
X123307000Y44260000D01*
X122607000Y47062000D02*
X121556000Y46011000D01*
X121107000Y55833000D02*
X122607000Y54333000D01*
X122607000Y54333000D02*
X122607000Y47062000D01*
X44707000Y47333000D02*
X44607000Y47233000D01*
X110507000Y62133000D02*
X112816000Y62133000D01*
X44607000Y47233000D02*
X44607000Y39408726D01*
X109007000Y63633000D02*
X110507000Y62133000D01*
X123307000Y44260000D02*
X123307000Y38975928D01*
X119116000Y55833000D02*
X121107000Y55833000D01*
X112816000Y62133000D02*
X119116000Y55833000D01*
X109007000Y64633000D02*
X109007000Y63633000D01*
X44607000Y39408726D02*
X46242736Y37772990D01*
G04 #@! TO.N,/LS1*
X43307000Y39908726D02*
X43307000Y47233000D01*
X126954000Y48133000D02*
X126954000Y47486000D01*
X46242736Y36972990D02*
X43307000Y39908726D01*
X126954000Y49442000D02*
X126954000Y48133000D01*
X126954000Y47486000D02*
X127207000Y47233000D01*
X46667000Y36972990D02*
X46242736Y36972990D01*
G04 #@! TO.N,/LS3*
X65384818Y18033000D02*
X64734818Y18683000D01*
X109007000Y23333000D02*
X111929182Y26255182D01*
X64279182Y18683000D02*
X64029182Y18433000D01*
X69938372Y18033000D02*
X65384818Y18033000D01*
X111929182Y26255182D02*
X120729182Y26255182D01*
X89407000Y23333000D02*
X109007000Y23333000D01*
X64734818Y18683000D02*
X64279182Y18683000D01*
X120729182Y26255182D02*
X124533000Y30059000D01*
X81907000Y18833000D02*
X80907000Y17833000D01*
X88407000Y24333000D02*
X89407000Y23333000D01*
X51607000Y18433000D02*
X51507000Y18533000D01*
X70138372Y17833000D02*
X69938372Y18033000D01*
X125229000Y30059000D02*
X128281000Y30059000D01*
X64029182Y18433000D02*
X51607000Y18433000D01*
X80907000Y17833000D02*
X70138372Y17833000D01*
X124533000Y30059000D02*
X125229000Y30059000D01*
X128281000Y30059000D02*
X128307000Y30033000D01*
G04 #@! TO.N,/LS4*
X152342000Y31168000D02*
X152342000Y35433000D01*
X149737000Y52784063D02*
X149737000Y38082000D01*
X152342000Y35477000D02*
X149737000Y38082000D01*
X44107000Y30033000D02*
X44167000Y29973000D01*
X149707000Y52814063D02*
X149737000Y52784063D01*
X152342000Y35433000D02*
X152342000Y35477000D01*
X44167000Y29973000D02*
X46667000Y29973000D01*
G04 #@! TO.N,/VR1*
X12695020Y51833000D02*
X12695020Y52632280D01*
X12695020Y50292870D02*
X12695020Y51833000D01*
G04 #@! TO.N,/VR2*
X27744375Y37261310D02*
X29607000Y35398685D01*
X27227540Y37261310D02*
X27744375Y37261310D01*
X24707100Y37274180D02*
X25507000Y37274180D01*
X29607000Y32833000D02*
X29828780Y32611220D01*
X37807000Y35033000D02*
X37807000Y36533000D01*
X29828780Y32611220D02*
X35385220Y32611220D01*
X29607000Y35398685D02*
X29607000Y32833000D01*
X35385220Y32611220D02*
X37807000Y35033000D01*
X25507000Y37274180D02*
X27665820Y37274180D01*
G04 #@! TO.N,Net-(IC2-RC_TIMING)*
X24729960Y34647820D02*
X25581400Y34647820D01*
X25573780Y34640200D02*
X25581400Y34647820D01*
X25581400Y34647820D02*
X27154050Y34647820D01*
X25573780Y33395540D02*
X25573780Y34640200D01*
G04 #@! TO.N,Net-(IC2-PEAK_DETECTOR_CAPACITOR)*
X32251440Y43619160D02*
X32251440Y42455210D01*
X32137540Y42341310D02*
X33788510Y42341310D01*
G04 #@! TO.N,Net-(M6-UART2_TX_(PD5))*
X143909000Y19955000D02*
X142729000Y19955000D01*
G04 #@! TO.N,Net-(M6-UART2_RX_(PD6))*
X141807000Y20433000D02*
X141807000Y18233000D01*
X138007000Y2633000D02*
X136707000Y1333000D01*
X141807000Y18233000D02*
X142507000Y17533000D01*
X138807000Y6333000D02*
X138007000Y5533000D01*
X140492000Y6333000D02*
X138807000Y6333000D01*
X138007000Y5533000D02*
X138007000Y2633000D01*
X142507000Y8348000D02*
X140492000Y6333000D01*
X136707000Y1333000D02*
X58207000Y1333000D01*
X142829000Y21455000D02*
X141807000Y20433000D01*
X58207000Y1333000D02*
X57507000Y2033000D01*
X143909000Y21455000D02*
X142829000Y21455000D01*
X142507000Y17533000D02*
X142507000Y8348000D01*
G04 #@! TO.N,/IN_BUTTON3*
X53266990Y55373020D02*
X51707010Y56933000D01*
X51707010Y56933000D02*
X46607000Y56933000D01*
X53266990Y54973000D02*
X53266990Y55373020D01*
X45407000Y66333000D02*
X43707000Y68033000D01*
X46607000Y56933000D02*
X45407000Y58133000D01*
X45407000Y58133000D02*
X45407000Y66333000D01*
G04 #@! TO.N,/IN_HALL3*
X53677000Y56673000D02*
X54467000Y55883000D01*
X54467000Y55883000D02*
X54467000Y54973000D01*
G04 #@! TO.N,/IN_HALL2*
X55694000Y56721000D02*
X55694000Y55000000D01*
X55694000Y55000000D02*
X55667000Y54973000D01*
G04 #@! TO.N,/IN_VMAIN*
X32507000Y56193000D02*
X32487000Y56213000D01*
X32487000Y56213000D02*
X30283000Y56213000D01*
X30283000Y56213000D02*
X28964000Y57532000D01*
G04 #@! TO.N,/IN_PPS2*
X61517000Y56713000D02*
X61667000Y56563000D01*
X61667000Y56563000D02*
X61667000Y54973000D01*
G04 #@! TO.N,/IN_TPS2*
X63007000Y56173000D02*
X63007000Y55113000D01*
X63007000Y55113000D02*
X62867000Y54973000D01*
X63547000Y56713000D02*
X63007000Y56173000D01*
G04 #@! TO.N,/IN_AUX2*
X84707000Y58133000D02*
X81707000Y61133000D01*
X84007000Y14942182D02*
X84007000Y9720000D01*
X85907000Y23033000D02*
X85907000Y16842182D01*
X87207000Y30433000D02*
X84707000Y32933000D01*
X85907000Y16842182D02*
X84007000Y14942182D01*
X87207000Y29533000D02*
X87207000Y30433000D01*
X87107000Y29433000D02*
X87207000Y29533000D01*
X84707000Y32933000D02*
X84707000Y58133000D01*
X85207000Y23733000D02*
X85907000Y23033000D01*
G04 #@! TO.N,/IN_AUX1*
X76394500Y12045500D02*
X78720000Y9720000D01*
X84307000Y32733000D02*
X86407000Y30633000D01*
X83807000Y19120868D02*
X81519132Y16833000D01*
X76394500Y16720500D02*
X76394500Y12045500D01*
X81519132Y16833000D02*
X76507000Y16833000D01*
X76507000Y16833000D02*
X76394500Y16720500D01*
X78720000Y9720000D02*
X80007000Y9720000D01*
X83807000Y23333000D02*
X83807000Y19120868D01*
X81757000Y59783000D02*
X84307000Y57233000D01*
X86407000Y30633000D02*
X86407000Y29933000D01*
X84307000Y57233000D02*
X84307000Y32733000D01*
G04 #@! TO.N,/INTERNAL_MAP*
X66495000Y55001000D02*
X66467000Y54973000D01*
X66495000Y56857000D02*
X66495000Y55001000D01*
G04 #@! TO.N,/IN_MAP*
X67667000Y57273000D02*
X67667000Y54973000D01*
X58107000Y57933000D02*
X67007000Y57933000D01*
X67007000Y57933000D02*
X67667000Y57273000D01*
X54025000Y60181000D02*
X55859000Y60181000D01*
X55859000Y60181000D02*
X58107000Y57933000D01*
G04 #@! TO.N,/IN_BUTTON1*
X14125000Y60965744D02*
X14125000Y60181000D01*
X64807000Y58333000D02*
X67172686Y58333000D01*
X67172686Y58333000D02*
X68867000Y56638686D01*
X50807000Y61733000D02*
X61407000Y61733000D01*
X25192256Y72033000D02*
X14125000Y60965744D01*
X50007000Y72033000D02*
X25192256Y72033000D01*
X68867000Y56638686D02*
X68867000Y54973000D01*
X61407000Y61733000D02*
X64807000Y58333000D01*
X50207000Y71833000D02*
X50007000Y72033000D01*
G04 #@! TO.N,/IN_FLEX*
X75707000Y16633000D02*
X75707000Y10020000D01*
X76307000Y17233000D02*
X75707000Y16633000D01*
X82807000Y22633000D02*
X82807000Y18686554D01*
X75707000Y10020000D02*
X76007000Y9720000D01*
X82807000Y18686554D02*
X81353446Y17233000D01*
X83907000Y32133000D02*
X85607000Y30433000D01*
X82307000Y23133000D02*
X82807000Y22633000D01*
X83907000Y56333000D02*
X83907000Y32133000D01*
X81353446Y17233000D02*
X76307000Y17233000D01*
X81757000Y58483000D02*
X83907000Y56333000D01*
G04 #@! TO.N,/IN_TPS1*
X68307000Y66833000D02*
X73667010Y61472990D01*
X73667010Y61472990D02*
X73667010Y54973000D01*
X56577000Y66833000D02*
X68307000Y66833000D01*
X54025000Y64281000D02*
X56577000Y66833000D01*
G04 #@! TO.N,/IN_PPS1*
X74867000Y56403000D02*
X74867000Y54973010D01*
X74867000Y54973010D02*
X74867010Y54973000D01*
D11*
G04 #@! TO.N,/IGNOUT2*
X88407000Y64600013D02*
X88407000Y48033000D01*
X94519563Y68172868D02*
X96501960Y67785236D01*
X97617239Y67146321D02*
X100176000Y64249000D01*
X89632520Y65825533D02*
X93101352Y67921767D01*
X89632520Y65825533D02*
X88407000Y64600013D01*
X93101352Y67921767D02*
G75*
G02*
X94519559Y68172849I1034348J-1711567D01*
G01*
X96501960Y67785236D02*
G75*
G02*
X97617218Y67146303I-383860J-1962836D01*
G01*
G04 #@! TO.N,/IGNOUT3*
X106042538Y43175748D02*
X94406000Y60066000D01*
G04 #@! TO.N,/IGNOUT4*
X91957274Y55515653D02*
X92297000Y54530000D01*
X92297000Y54530000D02*
X92800000Y53582000D01*
X93104000Y52888000D02*
X95453462Y48092768D01*
X94439000Y64270000D02*
X92799367Y63326044D01*
X92800000Y53582000D02*
X93104000Y52888000D01*
X91797271Y61604483D02*
X91766658Y56379577D01*
X91957274Y55515653D02*
G75*
G02*
X91766638Y56379577I1809326J852247D01*
G01*
X91797271Y61604483D02*
G75*
G02*
X92799361Y63326054I1999929J-11683D01*
G01*
D66*
G04 #@! TO.N,/INJOUT3*
X141007000Y59149000D02*
X141007000Y47133000D01*
X144345000Y43795000D02*
X145484000Y43795000D01*
X140025000Y60131000D02*
X141007000Y59149000D01*
X141007000Y47133000D02*
X144345000Y43795000D01*
G04 #@! TO.N,/INJOUT1*
X137258000Y48552000D02*
X136908000Y48552000D01*
X136908000Y48552000D02*
X134325000Y51135000D01*
X134325000Y51135000D02*
X134325000Y60131000D01*
G04 #@! TO.N,/INJOUT4*
X143007000Y54552122D02*
X143007000Y61249000D01*
X143007000Y61249000D02*
X140025000Y64231000D01*
X143447282Y54111840D02*
X143007000Y54552122D01*
X145443600Y54111840D02*
X143447282Y54111840D01*
G04 #@! TO.N,/INJOUT2*
X139907000Y52233000D02*
X137607000Y54533000D01*
X140807000Y42433000D02*
X139907000Y43333000D01*
X140636000Y37462000D02*
X140807000Y37633000D01*
X137607000Y54533000D02*
X137607000Y60949000D01*
X137607000Y60949000D02*
X134325000Y64231000D01*
X138324000Y37462000D02*
X140636000Y37462000D01*
X139907000Y43333000D02*
X139907000Y52233000D01*
X140807000Y37633000D02*
X140807000Y42433000D01*
D69*
G04 #@! TO.N,/WBO2_Heater*
X8119000Y12370000D02*
X8119000Y10793000D01*
X51126792Y5875793D02*
X56835207Y11584208D01*
X47279036Y4282000D02*
X16883963Y4282000D01*
X60682963Y13178000D02*
X65465000Y13178000D01*
X13036207Y5875793D02*
X8119000Y10793000D01*
X51126792Y5875793D02*
G75*
G02*
X47279036Y4281990I-3847792J3847807D01*
G01*
X60682963Y13178000D02*
G75*
G03*
X56835236Y11584179I37J-5441500D01*
G01*
X13036207Y5875793D02*
G75*
G03*
X16883963Y4281989I3847793J3847807D01*
G01*
D10*
G04 #@! TO.N,/WBO2_Un*
X11934628Y3433000D02*
X4897628Y10470000D01*
X12666000Y2701630D02*
X11934628Y3433000D01*
X13134629Y2233000D02*
X12900314Y2467315D01*
X52238372Y3433000D02*
X51038372Y2233000D01*
X4897628Y10470000D02*
X3619000Y10470000D01*
X74007000Y5720000D02*
X71720000Y3433000D01*
X12900314Y2467315D02*
X12666000Y2701630D01*
X51038372Y2233000D02*
X13134629Y2233000D01*
X3619000Y10470000D02*
X2969000Y11120000D01*
X71720000Y3433000D02*
X52238372Y3433000D01*
G04 #@! TO.N,/WBO2_Ip*
X12100314Y3833000D02*
X4969000Y10964314D01*
X68120000Y3833000D02*
X52072686Y3833000D01*
X13066000Y2867315D02*
X12100314Y3833000D01*
X52072686Y3833000D02*
X50872686Y2633000D01*
X13300314Y2633000D02*
X13066000Y2867315D01*
X70007000Y5720000D02*
X68120000Y3833000D01*
X50872686Y2633000D02*
X13300314Y2633000D01*
G04 #@! TO.N,/WBO2_Vm*
X16119994Y3268844D02*
X16437158Y3243881D01*
X13708041Y4052545D02*
X14162784Y3820841D01*
X15615913Y3348686D02*
X16119994Y3268844D01*
X12594076Y4833000D02*
X12601283Y4825793D01*
X14634283Y3625538D02*
X15119667Y3467827D01*
X65120000Y4833000D02*
X66007000Y5720000D01*
X52507000Y4833000D02*
X65120000Y4833000D01*
X16437158Y3243881D02*
X16449039Y3232000D01*
X12601283Y4825793D02*
X12618099Y4825793D01*
X5969000Y11120000D02*
X5969000Y10530000D01*
X16449039Y3232000D02*
X16588111Y3232000D01*
X50906000Y3232000D02*
X52507000Y4833000D01*
X12859998Y4619191D02*
X13272899Y4319201D01*
X16588111Y3232000D02*
X16624359Y3229147D01*
X5969000Y10530000D02*
X11666000Y4833000D01*
X14162784Y3820841D02*
X14634283Y3625538D01*
X13272899Y4319201D02*
X13708041Y4052545D01*
X12618099Y4825793D02*
X12859998Y4619191D01*
X16624359Y3229147D02*
X17312063Y3223359D01*
X15119667Y3467827D02*
X15615913Y3348686D01*
X17320851Y3232000D02*
X50906000Y3232000D01*
X11666000Y4833000D02*
X12594076Y4833000D01*
X17312063Y3223359D02*
X17320851Y3232000D01*
G04 #@! TO.N,Net-(Q1-G)*
X112507000Y43833000D02*
X113507000Y42125820D01*
D66*
G04 #@! TO.N,Net-(Q2-G)*
X97280000Y29448000D02*
X98266000Y27792000D01*
G04 #@! TO.N,Net-(Q3-G)*
X108936000Y33571000D02*
X109914000Y31875000D01*
G04 #@! TO.N,Net-(Q4-G)*
X100388000Y40374360D02*
X98557000Y40633000D01*
X98557000Y40633000D02*
X95998924Y42588000D01*
G04 #@! TO.N,Net-(JP3-B)*
X139494000Y5095000D02*
X141979995Y5095000D01*
X142004994Y5070001D02*
X143793999Y5070001D01*
D67*
G04 #@! TO.N,Net-(JP2-B)*
X19731600Y39433000D02*
X14207000Y39433000D01*
X12619000Y37845000D02*
X12619000Y37711200D01*
X21530100Y41231500D02*
X19731600Y39433000D01*
X14207000Y39433000D02*
X12619000Y37845000D01*
D10*
G04 #@! TO.N,Net-(IC2-VIN)*
X33604630Y37261310D02*
X33607000Y37258940D01*
X32137540Y37261310D02*
X33604630Y37261310D01*
X33607000Y37258940D02*
X34230640Y37258940D01*
G04 #@! TO.N,Net-(IC2A1-VIN)*
X12703600Y43575920D02*
X12703600Y45374290D01*
G04 #@! TO.N,Net-(IC2A1-PEAK_DETECTOR_CAPACITOR)*
X18194090Y45382870D02*
X19206540Y46395320D01*
X17587000Y43404040D02*
X17775020Y43592060D01*
X17775020Y45382870D02*
X18194090Y45382870D01*
X17775020Y45382870D02*
X17775020Y43592060D01*
X17587000Y42833000D02*
X17587000Y43404040D01*
D67*
G04 #@! TO.N,Net-(IC2A1-RC_TIMING)*
X10134890Y50313000D02*
X10155020Y50292870D01*
D10*
X10155020Y50292870D02*
X10155020Y52619820D01*
D67*
X8807000Y50313000D02*
X10134890Y50313000D01*
D10*
G04 #@! TO.N,Net-(IC2-MODE)*
X30107000Y40333000D02*
X30638690Y39801310D01*
X32137540Y39801310D02*
X34148690Y39801310D01*
X27607000Y44543000D02*
X30107000Y42043000D01*
X30638690Y39801310D02*
X32137540Y39801310D01*
X30107000Y42043000D02*
X30107000Y40333000D01*
G04 #@! TO.N,Net-(IC2A1-MODE)*
X15258300Y42758040D02*
X15258300Y41403140D01*
X15235020Y45382870D02*
X15235020Y42781320D01*
G04 #@! TO.N,/LM1815-Crank/Signal+*
X35263340Y36415120D02*
X35261340Y36413120D01*
X35263340Y37271640D02*
X35263340Y36415120D01*
G04 #@! TO.N,/Clutch{slash}kickstandswitch*
X47241314Y61733000D02*
X49372686Y61733000D01*
X49372686Y61733000D02*
X50172686Y62533000D01*
X45707000Y67433000D02*
X45807000Y67333000D01*
X65457744Y62533000D02*
X71267000Y56723744D01*
X50172686Y62533000D02*
X65457744Y62533000D01*
X45807000Y67333000D02*
X45807000Y63167314D01*
X45807000Y63167314D02*
X47241314Y61733000D01*
X71267000Y56723744D02*
X71267000Y54973000D01*
G04 #@! TO.N,/PG_5VP*
X19107000Y25523000D02*
X19107000Y24833000D01*
G04 #@! TD*
G04 #@! TA.AperFunction,Conductor*
G04 #@! TO.N,GND*
G36*
X11618059Y50273185D02*
G01*
X11663814Y50220381D01*
X11675020Y50168870D01*
X11675020Y48842870D01*
X11687703Y48842870D01*
X11687717Y48842871D01*
X11800124Y48857671D01*
X11800128Y48857672D01*
X11939998Y48915607D01*
X11984123Y48949465D01*
X12049292Y48974659D01*
X12117737Y48960621D01*
X12135097Y48949464D01*
X12179785Y48915173D01*
X12179787Y48915172D01*
X12319784Y48857183D01*
X12426606Y48843120D01*
X12428494Y48842871D01*
X12432300Y48842370D01*
X12432307Y48842370D01*
X12957733Y48842370D01*
X12957740Y48842370D01*
X13070256Y48857183D01*
X13210253Y48915172D01*
X13254944Y48949466D01*
X13320110Y48974659D01*
X13388555Y48960622D01*
X13405915Y48949465D01*
X13450039Y48915608D01*
X13450038Y48915608D01*
X13589911Y48857672D01*
X13589915Y48857671D01*
X13702322Y48842871D01*
X13702337Y48842870D01*
X13715020Y48842870D01*
X13715020Y50168870D01*
X13734705Y50235909D01*
X13787509Y50281664D01*
X13839020Y50292870D01*
X14091020Y50292870D01*
X14158059Y50273185D01*
X14203814Y50220381D01*
X14215020Y50168870D01*
X14215020Y48842870D01*
X14227703Y48842870D01*
X14227717Y48842871D01*
X14340124Y48857671D01*
X14340128Y48857672D01*
X14479998Y48915607D01*
X14524123Y48949465D01*
X14589292Y48974659D01*
X14657737Y48960621D01*
X14675097Y48949464D01*
X14719785Y48915173D01*
X14719787Y48915172D01*
X14859784Y48857183D01*
X14966606Y48843120D01*
X14968494Y48842871D01*
X14972300Y48842370D01*
X14972307Y48842370D01*
X15497733Y48842370D01*
X15497740Y48842370D01*
X15610256Y48857183D01*
X15750253Y48915172D01*
X15794944Y48949466D01*
X15860110Y48974659D01*
X15928555Y48960622D01*
X15945915Y48949465D01*
X15990039Y48915608D01*
X15990038Y48915608D01*
X16129911Y48857672D01*
X16129915Y48857671D01*
X16242322Y48842871D01*
X16242337Y48842870D01*
X16255020Y48842870D01*
X16255020Y50168870D01*
X16274705Y50235909D01*
X16327509Y50281664D01*
X16379020Y50292870D01*
X16631020Y50292870D01*
X16698059Y50273185D01*
X16743814Y50220381D01*
X16755020Y50168870D01*
X16755020Y48842870D01*
X16767703Y48842870D01*
X16767717Y48842871D01*
X16866814Y48855918D01*
X16935849Y48845153D01*
X16988105Y48798773D01*
X17007000Y48732979D01*
X17007000Y46942762D01*
X16987315Y46875723D01*
X16934511Y46829968D01*
X16866815Y46819823D01*
X16767720Y46832869D01*
X16767703Y46832870D01*
X16755020Y46832870D01*
X16755020Y45506870D01*
X16735335Y45439831D01*
X16682531Y45394076D01*
X16631020Y45382870D01*
X16379020Y45382870D01*
X16311981Y45402555D01*
X16266226Y45455359D01*
X16255020Y45506870D01*
X16255020Y46832870D01*
X16242322Y46832870D01*
X16129915Y46818070D01*
X16129911Y46818069D01*
X15990039Y46760133D01*
X15945914Y46726275D01*
X15880744Y46701082D01*
X15812300Y46715121D01*
X15794944Y46726275D01*
X15750253Y46760568D01*
X15750249Y46760570D01*
X15686821Y46786843D01*
X15610256Y46818557D01*
X15596191Y46820409D01*
X15497747Y46833370D01*
X15497740Y46833370D01*
X14972300Y46833370D01*
X14972292Y46833370D01*
X14859784Y46818557D01*
X14859783Y46818557D01*
X14719789Y46760570D01*
X14719786Y46760568D01*
X14675096Y46726276D01*
X14609926Y46701082D01*
X14541482Y46715121D01*
X14524124Y46726276D01*
X14480000Y46760133D01*
X14480001Y46760133D01*
X14340128Y46818069D01*
X14340124Y46818070D01*
X14227717Y46832870D01*
X14215020Y46832870D01*
X14215020Y45506870D01*
X14195335Y45439831D01*
X14142531Y45394076D01*
X14091020Y45382870D01*
X13839020Y45382870D01*
X13771981Y45402555D01*
X13726226Y45455359D01*
X13715020Y45506870D01*
X13715020Y46832870D01*
X13702322Y46832870D01*
X13589915Y46818070D01*
X13589911Y46818069D01*
X13450039Y46760133D01*
X13405914Y46726275D01*
X13340744Y46701082D01*
X13272300Y46715121D01*
X13254944Y46726275D01*
X13210253Y46760568D01*
X13210249Y46760570D01*
X13146821Y46786843D01*
X13070256Y46818557D01*
X13056191Y46820409D01*
X12957747Y46833370D01*
X12957740Y46833370D01*
X12432300Y46833370D01*
X12432292Y46833370D01*
X12319784Y46818557D01*
X12319783Y46818557D01*
X12179789Y46760570D01*
X12179786Y46760568D01*
X12135096Y46726276D01*
X12069926Y46701082D01*
X12001482Y46715121D01*
X11984124Y46726276D01*
X11940000Y46760133D01*
X11940001Y46760133D01*
X11800128Y46818069D01*
X11800124Y46818070D01*
X11687717Y46832870D01*
X11675020Y46832870D01*
X11675020Y45506870D01*
X11655335Y45439831D01*
X11602531Y45394076D01*
X11551020Y45382870D01*
X11425020Y45382870D01*
X11425020Y45256870D01*
X11405335Y45189831D01*
X11352531Y45144076D01*
X11301020Y45132870D01*
X10279020Y45132870D01*
X10211981Y45152555D01*
X10166226Y45205359D01*
X10155020Y45256870D01*
X10155020Y45382870D01*
X10029020Y45382870D01*
X9961981Y45402555D01*
X9916226Y45455359D01*
X9907000Y45497769D01*
X9907000Y45632870D01*
X10405020Y45632870D01*
X11175020Y45632870D01*
X11175020Y46832870D01*
X11162322Y46832870D01*
X11049915Y46818070D01*
X11049911Y46818069D01*
X10910040Y46760134D01*
X10910038Y46760132D01*
X10865506Y46725961D01*
X10800337Y46700767D01*
X10731892Y46714806D01*
X10714534Y46725961D01*
X10670001Y46760132D01*
X10669999Y46760134D01*
X10530128Y46818069D01*
X10530124Y46818070D01*
X10417717Y46832870D01*
X10405020Y46832870D01*
X10405020Y45632870D01*
X9907000Y45632870D01*
X9907000Y48718370D01*
X9926685Y48785409D01*
X9979489Y48831164D01*
X10031000Y48842370D01*
X10417733Y48842370D01*
X10417740Y48842370D01*
X10530256Y48857183D01*
X10670253Y48915172D01*
X10714944Y48949466D01*
X10780110Y48974659D01*
X10848555Y48960622D01*
X10865915Y48949465D01*
X10910039Y48915608D01*
X10910038Y48915608D01*
X11049911Y48857672D01*
X11049915Y48857671D01*
X11162322Y48842871D01*
X11162337Y48842870D01*
X11175020Y48842870D01*
X11175020Y50168870D01*
X11194705Y50235909D01*
X11247509Y50281664D01*
X11299020Y50292870D01*
X11551020Y50292870D01*
X11618059Y50273185D01*
G37*
G04 #@! TD.AperFunction*
G04 #@! TD*
G04 #@! TA.AperFunction,Conductor*
G04 #@! TO.N,GND*
G36*
X28775014Y35362887D02*
G01*
X28823536Y35332914D01*
X28970181Y35186269D01*
X29003666Y35124946D01*
X29006500Y35098588D01*
X29006500Y34357000D01*
X28986815Y34289961D01*
X28934011Y34244206D01*
X28882500Y34233000D01*
X28789735Y34233000D01*
X28722696Y34252685D01*
X28676941Y34305489D01*
X28666796Y34373186D01*
X28672438Y34416036D01*
X28678040Y34458590D01*
X28678040Y34984030D01*
X28663227Y35096546D01*
X28621293Y35197781D01*
X28613825Y35267249D01*
X28645100Y35329729D01*
X28705189Y35365381D01*
X28775014Y35362887D01*
G37*
G04 #@! TD.AperFunction*
G04 #@! TA.AperFunction,Conductor*
G36*
X28883243Y42417076D02*
G01*
X28889721Y42411044D01*
X29470181Y41830584D01*
X29503666Y41769261D01*
X29506500Y41742903D01*
X29506500Y40419670D01*
X29506499Y40419652D01*
X29506499Y40253946D01*
X29506498Y40253946D01*
X29547423Y40101213D01*
X29566354Y40068426D01*
X29568887Y40064038D01*
X29568891Y40064032D01*
X29568892Y40064029D01*
X29626475Y39964291D01*
X29626481Y39964283D01*
X29745349Y39845415D01*
X29745355Y39845410D01*
X30153829Y39436936D01*
X30153839Y39436925D01*
X30158169Y39432595D01*
X30158170Y39432594D01*
X30269974Y39320790D01*
X30356785Y39270671D01*
X30356787Y39270669D01*
X30406903Y39241734D01*
X30406905Y39241733D01*
X30559632Y39200810D01*
X30559633Y39200810D01*
X30638703Y39200810D01*
X30705742Y39181125D01*
X30751497Y39128321D01*
X30761441Y39059163D01*
X30753264Y39029358D01*
X30702341Y38906419D01*
X30702340Y38906415D01*
X30687540Y38794008D01*
X30687540Y38781310D01*
X32013540Y38781310D01*
X32080579Y38761625D01*
X32126334Y38708821D01*
X32137540Y38657310D01*
X32137540Y38405310D01*
X32117855Y38338271D01*
X32065051Y38292516D01*
X32013540Y38281310D01*
X30687540Y38281310D01*
X30687540Y38268613D01*
X30702340Y38156206D01*
X30702341Y38156202D01*
X30760277Y38016329D01*
X30794134Y37972206D01*
X30819328Y37907036D01*
X30805289Y37838592D01*
X30794134Y37821234D01*
X30759842Y37776544D01*
X30759840Y37776541D01*
X30701853Y37636547D01*
X30701853Y37636546D01*
X30687040Y37524038D01*
X30687040Y36998583D01*
X30699300Y36905464D01*
X30701853Y36886074D01*
X30759842Y36746077D01*
X30794134Y36701387D01*
X30819328Y36636219D01*
X30805290Y36567774D01*
X30794135Y36550416D01*
X30760277Y36506291D01*
X30702341Y36366419D01*
X30702340Y36366415D01*
X30687540Y36254008D01*
X30687540Y36241310D01*
X32013540Y36241310D01*
X32080579Y36221625D01*
X32126334Y36168821D01*
X32137540Y36117310D01*
X32137540Y35991310D01*
X32263540Y35991310D01*
X32330579Y35971625D01*
X32376334Y35918821D01*
X32387540Y35867310D01*
X32387540Y34845310D01*
X32367855Y34778271D01*
X32315051Y34732516D01*
X32263540Y34721310D01*
X32137540Y34721310D01*
X32137540Y34595310D01*
X32117855Y34528271D01*
X32065051Y34482516D01*
X32013540Y34471310D01*
X30687540Y34471310D01*
X30687540Y34458613D01*
X30698788Y34373186D01*
X30688023Y34304151D01*
X30641643Y34251895D01*
X30575849Y34233000D01*
X30331500Y34233000D01*
X30264461Y34252685D01*
X30218706Y34305489D01*
X30207500Y34357000D01*
X30207500Y35309625D01*
X30207501Y35309638D01*
X30207501Y35477741D01*
X30199662Y35506997D01*
X30166577Y35630469D01*
X30109914Y35728613D01*
X30687540Y35728613D01*
X30702340Y35616206D01*
X30702341Y35616202D01*
X30760276Y35476331D01*
X30760278Y35476329D01*
X30794449Y35431796D01*
X30819643Y35366627D01*
X30805604Y35298182D01*
X30794449Y35280824D01*
X30760278Y35236292D01*
X30760276Y35236290D01*
X30702341Y35096419D01*
X30702340Y35096415D01*
X30687540Y34984008D01*
X30687540Y34971310D01*
X31887540Y34971310D01*
X31887540Y35741310D01*
X30687540Y35741310D01*
X30687540Y35728613D01*
X30109914Y35728613D01*
X30102584Y35741310D01*
X30087524Y35767395D01*
X30087518Y35767403D01*
X28714359Y37140562D01*
X28680874Y37201885D01*
X28678040Y37228243D01*
X28678040Y37524024D01*
X28678039Y37524038D01*
X28677290Y37529724D01*
X28663227Y37636546D01*
X28605238Y37776543D01*
X28605237Y37776544D01*
X28605237Y37776545D01*
X28570946Y37821233D01*
X28545751Y37886402D01*
X28559789Y37954847D01*
X28570945Y37972207D01*
X28604803Y38016332D01*
X28662738Y38156202D01*
X28662739Y38156206D01*
X28677539Y38268613D01*
X28677540Y38268627D01*
X28677540Y38281310D01*
X27351540Y38281310D01*
X27284501Y38300995D01*
X27238746Y38353799D01*
X27227540Y38405310D01*
X27227540Y38657310D01*
X27247225Y38724349D01*
X27300029Y38770104D01*
X27351540Y38781310D01*
X28677540Y38781310D01*
X28677540Y38793994D01*
X28677539Y38794008D01*
X28662739Y38906415D01*
X28662738Y38906419D01*
X28604802Y39046292D01*
X28570945Y39090415D01*
X28545751Y39155584D01*
X28559790Y39224029D01*
X28570938Y39241377D01*
X28605238Y39286077D01*
X28663227Y39426074D01*
X28678040Y39538590D01*
X28678040Y40064030D01*
X28663227Y40176546D01*
X28605238Y40316543D01*
X28605237Y40316545D01*
X28570946Y40361233D01*
X28545751Y40426402D01*
X28559789Y40494847D01*
X28570945Y40512207D01*
X28604803Y40556332D01*
X28662738Y40696202D01*
X28662739Y40696206D01*
X28677539Y40808613D01*
X28677540Y40808627D01*
X28677540Y40821310D01*
X27351540Y40821310D01*
X27284501Y40840995D01*
X27238746Y40893799D01*
X27227540Y40945310D01*
X27227540Y41197310D01*
X27247225Y41264349D01*
X27300029Y41310104D01*
X27351540Y41321310D01*
X28677540Y41321310D01*
X28677540Y41333994D01*
X28677539Y41334008D01*
X28662739Y41446415D01*
X28662738Y41446419D01*
X28604802Y41586292D01*
X28570945Y41630415D01*
X28545751Y41695584D01*
X28559790Y41764029D01*
X28570938Y41781377D01*
X28605238Y41826077D01*
X28663227Y41966074D01*
X28678040Y42078590D01*
X28678040Y42323363D01*
X28697725Y42390402D01*
X28750529Y42436157D01*
X28819687Y42446101D01*
X28883243Y42417076D01*
G37*
G04 #@! TD.AperFunction*
G04 #@! TD*
G04 #@! TA.AperFunction,Conductor*
G04 #@! TO.N,GND*
G36*
X139660668Y19382725D02*
G01*
X139700598Y19325390D01*
X139707000Y19286062D01*
X139707000Y16505534D01*
X139696931Y16460110D01*
X139697945Y16459740D01*
X139696096Y16454664D01*
X139634938Y16226414D01*
X139634936Y16226404D01*
X139614341Y15991001D01*
X139614341Y15991000D01*
X139634936Y15755597D01*
X139634938Y15755587D01*
X139696096Y15527338D01*
X139697948Y15522251D01*
X139696930Y15521881D01*
X139707000Y15476465D01*
X139707000Y14625741D01*
X139687315Y14558702D01*
X139682269Y14551433D01*
X139676203Y14543330D01*
X139676202Y14543329D01*
X139625908Y14408484D01*
X139619291Y14346936D01*
X139603562Y14308966D01*
X139617477Y14281333D01*
X139619500Y14259026D01*
X139619500Y13364971D01*
X139603242Y13309606D01*
X139617477Y13281338D01*
X139619500Y13259031D01*
X139619500Y12553130D01*
X139619501Y12553124D01*
X139625908Y12493517D01*
X139676202Y12358672D01*
X139676203Y12358670D01*
X139682267Y12350570D01*
X139706684Y12285106D01*
X139707000Y12276259D01*
X139707000Y9557000D01*
X139687315Y9489961D01*
X139634511Y9444206D01*
X139583000Y9433000D01*
X138596597Y9433000D01*
X138529558Y9452685D01*
X138508916Y9469319D01*
X138083590Y9894645D01*
X138083588Y9894648D01*
X137964717Y10013519D01*
X137964716Y10013520D01*
X137877904Y10063640D01*
X137877904Y10063641D01*
X137877900Y10063642D01*
X137827785Y10092577D01*
X137675057Y10133501D01*
X137516943Y10133501D01*
X137509347Y10133501D01*
X137509331Y10133500D01*
X115493669Y10133500D01*
X115493653Y10133501D01*
X115486057Y10133501D01*
X115327943Y10133501D01*
X115220587Y10104735D01*
X115175210Y10092576D01*
X115175209Y10092575D01*
X115125096Y10063641D01*
X115125095Y10063640D01*
X115081689Y10038580D01*
X115038285Y10013521D01*
X115038282Y10013519D01*
X114494083Y9469319D01*
X114432760Y9435834D01*
X114406402Y9433000D01*
X110631000Y9433000D01*
X110563961Y9452685D01*
X110518206Y9505489D01*
X110507000Y9557000D01*
X110507000Y16437500D01*
X110526685Y16504539D01*
X110579489Y16550294D01*
X110631000Y16561500D01*
X111456000Y16561500D01*
X111523039Y16541815D01*
X111568794Y16489011D01*
X111580000Y16437500D01*
X111580000Y10712000D01*
X138905000Y10712000D01*
X138905000Y11476390D01*
X138924685Y11543429D01*
X138956111Y11576706D01*
X139093430Y11676474D01*
X139213059Y11809335D01*
X139302450Y11964165D01*
X139357697Y12134197D01*
X139376385Y12312000D01*
X139357697Y12489803D01*
X139302450Y12659835D01*
X139250390Y12750004D01*
X139233919Y12817899D01*
X139250390Y12873996D01*
X139302450Y12964165D01*
X139357697Y13134197D01*
X139372180Y13271996D01*
X139388434Y13311502D01*
X139376523Y13330036D01*
X139372180Y13352000D01*
X139357697Y13489803D01*
X139302450Y13659835D01*
X139250390Y13750004D01*
X139233919Y13817899D01*
X139250390Y13873996D01*
X139302450Y13964165D01*
X139357697Y14134197D01*
X139372179Y14271990D01*
X139387934Y14310283D01*
X139373972Y14338178D01*
X139372684Y14347207D01*
X139357697Y14489803D01*
X139302450Y14659835D01*
X139213059Y14814665D01*
X139166203Y14866704D01*
X139093435Y14947522D01*
X139093432Y14947524D01*
X139093431Y14947525D01*
X139093430Y14947526D01*
X138956114Y15047293D01*
X138913449Y15102624D01*
X138905000Y15147611D01*
X138905000Y15756390D01*
X138924685Y15823429D01*
X138956111Y15856706D01*
X139093430Y15956474D01*
X139213059Y16089335D01*
X139302450Y16244165D01*
X139357697Y16414197D01*
X139376385Y16592000D01*
X139357697Y16769803D01*
X139302450Y16939835D01*
X139245773Y17038002D01*
X139229301Y17105900D01*
X139245773Y17161999D01*
X139302450Y17260165D01*
X139303990Y17264903D01*
X139306165Y17271601D01*
X139357697Y17430197D01*
X139376385Y17608000D01*
X139357697Y17785803D01*
X139302450Y17955835D01*
X139213059Y18110665D01*
X139166203Y18162704D01*
X139093435Y18243522D01*
X139093432Y18243524D01*
X139093431Y18243525D01*
X139093430Y18243526D01*
X138956114Y18343293D01*
X138913449Y18398624D01*
X138905000Y18443611D01*
X138905000Y18867875D01*
X138924685Y18934914D01*
X138977489Y18980669D01*
X138997689Y18987016D01*
X138997542Y18987523D01*
X139037455Y18999120D01*
X139155390Y19033382D01*
X139291420Y19113830D01*
X139403170Y19225580D01*
X139476269Y19349185D01*
X139527337Y19396866D01*
X139596078Y19409370D01*
X139660668Y19382725D01*
G37*
G04 #@! TD.AperFunction*
G04 #@! TA.AperFunction,Conductor*
G36*
X139650039Y25513315D02*
G01*
X139695794Y25460511D01*
X139707000Y25409000D01*
X139707000Y23037939D01*
X139687315Y22970900D01*
X139634511Y22925145D01*
X139565353Y22915201D01*
X139501797Y22944226D01*
X139476268Y22974818D01*
X139403172Y23098417D01*
X139403165Y23098426D01*
X139291425Y23210166D01*
X139291416Y23210173D01*
X139155390Y23290618D01*
X139155385Y23290620D01*
X138997542Y23336477D01*
X138998119Y23338465D01*
X138944280Y23365582D01*
X138908776Y23425759D01*
X138905000Y23456127D01*
X138905000Y24412000D01*
X111580000Y24437000D01*
X111580000Y23817685D01*
X111560315Y23750646D01*
X111507511Y23704891D01*
X111506438Y23704407D01*
X111502410Y23702614D01*
X111357768Y23597525D01*
X111238140Y23464664D01*
X111148750Y23309836D01*
X111148747Y23309830D01*
X111093504Y23139808D01*
X111093503Y23139806D01*
X111074815Y22962000D01*
X111093503Y22784195D01*
X111093504Y22784193D01*
X111148750Y22614164D01*
X111200806Y22524000D01*
X111217279Y22456100D01*
X111200806Y22400000D01*
X111148750Y22309837D01*
X111093504Y22139808D01*
X111093503Y22139806D01*
X111074815Y21962000D01*
X111093503Y21784195D01*
X111093504Y21784193D01*
X111148750Y21614164D01*
X111200806Y21524000D01*
X111217279Y21456100D01*
X111200806Y21400000D01*
X111148750Y21309837D01*
X111093504Y21139808D01*
X111093503Y21139806D01*
X111074815Y20962000D01*
X111093503Y20784195D01*
X111093504Y20784193D01*
X111148750Y20614164D01*
X111200806Y20524000D01*
X111217279Y20456100D01*
X111200806Y20400000D01*
X111148750Y20309837D01*
X111093504Y20139808D01*
X111093503Y20139806D01*
X111074815Y19962000D01*
X111093503Y19784195D01*
X111093504Y19784193D01*
X111148747Y19614171D01*
X111148750Y19614165D01*
X111238141Y19459335D01*
X111279812Y19413054D01*
X111357764Y19326479D01*
X111357767Y19326477D01*
X111357770Y19326474D01*
X111412352Y19286817D01*
X111455017Y19231488D01*
X111460996Y19161874D01*
X111428390Y19100079D01*
X111367551Y19065722D01*
X111339466Y19062500D01*
X110631000Y19062500D01*
X110563961Y19082185D01*
X110518206Y19134989D01*
X110507000Y19186500D01*
X110507000Y23932403D01*
X110526685Y23999442D01*
X110543319Y24020084D01*
X112019916Y25496681D01*
X112081239Y25530166D01*
X112107597Y25533000D01*
X139583000Y25533000D01*
X139650039Y25513315D01*
G37*
G04 #@! TD.AperFunction*
G04 #@! TD*
G04 #@! TA.AperFunction,Conductor*
G04 #@! TO.N,GND*
G36*
X39426334Y11357656D02*
G01*
X39482267Y11315784D01*
X39506684Y11250320D01*
X39507000Y11241474D01*
X39507000Y8657500D01*
X39487315Y8590461D01*
X39434511Y8544706D01*
X39383000Y8533500D01*
X21231500Y8533500D01*
X21164461Y8553185D01*
X21118706Y8605989D01*
X21107500Y8657500D01*
X21107500Y9479477D01*
X21127185Y9546516D01*
X21179989Y9592271D01*
X21249147Y9602215D01*
X21302623Y9581052D01*
X21386121Y9522587D01*
X21402035Y9502677D01*
X21402679Y9503320D01*
X21438998Y9467001D01*
X21440091Y9467001D01*
X21492495Y9455384D01*
X21659675Y9377426D01*
X21871028Y9320794D01*
X22053931Y9304793D01*
X22089003Y9301724D01*
X22089005Y9301724D01*
X22089007Y9301724D01*
X22117259Y9304196D01*
X22306982Y9320794D01*
X22518335Y9377426D01*
X22685514Y9455384D01*
X22737919Y9467001D01*
X36446003Y9467001D01*
X36513042Y9447316D01*
X36547578Y9414125D01*
X36627404Y9300122D01*
X36782125Y9145401D01*
X36961363Y9019897D01*
X37159672Y8927424D01*
X37371025Y8870792D01*
X37553928Y8854791D01*
X37589000Y8851722D01*
X37589002Y8851722D01*
X37589004Y8851722D01*
X37617256Y8854194D01*
X37806979Y8870792D01*
X38018332Y8927424D01*
X38216641Y9019897D01*
X38395879Y9145401D01*
X38550600Y9300122D01*
X38676104Y9479360D01*
X38768577Y9677669D01*
X38825209Y9889022D01*
X38844279Y10106999D01*
X38825209Y10324976D01*
X38768577Y10536329D01*
X38676104Y10734637D01*
X38676102Y10734640D01*
X38676101Y10734642D01*
X38587362Y10861375D01*
X38565035Y10927581D01*
X38582045Y10995348D01*
X38632993Y11043161D01*
X38688937Y11056498D01*
X38738355Y11056498D01*
X38738356Y11056499D01*
X38912328Y11091103D01*
X38994268Y11125045D01*
X39076209Y11158985D01*
X39076211Y11158987D01*
X39076214Y11158988D01*
X39164617Y11218059D01*
X39164617Y11218060D01*
X39164621Y11218062D01*
X39223698Y11257534D01*
X39295319Y11329155D01*
X39356642Y11362640D01*
X39426334Y11357656D01*
G37*
G04 #@! TD.AperFunction*
G04 #@! TA.AperFunction,Conductor*
G36*
X21358332Y22132583D02*
G01*
X21414265Y22090711D01*
X21438682Y22025247D01*
X21438998Y22016401D01*
X21438998Y19992992D01*
X21419313Y19925953D01*
X21386123Y19891418D01*
X21282128Y19818599D01*
X21127405Y19663877D01*
X21001905Y19484644D01*
X21001903Y19484640D01*
X20909431Y19286333D01*
X20909427Y19286324D01*
X20852798Y19074981D01*
X20852798Y19074977D01*
X20833728Y18857004D01*
X20833728Y18856999D01*
X20852798Y18639026D01*
X20852798Y18639022D01*
X20909427Y18427679D01*
X20909429Y18427675D01*
X20909430Y18427671D01*
X20955666Y18328517D01*
X21001902Y18229363D01*
X21001903Y18229362D01*
X21127407Y18050124D01*
X21127411Y18050120D01*
X21182849Y17994682D01*
X21216334Y17933359D01*
X21211350Y17863667D01*
X21182851Y17819321D01*
X21127405Y17763875D01*
X21001905Y17584641D01*
X21001903Y17584637D01*
X20909431Y17386330D01*
X20909427Y17386321D01*
X20852798Y17174978D01*
X20852798Y17174974D01*
X20833728Y16957001D01*
X20833728Y16956996D01*
X20852798Y16739023D01*
X20852798Y16739019D01*
X20909427Y16527676D01*
X20909429Y16527672D01*
X20909430Y16527668D01*
X20955666Y16428514D01*
X21001902Y16329360D01*
X21001903Y16329359D01*
X21127407Y16150121D01*
X21282128Y15995400D01*
X21353531Y15945403D01*
X21386121Y15922584D01*
X21429746Y15868008D01*
X21438998Y15821009D01*
X21438998Y11692992D01*
X21419313Y11625953D01*
X21386123Y11591418D01*
X21282128Y11518599D01*
X21127405Y11363877D01*
X21093731Y11315784D01*
X21019925Y11210378D01*
X20965351Y11166754D01*
X20918352Y11157502D01*
X20851944Y11157502D01*
X20699216Y11116578D01*
X20699215Y11116578D01*
X20699213Y11116577D01*
X20692999Y11112989D01*
X20625098Y11096518D01*
X20559072Y11119370D01*
X20515882Y11174292D01*
X20507000Y11220377D01*
X20507000Y21332403D01*
X20526685Y21399442D01*
X20543319Y21420084D01*
X21227317Y22104082D01*
X21288640Y22137567D01*
X21358332Y22132583D01*
G37*
G04 #@! TD.AperFunction*
G04 #@! TA.AperFunction,Conductor*
G36*
X39450039Y31013315D02*
G01*
X39495794Y30960511D01*
X39507000Y30909000D01*
X39507000Y14139199D01*
X39487315Y14072160D01*
X39470681Y14051518D01*
X38450682Y13031519D01*
X38389359Y12998034D01*
X38319667Y13003018D01*
X38263734Y13044890D01*
X38239317Y13110354D01*
X38239001Y13119200D01*
X38239001Y15771006D01*
X38258686Y15838045D01*
X38291878Y15872581D01*
X38395879Y15945403D01*
X38550600Y16100124D01*
X38676104Y16279362D01*
X38768577Y16477671D01*
X38825209Y16689024D01*
X38844279Y16907001D01*
X38825209Y17124978D01*
X38768577Y17336331D01*
X38676104Y17534639D01*
X38676102Y17534642D01*
X38676101Y17534644D01*
X38550601Y17713877D01*
X38500603Y17763875D01*
X38395879Y17868599D01*
X38395874Y17868602D01*
X38395871Y17868605D01*
X38291877Y17941424D01*
X38248252Y17996001D01*
X38239001Y18042998D01*
X38239001Y27821004D01*
X38258686Y27888043D01*
X38291878Y27922579D01*
X38395879Y27995401D01*
X38550600Y28150122D01*
X38676104Y28329360D01*
X38768577Y28527669D01*
X38825209Y28739022D01*
X38844279Y28956999D01*
X38825209Y29174976D01*
X38768577Y29386329D01*
X38676104Y29584637D01*
X38676102Y29584640D01*
X38676101Y29584642D01*
X38550601Y29763875D01*
X38550600Y29763876D01*
X38395879Y29918597D01*
X38395874Y29918600D01*
X38395871Y29918603D01*
X38291877Y29991422D01*
X38248252Y30045999D01*
X38247822Y30048180D01*
X38239001Y30057001D01*
X38216467Y30057001D01*
X38164062Y30068619D01*
X38018332Y30136574D01*
X38018328Y30136575D01*
X38018324Y30136577D01*
X37806979Y30193206D01*
X37589004Y30212276D01*
X37589000Y30212276D01*
X37443684Y30199563D01*
X37371025Y30193206D01*
X37371022Y30193206D01*
X37159679Y30136577D01*
X37159670Y30136573D01*
X37013943Y30068619D01*
X36961538Y30057001D01*
X21438998Y30057001D01*
X21438998Y27423088D01*
X21419313Y27356049D01*
X21366509Y27310294D01*
X21355953Y27306047D01*
X21289485Y27282789D01*
X21289481Y27282787D01*
X21160123Y27201505D01*
X21094151Y27182499D01*
X20631000Y27182499D01*
X20563961Y27202184D01*
X20518206Y27254988D01*
X20507000Y27306499D01*
X20507000Y30909000D01*
X20526685Y30976039D01*
X20579489Y31021794D01*
X20631000Y31033000D01*
X39383000Y31033000D01*
X39450039Y31013315D01*
G37*
G04 #@! TD.AperFunction*
G04 #@! TA.AperFunction,Conductor*
G36*
X21358332Y24748840D02*
G01*
X21414265Y24706968D01*
X21438682Y24641504D01*
X21438998Y24632658D01*
X21438998Y24292992D01*
X21419313Y24225953D01*
X21386123Y24191418D01*
X21282128Y24118599D01*
X21127405Y23963877D01*
X21001905Y23784644D01*
X21001903Y23784640D01*
X20909429Y23586331D01*
X20909428Y23586328D01*
X20880815Y23479546D01*
X20848722Y23423960D01*
X20718680Y23293917D01*
X20657359Y23260433D01*
X20587667Y23265417D01*
X20531733Y23307288D01*
X20507316Y23372752D01*
X20507000Y23381599D01*
X20507000Y23948660D01*
X20526685Y24015699D01*
X20543319Y24036341D01*
X21227317Y24720339D01*
X21288640Y24753824D01*
X21358332Y24748840D01*
G37*
G04 #@! TD.AperFunction*
G04 #@! TD*
G04 #@! TA.AperFunction,Conductor*
G04 #@! TO.N,GND*
G36*
X45812196Y29352815D02*
G01*
X45857951Y29300011D01*
X45868377Y29234617D01*
X45861435Y29173004D01*
X45861435Y29172997D01*
X45881630Y28993751D01*
X45881633Y28993738D01*
X45943510Y28816906D01*
X45941364Y28816156D01*
X45950962Y28757856D01*
X45942609Y28729410D01*
X45943510Y28729094D01*
X45881633Y28552263D01*
X45881630Y28552250D01*
X45861435Y28373004D01*
X45861435Y28372997D01*
X45881630Y28193751D01*
X45881633Y28193738D01*
X45943510Y28016906D01*
X45941364Y28016156D01*
X45950962Y27957856D01*
X45942609Y27929410D01*
X45943510Y27929094D01*
X45881633Y27752263D01*
X45881630Y27752250D01*
X45861435Y27573004D01*
X45861435Y27572997D01*
X45881630Y27393751D01*
X45881633Y27393738D01*
X45943510Y27216906D01*
X45941367Y27216157D01*
X45950962Y27157837D01*
X45942611Y27129399D01*
X45943510Y27129084D01*
X45881633Y26952253D01*
X45881630Y26952240D01*
X45861435Y26772994D01*
X45861435Y26772987D01*
X45881630Y26593741D01*
X45881631Y26593736D01*
X45941211Y26423467D01*
X46017028Y26302806D01*
X46037184Y26270728D01*
X46164738Y26143174D01*
X46317478Y26047201D01*
X46383964Y26023937D01*
X46440740Y25983215D01*
X46466488Y25918263D01*
X46467010Y25906895D01*
X46467010Y20156042D01*
X46447325Y20089003D01*
X46439957Y20078730D01*
X46437187Y20075258D01*
X46341211Y19922514D01*
X46281631Y19752245D01*
X46281630Y19752240D01*
X46261435Y19572994D01*
X46261435Y19572987D01*
X46281630Y19393741D01*
X46281631Y19393736D01*
X46341211Y19223467D01*
X46408129Y19116968D01*
X46437184Y19070728D01*
X46564738Y18943174D01*
X46717478Y18847201D01*
X46887745Y18787622D01*
X46919976Y18783991D01*
X46984388Y18756927D01*
X46993774Y18748452D01*
X47697545Y18044681D01*
X47731030Y17983358D01*
X47726046Y17913666D01*
X47684174Y17857733D01*
X47618710Y17833316D01*
X47609864Y17833000D01*
X45831500Y17833000D01*
X45764461Y17852685D01*
X45718706Y17905489D01*
X45707500Y17957000D01*
X45707500Y19843941D01*
X45707501Y19843954D01*
X45707501Y20012055D01*
X45707501Y20012057D01*
X45666577Y20164785D01*
X45632678Y20223500D01*
X45587520Y20301716D01*
X45475716Y20413520D01*
X45475715Y20413521D01*
X45471385Y20417851D01*
X45471374Y20417861D01*
X45243319Y20645916D01*
X45209834Y20707239D01*
X45207000Y20733597D01*
X45207000Y29248500D01*
X45226685Y29315539D01*
X45279489Y29361294D01*
X45331000Y29372500D01*
X45745157Y29372500D01*
X45812196Y29352815D01*
G37*
G04 #@! TD.AperFunction*
G04 #@! TA.AperFunction,Conductor*
G36*
X80472213Y29542380D02*
G01*
X80478691Y29536348D01*
X81370681Y28644358D01*
X81404166Y28583035D01*
X81407000Y28556677D01*
X81407000Y19445729D01*
X81387315Y19378690D01*
X81370681Y19358048D01*
X81316523Y19303891D01*
X81316518Y19303885D01*
X81226547Y19160698D01*
X81226544Y19160693D01*
X81170687Y19001060D01*
X81170687Y19001058D01*
X81168543Y18982034D01*
X81141473Y18917621D01*
X81133005Y18908242D01*
X80694582Y18469818D01*
X80633262Y18436334D01*
X80606903Y18433500D01*
X70438470Y18433500D01*
X70371431Y18453185D01*
X70350789Y18469819D01*
X70307089Y18513519D01*
X70307088Y18513520D01*
X70176096Y18589148D01*
X70176095Y18589149D01*
X70170162Y18592574D01*
X70170157Y18592577D01*
X70017429Y18633501D01*
X69859315Y18633501D01*
X69851719Y18633501D01*
X69851703Y18633500D01*
X69406827Y18633500D01*
X69339788Y18653185D01*
X69294033Y18705989D01*
X69284089Y18775147D01*
X69313114Y18838703D01*
X69340855Y18862494D01*
X69401032Y18900306D01*
X69469272Y18943184D01*
X69596826Y19070738D01*
X69692799Y19223478D01*
X69716057Y19289946D01*
X69756778Y19346721D01*
X69821731Y19372468D01*
X69833098Y19372990D01*
X70800922Y19372990D01*
X70867961Y19353305D01*
X70913716Y19300501D01*
X70917963Y19289945D01*
X70941220Y19223479D01*
X70941222Y19223476D01*
X70941234Y19223457D01*
X71037194Y19070738D01*
X71164748Y18943184D01*
X71220358Y18908242D01*
X71316273Y18847974D01*
X71317488Y18847211D01*
X71423377Y18810159D01*
X71487755Y18787632D01*
X71487760Y18787631D01*
X71667006Y18767435D01*
X71667010Y18767435D01*
X71667014Y18767435D01*
X71846259Y18787631D01*
X71846262Y18787632D01*
X71846265Y18787632D01*
X72016532Y18847211D01*
X72017747Y18847974D01*
X72101032Y18900306D01*
X72168269Y18919307D01*
X72232978Y18900306D01*
X72317475Y18847212D01*
X72487745Y18787632D01*
X72487750Y18787631D01*
X72666996Y18767435D01*
X72667000Y18767435D01*
X72667004Y18767435D01*
X72846249Y18787631D01*
X72846252Y18787632D01*
X72846255Y18787632D01*
X73016522Y18847211D01*
X73169262Y18943184D01*
X73296816Y19070738D01*
X73392789Y19223478D01*
X73416047Y19289946D01*
X73456768Y19346721D01*
X73521721Y19372468D01*
X73533088Y19372990D01*
X79200922Y19372990D01*
X79267961Y19353305D01*
X79313716Y19300501D01*
X79317963Y19289945D01*
X79341220Y19223479D01*
X79341222Y19223476D01*
X79341234Y19223457D01*
X79437194Y19070738D01*
X79564748Y18943184D01*
X79620358Y18908242D01*
X79716273Y18847974D01*
X79717488Y18847211D01*
X79823377Y18810159D01*
X79887755Y18787632D01*
X79887760Y18787631D01*
X80067006Y18767435D01*
X80067010Y18767435D01*
X80067014Y18767435D01*
X80246259Y18787631D01*
X80246262Y18787632D01*
X80246265Y18787632D01*
X80416532Y18847211D01*
X80569272Y18943184D01*
X80696826Y19070738D01*
X80792799Y19223478D01*
X80852378Y19393745D01*
X80872574Y19572990D01*
X80872575Y19572997D01*
X80872575Y19573004D01*
X80852379Y19752250D01*
X80852378Y19752255D01*
X80792802Y19922512D01*
X80792799Y19922522D01*
X80696826Y20075262D01*
X80569272Y20202816D01*
X80416534Y20298788D01*
X80416533Y20298789D01*
X80350054Y20322051D01*
X80293279Y20362773D01*
X80267532Y20427726D01*
X80267010Y20439092D01*
X80267010Y23406908D01*
X80286695Y23473947D01*
X80339499Y23519702D01*
X80350056Y23523950D01*
X80357823Y23526668D01*
X80416532Y23547211D01*
X80569272Y23643184D01*
X80696826Y23770738D01*
X80792799Y23923478D01*
X80852378Y24093745D01*
X80852379Y24093751D01*
X80872575Y24272997D01*
X80872575Y24273004D01*
X80852379Y24452250D01*
X80852378Y24452255D01*
X80792798Y24622524D01*
X80696825Y24775263D01*
X80586774Y24885314D01*
X80553289Y24946637D01*
X80558273Y25016329D01*
X80586774Y25060676D01*
X80617774Y25091676D01*
X80696826Y25170728D01*
X80792799Y25323468D01*
X80852378Y25493735D01*
X80872575Y25672990D01*
X80852378Y25852245D01*
X80792799Y26022512D01*
X80696826Y26175252D01*
X80569272Y26302806D01*
X80416534Y26398778D01*
X80416533Y26398779D01*
X80350054Y26422041D01*
X80293279Y26462763D01*
X80267532Y26527716D01*
X80267010Y26539082D01*
X80267010Y29448667D01*
X80286695Y29515706D01*
X80339499Y29561461D01*
X80408657Y29571405D01*
X80472213Y29542380D01*
G37*
G04 #@! TD.AperFunction*
G04 #@! TA.AperFunction,Conductor*
G36*
X68167961Y19353305D02*
G01*
X68213716Y19300501D01*
X68217963Y19289945D01*
X68241220Y19223479D01*
X68241222Y19223476D01*
X68241234Y19223457D01*
X68337194Y19070738D01*
X68464748Y18943184D01*
X68520358Y18908242D01*
X68593165Y18862494D01*
X68639456Y18810159D01*
X68650104Y18741105D01*
X68621729Y18677257D01*
X68563339Y18638885D01*
X68527193Y18633500D01*
X65684915Y18633500D01*
X65617876Y18653185D01*
X65597234Y18669819D01*
X65327964Y18939089D01*
X65294479Y19000412D01*
X65299463Y19070104D01*
X65310649Y19092738D01*
X65392799Y19223478D01*
X65416057Y19289946D01*
X65456778Y19346721D01*
X65521731Y19372468D01*
X65533098Y19372990D01*
X68100922Y19372990D01*
X68167961Y19353305D01*
G37*
G04 #@! TD.AperFunction*
G04 #@! TA.AperFunction,Conductor*
G36*
X57467961Y19353305D02*
G01*
X57513716Y19300501D01*
X57517963Y19289945D01*
X57541220Y19223479D01*
X57541223Y19223474D01*
X57541228Y19223466D01*
X57541229Y19223461D01*
X57544245Y19217198D01*
X57543147Y19216670D01*
X57560223Y19156228D01*
X57539852Y19089394D01*
X57486582Y19044183D01*
X57436230Y19033500D01*
X56697780Y19033500D01*
X56630741Y19053185D01*
X56584986Y19105989D01*
X56575042Y19175147D01*
X56590373Y19216906D01*
X56589765Y19217198D01*
X56592778Y19223457D01*
X56592782Y19223466D01*
X56592786Y19223474D01*
X56592789Y19223478D01*
X56616047Y19289946D01*
X56656768Y19346721D01*
X56721721Y19372468D01*
X56733088Y19372990D01*
X57400922Y19372990D01*
X57467961Y19353305D01*
G37*
G04 #@! TD.AperFunction*
G04 #@! TA.AperFunction,Conductor*
G36*
X45412203Y32529597D02*
G01*
X45418667Y32523578D01*
X45839645Y32102600D01*
X45842458Y32099787D01*
X45875943Y32038464D01*
X45877997Y32025993D01*
X45881632Y31993736D01*
X45941210Y31823469D01*
X46037184Y31670728D01*
X46147241Y31560671D01*
X46180726Y31499348D01*
X46175742Y31429656D01*
X46147241Y31385309D01*
X46037184Y31275253D01*
X45941211Y31122514D01*
X45881631Y30952245D01*
X45881630Y30952240D01*
X45861435Y30772994D01*
X45861435Y30772988D01*
X45868376Y30711384D01*
X45856322Y30642562D01*
X45808972Y30591182D01*
X45745156Y30573500D01*
X45331000Y30573500D01*
X45263961Y30593185D01*
X45218206Y30645989D01*
X45207000Y30697500D01*
X45207000Y32435884D01*
X45226685Y32502923D01*
X45279489Y32548678D01*
X45348647Y32558622D01*
X45412203Y32529597D01*
G37*
G04 #@! TD.AperFunction*
G04 #@! TA.AperFunction,Conductor*
G36*
X80472213Y32918106D02*
G01*
X80478691Y32912074D01*
X81370681Y32020084D01*
X81404166Y31958761D01*
X81407000Y31932403D01*
X81407000Y31171557D01*
X81387315Y31104518D01*
X81334511Y31058763D01*
X81265353Y31048819D01*
X81201797Y31077844D01*
X81195319Y31083876D01*
X80832257Y31446938D01*
X80802896Y31493666D01*
X80792799Y31522522D01*
X80792799Y31522523D01*
X80696825Y31675263D01*
X80569272Y31802816D01*
X80416534Y31898788D01*
X80416533Y31898789D01*
X80350054Y31922051D01*
X80293279Y31962773D01*
X80267532Y32027726D01*
X80267010Y32039092D01*
X80267010Y32824393D01*
X80286695Y32891432D01*
X80339499Y32937187D01*
X80408657Y32947131D01*
X80472213Y32918106D01*
G37*
G04 #@! TD.AperFunction*
G04 #@! TA.AperFunction,Conductor*
G36*
X81350039Y50802805D02*
G01*
X81395794Y50750001D01*
X81407000Y50698490D01*
X81407000Y33981597D01*
X81387315Y33914558D01*
X81334511Y33868803D01*
X81265353Y33858859D01*
X81201797Y33887884D01*
X81195319Y33893916D01*
X80954590Y34134645D01*
X80954588Y34134648D01*
X80835717Y34253519D01*
X80829265Y34258470D01*
X80830362Y34259901D01*
X80789123Y34303153D01*
X80775902Y34371761D01*
X80791150Y34416545D01*
X80789778Y34417205D01*
X80792799Y34423479D01*
X80852376Y34593738D01*
X80852379Y34593751D01*
X80872575Y34772997D01*
X80872575Y34773004D01*
X80852379Y34952250D01*
X80852378Y34952255D01*
X80792798Y35122525D01*
X80739701Y35207027D01*
X80720700Y35274264D01*
X80739701Y35338973D01*
X80792798Y35423476D01*
X80852378Y35593746D01*
X80852379Y35593751D01*
X80872575Y35772997D01*
X80872575Y35773004D01*
X80852379Y35952250D01*
X80852378Y35952255D01*
X80792798Y36122525D01*
X80739701Y36207027D01*
X80720700Y36274264D01*
X80739701Y36338973D01*
X80792798Y36423476D01*
X80792799Y36423478D01*
X80852378Y36593745D01*
X80872575Y36773000D01*
X80852378Y36952255D01*
X80792799Y37122522D01*
X80792798Y37122525D01*
X80739701Y37207027D01*
X80720700Y37274264D01*
X80739701Y37338973D01*
X80792798Y37423476D01*
X80852378Y37593746D01*
X80852379Y37593751D01*
X80872575Y37772997D01*
X80872575Y37773004D01*
X80852379Y37952250D01*
X80852378Y37952255D01*
X80792798Y38122525D01*
X80739701Y38207027D01*
X80720700Y38274264D01*
X80739701Y38338973D01*
X80792798Y38423476D01*
X80852378Y38593746D01*
X80852379Y38593751D01*
X80872575Y38772997D01*
X80872575Y38773004D01*
X80852379Y38952250D01*
X80852378Y38952255D01*
X80792798Y39122525D01*
X80739704Y39207022D01*
X80720703Y39274259D01*
X80739704Y39338968D01*
X80792798Y39423466D01*
X80792799Y39423468D01*
X80852378Y39593735D01*
X80861753Y39676941D01*
X80872575Y39772987D01*
X80872575Y39772994D01*
X80852379Y39952240D01*
X80852378Y39952245D01*
X80815211Y40058462D01*
X80792799Y40122512D01*
X80739696Y40207024D01*
X80720697Y40274259D01*
X80739697Y40338967D01*
X80748045Y40352253D01*
X80792799Y40423478D01*
X80852378Y40593745D01*
X80854902Y40616146D01*
X80872575Y40772997D01*
X80872575Y40773004D01*
X80852379Y40952250D01*
X80852378Y40952255D01*
X80845124Y40972987D01*
X80792799Y41122522D01*
X80696826Y41275262D01*
X80569272Y41402816D01*
X80416534Y41498788D01*
X80416533Y41498789D01*
X80350054Y41522051D01*
X80293279Y41562773D01*
X80267532Y41627726D01*
X80267010Y41639092D01*
X80267010Y50606898D01*
X80286695Y50673937D01*
X80339499Y50719692D01*
X80350049Y50723938D01*
X80416532Y50747201D01*
X80506106Y50803485D01*
X80572078Y50822490D01*
X81283000Y50822490D01*
X81350039Y50802805D01*
G37*
G04 #@! TD.AperFunction*
G04 #@! TA.AperFunction,Conductor*
G36*
X46227913Y47803485D02*
G01*
X46317488Y47747201D01*
X46383965Y47723940D01*
X46440741Y47683218D01*
X46466488Y47618265D01*
X46467010Y47606898D01*
X46467010Y45039086D01*
X46447325Y44972047D01*
X46394521Y44926292D01*
X46383966Y44922045D01*
X46317476Y44898779D01*
X46317475Y44898778D01*
X46164737Y44802806D01*
X46037184Y44675253D01*
X45941211Y44522514D01*
X45881631Y44352245D01*
X45881630Y44352240D01*
X45861435Y44172994D01*
X45861435Y44172987D01*
X45881630Y43993741D01*
X45881633Y43993728D01*
X45943510Y43816896D01*
X45941365Y43816146D01*
X45950956Y43757831D01*
X45942610Y43729409D01*
X45943510Y43729094D01*
X45881633Y43552263D01*
X45881630Y43552250D01*
X45861435Y43373004D01*
X45861435Y43372997D01*
X45881630Y43193751D01*
X45881633Y43193738D01*
X45943510Y43016906D01*
X45941367Y43016157D01*
X45950962Y42957837D01*
X45942611Y42929399D01*
X45943510Y42929084D01*
X45881633Y42752253D01*
X45881630Y42752240D01*
X45861435Y42572994D01*
X45861435Y42572987D01*
X45881630Y42393741D01*
X45881633Y42393728D01*
X45943510Y42216896D01*
X45941364Y42216146D01*
X45950962Y42157846D01*
X45942609Y42129400D01*
X45943510Y42129084D01*
X45881633Y41952253D01*
X45881630Y41952240D01*
X45861435Y41772994D01*
X45861435Y41772987D01*
X45881630Y41593741D01*
X45881633Y41593728D01*
X45943510Y41416896D01*
X45941364Y41416146D01*
X45950962Y41357846D01*
X45942609Y41329400D01*
X45943510Y41329084D01*
X45881633Y41152253D01*
X45881630Y41152240D01*
X45861435Y40972994D01*
X45861435Y40972987D01*
X45881630Y40793741D01*
X45881633Y40793728D01*
X45943510Y40616896D01*
X45941364Y40616146D01*
X45950962Y40557846D01*
X45942609Y40529400D01*
X45943510Y40529084D01*
X45881633Y40352253D01*
X45881630Y40352240D01*
X45861435Y40172994D01*
X45861435Y40172987D01*
X45881630Y39993741D01*
X45881633Y39993728D01*
X45943510Y39816896D01*
X45941364Y39816146D01*
X45950962Y39757846D01*
X45942609Y39729400D01*
X45943510Y39729084D01*
X45881633Y39552253D01*
X45881630Y39552240D01*
X45861435Y39372994D01*
X45861435Y39372987D01*
X45868672Y39308754D01*
X45856617Y39239932D01*
X45809268Y39188553D01*
X45741658Y39170929D01*
X45675252Y39192656D01*
X45657771Y39207190D01*
X45243819Y39621142D01*
X45210334Y39682465D01*
X45207500Y39708823D01*
X45207500Y46720771D01*
X45227185Y46787810D01*
X45243819Y46808452D01*
X45297477Y46862110D01*
X45387452Y47005303D01*
X45387454Y47005306D01*
X45387454Y47005308D01*
X45387456Y47005310D01*
X45443313Y47164941D01*
X45443313Y47164942D01*
X45443314Y47164944D01*
X45462249Y47332998D01*
X45462249Y47333003D01*
X45443313Y47501058D01*
X45388560Y47657536D01*
X45384999Y47727314D01*
X45419728Y47787942D01*
X45481721Y47820169D01*
X45505602Y47822490D01*
X46161942Y47822490D01*
X46227913Y47803485D01*
G37*
G04 #@! TD.AperFunction*
G04 #@! TA.AperFunction,Conductor*
G36*
X46073442Y56613315D02*
G01*
X46094084Y56596681D01*
X46122139Y56568626D01*
X46122149Y56568615D01*
X46126479Y56564285D01*
X46126480Y56564284D01*
X46238284Y56452480D01*
X46317230Y56406901D01*
X46317231Y56406900D01*
X46375209Y56373426D01*
X46375210Y56373426D01*
X46375215Y56373423D01*
X46527942Y56332500D01*
X46527943Y56332500D01*
X51406913Y56332500D01*
X51473952Y56312815D01*
X51494594Y56296181D01*
X52406104Y55384671D01*
X52439589Y55323348D01*
X52434605Y55253656D01*
X52392733Y55197723D01*
X52327269Y55173306D01*
X52318423Y55172990D01*
X46467010Y55172990D01*
X46467010Y49339082D01*
X46447325Y49272043D01*
X46394521Y49226288D01*
X46383966Y49222041D01*
X46317486Y49198779D01*
X46317485Y49198778D01*
X46227914Y49142496D01*
X46161942Y49123490D01*
X45331000Y49123490D01*
X45263961Y49143175D01*
X45218206Y49195979D01*
X45207000Y49247490D01*
X45207000Y56509000D01*
X45226685Y56576039D01*
X45279489Y56621794D01*
X45331000Y56633000D01*
X46006403Y56633000D01*
X46073442Y56613315D01*
G37*
G04 #@! TD.AperFunction*
G04 #@! TA.AperFunction,Conductor*
G36*
X81299539Y56613315D02*
G01*
X81345294Y56560511D01*
X81356500Y56509000D01*
X81356500Y52253808D01*
X81336815Y52186769D01*
X81320181Y52166127D01*
X81313863Y52159809D01*
X81252540Y52126324D01*
X81226182Y52123490D01*
X80967569Y52123490D01*
X80900530Y52143175D01*
X80854775Y52195979D01*
X80844831Y52265137D01*
X80850527Y52288444D01*
X80852377Y52293733D01*
X80852378Y52293735D01*
X80872575Y52472990D01*
X80852378Y52652245D01*
X80792799Y52822512D01*
X80696826Y52975252D01*
X80569272Y53102806D01*
X80416534Y53198778D01*
X80416533Y53198779D01*
X80350054Y53222041D01*
X80293279Y53262763D01*
X80267532Y53327716D01*
X80267010Y53339082D01*
X80267010Y54389961D01*
X80286695Y54457000D01*
X80294065Y54467276D01*
X80296820Y54470733D01*
X80296826Y54470738D01*
X80392799Y54623478D01*
X80452378Y54793745D01*
X80472575Y54973000D01*
X80452378Y55152255D01*
X80392799Y55322522D01*
X80296826Y55475262D01*
X80169272Y55602816D01*
X80126509Y55629686D01*
X80016533Y55698789D01*
X79846264Y55758369D01*
X79846259Y55758370D01*
X79667014Y55778565D01*
X79667006Y55778565D01*
X79487760Y55758370D01*
X79487755Y55758369D01*
X79317486Y55698789D01*
X79164747Y55602816D01*
X79037194Y55475263D01*
X78941222Y55322525D01*
X78941220Y55322522D01*
X78917956Y55256035D01*
X78877235Y55199259D01*
X78812282Y55173512D01*
X78800915Y55172990D01*
X78133105Y55172990D01*
X78066066Y55192675D01*
X78020311Y55245479D01*
X78016064Y55256035D01*
X77992799Y55322522D01*
X77992797Y55322525D01*
X77896823Y55475266D01*
X77894560Y55478104D01*
X77893669Y55480285D01*
X77893121Y55481158D01*
X77893274Y55481255D01*
X77868154Y55542791D01*
X77867510Y55555413D01*
X77867510Y56509000D01*
X77887195Y56576039D01*
X77939999Y56621794D01*
X77991510Y56633000D01*
X81232500Y56633000D01*
X81299539Y56613315D01*
G37*
G04 #@! TD.AperFunction*
G04 #@! TD*
G04 #@! TA.AperFunction,Conductor*
G04 #@! TO.N,GND*
G36*
X3057179Y38913315D02*
G01*
X3102934Y38860511D01*
X3112878Y38791353D01*
X3083853Y38727797D01*
X3025075Y38690023D01*
X3024735Y38689924D01*
X2968614Y38673620D01*
X2968609Y38673618D01*
X2832583Y38593173D01*
X2832574Y38593166D01*
X2720834Y38481426D01*
X2720827Y38481417D01*
X2640382Y38345391D01*
X2640380Y38345386D01*
X2594523Y38187542D01*
X2592528Y38188122D01*
X2565446Y38134308D01*
X2505280Y38098786D01*
X2474874Y38095000D01*
X1519000Y38095000D01*
X1494000Y10770000D01*
X2117409Y10770000D01*
X2184448Y10750315D01*
X2224795Y10708002D01*
X2251504Y10661740D01*
X2277141Y10617335D01*
X2396764Y10484479D01*
X2396767Y10484477D01*
X2396770Y10484474D01*
X2541407Y10379388D01*
X2704733Y10306671D01*
X2879609Y10269500D01*
X2918903Y10269500D01*
X2985942Y10249815D01*
X3006584Y10233181D01*
X3134139Y10105626D01*
X3134149Y10105615D01*
X3138479Y10101285D01*
X3138480Y10101284D01*
X3250284Y9989480D01*
X3337095Y9939361D01*
X3337097Y9939359D01*
X3375151Y9917389D01*
X3387215Y9910423D01*
X3539943Y9869499D01*
X3539946Y9869499D01*
X3705653Y9869499D01*
X3705669Y9869500D01*
X4597531Y9869500D01*
X4664570Y9849815D01*
X4685212Y9833181D01*
X4773712Y9744681D01*
X4807197Y9683358D01*
X4802213Y9613666D01*
X4760341Y9557733D01*
X4694877Y9533316D01*
X4686031Y9533000D01*
X431000Y9533000D01*
X363961Y9552685D01*
X318206Y9605489D01*
X307000Y9657000D01*
X307000Y38809000D01*
X326685Y38876039D01*
X379489Y38921794D01*
X431000Y38933000D01*
X2990140Y38933000D01*
X3057179Y38913315D01*
G37*
G04 #@! TD.AperFunction*
G04 #@! TA.AperFunction,Conductor*
G36*
X16350039Y38762815D02*
G01*
X16395794Y38710011D01*
X16407000Y38658500D01*
X16407000Y9657000D01*
X16387315Y9589961D01*
X16334511Y9544206D01*
X16283000Y9533000D01*
X11198836Y9533000D01*
X11131797Y9552685D01*
X11111155Y9569319D01*
X10122155Y10558319D01*
X10088670Y10619642D01*
X10093654Y10689334D01*
X10135526Y10745267D01*
X10200990Y10769684D01*
X10209836Y10770000D01*
X15219000Y10770000D01*
X15219000Y38095000D01*
X14451077Y38095000D01*
X14384038Y38114685D01*
X14343690Y38157000D01*
X14337634Y38167489D01*
X14310859Y38213865D01*
X14219350Y38315496D01*
X14198633Y38338505D01*
X14168403Y38401497D01*
X14177028Y38470832D01*
X14203102Y38509158D01*
X14440126Y38746181D01*
X14501449Y38779666D01*
X14527807Y38782500D01*
X16283000Y38782500D01*
X16350039Y38762815D01*
G37*
G04 #@! TD.AperFunction*
G04 #@! TA.AperFunction,Conductor*
G36*
X8649539Y38913315D02*
G01*
X8695294Y38860511D01*
X8706500Y38809000D01*
X8706500Y38652313D01*
X8686815Y38585274D01*
X8634011Y38539519D01*
X8564853Y38529575D01*
X8556720Y38531023D01*
X8412392Y38561700D01*
X8412391Y38561700D01*
X8233609Y38561700D01*
X8202954Y38555185D01*
X8058733Y38524530D01*
X8058728Y38524528D01*
X7895408Y38451813D01*
X7750768Y38346725D01*
X7631140Y38213864D01*
X7598310Y38157000D01*
X7547744Y38108785D01*
X7490923Y38095000D01*
X7063126Y38095000D01*
X6996087Y38114685D01*
X6950332Y38167489D01*
X6943982Y38187689D01*
X6943477Y38187542D01*
X6897619Y38345386D01*
X6897618Y38345390D01*
X6836603Y38448560D01*
X6817172Y38481417D01*
X6817165Y38481426D01*
X6705425Y38593166D01*
X6705416Y38593173D01*
X6569390Y38673618D01*
X6569385Y38673620D01*
X6513265Y38689924D01*
X6454380Y38727530D01*
X6425173Y38791002D01*
X6434919Y38860189D01*
X6480523Y38913123D01*
X6547506Y38932999D01*
X6547860Y38933000D01*
X8582500Y38933000D01*
X8649539Y38913315D01*
G37*
G04 #@! TD.AperFunction*
G04 #@! TA.AperFunction,Conductor*
G36*
X12554731Y38913315D02*
G01*
X12600486Y38860511D01*
X12610430Y38791353D01*
X12581405Y38727797D01*
X12575384Y38721331D01*
X12447227Y38593173D01*
X12410993Y38556939D01*
X12360066Y38529132D01*
X12360910Y38526536D01*
X12354728Y38524528D01*
X12191408Y38451812D01*
X12185775Y38448560D01*
X12185097Y38449735D01*
X12126064Y38428679D01*
X12058012Y38444513D01*
X12047207Y38451458D01*
X12046597Y38451810D01*
X12046593Y38451812D01*
X11883267Y38524529D01*
X11883265Y38524530D01*
X11755594Y38551667D01*
X11708391Y38561700D01*
X11529609Y38561700D01*
X11498954Y38555185D01*
X11354733Y38524530D01*
X11354728Y38524528D01*
X11191408Y38451813D01*
X11046768Y38346725D01*
X10927140Y38213864D01*
X10894310Y38157000D01*
X10843744Y38108785D01*
X10786923Y38095000D01*
X10171077Y38095000D01*
X10104038Y38114685D01*
X10063690Y38157000D01*
X10057634Y38167489D01*
X10030859Y38213865D01*
X9939350Y38315496D01*
X9909120Y38378487D01*
X9907500Y38398468D01*
X9907500Y38809000D01*
X9927185Y38876039D01*
X9979989Y38921794D01*
X10031500Y38933000D01*
X12487692Y38933000D01*
X12554731Y38913315D01*
G37*
G04 #@! TD.AperFunction*
G04 #@! TD*
M02*
