M48
; DRILL file {KiCad 8.0.8-8.0.8-0~ubuntu24.04.1} date 2025-02-06T23:23:35+0000
; FORMAT={2:4/ absolute / inch / suppress leading zeros}
; #@! TF.CreationDate,2025-02-06T23:23:35+00:00
; #@! TF.GenerationSoftware,Kicad,Pcbnew,8.0.8-8.0.8-0~ubuntu24.04.1
; #@! TF.FileFunction,MixedPlating,1,4
FMAT,2
INCH,TZ
; #@! TA.AperFunction,Plated,PTH,ViaDrill
T1C0.0079
; #@! TA.AperFunction,Plated,PTH,ComponentDrill
T2C0.0118
; #@! TA.AperFunction,Plated,PTH,ComponentDrill
T3C0.0276
; #@! TA.AperFunction,Plated,PTH,ComponentDrill
T4C0.0320
; #@! TA.AperFunction,Plated,PTH,ComponentDrill
T5C0.0394
; #@! TA.AperFunction,Plated,PTH,ComponentDrill
T6C0.0433
; #@! TA.AperFunction,Plated,PTH,ComponentDrill
T7C0.0689
; #@! TA.AperFunction,Plated,PTH,ComponentDrill
T8C0.1260
; #@! TA.AperFunction,NonPlated,NPTH,ComponentDrill
T9C0.1122
%
G90
G05
T1
X711Y3950
X2877Y15210
X3625Y16312
X3664Y15643
X4019Y18793
X4215Y15210
X4998Y20407
X5001Y17156
X6263Y9619
X6302Y18793
X7522Y9777
X7759Y20840
X8192Y5407
X10003Y18320
X11341Y13123
X11459Y16470
X11459Y3438
X11774Y12100
X12129Y21115
X13231Y14669
X13507Y13320
X13782Y16352
X13882Y14336
X14696Y21824
X14727Y22651
X14885Y14383
X14924Y20249
X15318Y9029
X15357Y5682
X15790Y643
X16184Y20249
X16341Y18596
X17050Y2296
X17207Y26785
X17389Y11895
X17404Y18674
X17444Y8163
X17444Y5092
X17995Y26548
X17995Y18202
X17995Y12375
X17995Y8989
X18152Y22769
X18152Y21903
X19176Y5485
X19767Y28281
X20003Y24304
X20219Y5466
X20278Y7296
X21046Y4600
X21302Y5446
X21932Y3163
X21932Y2375
X22444Y7415
X24412Y4422
X24412Y2178
X24412Y800
X24688Y5722
X25396Y7139
X26302Y7375
X27680Y7415
X29097Y4462
X30081Y7375
X30908Y22178
X31026Y3163
X31893Y18163
X31893Y12533
X31932Y11037
X32168Y24068
X32188Y23537
X32188Y23025
X32247Y7415
X32601Y9186
X32995Y9777
X33320Y12365
X33507Y8202
X33520Y7379
X33546Y9344
X33868Y11924
X34235Y7474
X34488Y11446
X34806Y9580
X36054Y21286
X36305Y15948
X36345Y20661
X36678Y21577
X36679Y15370
X36883Y16322
X36969Y20953
X37257Y15744
X38820Y17046
X38822Y12257
X39530Y16942
X39727Y16601
X39871Y17139
X40035Y11839
X40068Y16798
X40232Y11498
X40376Y12036
X40573Y11695
X40926Y17575
X41319Y17009
X41420Y9698
X41492Y17968
X41816Y21255
X41885Y17402
X42241Y21798
X42247Y26115
X42359Y20831
X42783Y21374
X43467Y13753
X43625Y5643
X44620Y13415
X44817Y13074
X44961Y13612
X44963Y25446
X45158Y13271
X45711Y16391
X45776Y28434
X46040Y17430
X46237Y17089
X46381Y17626
X46381Y14147
X46383Y14857
X46578Y17285
X47168Y18478
X47680Y15761
X47916Y14934
X48034Y15761
X48576Y19715
X48625Y27139
X49137Y14186
X49237Y21706
X49333Y9856
X49491Y14186
X49806Y21863
X49982Y18950
X50160Y21863
X50711Y19186
X50790Y22021
X50908Y26430
X51499Y11824
X51735Y27926
X53782Y15840
X53782Y15485
X53861Y20604
X54058Y26863
X54215Y20604
X54530Y16745
X55357Y13478
X55908Y958
X56193Y7856
X57050Y19816
X57089Y15761
X57247Y19107
X57404Y19816
X57444Y15761
X58192Y22218
X58782Y12651
X58940Y20793
X59137Y12651
X60554Y22493
X60987Y12257
T2
X1169Y4378
X1563Y4378
X1956Y4378
X2350Y4378
X3277Y14847
X3677Y14847
X4574Y14847
X4968Y14847
X5362Y14847
X8519Y10456
X8519Y10062
X18373Y17391
X18373Y17076
X18373Y16761
X18373Y16446
X18373Y16131
X18373Y15816
X18373Y15501
X18373Y15186
X18373Y14871
X18373Y14556
X18373Y14241
X18373Y13926
X18373Y13611
X18373Y13296
X18373Y12667
X18373Y12115
X18373Y11800
X18373Y11485
X18373Y11170
X18373Y10856
X18373Y10541
X18373Y19084
X18373Y12981
X18530Y7706
X18845Y7706
X19160Y7706
X19475Y7706
X19790Y7706
X20105Y7706
X20420Y7706
X20735Y7706
X20971Y21643
X21050Y7706
X21365Y7706
X21444Y21643
X21680Y7706
X21916Y21643
X21995Y7706
X22389Y21643
X22861Y21643
X22940Y7706
X23255Y7706
X23333Y21643
X23570Y7706
X23806Y21643
X23885Y7706
X24200Y7706
X24278Y21643
X24515Y7706
X24751Y21643
X24830Y7706
X25144Y7706
X25223Y21643
X25459Y7706
X25696Y21643
X26168Y21643
X26641Y21643
X27113Y21643
X27152Y7706
X27585Y21643
X28058Y21643
X28215Y7706
X28530Y21643
X28609Y7706
X29003Y21643
X29475Y21643
X29948Y21643
X30420Y21643
X31365Y21643
X31522Y20659
X31522Y20265
X31522Y16052
X31522Y15659
X31522Y15265
X31522Y14871
X31522Y14478
X31522Y14084
X31522Y13690
X31522Y13296
X31522Y12273
X31522Y11958
X31522Y10107
X31522Y9556
X31522Y7706
X44067Y9040
X44067Y8646
X44067Y8253
X44067Y7859
X54536Y6932
X54536Y6532
X54536Y5635
X54536Y5241
X54536Y4847
T3
X46753Y2215
X47068Y2904
X47383Y2215
X47698Y2904
X48013Y2215
T4
X10046Y22277
X10127Y20692
X11410Y20913
X11492Y19328
T5
X8476Y17233
X8476Y16233
X8696Y11578
X8696Y9117
X8696Y7424
X8696Y6676
X8696Y4156
X14799Y11400
X14799Y6656
X14799Y4707
X14799Y3979
X54919Y3006
X54919Y2006
X55500Y6296
X55500Y5296
T6
X3317Y25307
X3317Y23693
X5561Y25307
X5561Y23693
X7805Y25307
X7805Y23693
X10049Y25307
X10049Y23693
X12293Y25307
X12293Y23693
X14537Y25307
X14537Y23693
X16781Y25307
X16781Y23693
X19026Y25307
X19026Y23693
X21270Y25307
X21270Y23693
X23514Y25307
X23514Y23693
X25758Y25307
X25758Y23693
X37175Y25288
X37175Y23674
X39419Y25288
X39419Y23674
X41663Y25288
X41663Y23674
X43907Y25288
X43907Y23674
X46152Y25288
X46152Y23674
X48396Y25288
X48396Y23674
X50640Y25288
X50640Y23674
X52884Y25288
X52884Y23674
X55128Y25288
X55128Y23674
X57372Y25288
X57372Y23674
X59616Y25288
X59616Y23674
T7
X25987Y5402
X25987Y2252
X26774Y3827
X27562Y5402
X27562Y2252
X28349Y3827
X29137Y5402
X29137Y2252
X29924Y3827
X30711Y5402
X30711Y2252
X31499Y3827
X32286Y5402
X32286Y2252
X33074Y3827
X33861Y5402
X33861Y2252
X34648Y3827
X35436Y5402
X35436Y2252
X36223Y3827
X37011Y5402
X37011Y2252
T8
X1742Y20741
X1969Y1969
X52346Y1831
X61372Y19267
T9
X23428Y3630
X39570Y3630
T3
X45946Y2816G85X45946Y2304
G05
X48820Y2816G85X48820Y2304
G05
M30
