M48
; DRILL file {KiCad 8.0.9-8.0.9-0~ubuntu24.04.1} date 2025-02-24T07:40:21+0000
; FORMAT={2:4/ absolute / inch / suppress leading zeros}
; #@! TF.CreationDate,2025-02-24T07:40:21+00:00
; #@! TF.GenerationSoftware,Kicad,Pcbnew,8.0.9-8.0.9-0~ubuntu24.04.1
; #@! TF.FileFunction,MixedPlating,1,4
FMAT,2
INCH,TZ
; #@! TA.AperFunction,Plated,PTH,ViaDrill
T1C0.0079
; #@! TA.AperFunction,Plated,PTH,ComponentDrill
T2C0.0118
; #@! TA.AperFunction,Plated,PTH,ComponentDrill
T3C0.0276
; #@! TA.AperFunction,Plated,PTH,ComponentDrill
T4C0.0320
; #@! TA.AperFunction,Plated,PTH,ComponentDrill
T5C0.0394
; #@! TA.AperFunction,Plated,PTH,ComponentDrill
T6C0.0433
; #@! TA.AperFunction,Plated,PTH,ComponentDrill
T7C0.0689
; #@! TA.AperFunction,Plated,PTH,ComponentDrill
T8C0.1260
; #@! TA.AperFunction,NonPlated,NPTH,ComponentDrill
T9C0.1122
%
G90
G05
T1
X313Y14718
X313Y13537
X313Y12355
X313Y11174
X313Y9993
X313Y8812
X313Y7631
X313Y6450
X313Y5269
X313Y4088
X453Y28425
X453Y27425
X453Y26425
X453Y25425
X453Y24425
X453Y23425
X453Y22425
X453Y19425
X453Y18425
X453Y17425
X453Y16425
X453Y3425
X453Y2425
X453Y1425
X453Y425
X1453Y28425
X1453Y27425
X1453Y22425
X1453Y18425
X1453Y17425
X1453Y16425
X1453Y425
X2453Y28425
X2453Y27425
X2453Y26425
X2453Y23425
X2453Y17425
X2453Y16425
X2453Y425
X2877Y15210
X3157Y19059
X3453Y28425
X3453Y27425
X3453Y26425
X3453Y1425
X3453Y425
X3664Y15643
X3991Y18474
X4215Y15210
X4453Y28425
X4453Y27425
X4453Y26425
X4453Y425
X4509Y18469
X4538Y19140
X4767Y3911
X4998Y20407
X5001Y17156
X5453Y28425
X5453Y27425
X5453Y26425
X5453Y22425
X5453Y425
X5493Y18469
X5522Y19140
X5605Y3062
X6263Y14580
X6263Y13399
X6263Y12218
X6263Y11037
X6263Y9856
X6263Y8674
X6263Y7493
X6263Y6312
X6263Y5131
X6263Y3950
X6453Y28425
X6453Y27425
X6453Y22425
X6453Y425
X6478Y18469
X6506Y19140
X6519Y2336
X7453Y28425
X7453Y27425
X7453Y24425
X7453Y22425
X7453Y21425
X7453Y17425
X7453Y425
X7522Y9777
X7769Y20830
X8192Y9462
X8192Y8281
X8192Y5919
X8192Y4737
X8453Y28425
X8453Y15425
X8453Y14425
X8453Y13425
X8453Y12425
X8453Y425
X9176Y3517
X9215Y27178
X9373Y2296
X9453Y18425
X9453Y12425
X9453Y425
X9845Y27887
X10026Y14170
X10081Y12021
X10357Y3517
X10453Y425
X10554Y2296
X10751Y28005
X10751Y27139
X11263Y12021
X11376Y16172
X11376Y15187
X11453Y25425
X11453Y23425
X11453Y425
X11538Y3517
X11735Y2296
X11751Y28005
X11751Y27139
X12040Y13676
X12047Y16143
X12047Y15159
X12047Y14174
X12444Y12021
X12453Y24425
X12453Y425
X12700Y17896
X12719Y3517
X12751Y28005
X12751Y27139
X12916Y2296
X13231Y14669
X13453Y425
X13507Y13320
X13625Y12021
X13759Y28005
X13759Y27139
X13781Y21835
X13882Y14336
X13900Y3517
X13979Y27572
X14068Y16689
X14097Y2296
X14453Y24425
X14453Y21425
X14453Y12425
X14453Y425
X14727Y22651
X14759Y28005
X14759Y27139
X14885Y14764
X14924Y20249
X15278Y2296
X15318Y10800
X15318Y9619
X15318Y8438
X15318Y7257
X15318Y6076
X15436Y13793
X15453Y14425
X15453Y425
X16184Y20249
X16453Y425
X16459Y2296
X16656Y18674
X17207Y26785
X17326Y26037
X17389Y11895
X17404Y18674
X17444Y8163
X17444Y5092
X17453Y425
X17641Y2296
X17995Y26548
X17995Y20761
X17995Y19580
X17995Y18202
X17995Y12375
X18034Y10210
X18034Y9029
X18034Y7848
X18041Y22794
X18453Y5425
X18453Y425
X18575Y22159
X18625Y27021
X18664Y26667
X18959Y2277
X19176Y21942
X19176Y5485
X19215Y4856
X19453Y425
X19806Y28399
X19978Y24308
X20003Y23596
X20003Y4856
X20219Y5466
X20278Y7296
X20357Y21942
X20453Y425
X20633Y1037
X21046Y4600
X21302Y5446
X21453Y425
X21774Y27021
X21932Y3163
X21932Y2375
X22444Y7415
X22453Y425
X22491Y27021
X22522Y3163
X22562Y2375
X23453Y425
X23491Y27021
X24412Y4422
X24412Y2178
X24453Y25425
X24453Y425
X24491Y27021
X24688Y5722
X24767Y919
X24963Y4422
X25396Y7139
X25453Y3425
X25453Y425
X25499Y27021
X26302Y7375
X26453Y425
X26499Y27021
X27011Y25131
X27453Y425
X27680Y7415
X27916Y27218
X28453Y23425
X28453Y425
X29097Y4462
X29453Y23425
X29453Y425
X29885Y27454
X30081Y7375
X30453Y25425
X30453Y425
X30885Y27454
X30908Y22178
X31026Y3163
X31453Y25425
X31453Y425
X31656Y23517
X31814Y19462
X31814Y18281
X31814Y17100
X31853Y21233
X31885Y27454
X31893Y12533
X31932Y11391
X31932Y10210
X31932Y9029
X31932Y7848
X32168Y24068
X32188Y23537
X32188Y23025
X32198Y15367
X32247Y7415
X32453Y25425
X32453Y425
X32581Y24442
X32601Y9186
X32885Y27454
X32995Y9895
X33320Y12365
X33428Y9541
X33453Y24425
X33453Y425
X33507Y8202
X33520Y7379
X33868Y11924
X34235Y7474
X34255Y26037
X34452Y16548
X34453Y27425
X34453Y14425
X34453Y425
X34488Y11446
X34806Y9580
X34806Y8832
X35013Y26689
X35453Y15425
X35453Y14425
X35453Y13425
X35453Y11425
X35453Y425
X35475Y24777
X35475Y23596
X35475Y22415
X35475Y21233
X35475Y20052
X35873Y27212
X36054Y21286
X36305Y15948
X36345Y20661
X36453Y27425
X36453Y13425
X36453Y11425
X36453Y10425
X36453Y425
X36678Y21577
X36679Y15370
X36819Y22897
X36883Y16322
X36969Y20953
X37257Y15744
X37286Y27375
X37404Y16273
X37453Y21425
X37453Y11425
X37453Y10425
X37453Y425
X37490Y21925
X38144Y4926
X38159Y20953
X38286Y27375
X38389Y17021
X38453Y24425
X38453Y425
X38503Y23126
X38817Y17743
X38822Y12257
X38830Y19981
X38979Y5761
X39151Y17163
X39173Y22154
X39176Y26942
X39326Y12583
X39453Y24425
X39453Y15425
X39453Y425
X39501Y19009
X39532Y18157
X39661Y12003
X39758Y4768
X39814Y6596
X39844Y21182
X39868Y17577
X40042Y12997
X40171Y18037
X40378Y12417
X40453Y26425
X40453Y25425
X40453Y24425
X40453Y21425
X40453Y16425
X40453Y15425
X40453Y3425
X40453Y425
X40515Y20210
X40593Y5604
X40651Y7428
X40842Y17065
X40926Y17575
X41185Y19238
X41319Y17009
X41420Y9698
X41428Y6439
X41453Y24425
X41453Y20425
X41453Y13425
X41453Y12425
X41453Y425
X41492Y17968
X41617Y7533
X41816Y21255
X41856Y18265
X41885Y17402
X42241Y21798
X42247Y26115
X42359Y20831
X42453Y27425
X42453Y24425
X42453Y23425
X42453Y18425
X42453Y12425
X42453Y2425
X42453Y425
X42783Y21374
X43453Y27425
X43453Y26425
X43453Y17425
X43453Y3425
X43453Y425
X43467Y13753
X43625Y5643
X43914Y14200
X44097Y9895
X44249Y13620
X44453Y27425
X44453Y15425
X44453Y425
X44630Y14614
X44924Y26037
X44966Y14034
X45278Y9895
X45316Y18233
X45453Y20425
X45453Y425
X45651Y17653
X45711Y16391
X46032Y18647
X46368Y18067
X46381Y14147
X46383Y14857
X46453Y425
X46459Y9895
X47168Y18636
X47453Y21425
X47453Y11425
X47453Y425
X47641Y9895
X47680Y15761
X47877Y19029
X48034Y15761
X48453Y24425
X48453Y14425
X48453Y12425
X48453Y425
X48576Y19715
X48625Y27139
X48822Y9895
X49137Y14186
X49453Y25425
X49453Y17425
X49453Y16425
X49453Y425
X49491Y14186
X49806Y21863
X49982Y18950
X50003Y9895
X50121Y26115
X50160Y21863
X50453Y15425
X50453Y12425
X50453Y2425
X50453Y425
X50708Y19317
X50790Y22021
X50908Y26430
X51184Y9895
X51453Y17425
X51453Y16425
X51453Y13425
X51453Y12425
X51499Y11824
X51735Y27926
X52365Y9895
X52453Y12425
X52453Y11425
X53453Y11425
X53546Y9895
X53782Y15840
X53782Y15485
X53861Y20604
X54058Y26863
X54215Y20604
X54453Y11425
X54530Y16745
X54727Y9895
X55404Y13089
X55453Y27425
X55453Y11425
X55453Y4425
X55453Y425
X55908Y958
X56193Y7856
X56453Y27425
X56453Y25425
X56453Y20425
X56453Y19425
X56453Y16425
X56453Y15425
X56453Y14425
X56453Y425
X57050Y19816
X57089Y15761
X57247Y19107
X57404Y19816
X57444Y15761
X57453Y24425
X57453Y12425
X57453Y7425
X57453Y6425
X57453Y5425
X57453Y4425
X57453Y3425
X57453Y2425
X57453Y1425
X57453Y425
X58192Y22218
X58453Y21425
X58453Y7425
X58453Y6425
X58453Y5425
X58453Y4425
X58453Y3425
X58453Y2425
X58453Y1425
X58453Y425
X58782Y12651
X58940Y20793
X59137Y12651
X59453Y28425
X59453Y24425
X59453Y18425
X59453Y7425
X59453Y6425
X59453Y5425
X59453Y4425
X59453Y3425
X59453Y2425
X59453Y1425
X59453Y425
X60453Y28425
X60453Y27425
X60453Y24425
X60453Y23425
X60453Y17425
X60453Y16425
X60453Y15425
X60453Y14425
X60453Y13425
X60453Y7425
X60453Y6425
X60453Y5425
X60453Y4425
X60453Y3425
X60453Y2425
X60453Y1425
X60453Y425
X60554Y22493
X61000Y12278
X61453Y28425
X61453Y27425
X61453Y26425
X61453Y25425
X61453Y24425
X61453Y23425
X61453Y22425
X61453Y21425
X61453Y17425
X61453Y16425
X61453Y15425
X61453Y425
X62453Y28425
X62453Y27425
X62453Y26425
X62453Y25425
X62453Y24425
X62453Y23425
X62453Y22425
X62453Y21425
X62453Y20425
X62453Y17425
X62453Y16425
X62453Y15425
X62453Y14425
X62453Y13425
X62453Y12425
X62453Y11425
X62453Y10425
X62453Y9425
X62453Y8425
X62453Y7425
X62453Y6425
X62453Y5425
X62453Y4425
X62453Y3425
X62453Y2425
X62453Y1425
X62453Y425
T2
X1169Y4378
X1563Y4378
X1956Y4378
X2350Y4378
X3277Y14847
X3677Y14847
X4574Y14847
X4968Y14847
X5362Y14847
X8519Y10456
X8519Y10062
X18373Y17391
X18373Y17076
X18373Y16761
X18373Y16446
X18373Y16131
X18373Y15816
X18373Y15501
X18373Y15186
X18373Y14871
X18373Y14556
X18373Y14241
X18373Y13926
X18373Y13611
X18373Y13296
X18373Y12667
X18373Y12115
X18373Y11800
X18373Y11485
X18373Y11170
X18373Y10856
X18373Y10541
X18373Y19084
X18373Y12981
X18530Y7706
X18845Y7706
X19160Y7706
X19475Y7706
X19790Y7706
X20105Y7706
X20420Y7706
X20735Y7706
X20971Y21643
X21050Y7706
X21365Y7706
X21444Y21643
X21680Y7706
X21916Y21643
X21995Y7706
X22389Y21643
X22861Y21643
X22940Y7706
X23255Y7706
X23333Y21643
X23570Y7706
X23806Y21643
X23885Y7706
X24200Y7706
X24278Y21643
X24515Y7706
X24751Y21643
X24830Y7706
X25144Y7706
X25223Y21643
X25459Y7706
X25696Y21643
X26168Y21643
X26641Y21643
X27113Y21643
X27152Y7706
X27585Y21643
X28058Y21643
X28215Y7706
X28530Y21643
X28609Y7706
X29003Y21643
X29475Y21643
X29914Y26941
X29914Y26567
X29914Y26193
X29948Y21643
X30420Y21643
X31365Y21643
X31522Y20659
X31522Y20265
X31522Y16052
X31522Y15659
X31522Y15265
X31522Y14871
X31522Y14478
X31522Y14084
X31522Y13690
X31522Y13296
X31522Y12273
X31522Y11958
X31522Y10107
X31522Y9556
X31522Y7706
X33339Y26547
X33339Y26193
X44067Y9040
X44067Y8646
X44067Y8253
X44067Y7859
X54536Y6932
X54536Y6532
X54536Y5635
X54536Y5241
X54536Y4847
T3
X46753Y2215
X47068Y2904
X47383Y2215
X47698Y2904
X48013Y2215
T4
X10046Y22277
X10127Y20692
X11410Y20913
X11492Y19328
T5
X8476Y17233
X8476Y16233
X8696Y11578
X8696Y9117
X8696Y7424
X8696Y6676
X8696Y4156
X14799Y11400
X14799Y6656
X14799Y4707
X14799Y3979
X54919Y3006
X54919Y2006
X55500Y6296
X55500Y5296
T6
X3317Y25307
X3317Y23693
X5561Y25307
X5561Y23693
X7805Y25307
X7805Y23693
X10049Y25307
X10049Y23693
X12293Y25307
X12293Y23693
X14537Y25307
X14537Y23693
X16781Y25307
X16781Y23693
X19026Y25307
X19026Y23693
X21270Y25307
X21270Y23693
X23514Y25307
X23514Y23693
X25758Y25307
X25758Y23693
X37175Y25288
X37175Y23674
X39419Y25288
X39419Y23674
X41663Y25288
X41663Y23674
X43907Y25288
X43907Y23674
X46152Y25288
X46152Y23674
X48396Y25288
X48396Y23674
X50640Y25288
X50640Y23674
X52884Y25288
X52884Y23674
X55128Y25288
X55128Y23674
X57372Y25288
X57372Y23674
X59616Y25288
X59616Y23674
T7
X25987Y5402
X25987Y2252
X26774Y3827
X27562Y5402
X27562Y2252
X28349Y3827
X29137Y5402
X29137Y2252
X29924Y3827
X30711Y5402
X30711Y2252
X31499Y3827
X32286Y5402
X32286Y2252
X33074Y3827
X33861Y5402
X33861Y2252
X34648Y3827
X35436Y5402
X35436Y2252
X36223Y3827
X37011Y5402
X37011Y2252
T8
X1742Y20741
X1969Y1969
X52346Y1831
X61372Y19267
T9
X23428Y3630
X39570Y3630
T3
X45946Y2816G85X45946Y2304
G05
X48820Y2816G85X48820Y2304
G05
M30
