G75*
G70*
%OFA0B0*%
%FSLAX25Y25*%
%IPPOS*%
%LPD*%
%AMOC8*
5,1,8,0,0,1.08239X$1,22.5*
%
%AMM141*
21,1,0.092130,0.073230,-0.000000,-0.000000,90.000000*
21,1,0.069290,0.096060,-0.000000,-0.000000,90.000000*
1,1,0.022840,0.036610,0.034650*
1,1,0.022840,0.036610,-0.034650*
1,1,0.022840,-0.036610,-0.034650*
1,1,0.022840,-0.036610,0.034650*
%
%AMM142*
21,1,0.100000,0.111020,-0.000000,-0.000000,180.000000*
21,1,0.075590,0.135430,-0.000000,-0.000000,180.000000*
1,1,0.024410,-0.037800,0.055510*
1,1,0.024410,0.037800,0.055510*
1,1,0.024410,0.037800,-0.055510*
1,1,0.024410,-0.037800,-0.055510*
%
%AMM143*
21,1,0.080320,0.083460,-0.000000,-0.000000,180.000000*
21,1,0.059840,0.103940,-0.000000,-0.000000,180.000000*
1,1,0.020470,-0.029920,0.041730*
1,1,0.020470,0.029920,0.041730*
1,1,0.020470,0.029920,-0.041730*
1,1,0.020470,-0.029920,-0.041730*
%
%AMM144*
21,1,0.084250,0.053540,-0.000000,-0.000000,0.000000*
21,1,0.065350,0.072440,-0.000000,-0.000000,0.000000*
1,1,0.018900,0.032680,-0.026770*
1,1,0.018900,-0.032680,-0.026770*
1,1,0.018900,-0.032680,0.026770*
1,1,0.018900,0.032680,0.026770*
%
%AMM145*
21,1,0.040950,0.030320,-0.000000,-0.000000,270.000000*
21,1,0.028350,0.042910,-0.000000,-0.000000,270.000000*
1,1,0.012600,-0.015160,-0.014170*
1,1,0.012600,-0.015160,0.014170*
1,1,0.012600,0.015160,0.014170*
1,1,0.012600,0.015160,-0.014170*
%
%AMM146*
21,1,0.027170,0.052760,-0.000000,-0.000000,90.000000*
21,1,0.017320,0.062600,-0.000000,-0.000000,90.000000*
1,1,0.009840,0.026380,0.008660*
1,1,0.009840,0.026380,-0.008660*
1,1,0.009840,-0.026380,-0.008660*
1,1,0.009840,-0.026380,0.008660*
%
%AMM147*
21,1,0.041340,0.026770,-0.000000,-0.000000,180.000000*
21,1,0.029130,0.038980,-0.000000,-0.000000,180.000000*
1,1,0.012210,-0.014570,0.013390*
1,1,0.012210,0.014570,0.013390*
1,1,0.012210,0.014570,-0.013390*
1,1,0.012210,-0.014570,-0.013390*
%
%AMM148*
21,1,0.076380,0.036220,-0.000000,-0.000000,270.000000*
21,1,0.061810,0.050790,-0.000000,-0.000000,270.000000*
1,1,0.014570,-0.018110,-0.030910*
1,1,0.014570,-0.018110,0.030910*
1,1,0.014570,0.018110,0.030910*
1,1,0.014570,0.018110,-0.030910*
%
%AMM149*
21,1,0.038980,0.026770,-0.000000,-0.000000,180.000000*
21,1,0.026770,0.038980,-0.000000,-0.000000,180.000000*
1,1,0.012210,-0.013390,0.013390*
1,1,0.012210,0.013390,0.013390*
1,1,0.012210,0.013390,-0.013390*
1,1,0.012210,-0.013390,-0.013390*
%
%AMM150*
21,1,0.021260,0.016540,-0.000000,-0.000000,90.000000*
21,1,0.012600,0.025200,-0.000000,-0.000000,90.000000*
1,1,0.008660,0.008270,0.006300*
1,1,0.008660,0.008270,-0.006300*
1,1,0.008660,-0.008270,-0.006300*
1,1,0.008660,-0.008270,0.006300*
%
%AMM151*
21,1,0.029130,0.018900,-0.000000,-0.000000,270.000000*
21,1,0.018900,0.029130,-0.000000,-0.000000,270.000000*
1,1,0.010240,-0.009450,-0.009450*
1,1,0.010240,-0.009450,0.009450*
1,1,0.010240,0.009450,0.009450*
1,1,0.010240,0.009450,-0.009450*
%
%AMM152*
21,1,0.025200,0.019680,-0.000000,-0.000000,180.000000*
21,1,0.015750,0.029130,-0.000000,-0.000000,180.000000*
1,1,0.009450,-0.007870,0.009840*
1,1,0.009450,0.007870,0.009840*
1,1,0.009450,0.007870,-0.009840*
1,1,0.009450,-0.007870,-0.009840*
%
%AMM153*
21,1,0.025200,0.019680,-0.000000,-0.000000,90.000000*
21,1,0.015750,0.029130,-0.000000,-0.000000,90.000000*
1,1,0.009450,0.009840,0.007870*
1,1,0.009450,0.009840,-0.007870*
1,1,0.009450,-0.009840,-0.007870*
1,1,0.009450,-0.009840,0.007870*
%
%AMM235*
21,1,0.029530,0.026380,-0.000000,-0.000000,90.000000*
21,1,0.020470,0.035430,-0.000000,-0.000000,90.000000*
1,1,0.009060,0.013190,0.010240*
1,1,0.009060,0.013190,-0.010240*
1,1,0.009060,-0.013190,-0.010240*
1,1,0.009060,-0.013190,0.010240*
%
%AMM236*
21,1,0.021650,0.027950,-0.000000,-0.000000,90.000000*
21,1,0.014170,0.035430,-0.000000,-0.000000,90.000000*
1,1,0.007480,0.013980,0.007090*
1,1,0.007480,0.013980,-0.007090*
1,1,0.007480,-0.013980,-0.007090*
1,1,0.007480,-0.013980,0.007090*
%
%AMM237*
21,1,0.016540,0.028980,-0.000000,-0.000000,270.000000*
21,1,0.010080,0.035430,-0.000000,-0.000000,270.000000*
1,1,0.006460,-0.014490,-0.005040*
1,1,0.006460,-0.014490,0.005040*
1,1,0.006460,0.014490,0.005040*
1,1,0.006460,0.014490,-0.005040*
%
%AMM238*
21,1,0.027560,0.030710,-0.000000,-0.000000,0.000000*
21,1,0.018900,0.039370,-0.000000,-0.000000,0.000000*
1,1,0.008660,0.009450,-0.015350*
1,1,0.008660,-0.009450,-0.015350*
1,1,0.008660,-0.009450,0.015350*
1,1,0.008660,0.009450,0.015350*
%
%AMM239*
21,1,0.031500,0.018900,-0.000000,-0.000000,270.000000*
21,1,0.022840,0.027560,-0.000000,-0.000000,270.000000*
1,1,0.008660,-0.009450,-0.011420*
1,1,0.008660,-0.009450,0.011420*
1,1,0.008660,0.009450,0.011420*
1,1,0.008660,0.009450,-0.011420*
%
%AMM240*
21,1,0.035430,0.072440,-0.000000,-0.000000,270.000000*
21,1,0.025200,0.082680,-0.000000,-0.000000,270.000000*
1,1,0.010240,-0.036220,-0.012600*
1,1,0.010240,-0.036220,0.012600*
1,1,0.010240,0.036220,0.012600*
1,1,0.010240,0.036220,-0.012600*
%
%AMM241*
21,1,0.031500,0.018900,-0.000000,-0.000000,0.000000*
21,1,0.022840,0.027560,-0.000000,-0.000000,0.000000*
1,1,0.008660,0.011420,-0.009450*
1,1,0.008660,-0.011420,-0.009450*
1,1,0.008660,-0.011420,0.009450*
1,1,0.008660,0.011420,0.009450*
%
%AMM242*
21,1,0.027560,0.030710,-0.000000,-0.000000,90.000000*
21,1,0.018900,0.039370,-0.000000,-0.000000,90.000000*
1,1,0.008660,0.015350,0.009450*
1,1,0.008660,0.015350,-0.009450*
1,1,0.008660,-0.015350,-0.009450*
1,1,0.008660,-0.015350,0.009450*
%
%AMM243*
21,1,0.039370,0.030320,-0.000000,-0.000000,90.000000*
21,1,0.028350,0.041340,-0.000000,-0.000000,90.000000*
1,1,0.011020,0.015160,0.014170*
1,1,0.011020,0.015160,-0.014170*
1,1,0.011020,-0.015160,-0.014170*
1,1,0.011020,-0.015160,0.014170*
%
%AMM244*
21,1,0.047240,0.075980,-0.000000,-0.000000,180.000000*
21,1,0.034650,0.088580,-0.000000,-0.000000,180.000000*
1,1,0.012600,-0.017320,0.037990*
1,1,0.012600,0.017320,0.037990*
1,1,0.012600,0.017320,-0.037990*
1,1,0.012600,-0.017320,-0.037990*
%
%AMM245*
21,1,0.043310,0.035430,-0.000000,-0.000000,180.000000*
21,1,0.031500,0.047240,-0.000000,-0.000000,180.000000*
1,1,0.011810,-0.015750,0.017720*
1,1,0.011810,0.015750,0.017720*
1,1,0.011810,0.015750,-0.017720*
1,1,0.011810,-0.015750,-0.017720*
%
%AMM246*
21,1,0.031500,0.030710,-0.000000,-0.000000,180.000000*
21,1,0.022050,0.040160,-0.000000,-0.000000,180.000000*
1,1,0.009450,-0.011020,0.015350*
1,1,0.009450,0.011020,0.015350*
1,1,0.009450,0.011020,-0.015350*
1,1,0.009450,-0.011020,-0.015350*
%
%AMM247*
21,1,0.035430,0.072440,-0.000000,-0.000000,180.000000*
21,1,0.025200,0.082680,-0.000000,-0.000000,180.000000*
1,1,0.010240,-0.012600,0.036220*
1,1,0.010240,0.012600,0.036220*
1,1,0.010240,0.012600,-0.036220*
1,1,0.010240,-0.012600,-0.036220*
%
%AMM248*
21,1,0.141730,0.067720,-0.000000,-0.000000,180.000000*
21,1,0.120870,0.088580,-0.000000,-0.000000,180.000000*
1,1,0.020870,-0.060430,0.033860*
1,1,0.020870,0.060430,0.033860*
1,1,0.020870,0.060430,-0.033860*
1,1,0.020870,-0.060430,-0.033860*
%
%AMM249*
21,1,0.047240,0.075990,-0.000000,-0.000000,180.000000*
21,1,0.034650,0.088580,-0.000000,-0.000000,180.000000*
1,1,0.012600,-0.017320,0.037990*
1,1,0.012600,0.017320,0.037990*
1,1,0.012600,0.017320,-0.037990*
1,1,0.012600,-0.017320,-0.037990*
%
%AMM250*
21,1,0.090550,0.073230,-0.000000,-0.000000,270.000000*
21,1,0.069290,0.094490,-0.000000,-0.000000,270.000000*
1,1,0.021260,-0.036610,-0.034650*
1,1,0.021260,-0.036610,0.034650*
1,1,0.021260,0.036610,0.034650*
1,1,0.021260,0.036610,-0.034650*
%
%ADD12R,0.07874X0.05906*%
%ADD120C,0.02913*%
%ADD121C,0.06457*%
%ADD13R,0.07874X0.14961*%
%ADD134R,0.03543X0.03150*%
%ADD135R,0.04724X0.08661*%
%ADD136C,0.05118*%
%ADD137R,0.22835X0.25197*%
%ADD138R,0.03150X0.03543*%
%ADD139C,0.03100*%
%ADD14C,0.22047*%
%ADD140R,0.07500X0.07874*%
%ADD141O,0.07500X0.07874*%
%ADD142C,0.03900*%
%ADD15C,0.03937*%
%ADD16R,0.06693X0.06693*%
%ADD17O,0.06693X0.06693*%
%ADD174O,0.05118X0.01260*%
%ADD175O,0.01260X0.05118*%
%ADD176O,0.04724X0.01575*%
%ADD177C,0.03494*%
%ADD180R,0.01772X0.01378*%
%ADD181R,0.01378X0.01772*%
%ADD186O,0.09055X0.02756*%
%ADD193C,0.03543*%
%ADD195C,0.04724*%
%ADD196C,0.04294*%
%ADD27C,0.05906*%
%ADD28C,0.02362*%
%ADD292M141*%
%ADD293M142*%
%ADD294M143*%
%ADD295M144*%
%ADD296M145*%
%ADD297M146*%
%ADD298M147*%
%ADD299M148*%
%ADD300M149*%
%ADD301M150*%
%ADD302M151*%
%ADD303M152*%
%ADD304M153*%
%ADD315R,0.08661X0.04724*%
%ADD316R,0.25197X0.22835*%
%ADD317R,0.07874X0.07500*%
%ADD318O,0.07874X0.07500*%
%ADD38R,0.10335X0.10335*%
%ADD39C,0.10335*%
%ADD40R,0.04331X0.04331*%
%ADD41C,0.04331*%
%ADD413M235*%
%ADD414M236*%
%ADD415M237*%
%ADD416M238*%
%ADD417M239*%
%ADD418M240*%
%ADD419M241*%
%ADD42O,0.04331X0.09449*%
%ADD420M242*%
%ADD421M243*%
%ADD422M244*%
%ADD423M245*%
%ADD424M246*%
%ADD425M247*%
%ADD426M248*%
%ADD427M249*%
%ADD428M250*%
%ADD43C,0.06000*%
%ADD56R,0.05118X0.03937*%
%ADD68C,0.00472*%
%ADD69C,0.11220*%
X0000000Y0000000D02*
%LPD*%
G01*
D68*
X0617244Y0086610D02*
X0566063Y0086610D01*
X0566063Y0114169D01*
X0617244Y0114169D01*
X0617244Y0086610D01*
G36*
X0617244Y0086610D02*
G01*
X0566063Y0086610D01*
X0566063Y0114169D01*
X0617244Y0114169D01*
X0617244Y0086610D01*
G37*
D12*
X0499902Y0194532D03*
X0499902Y0203587D03*
X0499902Y0212642D03*
D13*
X0475099Y0203587D03*
G36*
G01*
X0603457Y0226347D02*
X0603457Y0223276D01*
G75*
G02*
X0603181Y0223000I-000276J0000000D01*
G01*
X0600977Y0223000D01*
G75*
G02*
X0600701Y0223276I0000000J0000276D01*
G01*
X0600701Y0226347D01*
G75*
G02*
X0600977Y0226622I0000276J0000000D01*
G01*
X0603181Y0226622D01*
G75*
G02*
X0603457Y0226347I0000000J-000276D01*
G01*
G37*
G36*
G01*
X0597158Y0226347D02*
X0597158Y0223276D01*
G75*
G02*
X0596882Y0223000I-000276J0000000D01*
G01*
X0594677Y0223000D01*
G75*
G02*
X0594402Y0223276I0000000J0000276D01*
G01*
X0594402Y0226347D01*
G75*
G02*
X0594677Y0226622I0000276J0000000D01*
G01*
X0596882Y0226622D01*
G75*
G02*
X0597158Y0226347I0000000J-000276D01*
G01*
G37*
G36*
G01*
X0575111Y0189417D02*
X0575111Y0192488D01*
G75*
G02*
X0575386Y0192764I0000276J0000000D01*
G01*
X0577591Y0192764D01*
G75*
G02*
X0577866Y0192488I0000000J-000276D01*
G01*
X0577866Y0189417D01*
G75*
G02*
X0577591Y0189142I-000276J0000000D01*
G01*
X0575386Y0189142D01*
G75*
G02*
X0575111Y0189417I0000000J0000276D01*
G01*
G37*
G36*
G01*
X0581410Y0189417D02*
X0581410Y0192488D01*
G75*
G02*
X0581685Y0192764I0000276J0000000D01*
G01*
X0583890Y0192764D01*
G75*
G02*
X0584166Y0192488I0000000J-000276D01*
G01*
X0584166Y0189417D01*
G75*
G02*
X0583890Y0189142I-000276J0000000D01*
G01*
X0581685Y0189142D01*
G75*
G02*
X0581410Y0189417I0000000J0000276D01*
G01*
G37*
D14*
X0019768Y0019563D03*
G36*
G01*
X0542425Y0165791D02*
X0539354Y0165791D01*
G75*
G02*
X0539079Y0166067I0000000J0000276D01*
G01*
X0539079Y0168272D01*
G75*
G02*
X0539354Y0168547I0000276J0000000D01*
G01*
X0542425Y0168547D01*
G75*
G02*
X0542701Y0168272I0000000J-000276D01*
G01*
X0542701Y0166067D01*
G75*
G02*
X0542425Y0165791I-000276J0000000D01*
G01*
G37*
G36*
G01*
X0542425Y0172091D02*
X0539354Y0172091D01*
G75*
G02*
X0539079Y0172366I0000000J0000276D01*
G01*
X0539079Y0174571D01*
G75*
G02*
X0539354Y0174847I0000276J0000000D01*
G01*
X0542425Y0174847D01*
G75*
G02*
X0542701Y0174571I0000000J-000276D01*
G01*
X0542701Y0172366D01*
G75*
G02*
X0542425Y0172091I-000276J0000000D01*
G01*
G37*
D12*
X0493111Y0118221D03*
X0493111Y0127276D03*
X0493111Y0136331D03*
D13*
X0468307Y0127276D03*
G36*
G01*
X0132176Y0165978D02*
X0132176Y0167435D01*
G75*
G02*
X0132708Y0167967I0000531J0000000D01*
G01*
X0133771Y0167967D01*
G75*
G02*
X0134302Y0167435I0000000J-000531D01*
G01*
X0134302Y0165978D01*
G75*
G02*
X0133771Y0165447I-000531J0000000D01*
G01*
X0132708Y0165447D01*
G75*
G02*
X0132176Y0165978I0000000J0000531D01*
G01*
G37*
G36*
G01*
X0136192Y0165978D02*
X0136192Y0167435D01*
G75*
G02*
X0136724Y0167967I0000531J0000000D01*
G01*
X0137787Y0167967D01*
G75*
G02*
X0138318Y0167435I0000000J-000531D01*
G01*
X0138318Y0165978D01*
G75*
G02*
X0137787Y0165447I-000531J0000000D01*
G01*
X0136724Y0165447D01*
G75*
G02*
X0136192Y0165978I0000000J0000531D01*
G01*
G37*
G36*
G01*
X0100098Y0132459D02*
X0101436Y0132459D01*
G75*
G02*
X0101988Y0131908I0000000J-000551D01*
G01*
X0101988Y0130805D01*
G75*
G02*
X0101436Y0130254I-000551J0000000D01*
G01*
X0100098Y0130254D01*
G75*
G02*
X0099547Y0130805I0000000J0000551D01*
G01*
X0099547Y0131908D01*
G75*
G02*
X0100098Y0132459I0000551J0000000D01*
G01*
G37*
G36*
G01*
X0100098Y0128679D02*
X0101436Y0128679D01*
G75*
G02*
X0101988Y0128128I0000000J-000551D01*
G01*
X0101988Y0127026D01*
G75*
G02*
X0101436Y0126475I-000551J0000000D01*
G01*
X0100098Y0126475D01*
G75*
G02*
X0099547Y0127026I0000000J0000551D01*
G01*
X0099547Y0128128D01*
G75*
G02*
X0100098Y0128679I0000551J0000000D01*
G01*
G37*
D15*
X0211410Y0223000D03*
G36*
G01*
X0446383Y0169387D02*
X0443996Y0168009D01*
G75*
G02*
X0442651Y0168370I-000492J0000852D01*
G01*
X0439305Y0174166D01*
G75*
G02*
X0439665Y0175510I0000852J0000492D01*
G01*
X0442052Y0176888D01*
G75*
G02*
X0443396Y0176528I0000492J-000852D01*
G01*
X0446743Y0170732D01*
G75*
G02*
X0446383Y0169387I-000852J-000492D01*
G01*
G37*
G36*
G01*
X0453731Y0192723D02*
X0435660Y0182290D01*
G75*
G02*
X0434316Y0182650I-000492J0000852D01*
G01*
X0422701Y0202767D01*
G75*
G02*
X0423062Y0204111I0000852J0000492D01*
G01*
X0441132Y0214544D01*
G75*
G02*
X0442477Y0214184I0000492J-000852D01*
G01*
X0454091Y0194068D01*
G75*
G02*
X0453731Y0192723I-000852J-000492D01*
G01*
G37*
G36*
G01*
X0461930Y0178364D02*
X0459544Y0176986D01*
G75*
G02*
X0458199Y0177346I-000492J0000852D01*
G01*
X0454853Y0183142D01*
G75*
G02*
X0455213Y0184487I0000852J0000492D01*
G01*
X0457599Y0185865D01*
G75*
G02*
X0458944Y0185504I0000492J-000852D01*
G01*
X0462290Y0179708D01*
G75*
G02*
X0461930Y0178364I-000852J-000492D01*
G01*
G37*
G36*
G01*
X0045018Y0207895D02*
X0045018Y0206438D01*
G75*
G02*
X0044487Y0205907I-000531J0000000D01*
G01*
X0043424Y0205907D01*
G75*
G02*
X0042892Y0206438I0000000J0000531D01*
G01*
X0042892Y0207895D01*
G75*
G02*
X0043424Y0208427I0000531J0000000D01*
G01*
X0044487Y0208427D01*
G75*
G02*
X0045018Y0207895I0000000J-000531D01*
G01*
G37*
G36*
G01*
X0041002Y0207895D02*
X0041002Y0206438D01*
G75*
G02*
X0040471Y0205907I-000531J0000000D01*
G01*
X0039408Y0205907D01*
G75*
G02*
X0038876Y0206438I0000000J0000531D01*
G01*
X0038876Y0207895D01*
G75*
G02*
X0039408Y0208427I0000531J0000000D01*
G01*
X0040471Y0208427D01*
G75*
G02*
X0041002Y0207895I0000000J-000531D01*
G01*
G37*
G36*
G01*
X0049382Y0212218D02*
X0050839Y0212218D01*
G75*
G02*
X0051370Y0211686I0000000J-000531D01*
G01*
X0051370Y0210623D01*
G75*
G02*
X0050839Y0210092I-000531J0000000D01*
G01*
X0049382Y0210092D01*
G75*
G02*
X0048851Y0210623I0000000J0000531D01*
G01*
X0048851Y0211686D01*
G75*
G02*
X0049382Y0212218I0000531J0000000D01*
G01*
G37*
G36*
G01*
X0049382Y0208202D02*
X0050839Y0208202D01*
G75*
G02*
X0051370Y0207670I0000000J-000531D01*
G01*
X0051370Y0206607D01*
G75*
G02*
X0050839Y0206076I-000531J0000000D01*
G01*
X0049382Y0206076D01*
G75*
G02*
X0048851Y0206607I0000000J0000531D01*
G01*
X0048851Y0207670D01*
G75*
G02*
X0049382Y0208202I0000531J0000000D01*
G01*
G37*
G36*
G01*
X0381390Y0164486D02*
X0379004Y0163108D01*
G75*
G02*
X0377659Y0163468I-000492J0000852D01*
G01*
X0374313Y0169264D01*
G75*
G02*
X0374673Y0170609I0000852J0000492D01*
G01*
X0377060Y0171987D01*
G75*
G02*
X0378404Y0171627I0000492J-000852D01*
G01*
X0381750Y0165830D01*
G75*
G02*
X0381390Y0164486I-000852J-000492D01*
G01*
G37*
G36*
G01*
X0388738Y0187822D02*
X0370668Y0177389D01*
G75*
G02*
X0369323Y0177749I-000492J0000852D01*
G01*
X0357709Y0197865D01*
G75*
G02*
X0358069Y0199210I0000852J0000492D01*
G01*
X0376140Y0209643D01*
G75*
G02*
X0377484Y0209282I0000492J-000852D01*
G01*
X0389099Y0189166D01*
G75*
G02*
X0388738Y0187822I-000852J-000492D01*
G01*
G37*
G36*
G01*
X0396938Y0173462D02*
X0394551Y0172084D01*
G75*
G02*
X0393207Y0172444I-000492J0000852D01*
G01*
X0389860Y0178241D01*
G75*
G02*
X0390220Y0179585I0000852J0000492D01*
G01*
X0392607Y0180963D01*
G75*
G02*
X0393952Y0180603I0000492J-000852D01*
G01*
X0397298Y0174807D01*
G75*
G02*
X0396938Y0173462I-000852J-000492D01*
G01*
G37*
X0219351Y0223189D03*
D14*
X0613803Y0192547D03*
G36*
G01*
X0109500Y0170165D02*
X0108044Y0170165D01*
G75*
G02*
X0107512Y0170697I0000000J0000531D01*
G01*
X0107512Y0171760D01*
G75*
G02*
X0108044Y0172291I0000531J0000000D01*
G01*
X0109500Y0172291D01*
G75*
G02*
X0110032Y0171760I0000000J-000531D01*
G01*
X0110032Y0170697D01*
G75*
G02*
X0109500Y0170165I-000531J0000000D01*
G01*
G37*
G36*
G01*
X0109500Y0174181D02*
X0108044Y0174181D01*
G75*
G02*
X0107512Y0174713I0000000J0000531D01*
G01*
X0107512Y0175776D01*
G75*
G02*
X0108044Y0176307I0000531J0000000D01*
G01*
X0109500Y0176307D01*
G75*
G02*
X0110032Y0175776I0000000J-000531D01*
G01*
X0110032Y0174713D01*
G75*
G02*
X0109500Y0174181I-000531J0000000D01*
G01*
G37*
G36*
G01*
X0092366Y0135558D02*
X0092366Y0137015D01*
G75*
G02*
X0092898Y0137547I0000531J0000000D01*
G01*
X0093961Y0137547D01*
G75*
G02*
X0094492Y0137015I0000000J-000531D01*
G01*
X0094492Y0135558D01*
G75*
G02*
X0093961Y0135027I-000531J0000000D01*
G01*
X0092898Y0135027D01*
G75*
G02*
X0092366Y0135558I0000000J0000531D01*
G01*
G37*
G36*
G01*
X0096382Y0135558D02*
X0096382Y0137015D01*
G75*
G02*
X0096914Y0137547I0000531J0000000D01*
G01*
X0097977Y0137547D01*
G75*
G02*
X0098508Y0137015I0000000J-000531D01*
G01*
X0098508Y0135558D01*
G75*
G02*
X0097977Y0135027I-000531J0000000D01*
G01*
X0096914Y0135027D01*
G75*
G02*
X0096382Y0135558I0000000J0000531D01*
G01*
G37*
G36*
G01*
X0034087Y0199063D02*
X0035426Y0199063D01*
G75*
G02*
X0035977Y0198512I0000000J-000551D01*
G01*
X0035977Y0197409D01*
G75*
G02*
X0035426Y0196858I-000551J0000000D01*
G01*
X0034087Y0196858D01*
G75*
G02*
X0033536Y0197409I0000000J0000551D01*
G01*
X0033536Y0198512D01*
G75*
G02*
X0034087Y0199063I0000551J0000000D01*
G01*
G37*
G36*
G01*
X0034087Y0195284D02*
X0035426Y0195284D01*
G75*
G02*
X0035977Y0194732I0000000J-000551D01*
G01*
X0035977Y0193630D01*
G75*
G02*
X0035426Y0193079I-000551J0000000D01*
G01*
X0034087Y0193079D01*
G75*
G02*
X0033536Y0193630I0000000J0000551D01*
G01*
X0033536Y0194732D01*
G75*
G02*
X0034087Y0195284I0000551J0000000D01*
G01*
G37*
G36*
G01*
X0064441Y0167843D02*
X0064441Y0169181D01*
G75*
G02*
X0064992Y0169732I0000551J0000000D01*
G01*
X0066095Y0169732D01*
G75*
G02*
X0066646Y0169181I0000000J-000551D01*
G01*
X0066646Y0167843D01*
G75*
G02*
X0066095Y0167291I-000551J0000000D01*
G01*
X0064992Y0167291D01*
G75*
G02*
X0064441Y0167843I0000000J0000551D01*
G01*
G37*
G36*
G01*
X0068221Y0167843D02*
X0068221Y0169181D01*
G75*
G02*
X0068772Y0169732I0000551J0000000D01*
G01*
X0069874Y0169732D01*
G75*
G02*
X0070426Y0169181I0000000J-000551D01*
G01*
X0070426Y0167843D01*
G75*
G02*
X0069874Y0167291I-000551J0000000D01*
G01*
X0068772Y0167291D01*
G75*
G02*
X0068221Y0167843I0000000J0000551D01*
G01*
G37*
D16*
X0549272Y0029937D03*
D17*
X0549272Y0019937D03*
G36*
G01*
X0078496Y0187735D02*
X0077158Y0187735D01*
G75*
G02*
X0076607Y0188286I0000000J0000551D01*
G01*
X0076607Y0189388D01*
G75*
G02*
X0077158Y0189939I0000551J0000000D01*
G01*
X0078496Y0189939D01*
G75*
G02*
X0079048Y0189388I0000000J-000551D01*
G01*
X0079048Y0188286D01*
G75*
G02*
X0078496Y0187735I-000551J0000000D01*
G01*
G37*
G36*
G01*
X0078496Y0191514D02*
X0077158Y0191514D01*
G75*
G02*
X0076607Y0192065I0000000J0000551D01*
G01*
X0076607Y0193168D01*
G75*
G02*
X0077158Y0193719I0000551J0000000D01*
G01*
X0078496Y0193719D01*
G75*
G02*
X0079048Y0193168I0000000J-000551D01*
G01*
X0079048Y0192065D01*
G75*
G02*
X0078496Y0191514I-000551J0000000D01*
G01*
G37*
G36*
G01*
X0551965Y0132284D02*
X0551965Y0129213D01*
G75*
G02*
X0551689Y0128937I-000276J0000000D01*
G01*
X0549485Y0128937D01*
G75*
G02*
X0549209Y0129213I0000000J0000276D01*
G01*
X0549209Y0132284D01*
G75*
G02*
X0549485Y0132559I0000276J0000000D01*
G01*
X0551689Y0132559D01*
G75*
G02*
X0551965Y0132284I0000000J-000276D01*
G01*
G37*
G36*
G01*
X0545666Y0132284D02*
X0545666Y0129213D01*
G75*
G02*
X0545390Y0128937I-000276J0000000D01*
G01*
X0543185Y0128937D01*
G75*
G02*
X0542910Y0129213I0000000J0000276D01*
G01*
X0542910Y0132284D01*
G75*
G02*
X0543185Y0132559I0000276J0000000D01*
G01*
X0545390Y0132559D01*
G75*
G02*
X0545666Y0132284I0000000J-000276D01*
G01*
G37*
G36*
G01*
X0115492Y0227917D02*
X0115492Y0224847D01*
G75*
G02*
X0115217Y0224571I-000276J0000000D01*
G01*
X0113012Y0224571D01*
G75*
G02*
X0112737Y0224847I0000000J0000276D01*
G01*
X0112737Y0227917D01*
G75*
G02*
X0113012Y0228193I0000276J0000000D01*
G01*
X0115217Y0228193D01*
G75*
G02*
X0115492Y0227917I0000000J-000276D01*
G01*
G37*
G36*
G01*
X0109193Y0227917D02*
X0109193Y0224847D01*
G75*
G02*
X0108918Y0224571I-000276J0000000D01*
G01*
X0106713Y0224571D01*
G75*
G02*
X0106437Y0224847I0000000J0000276D01*
G01*
X0106437Y0227917D01*
G75*
G02*
X0106713Y0228193I0000276J0000000D01*
G01*
X0108918Y0228193D01*
G75*
G02*
X0109193Y0227917I0000000J-000276D01*
G01*
G37*
D12*
X0544666Y0138311D03*
X0544666Y0147366D03*
X0544666Y0156421D03*
D13*
X0519863Y0147366D03*
D16*
X0084847Y0172207D03*
D17*
X0084847Y0162207D03*
G36*
G01*
X0130649Y0137687D02*
X0130649Y0135465D01*
G75*
G02*
X0130279Y0135095I-000370J0000000D01*
G01*
X0122939Y0135095D01*
G75*
G02*
X0122569Y0135465I0000000J0000370D01*
G01*
X0122569Y0137687D01*
G75*
G02*
X0122939Y0138057I0000370J0000000D01*
G01*
X0130279Y0138057D01*
G75*
G02*
X0130649Y0137687I0000000J-000370D01*
G01*
G37*
G36*
G01*
X0130649Y0142687D02*
X0130649Y0140465D01*
G75*
G02*
X0130279Y0140095I-000370J0000000D01*
G01*
X0122939Y0140095D01*
G75*
G02*
X0122569Y0140465I0000000J0000370D01*
G01*
X0122569Y0142687D01*
G75*
G02*
X0122939Y0143057I0000370J0000000D01*
G01*
X0130279Y0143057D01*
G75*
G02*
X0130649Y0142687I0000000J-000370D01*
G01*
G37*
G36*
G01*
X0130649Y0147687D02*
X0130649Y0145465D01*
G75*
G02*
X0130279Y0145095I-000370J0000000D01*
G01*
X0122939Y0145095D01*
G75*
G02*
X0122569Y0145465I0000000J0000370D01*
G01*
X0122569Y0147687D01*
G75*
G02*
X0122939Y0148057I0000370J0000000D01*
G01*
X0130279Y0148057D01*
G75*
G02*
X0130649Y0147687I0000000J-000370D01*
G01*
G37*
G36*
G01*
X0130649Y0152687D02*
X0130649Y0150465D01*
G75*
G02*
X0130279Y0150095I-000370J0000000D01*
G01*
X0122939Y0150095D01*
G75*
G02*
X0122569Y0150465I0000000J0000370D01*
G01*
X0122569Y0152687D01*
G75*
G02*
X0122939Y0153057I0000370J0000000D01*
G01*
X0130279Y0153057D01*
G75*
G02*
X0130649Y0152687I0000000J-000370D01*
G01*
G37*
G36*
G01*
X0130649Y0157687D02*
X0130649Y0155465D01*
G75*
G02*
X0130279Y0155095I-000370J0000000D01*
G01*
X0122939Y0155095D01*
G75*
G02*
X0122569Y0155465I0000000J0000370D01*
G01*
X0122569Y0157687D01*
G75*
G02*
X0122939Y0158057I0000370J0000000D01*
G01*
X0130279Y0158057D01*
G75*
G02*
X0130649Y0157687I0000000J-000370D01*
G01*
G37*
G36*
G01*
X0130649Y0162687D02*
X0130649Y0160465D01*
G75*
G02*
X0130279Y0160095I-000370J0000000D01*
G01*
X0122939Y0160095D01*
G75*
G02*
X0122569Y0160465I0000000J0000370D01*
G01*
X0122569Y0162687D01*
G75*
G02*
X0122939Y0163057I0000370J0000000D01*
G01*
X0130279Y0163057D01*
G75*
G02*
X0130649Y0162687I0000000J-000370D01*
G01*
G37*
G36*
G01*
X0130649Y0167687D02*
X0130649Y0165465D01*
G75*
G02*
X0130279Y0165095I-000370J0000000D01*
G01*
X0122939Y0165095D01*
G75*
G02*
X0122569Y0165465I0000000J0000370D01*
G01*
X0122569Y0167687D01*
G75*
G02*
X0122939Y0168057I0000370J0000000D01*
G01*
X0130279Y0168057D01*
G75*
G02*
X0130649Y0167687I0000000J-000370D01*
G01*
G37*
G36*
G01*
X0111318Y0167687D02*
X0111318Y0165465D01*
G75*
G02*
X0110948Y0165095I-000370J0000000D01*
G01*
X0103608Y0165095D01*
G75*
G02*
X0103238Y0165465I0000000J0000370D01*
G01*
X0103238Y0167687D01*
G75*
G02*
X0103608Y0168057I0000370J0000000D01*
G01*
X0110948Y0168057D01*
G75*
G02*
X0111318Y0167687I0000000J-000370D01*
G01*
G37*
G36*
G01*
X0111318Y0162687D02*
X0111318Y0160465D01*
G75*
G02*
X0110948Y0160095I-000370J0000000D01*
G01*
X0103608Y0160095D01*
G75*
G02*
X0103238Y0160465I0000000J0000370D01*
G01*
X0103238Y0162687D01*
G75*
G02*
X0103608Y0163057I0000370J0000000D01*
G01*
X0110948Y0163057D01*
G75*
G02*
X0111318Y0162687I0000000J-000370D01*
G01*
G37*
G36*
G01*
X0111318Y0157687D02*
X0111318Y0155465D01*
G75*
G02*
X0110948Y0155095I-000370J0000000D01*
G01*
X0103608Y0155095D01*
G75*
G02*
X0103238Y0155465I0000000J0000370D01*
G01*
X0103238Y0157687D01*
G75*
G02*
X0103608Y0158057I0000370J0000000D01*
G01*
X0110948Y0158057D01*
G75*
G02*
X0111318Y0157687I0000000J-000370D01*
G01*
G37*
G36*
G01*
X0111318Y0152687D02*
X0111318Y0150465D01*
G75*
G02*
X0110948Y0150095I-000370J0000000D01*
G01*
X0103608Y0150095D01*
G75*
G02*
X0103238Y0150465I0000000J0000370D01*
G01*
X0103238Y0152687D01*
G75*
G02*
X0103608Y0153057I0000370J0000000D01*
G01*
X0110948Y0153057D01*
G75*
G02*
X0111318Y0152687I0000000J-000370D01*
G01*
G37*
G36*
G01*
X0111318Y0147687D02*
X0111318Y0145465D01*
G75*
G02*
X0110948Y0145095I-000370J0000000D01*
G01*
X0103608Y0145095D01*
G75*
G02*
X0103238Y0145465I0000000J0000370D01*
G01*
X0103238Y0147687D01*
G75*
G02*
X0103608Y0148057I0000370J0000000D01*
G01*
X0110948Y0148057D01*
G75*
G02*
X0111318Y0147687I0000000J-000370D01*
G01*
G37*
G36*
G01*
X0111318Y0142687D02*
X0111318Y0140465D01*
G75*
G02*
X0110948Y0140095I-000370J0000000D01*
G01*
X0103608Y0140095D01*
G75*
G02*
X0103238Y0140465I0000000J0000370D01*
G01*
X0103238Y0142687D01*
G75*
G02*
X0103608Y0143057I0000370J0000000D01*
G01*
X0110948Y0143057D01*
G75*
G02*
X0111318Y0142687I0000000J-000370D01*
G01*
G37*
G36*
G01*
X0111318Y0137687D02*
X0111318Y0135465D01*
G75*
G02*
X0110948Y0135095I-000370J0000000D01*
G01*
X0103608Y0135095D01*
G75*
G02*
X0103238Y0135465I0000000J0000370D01*
G01*
X0103238Y0137687D01*
G75*
G02*
X0103608Y0138057I0000370J0000000D01*
G01*
X0110948Y0138057D01*
G75*
G02*
X0111318Y0137687I0000000J-000370D01*
G01*
G37*
G36*
G01*
X0432351Y0129068D02*
X0429964Y0127690D01*
G75*
G02*
X0428620Y0128051I-000492J0000852D01*
G01*
X0425273Y0133847D01*
G75*
G02*
X0425634Y0135191I0000852J0000492D01*
G01*
X0428020Y0136569D01*
G75*
G02*
X0429365Y0136209I0000492J-000852D01*
G01*
X0432711Y0130413D01*
G75*
G02*
X0432351Y0129068I-000852J-000492D01*
G01*
G37*
G36*
G01*
X0439699Y0152404D02*
X0421629Y0141971D01*
G75*
G02*
X0420284Y0142331I-000492J0000852D01*
G01*
X0408670Y0162448D01*
G75*
G02*
X0409030Y0163792I0000852J0000492D01*
G01*
X0427101Y0174225D01*
G75*
G02*
X0428445Y0173865I0000492J-000852D01*
G01*
X0440059Y0153749D01*
G75*
G02*
X0439699Y0152404I-000852J-000492D01*
G01*
G37*
G36*
G01*
X0447899Y0138045D02*
X0445512Y0136667D01*
G75*
G02*
X0444167Y0137027I-000492J0000852D01*
G01*
X0440821Y0142823D01*
G75*
G02*
X0441181Y0144168I0000852J0000492D01*
G01*
X0443568Y0145546D01*
G75*
G02*
X0444912Y0145186I0000492J-000852D01*
G01*
X0448259Y0139389D01*
G75*
G02*
X0447899Y0138045I-000852J-000492D01*
G01*
G37*
D27*
X0087048Y0041441D03*
X0087048Y0066638D03*
X0087048Y0074118D03*
X0087048Y0091047D03*
D28*
X0085276Y0100496D03*
X0085276Y0104433D03*
D27*
X0087048Y0115654D03*
X0148071Y0039669D03*
X0148071Y0046953D03*
X0148071Y0066441D03*
X0148071Y0113882D03*
D12*
X0540469Y0181972D03*
X0540469Y0191028D03*
X0540469Y0200083D03*
D13*
X0515666Y0191028D03*
D12*
X0478650Y0181024D03*
X0478650Y0171969D03*
X0478650Y0162913D03*
D13*
X0503453Y0171969D03*
D15*
X0261874Y0223724D03*
G36*
G01*
X0560496Y0011945D02*
X0557819Y0011945D01*
G75*
G02*
X0557485Y0012280I0000000J0000335D01*
G01*
X0557485Y0014957D01*
G75*
G02*
X0557819Y0015291I0000335J0000000D01*
G01*
X0560496Y0015291D01*
G75*
G02*
X0560831Y0014957I0000000J-000335D01*
G01*
X0560831Y0012280D01*
G75*
G02*
X0560496Y0011945I-000335J0000000D01*
G01*
G37*
G36*
G01*
X0560496Y0018165D02*
X0557819Y0018165D01*
G75*
G02*
X0557485Y0018500I0000000J0000335D01*
G01*
X0557485Y0021177D01*
G75*
G02*
X0557819Y0021512I0000335J0000000D01*
G01*
X0560496Y0021512D01*
G75*
G02*
X0560831Y0021177I0000000J-000335D01*
G01*
X0560831Y0018500D01*
G75*
G02*
X0560496Y0018165I-000335J0000000D01*
G01*
G37*
G36*
G01*
X0387300Y0106438D02*
X0385764Y0109097D01*
G75*
G02*
X0385865Y0109474I0000239J0000138D01*
G01*
X0387775Y0110576D01*
G75*
G02*
X0388151Y0110475I0000138J-000239D01*
G01*
X0389687Y0107816D01*
G75*
G02*
X0389586Y0107440I-000239J-000138D01*
G01*
X0387676Y0106337D01*
G75*
G02*
X0387300Y0106438I-000138J0000239D01*
G01*
G37*
G36*
G01*
X0392755Y0109588D02*
X0391220Y0112247D01*
G75*
G02*
X0391321Y0112624I0000239J0000138D01*
G01*
X0393230Y0113726D01*
G75*
G02*
X0393606Y0113625I0000138J-000239D01*
G01*
X0395142Y0110966D01*
G75*
G02*
X0395041Y0110589I-000239J-000138D01*
G01*
X0393132Y0109487D01*
G75*
G02*
X0392755Y0109588I-000138J0000239D01*
G01*
G37*
G36*
G01*
X0100386Y0160795D02*
X0099048Y0160795D01*
G75*
G02*
X0098496Y0161347I0000000J0000551D01*
G01*
X0098496Y0162449D01*
G75*
G02*
X0099048Y0163000I0000551J0000000D01*
G01*
X0100386Y0163000D01*
G75*
G02*
X0100937Y0162449I0000000J-000551D01*
G01*
X0100937Y0161347D01*
G75*
G02*
X0100386Y0160795I-000551J0000000D01*
G01*
G37*
G36*
G01*
X0100386Y0164575D02*
X0099048Y0164575D01*
G75*
G02*
X0098496Y0165126I0000000J0000551D01*
G01*
X0098496Y0166228D01*
G75*
G02*
X0099048Y0166780I0000551J0000000D01*
G01*
X0100386Y0166780D01*
G75*
G02*
X0100937Y0166228I0000000J-000551D01*
G01*
X0100937Y0165126D01*
G75*
G02*
X0100386Y0164575I-000551J0000000D01*
G01*
G37*
G36*
G01*
X0477866Y0151791D02*
X0477866Y0154862D01*
G75*
G02*
X0478142Y0155138I0000276J0000000D01*
G01*
X0480347Y0155138D01*
G75*
G02*
X0480622Y0154862I0000000J-000276D01*
G01*
X0480622Y0151791D01*
G75*
G02*
X0480347Y0151516I-000276J0000000D01*
G01*
X0478142Y0151516D01*
G75*
G02*
X0477866Y0151791I0000000J0000276D01*
G01*
G37*
G36*
G01*
X0484166Y0151791D02*
X0484166Y0154862D01*
G75*
G02*
X0484441Y0155138I0000276J0000000D01*
G01*
X0486646Y0155138D01*
G75*
G02*
X0486922Y0154862I0000000J-000276D01*
G01*
X0486922Y0151791D01*
G75*
G02*
X0486646Y0151516I-000276J0000000D01*
G01*
X0484441Y0151516D01*
G75*
G02*
X0484166Y0151791I0000000J0000276D01*
G01*
G37*
G36*
G01*
X0126388Y0176489D02*
X0127726Y0176489D01*
G75*
G02*
X0128278Y0175938I0000000J-000551D01*
G01*
X0128278Y0174835D01*
G75*
G02*
X0127726Y0174284I-000551J0000000D01*
G01*
X0126388Y0174284D01*
G75*
G02*
X0125837Y0174835I0000000J0000551D01*
G01*
X0125837Y0175938D01*
G75*
G02*
X0126388Y0176489I0000551J0000000D01*
G01*
G37*
G36*
G01*
X0126388Y0172709D02*
X0127726Y0172709D01*
G75*
G02*
X0128278Y0172158I0000000J-000551D01*
G01*
X0128278Y0171056D01*
G75*
G02*
X0127726Y0170505I-000551J0000000D01*
G01*
X0126388Y0170505D01*
G75*
G02*
X0125837Y0171056I0000000J0000551D01*
G01*
X0125837Y0172158D01*
G75*
G02*
X0126388Y0172709I0000551J0000000D01*
G01*
G37*
G36*
G01*
X0065188Y0163565D02*
X0065188Y0162108D01*
G75*
G02*
X0064657Y0161577I-000531J0000000D01*
G01*
X0063594Y0161577D01*
G75*
G02*
X0063062Y0162108I0000000J0000531D01*
G01*
X0063062Y0163565D01*
G75*
G02*
X0063594Y0164097I0000531J0000000D01*
G01*
X0064657Y0164097D01*
G75*
G02*
X0065188Y0163565I0000000J-000531D01*
G01*
G37*
G36*
G01*
X0061172Y0163565D02*
X0061172Y0162108D01*
G75*
G02*
X0060641Y0161577I-000531J0000000D01*
G01*
X0059578Y0161577D01*
G75*
G02*
X0059046Y0162108I0000000J0000531D01*
G01*
X0059046Y0163565D01*
G75*
G02*
X0059578Y0164097I0000531J0000000D01*
G01*
X0060641Y0164097D01*
G75*
G02*
X0061172Y0163565I0000000J-000531D01*
G01*
G37*
G36*
G01*
X0041174Y0174511D02*
X0038953Y0174511D01*
G75*
G02*
X0038582Y0174881I0000000J0000370D01*
G01*
X0038582Y0182221D01*
G75*
G02*
X0038953Y0182591I0000370J0000000D01*
G01*
X0041174Y0182591D01*
G75*
G02*
X0041544Y0182221I0000000J-000370D01*
G01*
X0041544Y0174881D01*
G75*
G02*
X0041174Y0174511I-000370J0000000D01*
G01*
G37*
G36*
G01*
X0046174Y0174511D02*
X0043953Y0174511D01*
G75*
G02*
X0043582Y0174881I0000000J0000370D01*
G01*
X0043582Y0182221D01*
G75*
G02*
X0043953Y0182591I0000370J0000000D01*
G01*
X0046174Y0182591D01*
G75*
G02*
X0046544Y0182221I0000000J-000370D01*
G01*
X0046544Y0174881D01*
G75*
G02*
X0046174Y0174511I-000370J0000000D01*
G01*
G37*
G36*
G01*
X0051174Y0174511D02*
X0048953Y0174511D01*
G75*
G02*
X0048582Y0174881I0000000J0000370D01*
G01*
X0048582Y0182221D01*
G75*
G02*
X0048953Y0182591I0000370J0000000D01*
G01*
X0051174Y0182591D01*
G75*
G02*
X0051544Y0182221I0000000J-000370D01*
G01*
X0051544Y0174881D01*
G75*
G02*
X0051174Y0174511I-000370J0000000D01*
G01*
G37*
G36*
G01*
X0056174Y0174511D02*
X0053953Y0174511D01*
G75*
G02*
X0053582Y0174881I0000000J0000370D01*
G01*
X0053582Y0182221D01*
G75*
G02*
X0053953Y0182591I0000370J0000000D01*
G01*
X0056174Y0182591D01*
G75*
G02*
X0056544Y0182221I0000000J-000370D01*
G01*
X0056544Y0174881D01*
G75*
G02*
X0056174Y0174511I-000370J0000000D01*
G01*
G37*
G36*
G01*
X0061174Y0174511D02*
X0058953Y0174511D01*
G75*
G02*
X0058582Y0174881I0000000J0000370D01*
G01*
X0058582Y0182221D01*
G75*
G02*
X0058953Y0182591I0000370J0000000D01*
G01*
X0061174Y0182591D01*
G75*
G02*
X0061544Y0182221I0000000J-000370D01*
G01*
X0061544Y0174881D01*
G75*
G02*
X0061174Y0174511I-000370J0000000D01*
G01*
G37*
G36*
G01*
X0066174Y0174511D02*
X0063953Y0174511D01*
G75*
G02*
X0063582Y0174881I0000000J0000370D01*
G01*
X0063582Y0182221D01*
G75*
G02*
X0063953Y0182591I0000370J0000000D01*
G01*
X0066174Y0182591D01*
G75*
G02*
X0066544Y0182221I0000000J-000370D01*
G01*
X0066544Y0174881D01*
G75*
G02*
X0066174Y0174511I-000370J0000000D01*
G01*
G37*
G36*
G01*
X0071174Y0174511D02*
X0068953Y0174511D01*
G75*
G02*
X0068582Y0174881I0000000J0000370D01*
G01*
X0068582Y0182221D01*
G75*
G02*
X0068953Y0182591I0000370J0000000D01*
G01*
X0071174Y0182591D01*
G75*
G02*
X0071544Y0182221I0000000J-000370D01*
G01*
X0071544Y0174881D01*
G75*
G02*
X0071174Y0174511I-000370J0000000D01*
G01*
G37*
G36*
G01*
X0071174Y0193841D02*
X0068953Y0193841D01*
G75*
G02*
X0068582Y0194212I0000000J0000370D01*
G01*
X0068582Y0201551D01*
G75*
G02*
X0068953Y0201922I0000370J0000000D01*
G01*
X0071174Y0201922D01*
G75*
G02*
X0071544Y0201551I0000000J-000370D01*
G01*
X0071544Y0194212D01*
G75*
G02*
X0071174Y0193841I-000370J0000000D01*
G01*
G37*
G36*
G01*
X0066174Y0193841D02*
X0063953Y0193841D01*
G75*
G02*
X0063582Y0194212I0000000J0000370D01*
G01*
X0063582Y0201551D01*
G75*
G02*
X0063953Y0201922I0000370J0000000D01*
G01*
X0066174Y0201922D01*
G75*
G02*
X0066544Y0201551I0000000J-000370D01*
G01*
X0066544Y0194212D01*
G75*
G02*
X0066174Y0193841I-000370J0000000D01*
G01*
G37*
G36*
G01*
X0061174Y0193841D02*
X0058953Y0193841D01*
G75*
G02*
X0058582Y0194212I0000000J0000370D01*
G01*
X0058582Y0201551D01*
G75*
G02*
X0058953Y0201922I0000370J0000000D01*
G01*
X0061174Y0201922D01*
G75*
G02*
X0061544Y0201551I0000000J-000370D01*
G01*
X0061544Y0194212D01*
G75*
G02*
X0061174Y0193841I-000370J0000000D01*
G01*
G37*
G36*
G01*
X0056174Y0193841D02*
X0053953Y0193841D01*
G75*
G02*
X0053582Y0194212I0000000J0000370D01*
G01*
X0053582Y0201551D01*
G75*
G02*
X0053953Y0201922I0000370J0000000D01*
G01*
X0056174Y0201922D01*
G75*
G02*
X0056544Y0201551I0000000J-000370D01*
G01*
X0056544Y0194212D01*
G75*
G02*
X0056174Y0193841I-000370J0000000D01*
G01*
G37*
G36*
G01*
X0051174Y0193841D02*
X0048953Y0193841D01*
G75*
G02*
X0048582Y0194212I0000000J0000370D01*
G01*
X0048582Y0201551D01*
G75*
G02*
X0048953Y0201922I0000370J0000000D01*
G01*
X0051174Y0201922D01*
G75*
G02*
X0051544Y0201551I0000000J-000370D01*
G01*
X0051544Y0194212D01*
G75*
G02*
X0051174Y0193841I-000370J0000000D01*
G01*
G37*
G36*
G01*
X0046174Y0193841D02*
X0043953Y0193841D01*
G75*
G02*
X0043582Y0194212I0000000J0000370D01*
G01*
X0043582Y0201551D01*
G75*
G02*
X0043953Y0201922I0000370J0000000D01*
G01*
X0046174Y0201922D01*
G75*
G02*
X0046544Y0201551I0000000J-000370D01*
G01*
X0046544Y0194212D01*
G75*
G02*
X0046174Y0193841I-000370J0000000D01*
G01*
G37*
G36*
G01*
X0041174Y0193841D02*
X0038953Y0193841D01*
G75*
G02*
X0038582Y0194212I0000000J0000370D01*
G01*
X0038582Y0201551D01*
G75*
G02*
X0038953Y0201922I0000370J0000000D01*
G01*
X0041174Y0201922D01*
G75*
G02*
X0041544Y0201551I0000000J-000370D01*
G01*
X0041544Y0194212D01*
G75*
G02*
X0041174Y0193841I-000370J0000000D01*
G01*
G37*
G36*
G01*
X0432721Y0122718D02*
X0431186Y0125377D01*
G75*
G02*
X0431287Y0125753I0000239J0000138D01*
G01*
X0433196Y0126856D01*
G75*
G02*
X0433572Y0126755I0000138J-000239D01*
G01*
X0435108Y0124096D01*
G75*
G02*
X0435007Y0123719I-000239J-000138D01*
G01*
X0433098Y0122617D01*
G75*
G02*
X0432721Y0122718I-000138J0000239D01*
G01*
G37*
G36*
G01*
X0438176Y0125867D02*
X0436641Y0128527D01*
G75*
G02*
X0436742Y0128903I0000239J0000138D01*
G01*
X0438651Y0130005D01*
G75*
G02*
X0439028Y0129905I0000138J-000239D01*
G01*
X0440563Y0127245D01*
G75*
G02*
X0440462Y0126869I-000239J-000138D01*
G01*
X0438553Y0125766D01*
G75*
G02*
X0438176Y0125867I-000138J0000239D01*
G01*
G37*
D69*
X0234363Y0036177D03*
X0395780Y0036177D03*
D38*
X0259953Y0053894D03*
D39*
X0275701Y0053894D03*
X0291449Y0053894D03*
X0307197Y0053894D03*
X0322945Y0053894D03*
X0338693Y0053894D03*
X0354441Y0053894D03*
X0370189Y0053894D03*
X0267827Y0038146D03*
X0283575Y0038146D03*
X0299323Y0038146D03*
X0315071Y0038146D03*
X0330819Y0038146D03*
X0346567Y0038146D03*
X0362315Y0038146D03*
X0259953Y0022398D03*
X0275701Y0022398D03*
X0291449Y0022398D03*
X0307197Y0022398D03*
X0322945Y0022398D03*
X0338693Y0022398D03*
X0354441Y0022398D03*
X0370189Y0022398D03*
G36*
G01*
X0386585Y0112922D02*
X0384199Y0111544D01*
G75*
G02*
X0382854Y0111904I-000492J0000852D01*
G01*
X0379508Y0117700D01*
G75*
G02*
X0379868Y0119045I0000852J0000492D01*
G01*
X0382255Y0120423D01*
G75*
G02*
X0383599Y0120062I0000492J-000852D01*
G01*
X0386946Y0114266D01*
G75*
G02*
X0386585Y0112922I-000852J-000492D01*
G01*
G37*
G36*
G01*
X0393933Y0136257D02*
X0375863Y0125824D01*
G75*
G02*
X0374518Y0126185I-000492J0000852D01*
G01*
X0362904Y0146301D01*
G75*
G02*
X0363264Y0147645I0000852J0000492D01*
G01*
X0381335Y0158079D01*
G75*
G02*
X0382679Y0157718I0000492J-000852D01*
G01*
X0394294Y0137602D01*
G75*
G02*
X0393933Y0136257I-000852J-000492D01*
G01*
G37*
G36*
G01*
X0402133Y0121898D02*
X0399746Y0120520D01*
G75*
G02*
X0398402Y0120880I-000492J0000852D01*
G01*
X0395055Y0126676D01*
G75*
G02*
X0395415Y0128021I0000852J0000492D01*
G01*
X0397802Y0129399D01*
G75*
G02*
X0399147Y0129039I0000492J-000852D01*
G01*
X0402493Y0123242D01*
G75*
G02*
X0402133Y0121898I-000852J-000492D01*
G01*
G37*
D14*
X0017504Y0207284D03*
G36*
G01*
X0592111Y0233465D02*
X0592111Y0239764D01*
G75*
G02*
X0593095Y0240748I0000984J0000000D01*
G01*
X0599394Y0240748D01*
G75*
G02*
X0600378Y0239764I0000000J-000984D01*
G01*
X0600378Y0233465D01*
G75*
G02*
X0599394Y0232480I-000984J0000000D01*
G01*
X0593095Y0232480D01*
G75*
G02*
X0592111Y0233465I0000000J0000984D01*
G01*
G37*
G36*
G01*
X0569670Y0233465D02*
X0569670Y0239764D01*
G75*
G02*
X0570654Y0240748I0000984J0000000D01*
G01*
X0576953Y0240748D01*
G75*
G02*
X0577937Y0239764I0000000J-000984D01*
G01*
X0577937Y0233465D01*
G75*
G02*
X0576953Y0232480I-000984J0000000D01*
G01*
X0570654Y0232480D01*
G75*
G02*
X0569670Y0233465I0000000J0000984D01*
G01*
G37*
G36*
G01*
X0547229Y0233465D02*
X0547229Y0239764D01*
G75*
G02*
X0548213Y0240748I0000984J0000000D01*
G01*
X0554512Y0240748D01*
G75*
G02*
X0555496Y0239764I0000000J-000984D01*
G01*
X0555496Y0233465D01*
G75*
G02*
X0554512Y0232480I-000984J0000000D01*
G01*
X0548213Y0232480D01*
G75*
G02*
X0547229Y0233465I0000000J0000984D01*
G01*
G37*
G36*
G01*
X0524788Y0233465D02*
X0524788Y0239764D01*
G75*
G02*
X0525772Y0240748I0000984J0000000D01*
G01*
X0532071Y0240748D01*
G75*
G02*
X0533055Y0239764I0000000J-000984D01*
G01*
X0533055Y0233465D01*
G75*
G02*
X0532071Y0232480I-000984J0000000D01*
G01*
X0525772Y0232480D01*
G75*
G02*
X0524788Y0233465I0000000J0000984D01*
G01*
G37*
G36*
G01*
X0502347Y0233465D02*
X0502347Y0239764D01*
G75*
G02*
X0503331Y0240748I0000984J0000000D01*
G01*
X0509630Y0240748D01*
G75*
G02*
X0510614Y0239764I0000000J-000984D01*
G01*
X0510614Y0233465D01*
G75*
G02*
X0509630Y0232480I-000984J0000000D01*
G01*
X0503331Y0232480D01*
G75*
G02*
X0502347Y0233465I0000000J0000984D01*
G01*
G37*
G36*
G01*
X0479906Y0233465D02*
X0479906Y0239764D01*
G75*
G02*
X0480890Y0240748I0000984J0000000D01*
G01*
X0487189Y0240748D01*
G75*
G02*
X0488174Y0239764I0000000J-000984D01*
G01*
X0488174Y0233465D01*
G75*
G02*
X0487189Y0232480I-000984J0000000D01*
G01*
X0480890Y0232480D01*
G75*
G02*
X0479906Y0233465I0000000J0000984D01*
G01*
G37*
G36*
G01*
X0457465Y0233465D02*
X0457465Y0239764D01*
G75*
G02*
X0458449Y0240748I0000984J0000000D01*
G01*
X0464748Y0240748D01*
G75*
G02*
X0465733Y0239764I0000000J-000984D01*
G01*
X0465733Y0233465D01*
G75*
G02*
X0464748Y0232480I-000984J0000000D01*
G01*
X0458449Y0232480D01*
G75*
G02*
X0457465Y0233465I0000000J0000984D01*
G01*
G37*
G36*
G01*
X0435024Y0233465D02*
X0435024Y0239764D01*
G75*
G02*
X0436008Y0240748I0000984J0000000D01*
G01*
X0442307Y0240748D01*
G75*
G02*
X0443292Y0239764I0000000J-000984D01*
G01*
X0443292Y0233465D01*
G75*
G02*
X0442307Y0232480I-000984J0000000D01*
G01*
X0436008Y0232480D01*
G75*
G02*
X0435024Y0233465I0000000J0000984D01*
G01*
G37*
G36*
G01*
X0412583Y0233465D02*
X0412583Y0239764D01*
G75*
G02*
X0413567Y0240748I0000984J0000000D01*
G01*
X0419866Y0240748D01*
G75*
G02*
X0420851Y0239764I0000000J-000984D01*
G01*
X0420851Y0233465D01*
G75*
G02*
X0419866Y0232480I-000984J0000000D01*
G01*
X0413567Y0232480D01*
G75*
G02*
X0412583Y0233465I0000000J0000984D01*
G01*
G37*
G36*
G01*
X0390142Y0233465D02*
X0390142Y0239764D01*
G75*
G02*
X0391126Y0240748I0000984J0000000D01*
G01*
X0397426Y0240748D01*
G75*
G02*
X0398410Y0239764I0000000J-000984D01*
G01*
X0398410Y0233465D01*
G75*
G02*
X0397426Y0232480I-000984J0000000D01*
G01*
X0391126Y0232480D01*
G75*
G02*
X0390142Y0233465I0000000J0000984D01*
G01*
G37*
G36*
G01*
X0367701Y0233465D02*
X0367701Y0239764D01*
G75*
G02*
X0368685Y0240748I0000984J0000000D01*
G01*
X0374985Y0240748D01*
G75*
G02*
X0375969Y0239764I0000000J-000984D01*
G01*
X0375969Y0233465D01*
G75*
G02*
X0374985Y0232480I-000984J0000000D01*
G01*
X0368685Y0232480D01*
G75*
G02*
X0367701Y0233465I0000000J0000984D01*
G01*
G37*
G36*
G01*
X0592111Y0249606D02*
X0592111Y0255906D01*
G75*
G02*
X0593095Y0256890I0000984J0000000D01*
G01*
X0599394Y0256890D01*
G75*
G02*
X0600378Y0255906I0000000J-000984D01*
G01*
X0600378Y0249606D01*
G75*
G02*
X0599394Y0248622I-000984J0000000D01*
G01*
X0593095Y0248622D01*
G75*
G02*
X0592111Y0249606I0000000J0000984D01*
G01*
G37*
G36*
G01*
X0569670Y0249606D02*
X0569670Y0255906D01*
G75*
G02*
X0570654Y0256890I0000984J0000000D01*
G01*
X0576953Y0256890D01*
G75*
G02*
X0577937Y0255906I0000000J-000984D01*
G01*
X0577937Y0249606D01*
G75*
G02*
X0576953Y0248622I-000984J0000000D01*
G01*
X0570654Y0248622D01*
G75*
G02*
X0569670Y0249606I0000000J0000984D01*
G01*
G37*
G36*
G01*
X0547229Y0249606D02*
X0547229Y0255906D01*
G75*
G02*
X0548213Y0256890I0000984J0000000D01*
G01*
X0554512Y0256890D01*
G75*
G02*
X0555496Y0255906I0000000J-000984D01*
G01*
X0555496Y0249606D01*
G75*
G02*
X0554512Y0248622I-000984J0000000D01*
G01*
X0548213Y0248622D01*
G75*
G02*
X0547229Y0249606I0000000J0000984D01*
G01*
G37*
G36*
G01*
X0524788Y0249606D02*
X0524788Y0255906D01*
G75*
G02*
X0525772Y0256890I0000984J0000000D01*
G01*
X0532071Y0256890D01*
G75*
G02*
X0533055Y0255906I0000000J-000984D01*
G01*
X0533055Y0249606D01*
G75*
G02*
X0532071Y0248622I-000984J0000000D01*
G01*
X0525772Y0248622D01*
G75*
G02*
X0524788Y0249606I0000000J0000984D01*
G01*
G37*
G36*
G01*
X0502347Y0249606D02*
X0502347Y0255906D01*
G75*
G02*
X0503331Y0256890I0000984J0000000D01*
G01*
X0509630Y0256890D01*
G75*
G02*
X0510614Y0255906I0000000J-000984D01*
G01*
X0510614Y0249606D01*
G75*
G02*
X0509630Y0248622I-000984J0000000D01*
G01*
X0503331Y0248622D01*
G75*
G02*
X0502347Y0249606I0000000J0000984D01*
G01*
G37*
G36*
G01*
X0479906Y0249606D02*
X0479906Y0255906D01*
G75*
G02*
X0480890Y0256890I0000984J0000000D01*
G01*
X0487189Y0256890D01*
G75*
G02*
X0488174Y0255906I0000000J-000984D01*
G01*
X0488174Y0249606D01*
G75*
G02*
X0487189Y0248622I-000984J0000000D01*
G01*
X0480890Y0248622D01*
G75*
G02*
X0479906Y0249606I0000000J0000984D01*
G01*
G37*
G36*
G01*
X0457465Y0249606D02*
X0457465Y0255906D01*
G75*
G02*
X0458449Y0256890I0000984J0000000D01*
G01*
X0464748Y0256890D01*
G75*
G02*
X0465733Y0255906I0000000J-000984D01*
G01*
X0465733Y0249606D01*
G75*
G02*
X0464748Y0248622I-000984J0000000D01*
G01*
X0458449Y0248622D01*
G75*
G02*
X0457465Y0249606I0000000J0000984D01*
G01*
G37*
G36*
G01*
X0435024Y0249606D02*
X0435024Y0255906D01*
G75*
G02*
X0436008Y0256890I0000984J0000000D01*
G01*
X0442307Y0256890D01*
G75*
G02*
X0443292Y0255906I0000000J-000984D01*
G01*
X0443292Y0249606D01*
G75*
G02*
X0442307Y0248622I-000984J0000000D01*
G01*
X0436008Y0248622D01*
G75*
G02*
X0435024Y0249606I0000000J0000984D01*
G01*
G37*
G36*
G01*
X0412583Y0249606D02*
X0412583Y0255906D01*
G75*
G02*
X0413567Y0256890I0000984J0000000D01*
G01*
X0419866Y0256890D01*
G75*
G02*
X0420851Y0255906I0000000J-000984D01*
G01*
X0420851Y0249606D01*
G75*
G02*
X0419866Y0248622I-000984J0000000D01*
G01*
X0413567Y0248622D01*
G75*
G02*
X0412583Y0249606I0000000J0000984D01*
G01*
G37*
G36*
G01*
X0390142Y0249606D02*
X0390142Y0255906D01*
G75*
G02*
X0391126Y0256890I0000984J0000000D01*
G01*
X0397426Y0256890D01*
G75*
G02*
X0398410Y0255906I0000000J-000984D01*
G01*
X0398410Y0249606D01*
G75*
G02*
X0397426Y0248622I-000984J0000000D01*
G01*
X0391126Y0248622D01*
G75*
G02*
X0390142Y0249606I0000000J0000984D01*
G01*
G37*
G36*
G01*
X0367701Y0249606D02*
X0367701Y0255906D01*
G75*
G02*
X0368685Y0256890I0000984J0000000D01*
G01*
X0374985Y0256890D01*
G75*
G02*
X0375969Y0255906I0000000J-000984D01*
G01*
X0375969Y0249606D01*
G75*
G02*
X0374985Y0248622I-000984J0000000D01*
G01*
X0368685Y0248622D01*
G75*
G02*
X0367701Y0249606I0000000J0000984D01*
G01*
G37*
G36*
G01*
X0253528Y0233661D02*
X0253528Y0239961D01*
G75*
G02*
X0254512Y0240945I0000984J0000000D01*
G01*
X0260811Y0240945D01*
G75*
G02*
X0261796Y0239961I0000000J-000984D01*
G01*
X0261796Y0233661D01*
G75*
G02*
X0260811Y0232677I-000984J0000000D01*
G01*
X0254512Y0232677D01*
G75*
G02*
X0253528Y0233661I0000000J0000984D01*
G01*
G37*
G36*
G01*
X0231087Y0233661D02*
X0231087Y0239961D01*
G75*
G02*
X0232071Y0240945I0000984J0000000D01*
G01*
X0238370Y0240945D01*
G75*
G02*
X0239355Y0239961I0000000J-000984D01*
G01*
X0239355Y0233661D01*
G75*
G02*
X0238370Y0232677I-000984J0000000D01*
G01*
X0232071Y0232677D01*
G75*
G02*
X0231087Y0233661I0000000J0000984D01*
G01*
G37*
G36*
G01*
X0208646Y0233661D02*
X0208646Y0239961D01*
G75*
G02*
X0209630Y0240945I0000984J0000000D01*
G01*
X0215929Y0240945D01*
G75*
G02*
X0216914Y0239961I0000000J-000984D01*
G01*
X0216914Y0233661D01*
G75*
G02*
X0215929Y0232677I-000984J0000000D01*
G01*
X0209630Y0232677D01*
G75*
G02*
X0208646Y0233661I0000000J0000984D01*
G01*
G37*
G36*
G01*
X0186205Y0233661D02*
X0186205Y0239961D01*
G75*
G02*
X0187189Y0240945I0000984J0000000D01*
G01*
X0193489Y0240945D01*
G75*
G02*
X0194473Y0239961I0000000J-000984D01*
G01*
X0194473Y0233661D01*
G75*
G02*
X0193489Y0232677I-000984J0000000D01*
G01*
X0187189Y0232677D01*
G75*
G02*
X0186205Y0233661I0000000J0000984D01*
G01*
G37*
G36*
G01*
X0163764Y0233661D02*
X0163764Y0239961D01*
G75*
G02*
X0164748Y0240945I0000984J0000000D01*
G01*
X0171048Y0240945D01*
G75*
G02*
X0172032Y0239961I0000000J-000984D01*
G01*
X0172032Y0233661D01*
G75*
G02*
X0171048Y0232677I-000984J0000000D01*
G01*
X0164748Y0232677D01*
G75*
G02*
X0163764Y0233661I0000000J0000984D01*
G01*
G37*
G36*
G01*
X0141323Y0233661D02*
X0141323Y0239961D01*
G75*
G02*
X0142307Y0240945I0000984J0000000D01*
G01*
X0148607Y0240945D01*
G75*
G02*
X0149591Y0239961I0000000J-000984D01*
G01*
X0149591Y0233661D01*
G75*
G02*
X0148607Y0232677I-000984J0000000D01*
G01*
X0142307Y0232677D01*
G75*
G02*
X0141323Y0233661I0000000J0000984D01*
G01*
G37*
G36*
G01*
X0118882Y0233661D02*
X0118882Y0239961D01*
G75*
G02*
X0119866Y0240945I0000984J0000000D01*
G01*
X0126166Y0240945D01*
G75*
G02*
X0127150Y0239961I0000000J-000984D01*
G01*
X0127150Y0233661D01*
G75*
G02*
X0126166Y0232677I-000984J0000000D01*
G01*
X0119866Y0232677D01*
G75*
G02*
X0118882Y0233661I0000000J0000984D01*
G01*
G37*
G36*
G01*
X0096441Y0233661D02*
X0096441Y0239961D01*
G75*
G02*
X0097426Y0240945I0000984J0000000D01*
G01*
X0103725Y0240945D01*
G75*
G02*
X0104709Y0239961I0000000J-000984D01*
G01*
X0104709Y0233661D01*
G75*
G02*
X0103725Y0232677I-000984J0000000D01*
G01*
X0097426Y0232677D01*
G75*
G02*
X0096441Y0233661I0000000J0000984D01*
G01*
G37*
G36*
G01*
X0074000Y0233661D02*
X0074000Y0239961D01*
G75*
G02*
X0074985Y0240945I0000984J0000000D01*
G01*
X0081284Y0240945D01*
G75*
G02*
X0082268Y0239961I0000000J-000984D01*
G01*
X0082268Y0233661D01*
G75*
G02*
X0081284Y0232677I-000984J0000000D01*
G01*
X0074985Y0232677D01*
G75*
G02*
X0074000Y0233661I0000000J0000984D01*
G01*
G37*
G36*
G01*
X0051559Y0233661D02*
X0051559Y0239961D01*
G75*
G02*
X0052544Y0240945I0000984J0000000D01*
G01*
X0058843Y0240945D01*
G75*
G02*
X0059827Y0239961I0000000J-000984D01*
G01*
X0059827Y0233661D01*
G75*
G02*
X0058843Y0232677I-000984J0000000D01*
G01*
X0052544Y0232677D01*
G75*
G02*
X0051559Y0233661I0000000J0000984D01*
G01*
G37*
G36*
G01*
X0029118Y0233661D02*
X0029118Y0239961D01*
G75*
G02*
X0030103Y0240945I0000984J0000000D01*
G01*
X0036402Y0240945D01*
G75*
G02*
X0037386Y0239961I0000000J-000984D01*
G01*
X0037386Y0233661D01*
G75*
G02*
X0036402Y0232677I-000984J0000000D01*
G01*
X0030103Y0232677D01*
G75*
G02*
X0029118Y0233661I0000000J0000984D01*
G01*
G37*
G36*
G01*
X0253528Y0249803D02*
X0253528Y0256102D01*
G75*
G02*
X0254512Y0257087I0000984J0000000D01*
G01*
X0260811Y0257087D01*
G75*
G02*
X0261796Y0256102I0000000J-000984D01*
G01*
X0261796Y0249803D01*
G75*
G02*
X0260811Y0248819I-000984J0000000D01*
G01*
X0254512Y0248819D01*
G75*
G02*
X0253528Y0249803I0000000J0000984D01*
G01*
G37*
G36*
G01*
X0231087Y0249803D02*
X0231087Y0256102D01*
G75*
G02*
X0232071Y0257087I0000984J0000000D01*
G01*
X0238370Y0257087D01*
G75*
G02*
X0239355Y0256102I0000000J-000984D01*
G01*
X0239355Y0249803D01*
G75*
G02*
X0238370Y0248819I-000984J0000000D01*
G01*
X0232071Y0248819D01*
G75*
G02*
X0231087Y0249803I0000000J0000984D01*
G01*
G37*
G36*
G01*
X0208646Y0249803D02*
X0208646Y0256102D01*
G75*
G02*
X0209630Y0257087I0000984J0000000D01*
G01*
X0215929Y0257087D01*
G75*
G02*
X0216914Y0256102I0000000J-000984D01*
G01*
X0216914Y0249803D01*
G75*
G02*
X0215929Y0248819I-000984J0000000D01*
G01*
X0209630Y0248819D01*
G75*
G02*
X0208646Y0249803I0000000J0000984D01*
G01*
G37*
G36*
G01*
X0186205Y0249803D02*
X0186205Y0256102D01*
G75*
G02*
X0187189Y0257087I0000984J0000000D01*
G01*
X0193489Y0257087D01*
G75*
G02*
X0194473Y0256102I0000000J-000984D01*
G01*
X0194473Y0249803D01*
G75*
G02*
X0193489Y0248819I-000984J0000000D01*
G01*
X0187189Y0248819D01*
G75*
G02*
X0186205Y0249803I0000000J0000984D01*
G01*
G37*
G36*
G01*
X0163764Y0249803D02*
X0163764Y0256102D01*
G75*
G02*
X0164748Y0257087I0000984J0000000D01*
G01*
X0171048Y0257087D01*
G75*
G02*
X0172032Y0256102I0000000J-000984D01*
G01*
X0172032Y0249803D01*
G75*
G02*
X0171048Y0248819I-000984J0000000D01*
G01*
X0164748Y0248819D01*
G75*
G02*
X0163764Y0249803I0000000J0000984D01*
G01*
G37*
G36*
G01*
X0141323Y0249803D02*
X0141323Y0256102D01*
G75*
G02*
X0142307Y0257087I0000984J0000000D01*
G01*
X0148607Y0257087D01*
G75*
G02*
X0149591Y0256102I0000000J-000984D01*
G01*
X0149591Y0249803D01*
G75*
G02*
X0148607Y0248819I-000984J0000000D01*
G01*
X0142307Y0248819D01*
G75*
G02*
X0141323Y0249803I0000000J0000984D01*
G01*
G37*
G36*
G01*
X0118882Y0249803D02*
X0118882Y0256102D01*
G75*
G02*
X0119866Y0257087I0000984J0000000D01*
G01*
X0126166Y0257087D01*
G75*
G02*
X0127150Y0256102I0000000J-000984D01*
G01*
X0127150Y0249803D01*
G75*
G02*
X0126166Y0248819I-000984J0000000D01*
G01*
X0119866Y0248819D01*
G75*
G02*
X0118882Y0249803I0000000J0000984D01*
G01*
G37*
G36*
G01*
X0096441Y0249803D02*
X0096441Y0256102D01*
G75*
G02*
X0097426Y0257087I0000984J0000000D01*
G01*
X0103725Y0257087D01*
G75*
G02*
X0104709Y0256102I0000000J-000984D01*
G01*
X0104709Y0249803D01*
G75*
G02*
X0103725Y0248819I-000984J0000000D01*
G01*
X0097426Y0248819D01*
G75*
G02*
X0096441Y0249803I0000000J0000984D01*
G01*
G37*
G36*
G01*
X0074000Y0249803D02*
X0074000Y0256102D01*
G75*
G02*
X0074985Y0257087I0000984J0000000D01*
G01*
X0081284Y0257087D01*
G75*
G02*
X0082268Y0256102I0000000J-000984D01*
G01*
X0082268Y0249803D01*
G75*
G02*
X0081284Y0248819I-000984J0000000D01*
G01*
X0074985Y0248819D01*
G75*
G02*
X0074000Y0249803I0000000J0000984D01*
G01*
G37*
G36*
G01*
X0051559Y0249803D02*
X0051559Y0256102D01*
G75*
G02*
X0052544Y0257087I0000984J0000000D01*
G01*
X0058843Y0257087D01*
G75*
G02*
X0059827Y0256102I0000000J-000984D01*
G01*
X0059827Y0249803D01*
G75*
G02*
X0058843Y0248819I-000984J0000000D01*
G01*
X0052544Y0248819D01*
G75*
G02*
X0051559Y0249803I0000000J0000984D01*
G01*
G37*
G36*
G01*
X0029118Y0249803D02*
X0029118Y0256102D01*
G75*
G02*
X0030103Y0257087I0000984J0000000D01*
G01*
X0036402Y0257087D01*
G75*
G02*
X0037386Y0256102I0000000J-000984D01*
G01*
X0037386Y0249803D01*
G75*
G02*
X0036402Y0248819I-000984J0000000D01*
G01*
X0030103Y0248819D01*
G75*
G02*
X0029118Y0249803I0000000J0000984D01*
G01*
G37*
D15*
X0294835Y0221937D03*
X0242276Y0223158D03*
G36*
G01*
X0508575Y0187370D02*
X0508575Y0184299D01*
G75*
G02*
X0508300Y0184024I-000276J0000000D01*
G01*
X0506095Y0184024D01*
G75*
G02*
X0505819Y0184299I0000000J0000276D01*
G01*
X0505819Y0187370D01*
G75*
G02*
X0506095Y0187646I0000276J0000000D01*
G01*
X0508300Y0187646D01*
G75*
G02*
X0508575Y0187370I0000000J-000276D01*
G01*
G37*
G36*
G01*
X0502276Y0187370D02*
X0502276Y0184299D01*
G75*
G02*
X0502000Y0184024I-000276J0000000D01*
G01*
X0499796Y0184024D01*
G75*
G02*
X0499520Y0184299I0000000J0000276D01*
G01*
X0499520Y0187370D01*
G75*
G02*
X0499796Y0187646I0000276J0000000D01*
G01*
X0502000Y0187646D01*
G75*
G02*
X0502276Y0187370I0000000J-000276D01*
G01*
G37*
G36*
G01*
X0607532Y0124122D02*
X0607532Y0121051D01*
G75*
G02*
X0607256Y0120776I-000276J0000000D01*
G01*
X0605052Y0120776D01*
G75*
G02*
X0604776Y0121051I0000000J0000276D01*
G01*
X0604776Y0124122D01*
G75*
G02*
X0605052Y0124398I0000276J0000000D01*
G01*
X0607256Y0124398D01*
G75*
G02*
X0607532Y0124122I0000000J-000276D01*
G01*
G37*
G36*
G01*
X0601233Y0124122D02*
X0601233Y0121051D01*
G75*
G02*
X0600957Y0120776I-000276J0000000D01*
G01*
X0598752Y0120776D01*
G75*
G02*
X0598477Y0121051I0000000J0000276D01*
G01*
X0598477Y0124122D01*
G75*
G02*
X0598752Y0124398I0000276J0000000D01*
G01*
X0600957Y0124398D01*
G75*
G02*
X0601233Y0124122I0000000J-000276D01*
G01*
G37*
D16*
X0555083Y0052835D03*
D17*
X0555083Y0062835D03*
D14*
X0523548Y0018189D03*
G36*
G01*
X0135642Y0151110D02*
X0134185Y0151110D01*
G75*
G02*
X0133654Y0151642I0000000J0000531D01*
G01*
X0133654Y0152705D01*
G75*
G02*
X0134185Y0153236I0000531J0000000D01*
G01*
X0135642Y0153236D01*
G75*
G02*
X0136174Y0152705I0000000J-000531D01*
G01*
X0136174Y0151642D01*
G75*
G02*
X0135642Y0151110I-000531J0000000D01*
G01*
G37*
G36*
G01*
X0135642Y0155126D02*
X0134185Y0155126D01*
G75*
G02*
X0133654Y0155658I0000000J0000531D01*
G01*
X0133654Y0156721D01*
G75*
G02*
X0134185Y0157252I0000531J0000000D01*
G01*
X0135642Y0157252D01*
G75*
G02*
X0136174Y0156721I0000000J-000531D01*
G01*
X0136174Y0155658D01*
G75*
G02*
X0135642Y0155126I-000531J0000000D01*
G01*
G37*
D12*
X0572855Y0181354D03*
X0572855Y0172299D03*
X0572855Y0163244D03*
D13*
X0597658Y0172299D03*
D40*
X0467611Y0022032D03*
D41*
X0470760Y0028921D03*
X0473910Y0022032D03*
X0477059Y0028921D03*
X0480209Y0022032D03*
D42*
X0459540Y0025476D03*
X0488280Y0025476D03*
G36*
G01*
X0076793Y0205860D02*
X0078761Y0205860D01*
G75*
G02*
X0079647Y0204974I0000000J-000886D01*
G01*
X0079647Y0203202D01*
G75*
G02*
X0078761Y0202316I-000886J0000000D01*
G01*
X0076793Y0202316D01*
G75*
G02*
X0075907Y0203202I0000000J0000886D01*
G01*
X0075907Y0204974D01*
G75*
G02*
X0076793Y0205860I0000886J0000000D01*
G01*
G37*
G36*
G01*
X0076793Y0199757D02*
X0078761Y0199757D01*
G75*
G02*
X0079647Y0198871I0000000J-000886D01*
G01*
X0079647Y0197100D01*
G75*
G02*
X0078761Y0196214I-000886J0000000D01*
G01*
X0076793Y0196214D01*
G75*
G02*
X0075907Y0197100I0000000J0000886D01*
G01*
X0075907Y0198871D01*
G75*
G02*
X0076793Y0199757I0000886J0000000D01*
G01*
G37*
G36*
G01*
X0074579Y0105441D02*
X0076036Y0105441D01*
G75*
G02*
X0076567Y0104909I0000000J-000531D01*
G01*
X0076567Y0103847D01*
G75*
G02*
X0076036Y0103315I-000531J0000000D01*
G01*
X0074579Y0103315D01*
G75*
G02*
X0074048Y0103847I0000000J0000531D01*
G01*
X0074048Y0104909D01*
G75*
G02*
X0074579Y0105441I0000531J0000000D01*
G01*
G37*
G36*
G01*
X0074579Y0101425D02*
X0076036Y0101425D01*
G75*
G02*
X0076567Y0100894I0000000J-000531D01*
G01*
X0076567Y0099831D01*
G75*
G02*
X0076036Y0099299I-000531J0000000D01*
G01*
X0074579Y0099299D01*
G75*
G02*
X0074048Y0099831I0000000J0000531D01*
G01*
X0074048Y0100894D01*
G75*
G02*
X0074579Y0101425I0000531J0000000D01*
G01*
G37*
G36*
G01*
X0444942Y0166153D02*
X0447602Y0167689D01*
G75*
G02*
X0447978Y0167588I0000138J-000239D01*
G01*
X0449081Y0165679D01*
G75*
G02*
X0448980Y0165302I-000239J-000138D01*
G01*
X0446320Y0163767D01*
G75*
G02*
X0445944Y0163868I-000138J0000239D01*
G01*
X0444841Y0165777D01*
G75*
G02*
X0444942Y0166153I0000239J0000138D01*
G01*
G37*
G36*
G01*
X0448092Y0160698D02*
X0450751Y0162233D01*
G75*
G02*
X0451128Y0162133I0000138J-000239D01*
G01*
X0452230Y0160223D01*
G75*
G02*
X0452129Y0159847I-000239J-000138D01*
G01*
X0449470Y0158311D01*
G75*
G02*
X0449093Y0158412I-000138J0000239D01*
G01*
X0447991Y0160322D01*
G75*
G02*
X0448092Y0160698I0000239J0000138D01*
G01*
G37*
G36*
G01*
X0397330Y0158407D02*
X0394671Y0156871D01*
G75*
G02*
X0394294Y0156972I-000138J0000239D01*
G01*
X0393192Y0158881D01*
G75*
G02*
X0393293Y0159258I0000239J0000138D01*
G01*
X0395952Y0160793D01*
G75*
G02*
X0396329Y0160692I0000138J-000239D01*
G01*
X0397431Y0158783D01*
G75*
G02*
X0397330Y0158407I-000239J-000138D01*
G01*
G37*
G36*
G01*
X0394180Y0163862D02*
X0391521Y0162326D01*
G75*
G02*
X0391145Y0162427I-000138J0000239D01*
G01*
X0390042Y0164337D01*
G75*
G02*
X0390143Y0164713I0000239J0000138D01*
G01*
X0392802Y0166249D01*
G75*
G02*
X0393179Y0166148I0000138J-000239D01*
G01*
X0394281Y0164238D01*
G75*
G02*
X0394180Y0163862I-000239J-000138D01*
G01*
G37*
D12*
X0589599Y0149807D03*
X0589599Y0140752D03*
X0589599Y0131697D03*
D13*
X0614402Y0140752D03*
G36*
G01*
X0092276Y0145898D02*
X0092276Y0147355D01*
G75*
G02*
X0092808Y0147887I0000531J0000000D01*
G01*
X0093871Y0147887D01*
G75*
G02*
X0094402Y0147355I0000000J-000531D01*
G01*
X0094402Y0145898D01*
G75*
G02*
X0093871Y0145367I-000531J0000000D01*
G01*
X0092808Y0145367D01*
G75*
G02*
X0092276Y0145898I0000000J0000531D01*
G01*
G37*
G36*
G01*
X0096292Y0145898D02*
X0096292Y0147355D01*
G75*
G02*
X0096824Y0147887I0000531J0000000D01*
G01*
X0097887Y0147887D01*
G75*
G02*
X0098418Y0147355I0000000J-000531D01*
G01*
X0098418Y0145898D01*
G75*
G02*
X0097887Y0145367I-000531J0000000D01*
G01*
X0096824Y0145367D01*
G75*
G02*
X0096292Y0145898I0000000J0000531D01*
G01*
G37*
D43*
X0100546Y0222651D03*
G36*
G01*
X0101785Y0216401D02*
X0099864Y0218322D01*
G75*
G02*
X0099864Y0219603I0000640J0000640D01*
G01*
X0103594Y0223333D01*
G75*
G02*
X0104875Y0223333I0000640J-000640D01*
G01*
X0106796Y0221412D01*
G75*
G02*
X0106796Y0220132I-000640J-000640D01*
G01*
X0103065Y0216401D01*
G75*
G02*
X0101785Y0216401I-000640J0000640D01*
G01*
G37*
G36*
G01*
X0109858Y0208328D02*
X0107937Y0210249D01*
G75*
G02*
X0107937Y0211530I0000640J0000640D01*
G01*
X0111668Y0215260D01*
G75*
G02*
X0112948Y0215260I0000640J-000640D01*
G01*
X0114869Y0213339D01*
G75*
G02*
X0114869Y0212059I-000640J-000640D01*
G01*
X0111139Y0208328D01*
G75*
G02*
X0109858Y0208328I-000640J0000640D01*
G01*
G37*
X0114187Y0209010D03*
D56*
X0566654Y0084347D03*
X0566654Y0078441D03*
X0566654Y0072535D03*
X0566654Y0066630D03*
X0566654Y0060724D03*
X0566654Y0054819D03*
X0566654Y0048913D03*
X0566654Y0043008D03*
X0566654Y0037102D03*
X0566654Y0031197D03*
X0566654Y0025291D03*
X0566654Y0019386D03*
X0566654Y0013480D03*
X0616654Y0013480D03*
X0616654Y0019386D03*
X0616654Y0025291D03*
X0616654Y0031197D03*
X0616654Y0037102D03*
X0616654Y0043008D03*
X0616654Y0048913D03*
X0616654Y0054819D03*
X0616654Y0060724D03*
X0616654Y0066630D03*
X0616654Y0072535D03*
X0616654Y0078441D03*
X0616654Y0084347D03*
G36*
G01*
X0055076Y0167488D02*
X0055076Y0168945D01*
G75*
G02*
X0055608Y0169477I0000531J0000000D01*
G01*
X0056671Y0169477D01*
G75*
G02*
X0057202Y0168945I0000000J-000531D01*
G01*
X0057202Y0167488D01*
G75*
G02*
X0056671Y0166957I-000531J0000000D01*
G01*
X0055608Y0166957D01*
G75*
G02*
X0055076Y0167488I0000000J0000531D01*
G01*
G37*
G36*
G01*
X0059092Y0167488D02*
X0059092Y0168945D01*
G75*
G02*
X0059624Y0169477I0000531J0000000D01*
G01*
X0060687Y0169477D01*
G75*
G02*
X0061218Y0168945I0000000J-000531D01*
G01*
X0061218Y0167488D01*
G75*
G02*
X0060687Y0166957I-000531J0000000D01*
G01*
X0059624Y0166957D01*
G75*
G02*
X0059092Y0167488I0000000J0000531D01*
G01*
G37*
G36*
G01*
X0074636Y0181808D02*
X0074636Y0183265D01*
G75*
G02*
X0075168Y0183797I0000531J0000000D01*
G01*
X0076231Y0183797D01*
G75*
G02*
X0076762Y0183265I0000000J-000531D01*
G01*
X0076762Y0181808D01*
G75*
G02*
X0076231Y0181277I-000531J0000000D01*
G01*
X0075168Y0181277D01*
G75*
G02*
X0074636Y0181808I0000000J0000531D01*
G01*
G37*
G36*
G01*
X0078652Y0181808D02*
X0078652Y0183265D01*
G75*
G02*
X0079184Y0183797I0000531J0000000D01*
G01*
X0080247Y0183797D01*
G75*
G02*
X0080778Y0183265I0000000J-000531D01*
G01*
X0080778Y0181808D01*
G75*
G02*
X0080247Y0181277I-000531J0000000D01*
G01*
X0079184Y0181277D01*
G75*
G02*
X0078652Y0181808I0000000J0000531D01*
G01*
G37*
G36*
G01*
X0512906Y0119654D02*
X0512906Y0116583D01*
G75*
G02*
X0512630Y0116307I-000276J0000000D01*
G01*
X0510426Y0116307D01*
G75*
G02*
X0510150Y0116583I0000000J0000276D01*
G01*
X0510150Y0119654D01*
G75*
G02*
X0510426Y0119929I0000276J0000000D01*
G01*
X0512630Y0119929D01*
G75*
G02*
X0512906Y0119654I0000000J-000276D01*
G01*
G37*
G36*
G01*
X0506607Y0119654D02*
X0506607Y0116583D01*
G75*
G02*
X0506331Y0116307I-000276J0000000D01*
G01*
X0504126Y0116307D01*
G75*
G02*
X0503851Y0116583I0000000J0000276D01*
G01*
X0503851Y0119654D01*
G75*
G02*
X0504126Y0119929I0000276J0000000D01*
G01*
X0506331Y0119929D01*
G75*
G02*
X0506607Y0119654I0000000J-000276D01*
G01*
G37*
D43*
X0101357Y0206797D03*
G36*
G01*
X0102596Y0200547D02*
X0100675Y0202468D01*
G75*
G02*
X0100675Y0203749I0000640J0000640D01*
G01*
X0104405Y0207479D01*
G75*
G02*
X0105686Y0207479I0000640J-000640D01*
G01*
X0107607Y0205558D01*
G75*
G02*
X0107607Y0204278I-000640J-000640D01*
G01*
X0103876Y0200547D01*
G75*
G02*
X0102596Y0200547I-000640J0000640D01*
G01*
G37*
G36*
G01*
X0110669Y0192474D02*
X0108748Y0194395D01*
G75*
G02*
X0108748Y0195675I0000640J0000640D01*
G01*
X0112479Y0199406D01*
G75*
G02*
X0113759Y0199406I0000640J-000640D01*
G01*
X0115680Y0197485D01*
G75*
G02*
X0115680Y0196204I-000640J-000640D01*
G01*
X0111950Y0192474D01*
G75*
G02*
X0110669Y0192474I-000640J0000640D01*
G01*
G37*
X0114998Y0193156D03*
G36*
G01*
X0098963Y0181040D02*
X0100931Y0181040D01*
G75*
G02*
X0101817Y0180154I0000000J-000886D01*
G01*
X0101817Y0178382D01*
G75*
G02*
X0100931Y0177496I-000886J0000000D01*
G01*
X0098963Y0177496D01*
G75*
G02*
X0098077Y0178382I0000000J0000886D01*
G01*
X0098077Y0180154D01*
G75*
G02*
X0098963Y0181040I0000886J0000000D01*
G01*
G37*
G36*
G01*
X0098963Y0174937D02*
X0100931Y0174937D01*
G75*
G02*
X0101817Y0174051I0000000J-000886D01*
G01*
X0101817Y0172280D01*
G75*
G02*
X0100931Y0171394I-000886J0000000D01*
G01*
X0098963Y0171394D01*
G75*
G02*
X0098077Y0172280I0000000J0000886D01*
G01*
X0098077Y0174051D01*
G75*
G02*
X0098963Y0174937I0000886J0000000D01*
G01*
G37*
D15*
X0250268Y0223158D03*
G36*
G01*
X0122650Y0214071D02*
X0119579Y0214071D01*
G75*
G02*
X0119303Y0214347I0000000J0000276D01*
G01*
X0119303Y0216551D01*
G75*
G02*
X0119579Y0216827I0000276J0000000D01*
G01*
X0122650Y0216827D01*
G75*
G02*
X0122926Y0216551I0000000J-000276D01*
G01*
X0122926Y0214347D01*
G75*
G02*
X0122650Y0214071I-000276J0000000D01*
G01*
G37*
G36*
G01*
X0122650Y0220370D02*
X0119579Y0220370D01*
G75*
G02*
X0119303Y0220646I0000000J0000276D01*
G01*
X0119303Y0222850D01*
G75*
G02*
X0119579Y0223126I0000276J0000000D01*
G01*
X0122650Y0223126D01*
G75*
G02*
X0122926Y0222850I0000000J-000276D01*
G01*
X0122926Y0220646D01*
G75*
G02*
X0122650Y0220370I-000276J0000000D01*
G01*
G37*
D12*
X0572696Y0221972D03*
X0572696Y0212917D03*
X0572696Y0203862D03*
D13*
X0597499Y0212917D03*
G36*
G01*
X0139978Y0147345D02*
X0139978Y0145888D01*
G75*
G02*
X0139447Y0145357I-000531J0000000D01*
G01*
X0138384Y0145357D01*
G75*
G02*
X0137852Y0145888I0000000J0000531D01*
G01*
X0137852Y0147345D01*
G75*
G02*
X0138384Y0147877I0000531J0000000D01*
G01*
X0139447Y0147877D01*
G75*
G02*
X0139978Y0147345I0000000J-000531D01*
G01*
G37*
G36*
G01*
X0135962Y0147345D02*
X0135962Y0145888D01*
G75*
G02*
X0135431Y0145357I-000531J0000000D01*
G01*
X0134368Y0145357D01*
G75*
G02*
X0133836Y0145888I0000000J0000531D01*
G01*
X0133836Y0147345D01*
G75*
G02*
X0134368Y0147877I0000531J0000000D01*
G01*
X0135431Y0147877D01*
G75*
G02*
X0135962Y0147345I0000000J-000531D01*
G01*
G37*
X0150941Y0118728D02*
G01*
G75*
D292*
X0105862Y0094361D02*
D03*
X0105862Y0112078D02*
D03*
D293*
X0109189Y0069909D02*
D03*
X0136551Y0069909D02*
D03*
D294*
X0120429Y0093137D02*
D03*
X0136571Y0093137D02*
D03*
D295*
X0118658Y0111248D02*
D03*
X0134406Y0111248D02*
D03*
D296*
X0141597Y0049470D02*
D03*
X0132345Y0053210D02*
D03*
D296*
X0132345Y0045730D02*
D03*
D297*
X0109510Y0039791D02*
D03*
D297*
X0109510Y0043531D02*
D03*
X0109510Y0047271D02*
D03*
X0101046Y0047271D02*
D03*
X0101046Y0039791D02*
D03*
D298*
X0097194Y0053792D02*
D03*
X0110186Y0053792D02*
D03*
D299*
X0115480Y0053504D02*
D03*
X0126898Y0053504D02*
D03*
D300*
X0096295Y0086051D02*
D03*
X0102516Y0086051D02*
D03*
X0106886Y0086051D02*
D03*
X0113106Y0086051D02*
D03*
D301*
X0146972Y0108940D02*
D03*
X0146972Y0104806D02*
D03*
X0096417Y0067066D02*
D03*
X0096417Y0062932D02*
D03*
X0096417Y0071779D02*
D03*
X0096417Y0075913D02*
D03*
X0095525Y0091428D02*
D03*
X0095525Y0095562D02*
D03*
D302*
X0114628Y0047221D02*
D03*
X0114628Y0043284D02*
D03*
X0128303Y0046319D02*
D03*
X0119642Y0046319D02*
D03*
X0128303Y0039922D02*
D03*
X0119642Y0039922D02*
D03*
D303*
X0136676Y0039791D02*
D03*
X0133132Y0039791D02*
D03*
D304*
X0100675Y0063129D02*
D03*
X0100675Y0066673D02*
D03*
X0100675Y0072173D02*
D03*
X0100675Y0075716D02*
D03*
X0095525Y0103729D02*
D03*
X0095525Y0100185D02*
D03*
D120*
X0085193Y0100618D02*
D03*
X0085193Y0104555D02*
D03*
D121*
X0147988Y0047075D02*
D03*
X0147988Y0114004D02*
D03*
X0147988Y0066563D02*
D03*
X0086965Y0066760D02*
D03*
X0086965Y0041563D02*
D03*
X0086965Y0091169D02*
D03*
X0086965Y0074240D02*
D03*
X0086965Y0115775D02*
D03*
X0147988Y0039791D02*
D03*
X0547559Y0096898D02*
%LPD*%
G01*
G36*
G01*
X0479951Y0061189D02*
X0481309Y0061189D01*
G75*
G02*
X0481890Y0060609I0000000J-000581D01*
G01*
X0481890Y0059447D01*
G75*
G02*
X0481309Y0058867I-000581J0000000D01*
G01*
X0479951Y0058867D01*
G75*
G02*
X0479370Y0059447I0000000J0000581D01*
G01*
X0479370Y0060609D01*
G75*
G02*
X0479951Y0061189I0000581J0000000D01*
G01*
G37*
G36*
G01*
X0479951Y0057370D02*
X0481309Y0057370D01*
G75*
G02*
X0481890Y0056790I0000000J-000581D01*
G01*
X0481890Y0055628D01*
G75*
G02*
X0481309Y0055048I-000581J0000000D01*
G01*
X0479951Y0055048D01*
G75*
G02*
X0479370Y0055628I0000000J0000581D01*
G01*
X0479370Y0056790D01*
G75*
G02*
X0479951Y0057370I0000581J0000000D01*
G01*
G37*
G36*
G01*
X0538524Y0076613D02*
X0538524Y0075254D01*
G75*
G02*
X0537943Y0074674I-000581J0000000D01*
G01*
X0536781Y0074674D01*
G75*
G02*
X0536201Y0075254I0000000J0000581D01*
G01*
X0536201Y0076613D01*
G75*
G02*
X0536781Y0077193I0000581J0000000D01*
G01*
X0537943Y0077193D01*
G75*
G02*
X0538524Y0076613I0000000J-000581D01*
G01*
G37*
G36*
G01*
X0534705Y0076613D02*
X0534705Y0075254D01*
G75*
G02*
X0534124Y0074674I-000581J0000000D01*
G01*
X0532963Y0074674D01*
G75*
G02*
X0532382Y0075254I0000000J0000581D01*
G01*
X0532382Y0076613D01*
G75*
G02*
X0532963Y0077193I0000581J0000000D01*
G01*
X0534124Y0077193D01*
G75*
G02*
X0534705Y0076613I0000000J-000581D01*
G01*
G37*
G36*
G01*
X0527997Y0061416D02*
X0525979Y0061416D01*
G75*
G02*
X0525118Y0062277I0000000J0000861D01*
G01*
X0525118Y0063999D01*
G75*
G02*
X0525979Y0064861I0000861J0000000D01*
G01*
X0527997Y0064861D01*
G75*
G02*
X0528858Y0063999I0000000J-000861D01*
G01*
X0528858Y0062277D01*
G75*
G02*
X0527997Y0061416I-000861J0000000D01*
G01*
G37*
G36*
G01*
X0527997Y0067617D02*
X0525979Y0067617D01*
G75*
G02*
X0525118Y0068478I0000000J0000861D01*
G01*
X0525118Y0070200D01*
G75*
G02*
X0525979Y0071061I0000861J0000000D01*
G01*
X0527997Y0071061D01*
G75*
G02*
X0528858Y0070200I0000000J-000861D01*
G01*
X0528858Y0068478D01*
G75*
G02*
X0527997Y0067617I-000861J0000000D01*
G01*
G37*
G36*
G01*
X0481506Y0086445D02*
X0480148Y0086445D01*
G75*
G02*
X0479567Y0087026I0000000J0000581D01*
G01*
X0479567Y0088187D01*
G75*
G02*
X0480148Y0088768I0000581J0000000D01*
G01*
X0481506Y0088768D01*
G75*
G02*
X0482087Y0088187I0000000J-000581D01*
G01*
X0482087Y0087026D01*
G75*
G02*
X0481506Y0086445I-000581J0000000D01*
G01*
G37*
G36*
G01*
X0481506Y0090264D02*
X0480148Y0090264D01*
G75*
G02*
X0479567Y0090845I0000000J0000581D01*
G01*
X0479567Y0092006D01*
G75*
G02*
X0480148Y0092587I0000581J0000000D01*
G01*
X0481506Y0092587D01*
G75*
G02*
X0482087Y0092006I0000000J-000581D01*
G01*
X0482087Y0090845D01*
G75*
G02*
X0481506Y0090264I-000581J0000000D01*
G01*
G37*
D134*
X0532697Y0070618D03*
X0532697Y0063138D03*
X0540571Y0066878D03*
G36*
G01*
X0485689Y0086445D02*
X0484331Y0086445D01*
G75*
G02*
X0483750Y0087026I0000000J0000581D01*
G01*
X0483750Y0088187D01*
G75*
G02*
X0484331Y0088768I0000581J0000000D01*
G01*
X0485689Y0088768D01*
G75*
G02*
X0486270Y0088187I0000000J-000581D01*
G01*
X0486270Y0087026D01*
G75*
G02*
X0485689Y0086445I-000581J0000000D01*
G01*
G37*
G36*
G01*
X0485689Y0090264D02*
X0484331Y0090264D01*
G75*
G02*
X0483750Y0090845I0000000J0000581D01*
G01*
X0483750Y0092006D01*
G75*
G02*
X0484331Y0092587I0000581J0000000D01*
G01*
X0485689Y0092587D01*
G75*
G02*
X0486270Y0092006I0000000J-000581D01*
G01*
X0486270Y0090845D01*
G75*
G02*
X0485689Y0090264I-000581J0000000D01*
G01*
G37*
G36*
G01*
X0481309Y0062528D02*
X0479951Y0062528D01*
G75*
G02*
X0479370Y0063109I0000000J0000581D01*
G01*
X0479370Y0064270D01*
G75*
G02*
X0479951Y0064851I0000581J0000000D01*
G01*
X0481309Y0064851D01*
G75*
G02*
X0481890Y0064270I0000000J-000581D01*
G01*
X0481890Y0063109D01*
G75*
G02*
X0481309Y0062528I-000581J0000000D01*
G01*
G37*
G36*
G01*
X0481309Y0066347D02*
X0479951Y0066347D01*
G75*
G02*
X0479370Y0066928I0000000J0000581D01*
G01*
X0479370Y0068089D01*
G75*
G02*
X0479951Y0068670I0000581J0000000D01*
G01*
X0481309Y0068670D01*
G75*
G02*
X0481890Y0068089I0000000J-000581D01*
G01*
X0481890Y0066928D01*
G75*
G02*
X0481309Y0066347I-000581J0000000D01*
G01*
G37*
G36*
G01*
X0485069Y0050264D02*
X0486427Y0050264D01*
G75*
G02*
X0487008Y0049683I0000000J-000581D01*
G01*
X0487008Y0048522D01*
G75*
G02*
X0486427Y0047941I-000581J0000000D01*
G01*
X0485069Y0047941D01*
G75*
G02*
X0484488Y0048522I0000000J0000581D01*
G01*
X0484488Y0049683D01*
G75*
G02*
X0485069Y0050264I0000581J0000000D01*
G01*
G37*
G36*
G01*
X0485069Y0046445D02*
X0486427Y0046445D01*
G75*
G02*
X0487008Y0045865I0000000J-000581D01*
G01*
X0487008Y0044703D01*
G75*
G02*
X0486427Y0044122I-000581J0000000D01*
G01*
X0485069Y0044122D01*
G75*
G02*
X0484488Y0044703I0000000J0000581D01*
G01*
X0484488Y0045865D01*
G75*
G02*
X0485069Y0046445I0000581J0000000D01*
G01*
G37*
G36*
G01*
X0479951Y0077036D02*
X0481309Y0077036D01*
G75*
G02*
X0481890Y0076455I0000000J-000581D01*
G01*
X0481890Y0075294D01*
G75*
G02*
X0481309Y0074713I-000581J0000000D01*
G01*
X0479951Y0074713D01*
G75*
G02*
X0479370Y0075294I0000000J0000581D01*
G01*
X0479370Y0076455D01*
G75*
G02*
X0479951Y0077036I0000581J0000000D01*
G01*
G37*
G36*
G01*
X0479951Y0073217D02*
X0481309Y0073217D01*
G75*
G02*
X0481890Y0072636I0000000J-000581D01*
G01*
X0481890Y0071475D01*
G75*
G02*
X0481309Y0070894I-000581J0000000D01*
G01*
X0479951Y0070894D01*
G75*
G02*
X0479370Y0071475I0000000J0000581D01*
G01*
X0479370Y0072636D01*
G75*
G02*
X0479951Y0073217I0000581J0000000D01*
G01*
G37*
G36*
G01*
X0519715Y0050264D02*
X0521073Y0050264D01*
G75*
G02*
X0521653Y0049683I0000000J-000581D01*
G01*
X0521653Y0048522D01*
G75*
G02*
X0521073Y0047941I-000581J0000000D01*
G01*
X0519715Y0047941D01*
G75*
G02*
X0519134Y0048522I0000000J0000581D01*
G01*
X0519134Y0049683D01*
G75*
G02*
X0519715Y0050264I0000581J0000000D01*
G01*
G37*
G36*
G01*
X0519715Y0046445D02*
X0521073Y0046445D01*
G75*
G02*
X0521653Y0045865I0000000J-000581D01*
G01*
X0521653Y0044703D01*
G75*
G02*
X0521073Y0044122I-000581J0000000D01*
G01*
X0519715Y0044122D01*
G75*
G02*
X0519134Y0044703I0000000J0000581D01*
G01*
X0519134Y0045865D01*
G75*
G02*
X0519715Y0046445I0000581J0000000D01*
G01*
G37*
D135*
X0455276Y0056937D03*
D136*
X0456378Y0085284D03*
X0464252Y0073473D03*
X0472126Y0085284D03*
D137*
X0464252Y0081741D03*
D135*
X0473228Y0056937D03*
G36*
G01*
X0530748Y0076711D02*
X0530748Y0075353D01*
G75*
G02*
X0530167Y0074772I-000581J0000000D01*
G01*
X0529006Y0074772D01*
G75*
G02*
X0528425Y0075353I0000000J0000581D01*
G01*
X0528425Y0076711D01*
G75*
G02*
X0529006Y0077292I0000581J0000000D01*
G01*
X0530167Y0077292D01*
G75*
G02*
X0530748Y0076711I0000000J-000581D01*
G01*
G37*
G36*
G01*
X0526929Y0076711D02*
X0526929Y0075353D01*
G75*
G02*
X0526348Y0074772I-000581J0000000D01*
G01*
X0525187Y0074772D01*
G75*
G02*
X0524606Y0075353I0000000J0000581D01*
G01*
X0524606Y0076711D01*
G75*
G02*
X0525187Y0077292I0000581J0000000D01*
G01*
X0526348Y0077292D01*
G75*
G02*
X0526929Y0076711I0000000J-000581D01*
G01*
G37*
G36*
G01*
X0492244Y0090377D02*
X0492244Y0092395D01*
G75*
G02*
X0493105Y0093256I0000861J0000000D01*
G01*
X0494828Y0093256D01*
G75*
G02*
X0495689Y0092395I0000000J-000861D01*
G01*
X0495689Y0090377D01*
G75*
G02*
X0494828Y0089516I-000861J0000000D01*
G01*
X0493105Y0089516D01*
G75*
G02*
X0492244Y0090377I0000000J0000861D01*
G01*
G37*
G36*
G01*
X0498445Y0090377D02*
X0498445Y0092395D01*
G75*
G02*
X0499306Y0093256I0000861J0000000D01*
G01*
X0501028Y0093256D01*
G75*
G02*
X0501890Y0092395I0000000J-000861D01*
G01*
X0501890Y0090377D01*
G75*
G02*
X0501028Y0089516I-000861J0000000D01*
G01*
X0499306Y0089516D01*
G75*
G02*
X0498445Y0090377I0000000J0000861D01*
G01*
G37*
G36*
G01*
X0489872Y0086445D02*
X0488514Y0086445D01*
G75*
G02*
X0487933Y0087026I0000000J0000581D01*
G01*
X0487933Y0088187D01*
G75*
G02*
X0488514Y0088768I0000581J0000000D01*
G01*
X0489872Y0088768D01*
G75*
G02*
X0490453Y0088187I0000000J-000581D01*
G01*
X0490453Y0087026D01*
G75*
G02*
X0489872Y0086445I-000581J0000000D01*
G01*
G37*
G36*
G01*
X0489872Y0090264D02*
X0488514Y0090264D01*
G75*
G02*
X0487933Y0090845I0000000J0000581D01*
G01*
X0487933Y0092006D01*
G75*
G02*
X0488514Y0092587I0000581J0000000D01*
G01*
X0489872Y0092587D01*
G75*
G02*
X0490453Y0092006I0000000J-000581D01*
G01*
X0490453Y0090845D01*
G75*
G02*
X0489872Y0090264I-000581J0000000D01*
G01*
G37*
G36*
G01*
X0445763Y0090992D02*
X0447780Y0090992D01*
G75*
G02*
X0448642Y0090131I0000000J-000861D01*
G01*
X0448642Y0088409D01*
G75*
G02*
X0447780Y0087548I-000861J0000000D01*
G01*
X0445763Y0087548D01*
G75*
G02*
X0444902Y0088409I0000000J0000861D01*
G01*
X0444902Y0090131D01*
G75*
G02*
X0445763Y0090992I0000861J0000000D01*
G01*
G37*
G36*
G01*
X0445763Y0084792D02*
X0447780Y0084792D01*
G75*
G02*
X0448642Y0083930I0000000J-000861D01*
G01*
X0448642Y0082208D01*
G75*
G02*
X0447780Y0081347I-000861J0000000D01*
G01*
X0445763Y0081347D01*
G75*
G02*
X0444902Y0082208I0000000J0000861D01*
G01*
X0444902Y0083930D01*
G75*
G02*
X0445763Y0084792I0000861J0000000D01*
G01*
G37*
G36*
G01*
X0513602Y0092395D02*
X0513602Y0090377D01*
G75*
G02*
X0512741Y0089516I-000861J0000000D01*
G01*
X0511019Y0089516D01*
G75*
G02*
X0510157Y0090377I0000000J0000861D01*
G01*
X0510157Y0092395D01*
G75*
G02*
X0511019Y0093256I0000861J0000000D01*
G01*
X0512741Y0093256D01*
G75*
G02*
X0513602Y0092395I0000000J-000861D01*
G01*
G37*
G36*
G01*
X0507402Y0092395D02*
X0507402Y0090377D01*
G75*
G02*
X0506540Y0089516I-000861J0000000D01*
G01*
X0504818Y0089516D01*
G75*
G02*
X0503957Y0090377I0000000J0000861D01*
G01*
X0503957Y0092395D01*
G75*
G02*
X0504818Y0093256I0000861J0000000D01*
G01*
X0506540Y0093256D01*
G75*
G02*
X0507402Y0092395I0000000J-000861D01*
G01*
G37*
G36*
G01*
X0517923Y0088217D02*
X0516565Y0088217D01*
G75*
G02*
X0515984Y0088798I0000000J0000581D01*
G01*
X0515984Y0089959D01*
G75*
G02*
X0516565Y0090540I0000581J0000000D01*
G01*
X0517923Y0090540D01*
G75*
G02*
X0518504Y0089959I0000000J-000581D01*
G01*
X0518504Y0088798D01*
G75*
G02*
X0517923Y0088217I-000581J0000000D01*
G01*
G37*
G36*
G01*
X0517923Y0092036D02*
X0516565Y0092036D01*
G75*
G02*
X0515984Y0092617I0000000J0000581D01*
G01*
X0515984Y0093778D01*
G75*
G02*
X0516565Y0094359I0000581J0000000D01*
G01*
X0517923Y0094359D01*
G75*
G02*
X0518504Y0093778I0000000J-000581D01*
G01*
X0518504Y0092617D01*
G75*
G02*
X0517923Y0092036I-000581J0000000D01*
G01*
G37*
G36*
G01*
X0483484Y0075540D02*
X0483484Y0076524D01*
G75*
G02*
X0483976Y0077016I0000492J0000000D01*
G01*
X0488898Y0077016D01*
G75*
G02*
X0489390Y0076524I0000000J-000492D01*
G01*
X0489390Y0075540D01*
G75*
G02*
X0488898Y0075048I-000492J0000000D01*
G01*
X0483976Y0075048D01*
G75*
G02*
X0483484Y0075540I0000000J0000492D01*
G01*
G37*
G36*
G01*
X0483484Y0072390D02*
X0483484Y0073374D01*
G75*
G02*
X0483976Y0073867I0000492J0000000D01*
G01*
X0488898Y0073867D01*
G75*
G02*
X0489390Y0073374I0000000J-000492D01*
G01*
X0489390Y0072390D01*
G75*
G02*
X0488898Y0071898I-000492J0000000D01*
G01*
X0483976Y0071898D01*
G75*
G02*
X0483484Y0072390I0000000J0000492D01*
G01*
G37*
G36*
G01*
X0483484Y0069241D02*
X0483484Y0070225D01*
G75*
G02*
X0483976Y0070717I0000492J0000000D01*
G01*
X0488898Y0070717D01*
G75*
G02*
X0489390Y0070225I0000000J-000492D01*
G01*
X0489390Y0069241D01*
G75*
G02*
X0488898Y0068748I-000492J0000000D01*
G01*
X0483976Y0068748D01*
G75*
G02*
X0483484Y0069241I0000000J0000492D01*
G01*
G37*
G36*
G01*
X0483484Y0066091D02*
X0483484Y0067075D01*
G75*
G02*
X0483976Y0067567I0000492J0000000D01*
G01*
X0488898Y0067567D01*
G75*
G02*
X0489390Y0067075I0000000J-000492D01*
G01*
X0489390Y0066091D01*
G75*
G02*
X0488898Y0065599I-000492J0000000D01*
G01*
X0483976Y0065599D01*
G75*
G02*
X0483484Y0066091I0000000J0000492D01*
G01*
G37*
G36*
G01*
X0483484Y0062941D02*
X0483484Y0063926D01*
G75*
G02*
X0483976Y0064418I0000492J0000000D01*
G01*
X0488898Y0064418D01*
G75*
G02*
X0489390Y0063926I0000000J-000492D01*
G01*
X0489390Y0062941D01*
G75*
G02*
X0488898Y0062449I-000492J0000000D01*
G01*
X0483976Y0062449D01*
G75*
G02*
X0483484Y0062941I0000000J0000492D01*
G01*
G37*
G36*
G01*
X0483484Y0059792D02*
X0483484Y0060776D01*
G75*
G02*
X0483976Y0061268I0000492J0000000D01*
G01*
X0488898Y0061268D01*
G75*
G02*
X0489390Y0060776I0000000J-000492D01*
G01*
X0489390Y0059792D01*
G75*
G02*
X0488898Y0059300I-000492J0000000D01*
G01*
X0483976Y0059300D01*
G75*
G02*
X0483484Y0059792I0000000J0000492D01*
G01*
G37*
G36*
G01*
X0483484Y0056642D02*
X0483484Y0057626D01*
G75*
G02*
X0483976Y0058118I0000492J0000000D01*
G01*
X0488898Y0058118D01*
G75*
G02*
X0489390Y0057626I0000000J-000492D01*
G01*
X0489390Y0056642D01*
G75*
G02*
X0488898Y0056150I-000492J0000000D01*
G01*
X0483976Y0056150D01*
G75*
G02*
X0483484Y0056642I0000000J0000492D01*
G01*
G37*
G36*
G01*
X0483484Y0053492D02*
X0483484Y0054477D01*
G75*
G02*
X0483976Y0054969I0000492J0000000D01*
G01*
X0488898Y0054969D01*
G75*
G02*
X0489390Y0054477I0000000J-000492D01*
G01*
X0489390Y0053492D01*
G75*
G02*
X0488898Y0053000I-000492J0000000D01*
G01*
X0483976Y0053000D01*
G75*
G02*
X0483484Y0053492I0000000J0000492D01*
G01*
G37*
G36*
G01*
X0490866Y0046111D02*
X0490866Y0051032D01*
G75*
G02*
X0491358Y0051524I0000492J0000000D01*
G01*
X0492342Y0051524D01*
G75*
G02*
X0492835Y0051032I0000000J-000492D01*
G01*
X0492835Y0046111D01*
G75*
G02*
X0492342Y0045618I-000492J0000000D01*
G01*
X0491358Y0045618D01*
G75*
G02*
X0490866Y0046111I0000000J0000492D01*
G01*
G37*
G36*
G01*
X0494016Y0046111D02*
X0494016Y0051032D01*
G75*
G02*
X0494508Y0051524I0000492J0000000D01*
G01*
X0495492Y0051524D01*
G75*
G02*
X0495984Y0051032I0000000J-000492D01*
G01*
X0495984Y0046111D01*
G75*
G02*
X0495492Y0045618I-000492J0000000D01*
G01*
X0494508Y0045618D01*
G75*
G02*
X0494016Y0046111I0000000J0000492D01*
G01*
G37*
G36*
G01*
X0497165Y0046111D02*
X0497165Y0051032D01*
G75*
G02*
X0497657Y0051524I0000492J0000000D01*
G01*
X0498642Y0051524D01*
G75*
G02*
X0499134Y0051032I0000000J-000492D01*
G01*
X0499134Y0046111D01*
G75*
G02*
X0498642Y0045618I-000492J0000000D01*
G01*
X0497657Y0045618D01*
G75*
G02*
X0497165Y0046111I0000000J0000492D01*
G01*
G37*
G36*
G01*
X0500315Y0046111D02*
X0500315Y0051032D01*
G75*
G02*
X0500807Y0051524I0000492J0000000D01*
G01*
X0501791Y0051524D01*
G75*
G02*
X0502283Y0051032I0000000J-000492D01*
G01*
X0502283Y0046111D01*
G75*
G02*
X0501791Y0045618I-000492J0000000D01*
G01*
X0500807Y0045618D01*
G75*
G02*
X0500315Y0046111I0000000J0000492D01*
G01*
G37*
G36*
G01*
X0503465Y0046111D02*
X0503465Y0051032D01*
G75*
G02*
X0503957Y0051524I0000492J0000000D01*
G01*
X0504941Y0051524D01*
G75*
G02*
X0505433Y0051032I0000000J-000492D01*
G01*
X0505433Y0046111D01*
G75*
G02*
X0504941Y0045618I-000492J0000000D01*
G01*
X0503957Y0045618D01*
G75*
G02*
X0503465Y0046111I0000000J0000492D01*
G01*
G37*
G36*
G01*
X0506614Y0046111D02*
X0506614Y0051032D01*
G75*
G02*
X0507106Y0051524I0000492J0000000D01*
G01*
X0508090Y0051524D01*
G75*
G02*
X0508583Y0051032I0000000J-000492D01*
G01*
X0508583Y0046111D01*
G75*
G02*
X0508090Y0045618I-000492J0000000D01*
G01*
X0507106Y0045618D01*
G75*
G02*
X0506614Y0046111I0000000J0000492D01*
G01*
G37*
G36*
G01*
X0509764Y0046111D02*
X0509764Y0051032D01*
G75*
G02*
X0510256Y0051524I0000492J0000000D01*
G01*
X0511240Y0051524D01*
G75*
G02*
X0511732Y0051032I0000000J-000492D01*
G01*
X0511732Y0046111D01*
G75*
G02*
X0511240Y0045618I-000492J0000000D01*
G01*
X0510256Y0045618D01*
G75*
G02*
X0509764Y0046111I0000000J0000492D01*
G01*
G37*
G36*
G01*
X0512913Y0046111D02*
X0512913Y0051032D01*
G75*
G02*
X0513405Y0051524I0000492J0000000D01*
G01*
X0514390Y0051524D01*
G75*
G02*
X0514882Y0051032I0000000J-000492D01*
G01*
X0514882Y0046111D01*
G75*
G02*
X0514390Y0045618I-000492J0000000D01*
G01*
X0513405Y0045618D01*
G75*
G02*
X0512913Y0046111I0000000J0000492D01*
G01*
G37*
G36*
G01*
X0516358Y0053492D02*
X0516358Y0054477D01*
G75*
G02*
X0516850Y0054969I0000492J0000000D01*
G01*
X0521772Y0054969D01*
G75*
G02*
X0522264Y0054477I0000000J-000492D01*
G01*
X0522264Y0053492D01*
G75*
G02*
X0521772Y0053000I-000492J0000000D01*
G01*
X0516850Y0053000D01*
G75*
G02*
X0516358Y0053492I0000000J0000492D01*
G01*
G37*
G36*
G01*
X0516358Y0056642D02*
X0516358Y0057626D01*
G75*
G02*
X0516850Y0058118I0000492J0000000D01*
G01*
X0521772Y0058118D01*
G75*
G02*
X0522264Y0057626I0000000J-000492D01*
G01*
X0522264Y0056642D01*
G75*
G02*
X0521772Y0056150I-000492J0000000D01*
G01*
X0516850Y0056150D01*
G75*
G02*
X0516358Y0056642I0000000J0000492D01*
G01*
G37*
G36*
G01*
X0516358Y0059792D02*
X0516358Y0060776D01*
G75*
G02*
X0516850Y0061268I0000492J0000000D01*
G01*
X0521772Y0061268D01*
G75*
G02*
X0522264Y0060776I0000000J-000492D01*
G01*
X0522264Y0059792D01*
G75*
G02*
X0521772Y0059300I-000492J0000000D01*
G01*
X0516850Y0059300D01*
G75*
G02*
X0516358Y0059792I0000000J0000492D01*
G01*
G37*
G36*
G01*
X0516358Y0062941D02*
X0516358Y0063926D01*
G75*
G02*
X0516850Y0064418I0000492J0000000D01*
G01*
X0521772Y0064418D01*
G75*
G02*
X0522264Y0063926I0000000J-000492D01*
G01*
X0522264Y0062941D01*
G75*
G02*
X0521772Y0062449I-000492J0000000D01*
G01*
X0516850Y0062449D01*
G75*
G02*
X0516358Y0062941I0000000J0000492D01*
G01*
G37*
G36*
G01*
X0516358Y0066091D02*
X0516358Y0067075D01*
G75*
G02*
X0516850Y0067567I0000492J0000000D01*
G01*
X0521772Y0067567D01*
G75*
G02*
X0522264Y0067075I0000000J-000492D01*
G01*
X0522264Y0066091D01*
G75*
G02*
X0521772Y0065599I-000492J0000000D01*
G01*
X0516850Y0065599D01*
G75*
G02*
X0516358Y0066091I0000000J0000492D01*
G01*
G37*
G36*
G01*
X0516358Y0069241D02*
X0516358Y0070225D01*
G75*
G02*
X0516850Y0070717I0000492J0000000D01*
G01*
X0521772Y0070717D01*
G75*
G02*
X0522264Y0070225I0000000J-000492D01*
G01*
X0522264Y0069241D01*
G75*
G02*
X0521772Y0068748I-000492J0000000D01*
G01*
X0516850Y0068748D01*
G75*
G02*
X0516358Y0069241I0000000J0000492D01*
G01*
G37*
G36*
G01*
X0516358Y0072390D02*
X0516358Y0073374D01*
G75*
G02*
X0516850Y0073867I0000492J0000000D01*
G01*
X0521772Y0073867D01*
G75*
G02*
X0522264Y0073374I0000000J-000492D01*
G01*
X0522264Y0072390D01*
G75*
G02*
X0521772Y0071898I-000492J0000000D01*
G01*
X0516850Y0071898D01*
G75*
G02*
X0516358Y0072390I0000000J0000492D01*
G01*
G37*
G36*
G01*
X0516358Y0075540D02*
X0516358Y0076524D01*
G75*
G02*
X0516850Y0077016I0000492J0000000D01*
G01*
X0521772Y0077016D01*
G75*
G02*
X0522264Y0076524I0000000J-000492D01*
G01*
X0522264Y0075540D01*
G75*
G02*
X0521772Y0075048I-000492J0000000D01*
G01*
X0516850Y0075048D01*
G75*
G02*
X0516358Y0075540I0000000J0000492D01*
G01*
G37*
G36*
G01*
X0512913Y0078985D02*
X0512913Y0083906D01*
G75*
G02*
X0513405Y0084398I0000492J0000000D01*
G01*
X0514390Y0084398D01*
G75*
G02*
X0514882Y0083906I0000000J-000492D01*
G01*
X0514882Y0078985D01*
G75*
G02*
X0514390Y0078492I-000492J0000000D01*
G01*
X0513405Y0078492D01*
G75*
G02*
X0512913Y0078985I0000000J0000492D01*
G01*
G37*
G36*
G01*
X0509764Y0078985D02*
X0509764Y0083906D01*
G75*
G02*
X0510256Y0084398I0000492J0000000D01*
G01*
X0511240Y0084398D01*
G75*
G02*
X0511732Y0083906I0000000J-000492D01*
G01*
X0511732Y0078985D01*
G75*
G02*
X0511240Y0078492I-000492J0000000D01*
G01*
X0510256Y0078492D01*
G75*
G02*
X0509764Y0078985I0000000J0000492D01*
G01*
G37*
G36*
G01*
X0506614Y0078985D02*
X0506614Y0083906D01*
G75*
G02*
X0507106Y0084398I0000492J0000000D01*
G01*
X0508090Y0084398D01*
G75*
G02*
X0508583Y0083906I0000000J-000492D01*
G01*
X0508583Y0078985D01*
G75*
G02*
X0508090Y0078492I-000492J0000000D01*
G01*
X0507106Y0078492D01*
G75*
G02*
X0506614Y0078985I0000000J0000492D01*
G01*
G37*
G36*
G01*
X0503465Y0078985D02*
X0503465Y0083906D01*
G75*
G02*
X0503957Y0084398I0000492J0000000D01*
G01*
X0504941Y0084398D01*
G75*
G02*
X0505433Y0083906I0000000J-000492D01*
G01*
X0505433Y0078985D01*
G75*
G02*
X0504941Y0078492I-000492J0000000D01*
G01*
X0503957Y0078492D01*
G75*
G02*
X0503465Y0078985I0000000J0000492D01*
G01*
G37*
G36*
G01*
X0500315Y0078985D02*
X0500315Y0083906D01*
G75*
G02*
X0500807Y0084398I0000492J0000000D01*
G01*
X0501791Y0084398D01*
G75*
G02*
X0502283Y0083906I0000000J-000492D01*
G01*
X0502283Y0078985D01*
G75*
G02*
X0501791Y0078492I-000492J0000000D01*
G01*
X0500807Y0078492D01*
G75*
G02*
X0500315Y0078985I0000000J0000492D01*
G01*
G37*
G36*
G01*
X0497165Y0078985D02*
X0497165Y0083906D01*
G75*
G02*
X0497657Y0084398I0000492J0000000D01*
G01*
X0498642Y0084398D01*
G75*
G02*
X0499134Y0083906I0000000J-000492D01*
G01*
X0499134Y0078985D01*
G75*
G02*
X0498642Y0078492I-000492J0000000D01*
G01*
X0497657Y0078492D01*
G75*
G02*
X0497165Y0078985I0000000J0000492D01*
G01*
G37*
G36*
G01*
X0494016Y0078985D02*
X0494016Y0083906D01*
G75*
G02*
X0494508Y0084398I0000492J0000000D01*
G01*
X0495492Y0084398D01*
G75*
G02*
X0495984Y0083906I0000000J-000492D01*
G01*
X0495984Y0078985D01*
G75*
G02*
X0495492Y0078492I-000492J0000000D01*
G01*
X0494508Y0078492D01*
G75*
G02*
X0494016Y0078985I0000000J0000492D01*
G01*
G37*
G36*
G01*
X0490866Y0078985D02*
X0490866Y0083906D01*
G75*
G02*
X0491358Y0084398I0000492J0000000D01*
G01*
X0492342Y0084398D01*
G75*
G02*
X0492835Y0083906I0000000J-000492D01*
G01*
X0492835Y0078985D01*
G75*
G02*
X0492342Y0078492I-000492J0000000D01*
G01*
X0491358Y0078492D01*
G75*
G02*
X0490866Y0078985I0000000J0000492D01*
G01*
G37*
G36*
G01*
X0525492Y0057439D02*
X0525492Y0058798D01*
G75*
G02*
X0526073Y0059378I0000581J0000000D01*
G01*
X0527234Y0059378D01*
G75*
G02*
X0527815Y0058798I0000000J-000581D01*
G01*
X0527815Y0057439D01*
G75*
G02*
X0527234Y0056859I-000581J0000000D01*
G01*
X0526073Y0056859D01*
G75*
G02*
X0525492Y0057439I0000000J0000581D01*
G01*
G37*
G36*
G01*
X0529311Y0057439D02*
X0529311Y0058798D01*
G75*
G02*
X0529892Y0059378I0000581J0000000D01*
G01*
X0531053Y0059378D01*
G75*
G02*
X0531634Y0058798I0000000J-000581D01*
G01*
X0531634Y0057439D01*
G75*
G02*
X0531053Y0056859I-000581J0000000D01*
G01*
X0529892Y0056859D01*
G75*
G02*
X0529311Y0057439I0000000J0000581D01*
G01*
G37*
G36*
G01*
X0518415Y0080835D02*
X0517057Y0080835D01*
G75*
G02*
X0516476Y0081416I0000000J0000581D01*
G01*
X0516476Y0082577D01*
G75*
G02*
X0517057Y0083158I0000581J0000000D01*
G01*
X0518415Y0083158D01*
G75*
G02*
X0518996Y0082577I0000000J-000581D01*
G01*
X0518996Y0081416D01*
G75*
G02*
X0518415Y0080835I-000581J0000000D01*
G01*
G37*
G36*
G01*
X0518415Y0084654D02*
X0517057Y0084654D01*
G75*
G02*
X0516476Y0085235I0000000J0000581D01*
G01*
X0516476Y0086396D01*
G75*
G02*
X0517057Y0086977I0000581J0000000D01*
G01*
X0518415Y0086977D01*
G75*
G02*
X0518996Y0086396I0000000J-000581D01*
G01*
X0518996Y0085235D01*
G75*
G02*
X0518415Y0084654I-000581J0000000D01*
G01*
G37*
G36*
G01*
X0542059Y0058798D02*
X0542059Y0057439D01*
G75*
G02*
X0541478Y0056859I-000581J0000000D01*
G01*
X0540317Y0056859D01*
G75*
G02*
X0539736Y0057439I0000000J0000581D01*
G01*
X0539736Y0058798D01*
G75*
G02*
X0540317Y0059378I0000581J0000000D01*
G01*
X0541478Y0059378D01*
G75*
G02*
X0542059Y0058798I0000000J-000581D01*
G01*
G37*
G36*
G01*
X0538240Y0058798D02*
X0538240Y0057439D01*
G75*
G02*
X0537659Y0056859I-000581J0000000D01*
G01*
X0536498Y0056859D01*
G75*
G02*
X0535917Y0057439I0000000J0000581D01*
G01*
X0535917Y0058798D01*
G75*
G02*
X0536498Y0059378I0000581J0000000D01*
G01*
X0537659Y0059378D01*
G75*
G02*
X0538240Y0058798I0000000J-000581D01*
G01*
G37*
D138*
X0540571Y0053197D03*
X0533090Y0053197D03*
X0536831Y0045323D03*
G36*
G01*
X0481506Y0078965D02*
X0480148Y0078965D01*
G75*
G02*
X0479567Y0079546I0000000J0000581D01*
G01*
X0479567Y0080707D01*
G75*
G02*
X0480148Y0081288I0000581J0000000D01*
G01*
X0481506Y0081288D01*
G75*
G02*
X0482087Y0080707I0000000J-000581D01*
G01*
X0482087Y0079546D01*
G75*
G02*
X0481506Y0078965I-000581J0000000D01*
G01*
G37*
G36*
G01*
X0481506Y0082784D02*
X0480148Y0082784D01*
G75*
G02*
X0479567Y0083365I0000000J0000581D01*
G01*
X0479567Y0084526D01*
G75*
G02*
X0480148Y0085107I0000581J0000000D01*
G01*
X0481506Y0085107D01*
G75*
G02*
X0482087Y0084526I0000000J-000581D01*
G01*
X0482087Y0083365D01*
G75*
G02*
X0481506Y0082784I-000581J0000000D01*
G01*
G37*
G36*
G01*
X0527633Y0043926D02*
X0525615Y0043926D01*
G75*
G02*
X0524754Y0044787I0000000J0000861D01*
G01*
X0524754Y0046509D01*
G75*
G02*
X0525615Y0047370I0000861J0000000D01*
G01*
X0527633Y0047370D01*
G75*
G02*
X0528494Y0046509I0000000J-000861D01*
G01*
X0528494Y0044787D01*
G75*
G02*
X0527633Y0043926I-000861J0000000D01*
G01*
G37*
G36*
G01*
X0527633Y0050126D02*
X0525615Y0050126D01*
G75*
G02*
X0524754Y0050988I0000000J0000861D01*
G01*
X0524754Y0052710D01*
G75*
G02*
X0525615Y0053571I0000861J0000000D01*
G01*
X0527633Y0053571D01*
G75*
G02*
X0528494Y0052710I0000000J-000861D01*
G01*
X0528494Y0050988D01*
G75*
G02*
X0527633Y0050126I-000861J0000000D01*
G01*
G37*
D142*
X0543386Y0086071D03*
X0523386Y0090071D03*
X0523386Y0082071D03*
D139*
X0538386Y0088571D03*
X0538386Y0083571D03*
X0533386Y0088571D03*
X0533386Y0083571D03*
X0528386Y0088571D03*
X0528386Y0083571D03*
D140*
X0453898Y0047193D03*
D141*
X0463898Y0047193D03*
X0473898Y0047193D03*
X0316406Y0217610D02*
G01*
G75*
D413*
X0192784Y0199520D02*
D03*
X0185697Y0199520D02*
D03*
X0185697Y0209559D02*
D03*
X0192784Y0209559D02*
D03*
X0304595Y0150779D02*
D03*
X0311682Y0150779D02*
D03*
X0311682Y0160819D02*
D03*
X0304595Y0160819D02*
D03*
X0304595Y0144677D02*
D03*
X0311682Y0144677D02*
D03*
X0311682Y0134637D02*
D03*
X0304595Y0134637D02*
D03*
D414*
X0192784Y0202964D02*
D03*
X0192784Y0206114D02*
D03*
X0185697Y0206114D02*
D03*
X0185697Y0202964D02*
D03*
X0311682Y0157374D02*
D03*
X0311682Y0154224D02*
D03*
X0304595Y0154224D02*
D03*
X0304595Y0157374D02*
D03*
X0304595Y0141232D02*
D03*
X0304595Y0138082D02*
D03*
X0311682Y0138082D02*
D03*
X0311682Y0141232D02*
D03*
D415*
X0196996Y0202516D02*
D03*
X0196996Y0199957D02*
D03*
X0196996Y0197397D02*
D03*
X0204476Y0202516D02*
D03*
X0204476Y0197397D02*
D03*
X0204476Y0199957D02*
D03*
X0204476Y0207141D02*
D03*
X0204476Y0212260D02*
D03*
X0196996Y0207141D02*
D03*
X0196996Y0209701D02*
D03*
X0196996Y0212260D02*
D03*
X0204476Y0209701D02*
D03*
D174*
X0264204Y0103240D02*
D03*
X0264204Y0105208D02*
D03*
X0264204Y0107177D02*
D03*
X0264204Y0109145D02*
D03*
X0264204Y0111114D02*
D03*
X0264204Y0113082D02*
D03*
X0264204Y0115051D02*
D03*
X0264204Y0117019D02*
D03*
X0264204Y0118988D02*
D03*
X0264204Y0122925D02*
D03*
X0264204Y0124894D02*
D03*
X0264204Y0126862D02*
D03*
X0264204Y0128831D02*
D03*
X0264204Y0130799D02*
D03*
X0264204Y0132768D02*
D03*
X0264204Y0134736D02*
D03*
X0264204Y0136705D02*
D03*
X0264204Y0138673D02*
D03*
X0264204Y0140642D02*
D03*
X0264204Y0142610D02*
D03*
X0264204Y0144578D02*
D03*
X0264204Y0146547D02*
D03*
X0264204Y0148515D02*
D03*
X0264204Y0150484D02*
D03*
X0203180Y0150484D02*
D03*
X0203180Y0148515D02*
D03*
X0203180Y0146547D02*
D03*
X0203180Y0144578D02*
D03*
X0203180Y0142610D02*
D03*
X0203180Y0140642D02*
D03*
X0203180Y0138673D02*
D03*
X0203180Y0136705D02*
D03*
X0203180Y0134736D02*
D03*
X0203180Y0132768D02*
D03*
X0203180Y0130799D02*
D03*
X0203180Y0128831D02*
D03*
X0203180Y0126862D02*
D03*
X0203180Y0124894D02*
D03*
X0203180Y0122925D02*
D03*
X0203180Y0120957D02*
D03*
X0203180Y0118988D02*
D03*
X0203180Y0117019D02*
D03*
X0203180Y0115051D02*
D03*
X0203180Y0113082D02*
D03*
X0203180Y0111114D02*
D03*
X0203180Y0109145D02*
D03*
X0203180Y0107177D02*
D03*
X0203180Y0103240D02*
D03*
X0264204Y0120957D02*
D03*
X0203180Y0105208D02*
D03*
D175*
X0257314Y0157374D02*
D03*
X0253377Y0157374D02*
D03*
X0251408Y0157374D02*
D03*
X0249440Y0157374D02*
D03*
X0247471Y0157374D02*
D03*
X0245503Y0157374D02*
D03*
X0243534Y0157374D02*
D03*
X0241566Y0157374D02*
D03*
X0239597Y0157374D02*
D03*
X0237629Y0157374D02*
D03*
X0235660Y0157374D02*
D03*
X0233692Y0157374D02*
D03*
X0231723Y0157374D02*
D03*
X0229755Y0157374D02*
D03*
X0227786Y0157374D02*
D03*
X0225818Y0157374D02*
D03*
X0223849Y0157374D02*
D03*
X0221881Y0157374D02*
D03*
X0219912Y0157374D02*
D03*
X0217944Y0157374D02*
D03*
X0215975Y0157374D02*
D03*
X0214007Y0157374D02*
D03*
X0212038Y0157374D02*
D03*
X0210070Y0157374D02*
D03*
X0210070Y0096350D02*
D03*
X0212038Y0096350D02*
D03*
X0214007Y0096350D02*
D03*
X0215975Y0096350D02*
D03*
X0217944Y0096350D02*
D03*
X0219912Y0096350D02*
D03*
X0221881Y0096350D02*
D03*
X0223849Y0096350D02*
D03*
X0225818Y0096350D02*
D03*
X0227786Y0096350D02*
D03*
X0229755Y0096350D02*
D03*
X0231723Y0096350D02*
D03*
X0233692Y0096350D02*
D03*
X0235660Y0096350D02*
D03*
X0237629Y0096350D02*
D03*
X0239597Y0096350D02*
D03*
X0241566Y0096350D02*
D03*
X0243534Y0096350D02*
D03*
X0245503Y0096350D02*
D03*
X0247471Y0096350D02*
D03*
X0249440Y0096350D02*
D03*
X0251408Y0096350D02*
D03*
X0253377Y0096350D02*
D03*
X0255345Y0096350D02*
D03*
X0257314Y0096350D02*
D03*
X0255345Y0157374D02*
D03*
D176*
X0260697Y0174303D02*
D03*
X0232745Y0174303D02*
D03*
X0288650Y0174303D02*
D03*
X0283138Y0179421D02*
D03*
X0255185Y0169185D02*
D03*
X0255185Y0171744D02*
D03*
X0255185Y0174303D02*
D03*
X0255185Y0176862D02*
D03*
X0255185Y0179421D02*
D03*
X0255185Y0181980D02*
D03*
X0255185Y0184539D02*
D03*
X0232745Y0169185D02*
D03*
X0232745Y0171744D02*
D03*
X0232745Y0176862D02*
D03*
X0232745Y0179421D02*
D03*
X0232745Y0181980D02*
D03*
X0232745Y0184539D02*
D03*
X0311091Y0169185D02*
D03*
X0311091Y0171744D02*
D03*
X0311091Y0174303D02*
D03*
X0311091Y0176862D02*
D03*
X0311091Y0179421D02*
D03*
X0311091Y0181980D02*
D03*
X0311091Y0184539D02*
D03*
X0288650Y0169185D02*
D03*
X0288650Y0171744D02*
D03*
X0288650Y0176862D02*
D03*
X0288650Y0179421D02*
D03*
X0288650Y0181980D02*
D03*
X0288650Y0184539D02*
D03*
X0283138Y0169185D02*
D03*
X0283138Y0171744D02*
D03*
X0283138Y0174303D02*
D03*
X0283138Y0176862D02*
D03*
X0283138Y0181980D02*
D03*
X0283138Y0184539D02*
D03*
X0260697Y0169185D02*
D03*
X0260697Y0171744D02*
D03*
X0260697Y0176862D02*
D03*
X0260697Y0179421D02*
D03*
X0260697Y0181980D02*
D03*
X0260697Y0184539D02*
D03*
X0204792Y0184539D02*
D03*
X0204792Y0181980D02*
D03*
X0204792Y0179421D02*
D03*
X0204792Y0176862D02*
D03*
X0204792Y0174303D02*
D03*
X0204792Y0171744D02*
D03*
X0204792Y0169185D02*
D03*
X0227233Y0184539D02*
D03*
X0227233Y0181980D02*
D03*
X0227233Y0179421D02*
D03*
X0227233Y0176862D02*
D03*
X0227233Y0174303D02*
D03*
X0227233Y0171744D02*
D03*
X0227233Y0169185D02*
D03*
D177*
X0206288Y0083417D02*
D03*
X0206288Y0088417D02*
D03*
X0211288Y0083417D02*
D03*
X0211288Y0088417D02*
D03*
X0216288Y0083417D02*
D03*
X0216288Y0088417D02*
D03*
D416*
X0191997Y0082177D02*
D03*
X0188256Y0082177D02*
D03*
X0195737Y0082177D02*
D03*
X0195737Y0091626D02*
D03*
X0191997Y0091626D02*
D03*
X0188256Y0091626D02*
D03*
D417*
X0190547Y0103437D02*
D03*
X0190547Y0098712D02*
D03*
X0192016Y0112984D02*
D03*
X0278556Y0086199D02*
D03*
X0265244Y0162065D02*
D03*
X0194483Y0103437D02*
D03*
X0188078Y0112984D02*
D03*
X0193378Y0149968D02*
D03*
X0189441Y0149968D02*
D03*
X0193378Y0159023D02*
D03*
X0189441Y0159023D02*
D03*
X0194483Y0098712D02*
D03*
X0274619Y0086199D02*
D03*
X0281696Y0102914D02*
D03*
X0277759Y0102914D02*
D03*
X0261307Y0162065D02*
D03*
X0261288Y0157769D02*
D03*
X0265225Y0157769D02*
D03*
D180*
X0188090Y0121619D02*
D03*
X0188090Y0123587D02*
D03*
X0194389Y0119650D02*
D03*
X0194389Y0121619D02*
D03*
X0194389Y0117682D02*
D03*
X0194389Y0123587D02*
D03*
X0188090Y0117682D02*
D03*
X0188090Y0119650D02*
D03*
D181*
X0190255Y0123784D02*
D03*
X0192224Y0123784D02*
D03*
X0192224Y0117485D02*
D03*
X0190255Y0117485D02*
D03*
D418*
X0192995Y0128634D02*
D03*
X0192995Y0145169D02*
D03*
D419*
X0221524Y0201075D02*
D03*
X0212075Y0201075D02*
D03*
X0216800Y0201075D02*
D03*
X0226248Y0201075D02*
D03*
X0212075Y0212492D02*
D03*
X0221524Y0212492D02*
D03*
X0216800Y0212492D02*
D03*
X0226248Y0212492D02*
D03*
X0232458Y0194095D02*
D03*
X0232458Y0190158D02*
D03*
X0226248Y0208555D02*
D03*
D03*
X0226248Y0204618D02*
D03*
X0221524Y0208555D02*
D03*
X0221524Y0204618D02*
D03*
X0226248Y0197138D02*
D03*
X0216800Y0208555D02*
D03*
X0216800Y0204618D02*
D03*
X0221524Y0197138D02*
D03*
X0216800Y0197138D02*
D03*
X0212075Y0208555D02*
D03*
X0212075Y0204618D02*
D03*
X0212075Y0208555D02*
D03*
X0212075Y0197138D02*
D03*
X0221524Y0208555D02*
D03*
X0216800Y0208555D02*
D03*
X0312272Y0206193D02*
D03*
X0312272Y0210130D02*
D03*
X0287666Y0208555D02*
D03*
X0287666Y0212492D02*
D03*
X0273493Y0208555D02*
D03*
X0273493Y0212492D02*
D03*
X0254595Y0204618D02*
D03*
X0254595Y0208555D02*
D03*
X0254595Y0212492D02*
D03*
X0254595Y0208555D02*
D03*
X0240422Y0204618D02*
D03*
X0240422Y0208555D02*
D03*
X0312272Y0189460D02*
D03*
X0312272Y0193397D02*
D03*
X0306563Y0208555D02*
D03*
X0306563Y0204618D02*
D03*
X0301839Y0208555D02*
D03*
X0301839Y0204618D02*
D03*
X0297115Y0208555D02*
D03*
X0297115Y0204618D02*
D03*
X0292390Y0208555D02*
D03*
X0292390Y0204618D02*
D03*
X0306563Y0208555D02*
D03*
X0306563Y0212492D02*
D03*
X0301839Y0208555D02*
D03*
X0301839Y0212492D02*
D03*
X0297115Y0208555D02*
D03*
X0297115Y0212492D02*
D03*
X0292390Y0208555D02*
D03*
X0292390Y0212492D02*
D03*
X0287666Y0208555D02*
D03*
X0287666Y0204618D02*
D03*
X0282941Y0208555D02*
D03*
X0282941Y0204618D02*
D03*
X0278217Y0208555D02*
D03*
X0278217Y0204618D02*
D03*
X0273493Y0208555D02*
D03*
X0273493Y0204618D02*
D03*
X0282941Y0208555D02*
D03*
X0282941Y0212492D02*
D03*
X0278217Y0208555D02*
D03*
X0278217Y0212492D02*
D03*
X0268768Y0204618D02*
D03*
X0268768Y0208555D02*
D03*
X0264044Y0204618D02*
D03*
X0264044Y0208555D02*
D03*
X0259319Y0204618D02*
D03*
X0259319Y0208555D02*
D03*
X0268768Y0212492D02*
D03*
X0268768Y0208555D02*
D03*
X0264044Y0212492D02*
D03*
X0264044Y0208555D02*
D03*
X0259319Y0212492D02*
D03*
X0259319Y0208555D02*
D03*
X0249870Y0204618D02*
D03*
X0249870Y0208555D02*
D03*
X0245146Y0204618D02*
D03*
X0245146Y0208555D02*
D03*
X0235697Y0204618D02*
D03*
X0235697Y0208555D02*
D03*
X0249870Y0212492D02*
D03*
X0249870Y0208555D02*
D03*
X0245146Y0212492D02*
D03*
X0245146Y0208555D02*
D03*
X0240422Y0212492D02*
D03*
X0240422Y0208555D02*
D03*
X0235697Y0212492D02*
D03*
X0235697Y0208555D02*
D03*
X0312272Y0198516D02*
D03*
X0312272Y0202453D02*
D03*
D420*
X0247508Y0195563D02*
D03*
X0266406Y0195563D02*
D03*
X0285304Y0195563D02*
D03*
X0304201Y0195563D02*
D03*
X0275855Y0191823D02*
D03*
X0275855Y0195563D02*
D03*
X0275855Y0199303D02*
D03*
X0285304Y0199303D02*
D03*
X0285304Y0191823D02*
D03*
X0294752Y0191823D02*
D03*
X0294752Y0195563D02*
D03*
X0294752Y0199303D02*
D03*
X0304201Y0199303D02*
D03*
X0304201Y0191823D02*
D03*
X0256957Y0191823D02*
D03*
X0256957Y0195563D02*
D03*
X0256957Y0199303D02*
D03*
X0266406Y0199303D02*
D03*
X0266406Y0191823D02*
D03*
X0238059Y0191823D02*
D03*
X0238059Y0195563D02*
D03*
X0238059Y0199303D02*
D03*
X0247508Y0199303D02*
D03*
X0247508Y0191823D02*
D03*
D421*
X0281493Y0098528D02*
D03*
X0263571Y0088279D02*
D03*
D186*
X0290815Y0123651D02*
D03*
X0309713Y0128651D02*
D03*
X0309713Y0113651D02*
D03*
X0309713Y0118651D02*
D03*
X0309713Y0123651D02*
D03*
X0290815Y0113651D02*
D03*
X0290815Y0118651D02*
D03*
X0290815Y0128651D02*
D03*
D422*
X0309123Y0106010D02*
D03*
X0291012Y0106010D02*
D03*
D423*
X0274661Y0137536D02*
D03*
X0290870Y0138084D02*
D03*
X0274184Y0145696D02*
D03*
X0274184Y0153307D02*
D03*
X0290870Y0145696D02*
D03*
X0290870Y0153307D02*
D03*
X0274184Y0160919D02*
D03*
X0290870Y0160919D02*
D03*
X0281354Y0137536D02*
D03*
X0280877Y0145696D02*
D03*
X0280877Y0153307D02*
D03*
X0280877Y0160919D02*
D03*
X0297563Y0145696D02*
D03*
X0297563Y0138084D02*
D03*
X0281354Y0129559D02*
D03*
X0274661Y0129559D02*
D03*
X0274661Y0122472D02*
D03*
X0281354Y0122472D02*
D03*
X0281354Y0115386D02*
D03*
X0274661Y0115386D02*
D03*
X0274661Y0108299D02*
D03*
X0281354Y0108299D02*
D03*
X0297563Y0153307D02*
D03*
X0297563Y0160919D02*
D03*
X0274661Y0080799D02*
D03*
X0281354Y0080799D02*
D03*
D424*
X0187987Y0108212D02*
D03*
X0194287Y0108212D02*
D03*
X0195347Y0154653D02*
D03*
X0189047Y0154653D02*
D03*
D425*
X0228612Y0085270D02*
D03*
X0245147Y0085270D02*
D03*
D421*
X0263571Y0080799D02*
D03*
X0254319Y0084539D02*
D03*
X0281493Y0091048D02*
D03*
X0272241Y0094788D02*
D03*
D426*
X0300067Y0081600D02*
D03*
D427*
X0300067Y0106010D02*
D03*
D193*
X0230776Y0208555D02*
D03*
X0311682Y0214460D02*
D03*
D428*
X0193585Y0190813D02*
D03*
X0193585Y0173097D02*
D03*
D195*
X0238493Y0163476D02*
D03*
X0224280Y0163476D02*
D03*
X0254280Y0163476D02*
D03*
D196*
X0201288Y0085917D02*
D03*
X0221288Y0089917D02*
D03*
X0221288Y0081917D02*
D03*
D27*
X0312075Y0080208D02*
D03*
X0005193Y0150669D02*
%LPD*%
G01*
G36*
G01*
X0040902Y0083061D02*
X0040902Y0084419D01*
G75*
G02*
X0041482Y0085000I0000581J0000000D01*
G01*
X0042644Y0085000D01*
G75*
G02*
X0043224Y0084419I0000000J-000581D01*
G01*
X0043224Y0083061D01*
G75*
G02*
X0042644Y0082480I-000581J0000000D01*
G01*
X0041482Y0082480D01*
G75*
G02*
X0040902Y0083061I0000000J0000581D01*
G01*
G37*
G36*
G01*
X0044721Y0083061D02*
X0044721Y0084419D01*
G75*
G02*
X0045301Y0085000I0000581J0000000D01*
G01*
X0046463Y0085000D01*
G75*
G02*
X0047043Y0084419I0000000J-000581D01*
G01*
X0047043Y0083061D01*
G75*
G02*
X0046463Y0082480I-000581J0000000D01*
G01*
X0045301Y0082480D01*
G75*
G02*
X0044721Y0083061I0000000J0000581D01*
G01*
G37*
G36*
G01*
X0025478Y0141634D02*
X0026837Y0141634D01*
G75*
G02*
X0027417Y0141053I0000000J-000581D01*
G01*
X0027417Y0139891D01*
G75*
G02*
X0026837Y0139311I-000581J0000000D01*
G01*
X0025478Y0139311D01*
G75*
G02*
X0024898Y0139891I0000000J0000581D01*
G01*
X0024898Y0141053D01*
G75*
G02*
X0025478Y0141634I0000581J0000000D01*
G01*
G37*
G36*
G01*
X0025478Y0137815D02*
X0026837Y0137815D01*
G75*
G02*
X0027417Y0137234I0000000J-000581D01*
G01*
X0027417Y0136073D01*
G75*
G02*
X0026837Y0135492I-000581J0000000D01*
G01*
X0025478Y0135492D01*
G75*
G02*
X0024898Y0136073I0000000J0000581D01*
G01*
X0024898Y0137234D01*
G75*
G02*
X0025478Y0137815I0000581J0000000D01*
G01*
G37*
G36*
G01*
X0040675Y0131107D02*
X0040675Y0129089D01*
G75*
G02*
X0039814Y0128228I-000861J0000000D01*
G01*
X0038092Y0128228D01*
G75*
G02*
X0037230Y0129089I0000000J0000861D01*
G01*
X0037230Y0131107D01*
G75*
G02*
X0038092Y0131968I0000861J0000000D01*
G01*
X0039814Y0131968D01*
G75*
G02*
X0040675Y0131107I0000000J-000861D01*
G01*
G37*
G36*
G01*
X0034474Y0131107D02*
X0034474Y0129089D01*
G75*
G02*
X0033613Y0128228I-000861J0000000D01*
G01*
X0031891Y0128228D01*
G75*
G02*
X0031030Y0129089I0000000J0000861D01*
G01*
X0031030Y0131107D01*
G75*
G02*
X0031891Y0131968I0000861J0000000D01*
G01*
X0033613Y0131968D01*
G75*
G02*
X0034474Y0131107I0000000J-000861D01*
G01*
G37*
G36*
G01*
X0015646Y0084616D02*
X0015646Y0083258D01*
G75*
G02*
X0015065Y0082677I-000581J0000000D01*
G01*
X0013904Y0082677D01*
G75*
G02*
X0013323Y0083258I0000000J0000581D01*
G01*
X0013323Y0084616D01*
G75*
G02*
X0013904Y0085197I0000581J0000000D01*
G01*
X0015065Y0085197D01*
G75*
G02*
X0015646Y0084616I0000000J-000581D01*
G01*
G37*
G36*
G01*
X0011827Y0084616D02*
X0011827Y0083258D01*
G75*
G02*
X0011246Y0082677I-000581J0000000D01*
G01*
X0010085Y0082677D01*
G75*
G02*
X0009504Y0083258I0000000J0000581D01*
G01*
X0009504Y0084616D01*
G75*
G02*
X0010085Y0085197I0000581J0000000D01*
G01*
X0011246Y0085197D01*
G75*
G02*
X0011827Y0084616I0000000J-000581D01*
G01*
G37*
D138*
X0031473Y0135807D03*
X0038953Y0135807D03*
X0035213Y0143681D03*
G36*
G01*
X0015646Y0088799D02*
X0015646Y0087441D01*
G75*
G02*
X0015065Y0086860I-000581J0000000D01*
G01*
X0013904Y0086860D01*
G75*
G02*
X0013323Y0087441I0000000J0000581D01*
G01*
X0013323Y0088799D01*
G75*
G02*
X0013904Y0089380I0000581J0000000D01*
G01*
X0015065Y0089380D01*
G75*
G02*
X0015646Y0088799I0000000J-000581D01*
G01*
G37*
G36*
G01*
X0011827Y0088799D02*
X0011827Y0087441D01*
G75*
G02*
X0011246Y0086860I-000581J0000000D01*
G01*
X0010085Y0086860D01*
G75*
G02*
X0009504Y0087441I0000000J0000581D01*
G01*
X0009504Y0088799D01*
G75*
G02*
X0010085Y0089380I0000581J0000000D01*
G01*
X0011246Y0089380D01*
G75*
G02*
X0011827Y0088799I0000000J-000581D01*
G01*
G37*
G36*
G01*
X0039563Y0084419D02*
X0039563Y0083061D01*
G75*
G02*
X0038982Y0082480I-000581J0000000D01*
G01*
X0037821Y0082480D01*
G75*
G02*
X0037240Y0083061I0000000J0000581D01*
G01*
X0037240Y0084419D01*
G75*
G02*
X0037821Y0085000I0000581J0000000D01*
G01*
X0038982Y0085000D01*
G75*
G02*
X0039563Y0084419I0000000J-000581D01*
G01*
G37*
G36*
G01*
X0035744Y0084419D02*
X0035744Y0083061D01*
G75*
G02*
X0035163Y0082480I-000581J0000000D01*
G01*
X0034002Y0082480D01*
G75*
G02*
X0033421Y0083061I0000000J0000581D01*
G01*
X0033421Y0084419D01*
G75*
G02*
X0034002Y0085000I0000581J0000000D01*
G01*
X0035163Y0085000D01*
G75*
G02*
X0035744Y0084419I0000000J-000581D01*
G01*
G37*
G36*
G01*
X0051827Y0088179D02*
X0051827Y0089537D01*
G75*
G02*
X0052408Y0090118I0000581J0000000D01*
G01*
X0053569Y0090118D01*
G75*
G02*
X0054150Y0089537I0000000J-000581D01*
G01*
X0054150Y0088179D01*
G75*
G02*
X0053569Y0087598I-000581J0000000D01*
G01*
X0052408Y0087598D01*
G75*
G02*
X0051827Y0088179I0000000J0000581D01*
G01*
G37*
G36*
G01*
X0055646Y0088179D02*
X0055646Y0089537D01*
G75*
G02*
X0056226Y0090118I0000581J0000000D01*
G01*
X0057388Y0090118D01*
G75*
G02*
X0057969Y0089537I0000000J-000581D01*
G01*
X0057969Y0088179D01*
G75*
G02*
X0057388Y0087598I-000581J0000000D01*
G01*
X0056226Y0087598D01*
G75*
G02*
X0055646Y0088179I0000000J0000581D01*
G01*
G37*
G36*
G01*
X0025055Y0083061D02*
X0025055Y0084419D01*
G75*
G02*
X0025636Y0085000I0000581J0000000D01*
G01*
X0026797Y0085000D01*
G75*
G02*
X0027378Y0084419I0000000J-000581D01*
G01*
X0027378Y0083061D01*
G75*
G02*
X0026797Y0082480I-000581J0000000D01*
G01*
X0025636Y0082480D01*
G75*
G02*
X0025055Y0083061I0000000J0000581D01*
G01*
G37*
G36*
G01*
X0028874Y0083061D02*
X0028874Y0084419D01*
G75*
G02*
X0029455Y0085000I0000581J0000000D01*
G01*
X0030616Y0085000D01*
G75*
G02*
X0031197Y0084419I0000000J-000581D01*
G01*
X0031197Y0083061D01*
G75*
G02*
X0030616Y0082480I-000581J0000000D01*
G01*
X0029455Y0082480D01*
G75*
G02*
X0028874Y0083061I0000000J0000581D01*
G01*
G37*
G36*
G01*
X0051827Y0122825D02*
X0051827Y0124183D01*
G75*
G02*
X0052408Y0124763I0000581J0000000D01*
G01*
X0053569Y0124763D01*
G75*
G02*
X0054150Y0124183I0000000J-000581D01*
G01*
X0054150Y0122825D01*
G75*
G02*
X0053569Y0122244I-000581J0000000D01*
G01*
X0052408Y0122244D01*
G75*
G02*
X0051827Y0122825I0000000J0000581D01*
G01*
G37*
G36*
G01*
X0055646Y0122825D02*
X0055646Y0124183D01*
G75*
G02*
X0056226Y0124763I0000581J0000000D01*
G01*
X0057388Y0124763D01*
G75*
G02*
X0057969Y0124183I0000000J-000581D01*
G01*
X0057969Y0122825D01*
G75*
G02*
X0057388Y0122244I-000581J0000000D01*
G01*
X0056226Y0122244D01*
G75*
G02*
X0055646Y0122825I0000000J0000581D01*
G01*
G37*
D315*
X0045154Y0058386D03*
D136*
X0016807Y0059488D03*
X0028618Y0067362D03*
X0016807Y0075236D03*
D316*
X0020350Y0067362D03*
D315*
X0045154Y0076338D03*
G36*
G01*
X0025380Y0133858D02*
X0026738Y0133858D01*
G75*
G02*
X0027319Y0133277I0000000J-000581D01*
G01*
X0027319Y0132116D01*
G75*
G02*
X0026738Y0131535I-000581J0000000D01*
G01*
X0025380Y0131535D01*
G75*
G02*
X0024799Y0132116I0000000J0000581D01*
G01*
X0024799Y0133277D01*
G75*
G02*
X0025380Y0133858I0000581J0000000D01*
G01*
G37*
G36*
G01*
X0025380Y0130039D02*
X0026738Y0130039D01*
G75*
G02*
X0027319Y0129458I0000000J-000581D01*
G01*
X0027319Y0128297D01*
G75*
G02*
X0026738Y0127716I-000581J0000000D01*
G01*
X0025380Y0127716D01*
G75*
G02*
X0024799Y0128297I0000000J0000581D01*
G01*
X0024799Y0129458D01*
G75*
G02*
X0025380Y0130039I0000581J0000000D01*
G01*
G37*
G36*
G01*
X0011714Y0095354D02*
X0009696Y0095354D01*
G75*
G02*
X0008835Y0096215I0000000J0000861D01*
G01*
X0008835Y0097938D01*
G75*
G02*
X0009696Y0098799I0000861J0000000D01*
G01*
X0011714Y0098799D01*
G75*
G02*
X0012575Y0097938I0000000J-000861D01*
G01*
X0012575Y0096215D01*
G75*
G02*
X0011714Y0095354I-000861J0000000D01*
G01*
G37*
G36*
G01*
X0011714Y0101555D02*
X0009696Y0101555D01*
G75*
G02*
X0008835Y0102416I0000000J0000861D01*
G01*
X0008835Y0104138D01*
G75*
G02*
X0009696Y0105000I0000861J0000000D01*
G01*
X0011714Y0105000D01*
G75*
G02*
X0012575Y0104138I0000000J-000861D01*
G01*
X0012575Y0102416D01*
G75*
G02*
X0011714Y0101555I-000861J0000000D01*
G01*
G37*
G36*
G01*
X0015646Y0092982D02*
X0015646Y0091624D01*
G75*
G02*
X0015065Y0091043I-000581J0000000D01*
G01*
X0013904Y0091043D01*
G75*
G02*
X0013323Y0091624I0000000J0000581D01*
G01*
X0013323Y0092982D01*
G75*
G02*
X0013904Y0093563I0000581J0000000D01*
G01*
X0015065Y0093563D01*
G75*
G02*
X0015646Y0092982I0000000J-000581D01*
G01*
G37*
G36*
G01*
X0011827Y0092982D02*
X0011827Y0091624D01*
G75*
G02*
X0011246Y0091043I-000581J0000000D01*
G01*
X0010085Y0091043D01*
G75*
G02*
X0009504Y0091624I0000000J0000581D01*
G01*
X0009504Y0092982D01*
G75*
G02*
X0010085Y0093563I0000581J0000000D01*
G01*
X0011246Y0093563D01*
G75*
G02*
X0011827Y0092982I0000000J-000581D01*
G01*
G37*
G36*
G01*
X0011099Y0048873D02*
X0011099Y0050890D01*
G75*
G02*
X0011960Y0051752I0000861J0000000D01*
G01*
X0013682Y0051752D01*
G75*
G02*
X0014543Y0050890I0000000J-000861D01*
G01*
X0014543Y0048873D01*
G75*
G02*
X0013682Y0048012I-000861J0000000D01*
G01*
X0011960Y0048012D01*
G75*
G02*
X0011099Y0048873I0000000J0000861D01*
G01*
G37*
G36*
G01*
X0017299Y0048873D02*
X0017299Y0050890D01*
G75*
G02*
X0018161Y0051752I0000861J0000000D01*
G01*
X0019883Y0051752D01*
G75*
G02*
X0020744Y0050890I0000000J-000861D01*
G01*
X0020744Y0048873D01*
G75*
G02*
X0019883Y0048012I-000861J0000000D01*
G01*
X0018161Y0048012D01*
G75*
G02*
X0017299Y0048873I0000000J0000861D01*
G01*
G37*
G36*
G01*
X0009696Y0116712D02*
X0011714Y0116712D01*
G75*
G02*
X0012575Y0115851I0000000J-000861D01*
G01*
X0012575Y0114129D01*
G75*
G02*
X0011714Y0113267I-000861J0000000D01*
G01*
X0009696Y0113267D01*
G75*
G02*
X0008835Y0114129I0000000J0000861D01*
G01*
X0008835Y0115851D01*
G75*
G02*
X0009696Y0116712I0000861J0000000D01*
G01*
G37*
G36*
G01*
X0009696Y0110512D02*
X0011714Y0110512D01*
G75*
G02*
X0012575Y0109650I0000000J-000861D01*
G01*
X0012575Y0107928D01*
G75*
G02*
X0011714Y0107067I-000861J0000000D01*
G01*
X0009696Y0107067D01*
G75*
G02*
X0008835Y0107928I0000000J0000861D01*
G01*
X0008835Y0109650D01*
G75*
G02*
X0009696Y0110512I0000861J0000000D01*
G01*
G37*
G36*
G01*
X0013874Y0121033D02*
X0013874Y0119675D01*
G75*
G02*
X0013293Y0119094I-000581J0000000D01*
G01*
X0012132Y0119094D01*
G75*
G02*
X0011551Y0119675I0000000J0000581D01*
G01*
X0011551Y0121033D01*
G75*
G02*
X0012132Y0121614I0000581J0000000D01*
G01*
X0013293Y0121614D01*
G75*
G02*
X0013874Y0121033I0000000J-000581D01*
G01*
G37*
G36*
G01*
X0010055Y0121033D02*
X0010055Y0119675D01*
G75*
G02*
X0009474Y0119094I-000581J0000000D01*
G01*
X0008313Y0119094D01*
G75*
G02*
X0007732Y0119675I0000000J0000581D01*
G01*
X0007732Y0121033D01*
G75*
G02*
X0008313Y0121614I0000581J0000000D01*
G01*
X0009474Y0121614D01*
G75*
G02*
X0010055Y0121033I0000000J-000581D01*
G01*
G37*
G36*
G01*
X0026551Y0086594D02*
X0025567Y0086594D01*
G75*
G02*
X0025075Y0087086I0000000J0000492D01*
G01*
X0025075Y0092008D01*
G75*
G02*
X0025567Y0092500I0000492J0000000D01*
G01*
X0026551Y0092500D01*
G75*
G02*
X0027043Y0092008I0000000J-000492D01*
G01*
X0027043Y0087086D01*
G75*
G02*
X0026551Y0086594I-000492J0000000D01*
G01*
G37*
G36*
G01*
X0029701Y0086594D02*
X0028717Y0086594D01*
G75*
G02*
X0028224Y0087086I0000000J0000492D01*
G01*
X0028224Y0092008D01*
G75*
G02*
X0028717Y0092500I0000492J0000000D01*
G01*
X0029701Y0092500D01*
G75*
G02*
X0030193Y0092008I0000000J-000492D01*
G01*
X0030193Y0087086D01*
G75*
G02*
X0029701Y0086594I-000492J0000000D01*
G01*
G37*
G36*
G01*
X0032850Y0086594D02*
X0031866Y0086594D01*
G75*
G02*
X0031374Y0087086I0000000J0000492D01*
G01*
X0031374Y0092008D01*
G75*
G02*
X0031866Y0092500I0000492J0000000D01*
G01*
X0032850Y0092500D01*
G75*
G02*
X0033343Y0092008I0000000J-000492D01*
G01*
X0033343Y0087086D01*
G75*
G02*
X0032850Y0086594I-000492J0000000D01*
G01*
G37*
G36*
G01*
X0036000Y0086594D02*
X0035016Y0086594D01*
G75*
G02*
X0034524Y0087086I0000000J0000492D01*
G01*
X0034524Y0092008D01*
G75*
G02*
X0035016Y0092500I0000492J0000000D01*
G01*
X0036000Y0092500D01*
G75*
G02*
X0036492Y0092008I0000000J-000492D01*
G01*
X0036492Y0087086D01*
G75*
G02*
X0036000Y0086594I-000492J0000000D01*
G01*
G37*
G36*
G01*
X0039150Y0086594D02*
X0038165Y0086594D01*
G75*
G02*
X0037673Y0087086I0000000J0000492D01*
G01*
X0037673Y0092008D01*
G75*
G02*
X0038165Y0092500I0000492J0000000D01*
G01*
X0039150Y0092500D01*
G75*
G02*
X0039642Y0092008I0000000J-000492D01*
G01*
X0039642Y0087086D01*
G75*
G02*
X0039150Y0086594I-000492J0000000D01*
G01*
G37*
G36*
G01*
X0042299Y0086594D02*
X0041315Y0086594D01*
G75*
G02*
X0040823Y0087086I0000000J0000492D01*
G01*
X0040823Y0092008D01*
G75*
G02*
X0041315Y0092500I0000492J0000000D01*
G01*
X0042299Y0092500D01*
G75*
G02*
X0042791Y0092008I0000000J-000492D01*
G01*
X0042791Y0087086D01*
G75*
G02*
X0042299Y0086594I-000492J0000000D01*
G01*
G37*
G36*
G01*
X0045449Y0086594D02*
X0044465Y0086594D01*
G75*
G02*
X0043973Y0087086I0000000J0000492D01*
G01*
X0043973Y0092008D01*
G75*
G02*
X0044465Y0092500I0000492J0000000D01*
G01*
X0045449Y0092500D01*
G75*
G02*
X0045941Y0092008I0000000J-000492D01*
G01*
X0045941Y0087086D01*
G75*
G02*
X0045449Y0086594I-000492J0000000D01*
G01*
G37*
G36*
G01*
X0048599Y0086594D02*
X0047614Y0086594D01*
G75*
G02*
X0047122Y0087086I0000000J0000492D01*
G01*
X0047122Y0092008D01*
G75*
G02*
X0047614Y0092500I0000492J0000000D01*
G01*
X0048599Y0092500D01*
G75*
G02*
X0049091Y0092008I0000000J-000492D01*
G01*
X0049091Y0087086D01*
G75*
G02*
X0048599Y0086594I-000492J0000000D01*
G01*
G37*
G36*
G01*
X0055980Y0093976D02*
X0051059Y0093976D01*
G75*
G02*
X0050567Y0094468I0000000J0000492D01*
G01*
X0050567Y0095452D01*
G75*
G02*
X0051059Y0095945I0000492J0000000D01*
G01*
X0055980Y0095945D01*
G75*
G02*
X0056473Y0095452I0000000J-000492D01*
G01*
X0056473Y0094468D01*
G75*
G02*
X0055980Y0093976I-000492J0000000D01*
G01*
G37*
G36*
G01*
X0055980Y0097126D02*
X0051059Y0097126D01*
G75*
G02*
X0050567Y0097618I0000000J0000492D01*
G01*
X0050567Y0098602D01*
G75*
G02*
X0051059Y0099094I0000492J0000000D01*
G01*
X0055980Y0099094D01*
G75*
G02*
X0056473Y0098602I0000000J-000492D01*
G01*
X0056473Y0097618D01*
G75*
G02*
X0055980Y0097126I-000492J0000000D01*
G01*
G37*
G36*
G01*
X0055980Y0100275D02*
X0051059Y0100275D01*
G75*
G02*
X0050567Y0100767I0000000J0000492D01*
G01*
X0050567Y0101752D01*
G75*
G02*
X0051059Y0102244I0000492J0000000D01*
G01*
X0055980Y0102244D01*
G75*
G02*
X0056473Y0101752I0000000J-000492D01*
G01*
X0056473Y0100767D01*
G75*
G02*
X0055980Y0100275I-000492J0000000D01*
G01*
G37*
G36*
G01*
X0055980Y0103425D02*
X0051059Y0103425D01*
G75*
G02*
X0050567Y0103917I0000000J0000492D01*
G01*
X0050567Y0104901D01*
G75*
G02*
X0051059Y0105393I0000492J0000000D01*
G01*
X0055980Y0105393D01*
G75*
G02*
X0056473Y0104901I0000000J-000492D01*
G01*
X0056473Y0103917D01*
G75*
G02*
X0055980Y0103425I-000492J0000000D01*
G01*
G37*
G36*
G01*
X0055980Y0106575D02*
X0051059Y0106575D01*
G75*
G02*
X0050567Y0107067I0000000J0000492D01*
G01*
X0050567Y0108051D01*
G75*
G02*
X0051059Y0108543I0000492J0000000D01*
G01*
X0055980Y0108543D01*
G75*
G02*
X0056473Y0108051I0000000J-000492D01*
G01*
X0056473Y0107067D01*
G75*
G02*
X0055980Y0106575I-000492J0000000D01*
G01*
G37*
G36*
G01*
X0055980Y0109724D02*
X0051059Y0109724D01*
G75*
G02*
X0050567Y0110216I0000000J0000492D01*
G01*
X0050567Y0111200D01*
G75*
G02*
X0051059Y0111693I0000492J0000000D01*
G01*
X0055980Y0111693D01*
G75*
G02*
X0056473Y0111200I0000000J-000492D01*
G01*
X0056473Y0110216D01*
G75*
G02*
X0055980Y0109724I-000492J0000000D01*
G01*
G37*
G36*
G01*
X0055980Y0112874D02*
X0051059Y0112874D01*
G75*
G02*
X0050567Y0113366I0000000J0000492D01*
G01*
X0050567Y0114350D01*
G75*
G02*
X0051059Y0114842I0000492J0000000D01*
G01*
X0055980Y0114842D01*
G75*
G02*
X0056473Y0114350I0000000J-000492D01*
G01*
X0056473Y0113366D01*
G75*
G02*
X0055980Y0112874I-000492J0000000D01*
G01*
G37*
G36*
G01*
X0055980Y0116023D02*
X0051059Y0116023D01*
G75*
G02*
X0050567Y0116515I0000000J0000492D01*
G01*
X0050567Y0117500D01*
G75*
G02*
X0051059Y0117992I0000492J0000000D01*
G01*
X0055980Y0117992D01*
G75*
G02*
X0056473Y0117500I0000000J-000492D01*
G01*
X0056473Y0116515D01*
G75*
G02*
X0055980Y0116023I-000492J0000000D01*
G01*
G37*
G36*
G01*
X0048599Y0119468D02*
X0047614Y0119468D01*
G75*
G02*
X0047122Y0119960I0000000J0000492D01*
G01*
X0047122Y0124882D01*
G75*
G02*
X0047614Y0125374I0000492J0000000D01*
G01*
X0048599Y0125374D01*
G75*
G02*
X0049091Y0124882I0000000J-000492D01*
G01*
X0049091Y0119960D01*
G75*
G02*
X0048599Y0119468I-000492J0000000D01*
G01*
G37*
G36*
G01*
X0045449Y0119468D02*
X0044465Y0119468D01*
G75*
G02*
X0043973Y0119960I0000000J0000492D01*
G01*
X0043973Y0124882D01*
G75*
G02*
X0044465Y0125374I0000492J0000000D01*
G01*
X0045449Y0125374D01*
G75*
G02*
X0045941Y0124882I0000000J-000492D01*
G01*
X0045941Y0119960D01*
G75*
G02*
X0045449Y0119468I-000492J0000000D01*
G01*
G37*
G36*
G01*
X0042299Y0119468D02*
X0041315Y0119468D01*
G75*
G02*
X0040823Y0119960I0000000J0000492D01*
G01*
X0040823Y0124882D01*
G75*
G02*
X0041315Y0125374I0000492J0000000D01*
G01*
X0042299Y0125374D01*
G75*
G02*
X0042791Y0124882I0000000J-000492D01*
G01*
X0042791Y0119960D01*
G75*
G02*
X0042299Y0119468I-000492J0000000D01*
G01*
G37*
G36*
G01*
X0039150Y0119468D02*
X0038165Y0119468D01*
G75*
G02*
X0037673Y0119960I0000000J0000492D01*
G01*
X0037673Y0124882D01*
G75*
G02*
X0038165Y0125374I0000492J0000000D01*
G01*
X0039150Y0125374D01*
G75*
G02*
X0039642Y0124882I0000000J-000492D01*
G01*
X0039642Y0119960D01*
G75*
G02*
X0039150Y0119468I-000492J0000000D01*
G01*
G37*
G36*
G01*
X0036000Y0119468D02*
X0035016Y0119468D01*
G75*
G02*
X0034524Y0119960I0000000J0000492D01*
G01*
X0034524Y0124882D01*
G75*
G02*
X0035016Y0125374I0000492J0000000D01*
G01*
X0036000Y0125374D01*
G75*
G02*
X0036492Y0124882I0000000J-000492D01*
G01*
X0036492Y0119960D01*
G75*
G02*
X0036000Y0119468I-000492J0000000D01*
G01*
G37*
G36*
G01*
X0032850Y0119468D02*
X0031866Y0119468D01*
G75*
G02*
X0031374Y0119960I0000000J0000492D01*
G01*
X0031374Y0124882D01*
G75*
G02*
X0031866Y0125374I0000492J0000000D01*
G01*
X0032850Y0125374D01*
G75*
G02*
X0033343Y0124882I0000000J-000492D01*
G01*
X0033343Y0119960D01*
G75*
G02*
X0032850Y0119468I-000492J0000000D01*
G01*
G37*
G36*
G01*
X0029701Y0119468D02*
X0028717Y0119468D01*
G75*
G02*
X0028224Y0119960I0000000J0000492D01*
G01*
X0028224Y0124882D01*
G75*
G02*
X0028717Y0125374I0000492J0000000D01*
G01*
X0029701Y0125374D01*
G75*
G02*
X0030193Y0124882I0000000J-000492D01*
G01*
X0030193Y0119960D01*
G75*
G02*
X0029701Y0119468I-000492J0000000D01*
G01*
G37*
G36*
G01*
X0026551Y0119468D02*
X0025567Y0119468D01*
G75*
G02*
X0025075Y0119960I0000000J0000492D01*
G01*
X0025075Y0124882D01*
G75*
G02*
X0025567Y0125374I0000492J0000000D01*
G01*
X0026551Y0125374D01*
G75*
G02*
X0027043Y0124882I0000000J-000492D01*
G01*
X0027043Y0119960D01*
G75*
G02*
X0026551Y0119468I-000492J0000000D01*
G01*
G37*
G36*
G01*
X0023106Y0116023D02*
X0018185Y0116023D01*
G75*
G02*
X0017693Y0116515I0000000J0000492D01*
G01*
X0017693Y0117500D01*
G75*
G02*
X0018185Y0117992I0000492J0000000D01*
G01*
X0023106Y0117992D01*
G75*
G02*
X0023599Y0117500I0000000J-000492D01*
G01*
X0023599Y0116515D01*
G75*
G02*
X0023106Y0116023I-000492J0000000D01*
G01*
G37*
G36*
G01*
X0023106Y0112874D02*
X0018185Y0112874D01*
G75*
G02*
X0017693Y0113366I0000000J0000492D01*
G01*
X0017693Y0114350D01*
G75*
G02*
X0018185Y0114842I0000492J0000000D01*
G01*
X0023106Y0114842D01*
G75*
G02*
X0023599Y0114350I0000000J-000492D01*
G01*
X0023599Y0113366D01*
G75*
G02*
X0023106Y0112874I-000492J0000000D01*
G01*
G37*
G36*
G01*
X0023106Y0109724D02*
X0018185Y0109724D01*
G75*
G02*
X0017693Y0110216I0000000J0000492D01*
G01*
X0017693Y0111200D01*
G75*
G02*
X0018185Y0111693I0000492J0000000D01*
G01*
X0023106Y0111693D01*
G75*
G02*
X0023599Y0111200I0000000J-000492D01*
G01*
X0023599Y0110216D01*
G75*
G02*
X0023106Y0109724I-000492J0000000D01*
G01*
G37*
G36*
G01*
X0023106Y0106575D02*
X0018185Y0106575D01*
G75*
G02*
X0017693Y0107067I0000000J0000492D01*
G01*
X0017693Y0108051D01*
G75*
G02*
X0018185Y0108543I0000492J0000000D01*
G01*
X0023106Y0108543D01*
G75*
G02*
X0023599Y0108051I0000000J-000492D01*
G01*
X0023599Y0107067D01*
G75*
G02*
X0023106Y0106575I-000492J0000000D01*
G01*
G37*
G36*
G01*
X0023106Y0103425D02*
X0018185Y0103425D01*
G75*
G02*
X0017693Y0103917I0000000J0000492D01*
G01*
X0017693Y0104901D01*
G75*
G02*
X0018185Y0105393I0000492J0000000D01*
G01*
X0023106Y0105393D01*
G75*
G02*
X0023599Y0104901I0000000J-000492D01*
G01*
X0023599Y0103917D01*
G75*
G02*
X0023106Y0103425I-000492J0000000D01*
G01*
G37*
G36*
G01*
X0023106Y0100275D02*
X0018185Y0100275D01*
G75*
G02*
X0017693Y0100767I0000000J0000492D01*
G01*
X0017693Y0101752D01*
G75*
G02*
X0018185Y0102244I0000492J0000000D01*
G01*
X0023106Y0102244D01*
G75*
G02*
X0023599Y0101752I0000000J-000492D01*
G01*
X0023599Y0100767D01*
G75*
G02*
X0023106Y0100275I-000492J0000000D01*
G01*
G37*
G36*
G01*
X0023106Y0097126D02*
X0018185Y0097126D01*
G75*
G02*
X0017693Y0097618I0000000J0000492D01*
G01*
X0017693Y0098602D01*
G75*
G02*
X0018185Y0099094I0000492J0000000D01*
G01*
X0023106Y0099094D01*
G75*
G02*
X0023599Y0098602I0000000J-000492D01*
G01*
X0023599Y0097618D01*
G75*
G02*
X0023106Y0097126I-000492J0000000D01*
G01*
G37*
G36*
G01*
X0023106Y0093976D02*
X0018185Y0093976D01*
G75*
G02*
X0017693Y0094468I0000000J0000492D01*
G01*
X0017693Y0095452D01*
G75*
G02*
X0018185Y0095945I0000492J0000000D01*
G01*
X0023106Y0095945D01*
G75*
G02*
X0023599Y0095452I0000000J-000492D01*
G01*
X0023599Y0094468D01*
G75*
G02*
X0023106Y0093976I-000492J0000000D01*
G01*
G37*
G36*
G01*
X0044652Y0128602D02*
X0043293Y0128602D01*
G75*
G02*
X0042713Y0129183I0000000J0000581D01*
G01*
X0042713Y0130344D01*
G75*
G02*
X0043293Y0130925I0000581J0000000D01*
G01*
X0044652Y0130925D01*
G75*
G02*
X0045232Y0130344I0000000J-000581D01*
G01*
X0045232Y0129183D01*
G75*
G02*
X0044652Y0128602I-000581J0000000D01*
G01*
G37*
G36*
G01*
X0044652Y0132421D02*
X0043293Y0132421D01*
G75*
G02*
X0042713Y0133002I0000000J0000581D01*
G01*
X0042713Y0134163D01*
G75*
G02*
X0043293Y0134744I0000581J0000000D01*
G01*
X0044652Y0134744D01*
G75*
G02*
X0045232Y0134163I0000000J-000581D01*
G01*
X0045232Y0133002D01*
G75*
G02*
X0044652Y0132421I-000581J0000000D01*
G01*
G37*
G36*
G01*
X0021256Y0121525D02*
X0021256Y0120167D01*
G75*
G02*
X0020675Y0119586I-000581J0000000D01*
G01*
X0019514Y0119586D01*
G75*
G02*
X0018933Y0120167I0000000J0000581D01*
G01*
X0018933Y0121525D01*
G75*
G02*
X0019514Y0122106I0000581J0000000D01*
G01*
X0020675Y0122106D01*
G75*
G02*
X0021256Y0121525I0000000J-000581D01*
G01*
G37*
G36*
G01*
X0017437Y0121525D02*
X0017437Y0120167D01*
G75*
G02*
X0016856Y0119586I-000581J0000000D01*
G01*
X0015695Y0119586D01*
G75*
G02*
X0015114Y0120167I0000000J0000581D01*
G01*
X0015114Y0121525D01*
G75*
G02*
X0015695Y0122106I0000581J0000000D01*
G01*
X0016856Y0122106D01*
G75*
G02*
X0017437Y0121525I0000000J-000581D01*
G01*
G37*
G36*
G01*
X0043293Y0145169D02*
X0044652Y0145169D01*
G75*
G02*
X0045232Y0144588I0000000J-000581D01*
G01*
X0045232Y0143427D01*
G75*
G02*
X0044652Y0142846I-000581J0000000D01*
G01*
X0043293Y0142846D01*
G75*
G02*
X0042713Y0143427I0000000J0000581D01*
G01*
X0042713Y0144588D01*
G75*
G02*
X0043293Y0145169I0000581J0000000D01*
G01*
G37*
G36*
G01*
X0043293Y0141350D02*
X0044652Y0141350D01*
G75*
G02*
X0045232Y0140769I0000000J-000581D01*
G01*
X0045232Y0139608D01*
G75*
G02*
X0044652Y0139027I-000581J0000000D01*
G01*
X0043293Y0139027D01*
G75*
G02*
X0042713Y0139608I0000000J0000581D01*
G01*
X0042713Y0140769D01*
G75*
G02*
X0043293Y0141350I0000581J0000000D01*
G01*
G37*
D134*
X0048894Y0143681D03*
X0048894Y0136200D03*
X0056768Y0139941D03*
G36*
G01*
X0023126Y0084616D02*
X0023126Y0083258D01*
G75*
G02*
X0022545Y0082677I-000581J0000000D01*
G01*
X0021384Y0082677D01*
G75*
G02*
X0020803Y0083258I0000000J0000581D01*
G01*
X0020803Y0084616D01*
G75*
G02*
X0021384Y0085197I0000581J0000000D01*
G01*
X0022545Y0085197D01*
G75*
G02*
X0023126Y0084616I0000000J-000581D01*
G01*
G37*
G36*
G01*
X0019307Y0084616D02*
X0019307Y0083258D01*
G75*
G02*
X0018726Y0082677I-000581J0000000D01*
G01*
X0017565Y0082677D01*
G75*
G02*
X0016984Y0083258I0000000J0000581D01*
G01*
X0016984Y0084616D01*
G75*
G02*
X0017565Y0085197I0000581J0000000D01*
G01*
X0018726Y0085197D01*
G75*
G02*
X0019307Y0084616I0000000J-000581D01*
G01*
G37*
G36*
G01*
X0058165Y0130743D02*
X0058165Y0128725D01*
G75*
G02*
X0057304Y0127864I-000861J0000000D01*
G01*
X0055582Y0127864D01*
G75*
G02*
X0054721Y0128725I0000000J0000861D01*
G01*
X0054721Y0130743D01*
G75*
G02*
X0055582Y0131604I0000861J0000000D01*
G01*
X0057304Y0131604D01*
G75*
G02*
X0058165Y0130743I0000000J-000861D01*
G01*
G37*
G36*
G01*
X0051965Y0130743D02*
X0051965Y0128725D01*
G75*
G02*
X0051103Y0127864I-000861J0000000D01*
G01*
X0049381Y0127864D01*
G75*
G02*
X0048520Y0128725I0000000J0000861D01*
G01*
X0048520Y0130743D01*
G75*
G02*
X0049381Y0131604I0000861J0000000D01*
G01*
X0051103Y0131604D01*
G75*
G02*
X0051965Y0130743I0000000J-000861D01*
G01*
G37*
D142*
X0016020Y0146496D03*
X0012020Y0126496D03*
X0020020Y0126496D03*
D139*
X0013520Y0141496D03*
X0018520Y0141496D03*
X0013520Y0136496D03*
X0018520Y0136496D03*
X0013520Y0131496D03*
X0018520Y0131496D03*
D317*
X0054898Y0057008D03*
D318*
X0054898Y0067008D03*
X0054898Y0077008D03*
M02*
