G75*
G70*
%OFA0B0*%
%FSLAX25Y25*%
%IPPOS*%
%LPD*%
%AMOC8*
5,1,8,0,0,1.08239X$1,22.5*
%
%AMM147*
21,1,0.041340,0.026770,-0.000000,-0.000000,180.000000*
21,1,0.029130,0.038980,-0.000000,-0.000000,180.000000*
1,1,0.012210,-0.014570,0.013390*
1,1,0.012210,0.014570,0.013390*
1,1,0.012210,0.014570,-0.013390*
1,1,0.012210,-0.014570,-0.013390*
%
%AMM148*
21,1,0.076380,0.036220,-0.000000,-0.000000,270.000000*
21,1,0.061810,0.050790,-0.000000,-0.000000,270.000000*
1,1,0.014570,-0.018110,-0.030910*
1,1,0.014570,-0.018110,0.030910*
1,1,0.014570,0.018110,0.030910*
1,1,0.014570,0.018110,-0.030910*
%
%AMM151*
21,1,0.029130,0.018900,-0.000000,-0.000000,270.000000*
21,1,0.018900,0.029130,-0.000000,-0.000000,270.000000*
1,1,0.010240,-0.009450,-0.009450*
1,1,0.010240,-0.009450,0.009450*
1,1,0.010240,0.009450,0.009450*
1,1,0.010240,0.009450,-0.009450*
%
%AMM152*
21,1,0.025200,0.019680,-0.000000,-0.000000,180.000000*
21,1,0.015750,0.029130,-0.000000,-0.000000,180.000000*
1,1,0.009450,-0.007870,0.009840*
1,1,0.009450,0.007870,0.009840*
1,1,0.009450,0.007870,-0.009840*
1,1,0.009450,-0.007870,-0.009840*
%
%AMM153*
21,1,0.025200,0.019680,-0.000000,-0.000000,90.000000*
21,1,0.015750,0.029130,-0.000000,-0.000000,90.000000*
1,1,0.009450,0.009840,0.007870*
1,1,0.009450,0.009840,-0.007870*
1,1,0.009450,-0.009840,-0.007870*
1,1,0.009450,-0.009840,0.007870*
%
%AMM159*
21,1,0.111810,0.050390,-0.000000,-0.000000,270.000000*
21,1,0.093700,0.068500,-0.000000,-0.000000,270.000000*
1,1,0.018110,-0.025200,-0.046850*
1,1,0.018110,-0.025200,0.046850*
1,1,0.018110,0.025200,0.046850*
1,1,0.018110,0.025200,-0.046850*
%
%AMM160*
21,1,0.038980,0.026770,-0.000000,-0.000000,90.000000*
21,1,0.026770,0.038980,-0.000000,-0.000000,90.000000*
1,1,0.012210,0.013390,0.013390*
1,1,0.012210,0.013390,-0.013390*
1,1,0.012210,-0.013390,-0.013390*
1,1,0.012210,-0.013390,0.013390*
%
%AMM161*
21,1,0.029130,0.018900,-0.000000,-0.000000,0.000000*
21,1,0.018900,0.029130,-0.000000,-0.000000,0.000000*
1,1,0.010240,0.009450,-0.009450*
1,1,0.010240,-0.009450,-0.009450*
1,1,0.010240,-0.009450,0.009450*
1,1,0.010240,0.009450,0.009450*
%
%AMM162*
21,1,0.127560,0.075590,-0.000000,-0.000000,0.000000*
21,1,0.103150,0.100000,-0.000000,-0.000000,0.000000*
1,1,0.024410,0.051580,-0.037800*
1,1,0.024410,-0.051580,-0.037800*
1,1,0.024410,-0.051580,0.037800*
1,1,0.024410,0.051580,0.037800*
%
%AMM163*
21,1,0.123620,0.083460,-0.000000,-0.000000,180.000000*
21,1,0.097240,0.109840,-0.000000,-0.000000,180.000000*
1,1,0.026380,-0.048620,0.041730*
1,1,0.026380,0.048620,0.041730*
1,1,0.026380,0.048620,-0.041730*
1,1,0.026380,-0.048620,-0.041730*
%
%AMM235*
21,1,0.029530,0.026380,-0.000000,-0.000000,90.000000*
21,1,0.020470,0.035430,-0.000000,-0.000000,90.000000*
1,1,0.009060,0.013190,0.010240*
1,1,0.009060,0.013190,-0.010240*
1,1,0.009060,-0.013190,-0.010240*
1,1,0.009060,-0.013190,0.010240*
%
%AMM236*
21,1,0.021650,0.027950,-0.000000,-0.000000,90.000000*
21,1,0.014170,0.035430,-0.000000,-0.000000,90.000000*
1,1,0.007480,0.013980,0.007090*
1,1,0.007480,0.013980,-0.007090*
1,1,0.007480,-0.013980,-0.007090*
1,1,0.007480,-0.013980,0.007090*
%
%AMM239*
21,1,0.031500,0.018900,-0.000000,-0.000000,270.000000*
21,1,0.022840,0.027560,-0.000000,-0.000000,270.000000*
1,1,0.008660,-0.009450,-0.011420*
1,1,0.008660,-0.009450,0.011420*
1,1,0.008660,0.009450,0.011420*
1,1,0.008660,0.009450,-0.011420*
%
%AMM241*
21,1,0.031500,0.018900,-0.000000,-0.000000,0.000000*
21,1,0.022840,0.027560,-0.000000,-0.000000,0.000000*
1,1,0.008660,0.011420,-0.009450*
1,1,0.008660,-0.011420,-0.009450*
1,1,0.008660,-0.011420,0.009450*
1,1,0.008660,0.011420,0.009450*
%
%AMM243*
21,1,0.039370,0.030320,-0.000000,-0.000000,90.000000*
21,1,0.028350,0.041340,-0.000000,-0.000000,90.000000*
1,1,0.011020,0.015160,0.014170*
1,1,0.011020,0.015160,-0.014170*
1,1,0.011020,-0.015160,-0.014170*
1,1,0.011020,-0.015160,0.014170*
%
%AMM246*
21,1,0.031500,0.030710,-0.000000,-0.000000,180.000000*
21,1,0.022050,0.040160,-0.000000,-0.000000,180.000000*
1,1,0.009450,-0.011020,0.015350*
1,1,0.009450,0.011020,0.015350*
1,1,0.009450,0.011020,-0.015350*
1,1,0.009450,-0.011020,-0.015350*
%
%AMM261*
21,1,0.037400,0.026770,-0.000000,-0.000000,270.000000*
21,1,0.026770,0.037400,-0.000000,-0.000000,270.000000*
1,1,0.010630,-0.013390,-0.013390*
1,1,0.010630,-0.013390,0.013390*
1,1,0.010630,0.013390,0.013390*
1,1,0.010630,0.013390,-0.013390*
%
%AMM262*
21,1,0.029530,0.026380,-0.000000,-0.000000,180.000000*
21,1,0.020470,0.035430,-0.000000,-0.000000,180.000000*
1,1,0.009060,-0.010240,0.013190*
1,1,0.009060,0.010240,0.013190*
1,1,0.009060,0.010240,-0.013190*
1,1,0.009060,-0.010240,-0.013190*
%
%AMM263*
21,1,0.021650,0.027950,-0.000000,-0.000000,180.000000*
21,1,0.014170,0.035430,-0.000000,-0.000000,180.000000*
1,1,0.007480,-0.007090,0.013980*
1,1,0.007480,0.007090,0.013980*
1,1,0.007480,0.007090,-0.013980*
1,1,0.007480,-0.007090,-0.013980*
%
%AMM264*
21,1,0.037400,0.026770,-0.000000,-0.000000,180.000000*
21,1,0.026770,0.037400,-0.000000,-0.000000,180.000000*
1,1,0.010630,-0.013390,0.013390*
1,1,0.010630,0.013390,0.013390*
1,1,0.010630,0.013390,-0.013390*
1,1,0.010630,-0.013390,-0.013390*
%
%AMM265*
21,1,0.082680,0.045670,-0.000000,-0.000000,0.000000*
21,1,0.067320,0.061020,-0.000000,-0.000000,0.000000*
1,1,0.015350,0.033660,-0.022840*
1,1,0.015350,-0.033660,-0.022840*
1,1,0.015350,-0.033660,0.022840*
1,1,0.015350,0.033660,0.022840*
%
%AMM266*
21,1,0.062990,0.020470,-0.000000,-0.000000,0.000000*
21,1,0.053940,0.029530,-0.000000,-0.000000,0.000000*
1,1,0.009060,0.026970,-0.010240*
1,1,0.009060,-0.026970,-0.010240*
1,1,0.009060,-0.026970,0.010240*
1,1,0.009060,0.026970,0.010240*
%
%AMM267*
21,1,0.039370,0.030320,-0.000000,-0.000000,0.000000*
21,1,0.028350,0.041340,-0.000000,-0.000000,0.000000*
1,1,0.011020,0.014170,-0.015160*
1,1,0.011020,-0.014170,-0.015160*
1,1,0.011020,-0.014170,0.015160*
1,1,0.011020,0.014170,0.015160*
%
%AMM268*
21,1,0.016540,0.028980,-0.000000,-0.000000,0.000000*
21,1,0.010080,0.035430,-0.000000,-0.000000,0.000000*
1,1,0.006460,0.005040,-0.014490*
1,1,0.006460,-0.005040,-0.014490*
1,1,0.006460,-0.005040,0.014490*
1,1,0.006460,0.005040,0.014490*
%
%AMM269*
21,1,0.074800,0.036220,-0.000000,-0.000000,180.000000*
21,1,0.061810,0.049210,-0.000000,-0.000000,180.000000*
1,1,0.012990,-0.030910,0.018110*
1,1,0.012990,0.030910,0.018110*
1,1,0.012990,0.030910,-0.018110*
1,1,0.012990,-0.030910,-0.018110*
%
%AMM270*
21,1,0.039760,0.026770,-0.000000,-0.000000,180.000000*
21,1,0.029130,0.037400,-0.000000,-0.000000,180.000000*
1,1,0.010630,-0.014570,0.013390*
1,1,0.010630,0.014570,0.013390*
1,1,0.010630,0.014570,-0.013390*
1,1,0.010630,-0.014570,-0.013390*
%
%AMM271*
21,1,0.031500,0.049610,-0.000000,-0.000000,180.000000*
21,1,0.022050,0.059060,-0.000000,-0.000000,180.000000*
1,1,0.009450,-0.011020,0.024800*
1,1,0.009450,0.011020,0.024800*
1,1,0.009450,0.011020,-0.024800*
1,1,0.009450,-0.011020,-0.024800*
%
%AMM272*
21,1,0.074800,0.036220,-0.000000,-0.000000,270.000000*
21,1,0.061810,0.049210,-0.000000,-0.000000,270.000000*
1,1,0.012990,-0.018110,-0.030910*
1,1,0.012990,-0.018110,0.030910*
1,1,0.012990,0.018110,0.030910*
1,1,0.012990,0.018110,-0.030910*
%
%AMM273*
21,1,0.031500,0.030710,-0.000000,-0.000000,270.000000*
21,1,0.022050,0.040160,-0.000000,-0.000000,270.000000*
1,1,0.009450,-0.015350,-0.011020*
1,1,0.009450,-0.015350,0.011020*
1,1,0.009450,0.015350,0.011020*
1,1,0.009450,0.015350,-0.011020*
%
%ADD120C,0.02913*%
%ADD121C,0.06457*%
%ADD131O,0.02520X0.09213*%
%ADD136C,0.05118*%
%ADD140R,0.07500X0.07874*%
%ADD141O,0.07500X0.07874*%
%ADD142C,0.03900*%
%ADD144R,0.05709X0.01772*%
%ADD145R,0.04803X0.02559*%
%ADD16C,0.22047*%
%ADD17R,0.06693X0.06693*%
%ADD18O,0.06693X0.06693*%
%ADD195C,0.04724*%
%ADD196C,0.04294*%
%ADD221R,0.01772X0.01870*%
%ADD223O,0.05354X0.01378*%
%ADD226R,0.09843X0.07087*%
%ADD227R,0.01870X0.01772*%
%ADD229R,0.04331X0.04724*%
%ADD28C,0.05906*%
%ADD29C,0.02362*%
%ADD298M147*%
%ADD299M148*%
%ADD302M151*%
%ADD303M152*%
%ADD304M153*%
%ADD310M159*%
%ADD311M160*%
%ADD312M161*%
%ADD313M162*%
%ADD314M163*%
%ADD317R,0.07874X0.07500*%
%ADD318O,0.07874X0.07500*%
%ADD320R,0.01772X0.05709*%
%ADD321R,0.02559X0.04803*%
%ADD39R,0.10335X0.10335*%
%ADD40C,0.10335*%
%ADD41R,0.04331X0.04331*%
%ADD413M235*%
%ADD414M236*%
%ADD417M239*%
%ADD419M241*%
%ADD42C,0.04331*%
%ADD421M243*%
%ADD424M246*%
%ADD43O,0.04331X0.09449*%
%ADD439M261*%
%ADD44C,0.06000*%
%ADD440M262*%
%ADD441M263*%
%ADD442M264*%
%ADD443M265*%
%ADD444M266*%
%ADD445M267*%
%ADD446M268*%
%ADD447M269*%
%ADD448M270*%
%ADD449M271*%
%ADD450M272*%
%ADD451M273*%
%ADD65C,0.00472*%
%ADD66C,0.11220*%
X0000000Y0000000D02*
%LPD*%
G01*
D65*
X0617244Y0086610D02*
X0566063Y0086610D01*
X0566063Y0114169D01*
X0617244Y0114169D01*
X0617244Y0086610D01*
G36*
X0617244Y0086610D02*
G01*
X0566063Y0086610D01*
X0566063Y0114169D01*
X0617244Y0114169D01*
X0617244Y0086610D01*
G37*
D16*
X0017504Y0207480D03*
X0613803Y0192547D03*
D17*
X0549272Y0029937D03*
D18*
X0549272Y0019937D03*
D16*
X0019768Y0019563D03*
D17*
X0084847Y0172207D03*
D18*
X0084847Y0162207D03*
D28*
X0087048Y0041441D03*
X0087048Y0066638D03*
X0087048Y0074118D03*
X0087048Y0091047D03*
D29*
X0085276Y0100496D03*
X0085276Y0104433D03*
D28*
X0087048Y0115654D03*
X0148071Y0039669D03*
X0148071Y0046953D03*
X0148071Y0066441D03*
X0148071Y0113882D03*
D66*
X0234363Y0036177D03*
X0395780Y0036177D03*
D39*
X0259953Y0053894D03*
D40*
X0275701Y0053894D03*
X0291449Y0053894D03*
X0307197Y0053894D03*
X0322945Y0053894D03*
X0338693Y0053894D03*
X0354441Y0053894D03*
X0370189Y0053894D03*
X0267827Y0038146D03*
X0283575Y0038146D03*
X0299323Y0038146D03*
X0315071Y0038146D03*
X0330819Y0038146D03*
X0346567Y0038146D03*
X0362315Y0038146D03*
X0259953Y0022398D03*
X0275701Y0022398D03*
X0291449Y0022398D03*
X0307197Y0022398D03*
X0322945Y0022398D03*
X0338693Y0022398D03*
X0354441Y0022398D03*
X0370189Y0022398D03*
G36*
G01*
X0592111Y0233465D02*
X0592111Y0239764D01*
G75*
G02*
X0593095Y0240748I0000984J0000000D01*
G01*
X0599394Y0240748D01*
G75*
G02*
X0600378Y0239764I0000000J-000984D01*
G01*
X0600378Y0233465D01*
G75*
G02*
X0599394Y0232480I-000984J0000000D01*
G01*
X0593095Y0232480D01*
G75*
G02*
X0592111Y0233465I0000000J0000984D01*
G01*
G37*
G36*
G01*
X0569670Y0233465D02*
X0569670Y0239764D01*
G75*
G02*
X0570654Y0240748I0000984J0000000D01*
G01*
X0576953Y0240748D01*
G75*
G02*
X0577937Y0239764I0000000J-000984D01*
G01*
X0577937Y0233465D01*
G75*
G02*
X0576953Y0232480I-000984J0000000D01*
G01*
X0570654Y0232480D01*
G75*
G02*
X0569670Y0233465I0000000J0000984D01*
G01*
G37*
G36*
G01*
X0547229Y0233465D02*
X0547229Y0239764D01*
G75*
G02*
X0548213Y0240748I0000984J0000000D01*
G01*
X0554512Y0240748D01*
G75*
G02*
X0555496Y0239764I0000000J-000984D01*
G01*
X0555496Y0233465D01*
G75*
G02*
X0554512Y0232480I-000984J0000000D01*
G01*
X0548213Y0232480D01*
G75*
G02*
X0547229Y0233465I0000000J0000984D01*
G01*
G37*
G36*
G01*
X0524788Y0233465D02*
X0524788Y0239764D01*
G75*
G02*
X0525772Y0240748I0000984J0000000D01*
G01*
X0532071Y0240748D01*
G75*
G02*
X0533055Y0239764I0000000J-000984D01*
G01*
X0533055Y0233465D01*
G75*
G02*
X0532071Y0232480I-000984J0000000D01*
G01*
X0525772Y0232480D01*
G75*
G02*
X0524788Y0233465I0000000J0000984D01*
G01*
G37*
G36*
G01*
X0502347Y0233465D02*
X0502347Y0239764D01*
G75*
G02*
X0503331Y0240748I0000984J0000000D01*
G01*
X0509630Y0240748D01*
G75*
G02*
X0510614Y0239764I0000000J-000984D01*
G01*
X0510614Y0233465D01*
G75*
G02*
X0509630Y0232480I-000984J0000000D01*
G01*
X0503331Y0232480D01*
G75*
G02*
X0502347Y0233465I0000000J0000984D01*
G01*
G37*
G36*
G01*
X0479906Y0233465D02*
X0479906Y0239764D01*
G75*
G02*
X0480890Y0240748I0000984J0000000D01*
G01*
X0487189Y0240748D01*
G75*
G02*
X0488174Y0239764I0000000J-000984D01*
G01*
X0488174Y0233465D01*
G75*
G02*
X0487189Y0232480I-000984J0000000D01*
G01*
X0480890Y0232480D01*
G75*
G02*
X0479906Y0233465I0000000J0000984D01*
G01*
G37*
G36*
G01*
X0457465Y0233465D02*
X0457465Y0239764D01*
G75*
G02*
X0458449Y0240748I0000984J0000000D01*
G01*
X0464748Y0240748D01*
G75*
G02*
X0465733Y0239764I0000000J-000984D01*
G01*
X0465733Y0233465D01*
G75*
G02*
X0464748Y0232480I-000984J0000000D01*
G01*
X0458449Y0232480D01*
G75*
G02*
X0457465Y0233465I0000000J0000984D01*
G01*
G37*
G36*
G01*
X0435024Y0233465D02*
X0435024Y0239764D01*
G75*
G02*
X0436008Y0240748I0000984J0000000D01*
G01*
X0442307Y0240748D01*
G75*
G02*
X0443292Y0239764I0000000J-000984D01*
G01*
X0443292Y0233465D01*
G75*
G02*
X0442307Y0232480I-000984J0000000D01*
G01*
X0436008Y0232480D01*
G75*
G02*
X0435024Y0233465I0000000J0000984D01*
G01*
G37*
G36*
G01*
X0412583Y0233465D02*
X0412583Y0239764D01*
G75*
G02*
X0413567Y0240748I0000984J0000000D01*
G01*
X0419866Y0240748D01*
G75*
G02*
X0420851Y0239764I0000000J-000984D01*
G01*
X0420851Y0233465D01*
G75*
G02*
X0419866Y0232480I-000984J0000000D01*
G01*
X0413567Y0232480D01*
G75*
G02*
X0412583Y0233465I0000000J0000984D01*
G01*
G37*
G36*
G01*
X0390142Y0233465D02*
X0390142Y0239764D01*
G75*
G02*
X0391126Y0240748I0000984J0000000D01*
G01*
X0397426Y0240748D01*
G75*
G02*
X0398410Y0239764I0000000J-000984D01*
G01*
X0398410Y0233465D01*
G75*
G02*
X0397426Y0232480I-000984J0000000D01*
G01*
X0391126Y0232480D01*
G75*
G02*
X0390142Y0233465I0000000J0000984D01*
G01*
G37*
G36*
G01*
X0367701Y0233465D02*
X0367701Y0239764D01*
G75*
G02*
X0368685Y0240748I0000984J0000000D01*
G01*
X0374985Y0240748D01*
G75*
G02*
X0375969Y0239764I0000000J-000984D01*
G01*
X0375969Y0233465D01*
G75*
G02*
X0374985Y0232480I-000984J0000000D01*
G01*
X0368685Y0232480D01*
G75*
G02*
X0367701Y0233465I0000000J0000984D01*
G01*
G37*
G36*
G01*
X0592111Y0249606D02*
X0592111Y0255906D01*
G75*
G02*
X0593095Y0256890I0000984J0000000D01*
G01*
X0599394Y0256890D01*
G75*
G02*
X0600378Y0255906I0000000J-000984D01*
G01*
X0600378Y0249606D01*
G75*
G02*
X0599394Y0248622I-000984J0000000D01*
G01*
X0593095Y0248622D01*
G75*
G02*
X0592111Y0249606I0000000J0000984D01*
G01*
G37*
G36*
G01*
X0569670Y0249606D02*
X0569670Y0255906D01*
G75*
G02*
X0570654Y0256890I0000984J0000000D01*
G01*
X0576953Y0256890D01*
G75*
G02*
X0577937Y0255906I0000000J-000984D01*
G01*
X0577937Y0249606D01*
G75*
G02*
X0576953Y0248622I-000984J0000000D01*
G01*
X0570654Y0248622D01*
G75*
G02*
X0569670Y0249606I0000000J0000984D01*
G01*
G37*
G36*
G01*
X0547229Y0249606D02*
X0547229Y0255906D01*
G75*
G02*
X0548213Y0256890I0000984J0000000D01*
G01*
X0554512Y0256890D01*
G75*
G02*
X0555496Y0255906I0000000J-000984D01*
G01*
X0555496Y0249606D01*
G75*
G02*
X0554512Y0248622I-000984J0000000D01*
G01*
X0548213Y0248622D01*
G75*
G02*
X0547229Y0249606I0000000J0000984D01*
G01*
G37*
G36*
G01*
X0524788Y0249606D02*
X0524788Y0255906D01*
G75*
G02*
X0525772Y0256890I0000984J0000000D01*
G01*
X0532071Y0256890D01*
G75*
G02*
X0533055Y0255906I0000000J-000984D01*
G01*
X0533055Y0249606D01*
G75*
G02*
X0532071Y0248622I-000984J0000000D01*
G01*
X0525772Y0248622D01*
G75*
G02*
X0524788Y0249606I0000000J0000984D01*
G01*
G37*
G36*
G01*
X0502347Y0249606D02*
X0502347Y0255906D01*
G75*
G02*
X0503331Y0256890I0000984J0000000D01*
G01*
X0509630Y0256890D01*
G75*
G02*
X0510614Y0255906I0000000J-000984D01*
G01*
X0510614Y0249606D01*
G75*
G02*
X0509630Y0248622I-000984J0000000D01*
G01*
X0503331Y0248622D01*
G75*
G02*
X0502347Y0249606I0000000J0000984D01*
G01*
G37*
G36*
G01*
X0479906Y0249606D02*
X0479906Y0255906D01*
G75*
G02*
X0480890Y0256890I0000984J0000000D01*
G01*
X0487189Y0256890D01*
G75*
G02*
X0488174Y0255906I0000000J-000984D01*
G01*
X0488174Y0249606D01*
G75*
G02*
X0487189Y0248622I-000984J0000000D01*
G01*
X0480890Y0248622D01*
G75*
G02*
X0479906Y0249606I0000000J0000984D01*
G01*
G37*
G36*
G01*
X0457465Y0249606D02*
X0457465Y0255906D01*
G75*
G02*
X0458449Y0256890I0000984J0000000D01*
G01*
X0464748Y0256890D01*
G75*
G02*
X0465733Y0255906I0000000J-000984D01*
G01*
X0465733Y0249606D01*
G75*
G02*
X0464748Y0248622I-000984J0000000D01*
G01*
X0458449Y0248622D01*
G75*
G02*
X0457465Y0249606I0000000J0000984D01*
G01*
G37*
G36*
G01*
X0435024Y0249606D02*
X0435024Y0255906D01*
G75*
G02*
X0436008Y0256890I0000984J0000000D01*
G01*
X0442307Y0256890D01*
G75*
G02*
X0443292Y0255906I0000000J-000984D01*
G01*
X0443292Y0249606D01*
G75*
G02*
X0442307Y0248622I-000984J0000000D01*
G01*
X0436008Y0248622D01*
G75*
G02*
X0435024Y0249606I0000000J0000984D01*
G01*
G37*
G36*
G01*
X0412583Y0249606D02*
X0412583Y0255906D01*
G75*
G02*
X0413567Y0256890I0000984J0000000D01*
G01*
X0419866Y0256890D01*
G75*
G02*
X0420851Y0255906I0000000J-000984D01*
G01*
X0420851Y0249606D01*
G75*
G02*
X0419866Y0248622I-000984J0000000D01*
G01*
X0413567Y0248622D01*
G75*
G02*
X0412583Y0249606I0000000J0000984D01*
G01*
G37*
G36*
G01*
X0390142Y0249606D02*
X0390142Y0255906D01*
G75*
G02*
X0391126Y0256890I0000984J0000000D01*
G01*
X0397426Y0256890D01*
G75*
G02*
X0398410Y0255906I0000000J-000984D01*
G01*
X0398410Y0249606D01*
G75*
G02*
X0397426Y0248622I-000984J0000000D01*
G01*
X0391126Y0248622D01*
G75*
G02*
X0390142Y0249606I0000000J0000984D01*
G01*
G37*
G36*
G01*
X0367701Y0249606D02*
X0367701Y0255906D01*
G75*
G02*
X0368685Y0256890I0000984J0000000D01*
G01*
X0374985Y0256890D01*
G75*
G02*
X0375969Y0255906I0000000J-000984D01*
G01*
X0375969Y0249606D01*
G75*
G02*
X0374985Y0248622I-000984J0000000D01*
G01*
X0368685Y0248622D01*
G75*
G02*
X0367701Y0249606I0000000J0000984D01*
G01*
G37*
G36*
G01*
X0253528Y0233661D02*
X0253528Y0239961D01*
G75*
G02*
X0254512Y0240945I0000984J0000000D01*
G01*
X0260811Y0240945D01*
G75*
G02*
X0261796Y0239961I0000000J-000984D01*
G01*
X0261796Y0233661D01*
G75*
G02*
X0260811Y0232677I-000984J0000000D01*
G01*
X0254512Y0232677D01*
G75*
G02*
X0253528Y0233661I0000000J0000984D01*
G01*
G37*
G36*
G01*
X0231087Y0233661D02*
X0231087Y0239961D01*
G75*
G02*
X0232071Y0240945I0000984J0000000D01*
G01*
X0238370Y0240945D01*
G75*
G02*
X0239355Y0239961I0000000J-000984D01*
G01*
X0239355Y0233661D01*
G75*
G02*
X0238370Y0232677I-000984J0000000D01*
G01*
X0232071Y0232677D01*
G75*
G02*
X0231087Y0233661I0000000J0000984D01*
G01*
G37*
G36*
G01*
X0208646Y0233661D02*
X0208646Y0239961D01*
G75*
G02*
X0209630Y0240945I0000984J0000000D01*
G01*
X0215929Y0240945D01*
G75*
G02*
X0216914Y0239961I0000000J-000984D01*
G01*
X0216914Y0233661D01*
G75*
G02*
X0215929Y0232677I-000984J0000000D01*
G01*
X0209630Y0232677D01*
G75*
G02*
X0208646Y0233661I0000000J0000984D01*
G01*
G37*
G36*
G01*
X0186205Y0233661D02*
X0186205Y0239961D01*
G75*
G02*
X0187189Y0240945I0000984J0000000D01*
G01*
X0193489Y0240945D01*
G75*
G02*
X0194473Y0239961I0000000J-000984D01*
G01*
X0194473Y0233661D01*
G75*
G02*
X0193489Y0232677I-000984J0000000D01*
G01*
X0187189Y0232677D01*
G75*
G02*
X0186205Y0233661I0000000J0000984D01*
G01*
G37*
G36*
G01*
X0163764Y0233661D02*
X0163764Y0239961D01*
G75*
G02*
X0164748Y0240945I0000984J0000000D01*
G01*
X0171048Y0240945D01*
G75*
G02*
X0172032Y0239961I0000000J-000984D01*
G01*
X0172032Y0233661D01*
G75*
G02*
X0171048Y0232677I-000984J0000000D01*
G01*
X0164748Y0232677D01*
G75*
G02*
X0163764Y0233661I0000000J0000984D01*
G01*
G37*
G36*
G01*
X0141323Y0233661D02*
X0141323Y0239961D01*
G75*
G02*
X0142307Y0240945I0000984J0000000D01*
G01*
X0148607Y0240945D01*
G75*
G02*
X0149591Y0239961I0000000J-000984D01*
G01*
X0149591Y0233661D01*
G75*
G02*
X0148607Y0232677I-000984J0000000D01*
G01*
X0142307Y0232677D01*
G75*
G02*
X0141323Y0233661I0000000J0000984D01*
G01*
G37*
G36*
G01*
X0118882Y0233661D02*
X0118882Y0239961D01*
G75*
G02*
X0119866Y0240945I0000984J0000000D01*
G01*
X0126166Y0240945D01*
G75*
G02*
X0127150Y0239961I0000000J-000984D01*
G01*
X0127150Y0233661D01*
G75*
G02*
X0126166Y0232677I-000984J0000000D01*
G01*
X0119866Y0232677D01*
G75*
G02*
X0118882Y0233661I0000000J0000984D01*
G01*
G37*
G36*
G01*
X0096441Y0233661D02*
X0096441Y0239961D01*
G75*
G02*
X0097426Y0240945I0000984J0000000D01*
G01*
X0103725Y0240945D01*
G75*
G02*
X0104709Y0239961I0000000J-000984D01*
G01*
X0104709Y0233661D01*
G75*
G02*
X0103725Y0232677I-000984J0000000D01*
G01*
X0097426Y0232677D01*
G75*
G02*
X0096441Y0233661I0000000J0000984D01*
G01*
G37*
G36*
G01*
X0074000Y0233661D02*
X0074000Y0239961D01*
G75*
G02*
X0074985Y0240945I0000984J0000000D01*
G01*
X0081284Y0240945D01*
G75*
G02*
X0082268Y0239961I0000000J-000984D01*
G01*
X0082268Y0233661D01*
G75*
G02*
X0081284Y0232677I-000984J0000000D01*
G01*
X0074985Y0232677D01*
G75*
G02*
X0074000Y0233661I0000000J0000984D01*
G01*
G37*
G36*
G01*
X0051559Y0233661D02*
X0051559Y0239961D01*
G75*
G02*
X0052544Y0240945I0000984J0000000D01*
G01*
X0058843Y0240945D01*
G75*
G02*
X0059827Y0239961I0000000J-000984D01*
G01*
X0059827Y0233661D01*
G75*
G02*
X0058843Y0232677I-000984J0000000D01*
G01*
X0052544Y0232677D01*
G75*
G02*
X0051559Y0233661I0000000J0000984D01*
G01*
G37*
G36*
G01*
X0029118Y0233661D02*
X0029118Y0239961D01*
G75*
G02*
X0030103Y0240945I0000984J0000000D01*
G01*
X0036402Y0240945D01*
G75*
G02*
X0037386Y0239961I0000000J-000984D01*
G01*
X0037386Y0233661D01*
G75*
G02*
X0036402Y0232677I-000984J0000000D01*
G01*
X0030103Y0232677D01*
G75*
G02*
X0029118Y0233661I0000000J0000984D01*
G01*
G37*
G36*
G01*
X0253528Y0249803D02*
X0253528Y0256102D01*
G75*
G02*
X0254512Y0257087I0000984J0000000D01*
G01*
X0260811Y0257087D01*
G75*
G02*
X0261796Y0256102I0000000J-000984D01*
G01*
X0261796Y0249803D01*
G75*
G02*
X0260811Y0248819I-000984J0000000D01*
G01*
X0254512Y0248819D01*
G75*
G02*
X0253528Y0249803I0000000J0000984D01*
G01*
G37*
G36*
G01*
X0231087Y0249803D02*
X0231087Y0256102D01*
G75*
G02*
X0232071Y0257087I0000984J0000000D01*
G01*
X0238370Y0257087D01*
G75*
G02*
X0239355Y0256102I0000000J-000984D01*
G01*
X0239355Y0249803D01*
G75*
G02*
X0238370Y0248819I-000984J0000000D01*
G01*
X0232071Y0248819D01*
G75*
G02*
X0231087Y0249803I0000000J0000984D01*
G01*
G37*
G36*
G01*
X0208646Y0249803D02*
X0208646Y0256102D01*
G75*
G02*
X0209630Y0257087I0000984J0000000D01*
G01*
X0215929Y0257087D01*
G75*
G02*
X0216914Y0256102I0000000J-000984D01*
G01*
X0216914Y0249803D01*
G75*
G02*
X0215929Y0248819I-000984J0000000D01*
G01*
X0209630Y0248819D01*
G75*
G02*
X0208646Y0249803I0000000J0000984D01*
G01*
G37*
G36*
G01*
X0186205Y0249803D02*
X0186205Y0256102D01*
G75*
G02*
X0187189Y0257087I0000984J0000000D01*
G01*
X0193489Y0257087D01*
G75*
G02*
X0194473Y0256102I0000000J-000984D01*
G01*
X0194473Y0249803D01*
G75*
G02*
X0193489Y0248819I-000984J0000000D01*
G01*
X0187189Y0248819D01*
G75*
G02*
X0186205Y0249803I0000000J0000984D01*
G01*
G37*
G36*
G01*
X0163764Y0249803D02*
X0163764Y0256102D01*
G75*
G02*
X0164748Y0257087I0000984J0000000D01*
G01*
X0171048Y0257087D01*
G75*
G02*
X0172032Y0256102I0000000J-000984D01*
G01*
X0172032Y0249803D01*
G75*
G02*
X0171048Y0248819I-000984J0000000D01*
G01*
X0164748Y0248819D01*
G75*
G02*
X0163764Y0249803I0000000J0000984D01*
G01*
G37*
G36*
G01*
X0141323Y0249803D02*
X0141323Y0256102D01*
G75*
G02*
X0142307Y0257087I0000984J0000000D01*
G01*
X0148607Y0257087D01*
G75*
G02*
X0149591Y0256102I0000000J-000984D01*
G01*
X0149591Y0249803D01*
G75*
G02*
X0148607Y0248819I-000984J0000000D01*
G01*
X0142307Y0248819D01*
G75*
G02*
X0141323Y0249803I0000000J0000984D01*
G01*
G37*
G36*
G01*
X0118882Y0249803D02*
X0118882Y0256102D01*
G75*
G02*
X0119866Y0257087I0000984J0000000D01*
G01*
X0126166Y0257087D01*
G75*
G02*
X0127150Y0256102I0000000J-000984D01*
G01*
X0127150Y0249803D01*
G75*
G02*
X0126166Y0248819I-000984J0000000D01*
G01*
X0119866Y0248819D01*
G75*
G02*
X0118882Y0249803I0000000J0000984D01*
G01*
G37*
G36*
G01*
X0096441Y0249803D02*
X0096441Y0256102D01*
G75*
G02*
X0097426Y0257087I0000984J0000000D01*
G01*
X0103725Y0257087D01*
G75*
G02*
X0104709Y0256102I0000000J-000984D01*
G01*
X0104709Y0249803D01*
G75*
G02*
X0103725Y0248819I-000984J0000000D01*
G01*
X0097426Y0248819D01*
G75*
G02*
X0096441Y0249803I0000000J0000984D01*
G01*
G37*
G36*
G01*
X0074000Y0249803D02*
X0074000Y0256102D01*
G75*
G02*
X0074985Y0257087I0000984J0000000D01*
G01*
X0081284Y0257087D01*
G75*
G02*
X0082268Y0256102I0000000J-000984D01*
G01*
X0082268Y0249803D01*
G75*
G02*
X0081284Y0248819I-000984J0000000D01*
G01*
X0074985Y0248819D01*
G75*
G02*
X0074000Y0249803I0000000J0000984D01*
G01*
G37*
G36*
G01*
X0051559Y0249803D02*
X0051559Y0256102D01*
G75*
G02*
X0052544Y0257087I0000984J0000000D01*
G01*
X0058843Y0257087D01*
G75*
G02*
X0059827Y0256102I0000000J-000984D01*
G01*
X0059827Y0249803D01*
G75*
G02*
X0058843Y0248819I-000984J0000000D01*
G01*
X0052544Y0248819D01*
G75*
G02*
X0051559Y0249803I0000000J0000984D01*
G01*
G37*
G36*
G01*
X0029118Y0249803D02*
X0029118Y0256102D01*
G75*
G02*
X0030103Y0257087I0000984J0000000D01*
G01*
X0036402Y0257087D01*
G75*
G02*
X0037386Y0256102I0000000J-000984D01*
G01*
X0037386Y0249803D01*
G75*
G02*
X0036402Y0248819I-000984J0000000D01*
G01*
X0030103Y0248819D01*
G75*
G02*
X0029118Y0249803I0000000J0000984D01*
G01*
G37*
D16*
X0523563Y0018189D03*
D17*
X0555083Y0052835D03*
D18*
X0555083Y0062835D03*
D41*
X0467611Y0022032D03*
D42*
X0470760Y0028921D03*
X0473910Y0022032D03*
X0477059Y0028921D03*
X0480209Y0022032D03*
D43*
X0459540Y0025476D03*
X0488280Y0025476D03*
D44*
X0100546Y0222651D03*
X0114187Y0209010D03*
X0101357Y0206797D03*
X0114998Y0193156D03*
G36*
G01*
X0138023Y0141090D02*
X0139991Y0141090D01*
G75*
G02*
X0140877Y0140204I0000000J-000886D01*
G01*
X0140877Y0138432D01*
G75*
G02*
X0139991Y0137546I-000886J0000000D01*
G01*
X0138023Y0137546D01*
G75*
G02*
X0137137Y0138432I0000000J0000886D01*
G01*
X0137137Y0140204D01*
G75*
G02*
X0138023Y0141090I0000886J0000000D01*
G01*
G37*
G36*
G01*
X0138023Y0134987D02*
X0139991Y0134987D01*
G75*
G02*
X0140877Y0134101I0000000J-000886D01*
G01*
X0140877Y0132330D01*
G75*
G02*
X0139991Y0131444I-000886J0000000D01*
G01*
X0138023Y0131444D01*
G75*
G02*
X0137137Y0132330I0000000J0000886D01*
G01*
X0137137Y0134101D01*
G75*
G02*
X0138023Y0134987I0000886J0000000D01*
G01*
G37*
G36*
G01*
X0052000Y0189211D02*
X0052000Y0187242D01*
G75*
G02*
X0051114Y0186357I-000886J0000000D01*
G01*
X0049343Y0186357D01*
G75*
G02*
X0048457Y0187242I0000000J0000886D01*
G01*
X0048457Y0189211D01*
G75*
G02*
X0049343Y0190097I0000886J0000000D01*
G01*
X0051114Y0190097D01*
G75*
G02*
X0052000Y0189211I0000000J-000886D01*
G01*
G37*
G36*
G01*
X0045898Y0189211D02*
X0045898Y0187242D01*
G75*
G02*
X0045012Y0186357I-000886J0000000D01*
G01*
X0043240Y0186357D01*
G75*
G02*
X0042354Y0187242I0000000J0000886D01*
G01*
X0042354Y0189211D01*
G75*
G02*
X0043240Y0190097I0000886J0000000D01*
G01*
X0045012Y0190097D01*
G75*
G02*
X0045898Y0189211I0000000J-000886D01*
G01*
G37*
G36*
G01*
X0029406Y0222428D02*
X0029406Y0223885D01*
G75*
G02*
X0029938Y0224417I0000531J0000000D01*
G01*
X0031001Y0224417D01*
G75*
G02*
X0031532Y0223885I0000000J-000531D01*
G01*
X0031532Y0222428D01*
G75*
G02*
X0031001Y0221897I-000531J0000000D01*
G01*
X0029938Y0221897D01*
G75*
G02*
X0029406Y0222428I0000000J0000531D01*
G01*
G37*
G36*
G01*
X0033422Y0222428D02*
X0033422Y0223885D01*
G75*
G02*
X0033954Y0224417I0000531J0000000D01*
G01*
X0035017Y0224417D01*
G75*
G02*
X0035548Y0223885I0000000J-000531D01*
G01*
X0035548Y0222428D01*
G75*
G02*
X0035017Y0221897I-000531J0000000D01*
G01*
X0033954Y0221897D01*
G75*
G02*
X0033422Y0222428I0000000J0000531D01*
G01*
G37*
G36*
G01*
X0463048Y0265051D02*
X0463048Y0261980D01*
G75*
G02*
X0462772Y0261705I-000276J0000000D01*
G01*
X0460567Y0261705D01*
G75*
G02*
X0460292Y0261980I0000000J0000276D01*
G01*
X0460292Y0265051D01*
G75*
G02*
X0460567Y0265327I0000276J0000000D01*
G01*
X0462772Y0265327D01*
G75*
G02*
X0463048Y0265051I0000000J-000276D01*
G01*
G37*
G36*
G01*
X0456748Y0265051D02*
X0456748Y0261980D01*
G75*
G02*
X0456473Y0261705I-000276J0000000D01*
G01*
X0454268Y0261705D01*
G75*
G02*
X0453992Y0261980I0000000J0000276D01*
G01*
X0453992Y0265051D01*
G75*
G02*
X0454268Y0265327I0000276J0000000D01*
G01*
X0456473Y0265327D01*
G75*
G02*
X0456748Y0265051I0000000J-000276D01*
G01*
G37*
G36*
G01*
X0510177Y0198197D02*
X0506162Y0198197D01*
G75*
G02*
X0505807Y0198551I0000000J0000354D01*
G01*
X0505807Y0201386D01*
G75*
G02*
X0506162Y0201740I0000354J0000000D01*
G01*
X0510177Y0201740D01*
G75*
G02*
X0510532Y0201386I0000000J-000354D01*
G01*
X0510532Y0198551D01*
G75*
G02*
X0510177Y0198197I-000354J0000000D01*
G01*
G37*
G36*
G01*
X0510177Y0211189D02*
X0506162Y0211189D01*
G75*
G02*
X0505807Y0211543I0000000J0000354D01*
G01*
X0505807Y0214378D01*
G75*
G02*
X0506162Y0214732I0000354J0000000D01*
G01*
X0510177Y0214732D01*
G75*
G02*
X0510532Y0214378I0000000J-000354D01*
G01*
X0510532Y0211543D01*
G75*
G02*
X0510177Y0211189I-000354J0000000D01*
G01*
G37*
G36*
G01*
X0494461Y0198303D02*
X0490445Y0198303D01*
G75*
G02*
X0490091Y0198658I0000000J0000354D01*
G01*
X0490091Y0201492D01*
G75*
G02*
X0490445Y0201847I0000354J0000000D01*
G01*
X0494461Y0201847D01*
G75*
G02*
X0494815Y0201492I0000000J-000354D01*
G01*
X0494815Y0198658D01*
G75*
G02*
X0494461Y0198303I-000354J0000000D01*
G01*
G37*
G36*
G01*
X0494461Y0211295D02*
X0490445Y0211295D01*
G75*
G02*
X0490091Y0211650I0000000J0000354D01*
G01*
X0490091Y0214484D01*
G75*
G02*
X0490445Y0214839I0000354J0000000D01*
G01*
X0494461Y0214839D01*
G75*
G02*
X0494815Y0214484I0000000J-000354D01*
G01*
X0494815Y0211650D01*
G75*
G02*
X0494461Y0211295I-000354J0000000D01*
G01*
G37*
G36*
G01*
X0489658Y0279236D02*
X0492729Y0279236D01*
G75*
G02*
X0493005Y0278961I0000000J-000276D01*
G01*
X0493005Y0276756D01*
G75*
G02*
X0492729Y0276480I-000276J0000000D01*
G01*
X0489658Y0276480D01*
G75*
G02*
X0489382Y0276756I0000000J0000276D01*
G01*
X0489382Y0278961D01*
G75*
G02*
X0489658Y0279236I0000276J0000000D01*
G01*
G37*
G36*
G01*
X0489658Y0272937D02*
X0492729Y0272937D01*
G75*
G02*
X0493005Y0272661I0000000J-000276D01*
G01*
X0493005Y0270457D01*
G75*
G02*
X0492729Y0270181I-000276J0000000D01*
G01*
X0489658Y0270181D01*
G75*
G02*
X0489382Y0270457I0000000J0000276D01*
G01*
X0489382Y0272661D01*
G75*
G02*
X0489658Y0272937I0000276J0000000D01*
G01*
G37*
G36*
G01*
X0042951Y0221483D02*
X0043981Y0222513D01*
G75*
G02*
X0044732Y0222513I0000376J-000376D01*
G01*
X0045484Y0221762D01*
G75*
G02*
X0045484Y0221010I-000376J-000376D01*
G01*
X0044454Y0219980D01*
G75*
G02*
X0043702Y0219980I-000376J0000376D01*
G01*
X0042951Y0220732D01*
G75*
G02*
X0042951Y0221483I0000376J0000376D01*
G01*
G37*
G36*
G01*
X0045790Y0218644D02*
X0046820Y0219674D01*
G75*
G02*
X0047572Y0219674I0000376J-000376D01*
G01*
X0048324Y0218922D01*
G75*
G02*
X0048324Y0218170I-000376J-000376D01*
G01*
X0047294Y0217140D01*
G75*
G02*
X0046542Y0217140I-000376J0000376D01*
G01*
X0045790Y0217892D01*
G75*
G02*
X0045790Y0218644I0000376J0000376D01*
G01*
G37*
G36*
G01*
X0471713Y0169543D02*
X0467697Y0169543D01*
G75*
G02*
X0467343Y0169898I0000000J0000354D01*
G01*
X0467343Y0172732D01*
G75*
G02*
X0467697Y0173087I0000354J0000000D01*
G01*
X0471713Y0173087D01*
G75*
G02*
X0472067Y0172732I0000000J-000354D01*
G01*
X0472067Y0169898D01*
G75*
G02*
X0471713Y0169543I-000354J0000000D01*
G01*
G37*
G36*
G01*
X0471713Y0182535D02*
X0467697Y0182535D01*
G75*
G02*
X0467343Y0182890I0000000J0000354D01*
G01*
X0467343Y0185724D01*
G75*
G02*
X0467697Y0186079I0000354J0000000D01*
G01*
X0471713Y0186079D01*
G75*
G02*
X0472067Y0185724I0000000J-000354D01*
G01*
X0472067Y0182890D01*
G75*
G02*
X0471713Y0182535I-000354J0000000D01*
G01*
G37*
G36*
G01*
X0458018Y0180588D02*
X0448301Y0174978D01*
G75*
G02*
X0446957Y0175338I-000492J0000852D01*
G01*
X0445529Y0177810D01*
G75*
G02*
X0445890Y0179155I0000852J0000492D01*
G01*
X0455607Y0184765D01*
G75*
G02*
X0456951Y0184405I0000492J-000852D01*
G01*
X0458379Y0181933D01*
G75*
G02*
X0458018Y0180588I-000852J-000492D01*
G01*
G37*
G36*
G01*
X0446355Y0200790D02*
X0436638Y0195180D01*
G75*
G02*
X0435293Y0195540I-000492J0000852D01*
G01*
X0433866Y0198012D01*
G75*
G02*
X0434226Y0199357I0000852J0000492D01*
G01*
X0443944Y0204967D01*
G75*
G02*
X0445288Y0204606I0000492J-000852D01*
G01*
X0446715Y0202135D01*
G75*
G02*
X0446355Y0200790I-000852J-000492D01*
G01*
G37*
G36*
G01*
X0116483Y0144590D02*
X0118451Y0144590D01*
G75*
G02*
X0119337Y0143704I0000000J-000886D01*
G01*
X0119337Y0141932D01*
G75*
G02*
X0118451Y0141046I-000886J0000000D01*
G01*
X0116483Y0141046D01*
G75*
G02*
X0115597Y0141932I0000000J0000886D01*
G01*
X0115597Y0143704D01*
G75*
G02*
X0116483Y0144590I0000886J0000000D01*
G01*
G37*
G36*
G01*
X0116483Y0138487D02*
X0118451Y0138487D01*
G75*
G02*
X0119337Y0137601I0000000J-000886D01*
G01*
X0119337Y0135830D01*
G75*
G02*
X0118451Y0134944I-000886J0000000D01*
G01*
X0116483Y0134944D01*
G75*
G02*
X0115597Y0135830I0000000J0000886D01*
G01*
X0115597Y0137601D01*
G75*
G02*
X0116483Y0138487I0000886J0000000D01*
G01*
G37*
G36*
G01*
X0487752Y0178595D02*
X0483737Y0178595D01*
G75*
G02*
X0483382Y0178949I0000000J0000354D01*
G01*
X0483382Y0181784D01*
G75*
G02*
X0483737Y0182138I0000354J0000000D01*
G01*
X0487752Y0182138D01*
G75*
G02*
X0488107Y0181784I0000000J-000354D01*
G01*
X0488107Y0178949D01*
G75*
G02*
X0487752Y0178595I-000354J0000000D01*
G01*
G37*
G36*
G01*
X0487752Y0191587D02*
X0483737Y0191587D01*
G75*
G02*
X0483382Y0191941I0000000J0000354D01*
G01*
X0483382Y0194776D01*
G75*
G02*
X0483737Y0195130I0000354J0000000D01*
G01*
X0487752Y0195130D01*
G75*
G02*
X0488107Y0194776I0000000J-000354D01*
G01*
X0488107Y0191941D01*
G75*
G02*
X0487752Y0191587I-000354J0000000D01*
G01*
G37*
G36*
G01*
X0462174Y0269272D02*
X0460992Y0269272D01*
G75*
G02*
X0460402Y0269862I0000000J0000591D01*
G01*
X0460402Y0274488D01*
G75*
G02*
X0460992Y0275079I0000591J0000000D01*
G01*
X0462174Y0275079D01*
G75*
G02*
X0462764Y0274488I0000000J-000591D01*
G01*
X0462764Y0269862D01*
G75*
G02*
X0462174Y0269272I-000591J0000000D01*
G01*
G37*
G36*
G01*
X0458433Y0276654D02*
X0457252Y0276654D01*
G75*
G02*
X0456662Y0277244I0000000J0000591D01*
G01*
X0456662Y0281870D01*
G75*
G02*
X0457252Y0282461I0000591J0000000D01*
G01*
X0458433Y0282461D01*
G75*
G02*
X0459024Y0281870I0000000J-000591D01*
G01*
X0459024Y0277244D01*
G75*
G02*
X0458433Y0276654I-000591J0000000D01*
G01*
G37*
G36*
G01*
X0454693Y0269272D02*
X0453512Y0269272D01*
G75*
G02*
X0452922Y0269862I0000000J0000591D01*
G01*
X0452922Y0274488D01*
G75*
G02*
X0453512Y0275079I0000591J0000000D01*
G01*
X0454693Y0275079D01*
G75*
G02*
X0455284Y0274488I0000000J-000591D01*
G01*
X0455284Y0269862D01*
G75*
G02*
X0454693Y0269272I-000591J0000000D01*
G01*
G37*
G36*
G01*
X0546874Y0276583D02*
X0549945Y0276583D01*
G75*
G02*
X0550221Y0276307I0000000J-000276D01*
G01*
X0550221Y0274102D01*
G75*
G02*
X0549945Y0273827I-000276J0000000D01*
G01*
X0546874Y0273827D01*
G75*
G02*
X0546599Y0274102I0000000J0000276D01*
G01*
X0546599Y0276307D01*
G75*
G02*
X0546874Y0276583I0000276J0000000D01*
G01*
G37*
G36*
G01*
X0546874Y0270284D02*
X0549945Y0270284D01*
G75*
G02*
X0550221Y0270008I0000000J-000276D01*
G01*
X0550221Y0267803D01*
G75*
G02*
X0549945Y0267528I-000276J0000000D01*
G01*
X0546874Y0267528D01*
G75*
G02*
X0546599Y0267803I0000000J0000276D01*
G01*
X0546599Y0270008D01*
G75*
G02*
X0546874Y0270284I0000276J0000000D01*
G01*
G37*
G36*
G01*
X0387743Y0181754D02*
X0378026Y0176144D01*
G75*
G02*
X0376681Y0176504I-000492J0000852D01*
G01*
X0375254Y0178976D01*
G75*
G02*
X0375614Y0180320I0000852J0000492D01*
G01*
X0385331Y0185931D01*
G75*
G02*
X0386676Y0185570I0000492J-000852D01*
G01*
X0388103Y0183098D01*
G75*
G02*
X0387743Y0181754I-000852J-000492D01*
G01*
G37*
G36*
G01*
X0376079Y0201955D02*
X0366362Y0196345D01*
G75*
G02*
X0365018Y0196705I-000492J0000852D01*
G01*
X0363591Y0199177D01*
G75*
G02*
X0363951Y0200522I0000852J0000492D01*
G01*
X0373668Y0206132D01*
G75*
G02*
X0375012Y0205772I0000492J-000852D01*
G01*
X0376440Y0203300D01*
G75*
G02*
X0376079Y0201955I-000852J-000492D01*
G01*
G37*
G36*
G01*
X0390314Y0130856D02*
X0380596Y0125246D01*
G75*
G02*
X0379252Y0125606I-000492J0000852D01*
G01*
X0377825Y0128078D01*
G75*
G02*
X0378185Y0129423I0000852J0000492D01*
G01*
X0387902Y0135033D01*
G75*
G02*
X0389247Y0134673I0000492J-000852D01*
G01*
X0390674Y0132201D01*
G75*
G02*
X0390314Y0130856I-000852J-000492D01*
G01*
G37*
G36*
G01*
X0378650Y0151058D02*
X0368933Y0145448D01*
G75*
G02*
X0367589Y0145808I-000492J0000852D01*
G01*
X0366161Y0148280D01*
G75*
G02*
X0366522Y0149624I0000852J0000492D01*
G01*
X0376239Y0155234D01*
G75*
G02*
X0377583Y0154874I0000492J-000852D01*
G01*
X0379011Y0152402D01*
G75*
G02*
X0378650Y0151058I-000852J-000492D01*
G01*
G37*
G36*
G01*
X0483674Y0279039D02*
X0483674Y0277858D01*
G75*
G02*
X0483083Y0277268I-000591J0000000D01*
G01*
X0478457Y0277268D01*
G75*
G02*
X0477866Y0277858I0000000J0000591D01*
G01*
X0477866Y0279039D01*
G75*
G02*
X0478457Y0279630I0000591J0000000D01*
G01*
X0483083Y0279630D01*
G75*
G02*
X0483674Y0279039I0000000J-000591D01*
G01*
G37*
G36*
G01*
X0476292Y0275299D02*
X0476292Y0274118D01*
G75*
G02*
X0475701Y0273528I-000591J0000000D01*
G01*
X0471075Y0273528D01*
G75*
G02*
X0470485Y0274118I0000000J0000591D01*
G01*
X0470485Y0275299D01*
G75*
G02*
X0471075Y0275890I0000591J0000000D01*
G01*
X0475701Y0275890D01*
G75*
G02*
X0476292Y0275299I0000000J-000591D01*
G01*
G37*
G36*
G01*
X0483674Y0271559D02*
X0483674Y0270378D01*
G75*
G02*
X0483083Y0269787I-000591J0000000D01*
G01*
X0478457Y0269787D01*
G75*
G02*
X0477866Y0270378I0000000J0000591D01*
G01*
X0477866Y0271559D01*
G75*
G02*
X0478457Y0272150I0000591J0000000D01*
G01*
X0483083Y0272150D01*
G75*
G02*
X0483674Y0271559I0000000J-000591D01*
G01*
G37*
G36*
G01*
X0030843Y0168080D02*
X0032811Y0168080D01*
G75*
G02*
X0033697Y0167194I0000000J-000886D01*
G01*
X0033697Y0165422D01*
G75*
G02*
X0032811Y0164536I-000886J0000000D01*
G01*
X0030843Y0164536D01*
G75*
G02*
X0029957Y0165422I0000000J0000886D01*
G01*
X0029957Y0167194D01*
G75*
G02*
X0030843Y0168080I0000886J0000000D01*
G01*
G37*
G36*
G01*
X0030843Y0161977D02*
X0032811Y0161977D01*
G75*
G02*
X0033697Y0161091I0000000J-000886D01*
G01*
X0033697Y0159320D01*
G75*
G02*
X0032811Y0158434I-000886J0000000D01*
G01*
X0030843Y0158434D01*
G75*
G02*
X0029957Y0159320I0000000J0000886D01*
G01*
X0029957Y0161091D01*
G75*
G02*
X0030843Y0161977I0000886J0000000D01*
G01*
G37*
G36*
G01*
X0507177Y0271256D02*
X0507177Y0272437D01*
G75*
G02*
X0507768Y0273028I0000591J0000000D01*
G01*
X0512394Y0273028D01*
G75*
G02*
X0512985Y0272437I0000000J-000591D01*
G01*
X0512985Y0271256D01*
G75*
G02*
X0512394Y0270665I-000591J0000000D01*
G01*
X0507768Y0270665D01*
G75*
G02*
X0507177Y0271256I0000000J0000591D01*
G01*
G37*
G36*
G01*
X0514559Y0274996D02*
X0514559Y0276177D01*
G75*
G02*
X0515150Y0276768I0000591J0000000D01*
G01*
X0519776Y0276768D01*
G75*
G02*
X0520366Y0276177I0000000J-000591D01*
G01*
X0520366Y0274996D01*
G75*
G02*
X0519776Y0274406I-000591J0000000D01*
G01*
X0515150Y0274406D01*
G75*
G02*
X0514559Y0274996I0000000J0000591D01*
G01*
G37*
G36*
G01*
X0507177Y0278736D02*
X0507177Y0279917D01*
G75*
G02*
X0507768Y0280508I0000591J0000000D01*
G01*
X0512394Y0280508D01*
G75*
G02*
X0512985Y0279917I0000000J-000591D01*
G01*
X0512985Y0278736D01*
G75*
G02*
X0512394Y0278146I-000591J0000000D01*
G01*
X0507768Y0278146D01*
G75*
G02*
X0507177Y0278736I0000000J0000591D01*
G01*
G37*
G36*
G01*
X0437562Y0145770D02*
X0427844Y0140159D01*
G75*
G02*
X0426500Y0140520I-000492J0000852D01*
G01*
X0425073Y0142992D01*
G75*
G02*
X0425433Y0144336I0000852J0000492D01*
G01*
X0435150Y0149946D01*
G75*
G02*
X0436495Y0149586I0000492J-000852D01*
G01*
X0437922Y0147114D01*
G75*
G02*
X0437562Y0145770I-000852J-000492D01*
G01*
G37*
G36*
G01*
X0425898Y0165971D02*
X0416181Y0160361D01*
G75*
G02*
X0414837Y0160721I-000492J0000852D01*
G01*
X0413409Y0163193D01*
G75*
G02*
X0413770Y0164538I0000852J0000492D01*
G01*
X0423487Y0170148D01*
G75*
G02*
X0424831Y0169788I0000492J-000852D01*
G01*
X0426259Y0167316D01*
G75*
G02*
X0425898Y0165971I-000852J-000492D01*
G01*
G37*
G36*
G01*
X0536083Y0276114D02*
X0536083Y0274933D01*
G75*
G02*
X0535492Y0274343I-000591J0000000D01*
G01*
X0530866Y0274343D01*
G75*
G02*
X0530276Y0274933I0000000J0000591D01*
G01*
X0530276Y0276114D01*
G75*
G02*
X0530866Y0276705I0000591J0000000D01*
G01*
X0535492Y0276705D01*
G75*
G02*
X0536083Y0276114I0000000J-000591D01*
G01*
G37*
G36*
G01*
X0528701Y0272374D02*
X0528701Y0271193D01*
G75*
G02*
X0528111Y0270602I-000591J0000000D01*
G01*
X0523485Y0270602D01*
G75*
G02*
X0522894Y0271193I0000000J0000591D01*
G01*
X0522894Y0272374D01*
G75*
G02*
X0523485Y0272965I0000591J0000000D01*
G01*
X0528111Y0272965D01*
G75*
G02*
X0528701Y0272374I0000000J-000591D01*
G01*
G37*
G36*
G01*
X0536083Y0268634D02*
X0536083Y0267453D01*
G75*
G02*
X0535492Y0266862I-000591J0000000D01*
G01*
X0530866Y0266862D01*
G75*
G02*
X0530276Y0267453I0000000J0000591D01*
G01*
X0530276Y0268634D01*
G75*
G02*
X0530866Y0269224I0000591J0000000D01*
G01*
X0535492Y0269224D01*
G75*
G02*
X0536083Y0268634I0000000J-000591D01*
G01*
G37*
G36*
G01*
X0044956Y0165568D02*
X0044956Y0167025D01*
G75*
G02*
X0045488Y0167557I0000531J0000000D01*
G01*
X0046551Y0167557D01*
G75*
G02*
X0047082Y0167025I0000000J-000531D01*
G01*
X0047082Y0165568D01*
G75*
G02*
X0046551Y0165037I-000531J0000000D01*
G01*
X0045488Y0165037D01*
G75*
G02*
X0044956Y0165568I0000000J0000531D01*
G01*
G37*
G36*
G01*
X0048972Y0165568D02*
X0048972Y0167025D01*
G75*
G02*
X0049504Y0167557I0000531J0000000D01*
G01*
X0050567Y0167557D01*
G75*
G02*
X0051098Y0167025I0000000J-000531D01*
G01*
X0051098Y0165568D01*
G75*
G02*
X0050567Y0165037I-000531J0000000D01*
G01*
X0049504Y0165037D01*
G75*
G02*
X0048972Y0165568I0000000J0000531D01*
G01*
G37*
X0150941Y0118728D02*
G01*
G75*
D298*
X0121026Y0042350D02*
D03*
X0134018Y0042350D02*
D03*
D299*
X0101166Y0041956D02*
D03*
X0112583Y0041956D02*
D03*
X0101166Y0049988D02*
D03*
X0112583Y0049988D02*
D03*
D302*
X0138539Y0064004D02*
D03*
X0138539Y0060067D02*
D03*
X0141886Y0049437D02*
D03*
X0133224Y0049437D02*
D03*
X0142673Y0054685D02*
D03*
X0134012Y0054685D02*
D03*
D303*
X0130786Y0107311D02*
D03*
X0134330Y0107311D02*
D03*
X0121395Y0070578D02*
D03*
X0117851Y0070578D02*
D03*
X0129392Y0055473D02*
D03*
X0125849Y0055473D02*
D03*
X0122168Y0107311D02*
D03*
X0125711Y0107311D02*
D03*
X0142673Y0103374D02*
D03*
X0139130Y0103374D02*
D03*
D304*
X0117188Y0053898D02*
D03*
X0117188Y0050354D02*
D03*
X0137955Y0041496D02*
D03*
X0137955Y0045040D02*
D03*
X0089191Y0099813D02*
D03*
X0089191Y0096269D02*
D03*
D120*
X0085193Y0100618D02*
D03*
X0085193Y0104555D02*
D03*
D121*
X0147988Y0047075D02*
D03*
X0147988Y0114004D02*
D03*
X0147988Y0066563D02*
D03*
X0086965Y0066760D02*
D03*
X0086965Y0041563D02*
D03*
X0086965Y0091169D02*
D03*
X0086965Y0074240D02*
D03*
X0086965Y0115775D02*
D03*
X0147988Y0039791D02*
D03*
D310*
X0101728Y0062429D02*
D03*
X0112752Y0062429D02*
D03*
D311*
X0134406Y0066752D02*
D03*
X0134406Y0060532D02*
D03*
X0120312Y0066752D02*
D03*
X0120312Y0060532D02*
D03*
X0125003Y0066752D02*
D03*
X0125003Y0060532D02*
D03*
X0129695Y0066752D02*
D03*
X0129695Y0060532D02*
D03*
X0121493Y0054508D02*
D03*
X0121493Y0048287D02*
D03*
D312*
X0130983Y0103374D02*
D03*
X0134920Y0103374D02*
D03*
X0126302Y0103374D02*
D03*
X0122365Y0103374D02*
D03*
X0129589Y0049437D02*
D03*
X0125652Y0049437D02*
D03*
X0106656Y0071051D02*
D03*
X0102719Y0071051D02*
D03*
X0098880Y0108492D02*
D03*
X0102818Y0108492D02*
D03*
D131*
X0125869Y0096614D02*
D03*
X0130869Y0096614D02*
D03*
X0135869Y0096614D02*
D03*
X0140869Y0096614D02*
D03*
X0125869Y0073977D02*
D03*
X0130869Y0073977D02*
D03*
X0135869Y0073977D02*
D03*
X0140869Y0073977D02*
D03*
X0102802Y0101897D02*
D03*
X0107802Y0101897D02*
D03*
X0112802Y0101897D02*
D03*
X0117802Y0101897D02*
D03*
X0102802Y0078472D02*
D03*
X0107802Y0078472D02*
D03*
X0112802Y0078472D02*
D03*
X0117802Y0078472D02*
D03*
D313*
X0133369Y0085296D02*
D03*
D314*
X0110302Y0090185D02*
D03*
X0547559Y0096898D02*
%LPD*%
G01*
D136*
X0456378Y0085284D03*
X0464252Y0073473D03*
X0472126Y0085284D03*
D142*
X0543386Y0086071D03*
X0523386Y0090071D03*
X0523386Y0082071D03*
D140*
X0453898Y0047193D03*
D141*
X0463898Y0047193D03*
X0473898Y0047193D03*
G36*
G01*
X0467854Y0089539D02*
X0467854Y0088181D01*
G75*
G02*
X0467274Y0087600I-000581J0000000D01*
G01*
X0466112Y0087600D01*
G75*
G02*
X0465531Y0088181I0000000J0000581D01*
G01*
X0465531Y0089539D01*
G75*
G02*
X0466112Y0090120I0000581J0000000D01*
G01*
X0467274Y0090120D01*
G75*
G02*
X0467854Y0089539I0000000J-000581D01*
G01*
G37*
G36*
G01*
X0464035Y0089539D02*
X0464035Y0088181D01*
G75*
G02*
X0463455Y0087600I-000581J0000000D01*
G01*
X0462293Y0087600D01*
G75*
G02*
X0461713Y0088181I0000000J0000581D01*
G01*
X0461713Y0089539D01*
G75*
G02*
X0462293Y0090120I0000581J0000000D01*
G01*
X0463455Y0090120D01*
G75*
G02*
X0464035Y0089539I0000000J-000581D01*
G01*
G37*
G36*
G01*
X0453386Y0074250D02*
X0453386Y0072892D01*
G75*
G02*
X0452805Y0072311I-000581J0000000D01*
G01*
X0451644Y0072311D01*
G75*
G02*
X0451063Y0072892I0000000J0000581D01*
G01*
X0451063Y0074250D01*
G75*
G02*
X0451644Y0074831I0000581J0000000D01*
G01*
X0452805Y0074831D01*
G75*
G02*
X0453386Y0074250I0000000J-000581D01*
G01*
G37*
G36*
G01*
X0449567Y0074250D02*
X0449567Y0072892D01*
G75*
G02*
X0448986Y0072311I-000581J0000000D01*
G01*
X0447825Y0072311D01*
G75*
G02*
X0447244Y0072892I0000000J0000581D01*
G01*
X0447244Y0074250D01*
G75*
G02*
X0447825Y0074831I0000581J0000000D01*
G01*
X0448986Y0074831D01*
G75*
G02*
X0449567Y0074250I0000000J-000581D01*
G01*
G37*
G36*
G01*
X0503268Y0048054D02*
X0503268Y0050072D01*
G75*
G02*
X0504129Y0050933I0000861J0000000D01*
G01*
X0505851Y0050933D01*
G75*
G02*
X0506713Y0050072I0000000J-000861D01*
G01*
X0506713Y0048054D01*
G75*
G02*
X0505851Y0047193I-000861J0000000D01*
G01*
X0504129Y0047193D01*
G75*
G02*
X0503268Y0048054I0000000J0000861D01*
G01*
G37*
G36*
G01*
X0509468Y0048054D02*
X0509468Y0050072D01*
G75*
G02*
X0510330Y0050933I0000861J0000000D01*
G01*
X0512052Y0050933D01*
G75*
G02*
X0512913Y0050072I0000000J-000861D01*
G01*
X0512913Y0048054D01*
G75*
G02*
X0512052Y0047193I-000861J0000000D01*
G01*
X0510330Y0047193D01*
G75*
G02*
X0509468Y0048054I0000000J0000861D01*
G01*
G37*
G36*
G01*
X0461713Y0092380D02*
X0461713Y0093739D01*
G75*
G02*
X0462293Y0094319I0000581J0000000D01*
G01*
X0463455Y0094319D01*
G75*
G02*
X0464035Y0093739I0000000J-000581D01*
G01*
X0464035Y0092380D01*
G75*
G02*
X0463455Y0091800I-000581J0000000D01*
G01*
X0462293Y0091800D01*
G75*
G02*
X0461713Y0092380I0000000J0000581D01*
G01*
G37*
G36*
G01*
X0465531Y0092380D02*
X0465531Y0093739D01*
G75*
G02*
X0466112Y0094319I0000581J0000000D01*
G01*
X0467274Y0094319D01*
G75*
G02*
X0467854Y0093739I0000000J-000581D01*
G01*
X0467854Y0092380D01*
G75*
G02*
X0467274Y0091800I-000581J0000000D01*
G01*
X0466112Y0091800D01*
G75*
G02*
X0465531Y0092380I0000000J0000581D01*
G01*
G37*
G36*
G01*
X0521414Y0053384D02*
X0521414Y0052026D01*
G75*
G02*
X0520834Y0051445I-000581J0000000D01*
G01*
X0519672Y0051445D01*
G75*
G02*
X0519092Y0052026I0000000J0000581D01*
G01*
X0519092Y0053384D01*
G75*
G02*
X0519672Y0053965I0000581J0000000D01*
G01*
X0520834Y0053965D01*
G75*
G02*
X0521414Y0053384I0000000J-000581D01*
G01*
G37*
G36*
G01*
X0517596Y0053384D02*
X0517596Y0052026D01*
G75*
G02*
X0517015Y0051445I-000581J0000000D01*
G01*
X0515853Y0051445D01*
G75*
G02*
X0515273Y0052026I0000000J0000581D01*
G01*
X0515273Y0053384D01*
G75*
G02*
X0515853Y0053965I0000581J0000000D01*
G01*
X0517015Y0053965D01*
G75*
G02*
X0517596Y0053384I0000000J-000581D01*
G01*
G37*
G36*
G01*
X0513327Y0055254D02*
X0513327Y0053896D01*
G75*
G02*
X0512746Y0053315I-000581J0000000D01*
G01*
X0511585Y0053315D01*
G75*
G02*
X0511004Y0053896I0000000J0000581D01*
G01*
X0511004Y0055254D01*
G75*
G02*
X0511585Y0055835I0000581J0000000D01*
G01*
X0512746Y0055835D01*
G75*
G02*
X0513327Y0055254I0000000J-000581D01*
G01*
G37*
G36*
G01*
X0509508Y0055254D02*
X0509508Y0053896D01*
G75*
G02*
X0508927Y0053315I-000581J0000000D01*
G01*
X0507766Y0053315D01*
G75*
G02*
X0507185Y0053896I0000000J0000581D01*
G01*
X0507185Y0055254D01*
G75*
G02*
X0507766Y0055835I0000581J0000000D01*
G01*
X0508927Y0055835D01*
G75*
G02*
X0509508Y0055254I0000000J-000581D01*
G01*
G37*
G36*
G01*
X0541939Y0047922D02*
X0540581Y0047922D01*
G75*
G02*
X0540000Y0048502I0000000J0000581D01*
G01*
X0540000Y0049664D01*
G75*
G02*
X0540581Y0050244I0000581J0000000D01*
G01*
X0541939Y0050244D01*
G75*
G02*
X0542520Y0049664I0000000J-000581D01*
G01*
X0542520Y0048502D01*
G75*
G02*
X0541939Y0047922I-000581J0000000D01*
G01*
G37*
G36*
G01*
X0541939Y0051741D02*
X0540581Y0051741D01*
G75*
G02*
X0540000Y0052321I0000000J0000581D01*
G01*
X0540000Y0053483D01*
G75*
G02*
X0540581Y0054063I0000581J0000000D01*
G01*
X0541939Y0054063D01*
G75*
G02*
X0542520Y0053483I0000000J-000581D01*
G01*
X0542520Y0052321D01*
G75*
G02*
X0541939Y0051741I-000581J0000000D01*
G01*
G37*
G36*
G01*
X0492421Y0065510D02*
X0492421Y0066868D01*
G75*
G02*
X0493002Y0067449I0000581J0000000D01*
G01*
X0494163Y0067449D01*
G75*
G02*
X0494744Y0066868I0000000J-000581D01*
G01*
X0494744Y0065510D01*
G75*
G02*
X0494163Y0064929I-000581J0000000D01*
G01*
X0493002Y0064929D01*
G75*
G02*
X0492421Y0065510I0000000J0000581D01*
G01*
G37*
G36*
G01*
X0496240Y0065510D02*
X0496240Y0066868D01*
G75*
G02*
X0496821Y0067449I0000581J0000000D01*
G01*
X0497982Y0067449D01*
G75*
G02*
X0498563Y0066868I0000000J-000581D01*
G01*
X0498563Y0065510D01*
G75*
G02*
X0497982Y0064929I-000581J0000000D01*
G01*
X0496821Y0064929D01*
G75*
G02*
X0496240Y0065510I0000000J0000581D01*
G01*
G37*
G36*
G01*
X0498563Y0070805D02*
X0498563Y0069447D01*
G75*
G02*
X0497982Y0068867I-000581J0000000D01*
G01*
X0496821Y0068867D01*
G75*
G02*
X0496240Y0069447I0000000J0000581D01*
G01*
X0496240Y0070805D01*
G75*
G02*
X0496821Y0071386I0000581J0000000D01*
G01*
X0497982Y0071386D01*
G75*
G02*
X0498563Y0070805I0000000J-000581D01*
G01*
G37*
G36*
G01*
X0494744Y0070805D02*
X0494744Y0069447D01*
G75*
G02*
X0494163Y0068867I-000581J0000000D01*
G01*
X0493002Y0068867D01*
G75*
G02*
X0492421Y0069447I0000000J0000581D01*
G01*
X0492421Y0070805D01*
G75*
G02*
X0493002Y0071386I0000581J0000000D01*
G01*
X0494163Y0071386D01*
G75*
G02*
X0494744Y0070805I0000000J-000581D01*
G01*
G37*
G36*
G01*
X0451083Y0068365D02*
X0451083Y0069723D01*
G75*
G02*
X0451663Y0070304I0000581J0000000D01*
G01*
X0452825Y0070304D01*
G75*
G02*
X0453405Y0069723I0000000J-000581D01*
G01*
X0453405Y0068365D01*
G75*
G02*
X0452825Y0067784I-000581J0000000D01*
G01*
X0451663Y0067784D01*
G75*
G02*
X0451083Y0068365I0000000J0000581D01*
G01*
G37*
G36*
G01*
X0454902Y0068365D02*
X0454902Y0069723D01*
G75*
G02*
X0455482Y0070304I0000581J0000000D01*
G01*
X0456644Y0070304D01*
G75*
G02*
X0457224Y0069723I0000000J-000581D01*
G01*
X0457224Y0068365D01*
G75*
G02*
X0456644Y0067784I-000581J0000000D01*
G01*
X0455482Y0067784D01*
G75*
G02*
X0454902Y0068365I0000000J0000581D01*
G01*
G37*
D144*
X0505433Y0091780D03*
X0505433Y0089221D03*
X0505433Y0086662D03*
X0505433Y0084103D03*
X0505433Y0081544D03*
X0505433Y0078985D03*
X0505433Y0076426D03*
X0482205Y0076426D03*
X0482205Y0078985D03*
X0482205Y0081544D03*
X0482205Y0084103D03*
X0482205Y0086662D03*
X0482205Y0089221D03*
X0482205Y0091780D03*
G36*
G01*
X0515256Y0048286D02*
X0515256Y0049644D01*
G75*
G02*
X0515837Y0050225I0000581J0000000D01*
G01*
X0516998Y0050225D01*
G75*
G02*
X0517579Y0049644I0000000J-000581D01*
G01*
X0517579Y0048286D01*
G75*
G02*
X0516998Y0047705I-000581J0000000D01*
G01*
X0515837Y0047705D01*
G75*
G02*
X0515256Y0048286I0000000J0000581D01*
G01*
G37*
G36*
G01*
X0519075Y0048286D02*
X0519075Y0049644D01*
G75*
G02*
X0519655Y0050225I0000581J0000000D01*
G01*
X0520817Y0050225D01*
G75*
G02*
X0521398Y0049644I0000000J-000581D01*
G01*
X0521398Y0048286D01*
G75*
G02*
X0520817Y0047705I-000581J0000000D01*
G01*
X0519655Y0047705D01*
G75*
G02*
X0519075Y0048286I0000000J0000581D01*
G01*
G37*
G36*
G01*
X0521398Y0045904D02*
X0521398Y0044546D01*
G75*
G02*
X0520817Y0043965I-000581J0000000D01*
G01*
X0519655Y0043965D01*
G75*
G02*
X0519075Y0044546I0000000J0000581D01*
G01*
X0519075Y0045904D01*
G75*
G02*
X0519655Y0046485I0000581J0000000D01*
G01*
X0520817Y0046485D01*
G75*
G02*
X0521398Y0045904I0000000J-000581D01*
G01*
G37*
G36*
G01*
X0517579Y0045904D02*
X0517579Y0044546D01*
G75*
G02*
X0516998Y0043965I-000581J0000000D01*
G01*
X0515837Y0043965D01*
G75*
G02*
X0515256Y0044546I0000000J0000581D01*
G01*
X0515256Y0045904D01*
G75*
G02*
X0515837Y0046485I0000581J0000000D01*
G01*
X0516998Y0046485D01*
G75*
G02*
X0517579Y0045904I0000000J-000581D01*
G01*
G37*
G36*
G01*
X0461161Y0055353D02*
X0461161Y0053994D01*
G75*
G02*
X0460581Y0053414I-000581J0000000D01*
G01*
X0459419Y0053414D01*
G75*
G02*
X0458839Y0053994I0000000J0000581D01*
G01*
X0458839Y0055353D01*
G75*
G02*
X0459419Y0055933I0000581J0000000D01*
G01*
X0460581Y0055933D01*
G75*
G02*
X0461161Y0055353I0000000J-000581D01*
G01*
G37*
G36*
G01*
X0457342Y0055353D02*
X0457342Y0053994D01*
G75*
G02*
X0456762Y0053414I-000581J0000000D01*
G01*
X0455600Y0053414D01*
G75*
G02*
X0455020Y0053994I0000000J0000581D01*
G01*
X0455020Y0055353D01*
G75*
G02*
X0455600Y0055933I0000581J0000000D01*
G01*
X0456762Y0055933D01*
G75*
G02*
X0457342Y0055353I0000000J-000581D01*
G01*
G37*
G36*
G01*
X0467854Y0084651D02*
X0467854Y0083292D01*
G75*
G02*
X0467274Y0082712I-000581J0000000D01*
G01*
X0466112Y0082712D01*
G75*
G02*
X0465531Y0083292I0000000J0000581D01*
G01*
X0465531Y0084651D01*
G75*
G02*
X0466112Y0085231I0000581J0000000D01*
G01*
X0467274Y0085231D01*
G75*
G02*
X0467854Y0084651I0000000J-000581D01*
G01*
G37*
G36*
G01*
X0464035Y0084651D02*
X0464035Y0083292D01*
G75*
G02*
X0463455Y0082712I-000581J0000000D01*
G01*
X0462293Y0082712D01*
G75*
G02*
X0461713Y0083292I0000000J0000581D01*
G01*
X0461713Y0084651D01*
G75*
G02*
X0462293Y0085231I0000581J0000000D01*
G01*
X0463455Y0085231D01*
G75*
G02*
X0464035Y0084651I0000000J-000581D01*
G01*
G37*
G36*
G01*
X0495669Y0061573D02*
X0495669Y0062931D01*
G75*
G02*
X0496250Y0063512I0000581J0000000D01*
G01*
X0497411Y0063512D01*
G75*
G02*
X0497992Y0062931I0000000J-000581D01*
G01*
X0497992Y0061573D01*
G75*
G02*
X0497411Y0060992I-000581J0000000D01*
G01*
X0496250Y0060992D01*
G75*
G02*
X0495669Y0061573I0000000J0000581D01*
G01*
G37*
G36*
G01*
X0499488Y0061573D02*
X0499488Y0062931D01*
G75*
G02*
X0500069Y0063512I0000581J0000000D01*
G01*
X0501230Y0063512D01*
G75*
G02*
X0501811Y0062931I0000000J-000581D01*
G01*
X0501811Y0061573D01*
G75*
G02*
X0501230Y0060992I-000581J0000000D01*
G01*
X0500069Y0060992D01*
G75*
G02*
X0499488Y0061573I0000000J0000581D01*
G01*
G37*
G36*
G01*
X0447342Y0053994D02*
X0447342Y0055353D01*
G75*
G02*
X0447923Y0055933I0000581J0000000D01*
G01*
X0449085Y0055933D01*
G75*
G02*
X0449665Y0055353I0000000J-000581D01*
G01*
X0449665Y0053994D01*
G75*
G02*
X0449085Y0053414I-000581J0000000D01*
G01*
X0447923Y0053414D01*
G75*
G02*
X0447342Y0053994I0000000J0000581D01*
G01*
G37*
G36*
G01*
X0451161Y0053994D02*
X0451161Y0055353D01*
G75*
G02*
X0451742Y0055933I0000581J0000000D01*
G01*
X0452903Y0055933D01*
G75*
G02*
X0453484Y0055353I0000000J-000581D01*
G01*
X0453484Y0053994D01*
G75*
G02*
X0452903Y0053414I-000581J0000000D01*
G01*
X0451742Y0053414D01*
G75*
G02*
X0451161Y0053994I0000000J0000581D01*
G01*
G37*
G36*
G01*
X0499803Y0069447D02*
X0499803Y0070805D01*
G75*
G02*
X0500384Y0071386I0000581J0000000D01*
G01*
X0501545Y0071386D01*
G75*
G02*
X0502126Y0070805I0000000J-000581D01*
G01*
X0502126Y0069447D01*
G75*
G02*
X0501545Y0068867I-000581J0000000D01*
G01*
X0500384Y0068867D01*
G75*
G02*
X0499803Y0069447I0000000J0000581D01*
G01*
G37*
G36*
G01*
X0503622Y0069447D02*
X0503622Y0070805D01*
G75*
G02*
X0504203Y0071386I0000581J0000000D01*
G01*
X0505364Y0071386D01*
G75*
G02*
X0505945Y0070805I0000000J-000581D01*
G01*
X0505945Y0069447D01*
G75*
G02*
X0505364Y0068867I-000581J0000000D01*
G01*
X0504203Y0068867D01*
G75*
G02*
X0503622Y0069447I0000000J0000581D01*
G01*
G37*
G36*
G01*
X0511053Y0094063D02*
X0512411Y0094063D01*
G75*
G02*
X0512992Y0093483I0000000J-000581D01*
G01*
X0512992Y0092321D01*
G75*
G02*
X0512411Y0091741I-000581J0000000D01*
G01*
X0511053Y0091741D01*
G75*
G02*
X0510472Y0092321I0000000J0000581D01*
G01*
X0510472Y0093483D01*
G75*
G02*
X0511053Y0094063I0000581J0000000D01*
G01*
G37*
G36*
G01*
X0511053Y0090244D02*
X0512411Y0090244D01*
G75*
G02*
X0512992Y0089664I0000000J-000581D01*
G01*
X0512992Y0088502D01*
G75*
G02*
X0512411Y0087922I-000581J0000000D01*
G01*
X0511053Y0087922D01*
G75*
G02*
X0510472Y0088502I0000000J0000581D01*
G01*
X0510472Y0089664D01*
G75*
G02*
X0511053Y0090244I0000581J0000000D01*
G01*
G37*
G36*
G01*
X0484941Y0065510D02*
X0484941Y0066868D01*
G75*
G02*
X0485522Y0067449I0000581J0000000D01*
G01*
X0486683Y0067449D01*
G75*
G02*
X0487264Y0066868I0000000J-000581D01*
G01*
X0487264Y0065510D01*
G75*
G02*
X0486683Y0064929I-000581J0000000D01*
G01*
X0485522Y0064929D01*
G75*
G02*
X0484941Y0065510I0000000J0000581D01*
G01*
G37*
G36*
G01*
X0488760Y0065510D02*
X0488760Y0066868D01*
G75*
G02*
X0489340Y0067449I0000581J0000000D01*
G01*
X0490502Y0067449D01*
G75*
G02*
X0491083Y0066868I0000000J-000581D01*
G01*
X0491083Y0065510D01*
G75*
G02*
X0490502Y0064929I-000581J0000000D01*
G01*
X0489340Y0064929D01*
G75*
G02*
X0488760Y0065510I0000000J0000581D01*
G01*
G37*
G36*
G01*
X0483602Y0066868D02*
X0483602Y0065510D01*
G75*
G02*
X0483022Y0064929I-000581J0000000D01*
G01*
X0481860Y0064929D01*
G75*
G02*
X0481279Y0065510I0000000J0000581D01*
G01*
X0481279Y0066868D01*
G75*
G02*
X0481860Y0067449I0000581J0000000D01*
G01*
X0483022Y0067449D01*
G75*
G02*
X0483602Y0066868I0000000J-000581D01*
G01*
G37*
G36*
G01*
X0479783Y0066868D02*
X0479783Y0065510D01*
G75*
G02*
X0479203Y0064929I-000581J0000000D01*
G01*
X0478041Y0064929D01*
G75*
G02*
X0477461Y0065510I0000000J0000581D01*
G01*
X0477461Y0066868D01*
G75*
G02*
X0478041Y0067449I0000581J0000000D01*
G01*
X0479203Y0067449D01*
G75*
G02*
X0479783Y0066868I0000000J-000581D01*
G01*
G37*
G36*
G01*
X0514793Y0094063D02*
X0516152Y0094063D01*
G75*
G02*
X0516732Y0093483I0000000J-000581D01*
G01*
X0516732Y0092321D01*
G75*
G02*
X0516152Y0091741I-000581J0000000D01*
G01*
X0514793Y0091741D01*
G75*
G02*
X0514213Y0092321I0000000J0000581D01*
G01*
X0514213Y0093483D01*
G75*
G02*
X0514793Y0094063I0000581J0000000D01*
G01*
G37*
G36*
G01*
X0514793Y0090244D02*
X0516152Y0090244D01*
G75*
G02*
X0516732Y0089664I0000000J-000581D01*
G01*
X0516732Y0088502D01*
G75*
G02*
X0516152Y0087922I-000581J0000000D01*
G01*
X0514793Y0087922D01*
G75*
G02*
X0514213Y0088502I0000000J0000581D01*
G01*
X0514213Y0089664D01*
G75*
G02*
X0514793Y0090244I0000581J0000000D01*
G01*
G37*
D145*
X0525472Y0045225D03*
X0525472Y0048965D03*
X0525472Y0052705D03*
X0535787Y0052705D03*
X0535787Y0045225D03*
G36*
G01*
X0490984Y0062931D02*
X0490984Y0061573D01*
G75*
G02*
X0490403Y0060992I-000581J0000000D01*
G01*
X0489242Y0060992D01*
G75*
G02*
X0488661Y0061573I0000000J0000581D01*
G01*
X0488661Y0062931D01*
G75*
G02*
X0489242Y0063512I0000581J0000000D01*
G01*
X0490403Y0063512D01*
G75*
G02*
X0490984Y0062931I0000000J-000581D01*
G01*
G37*
G36*
G01*
X0487165Y0062931D02*
X0487165Y0061573D01*
G75*
G02*
X0486585Y0060992I-000581J0000000D01*
G01*
X0485423Y0060992D01*
G75*
G02*
X0484842Y0061573I0000000J0000581D01*
G01*
X0484842Y0062931D01*
G75*
G02*
X0485423Y0063512I0000581J0000000D01*
G01*
X0486585Y0063512D01*
G75*
G02*
X0487165Y0062931I0000000J-000581D01*
G01*
G37*
G36*
G01*
X0503573Y0058827D02*
X0504931Y0058827D01*
G75*
G02*
X0505512Y0058246I0000000J-000581D01*
G01*
X0505512Y0057085D01*
G75*
G02*
X0504931Y0056504I-000581J0000000D01*
G01*
X0503573Y0056504D01*
G75*
G02*
X0502992Y0057085I0000000J0000581D01*
G01*
X0502992Y0058246D01*
G75*
G02*
X0503573Y0058827I0000581J0000000D01*
G01*
G37*
G36*
G01*
X0503573Y0055008D02*
X0504931Y0055008D01*
G75*
G02*
X0505512Y0054428I0000000J-000581D01*
G01*
X0505512Y0053266D01*
G75*
G02*
X0504931Y0052685I-000581J0000000D01*
G01*
X0503573Y0052685D01*
G75*
G02*
X0502992Y0053266I0000000J0000581D01*
G01*
X0502992Y0054428D01*
G75*
G02*
X0503573Y0055008I0000581J0000000D01*
G01*
G37*
G36*
G01*
X0512411Y0079260D02*
X0511053Y0079260D01*
G75*
G02*
X0510472Y0079841I0000000J0000581D01*
G01*
X0510472Y0081002D01*
G75*
G02*
X0511053Y0081583I0000581J0000000D01*
G01*
X0512411Y0081583D01*
G75*
G02*
X0512992Y0081002I0000000J-000581D01*
G01*
X0512992Y0079841D01*
G75*
G02*
X0512411Y0079260I-000581J0000000D01*
G01*
G37*
G36*
G01*
X0512411Y0083079D02*
X0511053Y0083079D01*
G75*
G02*
X0510472Y0083660I0000000J0000581D01*
G01*
X0510472Y0084821D01*
G75*
G02*
X0511053Y0085402I0000581J0000000D01*
G01*
X0512411Y0085402D01*
G75*
G02*
X0512992Y0084821I0000000J-000581D01*
G01*
X0512992Y0083660D01*
G75*
G02*
X0512411Y0083079I-000581J0000000D01*
G01*
G37*
G36*
G01*
X0469291Y0078305D02*
X0469291Y0079664D01*
G75*
G02*
X0469872Y0080244I0000581J0000000D01*
G01*
X0471033Y0080244D01*
G75*
G02*
X0471614Y0079664I0000000J-000581D01*
G01*
X0471614Y0078305D01*
G75*
G02*
X0471033Y0077725I-000581J0000000D01*
G01*
X0469872Y0077725D01*
G75*
G02*
X0469291Y0078305I0000000J0000581D01*
G01*
G37*
G36*
G01*
X0473110Y0078305D02*
X0473110Y0079664D01*
G75*
G02*
X0473691Y0080244I0000581J0000000D01*
G01*
X0474852Y0080244D01*
G75*
G02*
X0475433Y0079664I0000000J-000581D01*
G01*
X0475433Y0078305D01*
G75*
G02*
X0474852Y0077725I-000581J0000000D01*
G01*
X0473691Y0077725D01*
G75*
G02*
X0473110Y0078305I0000000J0000581D01*
G01*
G37*
G36*
G01*
X0461713Y0078305D02*
X0461713Y0079664D01*
G75*
G02*
X0462293Y0080244I0000581J0000000D01*
G01*
X0463455Y0080244D01*
G75*
G02*
X0464035Y0079664I0000000J-000581D01*
G01*
X0464035Y0078305D01*
G75*
G02*
X0463455Y0077725I-000581J0000000D01*
G01*
X0462293Y0077725D01*
G75*
G02*
X0461713Y0078305I0000000J0000581D01*
G01*
G37*
G36*
G01*
X0465531Y0078305D02*
X0465531Y0079664D01*
G75*
G02*
X0466112Y0080244I0000581J0000000D01*
G01*
X0467274Y0080244D01*
G75*
G02*
X0467854Y0079664I0000000J-000581D01*
G01*
X0467854Y0078305D01*
G75*
G02*
X0467274Y0077725I-000581J0000000D01*
G01*
X0466112Y0077725D01*
G75*
G02*
X0465531Y0078305I0000000J0000581D01*
G01*
G37*
G36*
G01*
X0516152Y0079260D02*
X0514793Y0079260D01*
G75*
G02*
X0514213Y0079841I0000000J0000581D01*
G01*
X0514213Y0081002D01*
G75*
G02*
X0514793Y0081583I0000581J0000000D01*
G01*
X0516152Y0081583D01*
G75*
G02*
X0516732Y0081002I0000000J-000581D01*
G01*
X0516732Y0079841D01*
G75*
G02*
X0516152Y0079260I-000581J0000000D01*
G01*
G37*
G36*
G01*
X0516152Y0083079D02*
X0514793Y0083079D01*
G75*
G02*
X0514213Y0083660I0000000J0000581D01*
G01*
X0514213Y0084821D01*
G75*
G02*
X0514793Y0085402I0000581J0000000D01*
G01*
X0516152Y0085402D01*
G75*
G02*
X0516732Y0084821I0000000J-000581D01*
G01*
X0516732Y0083660D01*
G75*
G02*
X0516152Y0083079I-000581J0000000D01*
G01*
G37*
G36*
G01*
X0481791Y0069447D02*
X0481791Y0070805D01*
G75*
G02*
X0482372Y0071386I0000581J0000000D01*
G01*
X0483533Y0071386D01*
G75*
G02*
X0484114Y0070805I0000000J-000581D01*
G01*
X0484114Y0069447D01*
G75*
G02*
X0483533Y0068867I-000581J0000000D01*
G01*
X0482372Y0068867D01*
G75*
G02*
X0481791Y0069447I0000000J0000581D01*
G01*
G37*
G36*
G01*
X0485610Y0069447D02*
X0485610Y0070805D01*
G75*
G02*
X0486191Y0071386I0000581J0000000D01*
G01*
X0487352Y0071386D01*
G75*
G02*
X0487933Y0070805I0000000J-000581D01*
G01*
X0487933Y0069447D01*
G75*
G02*
X0487352Y0068867I-000581J0000000D01*
G01*
X0486191Y0068867D01*
G75*
G02*
X0485610Y0069447I0000000J0000581D01*
G01*
G37*
G36*
G01*
X0519892Y0079260D02*
X0518533Y0079260D01*
G75*
G02*
X0517953Y0079841I0000000J0000581D01*
G01*
X0517953Y0081002D01*
G75*
G02*
X0518533Y0081583I0000581J0000000D01*
G01*
X0519892Y0081583D01*
G75*
G02*
X0520472Y0081002I0000000J-000581D01*
G01*
X0520472Y0079841D01*
G75*
G02*
X0519892Y0079260I-000581J0000000D01*
G01*
G37*
G36*
G01*
X0519892Y0083079D02*
X0518533Y0083079D01*
G75*
G02*
X0517953Y0083660I0000000J0000581D01*
G01*
X0517953Y0084821D01*
G75*
G02*
X0518533Y0085402I0000581J0000000D01*
G01*
X0519892Y0085402D01*
G75*
G02*
X0520472Y0084821I0000000J-000581D01*
G01*
X0520472Y0083660D01*
G75*
G02*
X0519892Y0083079I-000581J0000000D01*
G01*
G37*
G36*
G01*
X0519892Y0087922D02*
X0518533Y0087922D01*
G75*
G02*
X0517953Y0088502I0000000J0000581D01*
G01*
X0517953Y0089664D01*
G75*
G02*
X0518533Y0090244I0000581J0000000D01*
G01*
X0519892Y0090244D01*
G75*
G02*
X0520472Y0089664I0000000J-000581D01*
G01*
X0520472Y0088502D01*
G75*
G02*
X0519892Y0087922I-000581J0000000D01*
G01*
G37*
G36*
G01*
X0519892Y0091741D02*
X0518533Y0091741D01*
G75*
G02*
X0517953Y0092321I0000000J0000581D01*
G01*
X0517953Y0093483D01*
G75*
G02*
X0518533Y0094063I0000581J0000000D01*
G01*
X0519892Y0094063D01*
G75*
G02*
X0520472Y0093483I0000000J-000581D01*
G01*
X0520472Y0092321D01*
G75*
G02*
X0519892Y0091741I-000581J0000000D01*
G01*
G37*
G36*
G01*
X0534705Y0082115D02*
X0534705Y0080776D01*
G75*
G02*
X0534154Y0080225I-000551J0000000D01*
G01*
X0533051Y0080225D01*
G75*
G02*
X0532500Y0080776I0000000J0000551D01*
G01*
X0532500Y0082115D01*
G75*
G02*
X0533051Y0082666I0000551J0000000D01*
G01*
X0534154Y0082666D01*
G75*
G02*
X0534705Y0082115I0000000J-000551D01*
G01*
G37*
G36*
G01*
X0530925Y0082115D02*
X0530925Y0080776D01*
G75*
G02*
X0530374Y0080225I-000551J0000000D01*
G01*
X0529272Y0080225D01*
G75*
G02*
X0528721Y0080776I0000000J0000551D01*
G01*
X0528721Y0082115D01*
G75*
G02*
X0529272Y0082666I0000551J0000000D01*
G01*
X0530374Y0082666D01*
G75*
G02*
X0530925Y0082115I0000000J-000551D01*
G01*
G37*
G36*
G01*
X0479764Y0055855D02*
X0479764Y0057311D01*
G75*
G02*
X0480295Y0057843I0000531J0000000D01*
G01*
X0481358Y0057843D01*
G75*
G02*
X0481890Y0057311I0000000J-000531D01*
G01*
X0481890Y0055855D01*
G75*
G02*
X0481358Y0055323I-000531J0000000D01*
G01*
X0480295Y0055323D01*
G75*
G02*
X0479764Y0055855I0000000J0000531D01*
G01*
G37*
G36*
G01*
X0483779Y0055855D02*
X0483779Y0057311D01*
G75*
G02*
X0484311Y0057843I0000531J0000000D01*
G01*
X0485374Y0057843D01*
G75*
G02*
X0485905Y0057311I0000000J-000531D01*
G01*
X0485905Y0055855D01*
G75*
G02*
X0485374Y0055323I-000531J0000000D01*
G01*
X0484311Y0055323D01*
G75*
G02*
X0483779Y0055855I0000000J0000531D01*
G01*
G37*
G36*
G01*
X0540492Y0070388D02*
X0541949Y0070388D01*
G75*
G02*
X0542480Y0069856I0000000J-000531D01*
G01*
X0542480Y0068793D01*
G75*
G02*
X0541949Y0068262I-000531J0000000D01*
G01*
X0540492Y0068262D01*
G75*
G02*
X0539961Y0068793I0000000J0000531D01*
G01*
X0539961Y0069856D01*
G75*
G02*
X0540492Y0070388I0000531J0000000D01*
G01*
G37*
G36*
G01*
X0540492Y0066372D02*
X0541949Y0066372D01*
G75*
G02*
X0542480Y0065840I0000000J-000531D01*
G01*
X0542480Y0064777D01*
G75*
G02*
X0541949Y0064246I-000531J0000000D01*
G01*
X0540492Y0064246D01*
G75*
G02*
X0539961Y0064777I0000000J0000531D01*
G01*
X0539961Y0065840D01*
G75*
G02*
X0540492Y0066372I0000531J0000000D01*
G01*
G37*
G36*
G01*
X0539882Y0094339D02*
X0539882Y0093158D01*
G75*
G02*
X0539291Y0092567I-000591J0000000D01*
G01*
X0534665Y0092567D01*
G75*
G02*
X0534075Y0093158I0000000J0000591D01*
G01*
X0534075Y0094339D01*
G75*
G02*
X0534665Y0094929I0000591J0000000D01*
G01*
X0539291Y0094929D01*
G75*
G02*
X0539882Y0094339I0000000J-000591D01*
G01*
G37*
G36*
G01*
X0539882Y0086859D02*
X0539882Y0085678D01*
G75*
G02*
X0539291Y0085087I-000591J0000000D01*
G01*
X0534665Y0085087D01*
G75*
G02*
X0534075Y0085678I0000000J0000591D01*
G01*
X0534075Y0086859D01*
G75*
G02*
X0534665Y0087449I0000591J0000000D01*
G01*
X0539291Y0087449D01*
G75*
G02*
X0539882Y0086859I0000000J-000591D01*
G01*
G37*
G36*
G01*
X0532500Y0090599D02*
X0532500Y0089418D01*
G75*
G02*
X0531909Y0088827I-000591J0000000D01*
G01*
X0527283Y0088827D01*
G75*
G02*
X0526693Y0089418I0000000J0000591D01*
G01*
X0526693Y0090599D01*
G75*
G02*
X0527283Y0091189I0000591J0000000D01*
G01*
X0531909Y0091189D01*
G75*
G02*
X0532500Y0090599I0000000J-000591D01*
G01*
G37*
G36*
G01*
X0541929Y0056407D02*
X0540590Y0056407D01*
G75*
G02*
X0540039Y0056959I0000000J0000551D01*
G01*
X0540039Y0058061D01*
G75*
G02*
X0540590Y0058612I0000551J0000000D01*
G01*
X0541929Y0058612D01*
G75*
G02*
X0542480Y0058061I0000000J-000551D01*
G01*
X0542480Y0056959D01*
G75*
G02*
X0541929Y0056407I-000551J0000000D01*
G01*
G37*
G36*
G01*
X0541929Y0060187D02*
X0540590Y0060187D01*
G75*
G02*
X0540039Y0060738I0000000J0000551D01*
G01*
X0540039Y0061840D01*
G75*
G02*
X0540590Y0062392I0000551J0000000D01*
G01*
X0541929Y0062392D01*
G75*
G02*
X0542480Y0061840I0000000J-000551D01*
G01*
X0542480Y0060738D01*
G75*
G02*
X0541929Y0060187I-000551J0000000D01*
G01*
G37*
G36*
G01*
X0511142Y0059478D02*
X0511142Y0060659D01*
G75*
G02*
X0511732Y0061250I0000591J0000000D01*
G01*
X0517441Y0061250D01*
G75*
G02*
X0518031Y0060659I0000000J-000591D01*
G01*
X0518031Y0059478D01*
G75*
G02*
X0517441Y0058888I-000591J0000000D01*
G01*
X0511732Y0058888D01*
G75*
G02*
X0511142Y0059478I0000000J0000591D01*
G01*
G37*
G36*
G01*
X0511142Y0064478D02*
X0511142Y0065659D01*
G75*
G02*
X0511732Y0066250I0000591J0000000D01*
G01*
X0517441Y0066250D01*
G75*
G02*
X0518031Y0065659I0000000J-000591D01*
G01*
X0518031Y0064478D01*
G75*
G02*
X0517441Y0063888I-000591J0000000D01*
G01*
X0511732Y0063888D01*
G75*
G02*
X0511142Y0064478I0000000J0000591D01*
G01*
G37*
G36*
G01*
X0511142Y0069478D02*
X0511142Y0070659D01*
G75*
G02*
X0511732Y0071250I0000591J0000000D01*
G01*
X0517441Y0071250D01*
G75*
G02*
X0518031Y0070659I0000000J-000591D01*
G01*
X0518031Y0069478D01*
G75*
G02*
X0517441Y0068888I-000591J0000000D01*
G01*
X0511732Y0068888D01*
G75*
G02*
X0511142Y0069478I0000000J0000591D01*
G01*
G37*
G36*
G01*
X0511142Y0074478D02*
X0511142Y0075659D01*
G75*
G02*
X0511732Y0076250I0000591J0000000D01*
G01*
X0517441Y0076250D01*
G75*
G02*
X0518031Y0075659I0000000J-000591D01*
G01*
X0518031Y0074478D01*
G75*
G02*
X0517441Y0073888I-000591J0000000D01*
G01*
X0511732Y0073888D01*
G75*
G02*
X0511142Y0074478I0000000J0000591D01*
G01*
G37*
G36*
G01*
X0531417Y0074478D02*
X0531417Y0075659D01*
G75*
G02*
X0532008Y0076250I0000591J0000000D01*
G01*
X0537716Y0076250D01*
G75*
G02*
X0538307Y0075659I0000000J-000591D01*
G01*
X0538307Y0074478D01*
G75*
G02*
X0537716Y0073888I-000591J0000000D01*
G01*
X0532008Y0073888D01*
G75*
G02*
X0531417Y0074478I0000000J0000591D01*
G01*
G37*
G36*
G01*
X0531417Y0069478D02*
X0531417Y0070659D01*
G75*
G02*
X0532008Y0071250I0000591J0000000D01*
G01*
X0537716Y0071250D01*
G75*
G02*
X0538307Y0070659I0000000J-000591D01*
G01*
X0538307Y0069478D01*
G75*
G02*
X0537716Y0068888I-000591J0000000D01*
G01*
X0532008Y0068888D01*
G75*
G02*
X0531417Y0069478I0000000J0000591D01*
G01*
G37*
G36*
G01*
X0531417Y0064478D02*
X0531417Y0065659D01*
G75*
G02*
X0532008Y0066250I0000591J0000000D01*
G01*
X0537716Y0066250D01*
G75*
G02*
X0538307Y0065659I0000000J-000591D01*
G01*
X0538307Y0064478D01*
G75*
G02*
X0537716Y0063888I-000591J0000000D01*
G01*
X0532008Y0063888D01*
G75*
G02*
X0531417Y0064478I0000000J0000591D01*
G01*
G37*
G36*
G01*
X0531417Y0059478D02*
X0531417Y0060659D01*
G75*
G02*
X0532008Y0061250I0000591J0000000D01*
G01*
X0537716Y0061250D01*
G75*
G02*
X0538307Y0060659I0000000J-000591D01*
G01*
X0538307Y0059478D01*
G75*
G02*
X0537716Y0058888I-000591J0000000D01*
G01*
X0532008Y0058888D01*
G75*
G02*
X0531417Y0059478I0000000J0000591D01*
G01*
G37*
X0316484Y0215303D02*
G01*
G75*
D413*
X0264515Y0130264D02*
D03*
X0264515Y0155559D02*
D03*
X0264515Y0140303D02*
D03*
X0264515Y0145519D02*
D03*
X0271602Y0115008D02*
D03*
X0264515Y0115008D02*
D03*
X0264515Y0125047D02*
D03*
X0271602Y0125047D02*
D03*
X0271602Y0155559D02*
D03*
X0271602Y0145519D02*
D03*
X0271602Y0140303D02*
D03*
X0271602Y0130264D02*
D03*
D414*
X0264515Y0133709D02*
D03*
X0264515Y0148964D02*
D03*
X0264515Y0136858D02*
D03*
X0264515Y0152114D02*
D03*
X0264515Y0121602D02*
D03*
X0264515Y0118453D02*
D03*
X0271602Y0118453D02*
D03*
X0271602Y0121602D02*
D03*
X0271602Y0148964D02*
D03*
X0271602Y0152114D02*
D03*
X0271602Y0133709D02*
D03*
X0271602Y0136858D02*
D03*
D417*
X0262547Y0077114D02*
D03*
X0266484Y0077114D02*
D03*
X0268059Y0080657D02*
D03*
X0271996Y0080657D02*
D03*
X0260185Y0097980D02*
D03*
X0264122Y0097980D02*
D03*
X0231532Y0155682D02*
D03*
X0235469Y0155682D02*
D03*
X0239728Y0155682D02*
D03*
X0243665Y0155682D02*
D03*
X0283050Y0123215D02*
D03*
X0286987Y0123215D02*
D03*
X0283050Y0126938D02*
D03*
X0286987Y0126938D02*
D03*
X0285466Y0090106D02*
D03*
X0281529Y0090106D02*
D03*
X0196832Y0079173D02*
D03*
X0232580Y0079412D02*
D03*
X0217665Y0155682D02*
D03*
X0249949Y0101524D02*
D03*
X0249949Y0105854D02*
D03*
X0253379Y0110073D02*
D03*
X0264656Y0110018D02*
D03*
X0244240Y0139678D02*
D03*
X0253029Y0139678D02*
D03*
X0256966Y0148163D02*
D03*
X0192049Y0178029D02*
D03*
X0217665Y0160185D02*
D03*
X0258610Y0077114D02*
D03*
X0271996Y0110109D02*
D03*
X0293649Y0108711D02*
D03*
X0307714Y0108711D02*
D03*
X0293649Y0112941D02*
D03*
X0307714Y0112941D02*
D03*
X0268011Y0159849D02*
D03*
X0312547Y0161760D02*
D03*
X0246012Y0101524D02*
D03*
X0256966Y0139678D02*
D03*
X0248177Y0139678D02*
D03*
X0248177Y0144166D02*
D03*
X0244240Y0144166D02*
D03*
X0190106Y0164122D02*
D03*
X0194043Y0164122D02*
D03*
X0195986Y0178029D02*
D03*
X0281431Y0107205D02*
D03*
X0285368Y0107205D02*
D03*
X0311652Y0108711D02*
D03*
X0268059Y0110109D02*
D03*
X0253029Y0148163D02*
D03*
X0260719Y0110018D02*
D03*
X0257316Y0110073D02*
D03*
X0297586Y0112941D02*
D03*
X0271948Y0159849D02*
D03*
X0308610Y0161760D02*
D03*
X0236517Y0079412D02*
D03*
X0262547Y0077114D02*
D03*
X0289319Y0102138D02*
D03*
X0293256Y0102138D02*
D03*
X0297586Y0108711D02*
D03*
X0213728Y0160185D02*
D03*
X0213728Y0155682D02*
D03*
X0246012Y0105854D02*
D03*
X0200769Y0079173D02*
D03*
X0210085Y0079173D02*
D03*
X0206148Y0079173D02*
D03*
X0303777Y0112941D02*
D03*
X0312547Y0157823D02*
D03*
X0308610Y0157823D02*
D03*
X0312547Y0145421D02*
D03*
X0308610Y0145421D02*
D03*
X0312547Y0141287D02*
D03*
X0308610Y0141287D02*
D03*
X0312547Y0133019D02*
D03*
X0308610Y0133019D02*
D03*
X0312547Y0137153D02*
D03*
X0308610Y0137153D02*
D03*
X0312547Y0128886D02*
D03*
X0308610Y0128886D02*
D03*
X0312547Y0149555D02*
D03*
X0308610Y0149555D02*
D03*
X0312547Y0153689D02*
D03*
X0308610Y0153689D02*
D03*
D419*
X0257557Y0126327D02*
D03*
X0257557Y0122094D02*
D03*
X0212153Y0210185D02*
D03*
X0216878Y0210185D02*
D03*
X0221602Y0210185D02*
D03*
X0226326Y0210185D02*
D03*
X0296405Y0081838D02*
D03*
X0292271Y0081838D02*
D03*
X0201091Y0174059D02*
D03*
X0201091Y0170122D02*
D03*
X0312020Y0083020D02*
D03*
X0312020Y0086956D02*
D03*
X0257557Y0118157D02*
D03*
X0257557Y0130264D02*
D03*
X0205263Y0174555D02*
D03*
X0205263Y0170618D02*
D03*
X0230036Y0202331D02*
D03*
X0230036Y0198394D02*
D03*
X0226326Y0198394D02*
D03*
X0226326Y0202331D02*
D03*
X0226326Y0187744D02*
D03*
X0226326Y0191681D02*
D03*
X0226326Y0206248D02*
D03*
X0221602Y0206248D02*
D03*
X0212153Y0206248D02*
D03*
X0216878Y0206248D02*
D03*
X0310985Y0173054D02*
D03*
X0310985Y0169117D02*
D03*
X0260775Y0170027D02*
D03*
X0260775Y0173964D02*
D03*
X0260775Y0180264D02*
D03*
X0260775Y0184201D02*
D03*
X0288728Y0170027D02*
D03*
X0288728Y0173964D02*
D03*
X0265303Y0195421D02*
D03*
X0265303Y0191484D02*
D03*
X0294633Y0195421D02*
D03*
X0294633Y0191484D02*
D03*
X0307429Y0195421D02*
D03*
X0307429Y0191484D02*
D03*
X0290537Y0202331D02*
D03*
X0290537Y0206268D02*
D03*
X0312153Y0202705D02*
D03*
X0312153Y0198768D02*
D03*
X0311956Y0205854D02*
D03*
X0311956Y0209791D02*
D03*
X0312020Y0094546D02*
D03*
X0312020Y0090609D02*
D03*
X0296405Y0077901D02*
D03*
X0292271Y0077901D02*
D03*
X0288531Y0191484D02*
D03*
X0288531Y0195421D02*
D03*
X0284201Y0191484D02*
D03*
X0284201Y0195421D02*
D03*
X0275736Y0191484D02*
D03*
X0275736Y0195421D02*
D03*
X0271570Y0206268D02*
D03*
X0271570Y0202331D02*
D03*
X0232823Y0173964D02*
D03*
X0232823Y0170027D02*
D03*
X0303098Y0191484D02*
D03*
X0303098Y0195421D02*
D03*
X0252727Y0206268D02*
D03*
X0252727Y0202331D02*
D03*
X0256838Y0191484D02*
D03*
X0256838Y0195421D02*
D03*
X0269633Y0191484D02*
D03*
X0269633Y0195421D02*
D03*
X0233747Y0206268D02*
D03*
X0233747Y0202331D02*
D03*
X0237940Y0191484D02*
D03*
X0237940Y0195421D02*
D03*
X0246405Y0191484D02*
D03*
X0246405Y0195421D02*
D03*
X0250736Y0191484D02*
D03*
X0250736Y0195421D02*
D03*
X0232959Y0187744D02*
D03*
X0232959Y0191681D02*
D03*
D421*
X0276927Y0085047D02*
D03*
X0284667Y0094522D02*
D03*
X0303000Y0117892D02*
D03*
D424*
X0229279Y0086464D02*
D03*
X0235579Y0086464D02*
D03*
X0265893Y0085086D02*
D03*
X0272193Y0085086D02*
D03*
X0265893Y0089712D02*
D03*
X0272193Y0089712D02*
D03*
D421*
X0293748Y0121633D02*
D03*
X0284667Y0102002D02*
D03*
X0275415Y0098262D02*
D03*
X0276927Y0077567D02*
D03*
X0286179Y0081307D02*
D03*
X0303000Y0125373D02*
D03*
D195*
X0238571Y0161169D02*
D03*
X0224358Y0161169D02*
D03*
X0254358Y0161169D02*
D03*
D196*
X0201366Y0083610D02*
D03*
X0221366Y0087610D02*
D03*
X0221366Y0079610D02*
D03*
D28*
X0312153Y0077901D02*
D03*
D439*
X0268453Y0094909D02*
D03*
X0268453Y0101130D02*
D03*
D440*
X0239023Y0165697D02*
D03*
X0239023Y0172783D02*
D03*
X0249063Y0172783D02*
D03*
X0249063Y0165697D02*
D03*
X0266976Y0172783D02*
D03*
X0294929Y0172783D02*
D03*
X0277015Y0176720D02*
D03*
X0221897Y0201917D02*
D03*
X0221897Y0194831D02*
D03*
X0211858Y0194831D02*
D03*
X0211858Y0201917D02*
D03*
X0304968Y0183807D02*
D03*
X0304968Y0176720D02*
D03*
X0294929Y0176720D02*
D03*
X0294929Y0183807D02*
D03*
X0294929Y0165697D02*
D03*
X0304968Y0172783D02*
D03*
X0304968Y0165697D02*
D03*
X0277015Y0183807D02*
D03*
X0266976Y0176720D02*
D03*
X0266976Y0183807D02*
D03*
X0266976Y0165697D02*
D03*
X0277015Y0172783D02*
D03*
X0277015Y0165697D02*
D03*
X0276031Y0207626D02*
D03*
X0276031Y0200539D02*
D03*
X0286071Y0200539D02*
D03*
X0286071Y0207626D02*
D03*
X0294929Y0207626D02*
D03*
X0294929Y0200539D02*
D03*
X0304968Y0200539D02*
D03*
X0304968Y0207626D02*
D03*
X0257133Y0207626D02*
D03*
X0257133Y0200539D02*
D03*
X0267173Y0200539D02*
D03*
X0267173Y0207626D02*
D03*
X0238236Y0207626D02*
D03*
X0238236Y0200539D02*
D03*
X0248275Y0200539D02*
D03*
X0248275Y0207626D02*
D03*
X0239023Y0183807D02*
D03*
X0239023Y0176720D02*
D03*
X0249063Y0176720D02*
D03*
X0249063Y0183807D02*
D03*
X0211464Y0183807D02*
D03*
X0211464Y0176720D02*
D03*
X0221504Y0176720D02*
D03*
X0221504Y0183807D02*
D03*
X0221504Y0165697D02*
D03*
X0221504Y0172783D02*
D03*
X0211464Y0172783D02*
D03*
X0211464Y0165697D02*
D03*
D441*
X0245618Y0172783D02*
D03*
X0242468Y0172783D02*
D03*
X0242468Y0165697D02*
D03*
X0245618Y0165697D02*
D03*
X0270421Y0172783D02*
D03*
X0298374Y0172783D02*
D03*
X0273571Y0176720D02*
D03*
X0215303Y0194831D02*
D03*
X0218452Y0194831D02*
D03*
X0218452Y0201917D02*
D03*
X0215303Y0201917D02*
D03*
X0298374Y0176720D02*
D03*
X0301523Y0176720D02*
D03*
X0301523Y0183807D02*
D03*
X0298374Y0183807D02*
D03*
X0301523Y0172783D02*
D03*
X0298374Y0165697D02*
D03*
X0301523Y0165697D02*
D03*
X0270421Y0176720D02*
D03*
X0273571Y0183807D02*
D03*
X0270421Y0183807D02*
D03*
X0273570Y0172783D02*
D03*
X0270421Y0165697D02*
D03*
X0273570Y0165697D02*
D03*
X0279476Y0207626D02*
D03*
X0282626Y0207626D02*
D03*
X0282626Y0200539D02*
D03*
X0279476Y0200539D02*
D03*
X0298373Y0207626D02*
D03*
X0301523Y0207626D02*
D03*
X0301523Y0200539D02*
D03*
X0298373Y0200539D02*
D03*
X0260578Y0207626D02*
D03*
X0263728Y0207626D02*
D03*
X0263728Y0200539D02*
D03*
X0260578Y0200539D02*
D03*
X0241681Y0207626D02*
D03*
X0244830Y0207626D02*
D03*
X0244830Y0200539D02*
D03*
X0241681Y0200539D02*
D03*
X0242468Y0183807D02*
D03*
X0245618Y0183807D02*
D03*
X0245618Y0176720D02*
D03*
X0242468Y0176720D02*
D03*
X0214909Y0183807D02*
D03*
X0218059Y0183807D02*
D03*
X0218059Y0176720D02*
D03*
X0214909Y0176720D02*
D03*
X0218059Y0165697D02*
D03*
X0214909Y0165697D02*
D03*
X0214909Y0172783D02*
D03*
X0218059Y0172783D02*
D03*
D442*
X0206681Y0088433D02*
D03*
X0206681Y0083443D02*
D03*
X0212901Y0083443D02*
D03*
X0212901Y0088433D02*
D03*
D443*
X0194043Y0095323D02*
D03*
X0226720Y0095323D02*
D03*
X0194043Y0149456D02*
D03*
X0226720Y0149456D02*
D03*
D444*
X0204279Y0113354D02*
D03*
X0204279Y0104693D02*
D03*
X0204279Y0109023D02*
D03*
X0204279Y0117685D02*
D03*
X0204279Y0122016D02*
D03*
X0204279Y0126346D02*
D03*
X0204279Y0130677D02*
D03*
X0204279Y0135008D02*
D03*
D445*
X0185972Y0193964D02*
D03*
X0199176Y0193964D02*
D03*
X0193453Y0201996D02*
D03*
X0206656Y0201996D02*
D03*
X0189712Y0184712D02*
D03*
X0202916Y0184712D02*
D03*
X0202916Y0211248D02*
D03*
X0291090Y0096327D02*
D03*
X0294830Y0087075D02*
D03*
X0189712Y0211248D02*
D03*
D221*
X0192049Y0168191D02*
D03*
X0195986Y0168191D02*
D03*
X0192049Y0174195D02*
D03*
X0194017Y0174195D02*
D03*
X0194017Y0168191D02*
D03*
X0195986Y0174195D02*
D03*
D446*
X0282614Y0111543D02*
D03*
X0287732Y0111543D02*
D03*
X0285173Y0111543D02*
D03*
X0282614Y0119024D02*
D03*
X0287732Y0119024D02*
D03*
D223*
X0279397Y0131051D02*
D03*
X0302389Y0133610D02*
D03*
X0302389Y0131051D02*
D03*
X0279397Y0154082D02*
D03*
X0302389Y0156641D02*
D03*
X0302389Y0159201D02*
D03*
X0302389Y0154082D02*
D03*
X0302389Y0151523D02*
D03*
X0302389Y0148964D02*
D03*
X0302389Y0146405D02*
D03*
X0302389Y0143846D02*
D03*
X0302389Y0141287D02*
D03*
X0302389Y0138728D02*
D03*
X0302389Y0136169D02*
D03*
X0279397Y0159201D02*
D03*
X0279397Y0156641D02*
D03*
X0279397Y0151523D02*
D03*
X0279397Y0148964D02*
D03*
X0279397Y0146405D02*
D03*
X0279397Y0143846D02*
D03*
X0279397Y0141287D02*
D03*
X0279397Y0138728D02*
D03*
X0279397Y0136169D02*
D03*
X0279397Y0133610D02*
D03*
D447*
X0305460Y0093464D02*
D03*
X0305460Y0082046D02*
D03*
D448*
X0247370Y0091329D02*
D03*
X0260362Y0091329D02*
D03*
X0311447Y0102529D02*
D03*
X0298455Y0102529D02*
D03*
D226*
X0248595Y0116734D02*
D03*
X0248595Y0131301D02*
D03*
D227*
X0197019Y0172177D02*
D03*
X0197019Y0170209D02*
D03*
X0191015Y0170209D02*
D03*
X0191015Y0172177D02*
D03*
D449*
X0262006Y0104211D02*
D03*
X0256101Y0104211D02*
D03*
D445*
X0193453Y0193964D02*
D03*
X0206656Y0193964D02*
D03*
X0199176Y0201996D02*
D03*
X0298571Y0096327D02*
D03*
X0185972Y0201996D02*
D03*
D229*
X0259203Y0154870D02*
D03*
X0252510Y0154870D02*
D03*
D450*
X0242842Y0081333D02*
D03*
X0254259Y0081333D02*
D03*
D451*
X0311759Y0115697D02*
D03*
X0311759Y0121996D02*
D03*
X0005193Y0150669D02*
%LPD*%
G01*
D136*
X0016807Y0059488D03*
X0028618Y0067362D03*
X0016807Y0075236D03*
D142*
X0016020Y0146496D03*
X0012020Y0126496D03*
X0020020Y0126496D03*
D317*
X0054898Y0057008D03*
D318*
X0054898Y0067008D03*
X0054898Y0077008D03*
G36*
G01*
X0012552Y0070964D02*
X0013910Y0070964D01*
G75*
G02*
X0014491Y0070384I0000000J-000581D01*
G01*
X0014491Y0069222D01*
G75*
G02*
X0013910Y0068641I-000581J0000000D01*
G01*
X0012552Y0068641D01*
G75*
G02*
X0011971Y0069222I0000000J0000581D01*
G01*
X0011971Y0070384D01*
G75*
G02*
X0012552Y0070964I0000581J0000000D01*
G01*
G37*
G36*
G01*
X0012552Y0067145D02*
X0013910Y0067145D01*
G75*
G02*
X0014491Y0066565I0000000J-000581D01*
G01*
X0014491Y0065403D01*
G75*
G02*
X0013910Y0064823I-000581J0000000D01*
G01*
X0012552Y0064823D01*
G75*
G02*
X0011971Y0065403I0000000J0000581D01*
G01*
X0011971Y0066565D01*
G75*
G02*
X0012552Y0067145I0000581J0000000D01*
G01*
G37*
G36*
G01*
X0027841Y0056496D02*
X0029199Y0056496D01*
G75*
G02*
X0029780Y0055915I0000000J-000581D01*
G01*
X0029780Y0054754D01*
G75*
G02*
X0029199Y0054173I-000581J0000000D01*
G01*
X0027841Y0054173D01*
G75*
G02*
X0027260Y0054754I0000000J0000581D01*
G01*
X0027260Y0055915D01*
G75*
G02*
X0027841Y0056496I0000581J0000000D01*
G01*
G37*
G36*
G01*
X0027841Y0052677D02*
X0029199Y0052677D01*
G75*
G02*
X0029780Y0052096I0000000J-000581D01*
G01*
X0029780Y0050935D01*
G75*
G02*
X0029199Y0050354I-000581J0000000D01*
G01*
X0027841Y0050354D01*
G75*
G02*
X0027260Y0050935I0000000J0000581D01*
G01*
X0027260Y0052096D01*
G75*
G02*
X0027841Y0052677I0000581J0000000D01*
G01*
G37*
G36*
G01*
X0054037Y0106378D02*
X0052019Y0106378D01*
G75*
G02*
X0051158Y0107239I0000000J0000861D01*
G01*
X0051158Y0108961D01*
G75*
G02*
X0052019Y0109823I0000861J0000000D01*
G01*
X0054037Y0109823D01*
G75*
G02*
X0054898Y0108961I0000000J-000861D01*
G01*
X0054898Y0107239D01*
G75*
G02*
X0054037Y0106378I-000861J0000000D01*
G01*
G37*
G36*
G01*
X0054037Y0112578D02*
X0052019Y0112578D01*
G75*
G02*
X0051158Y0113440I0000000J0000861D01*
G01*
X0051158Y0115162D01*
G75*
G02*
X0052019Y0116023I0000861J0000000D01*
G01*
X0054037Y0116023D01*
G75*
G02*
X0054898Y0115162I0000000J-000861D01*
G01*
X0054898Y0113440D01*
G75*
G02*
X0054037Y0112578I-000861J0000000D01*
G01*
G37*
G36*
G01*
X0009711Y0064823D02*
X0008352Y0064823D01*
G75*
G02*
X0007772Y0065403I0000000J0000581D01*
G01*
X0007772Y0066565D01*
G75*
G02*
X0008352Y0067145I0000581J0000000D01*
G01*
X0009711Y0067145D01*
G75*
G02*
X0010291Y0066565I0000000J-000581D01*
G01*
X0010291Y0065403D01*
G75*
G02*
X0009711Y0064823I-000581J0000000D01*
G01*
G37*
G36*
G01*
X0009711Y0068641D02*
X0008352Y0068641D01*
G75*
G02*
X0007772Y0069222I0000000J0000581D01*
G01*
X0007772Y0070384D01*
G75*
G02*
X0008352Y0070964I0000581J0000000D01*
G01*
X0009711Y0070964D01*
G75*
G02*
X0010291Y0070384I0000000J-000581D01*
G01*
X0010291Y0069222D01*
G75*
G02*
X0009711Y0068641I-000581J0000000D01*
G01*
G37*
G36*
G01*
X0048707Y0124524D02*
X0050065Y0124524D01*
G75*
G02*
X0050646Y0123944I0000000J-000581D01*
G01*
X0050646Y0122782D01*
G75*
G02*
X0050065Y0122202I-000581J0000000D01*
G01*
X0048707Y0122202D01*
G75*
G02*
X0048126Y0122782I0000000J0000581D01*
G01*
X0048126Y0123944D01*
G75*
G02*
X0048707Y0124524I0000581J0000000D01*
G01*
G37*
G36*
G01*
X0048707Y0120706D02*
X0050065Y0120706D01*
G75*
G02*
X0050646Y0120125I0000000J-000581D01*
G01*
X0050646Y0118963D01*
G75*
G02*
X0050065Y0118383I-000581J0000000D01*
G01*
X0048707Y0118383D01*
G75*
G02*
X0048126Y0118963I0000000J0000581D01*
G01*
X0048126Y0120125D01*
G75*
G02*
X0048707Y0120706I0000581J0000000D01*
G01*
G37*
G36*
G01*
X0046837Y0116437D02*
X0048195Y0116437D01*
G75*
G02*
X0048776Y0115856I0000000J-000581D01*
G01*
X0048776Y0114695D01*
G75*
G02*
X0048195Y0114114I-000581J0000000D01*
G01*
X0046837Y0114114D01*
G75*
G02*
X0046256Y0114695I0000000J0000581D01*
G01*
X0046256Y0115856D01*
G75*
G02*
X0046837Y0116437I0000581J0000000D01*
G01*
G37*
G36*
G01*
X0046837Y0112618D02*
X0048195Y0112618D01*
G75*
G02*
X0048776Y0112037I0000000J-000581D01*
G01*
X0048776Y0110876D01*
G75*
G02*
X0048195Y0110295I-000581J0000000D01*
G01*
X0046837Y0110295D01*
G75*
G02*
X0046256Y0110876I0000000J0000581D01*
G01*
X0046256Y0112037D01*
G75*
G02*
X0046837Y0112618I0000581J0000000D01*
G01*
G37*
G36*
G01*
X0054169Y0145049D02*
X0054169Y0143691D01*
G75*
G02*
X0053589Y0143110I-000581J0000000D01*
G01*
X0052427Y0143110D01*
G75*
G02*
X0051847Y0143691I0000000J0000581D01*
G01*
X0051847Y0145049D01*
G75*
G02*
X0052427Y0145630I0000581J0000000D01*
G01*
X0053589Y0145630D01*
G75*
G02*
X0054169Y0145049I0000000J-000581D01*
G01*
G37*
G36*
G01*
X0050350Y0145049D02*
X0050350Y0143691D01*
G75*
G02*
X0049770Y0143110I-000581J0000000D01*
G01*
X0048608Y0143110D01*
G75*
G02*
X0048028Y0143691I0000000J0000581D01*
G01*
X0048028Y0145049D01*
G75*
G02*
X0048608Y0145630I0000581J0000000D01*
G01*
X0049770Y0145630D01*
G75*
G02*
X0050350Y0145049I0000000J-000581D01*
G01*
G37*
G36*
G01*
X0036581Y0095531D02*
X0035223Y0095531D01*
G75*
G02*
X0034642Y0096112I0000000J0000581D01*
G01*
X0034642Y0097273D01*
G75*
G02*
X0035223Y0097854I0000581J0000000D01*
G01*
X0036581Y0097854D01*
G75*
G02*
X0037162Y0097273I0000000J-000581D01*
G01*
X0037162Y0096112D01*
G75*
G02*
X0036581Y0095531I-000581J0000000D01*
G01*
G37*
G36*
G01*
X0036581Y0099350D02*
X0035223Y0099350D01*
G75*
G02*
X0034642Y0099931I0000000J0000581D01*
G01*
X0034642Y0101092D01*
G75*
G02*
X0035223Y0101673I0000581J0000000D01*
G01*
X0036581Y0101673D01*
G75*
G02*
X0037162Y0101092I0000000J-000581D01*
G01*
X0037162Y0099931D01*
G75*
G02*
X0036581Y0099350I-000581J0000000D01*
G01*
G37*
G36*
G01*
X0031286Y0101673D02*
X0032644Y0101673D01*
G75*
G02*
X0033224Y0101092I0000000J-000581D01*
G01*
X0033224Y0099931D01*
G75*
G02*
X0032644Y0099350I-000581J0000000D01*
G01*
X0031286Y0099350D01*
G75*
G02*
X0030705Y0099931I0000000J0000581D01*
G01*
X0030705Y0101092D01*
G75*
G02*
X0031286Y0101673I0000581J0000000D01*
G01*
G37*
G36*
G01*
X0031286Y0097854D02*
X0032644Y0097854D01*
G75*
G02*
X0033224Y0097273I0000000J-000581D01*
G01*
X0033224Y0096112D01*
G75*
G02*
X0032644Y0095531I-000581J0000000D01*
G01*
X0031286Y0095531D01*
G75*
G02*
X0030705Y0096112I0000000J0000581D01*
G01*
X0030705Y0097273D01*
G75*
G02*
X0031286Y0097854I0000581J0000000D01*
G01*
G37*
G36*
G01*
X0033726Y0054193D02*
X0032368Y0054193D01*
G75*
G02*
X0031787Y0054773I0000000J0000581D01*
G01*
X0031787Y0055935D01*
G75*
G02*
X0032368Y0056515I0000581J0000000D01*
G01*
X0033726Y0056515D01*
G75*
G02*
X0034307Y0055935I0000000J-000581D01*
G01*
X0034307Y0054773D01*
G75*
G02*
X0033726Y0054193I-000581J0000000D01*
G01*
G37*
G36*
G01*
X0033726Y0058012D02*
X0032368Y0058012D01*
G75*
G02*
X0031787Y0058592I0000000J0000581D01*
G01*
X0031787Y0059754D01*
G75*
G02*
X0032368Y0060334I0000581J0000000D01*
G01*
X0033726Y0060334D01*
G75*
G02*
X0034307Y0059754I0000000J-000581D01*
G01*
X0034307Y0058592D01*
G75*
G02*
X0033726Y0058012I-000581J0000000D01*
G01*
G37*
D320*
X0010311Y0108543D03*
X0012870Y0108543D03*
X0015429Y0108543D03*
X0017988Y0108543D03*
X0020547Y0108543D03*
X0023106Y0108543D03*
X0025665Y0108543D03*
X0025665Y0085315D03*
X0023106Y0085315D03*
X0020547Y0085315D03*
X0017988Y0085315D03*
X0015429Y0085315D03*
X0012870Y0085315D03*
X0010311Y0085315D03*
G36*
G01*
X0053805Y0118366D02*
X0052447Y0118366D01*
G75*
G02*
X0051866Y0118947I0000000J0000581D01*
G01*
X0051866Y0120108D01*
G75*
G02*
X0052447Y0120689I0000581J0000000D01*
G01*
X0053805Y0120689D01*
G75*
G02*
X0054386Y0120108I0000000J-000581D01*
G01*
X0054386Y0118947D01*
G75*
G02*
X0053805Y0118366I-000581J0000000D01*
G01*
G37*
G36*
G01*
X0053805Y0122185D02*
X0052447Y0122185D01*
G75*
G02*
X0051866Y0122765I0000000J0000581D01*
G01*
X0051866Y0123927D01*
G75*
G02*
X0052447Y0124508I0000581J0000000D01*
G01*
X0053805Y0124508D01*
G75*
G02*
X0054386Y0123927I0000000J-000581D01*
G01*
X0054386Y0122765D01*
G75*
G02*
X0053805Y0122185I-000581J0000000D01*
G01*
G37*
G36*
G01*
X0056187Y0124508D02*
X0057545Y0124508D01*
G75*
G02*
X0058126Y0123927I0000000J-000581D01*
G01*
X0058126Y0122765D01*
G75*
G02*
X0057545Y0122185I-000581J0000000D01*
G01*
X0056187Y0122185D01*
G75*
G02*
X0055606Y0122765I0000000J0000581D01*
G01*
X0055606Y0123927D01*
G75*
G02*
X0056187Y0124508I0000581J0000000D01*
G01*
G37*
G36*
G01*
X0056187Y0120689D02*
X0057545Y0120689D01*
G75*
G02*
X0058126Y0120108I0000000J-000581D01*
G01*
X0058126Y0118947D01*
G75*
G02*
X0057545Y0118366I-000581J0000000D01*
G01*
X0056187Y0118366D01*
G75*
G02*
X0055606Y0118947I0000000J0000581D01*
G01*
X0055606Y0120108D01*
G75*
G02*
X0056187Y0120689I0000581J0000000D01*
G01*
G37*
G36*
G01*
X0046738Y0064271D02*
X0048097Y0064271D01*
G75*
G02*
X0048677Y0063691I0000000J-000581D01*
G01*
X0048677Y0062529D01*
G75*
G02*
X0048097Y0061949I-000581J0000000D01*
G01*
X0046738Y0061949D01*
G75*
G02*
X0046158Y0062529I0000000J0000581D01*
G01*
X0046158Y0063691D01*
G75*
G02*
X0046738Y0064271I0000581J0000000D01*
G01*
G37*
G36*
G01*
X0046738Y0060452D02*
X0048097Y0060452D01*
G75*
G02*
X0048677Y0059872I0000000J-000581D01*
G01*
X0048677Y0058710D01*
G75*
G02*
X0048097Y0058130I-000581J0000000D01*
G01*
X0046738Y0058130D01*
G75*
G02*
X0046158Y0058710I0000000J0000581D01*
G01*
X0046158Y0059872D01*
G75*
G02*
X0046738Y0060452I0000581J0000000D01*
G01*
G37*
G36*
G01*
X0017440Y0070964D02*
X0018799Y0070964D01*
G75*
G02*
X0019379Y0070384I0000000J-000581D01*
G01*
X0019379Y0069222D01*
G75*
G02*
X0018799Y0068641I-000581J0000000D01*
G01*
X0017440Y0068641D01*
G75*
G02*
X0016860Y0069222I0000000J0000581D01*
G01*
X0016860Y0070384D01*
G75*
G02*
X0017440Y0070964I0000581J0000000D01*
G01*
G37*
G36*
G01*
X0017440Y0067145D02*
X0018799Y0067145D01*
G75*
G02*
X0019379Y0066565I0000000J-000581D01*
G01*
X0019379Y0065403D01*
G75*
G02*
X0018799Y0064823I-000581J0000000D01*
G01*
X0017440Y0064823D01*
G75*
G02*
X0016860Y0065403I0000000J0000581D01*
G01*
X0016860Y0066565D01*
G75*
G02*
X0017440Y0067145I0000581J0000000D01*
G01*
G37*
G36*
G01*
X0040518Y0098779D02*
X0039160Y0098779D01*
G75*
G02*
X0038579Y0099360I0000000J0000581D01*
G01*
X0038579Y0100521D01*
G75*
G02*
X0039160Y0101102I0000581J0000000D01*
G01*
X0040518Y0101102D01*
G75*
G02*
X0041099Y0100521I0000000J-000581D01*
G01*
X0041099Y0099360D01*
G75*
G02*
X0040518Y0098779I-000581J0000000D01*
G01*
G37*
G36*
G01*
X0040518Y0102598D02*
X0039160Y0102598D01*
G75*
G02*
X0038579Y0103179I0000000J0000581D01*
G01*
X0038579Y0104340D01*
G75*
G02*
X0039160Y0104921I0000581J0000000D01*
G01*
X0040518Y0104921D01*
G75*
G02*
X0041099Y0104340I0000000J-000581D01*
G01*
X0041099Y0103179D01*
G75*
G02*
X0040518Y0102598I-000581J0000000D01*
G01*
G37*
G36*
G01*
X0048097Y0050452D02*
X0046738Y0050452D01*
G75*
G02*
X0046158Y0051033I0000000J0000581D01*
G01*
X0046158Y0052195D01*
G75*
G02*
X0046738Y0052775I0000581J0000000D01*
G01*
X0048097Y0052775D01*
G75*
G02*
X0048677Y0052195I0000000J-000581D01*
G01*
X0048677Y0051033D01*
G75*
G02*
X0048097Y0050452I-000581J0000000D01*
G01*
G37*
G36*
G01*
X0048097Y0054271D02*
X0046738Y0054271D01*
G75*
G02*
X0046158Y0054852I0000000J0000581D01*
G01*
X0046158Y0056013D01*
G75*
G02*
X0046738Y0056594I0000581J0000000D01*
G01*
X0048097Y0056594D01*
G75*
G02*
X0048677Y0056013I0000000J-000581D01*
G01*
X0048677Y0054852D01*
G75*
G02*
X0048097Y0054271I-000581J0000000D01*
G01*
G37*
G36*
G01*
X0032644Y0102913D02*
X0031286Y0102913D01*
G75*
G02*
X0030705Y0103494I0000000J0000581D01*
G01*
X0030705Y0104655D01*
G75*
G02*
X0031286Y0105236I0000581J0000000D01*
G01*
X0032644Y0105236D01*
G75*
G02*
X0033224Y0104655I0000000J-000581D01*
G01*
X0033224Y0103494D01*
G75*
G02*
X0032644Y0102913I-000581J0000000D01*
G01*
G37*
G36*
G01*
X0032644Y0106732D02*
X0031286Y0106732D01*
G75*
G02*
X0030705Y0107313I0000000J0000581D01*
G01*
X0030705Y0108474D01*
G75*
G02*
X0031286Y0109055I0000581J0000000D01*
G01*
X0032644Y0109055D01*
G75*
G02*
X0033224Y0108474I0000000J-000581D01*
G01*
X0033224Y0107313D01*
G75*
G02*
X0032644Y0106732I-000581J0000000D01*
G01*
G37*
G36*
G01*
X0008028Y0114163D02*
X0008028Y0115521D01*
G75*
G02*
X0008608Y0116102I0000581J0000000D01*
G01*
X0009770Y0116102D01*
G75*
G02*
X0010350Y0115521I0000000J-000581D01*
G01*
X0010350Y0114163D01*
G75*
G02*
X0009770Y0113582I-000581J0000000D01*
G01*
X0008608Y0113582D01*
G75*
G02*
X0008028Y0114163I0000000J0000581D01*
G01*
G37*
G36*
G01*
X0011847Y0114163D02*
X0011847Y0115521D01*
G75*
G02*
X0012427Y0116102I0000581J0000000D01*
G01*
X0013589Y0116102D01*
G75*
G02*
X0014169Y0115521I0000000J-000581D01*
G01*
X0014169Y0114163D01*
G75*
G02*
X0013589Y0113582I-000581J0000000D01*
G01*
X0012427Y0113582D01*
G75*
G02*
X0011847Y0114163I0000000J0000581D01*
G01*
G37*
G36*
G01*
X0036581Y0088051D02*
X0035223Y0088051D01*
G75*
G02*
X0034642Y0088632I0000000J0000581D01*
G01*
X0034642Y0089793D01*
G75*
G02*
X0035223Y0090374I0000581J0000000D01*
G01*
X0036581Y0090374D01*
G75*
G02*
X0037162Y0089793I0000000J-000581D01*
G01*
X0037162Y0088632D01*
G75*
G02*
X0036581Y0088051I-000581J0000000D01*
G01*
G37*
G36*
G01*
X0036581Y0091870D02*
X0035223Y0091870D01*
G75*
G02*
X0034642Y0092450I0000000J0000581D01*
G01*
X0034642Y0093612D01*
G75*
G02*
X0035223Y0094193I0000581J0000000D01*
G01*
X0036581Y0094193D01*
G75*
G02*
X0037162Y0093612I0000000J-000581D01*
G01*
X0037162Y0092450D01*
G75*
G02*
X0036581Y0091870I-000581J0000000D01*
G01*
G37*
G36*
G01*
X0035223Y0086712D02*
X0036581Y0086712D01*
G75*
G02*
X0037162Y0086132I0000000J-000581D01*
G01*
X0037162Y0084970D01*
G75*
G02*
X0036581Y0084389I-000581J0000000D01*
G01*
X0035223Y0084389D01*
G75*
G02*
X0034642Y0084970I0000000J0000581D01*
G01*
X0034642Y0086132D01*
G75*
G02*
X0035223Y0086712I0000581J0000000D01*
G01*
G37*
G36*
G01*
X0035223Y0082893D02*
X0036581Y0082893D01*
G75*
G02*
X0037162Y0082313I0000000J-000581D01*
G01*
X0037162Y0081151D01*
G75*
G02*
X0036581Y0080571I-000581J0000000D01*
G01*
X0035223Y0080571D01*
G75*
G02*
X0034642Y0081151I0000000J0000581D01*
G01*
X0034642Y0082313D01*
G75*
G02*
X0035223Y0082893I0000581J0000000D01*
G01*
G37*
G36*
G01*
X0008028Y0117903D02*
X0008028Y0119262D01*
G75*
G02*
X0008608Y0119842I0000581J0000000D01*
G01*
X0009770Y0119842D01*
G75*
G02*
X0010350Y0119262I0000000J-000581D01*
G01*
X0010350Y0117903D01*
G75*
G02*
X0009770Y0117323I-000581J0000000D01*
G01*
X0008608Y0117323D01*
G75*
G02*
X0008028Y0117903I0000000J0000581D01*
G01*
G37*
G36*
G01*
X0011847Y0117903D02*
X0011847Y0119262D01*
G75*
G02*
X0012427Y0119842I0000581J0000000D01*
G01*
X0013589Y0119842D01*
G75*
G02*
X0014169Y0119262I0000000J-000581D01*
G01*
X0014169Y0117903D01*
G75*
G02*
X0013589Y0117323I-000581J0000000D01*
G01*
X0012427Y0117323D01*
G75*
G02*
X0011847Y0117903I0000000J0000581D01*
G01*
G37*
D321*
X0056866Y0128582D03*
X0053126Y0128582D03*
X0049386Y0128582D03*
X0049386Y0138897D03*
X0056866Y0138897D03*
G36*
G01*
X0039160Y0094094D02*
X0040518Y0094094D01*
G75*
G02*
X0041099Y0093513I0000000J-000581D01*
G01*
X0041099Y0092352D01*
G75*
G02*
X0040518Y0091771I-000581J0000000D01*
G01*
X0039160Y0091771D01*
G75*
G02*
X0038579Y0092352I0000000J0000581D01*
G01*
X0038579Y0093513D01*
G75*
G02*
X0039160Y0094094I0000581J0000000D01*
G01*
G37*
G36*
G01*
X0039160Y0090275D02*
X0040518Y0090275D01*
G75*
G02*
X0041099Y0089695I0000000J-000581D01*
G01*
X0041099Y0088533D01*
G75*
G02*
X0040518Y0087952I-000581J0000000D01*
G01*
X0039160Y0087952D01*
G75*
G02*
X0038579Y0088533I0000000J0000581D01*
G01*
X0038579Y0089695D01*
G75*
G02*
X0039160Y0090275I0000581J0000000D01*
G01*
G37*
G36*
G01*
X0043264Y0106683D02*
X0043264Y0108041D01*
G75*
G02*
X0043845Y0108622I0000581J0000000D01*
G01*
X0045006Y0108622D01*
G75*
G02*
X0045587Y0108041I0000000J-000581D01*
G01*
X0045587Y0106683D01*
G75*
G02*
X0045006Y0106102I-000581J0000000D01*
G01*
X0043845Y0106102D01*
G75*
G02*
X0043264Y0106683I0000000J0000581D01*
G01*
G37*
G36*
G01*
X0047083Y0106683D02*
X0047083Y0108041D01*
G75*
G02*
X0047663Y0108622I0000581J0000000D01*
G01*
X0048825Y0108622D01*
G75*
G02*
X0049406Y0108041I0000000J-000581D01*
G01*
X0049406Y0106683D01*
G75*
G02*
X0048825Y0106102I-000581J0000000D01*
G01*
X0047663Y0106102D01*
G75*
G02*
X0047083Y0106683I0000000J0000581D01*
G01*
G37*
G36*
G01*
X0022831Y0115521D02*
X0022831Y0114163D01*
G75*
G02*
X0022250Y0113582I-000581J0000000D01*
G01*
X0021089Y0113582D01*
G75*
G02*
X0020508Y0114163I0000000J0000581D01*
G01*
X0020508Y0115521D01*
G75*
G02*
X0021089Y0116102I0000581J0000000D01*
G01*
X0022250Y0116102D01*
G75*
G02*
X0022831Y0115521I0000000J-000581D01*
G01*
G37*
G36*
G01*
X0019012Y0115521D02*
X0019012Y0114163D01*
G75*
G02*
X0018431Y0113582I-000581J0000000D01*
G01*
X0017270Y0113582D01*
G75*
G02*
X0016689Y0114163I0000000J0000581D01*
G01*
X0016689Y0115521D01*
G75*
G02*
X0017270Y0116102I0000581J0000000D01*
G01*
X0018431Y0116102D01*
G75*
G02*
X0019012Y0115521I0000000J-000581D01*
G01*
G37*
G36*
G01*
X0023786Y0072401D02*
X0022427Y0072401D01*
G75*
G02*
X0021847Y0072982I0000000J0000581D01*
G01*
X0021847Y0074143D01*
G75*
G02*
X0022427Y0074724I0000581J0000000D01*
G01*
X0023786Y0074724D01*
G75*
G02*
X0024366Y0074143I0000000J-000581D01*
G01*
X0024366Y0072982D01*
G75*
G02*
X0023786Y0072401I-000581J0000000D01*
G01*
G37*
G36*
G01*
X0023786Y0076220D02*
X0022427Y0076220D01*
G75*
G02*
X0021847Y0076801I0000000J0000581D01*
G01*
X0021847Y0077962D01*
G75*
G02*
X0022427Y0078543I0000581J0000000D01*
G01*
X0023786Y0078543D01*
G75*
G02*
X0024366Y0077962I0000000J-000581D01*
G01*
X0024366Y0076801D01*
G75*
G02*
X0023786Y0076220I-000581J0000000D01*
G01*
G37*
G36*
G01*
X0023786Y0064823D02*
X0022427Y0064823D01*
G75*
G02*
X0021847Y0065403I0000000J0000581D01*
G01*
X0021847Y0066565D01*
G75*
G02*
X0022427Y0067145I0000581J0000000D01*
G01*
X0023786Y0067145D01*
G75*
G02*
X0024366Y0066565I0000000J-000581D01*
G01*
X0024366Y0065403D01*
G75*
G02*
X0023786Y0064823I-000581J0000000D01*
G01*
G37*
G36*
G01*
X0023786Y0068641D02*
X0022427Y0068641D01*
G75*
G02*
X0021847Y0069222I0000000J0000581D01*
G01*
X0021847Y0070384D01*
G75*
G02*
X0022427Y0070964I0000581J0000000D01*
G01*
X0023786Y0070964D01*
G75*
G02*
X0024366Y0070384I0000000J-000581D01*
G01*
X0024366Y0069222D01*
G75*
G02*
X0023786Y0068641I-000581J0000000D01*
G01*
G37*
G36*
G01*
X0022831Y0119262D02*
X0022831Y0117903D01*
G75*
G02*
X0022250Y0117323I-000581J0000000D01*
G01*
X0021089Y0117323D01*
G75*
G02*
X0020508Y0117903I0000000J0000581D01*
G01*
X0020508Y0119262D01*
G75*
G02*
X0021089Y0119842I0000581J0000000D01*
G01*
X0022250Y0119842D01*
G75*
G02*
X0022831Y0119262I0000000J-000581D01*
G01*
G37*
G36*
G01*
X0019012Y0119262D02*
X0019012Y0117903D01*
G75*
G02*
X0018431Y0117323I-000581J0000000D01*
G01*
X0017270Y0117323D01*
G75*
G02*
X0016689Y0117903I0000000J0000581D01*
G01*
X0016689Y0119262D01*
G75*
G02*
X0017270Y0119842I0000581J0000000D01*
G01*
X0018431Y0119842D01*
G75*
G02*
X0019012Y0119262I0000000J-000581D01*
G01*
G37*
G36*
G01*
X0032644Y0084901D02*
X0031286Y0084901D01*
G75*
G02*
X0030705Y0085482I0000000J0000581D01*
G01*
X0030705Y0086643D01*
G75*
G02*
X0031286Y0087224I0000581J0000000D01*
G01*
X0032644Y0087224D01*
G75*
G02*
X0033224Y0086643I0000000J-000581D01*
G01*
X0033224Y0085482D01*
G75*
G02*
X0032644Y0084901I-000581J0000000D01*
G01*
G37*
G36*
G01*
X0032644Y0088720D02*
X0031286Y0088720D01*
G75*
G02*
X0030705Y0089301I0000000J0000581D01*
G01*
X0030705Y0090462D01*
G75*
G02*
X0031286Y0091043I0000581J0000000D01*
G01*
X0032644Y0091043D01*
G75*
G02*
X0033224Y0090462I0000000J-000581D01*
G01*
X0033224Y0089301D01*
G75*
G02*
X0032644Y0088720I-000581J0000000D01*
G01*
G37*
G36*
G01*
X0022831Y0123002D02*
X0022831Y0121643D01*
G75*
G02*
X0022250Y0121063I-000581J0000000D01*
G01*
X0021089Y0121063D01*
G75*
G02*
X0020508Y0121643I0000000J0000581D01*
G01*
X0020508Y0123002D01*
G75*
G02*
X0021089Y0123582I0000581J0000000D01*
G01*
X0022250Y0123582D01*
G75*
G02*
X0022831Y0123002I0000000J-000581D01*
G01*
G37*
G36*
G01*
X0019012Y0123002D02*
X0019012Y0121643D01*
G75*
G02*
X0018431Y0121063I-000581J0000000D01*
G01*
X0017270Y0121063D01*
G75*
G02*
X0016689Y0121643I0000000J0000581D01*
G01*
X0016689Y0123002D01*
G75*
G02*
X0017270Y0123582I0000581J0000000D01*
G01*
X0018431Y0123582D01*
G75*
G02*
X0019012Y0123002I0000000J-000581D01*
G01*
G37*
G36*
G01*
X0014169Y0123002D02*
X0014169Y0121643D01*
G75*
G02*
X0013589Y0121063I-000581J0000000D01*
G01*
X0012427Y0121063D01*
G75*
G02*
X0011847Y0121643I0000000J0000581D01*
G01*
X0011847Y0123002D01*
G75*
G02*
X0012427Y0123582I0000581J0000000D01*
G01*
X0013589Y0123582D01*
G75*
G02*
X0014169Y0123002I0000000J-000581D01*
G01*
G37*
G36*
G01*
X0010350Y0123002D02*
X0010350Y0121643D01*
G75*
G02*
X0009770Y0121063I-000581J0000000D01*
G01*
X0008608Y0121063D01*
G75*
G02*
X0008028Y0121643I0000000J0000581D01*
G01*
X0008028Y0123002D01*
G75*
G02*
X0008608Y0123582I0000581J0000000D01*
G01*
X0009770Y0123582D01*
G75*
G02*
X0010350Y0123002I0000000J-000581D01*
G01*
G37*
G36*
G01*
X0019976Y0137815D02*
X0021315Y0137815D01*
G75*
G02*
X0021866Y0137264I0000000J-000551D01*
G01*
X0021866Y0136161D01*
G75*
G02*
X0021315Y0135610I-000551J0000000D01*
G01*
X0019976Y0135610D01*
G75*
G02*
X0019425Y0136161I0000000J0000551D01*
G01*
X0019425Y0137264D01*
G75*
G02*
X0019976Y0137815I0000551J0000000D01*
G01*
G37*
G36*
G01*
X0019976Y0134035D02*
X0021315Y0134035D01*
G75*
G02*
X0021866Y0133484I0000000J-000551D01*
G01*
X0021866Y0132382D01*
G75*
G02*
X0021315Y0131831I-000551J0000000D01*
G01*
X0019976Y0131831D01*
G75*
G02*
X0019425Y0132382I0000000J0000551D01*
G01*
X0019425Y0133484D01*
G75*
G02*
X0019976Y0134035I0000551J0000000D01*
G01*
G37*
G36*
G01*
X0046236Y0082874D02*
X0044780Y0082874D01*
G75*
G02*
X0044248Y0083405I0000000J0000531D01*
G01*
X0044248Y0084468D01*
G75*
G02*
X0044780Y0085000I0000531J0000000D01*
G01*
X0046236Y0085000D01*
G75*
G02*
X0046768Y0084468I0000000J-000531D01*
G01*
X0046768Y0083405D01*
G75*
G02*
X0046236Y0082874I-000531J0000000D01*
G01*
G37*
G36*
G01*
X0046236Y0086889D02*
X0044780Y0086889D01*
G75*
G02*
X0044248Y0087421I0000000J0000531D01*
G01*
X0044248Y0088484D01*
G75*
G02*
X0044780Y0089015I0000531J0000000D01*
G01*
X0046236Y0089015D01*
G75*
G02*
X0046768Y0088484I0000000J-000531D01*
G01*
X0046768Y0087421D01*
G75*
G02*
X0046236Y0086889I-000531J0000000D01*
G01*
G37*
G36*
G01*
X0031703Y0143602D02*
X0031703Y0145059D01*
G75*
G02*
X0032235Y0145590I0000531J0000000D01*
G01*
X0033298Y0145590D01*
G75*
G02*
X0033829Y0145059I0000000J-000531D01*
G01*
X0033829Y0143602D01*
G75*
G02*
X0033298Y0143071I-000531J0000000D01*
G01*
X0032235Y0143071D01*
G75*
G02*
X0031703Y0143602I0000000J0000531D01*
G01*
G37*
G36*
G01*
X0035719Y0143602D02*
X0035719Y0145059D01*
G75*
G02*
X0036251Y0145590I0000531J0000000D01*
G01*
X0037314Y0145590D01*
G75*
G02*
X0037845Y0145059I0000000J-000531D01*
G01*
X0037845Y0143602D01*
G75*
G02*
X0037314Y0143071I-000531J0000000D01*
G01*
X0036251Y0143071D01*
G75*
G02*
X0035719Y0143602I0000000J0000531D01*
G01*
G37*
G36*
G01*
X0007752Y0142992D02*
X0008933Y0142992D01*
G75*
G02*
X0009524Y0142401I0000000J-000591D01*
G01*
X0009524Y0137775D01*
G75*
G02*
X0008933Y0137185I-000591J0000000D01*
G01*
X0007752Y0137185D01*
G75*
G02*
X0007162Y0137775I0000000J0000591D01*
G01*
X0007162Y0142401D01*
G75*
G02*
X0007752Y0142992I0000591J0000000D01*
G01*
G37*
G36*
G01*
X0015232Y0142992D02*
X0016413Y0142992D01*
G75*
G02*
X0017004Y0142401I0000000J-000591D01*
G01*
X0017004Y0137775D01*
G75*
G02*
X0016413Y0137185I-000591J0000000D01*
G01*
X0015232Y0137185D01*
G75*
G02*
X0014642Y0137775I0000000J0000591D01*
G01*
X0014642Y0142401D01*
G75*
G02*
X0015232Y0142992I0000591J0000000D01*
G01*
G37*
G36*
G01*
X0011492Y0135610D02*
X0012673Y0135610D01*
G75*
G02*
X0013264Y0135019I0000000J-000591D01*
G01*
X0013264Y0130393D01*
G75*
G02*
X0012673Y0129803I-000591J0000000D01*
G01*
X0011492Y0129803D01*
G75*
G02*
X0010902Y0130393I0000000J0000591D01*
G01*
X0010902Y0135019D01*
G75*
G02*
X0011492Y0135610I0000591J0000000D01*
G01*
G37*
G36*
G01*
X0045684Y0145039D02*
X0045684Y0143700D01*
G75*
G02*
X0045132Y0143149I-000551J0000000D01*
G01*
X0044030Y0143149D01*
G75*
G02*
X0043479Y0143700I0000000J0000551D01*
G01*
X0043479Y0145039D01*
G75*
G02*
X0044030Y0145590I0000551J0000000D01*
G01*
X0045132Y0145590D01*
G75*
G02*
X0045684Y0145039I0000000J-000551D01*
G01*
G37*
G36*
G01*
X0041904Y0145039D02*
X0041904Y0143700D01*
G75*
G02*
X0041353Y0143149I-000551J0000000D01*
G01*
X0040251Y0143149D01*
G75*
G02*
X0039699Y0143700I0000000J0000551D01*
G01*
X0039699Y0145039D01*
G75*
G02*
X0040251Y0145590I0000551J0000000D01*
G01*
X0041353Y0145590D01*
G75*
G02*
X0041904Y0145039I0000000J-000551D01*
G01*
G37*
G36*
G01*
X0042613Y0114252D02*
X0041432Y0114252D01*
G75*
G02*
X0040841Y0114842I0000000J0000591D01*
G01*
X0040841Y0120551D01*
G75*
G02*
X0041432Y0121141I0000591J0000000D01*
G01*
X0042613Y0121141D01*
G75*
G02*
X0043203Y0120551I0000000J-000591D01*
G01*
X0043203Y0114842D01*
G75*
G02*
X0042613Y0114252I-000591J0000000D01*
G01*
G37*
G36*
G01*
X0037613Y0114252D02*
X0036432Y0114252D01*
G75*
G02*
X0035841Y0114842I0000000J0000591D01*
G01*
X0035841Y0120551D01*
G75*
G02*
X0036432Y0121141I0000591J0000000D01*
G01*
X0037613Y0121141D01*
G75*
G02*
X0038203Y0120551I0000000J-000591D01*
G01*
X0038203Y0114842D01*
G75*
G02*
X0037613Y0114252I-000591J0000000D01*
G01*
G37*
G36*
G01*
X0032613Y0114252D02*
X0031432Y0114252D01*
G75*
G02*
X0030841Y0114842I0000000J0000591D01*
G01*
X0030841Y0120551D01*
G75*
G02*
X0031432Y0121141I0000591J0000000D01*
G01*
X0032613Y0121141D01*
G75*
G02*
X0033203Y0120551I0000000J-000591D01*
G01*
X0033203Y0114842D01*
G75*
G02*
X0032613Y0114252I-000591J0000000D01*
G01*
G37*
G36*
G01*
X0027613Y0114252D02*
X0026432Y0114252D01*
G75*
G02*
X0025841Y0114842I0000000J0000591D01*
G01*
X0025841Y0120551D01*
G75*
G02*
X0026432Y0121141I0000591J0000000D01*
G01*
X0027613Y0121141D01*
G75*
G02*
X0028203Y0120551I0000000J-000591D01*
G01*
X0028203Y0114842D01*
G75*
G02*
X0027613Y0114252I-000591J0000000D01*
G01*
G37*
G36*
G01*
X0027613Y0134527D02*
X0026432Y0134527D01*
G75*
G02*
X0025841Y0135118I0000000J0000591D01*
G01*
X0025841Y0140826D01*
G75*
G02*
X0026432Y0141417I0000591J0000000D01*
G01*
X0027613Y0141417D01*
G75*
G02*
X0028203Y0140826I0000000J-000591D01*
G01*
X0028203Y0135118D01*
G75*
G02*
X0027613Y0134527I-000591J0000000D01*
G01*
G37*
G36*
G01*
X0032613Y0134527D02*
X0031432Y0134527D01*
G75*
G02*
X0030841Y0135118I0000000J0000591D01*
G01*
X0030841Y0140826D01*
G75*
G02*
X0031432Y0141417I0000591J0000000D01*
G01*
X0032613Y0141417D01*
G75*
G02*
X0033203Y0140826I0000000J-000591D01*
G01*
X0033203Y0135118D01*
G75*
G02*
X0032613Y0134527I-000591J0000000D01*
G01*
G37*
G36*
G01*
X0037613Y0134527D02*
X0036432Y0134527D01*
G75*
G02*
X0035841Y0135118I0000000J0000591D01*
G01*
X0035841Y0140826D01*
G75*
G02*
X0036432Y0141417I0000591J0000000D01*
G01*
X0037613Y0141417D01*
G75*
G02*
X0038203Y0140826I0000000J-000591D01*
G01*
X0038203Y0135118D01*
G75*
G02*
X0037613Y0134527I-000591J0000000D01*
G01*
G37*
G36*
G01*
X0042613Y0134527D02*
X0041432Y0134527D01*
G75*
G02*
X0040841Y0135118I0000000J0000591D01*
G01*
X0040841Y0140826D01*
G75*
G02*
X0041432Y0141417I0000591J0000000D01*
G01*
X0042613Y0141417D01*
G75*
G02*
X0043203Y0140826I0000000J-000591D01*
G01*
X0043203Y0135118D01*
G75*
G02*
X0042613Y0134527I-000591J0000000D01*
G01*
G37*
M02*
