G75*
G70*
%OFA0B0*%
%FSLAX25Y25*%
%IPPOS*%
%LPD*%
%AMOC8*
5,1,8,0,0,1.08239X$1,22.5*
%
%AMM128*
21,1,0.086610,0.073230,-0.000000,-0.000000,90.000000*
21,1,0.069290,0.090550,-0.000000,-0.000000,90.000000*
1,1,0.017320,0.036610,0.034650*
1,1,0.017320,0.036610,-0.034650*
1,1,0.017320,-0.036610,-0.034650*
1,1,0.017320,-0.036610,0.034650*
%
%AMM129*
21,1,0.094490,0.111020,-0.000000,-0.000000,180.000000*
21,1,0.075590,0.129920,-0.000000,-0.000000,180.000000*
1,1,0.018900,-0.037800,0.055510*
1,1,0.018900,0.037800,0.055510*
1,1,0.018900,0.037800,-0.055510*
1,1,0.018900,-0.037800,-0.055510*
%
%AMM130*
21,1,0.074800,0.083460,-0.000000,-0.000000,180.000000*
21,1,0.059840,0.098430,-0.000000,-0.000000,180.000000*
1,1,0.014960,-0.029920,0.041730*
1,1,0.014960,0.029920,0.041730*
1,1,0.014960,0.029920,-0.041730*
1,1,0.014960,-0.029920,-0.041730*
%
%AMM131*
21,1,0.078740,0.053540,-0.000000,-0.000000,0.000000*
21,1,0.065350,0.066930,-0.000000,-0.000000,0.000000*
1,1,0.013390,0.032680,-0.026770*
1,1,0.013390,-0.032680,-0.026770*
1,1,0.013390,-0.032680,0.026770*
1,1,0.013390,0.032680,0.026770*
%
%AMM132*
21,1,0.035430,0.030320,-0.000000,-0.000000,270.000000*
21,1,0.028350,0.037400,-0.000000,-0.000000,270.000000*
1,1,0.007090,-0.015160,-0.014170*
1,1,0.007090,-0.015160,0.014170*
1,1,0.007090,0.015160,0.014170*
1,1,0.007090,0.015160,-0.014170*
%
%AMM133*
21,1,0.021650,0.052760,-0.000000,-0.000000,90.000000*
21,1,0.017320,0.057090,-0.000000,-0.000000,90.000000*
1,1,0.004330,0.026380,0.008660*
1,1,0.004330,0.026380,-0.008660*
1,1,0.004330,-0.026380,-0.008660*
1,1,0.004330,-0.026380,0.008660*
%
%AMM134*
21,1,0.035830,0.026770,-0.000000,-0.000000,180.000000*
21,1,0.029130,0.033470,-0.000000,-0.000000,180.000000*
1,1,0.006690,-0.014570,0.013390*
1,1,0.006690,0.014570,0.013390*
1,1,0.006690,0.014570,-0.013390*
1,1,0.006690,-0.014570,-0.013390*
%
%AMM135*
21,1,0.070870,0.036220,-0.000000,-0.000000,270.000000*
21,1,0.061810,0.045280,-0.000000,-0.000000,270.000000*
1,1,0.009060,-0.018110,-0.030910*
1,1,0.009060,-0.018110,0.030910*
1,1,0.009060,0.018110,0.030910*
1,1,0.009060,0.018110,-0.030910*
%
%AMM136*
21,1,0.033470,0.026770,-0.000000,-0.000000,180.000000*
21,1,0.026770,0.033470,-0.000000,-0.000000,180.000000*
1,1,0.006690,-0.013390,0.013390*
1,1,0.006690,0.013390,0.013390*
1,1,0.006690,0.013390,-0.013390*
1,1,0.006690,-0.013390,-0.013390*
%
%AMM137*
21,1,0.015750,0.016540,-0.000000,-0.000000,90.000000*
21,1,0.012600,0.019680,-0.000000,-0.000000,90.000000*
1,1,0.003150,0.008270,0.006300*
1,1,0.003150,0.008270,-0.006300*
1,1,0.003150,-0.008270,-0.006300*
1,1,0.003150,-0.008270,0.006300*
%
%AMM138*
21,1,0.023620,0.018900,-0.000000,-0.000000,270.000000*
21,1,0.018900,0.023620,-0.000000,-0.000000,270.000000*
1,1,0.004720,-0.009450,-0.009450*
1,1,0.004720,-0.009450,0.009450*
1,1,0.004720,0.009450,0.009450*
1,1,0.004720,0.009450,-0.009450*
%
%AMM139*
21,1,0.019680,0.019680,-0.000000,-0.000000,180.000000*
21,1,0.015750,0.023620,-0.000000,-0.000000,180.000000*
1,1,0.003940,-0.007870,0.009840*
1,1,0.003940,0.007870,0.009840*
1,1,0.003940,0.007870,-0.009840*
1,1,0.003940,-0.007870,-0.009840*
%
%AMM140*
21,1,0.019680,0.019680,-0.000000,-0.000000,90.000000*
21,1,0.015750,0.023620,-0.000000,-0.000000,90.000000*
1,1,0.003940,0.009840,0.007870*
1,1,0.003940,0.009840,-0.007870*
1,1,0.003940,-0.009840,-0.007870*
1,1,0.003940,-0.009840,0.007870*
%
%AMM219*
21,1,0.025590,0.026380,-0.000000,-0.000000,90.000000*
21,1,0.020470,0.031500,-0.000000,-0.000000,90.000000*
1,1,0.005120,0.013190,0.010240*
1,1,0.005120,0.013190,-0.010240*
1,1,0.005120,-0.013190,-0.010240*
1,1,0.005120,-0.013190,0.010240*
%
%AMM220*
21,1,0.017720,0.027950,-0.000000,-0.000000,90.000000*
21,1,0.014170,0.031500,-0.000000,-0.000000,90.000000*
1,1,0.003540,0.013980,0.007090*
1,1,0.003540,0.013980,-0.007090*
1,1,0.003540,-0.013980,-0.007090*
1,1,0.003540,-0.013980,0.007090*
%
%AMM221*
21,1,0.012600,0.028980,-0.000000,-0.000000,270.000000*
21,1,0.010080,0.031500,-0.000000,-0.000000,270.000000*
1,1,0.002520,-0.014490,-0.005040*
1,1,0.002520,-0.014490,0.005040*
1,1,0.002520,0.014490,0.005040*
1,1,0.002520,0.014490,-0.005040*
%
%AMM222*
21,1,0.023620,0.030710,-0.000000,-0.000000,0.000000*
21,1,0.018900,0.035430,-0.000000,-0.000000,0.000000*
1,1,0.004720,0.009450,-0.015350*
1,1,0.004720,-0.009450,-0.015350*
1,1,0.004720,-0.009450,0.015350*
1,1,0.004720,0.009450,0.015350*
%
%AMM223*
21,1,0.027560,0.018900,-0.000000,-0.000000,270.000000*
21,1,0.022840,0.023620,-0.000000,-0.000000,270.000000*
1,1,0.004720,-0.009450,-0.011420*
1,1,0.004720,-0.009450,0.011420*
1,1,0.004720,0.009450,0.011420*
1,1,0.004720,0.009450,-0.011420*
%
%AMM224*
21,1,0.031500,0.072440,-0.000000,-0.000000,270.000000*
21,1,0.025200,0.078740,-0.000000,-0.000000,270.000000*
1,1,0.006300,-0.036220,-0.012600*
1,1,0.006300,-0.036220,0.012600*
1,1,0.006300,0.036220,0.012600*
1,1,0.006300,0.036220,-0.012600*
%
%AMM225*
21,1,0.027560,0.018900,-0.000000,-0.000000,0.000000*
21,1,0.022840,0.023620,-0.000000,-0.000000,0.000000*
1,1,0.004720,0.011420,-0.009450*
1,1,0.004720,-0.011420,-0.009450*
1,1,0.004720,-0.011420,0.009450*
1,1,0.004720,0.011420,0.009450*
%
%AMM226*
21,1,0.023620,0.030710,-0.000000,-0.000000,90.000000*
21,1,0.018900,0.035430,-0.000000,-0.000000,90.000000*
1,1,0.004720,0.015350,0.009450*
1,1,0.004720,0.015350,-0.009450*
1,1,0.004720,-0.015350,-0.009450*
1,1,0.004720,-0.015350,0.009450*
%
%AMM227*
21,1,0.035430,0.030320,-0.000000,-0.000000,90.000000*
21,1,0.028350,0.037400,-0.000000,-0.000000,90.000000*
1,1,0.007090,0.015160,0.014170*
1,1,0.007090,0.015160,-0.014170*
1,1,0.007090,-0.015160,-0.014170*
1,1,0.007090,-0.015160,0.014170*
%
%AMM228*
21,1,0.043310,0.075980,-0.000000,-0.000000,180.000000*
21,1,0.034650,0.084650,-0.000000,-0.000000,180.000000*
1,1,0.008660,-0.017320,0.037990*
1,1,0.008660,0.017320,0.037990*
1,1,0.008660,0.017320,-0.037990*
1,1,0.008660,-0.017320,-0.037990*
%
%AMM229*
21,1,0.039370,0.035430,-0.000000,-0.000000,180.000000*
21,1,0.031500,0.043310,-0.000000,-0.000000,180.000000*
1,1,0.007870,-0.015750,0.017720*
1,1,0.007870,0.015750,0.017720*
1,1,0.007870,0.015750,-0.017720*
1,1,0.007870,-0.015750,-0.017720*
%
%AMM230*
21,1,0.027560,0.030710,-0.000000,-0.000000,180.000000*
21,1,0.022050,0.036220,-0.000000,-0.000000,180.000000*
1,1,0.005510,-0.011020,0.015350*
1,1,0.005510,0.011020,0.015350*
1,1,0.005510,0.011020,-0.015350*
1,1,0.005510,-0.011020,-0.015350*
%
%AMM231*
21,1,0.031500,0.072440,-0.000000,-0.000000,180.000000*
21,1,0.025200,0.078740,-0.000000,-0.000000,180.000000*
1,1,0.006300,-0.012600,0.036220*
1,1,0.006300,0.012600,0.036220*
1,1,0.006300,0.012600,-0.036220*
1,1,0.006300,-0.012600,-0.036220*
%
%AMM232*
21,1,0.137800,0.067720,-0.000000,-0.000000,180.000000*
21,1,0.120870,0.084650,-0.000000,-0.000000,180.000000*
1,1,0.016930,-0.060430,0.033860*
1,1,0.016930,0.060430,0.033860*
1,1,0.016930,0.060430,-0.033860*
1,1,0.016930,-0.060430,-0.033860*
%
%AMM233*
21,1,0.043310,0.075990,-0.000000,-0.000000,180.000000*
21,1,0.034650,0.084650,-0.000000,-0.000000,180.000000*
1,1,0.008660,-0.017320,0.037990*
1,1,0.008660,0.017320,0.037990*
1,1,0.008660,0.017320,-0.037990*
1,1,0.008660,-0.017320,-0.037990*
%
%AMM234*
21,1,0.086610,0.073230,-0.000000,-0.000000,270.000000*
21,1,0.069290,0.090550,-0.000000,-0.000000,270.000000*
1,1,0.017320,-0.036610,-0.034650*
1,1,0.017320,-0.036610,0.034650*
1,1,0.017320,0.036610,0.034650*
1,1,0.017320,0.036610,-0.034650*
%
%ADD12R,0.07874X0.05906*%
%ADD13R,0.07874X0.14961*%
%ADD134R,0.03543X0.03150*%
%ADD135R,0.04724X0.08661*%
%ADD138R,0.03150X0.03543*%
%ADD143R,0.10827X0.12008*%
%ADD150O,0.04724X0.00866*%
%ADD151O,0.00866X0.04724*%
%ADD152O,0.04331X0.01181*%
%ADD155R,0.01378X0.00984*%
%ADD156R,0.00984X0.01378*%
%ADD161O,0.08661X0.02362*%
%ADD279M128*%
%ADD280M129*%
%ADD281M130*%
%ADD282M131*%
%ADD283M132*%
%ADD284M133*%
%ADD285M134*%
%ADD286M135*%
%ADD287M136*%
%ADD288M137*%
%ADD289M138*%
%ADD290M139*%
%ADD291M140*%
%ADD315R,0.08661X0.04724*%
%ADD319R,0.12008X0.10827*%
%ADD397M219*%
%ADD398M220*%
%ADD399M221*%
%ADD400M222*%
%ADD401M223*%
%ADD402M224*%
%ADD403M225*%
%ADD404M226*%
%ADD405M227*%
%ADD406M228*%
%ADD407M229*%
%ADD408M230*%
%ADD409M231*%
%ADD410M232*%
%ADD411M233*%
%ADD412M234*%
%ADD44R,0.00787X0.14567*%
%ADD45R,0.00787X0.01575*%
%ADD46R,0.00787X0.06299*%
%ADD47R,0.00787X0.38189*%
%ADD48R,0.00787X0.09055*%
%ADD49R,0.05512X0.00787*%
%ADD50R,0.25197X0.00787*%
%ADD51R,0.06693X0.00787*%
%ADD52R,0.12992X0.00787*%
%ADD53R,0.00787X0.27559*%
%ADD54R,0.00787X0.12992*%
%ADD55R,0.00787X0.24803*%
%ADD56R,0.05118X0.03937*%
%ADD64C,0.03150*%
X0000000Y0000000D02*
%LPD*%
G01*
D12*
X0499902Y0194532D03*
X0499902Y0203587D03*
X0499902Y0212642D03*
D13*
X0475099Y0203587D03*
G36*
G01*
X0590083Y0196504D02*
X0590083Y0193433D01*
G75*
G02*
X0589807Y0193158I-000276J0000000D01*
G01*
X0587603Y0193158D01*
G75*
G02*
X0587327Y0193433I0000000J0000276D01*
G01*
X0587327Y0196504D01*
G75*
G02*
X0587603Y0196780I0000276J0000000D01*
G01*
X0589807Y0196780D01*
G75*
G02*
X0590083Y0196504I0000000J-000276D01*
G01*
G37*
G36*
G01*
X0583784Y0196504D02*
X0583784Y0193433D01*
G75*
G02*
X0583508Y0193158I-000276J0000000D01*
G01*
X0581303Y0193158D01*
G75*
G02*
X0581028Y0193433I0000000J0000276D01*
G01*
X0581028Y0196504D01*
G75*
G02*
X0581303Y0196780I0000276J0000000D01*
G01*
X0583508Y0196780D01*
G75*
G02*
X0583784Y0196504I0000000J-000276D01*
G01*
G37*
G36*
G01*
X0564953Y0189787D02*
X0564953Y0192858D01*
G75*
G02*
X0565229Y0193134I0000276J0000000D01*
G01*
X0567433Y0193134D01*
G75*
G02*
X0567709Y0192858I0000000J-000276D01*
G01*
X0567709Y0189787D01*
G75*
G02*
X0567433Y0189512I-000276J0000000D01*
G01*
X0565229Y0189512D01*
G75*
G02*
X0564953Y0189787I0000000J0000276D01*
G01*
G37*
G36*
G01*
X0571252Y0189787D02*
X0571252Y0192858D01*
G75*
G02*
X0571528Y0193134I0000276J0000000D01*
G01*
X0573733Y0193134D01*
G75*
G02*
X0574008Y0192858I0000000J-000276D01*
G01*
X0574008Y0189787D01*
G75*
G02*
X0573733Y0189512I-000276J0000000D01*
G01*
X0571528Y0189512D01*
G75*
G02*
X0571252Y0189787I0000000J0000276D01*
G01*
G37*
G36*
G01*
X0542425Y0165791D02*
X0539354Y0165791D01*
G75*
G02*
X0539079Y0166067I0000000J0000276D01*
G01*
X0539079Y0168272D01*
G75*
G02*
X0539354Y0168547I0000276J0000000D01*
G01*
X0542425Y0168547D01*
G75*
G02*
X0542701Y0168272I0000000J-000276D01*
G01*
X0542701Y0166067D01*
G75*
G02*
X0542425Y0165791I-000276J0000000D01*
G01*
G37*
G36*
G01*
X0542425Y0172091D02*
X0539354Y0172091D01*
G75*
G02*
X0539079Y0172366I0000000J0000276D01*
G01*
X0539079Y0174571D01*
G75*
G02*
X0539354Y0174847I0000276J0000000D01*
G01*
X0542425Y0174847D01*
G75*
G02*
X0542701Y0174571I0000000J-000276D01*
G01*
X0542701Y0172366D01*
G75*
G02*
X0542425Y0172091I-000276J0000000D01*
G01*
G37*
D12*
X0493111Y0118221D03*
X0493111Y0127276D03*
X0493111Y0136331D03*
D13*
X0468307Y0127276D03*
G36*
G01*
X0132176Y0165978D02*
X0132176Y0167435D01*
G75*
G02*
X0132708Y0167967I0000531J0000000D01*
G01*
X0133771Y0167967D01*
G75*
G02*
X0134302Y0167435I0000000J-000531D01*
G01*
X0134302Y0165978D01*
G75*
G02*
X0133771Y0165447I-000531J0000000D01*
G01*
X0132708Y0165447D01*
G75*
G02*
X0132176Y0165978I0000000J0000531D01*
G01*
G37*
G36*
G01*
X0136192Y0165978D02*
X0136192Y0167435D01*
G75*
G02*
X0136724Y0167967I0000531J0000000D01*
G01*
X0137787Y0167967D01*
G75*
G02*
X0138318Y0167435I0000000J-000531D01*
G01*
X0138318Y0165978D01*
G75*
G02*
X0137787Y0165447I-000531J0000000D01*
G01*
X0136724Y0165447D01*
G75*
G02*
X0136192Y0165978I0000000J0000531D01*
G01*
G37*
G36*
G01*
X0100098Y0132459D02*
X0101436Y0132459D01*
G75*
G02*
X0101988Y0131908I0000000J-000551D01*
G01*
X0101988Y0130805D01*
G75*
G02*
X0101436Y0130254I-000551J0000000D01*
G01*
X0100098Y0130254D01*
G75*
G02*
X0099547Y0130805I0000000J0000551D01*
G01*
X0099547Y0131908D01*
G75*
G02*
X0100098Y0132459I0000551J0000000D01*
G01*
G37*
G36*
G01*
X0100098Y0128679D02*
X0101436Y0128679D01*
G75*
G02*
X0101988Y0128128I0000000J-000551D01*
G01*
X0101988Y0127026D01*
G75*
G02*
X0101436Y0126475I-000551J0000000D01*
G01*
X0100098Y0126475D01*
G75*
G02*
X0099547Y0127026I0000000J0000551D01*
G01*
X0099547Y0128128D01*
G75*
G02*
X0100098Y0128679I0000551J0000000D01*
G01*
G37*
G36*
G01*
X0452379Y0163935D02*
X0449992Y0162557D01*
G75*
G02*
X0448648Y0162917I-000492J0000852D01*
G01*
X0445301Y0168713D01*
G75*
G02*
X0445661Y0170058I0000852J0000492D01*
G01*
X0448048Y0171436D01*
G75*
G02*
X0449393Y0171075I0000492J-000852D01*
G01*
X0452739Y0165279D01*
G75*
G02*
X0452379Y0163935I-000852J-000492D01*
G01*
G37*
G36*
G01*
X0459727Y0187270D02*
X0452055Y0182841D01*
G75*
G02*
X0450711Y0183202I-000492J0000852D01*
G01*
X0445691Y0191896D01*
G75*
G02*
X0446051Y0193240I0000852J0000492D01*
G01*
X0453723Y0197670D01*
G75*
G02*
X0455067Y0197309I0000492J-000852D01*
G01*
X0460087Y0188615D01*
G75*
G02*
X0459727Y0187270I-000852J-000492D01*
G01*
G37*
G36*
G01*
X0449328Y0181266D02*
X0441656Y0176837D01*
G75*
G02*
X0440312Y0177198I-000492J0000852D01*
G01*
X0435292Y0185892D01*
G75*
G02*
X0435652Y0187236I0000852J0000492D01*
G01*
X0443324Y0191666D01*
G75*
G02*
X0444668Y0191305I0000492J-000852D01*
G01*
X0449688Y0182611D01*
G75*
G02*
X0449328Y0181266I-000852J-000492D01*
G01*
G37*
G36*
G01*
X0453132Y0198692D02*
X0445461Y0194263D01*
G75*
G02*
X0444116Y0194624I-000492J0000852D01*
G01*
X0439097Y0203318D01*
G75*
G02*
X0439457Y0204662I0000852J0000492D01*
G01*
X0447128Y0209092D01*
G75*
G02*
X0448473Y0208731I0000492J-000852D01*
G01*
X0453492Y0200037D01*
G75*
G02*
X0453132Y0198692I-000852J-000492D01*
G01*
G37*
G36*
G01*
X0442733Y0192688D02*
X0435062Y0188259D01*
G75*
G02*
X0433717Y0188620I-000492J0000852D01*
G01*
X0428697Y0197314D01*
G75*
G02*
X0429058Y0198658I0000852J0000492D01*
G01*
X0436729Y0203088D01*
G75*
G02*
X0438074Y0202727I0000492J-000852D01*
G01*
X0443093Y0194033D01*
G75*
G02*
X0442733Y0192688I-000852J-000492D01*
G01*
G37*
G36*
G01*
X0467926Y0172911D02*
X0465540Y0171533D01*
G75*
G02*
X0464195Y0171893I-000492J0000852D01*
G01*
X0460849Y0177690D01*
G75*
G02*
X0461209Y0179034I0000852J0000492D01*
G01*
X0463596Y0180412D01*
G75*
G02*
X0464940Y0180052I0000492J-000852D01*
G01*
X0468287Y0174255D01*
G75*
G02*
X0467926Y0172911I-000852J-000492D01*
G01*
G37*
G36*
G01*
X0045018Y0207895D02*
X0045018Y0206438D01*
G75*
G02*
X0044487Y0205907I-000531J0000000D01*
G01*
X0043424Y0205907D01*
G75*
G02*
X0042892Y0206438I0000000J0000531D01*
G01*
X0042892Y0207895D01*
G75*
G02*
X0043424Y0208427I0000531J0000000D01*
G01*
X0044487Y0208427D01*
G75*
G02*
X0045018Y0207895I0000000J-000531D01*
G01*
G37*
G36*
G01*
X0041002Y0207895D02*
X0041002Y0206438D01*
G75*
G02*
X0040471Y0205907I-000531J0000000D01*
G01*
X0039408Y0205907D01*
G75*
G02*
X0038876Y0206438I0000000J0000531D01*
G01*
X0038876Y0207895D01*
G75*
G02*
X0039408Y0208427I0000531J0000000D01*
G01*
X0040471Y0208427D01*
G75*
G02*
X0041002Y0207895I0000000J-000531D01*
G01*
G37*
G36*
G01*
X0049839Y0212218D02*
X0051296Y0212218D01*
G75*
G02*
X0051827Y0211686I0000000J-000531D01*
G01*
X0051827Y0210623D01*
G75*
G02*
X0051296Y0210092I-000531J0000000D01*
G01*
X0049839Y0210092D01*
G75*
G02*
X0049307Y0210623I0000000J0000531D01*
G01*
X0049307Y0211686D01*
G75*
G02*
X0049839Y0212218I0000531J0000000D01*
G01*
G37*
G36*
G01*
X0049839Y0208202D02*
X0051296Y0208202D01*
G75*
G02*
X0051827Y0207670I0000000J-000531D01*
G01*
X0051827Y0206607D01*
G75*
G02*
X0051296Y0206076I-000531J0000000D01*
G01*
X0049839Y0206076D01*
G75*
G02*
X0049307Y0206607I0000000J0000531D01*
G01*
X0049307Y0207670D01*
G75*
G02*
X0049839Y0208202I0000531J0000000D01*
G01*
G37*
G36*
G01*
X0381390Y0164486D02*
X0379004Y0163108D01*
G75*
G02*
X0377659Y0163468I-000492J0000852D01*
G01*
X0374313Y0169264D01*
G75*
G02*
X0374673Y0170609I0000852J0000492D01*
G01*
X0377060Y0171987D01*
G75*
G02*
X0378404Y0171627I0000492J-000852D01*
G01*
X0381750Y0165830D01*
G75*
G02*
X0381390Y0164486I-000852J-000492D01*
G01*
G37*
G36*
G01*
X0388738Y0187822D02*
X0381067Y0183392D01*
G75*
G02*
X0379722Y0183753I-000492J0000852D01*
G01*
X0374703Y0192447D01*
G75*
G02*
X0375063Y0193792I0000852J0000492D01*
G01*
X0382734Y0198221D01*
G75*
G02*
X0384079Y0197860I0000492J-000852D01*
G01*
X0389098Y0189166D01*
G75*
G02*
X0388738Y0187822I-000852J-000492D01*
G01*
G37*
G36*
G01*
X0378339Y0181818D02*
X0370668Y0177389D01*
G75*
G02*
X0369323Y0177749I-000492J0000852D01*
G01*
X0364303Y0186443D01*
G75*
G02*
X0364664Y0187788I0000852J0000492D01*
G01*
X0372335Y0192217D01*
G75*
G02*
X0373680Y0191857I0000492J-000852D01*
G01*
X0378699Y0183162D01*
G75*
G02*
X0378339Y0181818I-000852J-000492D01*
G01*
G37*
G36*
G01*
X0382144Y0199244D02*
X0374472Y0194814D01*
G75*
G02*
X0373128Y0195175I-000492J0000852D01*
G01*
X0368108Y0203869D01*
G75*
G02*
X0368468Y0205214I0000852J0000492D01*
G01*
X0376140Y0209643D01*
G75*
G02*
X0377484Y0209282I0000492J-000852D01*
G01*
X0382504Y0200588D01*
G75*
G02*
X0382144Y0199244I-000852J-000492D01*
G01*
G37*
G36*
G01*
X0371745Y0193240D02*
X0364073Y0188811D01*
G75*
G02*
X0362729Y0189171I-000492J0000852D01*
G01*
X0357709Y0197865D01*
G75*
G02*
X0358069Y0199210I0000852J0000492D01*
G01*
X0365741Y0203639D01*
G75*
G02*
X0367085Y0203279I0000492J-000852D01*
G01*
X0372105Y0194584D01*
G75*
G02*
X0371745Y0193240I-000852J-000492D01*
G01*
G37*
G36*
G01*
X0396938Y0173462D02*
X0394551Y0172084D01*
G75*
G02*
X0393207Y0172444I-000492J0000852D01*
G01*
X0389860Y0178241D01*
G75*
G02*
X0390220Y0179585I0000852J0000492D01*
G01*
X0392607Y0180963D01*
G75*
G02*
X0393952Y0180603I0000492J-000852D01*
G01*
X0397298Y0174807D01*
G75*
G02*
X0396938Y0173462I-000852J-000492D01*
G01*
G37*
G36*
G01*
X0141806Y0150686D02*
X0140349Y0150686D01*
G75*
G02*
X0139817Y0151217I0000000J0000531D01*
G01*
X0139817Y0152280D01*
G75*
G02*
X0140349Y0152812I0000531J0000000D01*
G01*
X0141806Y0152812D01*
G75*
G02*
X0142337Y0152280I0000000J-000531D01*
G01*
X0142337Y0151217D01*
G75*
G02*
X0141806Y0150686I-000531J0000000D01*
G01*
G37*
G36*
G01*
X0141806Y0154702D02*
X0140349Y0154702D01*
G75*
G02*
X0139817Y0155233I0000000J0000531D01*
G01*
X0139817Y0156296D01*
G75*
G02*
X0140349Y0156828I0000531J0000000D01*
G01*
X0141806Y0156828D01*
G75*
G02*
X0142337Y0156296I0000000J-000531D01*
G01*
X0142337Y0155233D01*
G75*
G02*
X0141806Y0154702I-000531J0000000D01*
G01*
G37*
G36*
G01*
X0092366Y0135558D02*
X0092366Y0137015D01*
G75*
G02*
X0092898Y0137547I0000531J0000000D01*
G01*
X0093961Y0137547D01*
G75*
G02*
X0094492Y0137015I0000000J-000531D01*
G01*
X0094492Y0135558D01*
G75*
G02*
X0093961Y0135027I-000531J0000000D01*
G01*
X0092898Y0135027D01*
G75*
G02*
X0092366Y0135558I0000000J0000531D01*
G01*
G37*
G36*
G01*
X0096382Y0135558D02*
X0096382Y0137015D01*
G75*
G02*
X0096914Y0137547I0000531J0000000D01*
G01*
X0097977Y0137547D01*
G75*
G02*
X0098508Y0137015I0000000J-000531D01*
G01*
X0098508Y0135558D01*
G75*
G02*
X0097977Y0135027I-000531J0000000D01*
G01*
X0096914Y0135027D01*
G75*
G02*
X0096382Y0135558I0000000J0000531D01*
G01*
G37*
G36*
G01*
X0035109Y0192906D02*
X0035109Y0191567D01*
G75*
G02*
X0034558Y0191016I-000551J0000000D01*
G01*
X0033456Y0191016D01*
G75*
G02*
X0032905Y0191567I0000000J0000551D01*
G01*
X0032905Y0192906D01*
G75*
G02*
X0033456Y0193457I0000551J0000000D01*
G01*
X0034558Y0193457D01*
G75*
G02*
X0035109Y0192906I0000000J-000551D01*
G01*
G37*
G36*
G01*
X0031330Y0192906D02*
X0031330Y0191567D01*
G75*
G02*
X0030779Y0191016I-000551J0000000D01*
G01*
X0029676Y0191016D01*
G75*
G02*
X0029125Y0191567I0000000J0000551D01*
G01*
X0029125Y0192906D01*
G75*
G02*
X0029676Y0193457I0000551J0000000D01*
G01*
X0030779Y0193457D01*
G75*
G02*
X0031330Y0192906I0000000J-000551D01*
G01*
G37*
G36*
G01*
X0070966Y0166385D02*
X0069628Y0166385D01*
G75*
G02*
X0069077Y0166936I0000000J0000551D01*
G01*
X0069077Y0168038D01*
G75*
G02*
X0069628Y0168589I0000551J0000000D01*
G01*
X0070966Y0168589D01*
G75*
G02*
X0071518Y0168038I0000000J-000551D01*
G01*
X0071518Y0166936D01*
G75*
G02*
X0070966Y0166385I-000551J0000000D01*
G01*
G37*
G36*
G01*
X0070966Y0170164D02*
X0069628Y0170164D01*
G75*
G02*
X0069077Y0170715I0000000J0000551D01*
G01*
X0069077Y0171818D01*
G75*
G02*
X0069628Y0172369I0000551J0000000D01*
G01*
X0070966Y0172369D01*
G75*
G02*
X0071518Y0171818I0000000J-000551D01*
G01*
X0071518Y0170715D01*
G75*
G02*
X0070966Y0170164I-000551J0000000D01*
G01*
G37*
G36*
G01*
X0078496Y0187735D02*
X0077158Y0187735D01*
G75*
G02*
X0076607Y0188286I0000000J0000551D01*
G01*
X0076607Y0189388D01*
G75*
G02*
X0077158Y0189939I0000551J0000000D01*
G01*
X0078496Y0189939D01*
G75*
G02*
X0079048Y0189388I0000000J-000551D01*
G01*
X0079048Y0188286D01*
G75*
G02*
X0078496Y0187735I-000551J0000000D01*
G01*
G37*
G36*
G01*
X0078496Y0191514D02*
X0077158Y0191514D01*
G75*
G02*
X0076607Y0192065I0000000J0000551D01*
G01*
X0076607Y0193168D01*
G75*
G02*
X0077158Y0193719I0000551J0000000D01*
G01*
X0078496Y0193719D01*
G75*
G02*
X0079048Y0193168I0000000J-000551D01*
G01*
X0079048Y0192065D01*
G75*
G02*
X0078496Y0191514I-000551J0000000D01*
G01*
G37*
G36*
G01*
X0551965Y0132284D02*
X0551965Y0129213D01*
G75*
G02*
X0551689Y0128937I-000276J0000000D01*
G01*
X0549485Y0128937D01*
G75*
G02*
X0549209Y0129213I0000000J0000276D01*
G01*
X0549209Y0132284D01*
G75*
G02*
X0549485Y0132559I0000276J0000000D01*
G01*
X0551689Y0132559D01*
G75*
G02*
X0551965Y0132284I0000000J-000276D01*
G01*
G37*
G36*
G01*
X0545666Y0132284D02*
X0545666Y0129213D01*
G75*
G02*
X0545390Y0128937I-000276J0000000D01*
G01*
X0543185Y0128937D01*
G75*
G02*
X0542910Y0129213I0000000J0000276D01*
G01*
X0542910Y0132284D01*
G75*
G02*
X0543185Y0132559I0000276J0000000D01*
G01*
X0545390Y0132559D01*
G75*
G02*
X0545666Y0132284I0000000J-000276D01*
G01*
G37*
G36*
G01*
X0115492Y0227917D02*
X0115492Y0224847D01*
G75*
G02*
X0115217Y0224571I-000276J0000000D01*
G01*
X0113012Y0224571D01*
G75*
G02*
X0112737Y0224847I0000000J0000276D01*
G01*
X0112737Y0227917D01*
G75*
G02*
X0113012Y0228193I0000276J0000000D01*
G01*
X0115217Y0228193D01*
G75*
G02*
X0115492Y0227917I0000000J-000276D01*
G01*
G37*
G36*
G01*
X0109193Y0227917D02*
X0109193Y0224847D01*
G75*
G02*
X0108918Y0224571I-000276J0000000D01*
G01*
X0106713Y0224571D01*
G75*
G02*
X0106437Y0224847I0000000J0000276D01*
G01*
X0106437Y0227917D01*
G75*
G02*
X0106713Y0228193I0000276J0000000D01*
G01*
X0108918Y0228193D01*
G75*
G02*
X0109193Y0227917I0000000J-000276D01*
G01*
G37*
D12*
X0544666Y0138311D03*
X0544666Y0147366D03*
X0544666Y0156421D03*
D13*
X0519863Y0147366D03*
G36*
G01*
X0130349Y0137462D02*
X0130349Y0135690D01*
G75*
G02*
X0130054Y0135395I-000295J0000000D01*
G01*
X0123164Y0135395D01*
G75*
G02*
X0122869Y0135690I0000000J0000295D01*
G01*
X0122869Y0137462D01*
G75*
G02*
X0123164Y0137757I0000295J0000000D01*
G01*
X0130054Y0137757D01*
G75*
G02*
X0130349Y0137462I0000000J-000295D01*
G01*
G37*
G36*
G01*
X0130349Y0142462D02*
X0130349Y0140690D01*
G75*
G02*
X0130054Y0140395I-000295J0000000D01*
G01*
X0123164Y0140395D01*
G75*
G02*
X0122869Y0140690I0000000J0000295D01*
G01*
X0122869Y0142462D01*
G75*
G02*
X0123164Y0142757I0000295J0000000D01*
G01*
X0130054Y0142757D01*
G75*
G02*
X0130349Y0142462I0000000J-000295D01*
G01*
G37*
G36*
G01*
X0130349Y0147462D02*
X0130349Y0145690D01*
G75*
G02*
X0130054Y0145395I-000295J0000000D01*
G01*
X0123164Y0145395D01*
G75*
G02*
X0122869Y0145690I0000000J0000295D01*
G01*
X0122869Y0147462D01*
G75*
G02*
X0123164Y0147757I0000295J0000000D01*
G01*
X0130054Y0147757D01*
G75*
G02*
X0130349Y0147462I0000000J-000295D01*
G01*
G37*
G36*
G01*
X0130349Y0152462D02*
X0130349Y0150690D01*
G75*
G02*
X0130054Y0150395I-000295J0000000D01*
G01*
X0123164Y0150395D01*
G75*
G02*
X0122869Y0150690I0000000J0000295D01*
G01*
X0122869Y0152462D01*
G75*
G02*
X0123164Y0152757I0000295J0000000D01*
G01*
X0130054Y0152757D01*
G75*
G02*
X0130349Y0152462I0000000J-000295D01*
G01*
G37*
G36*
G01*
X0130349Y0157462D02*
X0130349Y0155690D01*
G75*
G02*
X0130054Y0155395I-000295J0000000D01*
G01*
X0123164Y0155395D01*
G75*
G02*
X0122869Y0155690I0000000J0000295D01*
G01*
X0122869Y0157462D01*
G75*
G02*
X0123164Y0157757I0000295J0000000D01*
G01*
X0130054Y0157757D01*
G75*
G02*
X0130349Y0157462I0000000J-000295D01*
G01*
G37*
G36*
G01*
X0130349Y0162462D02*
X0130349Y0160690D01*
G75*
G02*
X0130054Y0160395I-000295J0000000D01*
G01*
X0123164Y0160395D01*
G75*
G02*
X0122869Y0160690I0000000J0000295D01*
G01*
X0122869Y0162462D01*
G75*
G02*
X0123164Y0162757I0000295J0000000D01*
G01*
X0130054Y0162757D01*
G75*
G02*
X0130349Y0162462I0000000J-000295D01*
G01*
G37*
G36*
G01*
X0130349Y0167462D02*
X0130349Y0165690D01*
G75*
G02*
X0130054Y0165395I-000295J0000000D01*
G01*
X0123164Y0165395D01*
G75*
G02*
X0122869Y0165690I0000000J0000295D01*
G01*
X0122869Y0167462D01*
G75*
G02*
X0123164Y0167757I0000295J0000000D01*
G01*
X0130054Y0167757D01*
G75*
G02*
X0130349Y0167462I0000000J-000295D01*
G01*
G37*
G36*
G01*
X0111018Y0167462D02*
X0111018Y0165690D01*
G75*
G02*
X0110723Y0165395I-000295J0000000D01*
G01*
X0103833Y0165395D01*
G75*
G02*
X0103538Y0165690I0000000J0000295D01*
G01*
X0103538Y0167462D01*
G75*
G02*
X0103833Y0167757I0000295J0000000D01*
G01*
X0110723Y0167757D01*
G75*
G02*
X0111018Y0167462I0000000J-000295D01*
G01*
G37*
G36*
G01*
X0111018Y0162462D02*
X0111018Y0160690D01*
G75*
G02*
X0110723Y0160395I-000295J0000000D01*
G01*
X0103833Y0160395D01*
G75*
G02*
X0103538Y0160690I0000000J0000295D01*
G01*
X0103538Y0162462D01*
G75*
G02*
X0103833Y0162757I0000295J0000000D01*
G01*
X0110723Y0162757D01*
G75*
G02*
X0111018Y0162462I0000000J-000295D01*
G01*
G37*
G36*
G01*
X0111018Y0157462D02*
X0111018Y0155690D01*
G75*
G02*
X0110723Y0155395I-000295J0000000D01*
G01*
X0103833Y0155395D01*
G75*
G02*
X0103538Y0155690I0000000J0000295D01*
G01*
X0103538Y0157462D01*
G75*
G02*
X0103833Y0157757I0000295J0000000D01*
G01*
X0110723Y0157757D01*
G75*
G02*
X0111018Y0157462I0000000J-000295D01*
G01*
G37*
G36*
G01*
X0111018Y0152462D02*
X0111018Y0150690D01*
G75*
G02*
X0110723Y0150395I-000295J0000000D01*
G01*
X0103833Y0150395D01*
G75*
G02*
X0103538Y0150690I0000000J0000295D01*
G01*
X0103538Y0152462D01*
G75*
G02*
X0103833Y0152757I0000295J0000000D01*
G01*
X0110723Y0152757D01*
G75*
G02*
X0111018Y0152462I0000000J-000295D01*
G01*
G37*
G36*
G01*
X0111018Y0147462D02*
X0111018Y0145690D01*
G75*
G02*
X0110723Y0145395I-000295J0000000D01*
G01*
X0103833Y0145395D01*
G75*
G02*
X0103538Y0145690I0000000J0000295D01*
G01*
X0103538Y0147462D01*
G75*
G02*
X0103833Y0147757I0000295J0000000D01*
G01*
X0110723Y0147757D01*
G75*
G02*
X0111018Y0147462I0000000J-000295D01*
G01*
G37*
G36*
G01*
X0111018Y0142462D02*
X0111018Y0140690D01*
G75*
G02*
X0110723Y0140395I-000295J0000000D01*
G01*
X0103833Y0140395D01*
G75*
G02*
X0103538Y0140690I0000000J0000295D01*
G01*
X0103538Y0142462D01*
G75*
G02*
X0103833Y0142757I0000295J0000000D01*
G01*
X0110723Y0142757D01*
G75*
G02*
X0111018Y0142462I0000000J-000295D01*
G01*
G37*
G36*
G01*
X0111018Y0137462D02*
X0111018Y0135690D01*
G75*
G02*
X0110723Y0135395I-000295J0000000D01*
G01*
X0103833Y0135395D01*
G75*
G02*
X0103538Y0135690I0000000J0000295D01*
G01*
X0103538Y0137462D01*
G75*
G02*
X0103833Y0137757I0000295J0000000D01*
G01*
X0110723Y0137757D01*
G75*
G02*
X0111018Y0137462I0000000J-000295D01*
G01*
G37*
G36*
G01*
X0432351Y0129068D02*
X0429964Y0127690D01*
G75*
G02*
X0428620Y0128051I-000492J0000852D01*
G01*
X0425273Y0133847D01*
G75*
G02*
X0425634Y0135191I0000852J0000492D01*
G01*
X0428020Y0136569D01*
G75*
G02*
X0429365Y0136209I0000492J-000852D01*
G01*
X0432711Y0130413D01*
G75*
G02*
X0432351Y0129068I-000852J-000492D01*
G01*
G37*
G36*
G01*
X0439699Y0152404D02*
X0432028Y0147975D01*
G75*
G02*
X0430683Y0148335I-000492J0000852D01*
G01*
X0425663Y0157030D01*
G75*
G02*
X0426024Y0158374I0000852J0000492D01*
G01*
X0433695Y0162803D01*
G75*
G02*
X0435040Y0162443I0000492J-000852D01*
G01*
X0440059Y0153749D01*
G75*
G02*
X0439699Y0152404I-000852J-000492D01*
G01*
G37*
G36*
G01*
X0429300Y0146400D02*
X0421629Y0141971D01*
G75*
G02*
X0420284Y0142331I-000492J0000852D01*
G01*
X0415264Y0151026D01*
G75*
G02*
X0415625Y0152370I0000852J0000492D01*
G01*
X0423296Y0156799D01*
G75*
G02*
X0424641Y0156439I0000492J-000852D01*
G01*
X0429660Y0147745D01*
G75*
G02*
X0429300Y0146400I-000852J-000492D01*
G01*
G37*
G36*
G01*
X0433105Y0163826D02*
X0425433Y0159397D01*
G75*
G02*
X0424089Y0159757I-000492J0000852D01*
G01*
X0419069Y0168452D01*
G75*
G02*
X0419429Y0169796I0000852J0000492D01*
G01*
X0427101Y0174225D01*
G75*
G02*
X0428445Y0173865I0000492J-000852D01*
G01*
X0433465Y0165171D01*
G75*
G02*
X0433105Y0163826I-000852J-000492D01*
G01*
G37*
G36*
G01*
X0422706Y0157822D02*
X0415034Y0153393D01*
G75*
G02*
X0413690Y0153753I-000492J0000852D01*
G01*
X0408670Y0162448D01*
G75*
G02*
X0409030Y0163792I0000852J0000492D01*
G01*
X0416702Y0168221D01*
G75*
G02*
X0418046Y0167861I0000492J-000852D01*
G01*
X0423066Y0159167D01*
G75*
G02*
X0422706Y0157822I-000852J-000492D01*
G01*
G37*
G36*
G01*
X0447899Y0138045D02*
X0445512Y0136667D01*
G75*
G02*
X0444167Y0137027I-000492J0000852D01*
G01*
X0440821Y0142823D01*
G75*
G02*
X0441181Y0144168I0000852J0000492D01*
G01*
X0443568Y0145546D01*
G75*
G02*
X0444912Y0145186I0000492J-000852D01*
G01*
X0448259Y0139389D01*
G75*
G02*
X0447899Y0138045I-000852J-000492D01*
G01*
G37*
D12*
X0540469Y0181972D03*
X0540469Y0191028D03*
X0540469Y0200083D03*
D13*
X0515666Y0191028D03*
D12*
X0478650Y0181024D03*
X0478650Y0171969D03*
X0478650Y0162913D03*
D13*
X0503453Y0171969D03*
G36*
G01*
X0560496Y0011945D02*
X0557819Y0011945D01*
G75*
G02*
X0557485Y0012280I0000000J0000335D01*
G01*
X0557485Y0014957D01*
G75*
G02*
X0557819Y0015291I0000335J0000000D01*
G01*
X0560496Y0015291D01*
G75*
G02*
X0560831Y0014957I0000000J-000335D01*
G01*
X0560831Y0012280D01*
G75*
G02*
X0560496Y0011945I-000335J0000000D01*
G01*
G37*
G36*
G01*
X0560496Y0018165D02*
X0557819Y0018165D01*
G75*
G02*
X0557485Y0018500I0000000J0000335D01*
G01*
X0557485Y0021177D01*
G75*
G02*
X0557819Y0021512I0000335J0000000D01*
G01*
X0560496Y0021512D01*
G75*
G02*
X0560831Y0021177I0000000J-000335D01*
G01*
X0560831Y0018500D01*
G75*
G02*
X0560496Y0018165I-000335J0000000D01*
G01*
G37*
G36*
G01*
X0387300Y0106438D02*
X0385764Y0109097D01*
G75*
G02*
X0385865Y0109474I0000239J0000138D01*
G01*
X0387775Y0110576D01*
G75*
G02*
X0388151Y0110475I0000138J-000239D01*
G01*
X0389687Y0107816D01*
G75*
G02*
X0389586Y0107440I-000239J-000138D01*
G01*
X0387676Y0106337D01*
G75*
G02*
X0387300Y0106438I-000138J0000239D01*
G01*
G37*
G36*
G01*
X0392755Y0109588D02*
X0391220Y0112247D01*
G75*
G02*
X0391321Y0112624I0000239J0000138D01*
G01*
X0393230Y0113726D01*
G75*
G02*
X0393606Y0113625I0000138J-000239D01*
G01*
X0395142Y0110966D01*
G75*
G02*
X0395041Y0110589I-000239J-000138D01*
G01*
X0393132Y0109487D01*
G75*
G02*
X0392755Y0109588I-000138J0000239D01*
G01*
G37*
G36*
G01*
X0095365Y0165827D02*
X0095365Y0167166D01*
G75*
G02*
X0095916Y0167717I0000551J0000000D01*
G01*
X0097019Y0167717D01*
G75*
G02*
X0097570Y0167166I0000000J-000551D01*
G01*
X0097570Y0165827D01*
G75*
G02*
X0097019Y0165276I-000551J0000000D01*
G01*
X0095916Y0165276D01*
G75*
G02*
X0095365Y0165827I0000000J0000551D01*
G01*
G37*
G36*
G01*
X0099145Y0165827D02*
X0099145Y0167166D01*
G75*
G02*
X0099696Y0167717I0000551J0000000D01*
G01*
X0100798Y0167717D01*
G75*
G02*
X0101349Y0167166I0000000J-000551D01*
G01*
X0101349Y0165827D01*
G75*
G02*
X0100798Y0165276I-000551J0000000D01*
G01*
X0099696Y0165276D01*
G75*
G02*
X0099145Y0165827I0000000J0000551D01*
G01*
G37*
G36*
G01*
X0473524Y0151791D02*
X0473524Y0154862D01*
G75*
G02*
X0473800Y0155138I0000276J0000000D01*
G01*
X0476004Y0155138D01*
G75*
G02*
X0476280Y0154862I0000000J-000276D01*
G01*
X0476280Y0151791D01*
G75*
G02*
X0476004Y0151516I-000276J0000000D01*
G01*
X0473800Y0151516D01*
G75*
G02*
X0473524Y0151791I0000000J0000276D01*
G01*
G37*
G36*
G01*
X0479823Y0151791D02*
X0479823Y0154862D01*
G75*
G02*
X0480099Y0155138I0000276J0000000D01*
G01*
X0482303Y0155138D01*
G75*
G02*
X0482579Y0154862I0000000J-000276D01*
G01*
X0482579Y0151791D01*
G75*
G02*
X0482303Y0151516I-000276J0000000D01*
G01*
X0480099Y0151516D01*
G75*
G02*
X0479823Y0151791I0000000J0000276D01*
G01*
G37*
G36*
G01*
X0126388Y0176489D02*
X0127726Y0176489D01*
G75*
G02*
X0128278Y0175938I0000000J-000551D01*
G01*
X0128278Y0174835D01*
G75*
G02*
X0127726Y0174284I-000551J0000000D01*
G01*
X0126388Y0174284D01*
G75*
G02*
X0125837Y0174835I0000000J0000551D01*
G01*
X0125837Y0175938D01*
G75*
G02*
X0126388Y0176489I0000551J0000000D01*
G01*
G37*
G36*
G01*
X0126388Y0172709D02*
X0127726Y0172709D01*
G75*
G02*
X0128278Y0172158I0000000J-000551D01*
G01*
X0128278Y0171056D01*
G75*
G02*
X0127726Y0170505I-000551J0000000D01*
G01*
X0126388Y0170505D01*
G75*
G02*
X0125837Y0171056I0000000J0000551D01*
G01*
X0125837Y0172158D01*
G75*
G02*
X0126388Y0172709I0000551J0000000D01*
G01*
G37*
G36*
G01*
X0065188Y0163565D02*
X0065188Y0162108D01*
G75*
G02*
X0064657Y0161577I-000531J0000000D01*
G01*
X0063594Y0161577D01*
G75*
G02*
X0063062Y0162108I0000000J0000531D01*
G01*
X0063062Y0163565D01*
G75*
G02*
X0063594Y0164097I0000531J0000000D01*
G01*
X0064657Y0164097D01*
G75*
G02*
X0065188Y0163565I0000000J-000531D01*
G01*
G37*
G36*
G01*
X0061172Y0163565D02*
X0061172Y0162108D01*
G75*
G02*
X0060641Y0161577I-000531J0000000D01*
G01*
X0059578Y0161577D01*
G75*
G02*
X0059046Y0162108I0000000J0000531D01*
G01*
X0059046Y0163565D01*
G75*
G02*
X0059578Y0164097I0000531J0000000D01*
G01*
X0060641Y0164097D01*
G75*
G02*
X0061172Y0163565I0000000J-000531D01*
G01*
G37*
G36*
G01*
X0040949Y0174811D02*
X0039178Y0174811D01*
G75*
G02*
X0038882Y0175106I0000000J0000295D01*
G01*
X0038882Y0181996D01*
G75*
G02*
X0039178Y0182291I0000295J0000000D01*
G01*
X0040949Y0182291D01*
G75*
G02*
X0041244Y0181996I0000000J-000295D01*
G01*
X0041244Y0175106D01*
G75*
G02*
X0040949Y0174811I-000295J0000000D01*
G01*
G37*
G36*
G01*
X0045949Y0174811D02*
X0044178Y0174811D01*
G75*
G02*
X0043882Y0175106I0000000J0000295D01*
G01*
X0043882Y0181996D01*
G75*
G02*
X0044178Y0182291I0000295J0000000D01*
G01*
X0045949Y0182291D01*
G75*
G02*
X0046244Y0181996I0000000J-000295D01*
G01*
X0046244Y0175106D01*
G75*
G02*
X0045949Y0174811I-000295J0000000D01*
G01*
G37*
G36*
G01*
X0050949Y0174811D02*
X0049178Y0174811D01*
G75*
G02*
X0048882Y0175106I0000000J0000295D01*
G01*
X0048882Y0181996D01*
G75*
G02*
X0049178Y0182291I0000295J0000000D01*
G01*
X0050949Y0182291D01*
G75*
G02*
X0051244Y0181996I0000000J-000295D01*
G01*
X0051244Y0175106D01*
G75*
G02*
X0050949Y0174811I-000295J0000000D01*
G01*
G37*
G36*
G01*
X0055949Y0174811D02*
X0054178Y0174811D01*
G75*
G02*
X0053882Y0175106I0000000J0000295D01*
G01*
X0053882Y0181996D01*
G75*
G02*
X0054178Y0182291I0000295J0000000D01*
G01*
X0055949Y0182291D01*
G75*
G02*
X0056244Y0181996I0000000J-000295D01*
G01*
X0056244Y0175106D01*
G75*
G02*
X0055949Y0174811I-000295J0000000D01*
G01*
G37*
G36*
G01*
X0060949Y0174811D02*
X0059178Y0174811D01*
G75*
G02*
X0058882Y0175106I0000000J0000295D01*
G01*
X0058882Y0181996D01*
G75*
G02*
X0059178Y0182291I0000295J0000000D01*
G01*
X0060949Y0182291D01*
G75*
G02*
X0061244Y0181996I0000000J-000295D01*
G01*
X0061244Y0175106D01*
G75*
G02*
X0060949Y0174811I-000295J0000000D01*
G01*
G37*
G36*
G01*
X0065949Y0174811D02*
X0064178Y0174811D01*
G75*
G02*
X0063882Y0175106I0000000J0000295D01*
G01*
X0063882Y0181996D01*
G75*
G02*
X0064178Y0182291I0000295J0000000D01*
G01*
X0065949Y0182291D01*
G75*
G02*
X0066244Y0181996I0000000J-000295D01*
G01*
X0066244Y0175106D01*
G75*
G02*
X0065949Y0174811I-000295J0000000D01*
G01*
G37*
G36*
G01*
X0070949Y0174811D02*
X0069178Y0174811D01*
G75*
G02*
X0068882Y0175106I0000000J0000295D01*
G01*
X0068882Y0181996D01*
G75*
G02*
X0069178Y0182291I0000295J0000000D01*
G01*
X0070949Y0182291D01*
G75*
G02*
X0071244Y0181996I0000000J-000295D01*
G01*
X0071244Y0175106D01*
G75*
G02*
X0070949Y0174811I-000295J0000000D01*
G01*
G37*
G36*
G01*
X0070949Y0194141D02*
X0069178Y0194141D01*
G75*
G02*
X0068882Y0194437I0000000J0000295D01*
G01*
X0068882Y0201326D01*
G75*
G02*
X0069178Y0201622I0000295J0000000D01*
G01*
X0070949Y0201622D01*
G75*
G02*
X0071244Y0201326I0000000J-000295D01*
G01*
X0071244Y0194437D01*
G75*
G02*
X0070949Y0194141I-000295J0000000D01*
G01*
G37*
G36*
G01*
X0065949Y0194141D02*
X0064178Y0194141D01*
G75*
G02*
X0063882Y0194437I0000000J0000295D01*
G01*
X0063882Y0201326D01*
G75*
G02*
X0064178Y0201622I0000295J0000000D01*
G01*
X0065949Y0201622D01*
G75*
G02*
X0066244Y0201326I0000000J-000295D01*
G01*
X0066244Y0194437D01*
G75*
G02*
X0065949Y0194141I-000295J0000000D01*
G01*
G37*
G36*
G01*
X0060949Y0194141D02*
X0059178Y0194141D01*
G75*
G02*
X0058882Y0194437I0000000J0000295D01*
G01*
X0058882Y0201326D01*
G75*
G02*
X0059178Y0201622I0000295J0000000D01*
G01*
X0060949Y0201622D01*
G75*
G02*
X0061244Y0201326I0000000J-000295D01*
G01*
X0061244Y0194437D01*
G75*
G02*
X0060949Y0194141I-000295J0000000D01*
G01*
G37*
G36*
G01*
X0055949Y0194141D02*
X0054178Y0194141D01*
G75*
G02*
X0053882Y0194437I0000000J0000295D01*
G01*
X0053882Y0201326D01*
G75*
G02*
X0054178Y0201622I0000295J0000000D01*
G01*
X0055949Y0201622D01*
G75*
G02*
X0056244Y0201326I0000000J-000295D01*
G01*
X0056244Y0194437D01*
G75*
G02*
X0055949Y0194141I-000295J0000000D01*
G01*
G37*
G36*
G01*
X0050949Y0194141D02*
X0049178Y0194141D01*
G75*
G02*
X0048882Y0194437I0000000J0000295D01*
G01*
X0048882Y0201326D01*
G75*
G02*
X0049178Y0201622I0000295J0000000D01*
G01*
X0050949Y0201622D01*
G75*
G02*
X0051244Y0201326I0000000J-000295D01*
G01*
X0051244Y0194437D01*
G75*
G02*
X0050949Y0194141I-000295J0000000D01*
G01*
G37*
G36*
G01*
X0045949Y0194141D02*
X0044178Y0194141D01*
G75*
G02*
X0043882Y0194437I0000000J0000295D01*
G01*
X0043882Y0201326D01*
G75*
G02*
X0044178Y0201622I0000295J0000000D01*
G01*
X0045949Y0201622D01*
G75*
G02*
X0046244Y0201326I0000000J-000295D01*
G01*
X0046244Y0194437D01*
G75*
G02*
X0045949Y0194141I-000295J0000000D01*
G01*
G37*
G36*
G01*
X0040949Y0194141D02*
X0039178Y0194141D01*
G75*
G02*
X0038882Y0194437I0000000J0000295D01*
G01*
X0038882Y0201326D01*
G75*
G02*
X0039178Y0201622I0000295J0000000D01*
G01*
X0040949Y0201622D01*
G75*
G02*
X0041244Y0201326I0000000J-000295D01*
G01*
X0041244Y0194437D01*
G75*
G02*
X0040949Y0194141I-000295J0000000D01*
G01*
G37*
G36*
G01*
X0432721Y0122718D02*
X0431186Y0125377D01*
G75*
G02*
X0431287Y0125753I0000239J0000138D01*
G01*
X0433196Y0126856D01*
G75*
G02*
X0433572Y0126755I0000138J-000239D01*
G01*
X0435108Y0124096D01*
G75*
G02*
X0435007Y0123719I-000239J-000138D01*
G01*
X0433098Y0122617D01*
G75*
G02*
X0432721Y0122718I-000138J0000239D01*
G01*
G37*
G36*
G01*
X0438176Y0125867D02*
X0436641Y0128527D01*
G75*
G02*
X0436742Y0128903I0000239J0000138D01*
G01*
X0438651Y0130005D01*
G75*
G02*
X0439028Y0129905I0000138J-000239D01*
G01*
X0440563Y0127245D01*
G75*
G02*
X0440462Y0126869I-000239J-000138D01*
G01*
X0438553Y0125766D01*
G75*
G02*
X0438176Y0125867I-000138J0000239D01*
G01*
G37*
G36*
G01*
X0386585Y0112922D02*
X0384199Y0111544D01*
G75*
G02*
X0382854Y0111904I-000492J0000852D01*
G01*
X0379508Y0117700D01*
G75*
G02*
X0379868Y0119045I0000852J0000492D01*
G01*
X0382255Y0120423D01*
G75*
G02*
X0383599Y0120062I0000492J-000852D01*
G01*
X0386946Y0114266D01*
G75*
G02*
X0386585Y0112922I-000852J-000492D01*
G01*
G37*
G36*
G01*
X0393933Y0136257D02*
X0386262Y0131828D01*
G75*
G02*
X0384917Y0132189I-000492J0000852D01*
G01*
X0379898Y0140883D01*
G75*
G02*
X0380258Y0142227I0000852J0000492D01*
G01*
X0387929Y0146657D01*
G75*
G02*
X0389274Y0146296I0000492J-000852D01*
G01*
X0394294Y0137602D01*
G75*
G02*
X0393933Y0136257I-000852J-000492D01*
G01*
G37*
G36*
G01*
X0383534Y0130253D02*
X0375863Y0125824D01*
G75*
G02*
X0374518Y0126185I-000492J0000852D01*
G01*
X0369498Y0134879D01*
G75*
G02*
X0369859Y0136223I0000852J0000492D01*
G01*
X0377530Y0140653D01*
G75*
G02*
X0378875Y0140292I0000492J-000852D01*
G01*
X0383894Y0131598D01*
G75*
G02*
X0383534Y0130253I-000852J-000492D01*
G01*
G37*
G36*
G01*
X0387339Y0147679D02*
X0379667Y0143250D01*
G75*
G02*
X0378323Y0143611I-000492J0000852D01*
G01*
X0373303Y0152305D01*
G75*
G02*
X0373663Y0153649I0000852J0000492D01*
G01*
X0381335Y0158079D01*
G75*
G02*
X0382679Y0157718I0000492J-000852D01*
G01*
X0387699Y0149024D01*
G75*
G02*
X0387339Y0147679I-000852J-000492D01*
G01*
G37*
G36*
G01*
X0376940Y0141675D02*
X0369268Y0137246D01*
G75*
G02*
X0367924Y0137607I-000492J0000852D01*
G01*
X0362904Y0146301D01*
G75*
G02*
X0363264Y0147645I0000852J0000492D01*
G01*
X0370936Y0152075D01*
G75*
G02*
X0372280Y0151714I0000492J-000852D01*
G01*
X0377300Y0143020D01*
G75*
G02*
X0376940Y0141675I-000852J-000492D01*
G01*
G37*
G36*
G01*
X0402133Y0121898D02*
X0399746Y0120520D01*
G75*
G02*
X0398402Y0120880I-000492J0000852D01*
G01*
X0395055Y0126676D01*
G75*
G02*
X0395415Y0128021I0000852J0000492D01*
G01*
X0397802Y0129399D01*
G75*
G02*
X0399147Y0129039I0000492J-000852D01*
G01*
X0402493Y0123242D01*
G75*
G02*
X0402133Y0121898I-000852J-000492D01*
G01*
G37*
G36*
G01*
X0509044Y0188650D02*
X0509044Y0185579D01*
G75*
G02*
X0508768Y0185303I-000276J0000000D01*
G01*
X0506563Y0185303D01*
G75*
G02*
X0506288Y0185579I0000000J0000276D01*
G01*
X0506288Y0188650D01*
G75*
G02*
X0506563Y0188925I0000276J0000000D01*
G01*
X0508768Y0188925D01*
G75*
G02*
X0509044Y0188650I0000000J-000276D01*
G01*
G37*
G36*
G01*
X0502744Y0188650D02*
X0502744Y0185579D01*
G75*
G02*
X0502469Y0185303I-000276J0000000D01*
G01*
X0500264Y0185303D01*
G75*
G02*
X0499989Y0185579I0000000J0000276D01*
G01*
X0499989Y0188650D01*
G75*
G02*
X0500264Y0188925I0000276J0000000D01*
G01*
X0502469Y0188925D01*
G75*
G02*
X0502744Y0188650I0000000J-000276D01*
G01*
G37*
G36*
G01*
X0607532Y0124122D02*
X0607532Y0121051D01*
G75*
G02*
X0607256Y0120776I-000276J0000000D01*
G01*
X0605052Y0120776D01*
G75*
G02*
X0604776Y0121051I0000000J0000276D01*
G01*
X0604776Y0124122D01*
G75*
G02*
X0605052Y0124398I0000276J0000000D01*
G01*
X0607256Y0124398D01*
G75*
G02*
X0607532Y0124122I0000000J-000276D01*
G01*
G37*
G36*
G01*
X0601233Y0124122D02*
X0601233Y0121051D01*
G75*
G02*
X0600957Y0120776I-000276J0000000D01*
G01*
X0598752Y0120776D01*
G75*
G02*
X0598477Y0121051I0000000J0000276D01*
G01*
X0598477Y0124122D01*
G75*
G02*
X0598752Y0124398I0000276J0000000D01*
G01*
X0600957Y0124398D01*
G75*
G02*
X0601233Y0124122I0000000J-000276D01*
G01*
G37*
G36*
G01*
X0137196Y0150846D02*
X0135739Y0150846D01*
G75*
G02*
X0135207Y0151377I0000000J0000531D01*
G01*
X0135207Y0152440D01*
G75*
G02*
X0135739Y0152972I0000531J0000000D01*
G01*
X0137196Y0152972D01*
G75*
G02*
X0137727Y0152440I0000000J-000531D01*
G01*
X0137727Y0151377D01*
G75*
G02*
X0137196Y0150846I-000531J0000000D01*
G01*
G37*
G36*
G01*
X0137196Y0154862D02*
X0135739Y0154862D01*
G75*
G02*
X0135207Y0155393I0000000J0000531D01*
G01*
X0135207Y0156456D01*
G75*
G02*
X0135739Y0156988I0000531J0000000D01*
G01*
X0137196Y0156988D01*
G75*
G02*
X0137727Y0156456I0000000J-000531D01*
G01*
X0137727Y0155393D01*
G75*
G02*
X0137196Y0154862I-000531J0000000D01*
G01*
G37*
D12*
X0572855Y0181354D03*
X0572855Y0172299D03*
X0572855Y0163244D03*
D13*
X0597658Y0172299D03*
G36*
G01*
X0076793Y0205860D02*
X0078761Y0205860D01*
G75*
G02*
X0079647Y0204974I0000000J-000886D01*
G01*
X0079647Y0203202D01*
G75*
G02*
X0078761Y0202316I-000886J0000000D01*
G01*
X0076793Y0202316D01*
G75*
G02*
X0075907Y0203202I0000000J0000886D01*
G01*
X0075907Y0204974D01*
G75*
G02*
X0076793Y0205860I0000886J0000000D01*
G01*
G37*
G36*
G01*
X0076793Y0199757D02*
X0078761Y0199757D01*
G75*
G02*
X0079647Y0198871I0000000J-000886D01*
G01*
X0079647Y0197100D01*
G75*
G02*
X0078761Y0196214I-000886J0000000D01*
G01*
X0076793Y0196214D01*
G75*
G02*
X0075907Y0197100I0000000J0000886D01*
G01*
X0075907Y0198871D01*
G75*
G02*
X0076793Y0199757I0000886J0000000D01*
G01*
G37*
G36*
G01*
X0451521Y0159657D02*
X0454180Y0161193D01*
G75*
G02*
X0454557Y0161092I0000138J-000239D01*
G01*
X0455659Y0159182D01*
G75*
G02*
X0455558Y0158806I-000239J-000138D01*
G01*
X0452899Y0157271D01*
G75*
G02*
X0452522Y0157371I-000138J0000239D01*
G01*
X0451420Y0159281D01*
G75*
G02*
X0451521Y0159657I0000239J0000138D01*
G01*
G37*
G36*
G01*
X0454671Y0154202D02*
X0457330Y0155737D01*
G75*
G02*
X0457707Y0155637I0000138J-000239D01*
G01*
X0458809Y0153727D01*
G75*
G02*
X0458708Y0153351I-000239J-000138D01*
G01*
X0456049Y0151815D01*
G75*
G02*
X0455672Y0151916I-000138J0000239D01*
G01*
X0454570Y0153826D01*
G75*
G02*
X0454671Y0154202I0000239J0000138D01*
G01*
G37*
G36*
G01*
X0397330Y0158407D02*
X0394671Y0156871D01*
G75*
G02*
X0394294Y0156972I-000138J0000239D01*
G01*
X0393192Y0158881D01*
G75*
G02*
X0393293Y0159258I0000239J0000138D01*
G01*
X0395952Y0160793D01*
G75*
G02*
X0396329Y0160692I0000138J-000239D01*
G01*
X0397431Y0158783D01*
G75*
G02*
X0397330Y0158407I-000239J-000138D01*
G01*
G37*
G36*
G01*
X0394180Y0163862D02*
X0391521Y0162326D01*
G75*
G02*
X0391145Y0162427I-000138J0000239D01*
G01*
X0390042Y0164337D01*
G75*
G02*
X0390143Y0164713I0000239J0000138D01*
G01*
X0392802Y0166249D01*
G75*
G02*
X0393179Y0166148I0000138J-000239D01*
G01*
X0394281Y0164238D01*
G75*
G02*
X0394180Y0163862I-000239J-000138D01*
G01*
G37*
D12*
X0589599Y0149807D03*
X0589599Y0140752D03*
X0589599Y0131697D03*
D13*
X0614402Y0140752D03*
G36*
G01*
X0092276Y0145898D02*
X0092276Y0147355D01*
G75*
G02*
X0092808Y0147887I0000531J0000000D01*
G01*
X0093871Y0147887D01*
G75*
G02*
X0094402Y0147355I0000000J-000531D01*
G01*
X0094402Y0145898D01*
G75*
G02*
X0093871Y0145367I-000531J0000000D01*
G01*
X0092808Y0145367D01*
G75*
G02*
X0092276Y0145898I0000000J0000531D01*
G01*
G37*
G36*
G01*
X0096292Y0145898D02*
X0096292Y0147355D01*
G75*
G02*
X0096824Y0147887I0000531J0000000D01*
G01*
X0097887Y0147887D01*
G75*
G02*
X0098418Y0147355I0000000J-000531D01*
G01*
X0098418Y0145898D01*
G75*
G02*
X0097887Y0145367I-000531J0000000D01*
G01*
X0096824Y0145367D01*
G75*
G02*
X0096292Y0145898I0000000J0000531D01*
G01*
G37*
G36*
G01*
X0101785Y0216401D02*
X0099864Y0218322D01*
G75*
G02*
X0099864Y0219603I0000640J0000640D01*
G01*
X0103594Y0223333D01*
G75*
G02*
X0104875Y0223333I0000640J-000640D01*
G01*
X0106796Y0221412D01*
G75*
G02*
X0106796Y0220132I-000640J-000640D01*
G01*
X0103065Y0216401D01*
G75*
G02*
X0101785Y0216401I-000640J0000640D01*
G01*
G37*
G36*
G01*
X0109858Y0208328D02*
X0107937Y0210249D01*
G75*
G02*
X0107937Y0211530I0000640J0000640D01*
G01*
X0111668Y0215260D01*
G75*
G02*
X0112948Y0215260I0000640J-000640D01*
G01*
X0114869Y0213339D01*
G75*
G02*
X0114869Y0212059I-000640J-000640D01*
G01*
X0111139Y0208328D01*
G75*
G02*
X0109858Y0208328I-000640J0000640D01*
G01*
G37*
D56*
X0566654Y0084347D03*
X0566654Y0078441D03*
X0566654Y0072535D03*
X0566654Y0066630D03*
X0566654Y0060724D03*
X0566654Y0054819D03*
X0566654Y0048913D03*
X0566654Y0043008D03*
X0566654Y0037102D03*
X0566654Y0031197D03*
X0566654Y0025291D03*
X0566654Y0019386D03*
X0566654Y0013480D03*
X0616654Y0013480D03*
X0616654Y0019386D03*
X0616654Y0025291D03*
X0616654Y0031197D03*
X0616654Y0037102D03*
X0616654Y0043008D03*
X0616654Y0048913D03*
X0616654Y0054819D03*
X0616654Y0060724D03*
X0616654Y0066630D03*
X0616654Y0072535D03*
X0616654Y0078441D03*
X0616654Y0084347D03*
G36*
G01*
X0055076Y0167488D02*
X0055076Y0168945D01*
G75*
G02*
X0055608Y0169477I0000531J0000000D01*
G01*
X0056671Y0169477D01*
G75*
G02*
X0057202Y0168945I0000000J-000531D01*
G01*
X0057202Y0167488D01*
G75*
G02*
X0056671Y0166957I-000531J0000000D01*
G01*
X0055608Y0166957D01*
G75*
G02*
X0055076Y0167488I0000000J0000531D01*
G01*
G37*
G36*
G01*
X0059092Y0167488D02*
X0059092Y0168945D01*
G75*
G02*
X0059624Y0169477I0000531J0000000D01*
G01*
X0060687Y0169477D01*
G75*
G02*
X0061218Y0168945I0000000J-000531D01*
G01*
X0061218Y0167488D01*
G75*
G02*
X0060687Y0166957I-000531J0000000D01*
G01*
X0059624Y0166957D01*
G75*
G02*
X0059092Y0167488I0000000J0000531D01*
G01*
G37*
G36*
G01*
X0074636Y0181808D02*
X0074636Y0183265D01*
G75*
G02*
X0075168Y0183797I0000531J0000000D01*
G01*
X0076231Y0183797D01*
G75*
G02*
X0076762Y0183265I0000000J-000531D01*
G01*
X0076762Y0181808D01*
G75*
G02*
X0076231Y0181277I-000531J0000000D01*
G01*
X0075168Y0181277D01*
G75*
G02*
X0074636Y0181808I0000000J0000531D01*
G01*
G37*
G36*
G01*
X0078652Y0181808D02*
X0078652Y0183265D01*
G75*
G02*
X0079184Y0183797I0000531J0000000D01*
G01*
X0080247Y0183797D01*
G75*
G02*
X0080778Y0183265I0000000J-000531D01*
G01*
X0080778Y0181808D01*
G75*
G02*
X0080247Y0181277I-000531J0000000D01*
G01*
X0079184Y0181277D01*
G75*
G02*
X0078652Y0181808I0000000J0000531D01*
G01*
G37*
G36*
G01*
X0474733Y0110933D02*
X0474733Y0114004D01*
G75*
G02*
X0475008Y0114280I0000276J0000000D01*
G01*
X0477213Y0114280D01*
G75*
G02*
X0477489Y0114004I0000000J-000276D01*
G01*
X0477489Y0110933D01*
G75*
G02*
X0477213Y0110658I-000276J0000000D01*
G01*
X0475008Y0110658D01*
G75*
G02*
X0474733Y0110933I0000000J0000276D01*
G01*
G37*
G36*
G01*
X0481032Y0110933D02*
X0481032Y0114004D01*
G75*
G02*
X0481307Y0114280I0000276J0000000D01*
G01*
X0483512Y0114280D01*
G75*
G02*
X0483788Y0114004I0000000J-000276D01*
G01*
X0483788Y0110933D01*
G75*
G02*
X0483512Y0110658I-000276J0000000D01*
G01*
X0481307Y0110658D01*
G75*
G02*
X0481032Y0110933I0000000J0000276D01*
G01*
G37*
G36*
G01*
X0102596Y0200547D02*
X0100675Y0202468D01*
G75*
G02*
X0100675Y0203749I0000640J0000640D01*
G01*
X0104405Y0207479D01*
G75*
G02*
X0105686Y0207479I0000640J-000640D01*
G01*
X0107607Y0205558D01*
G75*
G02*
X0107607Y0204278I-000640J-000640D01*
G01*
X0103876Y0200547D01*
G75*
G02*
X0102596Y0200547I-000640J0000640D01*
G01*
G37*
G36*
G01*
X0110669Y0192474D02*
X0108748Y0194395D01*
G75*
G02*
X0108748Y0195675I0000640J0000640D01*
G01*
X0112479Y0199406D01*
G75*
G02*
X0113759Y0199406I0000640J-000640D01*
G01*
X0115680Y0197485D01*
G75*
G02*
X0115680Y0196204I-000640J-000640D01*
G01*
X0111950Y0192474D01*
G75*
G02*
X0110669Y0192474I-000640J0000640D01*
G01*
G37*
G36*
G01*
X0098963Y0181040D02*
X0100931Y0181040D01*
G75*
G02*
X0101817Y0180154I0000000J-000886D01*
G01*
X0101817Y0178382D01*
G75*
G02*
X0100931Y0177496I-000886J0000000D01*
G01*
X0098963Y0177496D01*
G75*
G02*
X0098077Y0178382I0000000J0000886D01*
G01*
X0098077Y0180154D01*
G75*
G02*
X0098963Y0181040I0000886J0000000D01*
G01*
G37*
G36*
G01*
X0098963Y0174937D02*
X0100931Y0174937D01*
G75*
G02*
X0101817Y0174051I0000000J-000886D01*
G01*
X0101817Y0172280D01*
G75*
G02*
X0100931Y0171394I-000886J0000000D01*
G01*
X0098963Y0171394D01*
G75*
G02*
X0098077Y0172280I0000000J0000886D01*
G01*
X0098077Y0174051D01*
G75*
G02*
X0098963Y0174937I0000886J0000000D01*
G01*
G37*
G36*
G01*
X0122650Y0214071D02*
X0119579Y0214071D01*
G75*
G02*
X0119303Y0214347I0000000J0000276D01*
G01*
X0119303Y0216551D01*
G75*
G02*
X0119579Y0216827I0000276J0000000D01*
G01*
X0122650Y0216827D01*
G75*
G02*
X0122926Y0216551I0000000J-000276D01*
G01*
X0122926Y0214347D01*
G75*
G02*
X0122650Y0214071I-000276J0000000D01*
G01*
G37*
G36*
G01*
X0122650Y0220370D02*
X0119579Y0220370D01*
G75*
G02*
X0119303Y0220646I0000000J0000276D01*
G01*
X0119303Y0222850D01*
G75*
G02*
X0119579Y0223126I0000276J0000000D01*
G01*
X0122650Y0223126D01*
G75*
G02*
X0122926Y0222850I0000000J-000276D01*
G01*
X0122926Y0220646D01*
G75*
G02*
X0122650Y0220370I-000276J0000000D01*
G01*
G37*
D12*
X0571800Y0221280D03*
X0571800Y0212224D03*
X0571800Y0203169D03*
D13*
X0596603Y0212224D03*
G36*
G01*
X0139978Y0147345D02*
X0139978Y0145888D01*
G75*
G02*
X0139447Y0145357I-000531J0000000D01*
G01*
X0138384Y0145357D01*
G75*
G02*
X0137852Y0145888I0000000J0000531D01*
G01*
X0137852Y0147345D01*
G75*
G02*
X0138384Y0147877I0000531J0000000D01*
G01*
X0139447Y0147877D01*
G75*
G02*
X0139978Y0147345I0000000J-000531D01*
G01*
G37*
G36*
G01*
X0135962Y0147345D02*
X0135962Y0145888D01*
G75*
G02*
X0135431Y0145357I-000531J0000000D01*
G01*
X0134368Y0145357D01*
G75*
G02*
X0133836Y0145888I0000000J0000531D01*
G01*
X0133836Y0147345D01*
G75*
G02*
X0134368Y0147877I0000531J0000000D01*
G01*
X0135431Y0147877D01*
G75*
G02*
X0135962Y0147345I0000000J-000531D01*
G01*
G37*
X0150941Y0118728D02*
G01*
G75*
D279*
X0105862Y0094361D02*
D03*
X0105862Y0112078D02*
D03*
D280*
X0109189Y0069909D02*
D03*
X0136551Y0069909D02*
D03*
D281*
X0120429Y0093137D02*
D03*
X0136571Y0093137D02*
D03*
D282*
X0118658Y0111248D02*
D03*
X0134406Y0111248D02*
D03*
D283*
X0141597Y0049470D02*
D03*
X0132345Y0053210D02*
D03*
D283*
X0132345Y0045730D02*
D03*
D284*
X0109510Y0039791D02*
D03*
D284*
X0109510Y0043531D02*
D03*
X0109510Y0047271D02*
D03*
X0101046Y0047271D02*
D03*
X0101046Y0039791D02*
D03*
D285*
X0097194Y0053792D02*
D03*
X0110186Y0053792D02*
D03*
D286*
X0115480Y0053504D02*
D03*
X0126898Y0053504D02*
D03*
D287*
X0096295Y0086051D02*
D03*
X0102516Y0086051D02*
D03*
X0106886Y0086051D02*
D03*
X0113106Y0086051D02*
D03*
D288*
X0146972Y0108940D02*
D03*
X0146972Y0104806D02*
D03*
X0096417Y0067066D02*
D03*
X0096417Y0062932D02*
D03*
X0096417Y0071779D02*
D03*
X0096417Y0075913D02*
D03*
X0095525Y0091428D02*
D03*
X0095525Y0095562D02*
D03*
D289*
X0114628Y0047221D02*
D03*
X0114628Y0043284D02*
D03*
X0128303Y0046319D02*
D03*
X0119642Y0046319D02*
D03*
X0128303Y0039922D02*
D03*
X0119642Y0039922D02*
D03*
D290*
X0136676Y0039791D02*
D03*
X0133132Y0039791D02*
D03*
D291*
X0100675Y0063129D02*
D03*
X0100675Y0066673D02*
D03*
X0100675Y0072173D02*
D03*
X0100675Y0075716D02*
D03*
X0095525Y0103729D02*
D03*
X0095525Y0100185D02*
D03*
X0547559Y0096898D02*
%LPD*%
G01*
G36*
G01*
X0479951Y0061189D02*
X0481309Y0061189D01*
G75*
G02*
X0481890Y0060609I0000000J-000581D01*
G01*
X0481890Y0059447D01*
G75*
G02*
X0481309Y0058867I-000581J0000000D01*
G01*
X0479951Y0058867D01*
G75*
G02*
X0479370Y0059447I0000000J0000581D01*
G01*
X0479370Y0060609D01*
G75*
G02*
X0479951Y0061189I0000581J0000000D01*
G01*
G37*
G36*
G01*
X0479951Y0057370D02*
X0481309Y0057370D01*
G75*
G02*
X0481890Y0056790I0000000J-000581D01*
G01*
X0481890Y0055628D01*
G75*
G02*
X0481309Y0055048I-000581J0000000D01*
G01*
X0479951Y0055048D01*
G75*
G02*
X0479370Y0055628I0000000J0000581D01*
G01*
X0479370Y0056790D01*
G75*
G02*
X0479951Y0057370I0000581J0000000D01*
G01*
G37*
G36*
G01*
X0538524Y0076613D02*
X0538524Y0075254D01*
G75*
G02*
X0537943Y0074674I-000581J0000000D01*
G01*
X0536781Y0074674D01*
G75*
G02*
X0536201Y0075254I0000000J0000581D01*
G01*
X0536201Y0076613D01*
G75*
G02*
X0536781Y0077193I0000581J0000000D01*
G01*
X0537943Y0077193D01*
G75*
G02*
X0538524Y0076613I0000000J-000581D01*
G01*
G37*
G36*
G01*
X0534705Y0076613D02*
X0534705Y0075254D01*
G75*
G02*
X0534124Y0074674I-000581J0000000D01*
G01*
X0532963Y0074674D01*
G75*
G02*
X0532382Y0075254I0000000J0000581D01*
G01*
X0532382Y0076613D01*
G75*
G02*
X0532963Y0077193I0000581J0000000D01*
G01*
X0534124Y0077193D01*
G75*
G02*
X0534705Y0076613I0000000J-000581D01*
G01*
G37*
G36*
G01*
X0527997Y0061416D02*
X0525979Y0061416D01*
G75*
G02*
X0525118Y0062277I0000000J0000861D01*
G01*
X0525118Y0063999D01*
G75*
G02*
X0525979Y0064861I0000861J0000000D01*
G01*
X0527997Y0064861D01*
G75*
G02*
X0528858Y0063999I0000000J-000861D01*
G01*
X0528858Y0062277D01*
G75*
G02*
X0527997Y0061416I-000861J0000000D01*
G01*
G37*
G36*
G01*
X0527997Y0067617D02*
X0525979Y0067617D01*
G75*
G02*
X0525118Y0068478I0000000J0000861D01*
G01*
X0525118Y0070200D01*
G75*
G02*
X0525979Y0071061I0000861J0000000D01*
G01*
X0527997Y0071061D01*
G75*
G02*
X0528858Y0070200I0000000J-000861D01*
G01*
X0528858Y0068478D01*
G75*
G02*
X0527997Y0067617I-000861J0000000D01*
G01*
G37*
G36*
G01*
X0481506Y0086445D02*
X0480148Y0086445D01*
G75*
G02*
X0479567Y0087026I0000000J0000581D01*
G01*
X0479567Y0088187D01*
G75*
G02*
X0480148Y0088768I0000581J0000000D01*
G01*
X0481506Y0088768D01*
G75*
G02*
X0482087Y0088187I0000000J-000581D01*
G01*
X0482087Y0087026D01*
G75*
G02*
X0481506Y0086445I-000581J0000000D01*
G01*
G37*
G36*
G01*
X0481506Y0090264D02*
X0480148Y0090264D01*
G75*
G02*
X0479567Y0090845I0000000J0000581D01*
G01*
X0479567Y0092006D01*
G75*
G02*
X0480148Y0092587I0000581J0000000D01*
G01*
X0481506Y0092587D01*
G75*
G02*
X0482087Y0092006I0000000J-000581D01*
G01*
X0482087Y0090845D01*
G75*
G02*
X0481506Y0090264I-000581J0000000D01*
G01*
G37*
D134*
X0532697Y0070618D03*
X0532697Y0063138D03*
X0540571Y0066878D03*
G36*
G01*
X0485689Y0086445D02*
X0484331Y0086445D01*
G75*
G02*
X0483750Y0087026I0000000J0000581D01*
G01*
X0483750Y0088187D01*
G75*
G02*
X0484331Y0088768I0000581J0000000D01*
G01*
X0485689Y0088768D01*
G75*
G02*
X0486270Y0088187I0000000J-000581D01*
G01*
X0486270Y0087026D01*
G75*
G02*
X0485689Y0086445I-000581J0000000D01*
G01*
G37*
G36*
G01*
X0485689Y0090264D02*
X0484331Y0090264D01*
G75*
G02*
X0483750Y0090845I0000000J0000581D01*
G01*
X0483750Y0092006D01*
G75*
G02*
X0484331Y0092587I0000581J0000000D01*
G01*
X0485689Y0092587D01*
G75*
G02*
X0486270Y0092006I0000000J-000581D01*
G01*
X0486270Y0090845D01*
G75*
G02*
X0485689Y0090264I-000581J0000000D01*
G01*
G37*
G36*
G01*
X0481309Y0062528D02*
X0479951Y0062528D01*
G75*
G02*
X0479370Y0063109I0000000J0000581D01*
G01*
X0479370Y0064270D01*
G75*
G02*
X0479951Y0064851I0000581J0000000D01*
G01*
X0481309Y0064851D01*
G75*
G02*
X0481890Y0064270I0000000J-000581D01*
G01*
X0481890Y0063109D01*
G75*
G02*
X0481309Y0062528I-000581J0000000D01*
G01*
G37*
G36*
G01*
X0481309Y0066347D02*
X0479951Y0066347D01*
G75*
G02*
X0479370Y0066928I0000000J0000581D01*
G01*
X0479370Y0068089D01*
G75*
G02*
X0479951Y0068670I0000581J0000000D01*
G01*
X0481309Y0068670D01*
G75*
G02*
X0481890Y0068089I0000000J-000581D01*
G01*
X0481890Y0066928D01*
G75*
G02*
X0481309Y0066347I-000581J0000000D01*
G01*
G37*
G36*
G01*
X0485069Y0050264D02*
X0486427Y0050264D01*
G75*
G02*
X0487008Y0049683I0000000J-000581D01*
G01*
X0487008Y0048522D01*
G75*
G02*
X0486427Y0047941I-000581J0000000D01*
G01*
X0485069Y0047941D01*
G75*
G02*
X0484488Y0048522I0000000J0000581D01*
G01*
X0484488Y0049683D01*
G75*
G02*
X0485069Y0050264I0000581J0000000D01*
G01*
G37*
G36*
G01*
X0485069Y0046445D02*
X0486427Y0046445D01*
G75*
G02*
X0487008Y0045865I0000000J-000581D01*
G01*
X0487008Y0044703D01*
G75*
G02*
X0486427Y0044122I-000581J0000000D01*
G01*
X0485069Y0044122D01*
G75*
G02*
X0484488Y0044703I0000000J0000581D01*
G01*
X0484488Y0045865D01*
G75*
G02*
X0485069Y0046445I0000581J0000000D01*
G01*
G37*
G36*
G01*
X0479951Y0077036D02*
X0481309Y0077036D01*
G75*
G02*
X0481890Y0076455I0000000J-000581D01*
G01*
X0481890Y0075294D01*
G75*
G02*
X0481309Y0074713I-000581J0000000D01*
G01*
X0479951Y0074713D01*
G75*
G02*
X0479370Y0075294I0000000J0000581D01*
G01*
X0479370Y0076455D01*
G75*
G02*
X0479951Y0077036I0000581J0000000D01*
G01*
G37*
G36*
G01*
X0479951Y0073217D02*
X0481309Y0073217D01*
G75*
G02*
X0481890Y0072636I0000000J-000581D01*
G01*
X0481890Y0071475D01*
G75*
G02*
X0481309Y0070894I-000581J0000000D01*
G01*
X0479951Y0070894D01*
G75*
G02*
X0479370Y0071475I0000000J0000581D01*
G01*
X0479370Y0072636D01*
G75*
G02*
X0479951Y0073217I0000581J0000000D01*
G01*
G37*
G36*
G01*
X0519715Y0050264D02*
X0521073Y0050264D01*
G75*
G02*
X0521653Y0049683I0000000J-000581D01*
G01*
X0521653Y0048522D01*
G75*
G02*
X0521073Y0047941I-000581J0000000D01*
G01*
X0519715Y0047941D01*
G75*
G02*
X0519134Y0048522I0000000J0000581D01*
G01*
X0519134Y0049683D01*
G75*
G02*
X0519715Y0050264I0000581J0000000D01*
G01*
G37*
G36*
G01*
X0519715Y0046445D02*
X0521073Y0046445D01*
G75*
G02*
X0521653Y0045865I0000000J-000581D01*
G01*
X0521653Y0044703D01*
G75*
G02*
X0521073Y0044122I-000581J0000000D01*
G01*
X0519715Y0044122D01*
G75*
G02*
X0519134Y0044703I0000000J0000581D01*
G01*
X0519134Y0045865D01*
G75*
G02*
X0519715Y0046445I0000581J0000000D01*
G01*
G37*
D143*
X0458248Y0075146D03*
X0470256Y0075146D03*
X0458248Y0088335D03*
X0470256Y0088335D03*
D135*
X0455276Y0056937D03*
X0473228Y0056937D03*
G36*
G01*
X0530748Y0076711D02*
X0530748Y0075353D01*
G75*
G02*
X0530167Y0074772I-000581J0000000D01*
G01*
X0529006Y0074772D01*
G75*
G02*
X0528425Y0075353I0000000J0000581D01*
G01*
X0528425Y0076711D01*
G75*
G02*
X0529006Y0077292I0000581J0000000D01*
G01*
X0530167Y0077292D01*
G75*
G02*
X0530748Y0076711I0000000J-000581D01*
G01*
G37*
G36*
G01*
X0526929Y0076711D02*
X0526929Y0075353D01*
G75*
G02*
X0526348Y0074772I-000581J0000000D01*
G01*
X0525187Y0074772D01*
G75*
G02*
X0524606Y0075353I0000000J0000581D01*
G01*
X0524606Y0076711D01*
G75*
G02*
X0525187Y0077292I0000581J0000000D01*
G01*
X0526348Y0077292D01*
G75*
G02*
X0526929Y0076711I0000000J-000581D01*
G01*
G37*
G36*
G01*
X0492244Y0090377D02*
X0492244Y0092395D01*
G75*
G02*
X0493105Y0093256I0000861J0000000D01*
G01*
X0494828Y0093256D01*
G75*
G02*
X0495689Y0092395I0000000J-000861D01*
G01*
X0495689Y0090377D01*
G75*
G02*
X0494828Y0089516I-000861J0000000D01*
G01*
X0493105Y0089516D01*
G75*
G02*
X0492244Y0090377I0000000J0000861D01*
G01*
G37*
G36*
G01*
X0498445Y0090377D02*
X0498445Y0092395D01*
G75*
G02*
X0499306Y0093256I0000861J0000000D01*
G01*
X0501028Y0093256D01*
G75*
G02*
X0501890Y0092395I0000000J-000861D01*
G01*
X0501890Y0090377D01*
G75*
G02*
X0501028Y0089516I-000861J0000000D01*
G01*
X0499306Y0089516D01*
G75*
G02*
X0498445Y0090377I0000000J0000861D01*
G01*
G37*
G36*
G01*
X0489872Y0086445D02*
X0488514Y0086445D01*
G75*
G02*
X0487933Y0087026I0000000J0000581D01*
G01*
X0487933Y0088187D01*
G75*
G02*
X0488514Y0088768I0000581J0000000D01*
G01*
X0489872Y0088768D01*
G75*
G02*
X0490453Y0088187I0000000J-000581D01*
G01*
X0490453Y0087026D01*
G75*
G02*
X0489872Y0086445I-000581J0000000D01*
G01*
G37*
G36*
G01*
X0489872Y0090264D02*
X0488514Y0090264D01*
G75*
G02*
X0487933Y0090845I0000000J0000581D01*
G01*
X0487933Y0092006D01*
G75*
G02*
X0488514Y0092587I0000581J0000000D01*
G01*
X0489872Y0092587D01*
G75*
G02*
X0490453Y0092006I0000000J-000581D01*
G01*
X0490453Y0090845D01*
G75*
G02*
X0489872Y0090264I-000581J0000000D01*
G01*
G37*
G36*
G01*
X0445763Y0090992D02*
X0447780Y0090992D01*
G75*
G02*
X0448642Y0090131I0000000J-000861D01*
G01*
X0448642Y0088409D01*
G75*
G02*
X0447780Y0087548I-000861J0000000D01*
G01*
X0445763Y0087548D01*
G75*
G02*
X0444902Y0088409I0000000J0000861D01*
G01*
X0444902Y0090131D01*
G75*
G02*
X0445763Y0090992I0000861J0000000D01*
G01*
G37*
G36*
G01*
X0445763Y0084792D02*
X0447780Y0084792D01*
G75*
G02*
X0448642Y0083930I0000000J-000861D01*
G01*
X0448642Y0082208D01*
G75*
G02*
X0447780Y0081347I-000861J0000000D01*
G01*
X0445763Y0081347D01*
G75*
G02*
X0444902Y0082208I0000000J0000861D01*
G01*
X0444902Y0083930D01*
G75*
G02*
X0445763Y0084792I0000861J0000000D01*
G01*
G37*
G36*
G01*
X0513602Y0092395D02*
X0513602Y0090377D01*
G75*
G02*
X0512741Y0089516I-000861J0000000D01*
G01*
X0511019Y0089516D01*
G75*
G02*
X0510157Y0090377I0000000J0000861D01*
G01*
X0510157Y0092395D01*
G75*
G02*
X0511019Y0093256I0000861J0000000D01*
G01*
X0512741Y0093256D01*
G75*
G02*
X0513602Y0092395I0000000J-000861D01*
G01*
G37*
G36*
G01*
X0507402Y0092395D02*
X0507402Y0090377D01*
G75*
G02*
X0506540Y0089516I-000861J0000000D01*
G01*
X0504818Y0089516D01*
G75*
G02*
X0503957Y0090377I0000000J0000861D01*
G01*
X0503957Y0092395D01*
G75*
G02*
X0504818Y0093256I0000861J0000000D01*
G01*
X0506540Y0093256D01*
G75*
G02*
X0507402Y0092395I0000000J-000861D01*
G01*
G37*
G36*
G01*
X0517923Y0088217D02*
X0516565Y0088217D01*
G75*
G02*
X0515984Y0088798I0000000J0000581D01*
G01*
X0515984Y0089959D01*
G75*
G02*
X0516565Y0090540I0000581J0000000D01*
G01*
X0517923Y0090540D01*
G75*
G02*
X0518504Y0089959I0000000J-000581D01*
G01*
X0518504Y0088798D01*
G75*
G02*
X0517923Y0088217I-000581J0000000D01*
G01*
G37*
G36*
G01*
X0517923Y0092036D02*
X0516565Y0092036D01*
G75*
G02*
X0515984Y0092617I0000000J0000581D01*
G01*
X0515984Y0093778D01*
G75*
G02*
X0516565Y0094359I0000581J0000000D01*
G01*
X0517923Y0094359D01*
G75*
G02*
X0518504Y0093778I0000000J-000581D01*
G01*
X0518504Y0092617D01*
G75*
G02*
X0517923Y0092036I-000581J0000000D01*
G01*
G37*
G36*
G01*
X0483484Y0075540D02*
X0483484Y0076524D01*
G75*
G02*
X0483976Y0077016I0000492J0000000D01*
G01*
X0488898Y0077016D01*
G75*
G02*
X0489390Y0076524I0000000J-000492D01*
G01*
X0489390Y0075540D01*
G75*
G02*
X0488898Y0075048I-000492J0000000D01*
G01*
X0483976Y0075048D01*
G75*
G02*
X0483484Y0075540I0000000J0000492D01*
G01*
G37*
G36*
G01*
X0483484Y0072390D02*
X0483484Y0073374D01*
G75*
G02*
X0483976Y0073867I0000492J0000000D01*
G01*
X0488898Y0073867D01*
G75*
G02*
X0489390Y0073374I0000000J-000492D01*
G01*
X0489390Y0072390D01*
G75*
G02*
X0488898Y0071898I-000492J0000000D01*
G01*
X0483976Y0071898D01*
G75*
G02*
X0483484Y0072390I0000000J0000492D01*
G01*
G37*
G36*
G01*
X0483484Y0069241D02*
X0483484Y0070225D01*
G75*
G02*
X0483976Y0070717I0000492J0000000D01*
G01*
X0488898Y0070717D01*
G75*
G02*
X0489390Y0070225I0000000J-000492D01*
G01*
X0489390Y0069241D01*
G75*
G02*
X0488898Y0068748I-000492J0000000D01*
G01*
X0483976Y0068748D01*
G75*
G02*
X0483484Y0069241I0000000J0000492D01*
G01*
G37*
G36*
G01*
X0483484Y0066091D02*
X0483484Y0067075D01*
G75*
G02*
X0483976Y0067567I0000492J0000000D01*
G01*
X0488898Y0067567D01*
G75*
G02*
X0489390Y0067075I0000000J-000492D01*
G01*
X0489390Y0066091D01*
G75*
G02*
X0488898Y0065599I-000492J0000000D01*
G01*
X0483976Y0065599D01*
G75*
G02*
X0483484Y0066091I0000000J0000492D01*
G01*
G37*
G36*
G01*
X0483484Y0062941D02*
X0483484Y0063926D01*
G75*
G02*
X0483976Y0064418I0000492J0000000D01*
G01*
X0488898Y0064418D01*
G75*
G02*
X0489390Y0063926I0000000J-000492D01*
G01*
X0489390Y0062941D01*
G75*
G02*
X0488898Y0062449I-000492J0000000D01*
G01*
X0483976Y0062449D01*
G75*
G02*
X0483484Y0062941I0000000J0000492D01*
G01*
G37*
G36*
G01*
X0483484Y0059792D02*
X0483484Y0060776D01*
G75*
G02*
X0483976Y0061268I0000492J0000000D01*
G01*
X0488898Y0061268D01*
G75*
G02*
X0489390Y0060776I0000000J-000492D01*
G01*
X0489390Y0059792D01*
G75*
G02*
X0488898Y0059300I-000492J0000000D01*
G01*
X0483976Y0059300D01*
G75*
G02*
X0483484Y0059792I0000000J0000492D01*
G01*
G37*
G36*
G01*
X0483484Y0056642D02*
X0483484Y0057626D01*
G75*
G02*
X0483976Y0058118I0000492J0000000D01*
G01*
X0488898Y0058118D01*
G75*
G02*
X0489390Y0057626I0000000J-000492D01*
G01*
X0489390Y0056642D01*
G75*
G02*
X0488898Y0056150I-000492J0000000D01*
G01*
X0483976Y0056150D01*
G75*
G02*
X0483484Y0056642I0000000J0000492D01*
G01*
G37*
G36*
G01*
X0483484Y0053492D02*
X0483484Y0054477D01*
G75*
G02*
X0483976Y0054969I0000492J0000000D01*
G01*
X0488898Y0054969D01*
G75*
G02*
X0489390Y0054477I0000000J-000492D01*
G01*
X0489390Y0053492D01*
G75*
G02*
X0488898Y0053000I-000492J0000000D01*
G01*
X0483976Y0053000D01*
G75*
G02*
X0483484Y0053492I0000000J0000492D01*
G01*
G37*
G36*
G01*
X0490866Y0046111D02*
X0490866Y0051032D01*
G75*
G02*
X0491358Y0051524I0000492J0000000D01*
G01*
X0492342Y0051524D01*
G75*
G02*
X0492835Y0051032I0000000J-000492D01*
G01*
X0492835Y0046111D01*
G75*
G02*
X0492342Y0045618I-000492J0000000D01*
G01*
X0491358Y0045618D01*
G75*
G02*
X0490866Y0046111I0000000J0000492D01*
G01*
G37*
G36*
G01*
X0494016Y0046111D02*
X0494016Y0051032D01*
G75*
G02*
X0494508Y0051524I0000492J0000000D01*
G01*
X0495492Y0051524D01*
G75*
G02*
X0495984Y0051032I0000000J-000492D01*
G01*
X0495984Y0046111D01*
G75*
G02*
X0495492Y0045618I-000492J0000000D01*
G01*
X0494508Y0045618D01*
G75*
G02*
X0494016Y0046111I0000000J0000492D01*
G01*
G37*
G36*
G01*
X0497165Y0046111D02*
X0497165Y0051032D01*
G75*
G02*
X0497657Y0051524I0000492J0000000D01*
G01*
X0498642Y0051524D01*
G75*
G02*
X0499134Y0051032I0000000J-000492D01*
G01*
X0499134Y0046111D01*
G75*
G02*
X0498642Y0045618I-000492J0000000D01*
G01*
X0497657Y0045618D01*
G75*
G02*
X0497165Y0046111I0000000J0000492D01*
G01*
G37*
G36*
G01*
X0500315Y0046111D02*
X0500315Y0051032D01*
G75*
G02*
X0500807Y0051524I0000492J0000000D01*
G01*
X0501791Y0051524D01*
G75*
G02*
X0502283Y0051032I0000000J-000492D01*
G01*
X0502283Y0046111D01*
G75*
G02*
X0501791Y0045618I-000492J0000000D01*
G01*
X0500807Y0045618D01*
G75*
G02*
X0500315Y0046111I0000000J0000492D01*
G01*
G37*
G36*
G01*
X0503465Y0046111D02*
X0503465Y0051032D01*
G75*
G02*
X0503957Y0051524I0000492J0000000D01*
G01*
X0504941Y0051524D01*
G75*
G02*
X0505433Y0051032I0000000J-000492D01*
G01*
X0505433Y0046111D01*
G75*
G02*
X0504941Y0045618I-000492J0000000D01*
G01*
X0503957Y0045618D01*
G75*
G02*
X0503465Y0046111I0000000J0000492D01*
G01*
G37*
G36*
G01*
X0506614Y0046111D02*
X0506614Y0051032D01*
G75*
G02*
X0507106Y0051524I0000492J0000000D01*
G01*
X0508090Y0051524D01*
G75*
G02*
X0508583Y0051032I0000000J-000492D01*
G01*
X0508583Y0046111D01*
G75*
G02*
X0508090Y0045618I-000492J0000000D01*
G01*
X0507106Y0045618D01*
G75*
G02*
X0506614Y0046111I0000000J0000492D01*
G01*
G37*
G36*
G01*
X0509764Y0046111D02*
X0509764Y0051032D01*
G75*
G02*
X0510256Y0051524I0000492J0000000D01*
G01*
X0511240Y0051524D01*
G75*
G02*
X0511732Y0051032I0000000J-000492D01*
G01*
X0511732Y0046111D01*
G75*
G02*
X0511240Y0045618I-000492J0000000D01*
G01*
X0510256Y0045618D01*
G75*
G02*
X0509764Y0046111I0000000J0000492D01*
G01*
G37*
G36*
G01*
X0512913Y0046111D02*
X0512913Y0051032D01*
G75*
G02*
X0513405Y0051524I0000492J0000000D01*
G01*
X0514390Y0051524D01*
G75*
G02*
X0514882Y0051032I0000000J-000492D01*
G01*
X0514882Y0046111D01*
G75*
G02*
X0514390Y0045618I-000492J0000000D01*
G01*
X0513405Y0045618D01*
G75*
G02*
X0512913Y0046111I0000000J0000492D01*
G01*
G37*
G36*
G01*
X0516358Y0053492D02*
X0516358Y0054477D01*
G75*
G02*
X0516850Y0054969I0000492J0000000D01*
G01*
X0521772Y0054969D01*
G75*
G02*
X0522264Y0054477I0000000J-000492D01*
G01*
X0522264Y0053492D01*
G75*
G02*
X0521772Y0053000I-000492J0000000D01*
G01*
X0516850Y0053000D01*
G75*
G02*
X0516358Y0053492I0000000J0000492D01*
G01*
G37*
G36*
G01*
X0516358Y0056642D02*
X0516358Y0057626D01*
G75*
G02*
X0516850Y0058118I0000492J0000000D01*
G01*
X0521772Y0058118D01*
G75*
G02*
X0522264Y0057626I0000000J-000492D01*
G01*
X0522264Y0056642D01*
G75*
G02*
X0521772Y0056150I-000492J0000000D01*
G01*
X0516850Y0056150D01*
G75*
G02*
X0516358Y0056642I0000000J0000492D01*
G01*
G37*
G36*
G01*
X0516358Y0059792D02*
X0516358Y0060776D01*
G75*
G02*
X0516850Y0061268I0000492J0000000D01*
G01*
X0521772Y0061268D01*
G75*
G02*
X0522264Y0060776I0000000J-000492D01*
G01*
X0522264Y0059792D01*
G75*
G02*
X0521772Y0059300I-000492J0000000D01*
G01*
X0516850Y0059300D01*
G75*
G02*
X0516358Y0059792I0000000J0000492D01*
G01*
G37*
G36*
G01*
X0516358Y0062941D02*
X0516358Y0063926D01*
G75*
G02*
X0516850Y0064418I0000492J0000000D01*
G01*
X0521772Y0064418D01*
G75*
G02*
X0522264Y0063926I0000000J-000492D01*
G01*
X0522264Y0062941D01*
G75*
G02*
X0521772Y0062449I-000492J0000000D01*
G01*
X0516850Y0062449D01*
G75*
G02*
X0516358Y0062941I0000000J0000492D01*
G01*
G37*
G36*
G01*
X0516358Y0066091D02*
X0516358Y0067075D01*
G75*
G02*
X0516850Y0067567I0000492J0000000D01*
G01*
X0521772Y0067567D01*
G75*
G02*
X0522264Y0067075I0000000J-000492D01*
G01*
X0522264Y0066091D01*
G75*
G02*
X0521772Y0065599I-000492J0000000D01*
G01*
X0516850Y0065599D01*
G75*
G02*
X0516358Y0066091I0000000J0000492D01*
G01*
G37*
G36*
G01*
X0516358Y0069241D02*
X0516358Y0070225D01*
G75*
G02*
X0516850Y0070717I0000492J0000000D01*
G01*
X0521772Y0070717D01*
G75*
G02*
X0522264Y0070225I0000000J-000492D01*
G01*
X0522264Y0069241D01*
G75*
G02*
X0521772Y0068748I-000492J0000000D01*
G01*
X0516850Y0068748D01*
G75*
G02*
X0516358Y0069241I0000000J0000492D01*
G01*
G37*
G36*
G01*
X0516358Y0072390D02*
X0516358Y0073374D01*
G75*
G02*
X0516850Y0073867I0000492J0000000D01*
G01*
X0521772Y0073867D01*
G75*
G02*
X0522264Y0073374I0000000J-000492D01*
G01*
X0522264Y0072390D01*
G75*
G02*
X0521772Y0071898I-000492J0000000D01*
G01*
X0516850Y0071898D01*
G75*
G02*
X0516358Y0072390I0000000J0000492D01*
G01*
G37*
G36*
G01*
X0516358Y0075540D02*
X0516358Y0076524D01*
G75*
G02*
X0516850Y0077016I0000492J0000000D01*
G01*
X0521772Y0077016D01*
G75*
G02*
X0522264Y0076524I0000000J-000492D01*
G01*
X0522264Y0075540D01*
G75*
G02*
X0521772Y0075048I-000492J0000000D01*
G01*
X0516850Y0075048D01*
G75*
G02*
X0516358Y0075540I0000000J0000492D01*
G01*
G37*
G36*
G01*
X0512913Y0078985D02*
X0512913Y0083906D01*
G75*
G02*
X0513405Y0084398I0000492J0000000D01*
G01*
X0514390Y0084398D01*
G75*
G02*
X0514882Y0083906I0000000J-000492D01*
G01*
X0514882Y0078985D01*
G75*
G02*
X0514390Y0078492I-000492J0000000D01*
G01*
X0513405Y0078492D01*
G75*
G02*
X0512913Y0078985I0000000J0000492D01*
G01*
G37*
G36*
G01*
X0509764Y0078985D02*
X0509764Y0083906D01*
G75*
G02*
X0510256Y0084398I0000492J0000000D01*
G01*
X0511240Y0084398D01*
G75*
G02*
X0511732Y0083906I0000000J-000492D01*
G01*
X0511732Y0078985D01*
G75*
G02*
X0511240Y0078492I-000492J0000000D01*
G01*
X0510256Y0078492D01*
G75*
G02*
X0509764Y0078985I0000000J0000492D01*
G01*
G37*
G36*
G01*
X0506614Y0078985D02*
X0506614Y0083906D01*
G75*
G02*
X0507106Y0084398I0000492J0000000D01*
G01*
X0508090Y0084398D01*
G75*
G02*
X0508583Y0083906I0000000J-000492D01*
G01*
X0508583Y0078985D01*
G75*
G02*
X0508090Y0078492I-000492J0000000D01*
G01*
X0507106Y0078492D01*
G75*
G02*
X0506614Y0078985I0000000J0000492D01*
G01*
G37*
G36*
G01*
X0503465Y0078985D02*
X0503465Y0083906D01*
G75*
G02*
X0503957Y0084398I0000492J0000000D01*
G01*
X0504941Y0084398D01*
G75*
G02*
X0505433Y0083906I0000000J-000492D01*
G01*
X0505433Y0078985D01*
G75*
G02*
X0504941Y0078492I-000492J0000000D01*
G01*
X0503957Y0078492D01*
G75*
G02*
X0503465Y0078985I0000000J0000492D01*
G01*
G37*
G36*
G01*
X0500315Y0078985D02*
X0500315Y0083906D01*
G75*
G02*
X0500807Y0084398I0000492J0000000D01*
G01*
X0501791Y0084398D01*
G75*
G02*
X0502283Y0083906I0000000J-000492D01*
G01*
X0502283Y0078985D01*
G75*
G02*
X0501791Y0078492I-000492J0000000D01*
G01*
X0500807Y0078492D01*
G75*
G02*
X0500315Y0078985I0000000J0000492D01*
G01*
G37*
G36*
G01*
X0497165Y0078985D02*
X0497165Y0083906D01*
G75*
G02*
X0497657Y0084398I0000492J0000000D01*
G01*
X0498642Y0084398D01*
G75*
G02*
X0499134Y0083906I0000000J-000492D01*
G01*
X0499134Y0078985D01*
G75*
G02*
X0498642Y0078492I-000492J0000000D01*
G01*
X0497657Y0078492D01*
G75*
G02*
X0497165Y0078985I0000000J0000492D01*
G01*
G37*
G36*
G01*
X0494016Y0078985D02*
X0494016Y0083906D01*
G75*
G02*
X0494508Y0084398I0000492J0000000D01*
G01*
X0495492Y0084398D01*
G75*
G02*
X0495984Y0083906I0000000J-000492D01*
G01*
X0495984Y0078985D01*
G75*
G02*
X0495492Y0078492I-000492J0000000D01*
G01*
X0494508Y0078492D01*
G75*
G02*
X0494016Y0078985I0000000J0000492D01*
G01*
G37*
G36*
G01*
X0490866Y0078985D02*
X0490866Y0083906D01*
G75*
G02*
X0491358Y0084398I0000492J0000000D01*
G01*
X0492342Y0084398D01*
G75*
G02*
X0492835Y0083906I0000000J-000492D01*
G01*
X0492835Y0078985D01*
G75*
G02*
X0492342Y0078492I-000492J0000000D01*
G01*
X0491358Y0078492D01*
G75*
G02*
X0490866Y0078985I0000000J0000492D01*
G01*
G37*
G36*
G01*
X0525492Y0057439D02*
X0525492Y0058798D01*
G75*
G02*
X0526073Y0059378I0000581J0000000D01*
G01*
X0527234Y0059378D01*
G75*
G02*
X0527815Y0058798I0000000J-000581D01*
G01*
X0527815Y0057439D01*
G75*
G02*
X0527234Y0056859I-000581J0000000D01*
G01*
X0526073Y0056859D01*
G75*
G02*
X0525492Y0057439I0000000J0000581D01*
G01*
G37*
G36*
G01*
X0529311Y0057439D02*
X0529311Y0058798D01*
G75*
G02*
X0529892Y0059378I0000581J0000000D01*
G01*
X0531053Y0059378D01*
G75*
G02*
X0531634Y0058798I0000000J-000581D01*
G01*
X0531634Y0057439D01*
G75*
G02*
X0531053Y0056859I-000581J0000000D01*
G01*
X0529892Y0056859D01*
G75*
G02*
X0529311Y0057439I0000000J0000581D01*
G01*
G37*
G36*
G01*
X0518415Y0080835D02*
X0517057Y0080835D01*
G75*
G02*
X0516476Y0081416I0000000J0000581D01*
G01*
X0516476Y0082577D01*
G75*
G02*
X0517057Y0083158I0000581J0000000D01*
G01*
X0518415Y0083158D01*
G75*
G02*
X0518996Y0082577I0000000J-000581D01*
G01*
X0518996Y0081416D01*
G75*
G02*
X0518415Y0080835I-000581J0000000D01*
G01*
G37*
G36*
G01*
X0518415Y0084654D02*
X0517057Y0084654D01*
G75*
G02*
X0516476Y0085235I0000000J0000581D01*
G01*
X0516476Y0086396D01*
G75*
G02*
X0517057Y0086977I0000581J0000000D01*
G01*
X0518415Y0086977D01*
G75*
G02*
X0518996Y0086396I0000000J-000581D01*
G01*
X0518996Y0085235D01*
G75*
G02*
X0518415Y0084654I-000581J0000000D01*
G01*
G37*
G36*
G01*
X0542059Y0058798D02*
X0542059Y0057439D01*
G75*
G02*
X0541478Y0056859I-000581J0000000D01*
G01*
X0540317Y0056859D01*
G75*
G02*
X0539736Y0057439I0000000J0000581D01*
G01*
X0539736Y0058798D01*
G75*
G02*
X0540317Y0059378I0000581J0000000D01*
G01*
X0541478Y0059378D01*
G75*
G02*
X0542059Y0058798I0000000J-000581D01*
G01*
G37*
G36*
G01*
X0538240Y0058798D02*
X0538240Y0057439D01*
G75*
G02*
X0537659Y0056859I-000581J0000000D01*
G01*
X0536498Y0056859D01*
G75*
G02*
X0535917Y0057439I0000000J0000581D01*
G01*
X0535917Y0058798D01*
G75*
G02*
X0536498Y0059378I0000581J0000000D01*
G01*
X0537659Y0059378D01*
G75*
G02*
X0538240Y0058798I0000000J-000581D01*
G01*
G37*
D138*
X0540571Y0053197D03*
X0533090Y0053197D03*
X0536831Y0045323D03*
G36*
G01*
X0481506Y0078965D02*
X0480148Y0078965D01*
G75*
G02*
X0479567Y0079546I0000000J0000581D01*
G01*
X0479567Y0080707D01*
G75*
G02*
X0480148Y0081288I0000581J0000000D01*
G01*
X0481506Y0081288D01*
G75*
G02*
X0482087Y0080707I0000000J-000581D01*
G01*
X0482087Y0079546D01*
G75*
G02*
X0481506Y0078965I-000581J0000000D01*
G01*
G37*
G36*
G01*
X0481506Y0082784D02*
X0480148Y0082784D01*
G75*
G02*
X0479567Y0083365I0000000J0000581D01*
G01*
X0479567Y0084526D01*
G75*
G02*
X0480148Y0085107I0000581J0000000D01*
G01*
X0481506Y0085107D01*
G75*
G02*
X0482087Y0084526I0000000J-000581D01*
G01*
X0482087Y0083365D01*
G75*
G02*
X0481506Y0082784I-000581J0000000D01*
G01*
G37*
G36*
G01*
X0527633Y0043926D02*
X0525615Y0043926D01*
G75*
G02*
X0524754Y0044787I0000000J0000861D01*
G01*
X0524754Y0046509D01*
G75*
G02*
X0525615Y0047370I0000861J0000000D01*
G01*
X0527633Y0047370D01*
G75*
G02*
X0528494Y0046509I0000000J-000861D01*
G01*
X0528494Y0044787D01*
G75*
G02*
X0527633Y0043926I-000861J0000000D01*
G01*
G37*
G36*
G01*
X0527633Y0050126D02*
X0525615Y0050126D01*
G75*
G02*
X0524754Y0050988I0000000J0000861D01*
G01*
X0524754Y0052710D01*
G75*
G02*
X0525615Y0053571I0000861J0000000D01*
G01*
X0527633Y0053571D01*
G75*
G02*
X0528494Y0052710I0000000J-000861D01*
G01*
X0528494Y0050988D01*
G75*
G02*
X0527633Y0050126I-000861J0000000D01*
G01*
G37*
X0316484Y0215303D02*
G01*
G75*
D52*
X0263137Y0073964D02*
D03*
D51*
X0276917Y0073964D02*
D03*
D54*
X0183019Y0180067D02*
D03*
D49*
X0224752Y0073964D02*
D03*
X0309004Y0214909D02*
D03*
D50*
X0195224Y0214909D02*
D03*
X0300736Y0073964D02*
D03*
D47*
X0316090Y0179279D02*
D03*
D48*
X0316090Y0210775D02*
D03*
D46*
X0316090Y0125539D02*
D03*
D55*
X0183019Y0202901D02*
D03*
D53*
X0183019Y0087350D02*
D03*
D44*
X0316090Y0108020D02*
D03*
X0316090Y0084004D02*
D03*
D45*
X0316090Y0096012D02*
D03*
X0183019Y0121602D02*
D03*
D397*
X0192862Y0197213D02*
D03*
X0185775Y0197213D02*
D03*
X0185775Y0207252D02*
D03*
X0192862Y0207252D02*
D03*
X0304673Y0148472D02*
D03*
X0311760Y0148472D02*
D03*
X0311760Y0158512D02*
D03*
X0304673Y0158512D02*
D03*
X0304673Y0142370D02*
D03*
X0311760Y0142370D02*
D03*
X0311760Y0132330D02*
D03*
X0304673Y0132330D02*
D03*
D398*
X0192862Y0200657D02*
D03*
X0192862Y0203807D02*
D03*
X0185775Y0203807D02*
D03*
X0185775Y0200657D02*
D03*
X0311760Y0155067D02*
D03*
X0311760Y0151917D02*
D03*
X0304673Y0151917D02*
D03*
X0304673Y0155067D02*
D03*
X0304673Y0138925D02*
D03*
X0304673Y0135775D02*
D03*
X0311760Y0135775D02*
D03*
X0311760Y0138925D02*
D03*
D399*
X0197074Y0200209D02*
D03*
X0197074Y0197650D02*
D03*
X0197074Y0195090D02*
D03*
X0204554Y0200209D02*
D03*
X0204554Y0195090D02*
D03*
X0204554Y0197650D02*
D03*
X0204554Y0204834D02*
D03*
X0204554Y0209953D02*
D03*
X0197074Y0204834D02*
D03*
X0197074Y0207394D02*
D03*
X0197074Y0209953D02*
D03*
X0204554Y0207394D02*
D03*
D150*
X0264282Y0100933D02*
D03*
X0264282Y0102901D02*
D03*
X0264282Y0104870D02*
D03*
X0264282Y0106838D02*
D03*
X0264282Y0108807D02*
D03*
X0264282Y0110775D02*
D03*
X0264282Y0112744D02*
D03*
X0264282Y0114712D02*
D03*
X0264282Y0116681D02*
D03*
X0264282Y0120618D02*
D03*
X0264282Y0122587D02*
D03*
X0264282Y0124555D02*
D03*
X0264282Y0126524D02*
D03*
X0264282Y0128492D02*
D03*
X0264282Y0130461D02*
D03*
X0264282Y0132429D02*
D03*
X0264282Y0134398D02*
D03*
X0264282Y0136366D02*
D03*
X0264282Y0138335D02*
D03*
X0264282Y0140303D02*
D03*
X0264282Y0142271D02*
D03*
X0264282Y0144240D02*
D03*
X0264282Y0146208D02*
D03*
X0264282Y0148177D02*
D03*
X0203258Y0148177D02*
D03*
X0203258Y0146208D02*
D03*
X0203258Y0144240D02*
D03*
X0203258Y0142271D02*
D03*
X0203258Y0140303D02*
D03*
X0203258Y0138335D02*
D03*
X0203258Y0136366D02*
D03*
X0203258Y0134398D02*
D03*
X0203258Y0132429D02*
D03*
X0203258Y0130461D02*
D03*
X0203258Y0128492D02*
D03*
X0203258Y0126524D02*
D03*
X0203258Y0124555D02*
D03*
X0203258Y0122587D02*
D03*
X0203258Y0120618D02*
D03*
X0203258Y0118650D02*
D03*
X0203258Y0116681D02*
D03*
X0203258Y0114712D02*
D03*
X0203258Y0112744D02*
D03*
X0203258Y0110775D02*
D03*
X0203258Y0108807D02*
D03*
X0203258Y0106838D02*
D03*
X0203258Y0104870D02*
D03*
X0203258Y0100933D02*
D03*
X0264282Y0118650D02*
D03*
X0203258Y0102901D02*
D03*
D151*
X0257392Y0155067D02*
D03*
X0253455Y0155067D02*
D03*
X0251486Y0155067D02*
D03*
X0249518Y0155067D02*
D03*
X0247549Y0155067D02*
D03*
X0245581Y0155067D02*
D03*
X0243612Y0155067D02*
D03*
X0241644Y0155067D02*
D03*
X0239675Y0155067D02*
D03*
X0237707Y0155067D02*
D03*
X0235738Y0155067D02*
D03*
X0233770Y0155067D02*
D03*
X0231801Y0155067D02*
D03*
X0229833Y0155067D02*
D03*
X0227864Y0155067D02*
D03*
X0225896Y0155067D02*
D03*
X0223927Y0155067D02*
D03*
X0221959Y0155067D02*
D03*
X0219990Y0155067D02*
D03*
X0218022Y0155067D02*
D03*
X0216053Y0155067D02*
D03*
X0214085Y0155067D02*
D03*
X0212116Y0155067D02*
D03*
X0210148Y0155067D02*
D03*
X0210148Y0094043D02*
D03*
X0212116Y0094043D02*
D03*
X0214085Y0094043D02*
D03*
X0216053Y0094043D02*
D03*
X0218022Y0094043D02*
D03*
X0219990Y0094043D02*
D03*
X0221959Y0094043D02*
D03*
X0223927Y0094043D02*
D03*
X0225896Y0094043D02*
D03*
X0227864Y0094043D02*
D03*
X0229833Y0094043D02*
D03*
X0231801Y0094043D02*
D03*
X0233770Y0094043D02*
D03*
X0235738Y0094043D02*
D03*
X0237707Y0094043D02*
D03*
X0239675Y0094043D02*
D03*
X0241644Y0094043D02*
D03*
X0243612Y0094043D02*
D03*
X0245581Y0094043D02*
D03*
X0247549Y0094043D02*
D03*
X0249518Y0094043D02*
D03*
X0251486Y0094043D02*
D03*
X0253455Y0094043D02*
D03*
X0255423Y0094043D02*
D03*
X0257392Y0094043D02*
D03*
X0255423Y0155067D02*
D03*
D152*
X0260775Y0171996D02*
D03*
X0232823Y0171996D02*
D03*
X0288728Y0171996D02*
D03*
X0283216Y0177114D02*
D03*
X0255263Y0166878D02*
D03*
X0255263Y0169437D02*
D03*
X0255263Y0171996D02*
D03*
X0255263Y0174555D02*
D03*
X0255263Y0177114D02*
D03*
X0255263Y0179673D02*
D03*
X0255263Y0182232D02*
D03*
X0232823Y0166878D02*
D03*
X0232823Y0169437D02*
D03*
X0232823Y0174555D02*
D03*
X0232823Y0177114D02*
D03*
X0232823Y0179673D02*
D03*
X0232823Y0182232D02*
D03*
X0311169Y0166878D02*
D03*
X0311169Y0169437D02*
D03*
X0311169Y0171996D02*
D03*
X0311169Y0174555D02*
D03*
X0311169Y0177114D02*
D03*
X0311169Y0179673D02*
D03*
X0311169Y0182232D02*
D03*
X0288728Y0166878D02*
D03*
X0288728Y0169437D02*
D03*
X0288728Y0174555D02*
D03*
X0288728Y0177114D02*
D03*
X0288728Y0179673D02*
D03*
X0288728Y0182232D02*
D03*
X0283216Y0166878D02*
D03*
X0283216Y0169437D02*
D03*
X0283216Y0171996D02*
D03*
X0283216Y0174555D02*
D03*
X0283216Y0179673D02*
D03*
X0283216Y0182232D02*
D03*
X0260775Y0166878D02*
D03*
X0260775Y0169437D02*
D03*
X0260775Y0174555D02*
D03*
X0260775Y0177114D02*
D03*
X0260775Y0179673D02*
D03*
X0260775Y0182232D02*
D03*
X0204870Y0182232D02*
D03*
X0204870Y0179673D02*
D03*
X0204870Y0177114D02*
D03*
X0204870Y0174555D02*
D03*
X0204870Y0171996D02*
D03*
X0204870Y0169437D02*
D03*
X0204870Y0166878D02*
D03*
X0227311Y0182232D02*
D03*
X0227311Y0179673D02*
D03*
X0227311Y0177114D02*
D03*
X0227311Y0174555D02*
D03*
X0227311Y0171996D02*
D03*
X0227311Y0169437D02*
D03*
X0227311Y0166878D02*
D03*
D400*
X0192075Y0079870D02*
D03*
X0188334Y0079870D02*
D03*
X0195815Y0079870D02*
D03*
X0195815Y0089319D02*
D03*
X0192075Y0089319D02*
D03*
X0188334Y0089319D02*
D03*
D401*
X0190625Y0101130D02*
D03*
X0190625Y0096405D02*
D03*
X0192094Y0110677D02*
D03*
X0278634Y0083892D02*
D03*
X0265322Y0159758D02*
D03*
X0194561Y0101130D02*
D03*
X0188156Y0110677D02*
D03*
X0193456Y0147661D02*
D03*
X0189519Y0147661D02*
D03*
X0193456Y0156716D02*
D03*
X0189519Y0156716D02*
D03*
X0194561Y0096405D02*
D03*
X0274697Y0083892D02*
D03*
X0281774Y0100607D02*
D03*
X0277837Y0100607D02*
D03*
X0261385Y0159758D02*
D03*
X0261366Y0155462D02*
D03*
X0265303Y0155462D02*
D03*
D155*
X0188168Y0119312D02*
D03*
X0188168Y0121280D02*
D03*
X0194467Y0117343D02*
D03*
X0194467Y0119312D02*
D03*
X0194467Y0115375D02*
D03*
X0194467Y0121280D02*
D03*
X0188168Y0115375D02*
D03*
X0188168Y0117343D02*
D03*
D156*
X0190333Y0121477D02*
D03*
X0192302Y0121477D02*
D03*
X0192302Y0115178D02*
D03*
X0190333Y0115178D02*
D03*
D402*
X0193073Y0126327D02*
D03*
X0193073Y0142862D02*
D03*
D403*
X0221602Y0198768D02*
D03*
X0212153Y0198768D02*
D03*
X0216878Y0198768D02*
D03*
X0226326Y0198768D02*
D03*
X0212153Y0210185D02*
D03*
X0221602Y0210185D02*
D03*
X0216878Y0210185D02*
D03*
X0226326Y0210185D02*
D03*
X0232536Y0191788D02*
D03*
X0232536Y0187851D02*
D03*
X0226326Y0206248D02*
D03*
D03*
X0226326Y0202311D02*
D03*
X0221602Y0206248D02*
D03*
X0221602Y0202311D02*
D03*
X0226326Y0194831D02*
D03*
X0216878Y0206248D02*
D03*
X0216878Y0202311D02*
D03*
X0221602Y0194831D02*
D03*
X0216878Y0194831D02*
D03*
X0212153Y0206248D02*
D03*
X0212153Y0202311D02*
D03*
X0212153Y0206248D02*
D03*
X0212153Y0194831D02*
D03*
X0221602Y0206248D02*
D03*
X0216878Y0206248D02*
D03*
X0312350Y0203886D02*
D03*
X0312350Y0207823D02*
D03*
X0287744Y0206248D02*
D03*
X0287744Y0210185D02*
D03*
X0273571Y0206248D02*
D03*
X0273571Y0210185D02*
D03*
X0254673Y0202311D02*
D03*
X0254673Y0206248D02*
D03*
X0254673Y0210185D02*
D03*
X0254673Y0206248D02*
D03*
X0240500Y0202311D02*
D03*
X0240500Y0206248D02*
D03*
X0312350Y0187153D02*
D03*
X0312350Y0191090D02*
D03*
X0306641Y0206248D02*
D03*
X0306641Y0202311D02*
D03*
X0301917Y0206248D02*
D03*
X0301917Y0202311D02*
D03*
X0297193Y0206248D02*
D03*
X0297193Y0202311D02*
D03*
X0292468Y0206248D02*
D03*
X0292468Y0202311D02*
D03*
X0306641Y0206248D02*
D03*
X0306641Y0210185D02*
D03*
X0301917Y0206248D02*
D03*
X0301917Y0210185D02*
D03*
X0297193Y0206248D02*
D03*
X0297193Y0210185D02*
D03*
X0292468Y0206248D02*
D03*
X0292468Y0210185D02*
D03*
X0287744Y0206248D02*
D03*
X0287744Y0202311D02*
D03*
X0283019Y0206248D02*
D03*
X0283019Y0202311D02*
D03*
X0278295Y0206248D02*
D03*
X0278295Y0202311D02*
D03*
X0273571Y0206248D02*
D03*
X0273571Y0202311D02*
D03*
X0283019Y0206248D02*
D03*
X0283019Y0210185D02*
D03*
X0278295Y0206248D02*
D03*
X0278295Y0210185D02*
D03*
X0268846Y0202311D02*
D03*
X0268846Y0206248D02*
D03*
X0264122Y0202311D02*
D03*
X0264122Y0206248D02*
D03*
X0259397Y0202311D02*
D03*
X0259397Y0206248D02*
D03*
X0268846Y0210185D02*
D03*
X0268846Y0206248D02*
D03*
X0264122Y0210185D02*
D03*
X0264122Y0206248D02*
D03*
X0259397Y0210185D02*
D03*
X0259397Y0206248D02*
D03*
X0249948Y0202311D02*
D03*
X0249948Y0206248D02*
D03*
X0245224Y0202311D02*
D03*
X0245224Y0206248D02*
D03*
X0235775Y0202311D02*
D03*
X0235775Y0206248D02*
D03*
X0249948Y0210185D02*
D03*
X0249948Y0206248D02*
D03*
X0245224Y0210185D02*
D03*
X0245224Y0206248D02*
D03*
X0240500Y0210185D02*
D03*
X0240500Y0206248D02*
D03*
X0235775Y0210185D02*
D03*
X0235775Y0206248D02*
D03*
X0312350Y0196209D02*
D03*
X0312350Y0200146D02*
D03*
D404*
X0247586Y0193256D02*
D03*
X0266484Y0193256D02*
D03*
X0285382Y0193256D02*
D03*
X0304279Y0193256D02*
D03*
X0275933Y0189516D02*
D03*
X0275933Y0193256D02*
D03*
X0275933Y0196996D02*
D03*
X0285382Y0196996D02*
D03*
X0285382Y0189516D02*
D03*
X0294830Y0189516D02*
D03*
X0294830Y0193256D02*
D03*
X0294830Y0196996D02*
D03*
X0304279Y0196996D02*
D03*
X0304279Y0189516D02*
D03*
X0257035Y0189516D02*
D03*
X0257035Y0193256D02*
D03*
X0257035Y0196996D02*
D03*
X0266484Y0196996D02*
D03*
X0266484Y0189516D02*
D03*
X0238137Y0189516D02*
D03*
X0238137Y0193256D02*
D03*
X0238137Y0196996D02*
D03*
X0247586Y0196996D02*
D03*
X0247586Y0189516D02*
D03*
D405*
X0281571Y0096221D02*
D03*
X0263649Y0085972D02*
D03*
D161*
X0290893Y0121344D02*
D03*
X0309791Y0126344D02*
D03*
X0309791Y0111344D02*
D03*
X0309791Y0116344D02*
D03*
X0309791Y0121344D02*
D03*
X0290893Y0111344D02*
D03*
X0290893Y0116344D02*
D03*
X0290893Y0126344D02*
D03*
D406*
X0309201Y0103703D02*
D03*
X0291090Y0103703D02*
D03*
D407*
X0274739Y0135229D02*
D03*
X0290948Y0135777D02*
D03*
X0274262Y0143389D02*
D03*
X0274262Y0151000D02*
D03*
X0290948Y0143389D02*
D03*
X0290948Y0151000D02*
D03*
X0274262Y0158612D02*
D03*
X0290948Y0158612D02*
D03*
X0281432Y0135229D02*
D03*
X0280955Y0143389D02*
D03*
X0280955Y0151000D02*
D03*
X0280955Y0158612D02*
D03*
X0297641Y0143389D02*
D03*
X0297641Y0135777D02*
D03*
X0281432Y0127252D02*
D03*
X0274739Y0127252D02*
D03*
X0274739Y0120165D02*
D03*
X0281432Y0120165D02*
D03*
X0281432Y0113079D02*
D03*
X0274739Y0113079D02*
D03*
X0274739Y0105992D02*
D03*
X0281432Y0105992D02*
D03*
X0297641Y0151000D02*
D03*
X0297641Y0158612D02*
D03*
X0274739Y0078492D02*
D03*
X0281432Y0078492D02*
D03*
D408*
X0188065Y0105905D02*
D03*
X0194365Y0105905D02*
D03*
X0195425Y0152346D02*
D03*
X0189125Y0152346D02*
D03*
D409*
X0228690Y0082963D02*
D03*
X0245225Y0082963D02*
D03*
D405*
X0263649Y0078492D02*
D03*
X0254397Y0082232D02*
D03*
X0281571Y0088741D02*
D03*
X0272319Y0092481D02*
D03*
D410*
X0300145Y0079293D02*
D03*
D411*
X0300145Y0103703D02*
D03*
D64*
X0230854Y0206248D02*
D03*
X0311760Y0212153D02*
D03*
D412*
X0193663Y0188506D02*
D03*
X0193663Y0170790D02*
D03*
X0005193Y0150669D02*
%LPD*%
G01*
G36*
G01*
X0040902Y0083061D02*
X0040902Y0084419D01*
G75*
G02*
X0041482Y0085000I0000581J0000000D01*
G01*
X0042644Y0085000D01*
G75*
G02*
X0043224Y0084419I0000000J-000581D01*
G01*
X0043224Y0083061D01*
G75*
G02*
X0042644Y0082480I-000581J0000000D01*
G01*
X0041482Y0082480D01*
G75*
G02*
X0040902Y0083061I0000000J0000581D01*
G01*
G37*
G36*
G01*
X0044721Y0083061D02*
X0044721Y0084419D01*
G75*
G02*
X0045301Y0085000I0000581J0000000D01*
G01*
X0046463Y0085000D01*
G75*
G02*
X0047043Y0084419I0000000J-000581D01*
G01*
X0047043Y0083061D01*
G75*
G02*
X0046463Y0082480I-000581J0000000D01*
G01*
X0045301Y0082480D01*
G75*
G02*
X0044721Y0083061I0000000J0000581D01*
G01*
G37*
G36*
G01*
X0025478Y0141634D02*
X0026837Y0141634D01*
G75*
G02*
X0027417Y0141053I0000000J-000581D01*
G01*
X0027417Y0139891D01*
G75*
G02*
X0026837Y0139311I-000581J0000000D01*
G01*
X0025478Y0139311D01*
G75*
G02*
X0024898Y0139891I0000000J0000581D01*
G01*
X0024898Y0141053D01*
G75*
G02*
X0025478Y0141634I0000581J0000000D01*
G01*
G37*
G36*
G01*
X0025478Y0137815D02*
X0026837Y0137815D01*
G75*
G02*
X0027417Y0137234I0000000J-000581D01*
G01*
X0027417Y0136073D01*
G75*
G02*
X0026837Y0135492I-000581J0000000D01*
G01*
X0025478Y0135492D01*
G75*
G02*
X0024898Y0136073I0000000J0000581D01*
G01*
X0024898Y0137234D01*
G75*
G02*
X0025478Y0137815I0000581J0000000D01*
G01*
G37*
G36*
G01*
X0040675Y0131107D02*
X0040675Y0129089D01*
G75*
G02*
X0039814Y0128228I-000861J0000000D01*
G01*
X0038092Y0128228D01*
G75*
G02*
X0037230Y0129089I0000000J0000861D01*
G01*
X0037230Y0131107D01*
G75*
G02*
X0038092Y0131968I0000861J0000000D01*
G01*
X0039814Y0131968D01*
G75*
G02*
X0040675Y0131107I0000000J-000861D01*
G01*
G37*
G36*
G01*
X0034474Y0131107D02*
X0034474Y0129089D01*
G75*
G02*
X0033613Y0128228I-000861J0000000D01*
G01*
X0031891Y0128228D01*
G75*
G02*
X0031030Y0129089I0000000J0000861D01*
G01*
X0031030Y0131107D01*
G75*
G02*
X0031891Y0131968I0000861J0000000D01*
G01*
X0033613Y0131968D01*
G75*
G02*
X0034474Y0131107I0000000J-000861D01*
G01*
G37*
G36*
G01*
X0015646Y0084616D02*
X0015646Y0083258D01*
G75*
G02*
X0015065Y0082677I-000581J0000000D01*
G01*
X0013904Y0082677D01*
G75*
G02*
X0013323Y0083258I0000000J0000581D01*
G01*
X0013323Y0084616D01*
G75*
G02*
X0013904Y0085197I0000581J0000000D01*
G01*
X0015065Y0085197D01*
G75*
G02*
X0015646Y0084616I0000000J-000581D01*
G01*
G37*
G36*
G01*
X0011827Y0084616D02*
X0011827Y0083258D01*
G75*
G02*
X0011246Y0082677I-000581J0000000D01*
G01*
X0010085Y0082677D01*
G75*
G02*
X0009504Y0083258I0000000J0000581D01*
G01*
X0009504Y0084616D01*
G75*
G02*
X0010085Y0085197I0000581J0000000D01*
G01*
X0011246Y0085197D01*
G75*
G02*
X0011827Y0084616I0000000J-000581D01*
G01*
G37*
D138*
X0031473Y0135807D03*
X0038953Y0135807D03*
X0035213Y0143681D03*
G36*
G01*
X0015646Y0088799D02*
X0015646Y0087441D01*
G75*
G02*
X0015065Y0086860I-000581J0000000D01*
G01*
X0013904Y0086860D01*
G75*
G02*
X0013323Y0087441I0000000J0000581D01*
G01*
X0013323Y0088799D01*
G75*
G02*
X0013904Y0089380I0000581J0000000D01*
G01*
X0015065Y0089380D01*
G75*
G02*
X0015646Y0088799I0000000J-000581D01*
G01*
G37*
G36*
G01*
X0011827Y0088799D02*
X0011827Y0087441D01*
G75*
G02*
X0011246Y0086860I-000581J0000000D01*
G01*
X0010085Y0086860D01*
G75*
G02*
X0009504Y0087441I0000000J0000581D01*
G01*
X0009504Y0088799D01*
G75*
G02*
X0010085Y0089380I0000581J0000000D01*
G01*
X0011246Y0089380D01*
G75*
G02*
X0011827Y0088799I0000000J-000581D01*
G01*
G37*
G36*
G01*
X0039563Y0084419D02*
X0039563Y0083061D01*
G75*
G02*
X0038982Y0082480I-000581J0000000D01*
G01*
X0037821Y0082480D01*
G75*
G02*
X0037240Y0083061I0000000J0000581D01*
G01*
X0037240Y0084419D01*
G75*
G02*
X0037821Y0085000I0000581J0000000D01*
G01*
X0038982Y0085000D01*
G75*
G02*
X0039563Y0084419I0000000J-000581D01*
G01*
G37*
G36*
G01*
X0035744Y0084419D02*
X0035744Y0083061D01*
G75*
G02*
X0035163Y0082480I-000581J0000000D01*
G01*
X0034002Y0082480D01*
G75*
G02*
X0033421Y0083061I0000000J0000581D01*
G01*
X0033421Y0084419D01*
G75*
G02*
X0034002Y0085000I0000581J0000000D01*
G01*
X0035163Y0085000D01*
G75*
G02*
X0035744Y0084419I0000000J-000581D01*
G01*
G37*
G36*
G01*
X0051827Y0088179D02*
X0051827Y0089537D01*
G75*
G02*
X0052408Y0090118I0000581J0000000D01*
G01*
X0053569Y0090118D01*
G75*
G02*
X0054150Y0089537I0000000J-000581D01*
G01*
X0054150Y0088179D01*
G75*
G02*
X0053569Y0087598I-000581J0000000D01*
G01*
X0052408Y0087598D01*
G75*
G02*
X0051827Y0088179I0000000J0000581D01*
G01*
G37*
G36*
G01*
X0055646Y0088179D02*
X0055646Y0089537D01*
G75*
G02*
X0056226Y0090118I0000581J0000000D01*
G01*
X0057388Y0090118D01*
G75*
G02*
X0057969Y0089537I0000000J-000581D01*
G01*
X0057969Y0088179D01*
G75*
G02*
X0057388Y0087598I-000581J0000000D01*
G01*
X0056226Y0087598D01*
G75*
G02*
X0055646Y0088179I0000000J0000581D01*
G01*
G37*
G36*
G01*
X0025055Y0083061D02*
X0025055Y0084419D01*
G75*
G02*
X0025636Y0085000I0000581J0000000D01*
G01*
X0026797Y0085000D01*
G75*
G02*
X0027378Y0084419I0000000J-000581D01*
G01*
X0027378Y0083061D01*
G75*
G02*
X0026797Y0082480I-000581J0000000D01*
G01*
X0025636Y0082480D01*
G75*
G02*
X0025055Y0083061I0000000J0000581D01*
G01*
G37*
G36*
G01*
X0028874Y0083061D02*
X0028874Y0084419D01*
G75*
G02*
X0029455Y0085000I0000581J0000000D01*
G01*
X0030616Y0085000D01*
G75*
G02*
X0031197Y0084419I0000000J-000581D01*
G01*
X0031197Y0083061D01*
G75*
G02*
X0030616Y0082480I-000581J0000000D01*
G01*
X0029455Y0082480D01*
G75*
G02*
X0028874Y0083061I0000000J0000581D01*
G01*
G37*
G36*
G01*
X0051827Y0122825D02*
X0051827Y0124183D01*
G75*
G02*
X0052408Y0124763I0000581J0000000D01*
G01*
X0053569Y0124763D01*
G75*
G02*
X0054150Y0124183I0000000J-000581D01*
G01*
X0054150Y0122825D01*
G75*
G02*
X0053569Y0122244I-000581J0000000D01*
G01*
X0052408Y0122244D01*
G75*
G02*
X0051827Y0122825I0000000J0000581D01*
G01*
G37*
G36*
G01*
X0055646Y0122825D02*
X0055646Y0124183D01*
G75*
G02*
X0056226Y0124763I0000581J0000000D01*
G01*
X0057388Y0124763D01*
G75*
G02*
X0057969Y0124183I0000000J-000581D01*
G01*
X0057969Y0122825D01*
G75*
G02*
X0057388Y0122244I-000581J0000000D01*
G01*
X0056226Y0122244D01*
G75*
G02*
X0055646Y0122825I0000000J0000581D01*
G01*
G37*
D319*
X0026945Y0061358D03*
X0026945Y0073366D03*
X0013756Y0061358D03*
X0013756Y0073366D03*
D315*
X0045154Y0058386D03*
X0045154Y0076338D03*
G36*
G01*
X0025380Y0133858D02*
X0026738Y0133858D01*
G75*
G02*
X0027319Y0133277I0000000J-000581D01*
G01*
X0027319Y0132116D01*
G75*
G02*
X0026738Y0131535I-000581J0000000D01*
G01*
X0025380Y0131535D01*
G75*
G02*
X0024799Y0132116I0000000J0000581D01*
G01*
X0024799Y0133277D01*
G75*
G02*
X0025380Y0133858I0000581J0000000D01*
G01*
G37*
G36*
G01*
X0025380Y0130039D02*
X0026738Y0130039D01*
G75*
G02*
X0027319Y0129458I0000000J-000581D01*
G01*
X0027319Y0128297D01*
G75*
G02*
X0026738Y0127716I-000581J0000000D01*
G01*
X0025380Y0127716D01*
G75*
G02*
X0024799Y0128297I0000000J0000581D01*
G01*
X0024799Y0129458D01*
G75*
G02*
X0025380Y0130039I0000581J0000000D01*
G01*
G37*
G36*
G01*
X0011714Y0095354D02*
X0009696Y0095354D01*
G75*
G02*
X0008835Y0096215I0000000J0000861D01*
G01*
X0008835Y0097938D01*
G75*
G02*
X0009696Y0098799I0000861J0000000D01*
G01*
X0011714Y0098799D01*
G75*
G02*
X0012575Y0097938I0000000J-000861D01*
G01*
X0012575Y0096215D01*
G75*
G02*
X0011714Y0095354I-000861J0000000D01*
G01*
G37*
G36*
G01*
X0011714Y0101555D02*
X0009696Y0101555D01*
G75*
G02*
X0008835Y0102416I0000000J0000861D01*
G01*
X0008835Y0104138D01*
G75*
G02*
X0009696Y0105000I0000861J0000000D01*
G01*
X0011714Y0105000D01*
G75*
G02*
X0012575Y0104138I0000000J-000861D01*
G01*
X0012575Y0102416D01*
G75*
G02*
X0011714Y0101555I-000861J0000000D01*
G01*
G37*
G36*
G01*
X0015646Y0092982D02*
X0015646Y0091624D01*
G75*
G02*
X0015065Y0091043I-000581J0000000D01*
G01*
X0013904Y0091043D01*
G75*
G02*
X0013323Y0091624I0000000J0000581D01*
G01*
X0013323Y0092982D01*
G75*
G02*
X0013904Y0093563I0000581J0000000D01*
G01*
X0015065Y0093563D01*
G75*
G02*
X0015646Y0092982I0000000J-000581D01*
G01*
G37*
G36*
G01*
X0011827Y0092982D02*
X0011827Y0091624D01*
G75*
G02*
X0011246Y0091043I-000581J0000000D01*
G01*
X0010085Y0091043D01*
G75*
G02*
X0009504Y0091624I0000000J0000581D01*
G01*
X0009504Y0092982D01*
G75*
G02*
X0010085Y0093563I0000581J0000000D01*
G01*
X0011246Y0093563D01*
G75*
G02*
X0011827Y0092982I0000000J-000581D01*
G01*
G37*
G36*
G01*
X0011099Y0048873D02*
X0011099Y0050890D01*
G75*
G02*
X0011960Y0051752I0000861J0000000D01*
G01*
X0013682Y0051752D01*
G75*
G02*
X0014543Y0050890I0000000J-000861D01*
G01*
X0014543Y0048873D01*
G75*
G02*
X0013682Y0048012I-000861J0000000D01*
G01*
X0011960Y0048012D01*
G75*
G02*
X0011099Y0048873I0000000J0000861D01*
G01*
G37*
G36*
G01*
X0017299Y0048873D02*
X0017299Y0050890D01*
G75*
G02*
X0018161Y0051752I0000861J0000000D01*
G01*
X0019883Y0051752D01*
G75*
G02*
X0020744Y0050890I0000000J-000861D01*
G01*
X0020744Y0048873D01*
G75*
G02*
X0019883Y0048012I-000861J0000000D01*
G01*
X0018161Y0048012D01*
G75*
G02*
X0017299Y0048873I0000000J0000861D01*
G01*
G37*
G36*
G01*
X0009696Y0116712D02*
X0011714Y0116712D01*
G75*
G02*
X0012575Y0115851I0000000J-000861D01*
G01*
X0012575Y0114129D01*
G75*
G02*
X0011714Y0113267I-000861J0000000D01*
G01*
X0009696Y0113267D01*
G75*
G02*
X0008835Y0114129I0000000J0000861D01*
G01*
X0008835Y0115851D01*
G75*
G02*
X0009696Y0116712I0000861J0000000D01*
G01*
G37*
G36*
G01*
X0009696Y0110512D02*
X0011714Y0110512D01*
G75*
G02*
X0012575Y0109650I0000000J-000861D01*
G01*
X0012575Y0107928D01*
G75*
G02*
X0011714Y0107067I-000861J0000000D01*
G01*
X0009696Y0107067D01*
G75*
G02*
X0008835Y0107928I0000000J0000861D01*
G01*
X0008835Y0109650D01*
G75*
G02*
X0009696Y0110512I0000861J0000000D01*
G01*
G37*
G36*
G01*
X0013874Y0121033D02*
X0013874Y0119675D01*
G75*
G02*
X0013293Y0119094I-000581J0000000D01*
G01*
X0012132Y0119094D01*
G75*
G02*
X0011551Y0119675I0000000J0000581D01*
G01*
X0011551Y0121033D01*
G75*
G02*
X0012132Y0121614I0000581J0000000D01*
G01*
X0013293Y0121614D01*
G75*
G02*
X0013874Y0121033I0000000J-000581D01*
G01*
G37*
G36*
G01*
X0010055Y0121033D02*
X0010055Y0119675D01*
G75*
G02*
X0009474Y0119094I-000581J0000000D01*
G01*
X0008313Y0119094D01*
G75*
G02*
X0007732Y0119675I0000000J0000581D01*
G01*
X0007732Y0121033D01*
G75*
G02*
X0008313Y0121614I0000581J0000000D01*
G01*
X0009474Y0121614D01*
G75*
G02*
X0010055Y0121033I0000000J-000581D01*
G01*
G37*
G36*
G01*
X0026551Y0086594D02*
X0025567Y0086594D01*
G75*
G02*
X0025075Y0087086I0000000J0000492D01*
G01*
X0025075Y0092008D01*
G75*
G02*
X0025567Y0092500I0000492J0000000D01*
G01*
X0026551Y0092500D01*
G75*
G02*
X0027043Y0092008I0000000J-000492D01*
G01*
X0027043Y0087086D01*
G75*
G02*
X0026551Y0086594I-000492J0000000D01*
G01*
G37*
G36*
G01*
X0029701Y0086594D02*
X0028717Y0086594D01*
G75*
G02*
X0028224Y0087086I0000000J0000492D01*
G01*
X0028224Y0092008D01*
G75*
G02*
X0028717Y0092500I0000492J0000000D01*
G01*
X0029701Y0092500D01*
G75*
G02*
X0030193Y0092008I0000000J-000492D01*
G01*
X0030193Y0087086D01*
G75*
G02*
X0029701Y0086594I-000492J0000000D01*
G01*
G37*
G36*
G01*
X0032850Y0086594D02*
X0031866Y0086594D01*
G75*
G02*
X0031374Y0087086I0000000J0000492D01*
G01*
X0031374Y0092008D01*
G75*
G02*
X0031866Y0092500I0000492J0000000D01*
G01*
X0032850Y0092500D01*
G75*
G02*
X0033343Y0092008I0000000J-000492D01*
G01*
X0033343Y0087086D01*
G75*
G02*
X0032850Y0086594I-000492J0000000D01*
G01*
G37*
G36*
G01*
X0036000Y0086594D02*
X0035016Y0086594D01*
G75*
G02*
X0034524Y0087086I0000000J0000492D01*
G01*
X0034524Y0092008D01*
G75*
G02*
X0035016Y0092500I0000492J0000000D01*
G01*
X0036000Y0092500D01*
G75*
G02*
X0036492Y0092008I0000000J-000492D01*
G01*
X0036492Y0087086D01*
G75*
G02*
X0036000Y0086594I-000492J0000000D01*
G01*
G37*
G36*
G01*
X0039150Y0086594D02*
X0038165Y0086594D01*
G75*
G02*
X0037673Y0087086I0000000J0000492D01*
G01*
X0037673Y0092008D01*
G75*
G02*
X0038165Y0092500I0000492J0000000D01*
G01*
X0039150Y0092500D01*
G75*
G02*
X0039642Y0092008I0000000J-000492D01*
G01*
X0039642Y0087086D01*
G75*
G02*
X0039150Y0086594I-000492J0000000D01*
G01*
G37*
G36*
G01*
X0042299Y0086594D02*
X0041315Y0086594D01*
G75*
G02*
X0040823Y0087086I0000000J0000492D01*
G01*
X0040823Y0092008D01*
G75*
G02*
X0041315Y0092500I0000492J0000000D01*
G01*
X0042299Y0092500D01*
G75*
G02*
X0042791Y0092008I0000000J-000492D01*
G01*
X0042791Y0087086D01*
G75*
G02*
X0042299Y0086594I-000492J0000000D01*
G01*
G37*
G36*
G01*
X0045449Y0086594D02*
X0044465Y0086594D01*
G75*
G02*
X0043973Y0087086I0000000J0000492D01*
G01*
X0043973Y0092008D01*
G75*
G02*
X0044465Y0092500I0000492J0000000D01*
G01*
X0045449Y0092500D01*
G75*
G02*
X0045941Y0092008I0000000J-000492D01*
G01*
X0045941Y0087086D01*
G75*
G02*
X0045449Y0086594I-000492J0000000D01*
G01*
G37*
G36*
G01*
X0048599Y0086594D02*
X0047614Y0086594D01*
G75*
G02*
X0047122Y0087086I0000000J0000492D01*
G01*
X0047122Y0092008D01*
G75*
G02*
X0047614Y0092500I0000492J0000000D01*
G01*
X0048599Y0092500D01*
G75*
G02*
X0049091Y0092008I0000000J-000492D01*
G01*
X0049091Y0087086D01*
G75*
G02*
X0048599Y0086594I-000492J0000000D01*
G01*
G37*
G36*
G01*
X0055980Y0093976D02*
X0051059Y0093976D01*
G75*
G02*
X0050567Y0094468I0000000J0000492D01*
G01*
X0050567Y0095452D01*
G75*
G02*
X0051059Y0095945I0000492J0000000D01*
G01*
X0055980Y0095945D01*
G75*
G02*
X0056473Y0095452I0000000J-000492D01*
G01*
X0056473Y0094468D01*
G75*
G02*
X0055980Y0093976I-000492J0000000D01*
G01*
G37*
G36*
G01*
X0055980Y0097126D02*
X0051059Y0097126D01*
G75*
G02*
X0050567Y0097618I0000000J0000492D01*
G01*
X0050567Y0098602D01*
G75*
G02*
X0051059Y0099094I0000492J0000000D01*
G01*
X0055980Y0099094D01*
G75*
G02*
X0056473Y0098602I0000000J-000492D01*
G01*
X0056473Y0097618D01*
G75*
G02*
X0055980Y0097126I-000492J0000000D01*
G01*
G37*
G36*
G01*
X0055980Y0100275D02*
X0051059Y0100275D01*
G75*
G02*
X0050567Y0100767I0000000J0000492D01*
G01*
X0050567Y0101752D01*
G75*
G02*
X0051059Y0102244I0000492J0000000D01*
G01*
X0055980Y0102244D01*
G75*
G02*
X0056473Y0101752I0000000J-000492D01*
G01*
X0056473Y0100767D01*
G75*
G02*
X0055980Y0100275I-000492J0000000D01*
G01*
G37*
G36*
G01*
X0055980Y0103425D02*
X0051059Y0103425D01*
G75*
G02*
X0050567Y0103917I0000000J0000492D01*
G01*
X0050567Y0104901D01*
G75*
G02*
X0051059Y0105393I0000492J0000000D01*
G01*
X0055980Y0105393D01*
G75*
G02*
X0056473Y0104901I0000000J-000492D01*
G01*
X0056473Y0103917D01*
G75*
G02*
X0055980Y0103425I-000492J0000000D01*
G01*
G37*
G36*
G01*
X0055980Y0106575D02*
X0051059Y0106575D01*
G75*
G02*
X0050567Y0107067I0000000J0000492D01*
G01*
X0050567Y0108051D01*
G75*
G02*
X0051059Y0108543I0000492J0000000D01*
G01*
X0055980Y0108543D01*
G75*
G02*
X0056473Y0108051I0000000J-000492D01*
G01*
X0056473Y0107067D01*
G75*
G02*
X0055980Y0106575I-000492J0000000D01*
G01*
G37*
G36*
G01*
X0055980Y0109724D02*
X0051059Y0109724D01*
G75*
G02*
X0050567Y0110216I0000000J0000492D01*
G01*
X0050567Y0111200D01*
G75*
G02*
X0051059Y0111693I0000492J0000000D01*
G01*
X0055980Y0111693D01*
G75*
G02*
X0056473Y0111200I0000000J-000492D01*
G01*
X0056473Y0110216D01*
G75*
G02*
X0055980Y0109724I-000492J0000000D01*
G01*
G37*
G36*
G01*
X0055980Y0112874D02*
X0051059Y0112874D01*
G75*
G02*
X0050567Y0113366I0000000J0000492D01*
G01*
X0050567Y0114350D01*
G75*
G02*
X0051059Y0114842I0000492J0000000D01*
G01*
X0055980Y0114842D01*
G75*
G02*
X0056473Y0114350I0000000J-000492D01*
G01*
X0056473Y0113366D01*
G75*
G02*
X0055980Y0112874I-000492J0000000D01*
G01*
G37*
G36*
G01*
X0055980Y0116023D02*
X0051059Y0116023D01*
G75*
G02*
X0050567Y0116515I0000000J0000492D01*
G01*
X0050567Y0117500D01*
G75*
G02*
X0051059Y0117992I0000492J0000000D01*
G01*
X0055980Y0117992D01*
G75*
G02*
X0056473Y0117500I0000000J-000492D01*
G01*
X0056473Y0116515D01*
G75*
G02*
X0055980Y0116023I-000492J0000000D01*
G01*
G37*
G36*
G01*
X0048599Y0119468D02*
X0047614Y0119468D01*
G75*
G02*
X0047122Y0119960I0000000J0000492D01*
G01*
X0047122Y0124882D01*
G75*
G02*
X0047614Y0125374I0000492J0000000D01*
G01*
X0048599Y0125374D01*
G75*
G02*
X0049091Y0124882I0000000J-000492D01*
G01*
X0049091Y0119960D01*
G75*
G02*
X0048599Y0119468I-000492J0000000D01*
G01*
G37*
G36*
G01*
X0045449Y0119468D02*
X0044465Y0119468D01*
G75*
G02*
X0043973Y0119960I0000000J0000492D01*
G01*
X0043973Y0124882D01*
G75*
G02*
X0044465Y0125374I0000492J0000000D01*
G01*
X0045449Y0125374D01*
G75*
G02*
X0045941Y0124882I0000000J-000492D01*
G01*
X0045941Y0119960D01*
G75*
G02*
X0045449Y0119468I-000492J0000000D01*
G01*
G37*
G36*
G01*
X0042299Y0119468D02*
X0041315Y0119468D01*
G75*
G02*
X0040823Y0119960I0000000J0000492D01*
G01*
X0040823Y0124882D01*
G75*
G02*
X0041315Y0125374I0000492J0000000D01*
G01*
X0042299Y0125374D01*
G75*
G02*
X0042791Y0124882I0000000J-000492D01*
G01*
X0042791Y0119960D01*
G75*
G02*
X0042299Y0119468I-000492J0000000D01*
G01*
G37*
G36*
G01*
X0039150Y0119468D02*
X0038165Y0119468D01*
G75*
G02*
X0037673Y0119960I0000000J0000492D01*
G01*
X0037673Y0124882D01*
G75*
G02*
X0038165Y0125374I0000492J0000000D01*
G01*
X0039150Y0125374D01*
G75*
G02*
X0039642Y0124882I0000000J-000492D01*
G01*
X0039642Y0119960D01*
G75*
G02*
X0039150Y0119468I-000492J0000000D01*
G01*
G37*
G36*
G01*
X0036000Y0119468D02*
X0035016Y0119468D01*
G75*
G02*
X0034524Y0119960I0000000J0000492D01*
G01*
X0034524Y0124882D01*
G75*
G02*
X0035016Y0125374I0000492J0000000D01*
G01*
X0036000Y0125374D01*
G75*
G02*
X0036492Y0124882I0000000J-000492D01*
G01*
X0036492Y0119960D01*
G75*
G02*
X0036000Y0119468I-000492J0000000D01*
G01*
G37*
G36*
G01*
X0032850Y0119468D02*
X0031866Y0119468D01*
G75*
G02*
X0031374Y0119960I0000000J0000492D01*
G01*
X0031374Y0124882D01*
G75*
G02*
X0031866Y0125374I0000492J0000000D01*
G01*
X0032850Y0125374D01*
G75*
G02*
X0033343Y0124882I0000000J-000492D01*
G01*
X0033343Y0119960D01*
G75*
G02*
X0032850Y0119468I-000492J0000000D01*
G01*
G37*
G36*
G01*
X0029701Y0119468D02*
X0028717Y0119468D01*
G75*
G02*
X0028224Y0119960I0000000J0000492D01*
G01*
X0028224Y0124882D01*
G75*
G02*
X0028717Y0125374I0000492J0000000D01*
G01*
X0029701Y0125374D01*
G75*
G02*
X0030193Y0124882I0000000J-000492D01*
G01*
X0030193Y0119960D01*
G75*
G02*
X0029701Y0119468I-000492J0000000D01*
G01*
G37*
G36*
G01*
X0026551Y0119468D02*
X0025567Y0119468D01*
G75*
G02*
X0025075Y0119960I0000000J0000492D01*
G01*
X0025075Y0124882D01*
G75*
G02*
X0025567Y0125374I0000492J0000000D01*
G01*
X0026551Y0125374D01*
G75*
G02*
X0027043Y0124882I0000000J-000492D01*
G01*
X0027043Y0119960D01*
G75*
G02*
X0026551Y0119468I-000492J0000000D01*
G01*
G37*
G36*
G01*
X0023106Y0116023D02*
X0018185Y0116023D01*
G75*
G02*
X0017693Y0116515I0000000J0000492D01*
G01*
X0017693Y0117500D01*
G75*
G02*
X0018185Y0117992I0000492J0000000D01*
G01*
X0023106Y0117992D01*
G75*
G02*
X0023599Y0117500I0000000J-000492D01*
G01*
X0023599Y0116515D01*
G75*
G02*
X0023106Y0116023I-000492J0000000D01*
G01*
G37*
G36*
G01*
X0023106Y0112874D02*
X0018185Y0112874D01*
G75*
G02*
X0017693Y0113366I0000000J0000492D01*
G01*
X0017693Y0114350D01*
G75*
G02*
X0018185Y0114842I0000492J0000000D01*
G01*
X0023106Y0114842D01*
G75*
G02*
X0023599Y0114350I0000000J-000492D01*
G01*
X0023599Y0113366D01*
G75*
G02*
X0023106Y0112874I-000492J0000000D01*
G01*
G37*
G36*
G01*
X0023106Y0109724D02*
X0018185Y0109724D01*
G75*
G02*
X0017693Y0110216I0000000J0000492D01*
G01*
X0017693Y0111200D01*
G75*
G02*
X0018185Y0111693I0000492J0000000D01*
G01*
X0023106Y0111693D01*
G75*
G02*
X0023599Y0111200I0000000J-000492D01*
G01*
X0023599Y0110216D01*
G75*
G02*
X0023106Y0109724I-000492J0000000D01*
G01*
G37*
G36*
G01*
X0023106Y0106575D02*
X0018185Y0106575D01*
G75*
G02*
X0017693Y0107067I0000000J0000492D01*
G01*
X0017693Y0108051D01*
G75*
G02*
X0018185Y0108543I0000492J0000000D01*
G01*
X0023106Y0108543D01*
G75*
G02*
X0023599Y0108051I0000000J-000492D01*
G01*
X0023599Y0107067D01*
G75*
G02*
X0023106Y0106575I-000492J0000000D01*
G01*
G37*
G36*
G01*
X0023106Y0103425D02*
X0018185Y0103425D01*
G75*
G02*
X0017693Y0103917I0000000J0000492D01*
G01*
X0017693Y0104901D01*
G75*
G02*
X0018185Y0105393I0000492J0000000D01*
G01*
X0023106Y0105393D01*
G75*
G02*
X0023599Y0104901I0000000J-000492D01*
G01*
X0023599Y0103917D01*
G75*
G02*
X0023106Y0103425I-000492J0000000D01*
G01*
G37*
G36*
G01*
X0023106Y0100275D02*
X0018185Y0100275D01*
G75*
G02*
X0017693Y0100767I0000000J0000492D01*
G01*
X0017693Y0101752D01*
G75*
G02*
X0018185Y0102244I0000492J0000000D01*
G01*
X0023106Y0102244D01*
G75*
G02*
X0023599Y0101752I0000000J-000492D01*
G01*
X0023599Y0100767D01*
G75*
G02*
X0023106Y0100275I-000492J0000000D01*
G01*
G37*
G36*
G01*
X0023106Y0097126D02*
X0018185Y0097126D01*
G75*
G02*
X0017693Y0097618I0000000J0000492D01*
G01*
X0017693Y0098602D01*
G75*
G02*
X0018185Y0099094I0000492J0000000D01*
G01*
X0023106Y0099094D01*
G75*
G02*
X0023599Y0098602I0000000J-000492D01*
G01*
X0023599Y0097618D01*
G75*
G02*
X0023106Y0097126I-000492J0000000D01*
G01*
G37*
G36*
G01*
X0023106Y0093976D02*
X0018185Y0093976D01*
G75*
G02*
X0017693Y0094468I0000000J0000492D01*
G01*
X0017693Y0095452D01*
G75*
G02*
X0018185Y0095945I0000492J0000000D01*
G01*
X0023106Y0095945D01*
G75*
G02*
X0023599Y0095452I0000000J-000492D01*
G01*
X0023599Y0094468D01*
G75*
G02*
X0023106Y0093976I-000492J0000000D01*
G01*
G37*
G36*
G01*
X0044652Y0128602D02*
X0043293Y0128602D01*
G75*
G02*
X0042713Y0129183I0000000J0000581D01*
G01*
X0042713Y0130344D01*
G75*
G02*
X0043293Y0130925I0000581J0000000D01*
G01*
X0044652Y0130925D01*
G75*
G02*
X0045232Y0130344I0000000J-000581D01*
G01*
X0045232Y0129183D01*
G75*
G02*
X0044652Y0128602I-000581J0000000D01*
G01*
G37*
G36*
G01*
X0044652Y0132421D02*
X0043293Y0132421D01*
G75*
G02*
X0042713Y0133002I0000000J0000581D01*
G01*
X0042713Y0134163D01*
G75*
G02*
X0043293Y0134744I0000581J0000000D01*
G01*
X0044652Y0134744D01*
G75*
G02*
X0045232Y0134163I0000000J-000581D01*
G01*
X0045232Y0133002D01*
G75*
G02*
X0044652Y0132421I-000581J0000000D01*
G01*
G37*
G36*
G01*
X0021256Y0121525D02*
X0021256Y0120167D01*
G75*
G02*
X0020675Y0119586I-000581J0000000D01*
G01*
X0019514Y0119586D01*
G75*
G02*
X0018933Y0120167I0000000J0000581D01*
G01*
X0018933Y0121525D01*
G75*
G02*
X0019514Y0122106I0000581J0000000D01*
G01*
X0020675Y0122106D01*
G75*
G02*
X0021256Y0121525I0000000J-000581D01*
G01*
G37*
G36*
G01*
X0017437Y0121525D02*
X0017437Y0120167D01*
G75*
G02*
X0016856Y0119586I-000581J0000000D01*
G01*
X0015695Y0119586D01*
G75*
G02*
X0015114Y0120167I0000000J0000581D01*
G01*
X0015114Y0121525D01*
G75*
G02*
X0015695Y0122106I0000581J0000000D01*
G01*
X0016856Y0122106D01*
G75*
G02*
X0017437Y0121525I0000000J-000581D01*
G01*
G37*
G36*
G01*
X0043293Y0145169D02*
X0044652Y0145169D01*
G75*
G02*
X0045232Y0144588I0000000J-000581D01*
G01*
X0045232Y0143427D01*
G75*
G02*
X0044652Y0142846I-000581J0000000D01*
G01*
X0043293Y0142846D01*
G75*
G02*
X0042713Y0143427I0000000J0000581D01*
G01*
X0042713Y0144588D01*
G75*
G02*
X0043293Y0145169I0000581J0000000D01*
G01*
G37*
G36*
G01*
X0043293Y0141350D02*
X0044652Y0141350D01*
G75*
G02*
X0045232Y0140769I0000000J-000581D01*
G01*
X0045232Y0139608D01*
G75*
G02*
X0044652Y0139027I-000581J0000000D01*
G01*
X0043293Y0139027D01*
G75*
G02*
X0042713Y0139608I0000000J0000581D01*
G01*
X0042713Y0140769D01*
G75*
G02*
X0043293Y0141350I0000581J0000000D01*
G01*
G37*
D134*
X0048894Y0143681D03*
X0048894Y0136200D03*
X0056768Y0139941D03*
G36*
G01*
X0023126Y0084616D02*
X0023126Y0083258D01*
G75*
G02*
X0022545Y0082677I-000581J0000000D01*
G01*
X0021384Y0082677D01*
G75*
G02*
X0020803Y0083258I0000000J0000581D01*
G01*
X0020803Y0084616D01*
G75*
G02*
X0021384Y0085197I0000581J0000000D01*
G01*
X0022545Y0085197D01*
G75*
G02*
X0023126Y0084616I0000000J-000581D01*
G01*
G37*
G36*
G01*
X0019307Y0084616D02*
X0019307Y0083258D01*
G75*
G02*
X0018726Y0082677I-000581J0000000D01*
G01*
X0017565Y0082677D01*
G75*
G02*
X0016984Y0083258I0000000J0000581D01*
G01*
X0016984Y0084616D01*
G75*
G02*
X0017565Y0085197I0000581J0000000D01*
G01*
X0018726Y0085197D01*
G75*
G02*
X0019307Y0084616I0000000J-000581D01*
G01*
G37*
G36*
G01*
X0058165Y0130743D02*
X0058165Y0128725D01*
G75*
G02*
X0057304Y0127864I-000861J0000000D01*
G01*
X0055582Y0127864D01*
G75*
G02*
X0054721Y0128725I0000000J0000861D01*
G01*
X0054721Y0130743D01*
G75*
G02*
X0055582Y0131604I0000861J0000000D01*
G01*
X0057304Y0131604D01*
G75*
G02*
X0058165Y0130743I0000000J-000861D01*
G01*
G37*
G36*
G01*
X0051965Y0130743D02*
X0051965Y0128725D01*
G75*
G02*
X0051103Y0127864I-000861J0000000D01*
G01*
X0049381Y0127864D01*
G75*
G02*
X0048520Y0128725I0000000J0000861D01*
G01*
X0048520Y0130743D01*
G75*
G02*
X0049381Y0131604I0000861J0000000D01*
G01*
X0051103Y0131604D01*
G75*
G02*
X0051965Y0130743I0000000J-000861D01*
G01*
G37*
M02*
