M48
INCH,TZ
T01C0.009850
T02C0.015700
T03C0.029550
T04C0.032000
T05C0.039200
T06C0.043300
T07C0.068900
T08C0.112200
T09C0.126000
%
T01
X5000Y20422
X5009Y17144
X10082Y14663
X11756Y14657
X11793Y3220
X13129Y26793
X13130Y26263
X13890Y14324
X14357Y22304
X14972Y22208
X15459Y8994
X15469Y5789
X17043Y7491
X17062Y17859
X17142Y16517
X17705Y25111
X17758Y11688
X17825Y7170
X17950Y8235
X18928Y4524
X19145Y3485
X22481Y7005
X24215Y5800
X25668Y21968
X28035Y24904
X30635Y22318
X31506Y424
X32298Y21687
X32379Y7210
X32817Y21897
X33101Y7658
X33554Y16753
X38593Y7166
X38821Y17034
X38945Y2257
X38958Y12344
X39105Y7147
X41172Y1399
X43046Y7581
X43523Y13965
X45070Y15080
X45141Y25369
X46908Y18785
X46919Y16324
X48584Y19703
X48649Y27846
X48977Y16542
X49247Y21766
X50040Y11294
X50136Y18312
X50821Y21837
X51778Y21755
X52249Y21262
X53019Y16993
X53855Y13049
X54192Y27553
X55040Y10306
X56005Y10326
X56473Y21708
X58016Y17405
X59184Y12308
X1177Y4366
X1571Y4366
X1964Y4366
X2358Y4366
X3285Y14835
X3685Y14835
X4582Y14835
X4976Y14835
X5370Y14835
X8527Y10444
X8527Y10050
X18389Y17148
X18389Y16833
X18389Y16518
X18389Y16203
X18389Y15888
X18389Y15573
X18389Y15258
X18389Y14944
X18389Y14629
X18389Y14314
X18389Y13999
X18389Y13684
X18389Y13369
X18389Y13054
X18389Y12424
X18389Y11873
X18389Y11558
X18389Y11243
X18389Y10928
X18389Y10613
X18389Y10298
X18389Y18841
X18389Y12739
X18546Y7463
X18861Y7463
X19176Y7463
X19491Y7463
X19806Y7463
X20121Y7463
X20436Y7463
X20751Y7463
X20987Y21400
X21066Y7463
X21381Y7463
X21460Y21400
X21696Y7463
X21932Y21400
X22011Y7463
X22404Y21400
X22877Y21400
X22956Y7463
X23271Y7463
X23349Y21400
X23586Y7463
X23822Y21400
X23901Y7463
X24215Y7463
X24294Y21400
X24530Y7463
X24767Y21400
X24845Y7463
X25160Y7463
X25239Y21400
X25475Y7463
X25712Y21400
X26184Y21400
X26656Y21400
X27129Y21400
X27168Y7463
X27601Y21400
X28074Y21400
X28231Y7463
X28546Y21400
X28625Y7463
X29019Y21400
X29491Y21400
X29964Y21400
X30436Y21400
X31381Y21400
X31538Y20416
X31538Y20022
X31538Y15810
X31538Y15416
X31538Y15022
X31538Y14629
X31538Y14235
X31538Y13841
X31538Y13447
X31538Y13054
X31538Y12030
X31538Y11715
X31538Y9865
X31538Y9314
X31538Y7463
X44075Y9028
X44075Y8634
X44075Y8241
X44075Y7847
X54544Y6920
X54544Y6520
X54544Y5623
X54544Y5229
X54544Y4835
X14001Y11690
X14273Y11054
X14059Y10669
X14700Y10240
X14740Y9904
X14543Y9314
X14267Y9058
X14149Y8527
X14543Y8231
X14740Y8723
X14740Y7542
X14740Y5967
X14267Y5987
X13156Y5695
X12109Y5720
X11787Y6008
X10734Y6083
X9622Y5967
X8834Y5967
X9307Y6971
X9952Y6977
X9892Y8223
X9425Y8133
X9257Y8613
X8834Y8330
X9256Y9498
X8560Y9670
X8519Y10062
X8519Y10456
X9201Y10362
X9511Y10851
X9124Y11168
X9521Y11598
X9910Y11219
X9985Y10495
X9937Y10062
X11253Y11047
X11253Y11676
X12172Y11690
X13027Y11690
X12804Y11048
X12220Y10023
X11827Y8576
X12574Y8527
X12141Y8017
X11552Y7019
X10606Y5062
X9674Y4995
X9622Y4590
X8834Y4786
X9228Y5377
X11702Y4237
X11660Y3831
X12489Y4247
X12754Y4650
X14191Y4573
X13782Y5208
X14622Y5441
X54599Y7308
X54524Y4378
X54480Y6048
X54480Y9414
X54247Y9224
X54191Y7944
X54191Y7633
X54037Y4610
X53809Y6201
X53717Y5503
X53654Y8131
X53517Y9064
X53225Y9336
X53122Y4296
X53076Y4933
X53034Y5310
X52959Y6617
X52955Y7854
X52679Y9375
X52598Y7289
X52473Y8578
X52413Y6629
X52404Y5582
X52295Y7339
X52197Y9414
X51400Y4291
X51232Y8607
X50942Y6802
X50712Y5863
X50711Y7363
X50710Y6570
X50504Y6327
X50484Y9513
X50426Y6668
X50119Y5291
X49911Y7426
X49822Y5342
X49697Y9483
X49681Y5989
X49512Y5336
X49494Y8769
X49421Y7387
X49362Y6387
X49209Y5712
X49205Y8686
X48904Y7953
X48886Y4987
X48878Y4686
X48506Y9493
X48299Y4855
X48274Y4270
X48265Y5154
X48008Y4489
X47870Y6131
X47824Y6978
X47754Y7491
X47754Y8391
X47754Y8692
X47754Y8993
X47754Y9294
X47750Y7899
X47374Y6363
X47118Y6580
X45043Y9535
X44826Y7786
X44786Y4533
X44638Y4946
X44539Y7879
X44500Y5527
X44500Y5802
X44500Y6078
X44323Y4966
X44303Y9542
X44195Y5527
X44195Y5802
X43998Y4552
X54536Y4847
X54536Y5241
X54536Y5635
X54536Y6533
X54536Y6933
X44067Y7859
X44067Y8253
X44067Y8647
X44067Y9040
X31372Y21412
X30896Y21381
X30664Y21191
X30428Y21412
X30191Y21211
X29955Y21412
X29719Y21211
X29483Y21412
X29246Y21211
X29010Y21412
X28774Y21211
X28538Y21412
X28302Y21211
X28065Y21412
X27829Y21211
X27593Y21412
X27357Y21211
X27120Y21412
X26884Y21211
X26648Y21412
X26412Y21211
X26176Y21412
X25939Y21211
X25703Y21412
X25467Y21211
X25231Y21412
X24994Y21211
X24758Y21412
X24522Y21211
X24286Y21412
X24050Y21211
X23813Y21412
X23577Y21211
X23341Y21412
X23105Y21211
X22868Y21412
X22632Y21211
X22396Y21412
X22160Y21211
X21924Y21412
X21687Y21211
X21451Y21412
X21215Y21211
X20979Y21412
X20664Y21254
X20671Y20719
X21098Y20525
X21549Y20515
X21991Y20508
X22464Y20510
X22969Y19463
X23279Y19463
X23526Y19936
X24124Y19733
X24420Y19724
X24263Y19453
X24146Y18771
X24401Y18503
X24498Y17962
X24059Y17962
X23599Y18082
X23599Y17750
X23599Y17455
X23605Y17164
X23275Y16480
X22730Y16484
X22868Y15900
X23498Y15979
X23568Y15147
X23583Y14761
X23931Y14955
X24165Y15155
X24422Y14722
X25115Y14421
X25713Y14404
X26060Y14700
X26835Y14525
X26817Y15080
X26827Y15627
X27535Y15500
X27490Y14701
X27516Y13936
X27538Y13126
X26835Y13086
X26835Y13371
X26835Y13656
X26835Y12785
X26047Y12469
X26060Y12184
X26092Y11886
X26042Y11404
X25638Y11353
X25008Y10875
X24631Y10887
X23695Y10743
X23370Y11343
X23162Y11140
X23180Y11667
X22822Y11714
X23373Y11898
X23579Y13041
X23802Y13270
X23848Y13953
X24139Y13964
X23652Y14172
X22983Y14172
X22117Y14361
X21923Y14575
X21719Y14779
X21517Y14981
X21520Y14168
X21967Y13703
X21980Y13002
X21604Y13100
X21727Y12632
X21929Y12095
X21689Y11869
X21495Y11471
X21687Y11215
X21788Y10832
X21828Y10526
X21530Y10624
X21026Y10826
X20970Y11127
X21026Y11689
X20879Y11934
X21136Y12317
X21154Y12808
X19926Y13200
X19616Y13514
X19798Y13735
X19833Y14255
X18380Y14325
X18380Y14010
X18380Y13695
X18380Y13380
X18380Y13065
X18380Y12750
X18380Y12436
X18519Y12158
X18380Y11884
X18380Y11569
X18380Y11254
X18380Y10939
X18380Y10624
X18380Y10310
X18737Y10222
X18520Y9978
X18829Y9276
X18833Y8341
X19206Y8297
X19208Y8582
X19581Y8341
X19483Y7475
X19798Y7475
X20113Y7475
X20428Y7475
X20742Y7475
X21057Y7475
X21372Y7475
X21687Y7475
X22002Y7475
X22593Y7672
X22947Y7475
X23262Y7475
X23577Y7475
X23892Y7475
X24207Y7475
X24522Y7475
X24837Y7475
X25152Y7475
X25467Y7475
X25979Y7514
X25885Y8169
X26283Y8205
X26628Y8160
X26907Y8462
X26849Y7707
X27160Y7475
X28223Y7475
X28617Y7475
X28978Y7499
X28970Y7962
X29200Y8407
X29281Y9280
X29721Y9057
X28535Y8745
X28072Y8426
X28115Y9277
X27672Y9325
X27187Y9753
X27179Y10038
X27111Y10398
X27108Y10694
X27838Y10595
X27829Y10979
X27838Y11304
X27499Y11632
X27838Y12012
X27822Y12364
X27842Y12659
X27525Y12341
X28520Y11913
X28523Y11469
X29699Y11613
X29679Y12134
X29680Y12523
X28855Y12988
X28555Y12949
X28532Y13402
X28532Y13689
X28532Y13976
X28532Y14392
X28532Y14678
X28514Y15102
X28514Y15410
X28514Y15699
X28290Y16439
X28010Y16534
X27698Y16929
X27996Y17249
X27996Y17815
X28003Y18101
X27912Y18762
X28115Y19507
X27947Y19739
X28247Y19774
X28872Y19938
X29168Y19938
X29794Y19733
X30080Y19733
X29916Y19450
X29812Y18774
X29971Y18505
X30151Y17928
X29675Y17928
X29189Y18082
X29189Y17750
X29189Y17455
X29196Y17164
X29959Y16942
X29955Y16565
X30758Y16557
X30731Y16891
X31026Y16459
X31505Y16416
X31530Y15821
X31530Y15428
X31530Y15034
X31530Y14640
X31530Y14247
X31530Y13853
X31530Y13459
X31530Y13065
X31491Y12436
X31530Y12042
X31530Y11727
X31530Y11353
X31402Y10870
X31491Y10506
X31530Y9876
X31246Y9766
X31530Y9325
X31509Y8163
X31530Y7475
X30506Y10743
X30380Y11038
X29511Y10553
X27519Y10261
X26642Y9813
X26510Y9424
X26172Y9495
X25749Y9817
X25309Y9916
X24568Y9838
X24040Y8902
X23900Y8623
X23829Y8316
X23567Y9006
X22736Y8977
X22544Y8652
X21800Y8998
X21874Y9846
X21580Y9846
X21289Y9846
X20103Y9788
X20073Y9325
X20348Y8794
X20374Y7890
X21484Y7763
X19168Y7475
X18853Y7475
X18538Y7475
X19732Y10379
X19888Y10618
X19660Y10910
X19443Y11337
X19884Y11335
X19982Y12019
X19466Y12308
X19190Y11754
X19179Y12963
X18380Y14640
X18380Y14955
X18380Y15270
X18380Y15585
X18380Y15900
X18380Y16215
X18380Y16530
X18380Y16845
X18380Y17160
X18899Y17774
X18459Y18380
X18380Y18853
X18951Y19451
X18951Y19770
X18951Y20088
X18951Y20406
X18951Y20725
X19315Y21051
X18597Y21094
X20193Y20263
X20060Y19684
X20624Y18774
X20857Y18070
X20843Y17750
X20848Y17462
X20849Y17164
X21636Y16942
X21645Y16529
X22155Y16914
X22445Y17130
X22445Y17703
X22408Y18089
X21804Y17955
X21304Y17962
X21644Y18508
X21523Y19174
X21840Y19174
X22186Y19174
X21176Y19185
X22987Y18774
X25203Y18089
X25201Y17690
X25201Y17251
X25119Y16867
X24392Y16889
X24443Y16607
X25585Y16475
X25909Y16467
X25931Y15975
X26341Y16255
X26412Y17084
X26389Y17455
X26402Y17750
X26412Y18250
X26707Y17987
X27376Y17942
X27176Y18484
X27247Y19360
X27016Y19940
X26306Y19733
X26014Y19733
X26156Y19443
X26033Y18774
X25387Y19894
X25059Y19945
X27054Y16936
X27253Y16530
X28866Y16480
X29400Y15861
X29400Y15100
X29400Y14339
X29399Y13577
X25716Y13630
X25920Y13305
X25758Y12417
X26837Y11317
X26038Y8694
X25594Y8790
X25501Y9060
X25298Y8697
X22792Y10039
X22734Y10322
X21161Y15855
X20782Y15506
X19695Y15651
X19744Y16380
X20056Y16348
X20519Y16480
X18984Y16173
X25306Y15118
X30792Y17662
X30754Y18127
X31036Y18449
X31527Y18488
X30929Y19040
X31195Y19352
X31530Y20034
X31530Y20428
X31510Y21013
X30939Y20821
X30742Y19938
X31402Y17130
X2901Y14910
X5831Y14835
X4161Y14791
X795Y14791
X985Y14558
X2265Y14502
X2576Y14502
X5599Y14348
X4008Y14120
X4706Y14028
X2078Y13965
X1145Y13828
X873Y13536
X5913Y13433
X5276Y13387
X4899Y13345
X3592Y13270
X2355Y13266
X834Y12990
X2920Y12909
X1631Y12784
X3580Y12724
X4627Y12715
X2870Y12606
X795Y12508
X5918Y11711
X1602Y11543
X3407Y11253
X4346Y11023
X2846Y11022
X3639Y11021
X3882Y10815
X696Y10795
X3541Y10737
X4918Y10430
X2783Y10222
X4867Y10133
X726Y10008
X4220Y9992
X4873Y9823
X1440Y9805
X2822Y9732
X3822Y9673
X4497Y9520
X1523Y9516
X2256Y9215
X5222Y9197
X5523Y9189
X716Y8817
X5354Y8610
X5939Y8585
X5055Y8576
X5720Y8319
X4078Y8181
X3231Y8135
X2718Y8065
X1818Y8065
X1517Y8065
X1216Y8065
X915Y8065
X2310Y8061
X3846Y7685
X3629Y7429
X674Y5354
X2423Y5137
X5676Y5097
X5263Y4949
X2330Y4850
X4682Y4811
X4407Y4811
X4131Y4811
X5243Y4634
X667Y4614
X4682Y4506
X4407Y4506
X5657Y4309
X5362Y14847
X4968Y14847
X4574Y14847
X3676Y14847
X3276Y14847
X2350Y4378
X1956Y4378
X1562Y4378
X1169Y4378
T02
X6979Y20788
X7589Y17481
X11212Y28500
X11763Y12875
X18548Y5695
X33665Y26482
X36346Y21482
X36566Y21064
X36571Y16228
X36786Y20646
X36822Y15828
X37072Y15427
X41059Y17986
X41330Y17599
X41601Y17212
X42665Y20955
X43042Y20670
X43420Y20386
X48379Y12660
X48614Y17168
X50955Y14070
X54076Y21332
X57373Y12993
T03
X46761Y2203
X47076Y2892
X47391Y2203
X47706Y2892
X48021Y2203
X45954Y2804G85X45954Y2292
X48828Y2804G85X48828Y2292
T04
X1160Y28402
X61804Y28405
X62302Y655
X10054Y22265
X10135Y20680
X11418Y20901
X11500Y19316
X25435Y16117
X23857Y16117
X22435Y16117
T05
X8484Y17221
X8484Y16221
X8704Y11566
X8704Y9105
X8704Y7412
X8704Y6664
X8704Y4144
X14807Y11388
X14807Y6644
X14807Y4695
X14807Y3967
X54927Y2994
X54927Y1994
X55508Y6284
X55508Y5284
X14799Y11401
X14799Y6656
X8696Y6676
X8696Y7424
X8696Y9117
X8696Y11578
X8696Y4156
X14799Y3979
X14799Y4708
X47213Y8529
X46425Y7347
X45638Y8529
X54339Y8607
X52339Y8207
X52339Y9007
X31215Y7790
X22136Y8761
X22136Y7961
X20136Y8361
X1680Y7524
X2862Y6736
X1680Y5949
X1602Y14650
X2002Y12650
X1202Y12650
T06
X3325Y25295
X3325Y23681
X5569Y25295
X5569Y23681
X7813Y25295
X7813Y23681
X10057Y25295
X10057Y23681
X12301Y25295
X12301Y23681
X14545Y25295
X14545Y23681
X16789Y25295
X16789Y23681
X19034Y25295
X19034Y23681
X21278Y25295
X21278Y23681
X23522Y25295
X23522Y23681
X25766Y25295
X25766Y23681
X37183Y25276
X37183Y23662
X39427Y25276
X39427Y23662
X41671Y25276
X41671Y23662
X43915Y25276
X43915Y23662
X46160Y25276
X46160Y23662
X48404Y25276
X48404Y23662
X50648Y25276
X50648Y23662
X52892Y25276
X52892Y23662
X55136Y25276
X55136Y23662
X57380Y25276
X57380Y23662
X59624Y25276
X59624Y23662
X47390Y4720
X46390Y4720
X45390Y4720
X5489Y7701
X5489Y6701
X5489Y5701
T07
X25995Y5390
X25995Y2240
X26782Y3815
X27570Y5390
X27570Y2240
X28357Y3815
X29145Y5390
X29145Y2240
X29932Y3815
X30719Y5390
X30719Y2240
X31507Y3815
X32294Y5390
X32294Y2240
X33082Y3815
X33869Y5390
X33869Y2240
X34656Y3815
X35444Y5390
X35444Y2240
X36231Y3815
X37019Y5390
X37019Y2240
T08
X23436Y3618
X39578Y3618
T09
X1750Y20748
X1977Y1957
X52356Y1819
X61380Y19255
M30
