M48
INCH,TZ
T01C0.009850
T02C0.029550
T03C0.032000
T04C0.039200
T05C0.043300
T06C0.068900
T07C0.112200
T08C0.126000
%
T01
X321Y14706
X321Y13525
X321Y12343
X321Y11162
X321Y9981
X321Y8800
X321Y7619
X321Y6438
X321Y5257
X321Y4076
X1061Y28877
X1061Y27696
X1061Y26515
X1061Y22972
X1061Y18248
X1061Y17066
X1061Y15885
X1061Y531
X2242Y28877
X2242Y27696
X2242Y24153
X2242Y531
X2885Y15198
X3423Y28877
X3423Y27696
X3423Y22972
X3423Y1712
X3423Y531
X3633Y16300
X3672Y15631
X4027Y18781
X4223Y15198
X4604Y28877
X4604Y27696
X4604Y531
X4775Y3899
X5006Y20395
X5009Y17144
X5613Y3050
X5786Y28877
X5786Y27696
X5786Y22972
X5786Y21791
X5786Y531
X6271Y14568
X6271Y13387
X6271Y12206
X6271Y11025
X6271Y9844
X6271Y8662
X6271Y7481
X6271Y6300
X6271Y5119
X6271Y3938
X6310Y18781
X6448Y2215
X6967Y28877
X6967Y27696
X6967Y24153
X6967Y22972
X6967Y21791
X6967Y531
X7530Y9765
X7767Y20828
X8148Y28877
X8148Y27696
X8148Y22972
X8148Y21791
X8148Y14704
X8148Y13523
X8148Y12342
X8148Y531
X8200Y9450
X8200Y8269
X8200Y5907
X8200Y4725
X9184Y3505
X9329Y28877
X9329Y25334
X9329Y22972
X9329Y21791
X9329Y20610
X9329Y18248
X9329Y12342
X9329Y531
X9381Y2284
X10011Y18308
X10089Y12009
X10365Y3505
X10510Y28877
X10510Y27696
X10510Y531
X10562Y2284
X11271Y12009
X11349Y13111
X11467Y16458
X11546Y3505
X11691Y28877
X11691Y27696
X11691Y531
X11743Y2284
X12137Y21103
X12452Y12009
X12727Y3505
X12872Y28877
X12872Y27696
X12872Y22972
X12872Y531
X12924Y2284
X13239Y14657
X13515Y13308
X13633Y12009
X13790Y16340
X13890Y14324
X13908Y3505
X14053Y28877
X14053Y27696
X14053Y20610
X14053Y531
X14105Y2284
X14704Y21812
X14735Y22639
X14893Y14371
X14932Y20237
X15234Y28877
X15234Y531
X15286Y2284
X15326Y11969
X15326Y10788
X15326Y9607
X15326Y8426
X15326Y7245
X15326Y6064
X16192Y20237
X16349Y18584
X16415Y28877
X16415Y531
X16467Y2284
X17215Y26773
X17334Y26025
X17397Y11883
X17412Y18662
X17452Y8151
X17452Y5080
X17597Y28877
X17597Y531
X17649Y2284
X17924Y5080
X18003Y26536
X18003Y21930
X18003Y20749
X18003Y19568
X18003Y18190
X18003Y12363
X18042Y10198
X18042Y9017
X18042Y7836
X18160Y22757
X18778Y531
X18967Y2265
X19184Y21930
X19184Y5473
X19223Y4844
X19775Y28269
X19959Y531
X20011Y24292
X20011Y23584
X20011Y4844
X20227Y5454
X20286Y7284
X20365Y21930
X20523Y28308
X20641Y1025
X21054Y4588
X21140Y531
X21310Y5434
X21940Y3151
X21940Y2363
X22321Y28877
X22321Y25334
X22321Y531
X22452Y7403
X22530Y3151
X22570Y2363
X23502Y28877
X23502Y531
X24420Y4410
X24420Y2166
X24683Y28877
X24683Y25334
X24696Y5710
X24775Y907
X24971Y4410
X25404Y7127
X25864Y28877
X25864Y4074
X25864Y531
X26310Y7363
X27045Y28877
X27045Y25334
X27045Y531
X27688Y7403
X28227Y28877
X28227Y22972
X28227Y531
X28357Y27127
X29105Y4450
X29408Y28877
X29408Y531
X29538Y27127
X30089Y7363
X30589Y28877
X30589Y25334
X30719Y27127
X30916Y22166
X31034Y3151
X31664Y23505
X31770Y28877
X31770Y25334
X31822Y19450
X31822Y18269
X31822Y17088
X31861Y21221
X31901Y27127
X31901Y12521
X31940Y15040
X31940Y13859
X31940Y11379
X31940Y10198
X31940Y9017
X31940Y7836
X32176Y24056
X32196Y23525
X32196Y23013
X32255Y7403
X32609Y9174
X32951Y28877
X32951Y25334
X33003Y9765
X33082Y27127
X33278Y8820
X33328Y12353
X33515Y8190
X33528Y7367
X33554Y9332
X33830Y24883
X33830Y23702
X33830Y22521
X33830Y21340
X33830Y20158
X33830Y18977
X33830Y17796
X33876Y11912
X34132Y28877
X34132Y14704
X34243Y7462
X34263Y27127
X34496Y11434
X34814Y9568
X34814Y8820
X35313Y28877
X35313Y15885
X35313Y14704
X35313Y13523
X35313Y11161
X35444Y27127
X35680Y20749
X36034Y15355
X36062Y21274
X36313Y15936
X36353Y20649
X36494Y28877
X36494Y11161
X36686Y21565
X36687Y15358
X36891Y16310
X36977Y20941
X37265Y15732
X37412Y21497
X37530Y16261
X37675Y28877
X37675Y11161
X38152Y4914
X38397Y17009
X38825Y17731
X38830Y12245
X38856Y28877
X38987Y5749
X39159Y17151
X39184Y27166
X39334Y12571
X39540Y18145
X39669Y11991
X39766Y4756
X39822Y6584
X39876Y17565
X40038Y28877
X40038Y17066
X40038Y15885
X40038Y14704
X40038Y13523
X40050Y12985
X40365Y27166
X40386Y12405
X40601Y16969
X40601Y5592
X40659Y7416
X40934Y17563
X41219Y28877
X41219Y20610
X41219Y14704
X41219Y13523
X41219Y12342
X41327Y16997
X41428Y9686
X41436Y6427
X41500Y17956
X41546Y27166
X41625Y7521
X41743Y20592
X41824Y21243
X41893Y17390
X42176Y17954
X42249Y21786
X42255Y26103
X42367Y20819
X42400Y28877
X42400Y24153
X42400Y12342
X42727Y27166
X42791Y21362
X42845Y22009
X43475Y13741
X43581Y28877
X43581Y26515
X43581Y21791
X43581Y17066
X43581Y4074
X43581Y2893
X43633Y5631
X43908Y27166
X43922Y14188
X44105Y9883
X44257Y13608
X44638Y14602
X44762Y28877
X44762Y26515
X44762Y21791
X44971Y25434
X44974Y14022
X45286Y9883
X45324Y18221
X45659Y17641
X45719Y16379
X45784Y28422
X45943Y17066
X46040Y18635
X46376Y18055
X46389Y14135
X46391Y14845
X46467Y9883
X47124Y28877
X47124Y22972
X47124Y11161
X47176Y18466
X47649Y9883
X47688Y15749
X47885Y19017
X47924Y14922
X48042Y15749
X48305Y28877
X48305Y12342
X48305Y2893
X48584Y19703
X48633Y27127
X48830Y9883
X49145Y14174
X49245Y21694
X49486Y28877
X49486Y25334
X49486Y11161
X49486Y531
X49499Y14174
X49814Y21851
X49990Y18938
X50011Y9883
X50168Y21851
X50667Y15885
X50667Y14704
X50667Y13523
X50667Y12342
X50667Y11161
X50667Y2893
X50667Y1712
X50667Y531
X50719Y19174
X50798Y22009
X50916Y26418
X51192Y9883
X51507Y11812
X51743Y27914
X51849Y17066
X51849Y15885
X51849Y13523
X51849Y12342
X51849Y11161
X52373Y9883
X53030Y12342
X53030Y11161
X53554Y9883
X53790Y15828
X53790Y15473
X53869Y20592
X54066Y26851
X54211Y25334
X54211Y11161
X54211Y2893
X54223Y20592
X54538Y16733
X54735Y9883
X55365Y13466
X55392Y27696
X55392Y11161
X55392Y4074
X55392Y531
X55916Y946
X56201Y7844
X56573Y27696
X56573Y25334
X56573Y20610
X56573Y15885
X56573Y14704
X56573Y531
X57058Y19804
X57097Y15749
X57255Y19095
X57412Y19804
X57452Y15749
X57754Y12342
X57754Y7618
X57754Y6437
X57754Y5255
X57754Y4074
X57754Y2893
X57754Y1712
X57754Y531
X58200Y22206
X58790Y12639
X58935Y28877
X58935Y7618
X58935Y6437
X58935Y5255
X58935Y4074
X58935Y2893
X58935Y1712
X58935Y531
X58948Y20781
X59145Y12639
X60116Y28877
X60116Y27696
X60116Y15885
X60116Y14704
X60116Y7618
X60116Y6437
X60116Y5255
X60116Y4074
X60116Y2893
X60116Y1712
X60116Y531
X60562Y22481
X60995Y12245
X61297Y28877
X61297Y27696
X61297Y26515
X61297Y17066
X61297Y15885
X61297Y531
X62478Y28877
X62478Y27696
X62478Y26515
X62478Y25334
X62478Y24153
X62478Y22972
X62478Y21791
X62478Y20610
X62478Y17066
X62478Y15885
X62478Y14704
X62478Y13523
X62478Y12342
X62478Y11161
X62478Y9980
X62478Y8799
X62478Y7618
X62478Y6437
X62478Y5255
X62478Y4074
X62478Y2893
X62478Y1712
X62478Y531
X1177Y4366
X1571Y4366
X1964Y4366
X2358Y4366
X3285Y14835
X3685Y14835
X4582Y14835
X4976Y14835
X5370Y14835
X8527Y10444
X8527Y10050
X18381Y17379
X18381Y17064
X18381Y16749
X18381Y16434
X18381Y16119
X18381Y15804
X18381Y15489
X18381Y15174
X18381Y14859
X18381Y14544
X18381Y14229
X18381Y13914
X18381Y13599
X18381Y13284
X18381Y12655
X18381Y12103
X18381Y11788
X18381Y11473
X18381Y11158
X18381Y10844
X18381Y10529
X18381Y19072
X18381Y12969
X18538Y7694
X18853Y7694
X19168Y7694
X19483Y7694
X19798Y7694
X20113Y7694
X20428Y7694
X20743Y7694
X20979Y21631
X21058Y7694
X21373Y7694
X21452Y21631
X21688Y7694
X21924Y21631
X22003Y7694
X22397Y21631
X22869Y21631
X22948Y7694
X23263Y7694
X23341Y21631
X23578Y7694
X23814Y21631
X23893Y7694
X24208Y7694
X24286Y21631
X24523Y7694
X24759Y21631
X24838Y7694
X25152Y7694
X25231Y21631
X25467Y7694
X25704Y21631
X26176Y21631
X26649Y21631
X27121Y21631
X27160Y7694
X27593Y21631
X28066Y21631
X28223Y7694
X28538Y21631
X28617Y7694
X29011Y21631
X29483Y21631
X29956Y21631
X30428Y21631
X31373Y21631
X31530Y20647
X31530Y20253
X31530Y16040
X31530Y15647
X31530Y15253
X31530Y14859
X31530Y14466
X31530Y14072
X31530Y13678
X31530Y13284
X31530Y12261
X31530Y11946
X31530Y10095
X31530Y9544
X31530Y7694
X44075Y9028
X44075Y8634
X44075Y8241
X44075Y7847
X54544Y6920
X54544Y6520
X54544Y5623
X54544Y5229
X54544Y4835
X14001Y11690
X14273Y11054
X14059Y10669
X14700Y10240
X14740Y9904
X14543Y9314
X14267Y9058
X14149Y8527
X14543Y8231
X14740Y8723
X14740Y7542
X14740Y5967
X14267Y5987
X13156Y5695
X12109Y5720
X11787Y6008
X10734Y6083
X9622Y5967
X8834Y5967
X9307Y6971
X9952Y6977
X9892Y8223
X9425Y8133
X9257Y8613
X8834Y8330
X9256Y9498
X8560Y9670
X8519Y10062
X8519Y10456
X9201Y10362
X9511Y10851
X9124Y11168
X9521Y11598
X9910Y11219
X9985Y10495
X9937Y10062
X11253Y11047
X11253Y11676
X12172Y11690
X13027Y11690
X12804Y11048
X12220Y10023
X11827Y8576
X12574Y8527
X12141Y8017
X11552Y7019
X10606Y5062
X9674Y4995
X9622Y4590
X8834Y4786
X9228Y5377
X11702Y4237
X11660Y3831
X12489Y4247
X12754Y4650
X14191Y4573
X13782Y5208
X14622Y5441
X54599Y7308
X54524Y4378
X54480Y6048
X54480Y9414
X54247Y9224
X54191Y7944
X54191Y7633
X54037Y4610
X53809Y6201
X53717Y5503
X53654Y8131
X53517Y9064
X53225Y9336
X53122Y4296
X53076Y4933
X53034Y5310
X52959Y6617
X52955Y7854
X52679Y9375
X52598Y7289
X52473Y8578
X52413Y6629
X52404Y5582
X52295Y7339
X52197Y9414
X51400Y4291
X51232Y8607
X50942Y6802
X50712Y5863
X50711Y7363
X50710Y6570
X50504Y6327
X50484Y9513
X50426Y6668
X50119Y5291
X49911Y7426
X49822Y5342
X49697Y9483
X49681Y5989
X49512Y5336
X49494Y8769
X49421Y7387
X49362Y6387
X49209Y5712
X49205Y8686
X48904Y7953
X48886Y4987
X48878Y4686
X48506Y9493
X48299Y4855
X48274Y4270
X48265Y5154
X48008Y4489
X47870Y6131
X47824Y6978
X47754Y7491
X47754Y8391
X47754Y8692
X47754Y8993
X47754Y9294
X47750Y7899
X47374Y6363
X47118Y6580
X45043Y9535
X44826Y7786
X44786Y4533
X44638Y4946
X44539Y7879
X44500Y5527
X44500Y5802
X44500Y6078
X44323Y4966
X44303Y9542
X44195Y5527
X44195Y5802
X43998Y4552
X54536Y4847
X54536Y5241
X54536Y5635
X54536Y6533
X54536Y6933
X44067Y7859
X44067Y8253
X44067Y8647
X44067Y9040
X31365Y21643
X30889Y21612
X30657Y21422
X30421Y21643
X30184Y21442
X29948Y21643
X29712Y21442
X29476Y21643
X29239Y21442
X29003Y21643
X28767Y21442
X28531Y21643
X28295Y21442
X28058Y21643
X27822Y21442
X27586Y21643
X27350Y21442
X27113Y21643
X26877Y21442
X26641Y21643
X26405Y21442
X26169Y21643
X25932Y21442
X25696Y21643
X25460Y21442
X25224Y21643
X24987Y21442
X24751Y21643
X24515Y21442
X24279Y21643
X24043Y21442
X23806Y21643
X23570Y21442
X23334Y21643
X23098Y21442
X22861Y21643
X22625Y21442
X22389Y21643
X22153Y21442
X21917Y21643
X21680Y21442
X21444Y21643
X21208Y21442
X20972Y21643
X20657Y21485
X20664Y20950
X21091Y20756
X21542Y20746
X21984Y20739
X22457Y20741
X22962Y19694
X23272Y19694
X23519Y20167
X24117Y19964
X24413Y19955
X24256Y19684
X24139Y19002
X24394Y18734
X24491Y18193
X24052Y18193
X23592Y18313
X23592Y17981
X23592Y17686
X23598Y17395
X23268Y16711
X22723Y16715
X22861Y16131
X23491Y16210
X23561Y15378
X23576Y14992
X23924Y15186
X24158Y15386
X24415Y14953
X25108Y14652
X25706Y14635
X26053Y14931
X26828Y14756
X26810Y15311
X26820Y15858
X27528Y15731
X27483Y14932
X27509Y14167
X27531Y13357
X26828Y13317
X26828Y13602
X26828Y13887
X26828Y13016
X26040Y12700
X26053Y12415
X26085Y12117
X26035Y11635
X25631Y11584
X25001Y11106
X24624Y11118
X23688Y10974
X23363Y11574
X23155Y11371
X23173Y11898
X22815Y11945
X23366Y12129
X23572Y13272
X23795Y13501
X23841Y14184
X24132Y14195
X23645Y14403
X22976Y14403
X22110Y14592
X21916Y14806
X21712Y15010
X21510Y15212
X21513Y14399
X21960Y13934
X21973Y13233
X21597Y13331
X21720Y12863
X21922Y12326
X21682Y12100
X21488Y11702
X21680Y11446
X21781Y11063
X21821Y10757
X21523Y10855
X21019Y11057
X20963Y11358
X21019Y11920
X20872Y12165
X21129Y12548
X21147Y13039
X19919Y13431
X19609Y13745
X19791Y13966
X19826Y14486
X18373Y14556
X18373Y14241
X18373Y13926
X18373Y13611
X18373Y13296
X18373Y12981
X18373Y12667
X18512Y12389
X18373Y12115
X18373Y11800
X18373Y11485
X18373Y11170
X18373Y10855
X18373Y10541
X18730Y10453
X18513Y10209
X18822Y9507
X18826Y8572
X19199Y8528
X19201Y8813
X19574Y8572
X19476Y7706
X19791Y7706
X20106Y7706
X20421Y7706
X20735Y7706
X21050Y7706
X21365Y7706
X21680Y7706
X21995Y7706
X22586Y7903
X22940Y7706
X23255Y7706
X23570Y7706
X23885Y7706
X24200Y7706
X24515Y7706
X24830Y7706
X25145Y7706
X25460Y7706
X25972Y7745
X25878Y8400
X26276Y8436
X26621Y8391
X26900Y8693
X26842Y7938
X27153Y7706
X28216Y7706
X28610Y7706
X28971Y7730
X28963Y8193
X29193Y8638
X29274Y9511
X29714Y9288
X28528Y8976
X28065Y8657
X28108Y9508
X27665Y9556
X27180Y9984
X27172Y10269
X27104Y10629
X27101Y10925
X27831Y10826
X27822Y11210
X27831Y11535
X27492Y11863
X27831Y12243
X27815Y12595
X27835Y12890
X27518Y12572
X28513Y12144
X28516Y11700
X29692Y11844
X29672Y12365
X29673Y12754
X28848Y13219
X28548Y13180
X28525Y13633
X28525Y13920
X28525Y14207
X28525Y14623
X28525Y14909
X28507Y15333
X28507Y15641
X28507Y15930
X28283Y16670
X28003Y16765
X27691Y17160
X27989Y17480
X27989Y18046
X27996Y18332
X27905Y18993
X28108Y19738
X27940Y19970
X28240Y20005
X28865Y20169
X29161Y20169
X29787Y19964
X30073Y19964
X29909Y19681
X29805Y19005
X29964Y18736
X30144Y18159
X29668Y18159
X29182Y18313
X29182Y17981
X29182Y17686
X29189Y17395
X29952Y17173
X29948Y16796
X30751Y16788
X30724Y17122
X31019Y16690
X31498Y16647
X31523Y16052
X31523Y15659
X31523Y15265
X31523Y14871
X31523Y14478
X31523Y14084
X31523Y13690
X31523Y13296
X31484Y12667
X31523Y12273
X31523Y11958
X31523Y11584
X31395Y11101
X31484Y10737
X31523Y10107
X31239Y9997
X31523Y9556
X31502Y8394
X31523Y7706
X30499Y10974
X30373Y11269
X29504Y10784
X27512Y10492
X26635Y10044
X26503Y9655
X26165Y9726
X25742Y10048
X25302Y10147
X24561Y10069
X24033Y9133
X23893Y8854
X23822Y8547
X23560Y9237
X22729Y9208
X22537Y8883
X21793Y9229
X21867Y10077
X21573Y10077
X21282Y10077
X20096Y10019
X20066Y9556
X20341Y9025
X20367Y8121
X21477Y7994
X19161Y7706
X18846Y7706
X18531Y7706
X19725Y10610
X19881Y10849
X19653Y11141
X19436Y11568
X19877Y11566
X19975Y12250
X19459Y12539
X19183Y11985
X19172Y13194
X18373Y14871
X18373Y15186
X18373Y15501
X18373Y15816
X18373Y16131
X18373Y16446
X18373Y16761
X18373Y17076
X18373Y17391
X18892Y18005
X18452Y18611
X18373Y19084
X18944Y19682
X18944Y20001
X18944Y20319
X18944Y20637
X18944Y20956
X19308Y21282
X18590Y21325
X20186Y20494
X20053Y19915
X20617Y19005
X20850Y18301
X20836Y17981
X20841Y17693
X20842Y17395
X21629Y17173
X21638Y16760
X22148Y17145
X22438Y17361
X22438Y17934
X22401Y18320
X21797Y18186
X21297Y18193
X21637Y18739
X21516Y19405
X21833Y19405
X22179Y19405
X21169Y19416
X22980Y19005
X25196Y18320
X25194Y17921
X25194Y17482
X25112Y17098
X24385Y17120
X24436Y16838
X25578Y16706
X25902Y16698
X25924Y16206
X26334Y16486
X26405Y17315
X26382Y17686
X26395Y17981
X26405Y18481
X26700Y18218
X27369Y18173
X27169Y18715
X27240Y19591
X27009Y20171
X26299Y19964
X26007Y19964
X26149Y19674
X26026Y19005
X25380Y20125
X25052Y20176
X27047Y17167
X27246Y16761
X28859Y16711
X29393Y16092
X29393Y15331
X29393Y14570
X29392Y13808
X25709Y13861
X25913Y13536
X25751Y12648
X26830Y11548
X26031Y8925
X25587Y9021
X25494Y9291
X25291Y8928
X22785Y10270
X22727Y10553
X21154Y16086
X20775Y15737
X19688Y15882
X19737Y16611
X20049Y16579
X20512Y16711
X18977Y16404
X25299Y15349
X30785Y17893
X30747Y18358
X31029Y18680
X31520Y18719
X30922Y19271
X31188Y19583
X31523Y20265
X31523Y20659
X31503Y21244
X30932Y21052
X30735Y20169
X31395Y17361
X2901Y14910
X5831Y14835
X4161Y14791
X795Y14791
X985Y14558
X2265Y14502
X2576Y14502
X5599Y14348
X4008Y14120
X4706Y14028
X2078Y13965
X1145Y13828
X873Y13536
X5913Y13433
X5276Y13387
X4899Y13345
X3592Y13270
X2355Y13266
X834Y12990
X2920Y12909
X1631Y12784
X3580Y12724
X4627Y12715
X2870Y12606
X795Y12508
X5918Y11711
X1602Y11543
X3407Y11253
X4346Y11023
X2846Y11022
X3639Y11021
X3882Y10815
X696Y10795
X3541Y10737
X4918Y10430
X2783Y10222
X4867Y10133
X726Y10008
X4220Y9992
X4873Y9823
X1440Y9805
X2822Y9732
X3822Y9673
X4497Y9520
X1523Y9516
X2256Y9215
X5222Y9197
X5523Y9189
X716Y8817
X5354Y8610
X5939Y8585
X5055Y8576
X5720Y8319
X4078Y8181
X3231Y8135
X2718Y8065
X1818Y8065
X1517Y8065
X1216Y8065
X915Y8065
X2310Y8061
X3846Y7685
X3629Y7429
X674Y5354
X2423Y5137
X5676Y5097
X5263Y4949
X2330Y4850
X4682Y4811
X4407Y4811
X4131Y4811
X5243Y4634
X667Y4614
X4682Y4506
X4407Y4506
X5657Y4309
X5362Y14847
X4968Y14847
X4574Y14847
X3676Y14847
X3276Y14847
X2350Y4378
X1956Y4378
X1562Y4378
X1169Y4378
T02
X46761Y2203
X47076Y2892
X47391Y2203
X47706Y2892
X48021Y2203
X45954Y2804G85X45954Y2292
X48828Y2804G85X48828Y2292
T03
X10054Y22265
X10135Y20680
X11418Y20901
X11500Y19316
X25428Y16348
X23850Y16348
X22428Y16348
T04
X8484Y17221
X8484Y16221
X8704Y11566
X8704Y9105
X8704Y7412
X8704Y6664
X8704Y4144
X14807Y11388
X14807Y6644
X14807Y4695
X14807Y3967
X54927Y2994
X54927Y1994
X55508Y6284
X55508Y5284
X14799Y11401
X14799Y6656
X8696Y6676
X8696Y7424
X8696Y9117
X8696Y11578
X8696Y4156
X14799Y3979
X14799Y4708
X47213Y8529
X46425Y7347
X45638Y8529
X54339Y8607
X52339Y8207
X52339Y9007
X31208Y8021
X22129Y8992
X22129Y8192
X20129Y8592
X1680Y7524
X2862Y6736
X1680Y5949
X1602Y14650
X2002Y12650
X1202Y12650
T05
X3325Y25295
X3325Y23681
X5569Y25295
X5569Y23681
X7813Y25295
X7813Y23681
X10057Y25295
X10057Y23681
X12301Y25295
X12301Y23681
X14545Y25295
X14545Y23681
X16789Y25295
X16789Y23681
X19034Y25295
X19034Y23681
X21278Y25295
X21278Y23681
X23522Y25295
X23522Y23681
X25766Y25295
X25766Y23681
X37183Y25276
X37183Y23662
X39427Y25276
X39427Y23662
X41671Y25276
X41671Y23662
X43915Y25276
X43915Y23662
X46160Y25276
X46160Y23662
X48404Y25276
X48404Y23662
X50648Y25276
X50648Y23662
X52892Y25276
X52892Y23662
X55136Y25276
X55136Y23662
X57380Y25276
X57380Y23662
X59624Y25276
X59624Y23662
X47390Y4720
X46390Y4720
X45390Y4720
X5489Y7701
X5489Y6701
X5489Y5701
T06
X25995Y5390
X25995Y2240
X26782Y3815
X27570Y5390
X27570Y2240
X28357Y3815
X29145Y5390
X29145Y2240
X29932Y3815
X30719Y5390
X30719Y2240
X31507Y3815
X32294Y5390
X32294Y2240
X33082Y3815
X33869Y5390
X33869Y2240
X34656Y3815
X35444Y5390
X35444Y2240
X36231Y3815
X37019Y5390
X37019Y2240
T07
X23436Y3618
X39578Y3618
T08
X1750Y20729
X1977Y1957
X52354Y1819
X61380Y19255
M30
